<svg width="16" height="16" viewBox="0 0 16 16" fill="none" xmlns="http://www.w3.org/2000/svg">
<g filter="url(#filter0_i_2586_56)">
<ellipse cx="7.99094" cy="8" rx="7.99094" ry="8" fill="url(#paint0_linear_2586_56)"/>
</g>
<g filter="url(#filter1_i_2586_56)">
<ellipse cx="7.99093" cy="7.93678" rx="6.66818" ry="6.6863" fill="url(#paint1_linear_2586_56)"/>
</g>
<ellipse cx="7.99088" cy="7.99994" rx="6.48697" ry="6.49604" fill="#8692FF" fill-opacity="0.67"/>
<g filter="url(#filter2_i_2586_56)">
<ellipse cx="7.92746" cy="8.06347" rx="6.42356" ry="6.43262" fill="url(#paint2_linear_2586_56)"/>
</g>
<path d="M10.5744 4.82931C11.0312 4.7373 12.0827 4.71132 12.635 5.342C13.3251 6.13078 12.7439 7.58015 11.0481 8.10275C10.0204 8.41942 9.07286 8.56049 8.42989 8.59982C9.23813 8.76071 10.7424 9.26306 12.9592 7.83224C12.6994 9.84521 11.3355 11.2737 9.97189 11.6633C9.97304 11.6623 9.97367 11.6604 9.97482 11.6594C9.66215 11.7772 9.2248 11.8486 8.63009 11.8147C7.11506 11.7279 5.85968 10.4509 5.44845 9.58517C6.81208 10.5375 8.10709 10.6301 8.97677 10.3215C8.99995 10.3133 9.02326 10.3064 9.04611 10.299C9.01646 10.2997 8.98618 10.2993 8.95528 10.3C8.40908 10.313 7.63782 9.98008 7.17696 9.77755C7.1779 9.77861 7.179 9.77948 7.17989 9.78048C6.34194 9.49193 4.81815 8.75934 4.8713 6.91915C4.85296 6.78274 4.86653 6.64464 4.90743 6.51193C4.90485 6.52989 4.9029 6.54786 4.9006 6.56564C4.97858 6.20663 5.19563 5.87066 5.39181 5.67794C5.8225 5.25498 6.46642 4.95774 7.34396 5.00704C7.17634 5.13193 6.79145 5.46106 6.76778 5.77657C6.73854 6.1707 7.11346 6.50523 7.89181 6.47579C8.67073 6.44621 10.2194 6.48648 10.8899 6.08224C11.4471 5.74624 11.4021 5.27756 10.9201 4.98458C10.8188 4.92498 10.7027 4.87209 10.5744 4.82931ZM4.8713 6.91915C4.87216 6.92555 4.8742 6.9323 4.87521 6.93868C4.87404 6.9276 4.8721 6.91659 4.8713 6.90548C4.87115 6.91004 4.87143 6.91461 4.8713 6.91915Z" fill="black" fill-opacity="0.12"/>
<path d="M7.71697 11.5102C6.20182 11.4236 4.94641 10.1466 4.53516 9.28076C5.89879 10.2331 7.19361 10.3253 8.06329 10.0167C9.04348 9.66888 9.72995 10.0994 9.72995 10.666C9.72995 11.0124 9.23211 11.5968 7.71697 11.5102Z" fill="url(#paint3_linear_2586_56)"/>
<path d="M9.05902 11.359C10.4227 10.9694 11.7863 9.54081 12.046 7.52783C9.66508 9.06462 8.10664 8.36845 7.34907 8.26376C6.81119 8.18943 6.41637 8.10223 6.05153 8.36845C5.71352 8.61509 5.76082 9.13045 5.89885 9.32436C6.09366 9.36765 7.28413 10.0134 8.04171 9.99536C8.95079 9.97371 9.31395 9.99536 9.44863 10.3417C9.58331 10.688 9.49192 10.991 9.05902 11.359Z" fill="url(#paint4_linear_2586_56)"/>
<path d="M9.66128 4.52469C10.1181 4.43266 11.1698 4.40637 11.722 5.0374C12.4122 5.82618 11.8304 7.27558 10.1345 7.79815C8.77784 8.21621 7.56106 8.33041 6.99991 8.3049C6.6521 8.2891 6.17781 8.27329 6.06244 8.67548C5.94708 9.07767 6.18774 9.38683 6.26662 9.47557C5.42869 9.18705 3.90495 8.45515 3.9581 6.61487C3.93966 6.47829 3.95294 6.34007 3.9939 6.20718C3.97353 6.34879 3.96187 6.4846 3.9581 6.61487C4.05705 7.34753 5.06903 8.03274 7.61967 7.59129C9.25579 7.30811 10.0512 6.40436 10.4106 5.50081C10.5571 5.07635 10.2251 4.71273 9.66128 4.52469Z" fill="url(#paint5_linear_2586_56)"/>
<path d="M5.85495 5.47145C5.87861 5.15593 6.26305 4.82727 6.43067 4.70238C5.55314 4.65308 4.90911 4.94989 4.47842 5.37285C3.93529 5.90623 3.21886 7.53679 5.79579 7.71949C8.43821 7.90682 9.72518 6.83327 10.282 5.84612C10.7786 4.9657 10.0508 4.64951 9.66084 4.5249C10.4466 4.77598 10.6468 5.37285 9.97635 5.7771C9.30588 6.18135 7.75789 6.14191 6.97897 6.17149C6.20004 6.20107 5.82537 5.86584 5.85495 5.47145Z" fill="url(#paint6_linear_2586_56)"/>
<defs>
<filter id="filter0_i_2586_56" x="-0.797778" y="-0.797778" width="16.7797" height="16.7978" filterUnits="userSpaceOnUse" color-interpolation-filters="sRGB">
<feFlood flood-opacity="0" result="BackgroundImageFix"/>
<feBlend mode="normal" in="SourceGraphic" in2="BackgroundImageFix" result="shape"/>
<feColorMatrix in="SourceAlpha" type="matrix" values="0 0 0 0 0 0 0 0 0 0 0 0 0 0 0 0 0 0 127 0" result="hardAlpha"/>
<feOffset dx="-0.797778" dy="-0.797778"/>
<feGaussianBlur stdDeviation="2.99167"/>
<feComposite in2="hardAlpha" operator="arithmetic" k2="-1" k3="1"/>
<feColorMatrix type="matrix" values="0 0 0 0 1 0 0 0 0 1 0 0 0 0 1 0 0 0 0.2 0"/>
<feBlend mode="normal" in2="shape" result="effect1_innerShadow_2586_56"/>
</filter>
<filter id="filter1_i_2586_56" x="1.32275" y="0.0538213" width="14.1342" height="14.5692" filterUnits="userSpaceOnUse" color-interpolation-filters="sRGB">
<feFlood flood-opacity="0" result="BackgroundImageFix"/>
<feBlend mode="normal" in="SourceGraphic" in2="BackgroundImageFix" result="shape"/>
<feColorMatrix in="SourceAlpha" type="matrix" values="0 0 0 0 0 0 0 0 0 0 0 0 0 0 0 0 0 0 127 0" result="hardAlpha"/>
<feOffset dx="0.797778" dy="-1.19667"/>
<feGaussianBlur stdDeviation="1.99445"/>
<feComposite in2="hardAlpha" operator="arithmetic" k2="-1" k3="1"/>
<feColorMatrix type="matrix" values="0 0 0 0 1 0 0 0 0 1 0 0 0 0 1 0 0 0 0.15 0"/>
<feBlend mode="normal" in2="shape" result="effect1_innerShadow_2586_56"/>
</filter>
<filter id="filter2_i_2586_56" x="0.706128" y="0.833081" width="13.6449" height="13.663" filterUnits="userSpaceOnUse" color-interpolation-filters="sRGB">
<feFlood flood-opacity="0" result="BackgroundImageFix"/>
<feBlend mode="normal" in="SourceGraphic" in2="BackgroundImageFix" result="shape"/>
<feColorMatrix in="SourceAlpha" type="matrix" values="0 0 0 0 0 0 0 0 0 0 0 0 0 0 0 0 0 0 127 0" result="hardAlpha"/>
<feOffset dx="-0.797778" dy="-0.797778"/>
<feGaussianBlur stdDeviation="2.99167"/>
<feComposite in2="hardAlpha" operator="arithmetic" k2="-1" k3="1"/>
<feColorMatrix type="matrix" values="0 0 0 0 1 0 0 0 0 1 0 0 0 0 1 0 0 0 0.2 0"/>
<feBlend mode="normal" in2="shape" result="effect1_innerShadow_2586_56"/>
</filter>
<linearGradient id="paint0_linear_2586_56" x1="-3.26563" y1="8.8125" x2="21.3281" y2="8.92188" gradientUnits="userSpaceOnUse">
<stop stop-color="#5465F7"/>
<stop offset="1" stop-color="#7D2FD0"/>
</linearGradient>
<linearGradient id="paint1_linear_2586_56" x1="-0.875038" y1="8.29708" x2="20.8906" y2="8.32833" gradientUnits="userSpaceOnUse">
<stop offset="0.0123726" stop-color="#4E60F6"/>
<stop offset="0.99" stop-color="#7119CF"/>
</linearGradient>
<linearGradient id="paint2_linear_2586_56" x1="-1.12118" y1="8.71679" x2="18.6486" y2="8.80469" gradientUnits="userSpaceOnUse">
<stop stop-color="#5465F7"/>
<stop offset="1" stop-color="#7D2FD0"/>
</linearGradient>
<linearGradient id="paint3_linear_2586_56" x1="10.5302" y1="10.4063" x2="3.89552" y2="10.194" gradientUnits="userSpaceOnUse">
<stop stop-color="#8B97FF"/>
<stop offset="1" stop-color="#EDEFFF"/>
</linearGradient>
<linearGradient id="paint4_linear_2586_56" x1="5.42201" y1="8.9564" x2="12.9752" y2="9.57227" gradientUnits="userSpaceOnUse">
<stop stop-color="#8B97FF"/>
<stop offset="1" stop-color="#EDEFFF"/>
</linearGradient>
<linearGradient id="paint5_linear_2586_56" x1="12.1946" y1="8.50825" x2="6.53634" y2="4.01724" gradientUnits="userSpaceOnUse">
<stop stop-color="#8B97FF"/>
<stop offset="1" stop-color="#EDEFFF"/>
</linearGradient>
<linearGradient id="paint6_linear_2586_56" x1="9.33546" y1="8.0843" x2="4.47398" y2="3.70078" gradientUnits="userSpaceOnUse">
<stop stop-color="#8B97FF"/>
<stop offset="1" stop-color="#EDEFFF"/>
</linearGradient>
</defs>
</svg>
