<svg width="55" height="55" viewBox="0 0 55 55" fill="none" xmlns="http://www.w3.org/2000/svg">
<g filter="url(#filter0_i_1453_2051)">
<ellipse cx="27.4689" cy="27.5" rx="27.4689" ry="27.5" fill="url(#paint0_linear_1453_2051)"/>
</g>
<g filter="url(#filter1_i_1453_2051)">
<ellipse cx="27.469" cy="27.282" rx="22.9219" ry="22.9841" fill="url(#paint1_linear_1453_2051)"/>
</g>
<ellipse cx="27.4687" cy="27.5" rx="22.299" ry="22.3301" fill="url(#paint2_linear_1453_2051)"/>
<ellipse cx="27.4687" cy="27.5" rx="22.299" ry="22.3301" fill="#5C57F1"/>
<g filter="url(#filter2_i_1453_2051)">
<ellipse cx="27.2507" cy="27.7181" rx="22.081" ry="22.1121" fill="url(#paint3_linear_1453_2051)"/>
<ellipse cx="27.2507" cy="27.7181" rx="22.081" ry="22.1121" fill="url(#paint4_linear_1453_2051)"/>
</g>
<path fill-rule="evenodd" clip-rule="evenodd" d="M36.3507 16.6004C37.9211 16.2841 41.5364 16.1937 43.4344 18.3629C45.8069 21.0743 43.8072 26.0566 37.9776 27.853C34.4725 28.933 31.2391 29.4231 29.03 29.5627C29.2486 29.6069 29.4817 29.6579 29.7293 29.7121L29.7293 29.7121C32.6426 30.3501 37.5665 31.4283 44.5472 26.9225C43.6543 33.8422 38.9668 38.7529 34.2793 40.0921L34.2821 40.0898C33.2079 40.4927 31.7051 40.7295 29.6665 40.613C24.4582 40.3154 20.1427 35.9256 18.729 32.9494C23.4165 36.2232 27.8675 36.5399 30.857 35.4791C30.9379 35.4504 31.0183 35.4232 31.0981 35.3976C30.995 35.3997 30.8898 35.4021 30.7823 35.4047C28.9084 35.4493 26.264 34.3124 24.6787 33.6159L24.6816 33.6191C21.8012 32.6273 16.5634 30.1114 16.7461 23.7854C16.7499 23.8139 16.7542 23.8424 16.7588 23.8709C16.7542 23.8296 16.7504 23.7881 16.7473 23.7466C16.7468 23.7596 16.7465 23.7725 16.7461 23.7854C16.6827 23.3159 16.7283 22.8408 16.8691 22.384C16.8631 22.4261 16.8572 22.468 16.8516 22.5097C17.1303 21.2971 17.8696 20.1679 18.5336 19.5158C20.0141 18.0619 22.228 17.0416 25.2445 17.2111C24.6683 17.6404 23.3468 18.7701 23.2655 19.8547C23.1638 21.2104 24.4517 22.3628 27.1293 22.2611C27.5459 22.2453 28.0265 22.2352 28.5497 22.2243C31.3896 22.1647 35.4866 22.0788 37.4328 20.9054C39.3557 19.746 39.1952 18.1256 37.5203 17.1193C37.2046 16.9355 36.8474 16.7735 36.4561 16.6364C36.4205 16.6244 36.3845 16.6126 36.3482 16.601C36.3773 16.6103 36.4069 16.6199 36.437 16.6298C36.4085 16.6199 36.3797 16.6101 36.3507 16.6004Z" fill="black" fill-opacity="0.12"/>
<path d="M26.5271 39.5666C21.3188 39.269 17.0033 34.8791 15.5897 31.903C20.2771 35.1768 24.7281 35.4935 27.7176 34.4327C31.087 33.2371 33.4468 34.7169 33.4468 36.6648C33.4468 37.8553 31.7355 39.8642 26.5271 39.5666Z" fill="url(#paint5_linear_1453_2051)"/>
<path d="M31.1402 39.0458C35.8277 37.7065 40.5152 32.7958 41.4081 25.8762C33.2236 31.1589 27.8664 28.7658 25.2623 28.406C23.4133 28.1505 22.0561 27.8507 20.802 28.7658C19.6401 29.6137 19.8027 31.3852 20.2772 32.0518C20.9468 32.2006 25.039 34.4203 27.6432 34.3583C30.7682 34.2839 32.0165 34.3583 32.4795 35.5488C32.9425 36.7393 32.6283 37.781 31.1402 39.0458Z" fill="url(#paint6_linear_1453_2051)"/>
<path d="M33.2114 15.5539C34.7817 15.2375 38.397 15.1471 40.295 17.3163C42.6675 20.0278 40.6678 25.0101 34.8382 26.8064C30.1745 28.2435 25.9918 28.636 24.0629 28.5484C22.8673 28.494 21.2369 28.4397 20.8404 29.8222C20.4438 31.2047 21.2711 32.2675 21.5422 32.5725C18.6618 31.5807 13.424 29.0648 13.6067 22.7389C13.5433 22.2694 13.589 21.7942 13.7297 21.3374C13.6597 21.8242 13.6196 22.2911 13.6067 22.7389C13.9468 25.2574 17.4255 27.6128 26.1933 26.0953C31.8175 25.1219 34.5516 22.0152 35.7872 18.9093C36.2906 17.4502 35.1494 16.2003 33.2114 15.5539Z" fill="url(#paint7_linear_1453_2051)"/>
<path d="M20.1264 18.8084C20.2077 17.7238 21.5292 16.594 22.1054 16.1647C19.0889 15.9952 16.875 17.0155 15.3946 18.4694C13.5275 20.3029 11.0648 25.908 19.923 26.536C29.0063 27.18 33.4303 23.4896 35.3444 20.0963C37.0515 17.0699 34.5496 15.983 33.2091 15.5546C35.9102 16.4177 36.5984 18.4694 34.2937 19.8591C31.9889 21.2487 26.6677 21.1131 23.9902 21.2148C21.3126 21.3165 20.0247 20.1641 20.1264 18.8084Z" fill="url(#paint8_linear_1453_2051)"/>
<defs>
<filter id="filter0_i_1453_2051" x="-2.74236" y="-2.74236" width="57.6801" height="57.7424" filterUnits="userSpaceOnUse" color-interpolation-filters="sRGB">
<feFlood flood-opacity="0" result="BackgroundImageFix"/>
<feBlend mode="normal" in="SourceGraphic" in2="BackgroundImageFix" result="shape"/>
<feColorMatrix in="SourceAlpha" type="matrix" values="0 0 0 0 0 0 0 0 0 0 0 0 0 0 0 0 0 0 127 0" result="hardAlpha"/>
<feOffset dx="-2.74236" dy="-2.74236"/>
<feGaussianBlur stdDeviation="10.2839"/>
<feComposite in2="hardAlpha" operator="arithmetic" k2="-1" k3="1"/>
<feColorMatrix type="matrix" values="0 0 0 0 1 0 0 0 0 1 0 0 0 0 1 0 0 0 0.2 0"/>
<feBlend mode="normal" in2="shape" result="effect1_innerShadow_1453_2051"/>
</filter>
<filter id="filter1_i_1453_2051" x="4.54718" y="0.184309" width="48.5861" height="50.0818" filterUnits="userSpaceOnUse" color-interpolation-filters="sRGB">
<feFlood flood-opacity="0" result="BackgroundImageFix"/>
<feBlend mode="normal" in="SourceGraphic" in2="BackgroundImageFix" result="shape"/>
<feColorMatrix in="SourceAlpha" type="matrix" values="0 0 0 0 0 0 0 0 0 0 0 0 0 0 0 0 0 0 127 0" result="hardAlpha"/>
<feOffset dx="2.74236" dy="-4.11354"/>
<feGaussianBlur stdDeviation="6.8559"/>
<feComposite in2="hardAlpha" operator="arithmetic" k2="-1" k3="1"/>
<feColorMatrix type="matrix" values="0 0 0 0 1 0 0 0 0 1 0 0 0 0 1 0 0 0 0.15 0"/>
<feBlend mode="normal" in2="shape" result="effect1_innerShadow_1453_2051"/>
</filter>
<filter id="filter2_i_1453_2051" x="3.7985" y="4.23484" width="45.5332" height="45.5954" filterUnits="userSpaceOnUse" color-interpolation-filters="sRGB">
<feFlood flood-opacity="0" result="BackgroundImageFix"/>
<feBlend mode="normal" in="SourceGraphic" in2="BackgroundImageFix" result="shape"/>
<feColorMatrix in="SourceAlpha" type="matrix" values="0 0 0 0 0 0 0 0 0 0 0 0 0 0 0 0 0 0 127 0" result="hardAlpha"/>
<feOffset dx="-1.37118" dy="-1.37118"/>
<feGaussianBlur stdDeviation="6.8559"/>
<feComposite in2="hardAlpha" operator="arithmetic" k2="-1" k3="1"/>
<feColorMatrix type="matrix" values="0 0 0 0 1 0 0 0 0 1 0 0 0 0 1 0 0 0 0.1 0"/>
<feBlend mode="normal" in2="shape" result="effect1_innerShadow_1453_2051"/>
</filter>
<linearGradient id="paint0_linear_1453_2051" x1="15.2916" y1="76.5204" x2="30.9258" y2="-2.64722" gradientUnits="userSpaceOnUse">
<stop stop-color="#3B4EF4"/>
<stop offset="0.5" stop-color="#5868F8"/>
<stop offset="1" stop-color="#978FFD"/>
</linearGradient>
<linearGradient id="paint1_linear_1453_2051" x1="38.1514" y1="-4.17327" x2="21.8009" y2="61.5091" gradientUnits="userSpaceOnUse">
<stop offset="0.145" stop-color="#4D46E7"/>
<stop offset="0.67" stop-color="#3940DD"/>
<stop offset="0.99" stop-color="#483AE8"/>
</linearGradient>
<linearGradient id="paint2_linear_1453_2051" x1="17.5833" y1="67.3048" x2="30.2814" y2="3.02157" gradientUnits="userSpaceOnUse">
<stop stop-color="#9132BB"/>
<stop offset="0.5" stop-color="#C53FB0"/>
<stop offset="1" stop-color="#D35AA7"/>
</linearGradient>
<linearGradient id="paint3_linear_1453_2051" x1="17.4619" y1="67.1343" x2="30.0362" y2="3.47877" gradientUnits="userSpaceOnUse">
<stop stop-color="#9132BB"/>
<stop offset="0.5" stop-color="#C53FB0"/>
<stop offset="1" stop-color="#D35AA7"/>
</linearGradient>
<linearGradient id="paint4_linear_1453_2051" x1="17.4619" y1="67.1343" x2="30.0362" y2="3.47877" gradientUnits="userSpaceOnUse">
<stop stop-color="#3B4EF4"/>
<stop offset="0.5" stop-color="#5868F8"/>
<stop offset="1" stop-color="#978FFD"/>
</linearGradient>
<linearGradient id="paint5_linear_1453_2051" x1="36.1975" y1="35.772" x2="13.3909" y2="35.0422" gradientUnits="userSpaceOnUse">
<stop stop-color="#8B97FF"/>
<stop offset="1" stop-color="#EDEFFF"/>
</linearGradient>
<linearGradient id="paint6_linear_1453_2051" x1="18.638" y1="30.7869" x2="44.6022" y2="32.904" gradientUnits="userSpaceOnUse">
<stop stop-color="#8B97FF"/>
<stop offset="1" stop-color="#EDEFFF"/>
</linearGradient>
<linearGradient id="paint7_linear_1453_2051" x1="41.9198" y1="29.2474" x2="22.4694" y2="13.8095" gradientUnits="userSpaceOnUse">
<stop stop-color="#8B97FF"/>
<stop offset="1" stop-color="#EDEFFF"/>
</linearGradient>
<linearGradient id="paint8_linear_1453_2051" x1="32.0906" y1="27.7901" x2="15.3793" y2="12.7217" gradientUnits="userSpaceOnUse">
<stop stop-color="#8B97FF"/>
<stop offset="1" stop-color="#EDEFFF"/>
</linearGradient>
</defs>
</svg>
