<svg width="140" height="141" viewBox="0 0 140 141" fill="none" xmlns="http://www.w3.org/2000/svg">
<path d="M33.5998 89.7529C35.2592 91.2392 36.7579 92.5967 38.5718 94.2397C42.4564 87.2401 47.8666 81.896 55.392 78.2302C50.1972 71.9835 51.2223 64.7747 51.1906 57.7577C51.1722 53.6908 51.2666 49.6217 51.1644 45.5572C50.9614 37.4916 45.1713 31.7042 37.1186 31.5295C32.476 31.4288 27.8294 31.5214 23.1847 31.5001C19.239 31.4821 18.9291 31.1716 18.6502 27.2746C18.6249 26.9212 18.5092 26.5743 18.4466 26.2774C17.6031 26.1254 17.2283 26.6424 16.8156 27.0035C13.5542 29.8573 10.3107 32.7316 6.84778 35.7884C10.4272 39.6102 14.3367 42.6288 18.1277 45.8583C18.8908 44.8388 18.6424 44.0398 18.6709 43.298C18.744 41.3906 19.7562 40.4398 21.5943 40.4253C25.7546 40.3925 29.9239 40.2594 34.0737 40.4746C38.3761 40.6978 42.1708 44.5473 42.2275 48.9026C42.37 59.8428 42.2843 70.786 42.2909 81.7281C42.2919 83.5025 41.6442 84.8733 39.6816 84.8431C37.6488 84.8118 37.2546 83.2972 37.2555 81.5834C37.2603 71.8032 37.2591 62.0231 37.2469 52.243C37.2404 46.9756 35.7488 45.4715 30.5719 45.4557C30.3783 45.4551 30.1848 45.4558 29.9913 45.4556C24.0026 45.4506 23.9853 45.4498 23.7179 51.4743C23.6638 52.6948 23.5325 53.8197 22.3163 54.4299C21.1037 55.0383 20.0155 54.584 19.1051 53.7945C13.1102 48.5957 7.11323 43.3986 1.18327 38.1262C-0.419571 36.7011 -0.280024 34.9932 1.30564 33.5964C7.18741 28.4155 13.1067 23.2772 19.0296 18.1433C19.9424 17.352 21.0148 16.8811 22.2392 17.4161C23.4995 17.9666 23.6582 19.0844 23.7207 20.3119C24.0331 26.4429 24.0513 26.3633 30.1657 26.4702C34.1141 26.5392 38.0967 25.9495 42.01 26.9608C50.5808 29.1758 56.2021 36.3587 56.2347 45.1611C56.2432 47.4478 56.236 49.7346 56.236 52.2228C68.1747 45.1543 73.58 45.9655 83.7089 52.371C83.7089 49.7361 83.6954 47.359 83.7113 44.9821C83.7798 34.7365 91.9525 26.5096 102.128 26.449C105.515 26.4288 108.902 26.4469 112.288 26.4421C116.207 26.4366 116.207 26.434 116.226 22.3773C116.228 21.8931 116.232 21.4089 116.229 20.9248C116.222 19.5511 116.16 18.1265 117.698 17.4391C119.309 16.7189 120.469 17.6536 121.587 18.6346C125.007 21.6343 128.428 24.6317 131.844 27.6355C134.024 29.5529 136.232 31.4411 138.361 33.4142C140.417 35.3193 140.437 36.6068 138.332 38.4861C132.702 43.5125 127.019 48.4802 121.339 53.45C120.297 54.3616 119.144 55.1268 117.665 54.3946C116.31 53.7238 116.26 52.468 116.22 51.1666C116.045 45.4452 116.031 45.4456 110.227 45.4538C103.854 45.4628 102.696 46.636 102.692 53.1321C102.687 61.5566 102.697 69.981 102.689 78.4055C102.687 80.2524 102.906 82.4582 100.255 82.5042C97.6686 82.549 97.6378 80.4698 97.6403 78.5389C97.6529 69.0492 97.6113 59.5594 97.6632 50.07C97.6949 44.279 101.563 40.4614 107.329 40.3977C110.039 40.3677 112.748 40.3886 115.458 40.3899C120.793 40.3924 120.793 40.3934 121.624 46.1754C125.593 42.6792 129.29 39.422 133.262 35.9229C129.296 32.4384 125.633 29.2203 122.061 26.082C121.042 26.6458 121.256 27.3126 121.293 27.8329C121.496 30.6863 119.997 31.5698 117.394 31.5263C112.847 31.4505 108.298 31.4899 103.75 31.5098C94.6418 31.5497 88.8298 37.3007 88.7571 46.3592C88.7237 50.5228 88.7561 54.6868 88.7477 58.8506C88.7343 65.5004 89.6092 72.3186 84.5379 78.1518C91.9599 81.9061 97.435 87.0655 101.27 94.1176C103.365 92.3471 105.311 90.6768 107.287 89.0424C108.559 87.9901 107.628 86.8806 107.361 85.8539C105.885 80.1875 108.141 74.7136 113.147 71.9972C117.288 69.7498 122.514 70.2257 126.23 73.1886C129.824 76.0546 131.587 81.3162 130.086 85.7323C129.413 87.7157 129.672 88.7663 131.39 90.0555C138.948 95.7252 140.863 103.692 139.675 112.555C138.939 118.035 133.991 122.06 128.481 122.118C120.848 122.199 113.213 122.139 105.014 122.139C105.014 124.815 105.016 127.66 105.014 130.505C105.007 138.47 100.036 142.342 92.213 140.343C85.6629 138.669 79.1406 136.882 72.6319 135.053C70.7977 134.538 69.0882 134.555 67.2644 135.061C60.6562 136.892 54.0509 138.747 47.393 140.382C39.7908 142.25 34.947 138.285 34.9285 130.402C34.9237 128.369 34.9436 126.335 34.9167 124.302C34.9067 123.548 35.0969 122.74 34.5693 122.141C26.9842 122.141 19.4587 122.176 11.9336 122.131C5.21074 122.091 0.404027 117.129 0.0522744 110.411C-0.399439 101.784 2.02464 94.5379 9.34413 89.4574C11.1166 88.2271 10.1177 86.8756 9.79997 85.5899C8.42136 80.0107 10.6468 74.6997 15.5807 72.0132C19.72 69.7593 24.9545 70.2187 28.6723 73.1621C32.2622 76.0043 33.9457 81.2428 32.5857 85.7152C32.1176 87.2548 31.4725 88.683 33.5998 89.7529ZM88.2513 123.751C90.3623 122.191 91.3727 120.246 89.9633 117.755C88.6211 115.383 86.5359 114.99 83.9749 115.676C76.7928 117.598 69.5795 119.403 62.3768 121.248C58.3563 122.278 54.3377 123.316 50.3072 124.305C49.0066 124.624 47.747 124.447 46.9721 123.198C46.3488 122.195 46.3293 120.96 47.3079 120.309C49.0095 119.176 48.8905 117.594 48.869 115.944C48.8487 114.396 48.8892 112.847 48.8657 111.298C48.8375 109.442 49.3458 107.907 51.5063 107.92C53.5632 107.932 53.9333 109.464 53.9129 111.172C53.8966 112.527 53.9759 113.886 53.8961 115.236C53.767 117.419 54.5681 117.869 56.6785 117.301C65.3508 114.971 74.0711 112.82 82.7594 110.548C84.187 110.175 85.6335 110.066 86.8134 108.673C88.2447 106.984 90.3903 107.706 90.9829 109.904C91.2454 110.877 91.5751 111.636 92.2891 112.372C98.4868 118.758 96.1831 127.131 87.593 129.655C85.5238 130.263 83.3279 130.526 80.899 131.866C85.4904 133.091 89.5614 134.229 93.6597 135.257C97.9074 136.323 99.9181 134.764 99.9515 130.35C100.003 123.575 100.214 116.788 99.9086 110.026C99.3507 97.6786 93.5867 88.5632 82.3163 83.1211C80.9058 82.4401 79.7298 82.3539 78.2374 83.0814C72.6807 85.7899 67.0319 85.7119 61.4927 82.9929C60.22 82.3681 59.186 82.3646 57.9476 82.9373C48.496 87.3086 42.5367 94.5995 40.6743 104.788C39.0667 113.583 40.0912 122.549 40.0671 131.438C40.0585 134.615 42.3624 136.299 45.3778 135.495C59.5594 131.716 73.7086 127.816 88.2513 123.751ZM105.548 115.546C106.759 116.648 108.249 117.056 109.816 117.066C115.806 117.104 121.797 117.166 127.785 117.049C131.422 116.977 133.762 114.905 134.607 111.452C136.101 105.345 133.154 97.6177 127.973 93.9759C126.466 92.9162 125.097 92.4451 123.195 93.389C120.611 94.6718 117.593 94.9376 115.05 93.6275C112.049 92.0814 110.123 93.2995 108.156 95.1855C106.262 97.0021 103.744 99.0745 104.229 101.634C105.084 106.155 104.662 110.686 105.548 115.546ZM26.5919 93.1023C23.1497 94.5852 19.6631 94.8832 16.24 93.1689C14.7802 92.4378 13.6952 92.8702 12.498 93.6365C7.1064 97.0877 3.82978 105.2 5.33969 111.445C6.09604 114.573 8.13612 116.83 11.2927 116.944C17.8531 117.179 24.431 117.146 30.9945 116.963C33.5845 116.89 35.2169 115.474 34.9718 112.417C34.7173 109.242 34.9487 106.059 35.5633 102.902C36.3528 98.8458 31.2999 93.0493 26.5919 93.1023ZM68.7807 52.497C67.9327 52.6868 67.073 52.835 66.2387 53.0729C59.0018 55.1366 54.8824 62.5761 56.8927 69.9251C58.7963 76.8839 66.0879 81.1083 73.1811 79.3616C79.6383 77.7716 84.3786 71.3542 83.6485 65.191C82.7512 57.6163 77.1637 52.6724 68.7807 52.497ZM26.5458 86.29C28.3688 83.5691 28.4004 80.8202 26.3185 78.2914C24.7034 76.3295 22.5422 75.3183 19.9104 75.9281C16.9125 76.6228 14.6633 79.0086 14.534 81.9763C14.4116 84.7868 15.6765 87.0057 18.241 88.329C21.1534 89.8319 23.3861 89.3392 26.5458 86.29ZM113.144 85.9431C115.895 89.1793 118.619 89.946 121.734 88.3608C124.371 87.0191 125.938 83.8054 125.264 81.1219C124.275 77.1873 120.551 74.943 116.931 76.1004C112.795 77.423 111.245 81.0887 113.144 85.9431Z" fill="#5831C8"/>
<path d="M78.963 19.27C79.5328 18.5493 79.1762 18.0692 78.7931 17.631C75.9443 14.3725 73.3376 10.8913 69.9511 7.77648C66.4138 11.357 63.2299 15.0282 60.2054 18.8769C61.1089 19.7466 62.0271 19.3976 62.8468 19.4642C64.5968 19.6063 65.4592 20.4998 65.5123 22.2495C65.6355 26.3088 65.8369 30.3665 65.8922 34.4265C65.9178 36.3067 65.7317 38.4189 63.1606 38.3598C60.6471 38.3021 60.5177 36.2543 60.5032 34.3327C60.4849 31.9139 60.4111 29.4923 60.497 27.0768C60.5643 25.1811 59.7584 24.4291 57.9139 24.5299C56.6611 24.5984 55.4009 24.5281 54.1439 24.5245C53.0086 24.5212 52.0006 24.2044 51.4915 23.1124C50.8827 21.8063 51.3608 20.6761 52.2493 19.6581C56.192 15.1407 60.1303 10.6195 64.069 6.09855C65.2125 4.78603 66.3043 3.42458 67.5045 2.16636C69.146 0.445354 70.8954 0.393798 72.495 2.21462C77.6012 8.02686 82.6746 13.8679 87.7528 19.7046C88.6359 20.7196 89.0812 21.8805 88.4407 23.174C87.8402 24.3868 86.6841 24.4971 85.4712 24.5512C79.4659 24.8191 79.4686 24.8348 79.467 30.9041C79.4666 32.5489 79.4753 34.1942 79.4345 35.8382C79.3987 37.2809 78.7082 38.2974 77.2075 38.378C75.6008 38.4643 74.5449 37.5084 74.513 35.9594C74.4156 31.2215 74.3288 26.4737 74.5384 21.7431C74.6543 19.1272 77.0519 19.5977 78.963 19.27Z" fill="#5831C8"/>
<path d="M77.5528 96.8847C80.6394 95.6445 83.6275 96.2729 86.5719 96.2824C87.8843 96.2866 88.6422 97.2208 88.6871 98.5684C88.7359 100.034 88.0162 101.07 86.5538 101.143C84.0624 101.267 81.5283 101.422 79.0717 101.103C76.6787 100.793 76.2553 99.1212 77.5528 96.8847Z" fill="#5831C8"/>
</svg>
