<svg width="140" height="140" viewBox="0 0 140 140" fill="none" xmlns="http://www.w3.org/2000/svg">
<path d="M88.6708 125.48C89.0329 128.153 88.0775 129.677 85.8627 130.842C81.4016 133.19 77.0341 135.727 72.7238 138.343C70.8405 139.487 69.3123 139.575 67.3827 138.389C63.0878 135.749 58.7064 133.235 54.2488 130.881C52.0737 129.732 50.9278 128.285 51.3696 125.829C51.8691 123.052 50.7231 121.444 48.2474 120.111C44.4112 118.045 40.7334 115.655 37.138 113.185C35.499 112.059 34.3218 112.171 32.7124 113.155C28.8248 115.533 24.8835 117.848 20.8114 119.883C19.6703 120.453 17.7422 120.46 16.6164 119.875C11.7136 117.329 6.90337 114.581 2.22735 111.639C1.16415 110.971 0.218663 109.261 0.16442 107.99C-0.063163 102.659 0.14271 97.3106 0.0298436 91.9717C-0.0124419 89.9714 0.654685 88.7337 2.4197 87.7782C6.51319 85.5622 10.4906 83.1319 14.5818 80.9114C15.9562 80.1655 16.4603 79.3064 16.4293 77.7263C16.3226 72.29 16.304 66.8484 16.4371 61.4133C16.4798 59.6743 15.798 58.8176 14.3899 58.0452C10.3081 55.8061 6.20748 53.5798 2.29675 51.0647C1.22446 50.3751 0.219734 48.7118 0.167519 47.4546C-0.0619672 41.9287 -0.0479235 36.3834 0.162285 30.8559C0.207106 29.6774 1.16091 28.0953 2.17282 27.4664C6.94844 24.4983 11.8362 21.6947 16.8154 19.0831C17.8625 18.534 19.6991 18.5845 20.7673 19.1386C25.3269 21.5038 29.6741 24.2769 34.2229 26.6649C36.5864 27.9056 37.8243 29.433 37.4013 32.1608C37.2592 33.0774 37.3788 34.0347 37.3788 35.4384C41.999 33.1262 46.2521 31.0765 50.4 28.8322C50.9837 28.5163 51.3031 27.2537 51.3185 26.4215C51.4048 21.7617 51.2126 17.0917 51.4566 12.443C51.5236 11.1672 52.4543 9.46264 53.5166 8.79477C58.1938 5.85449 63.0056 3.10889 67.9084 0.56166C69.0379 -0.0251552 70.9814 -0.056355 72.101 0.523823C77.0058 3.06544 81.8152 5.81463 86.4922 8.75435C87.5594 9.42515 88.5055 11.1244 88.5732 12.3998C88.8198 17.0481 88.6274 21.7183 88.7108 26.3782C88.7258 27.2157 89.0202 28.4919 89.5976 28.8044C93.7488 31.051 98.0062 33.1011 102.226 35.2118C102.445 34.8224 102.627 34.6513 102.6 34.523C101.627 29.796 104 27.2656 108.058 25.3753C111.826 23.6199 115.387 21.3933 118.937 19.2081C120.666 18.1441 122.061 18.2237 123.761 19.2383C128.341 21.9715 132.988 24.5971 137.654 27.1812C139.268 28.0748 140.035 29.1875 139.999 31.11C139.895 36.5464 140.094 41.9915 139.865 47.4202C139.811 48.6865 138.836 50.3683 137.767 51.0562C133.858 53.5732 129.753 55.7916 125.674 58.0348C124.284 58.7991 123.544 59.6138 123.591 61.3802C123.733 66.8148 123.733 72.2579 123.591 77.6924C123.544 79.4593 124.285 80.2743 125.674 81.0382C129.754 83.2812 133.859 85.4982 137.769 88.0147C138.837 88.7023 139.812 90.3855 139.865 91.6525C140.094 97.0812 139.896 102.526 139.998 107.963C140.035 109.887 139.26 110.99 137.644 111.883C132.975 114.464 128.328 117.09 123.75 119.827C122.046 120.846 120.652 120.915 118.926 119.859C115.204 117.581 111.307 115.59 107.602 113.287C105.814 112.175 104.465 112.074 102.658 113.316C98.9831 115.842 95.1898 118.216 91.3093 120.412C89.2869 121.557 88.2355 122.896 88.6708 125.48ZM66.7807 99.0138C67.0809 96.6171 67.3542 94.2166 67.6906 91.8251C67.9243 90.1633 67.2542 89.1991 65.7731 88.3997C61.6757 86.1882 57.695 83.7606 53.6063 81.5322C51.9497 80.6293 51.2926 79.4614 51.3272 77.5712C51.4249 72.2302 51.4441 66.8843 51.3195 61.5445C51.2716 59.4905 52.0883 58.3258 53.8198 57.4133C56.5651 55.9664 59.0884 54.0025 61.9527 52.8987C66.9023 50.9912 68.7367 47.6638 67.6361 42.6395C67.4041 41.5803 66.845 40.2545 66.0097 39.7247C62.4903 37.4923 58.8521 35.4323 55.1549 33.506C54.306 33.0636 52.8979 33.0522 52.0101 33.4418C48.816 34.8431 45.8572 36.8635 42.5803 37.9729C38.1558 39.4708 36.5432 42.1739 37.3691 46.6223C37.831 49.11 36.5907 50.5157 34.4328 51.645C30.4814 53.7131 26.6125 55.9552 22.8324 58.3215C21.9811 58.8545 21.1647 60.1821 21.1358 61.1675C20.9738 66.6998 21.1308 72.2409 21.0121 77.7754C20.9774 79.394 21.5755 80.2007 22.9122 80.9302C26.8291 83.068 30.6315 85.418 34.5735 87.5062C36.618 88.5892 37.5282 89.9257 37.4311 92.3231C37.2466 96.8812 37.3426 101.453 37.4118 106.017C37.4237 106.798 37.6391 107.94 38.1716 108.291C42.3521 111.042 46.6328 113.641 51.3613 116.585C51.3613 114.419 51.4988 112.797 51.3294 111.207C51.0674 108.748 52.0197 107.276 54.2183 106.13C58.3448 103.978 62.3304 101.555 66.7807 99.0138ZM72.3533 97.4407C73.0136 98.1704 73.5483 99.1096 74.3558 99.5938C77.9326 101.738 81.5186 103.89 85.2385 105.766C87.8095 107.063 89.1316 108.721 88.7055 111.694C88.498 113.142 88.6696 114.644 88.6696 116.604C93.1075 113.839 96.9215 111.361 100.845 109.07C102.327 108.204 102.719 107.154 102.685 105.546C102.592 101.177 102.774 96.8007 102.604 92.4366C102.513 90.0968 103.252 88.6624 105.356 87.562C109.308 85.4957 113.101 83.1269 117.025 81.0029C118.474 80.2182 119.054 79.2974 119.017 77.6032C118.899 72.2638 118.883 66.9178 119.023 61.5795C119.071 59.7471 118.409 58.8018 116.873 57.9703C112.778 55.7548 108.695 53.498 104.769 51.0024C103.757 50.3588 102.591 48.6314 102.778 47.6443C103.874 41.847 101.16 38.8449 95.9755 37.334C95.7935 37.281 95.617 37.1733 95.4659 37.0553C89.3785 32.3045 83.8291 33.0628 77.4826 37.3479C73.6012 39.9685 71.6999 42.2508 72.2468 46.8798C72.4775 48.8327 72.9277 49.9825 74.6878 50.9136C78.7162 53.0447 82.7 55.2838 86.5381 57.7355C87.5539 58.3844 88.5301 59.944 88.5742 61.1211C88.7848 66.7465 88.7687 72.3876 88.583 78.0148C88.5463 79.1252 87.6667 80.5743 86.7298 81.2179C84.1795 82.97 81.5308 84.742 78.6654 85.837C73.3375 87.873 71.1951 91.3742 72.3533 97.4407ZM61.5202 107.379C60.6547 107.922 59.7891 108.465 58.5587 109.237C62.3217 111.399 65.7179 113.38 69.1557 115.287C69.585 115.525 70.3533 115.585 70.7618 115.359C74.268 113.425 77.7275 111.407 81.5678 109.203C80.1021 108.333 79.0054 107.886 78.1632 107.149C72.7097 102.374 67.312 102.387 61.5202 107.379ZM61.5239 13.0416C63.8759 14.3835 66.1973 15.7845 68.5998 17.0291C69.2676 17.3751 70.3596 17.6046 70.9431 17.2954C74.4031 15.4616 77.7707 13.4537 81.606 11.2539C77.7149 9.01875 74.3172 7.03652 70.8775 5.13032C70.4508 4.89389 69.6827 4.84849 69.272 5.07527C65.768 7.01014 62.3101 9.0284 58.5432 11.1912C59.709 11.9347 60.428 12.3932 61.5239 13.0416ZM126.463 86.8189C125.454 86.247 124.482 85.587 123.423 85.1299C122.514 84.7376 121.244 84.064 120.584 84.3997C117.021 86.2111 113.598 88.2983 109.722 90.5233C113.583 92.7326 116.913 94.6626 120.277 96.5325C120.731 96.7851 121.495 96.9951 121.875 96.7867C125.459 94.8229 128.991 92.7639 132.896 90.5277C130.51 89.1481 128.675 88.087 126.463 86.8189ZM16.9467 84.8871C13.8164 86.6936 10.686 88.5001 7.15991 90.535C10.9983 92.7313 14.327 94.6607 17.6889 96.5305C18.1435 96.7833 18.9071 96.9961 19.2868 96.788C22.8708 94.8237 26.4026 92.7641 30.3368 90.51C26.5094 88.3233 23.2785 86.3901 19.9479 84.647C19.2677 84.291 18.2137 84.649 16.9467 84.8871ZM80.7118 60.7256C80.6559 60.3518 80.73 59.7588 80.5246 59.6369C77.3635 57.7612 74.1845 55.9129 70.9572 54.1546C70.4695 53.8888 69.5904 53.8759 69.1082 54.1401C65.6699 56.0235 62.2876 58.0092 58.4543 60.2112C62.3232 62.4328 65.7002 64.4503 69.1723 66.2883C69.7474 66.5927 70.8492 66.3195 71.5171 65.9597C74.4966 64.3547 77.4071 62.6214 80.7118 60.7256ZM119.918 24.0596C116.679 25.9192 113.441 27.7788 109.743 29.9027C113.581 32.1057 116.964 34.0894 120.403 35.9716C120.886 36.236 121.765 36.2301 122.25 35.9646C125.685 34.0847 129.065 32.1044 132.9 29.9054C128.922 27.6204 125.444 25.5861 121.915 23.6461C121.529 23.4341 120.845 23.7651 119.918 24.0596ZM26.4883 27.6698C24.3866 26.4748 22.3177 25.2149 20.1636 24.1231C19.4904 23.7819 18.4029 23.5466 17.8199 23.8561C14.3599 25.6929 10.9924 27.7039 7.16257 29.9042C11.0333 32.1265 14.4297 34.1065 17.8673 36.0119C18.2962 36.2496 19.0637 36.3091 19.4714 36.0839C22.9765 34.1482 26.435 32.1279 30.2671 29.9262C28.8065 29.0601 27.8266 28.479 26.4883 27.6698ZM32.7103 38.46C32.7103 37.1361 32.7103 35.8122 32.7103 33.9619C28.8154 36.2071 25.3179 38.1912 21.8681 40.2551C21.4657 40.4959 21.1084 41.1744 21.1008 41.6558C21.0392 45.5547 21.0662 49.455 21.0662 53.7554C22.7905 52.8045 23.9793 51.9457 25.3042 51.4532C31.1516 49.2797 34.2046 45.5186 32.7103 38.46ZM118.829 53.2704C118.877 49.5912 118.982 45.9111 118.925 42.2336C118.913 41.4999 118.482 40.4539 117.907 40.1003C114.56 38.042 111.112 36.1474 107.324 33.9839C107.324 38.253 107.244 42.016 107.391 45.7702C107.42 46.5338 108.132 47.5445 108.82 47.9618C111.964 49.8678 115.211 51.603 118.829 53.2704ZM135.294 35.8782C135.216 35.3731 135.138 34.8679 135.023 34.1208C131.465 36.1522 128.175 37.9808 124.95 39.9168C124.38 40.2595 123.725 41.0397 123.708 41.6349C123.598 45.5372 123.651 49.4442 123.651 53.7812C127.229 51.7623 130.298 49.9571 133.441 48.2899C134.932 47.4987 135.396 46.4291 135.327 44.7957C135.208 41.9929 135.294 39.1813 135.294 35.8782ZM16.3883 52.3672C16.3887 49.0722 16.44 45.7758 16.3518 42.4832C16.3311 41.7126 16.0661 40.5873 15.5247 40.2507C12.1111 38.1283 8.58781 36.1824 4.74078 33.9713C4.74078 38.2675 4.70834 42.0324 4.7747 45.7955C4.78501 46.3802 5.08363 47.2303 5.52563 47.4942C8.92942 49.5258 12.3999 51.446 15.8676 53.3684C15.9187 53.3967 16.1993 53.0111 16.3883 52.3672ZM56.0286 72.6936C56.3007 74.4239 55.9534 76.9678 56.9596 77.7338C60.13 80.1472 63.8082 81.8936 67.6744 84.1194C67.6744 79.7554 67.6994 75.9118 67.6436 72.0694C67.6364 71.5731 67.3454 70.8577 66.9573 70.6251C63.4586 68.5288 59.9089 66.5176 56.0286 64.2824C56.0286 67.303 56.0286 69.7159 56.0286 72.6936ZM72.3488 80.702C72.3943 81.7026 72.4399 82.7033 72.5011 84.0475C76.2171 81.9192 79.5817 80.0471 82.8722 78.0527C83.4136 77.7247 83.9306 76.8677 83.9467 76.2419C84.0453 72.4211 83.996 68.5964 83.996 64.3667C82.5914 65.1357 81.6537 65.841 80.5981 66.1958C73.7884 68.484 70.7999 72.9734 72.3488 80.702ZM6.44485 95.5215C5.9408 95.3453 5.43676 95.1691 4.73811 94.9248C4.73811 98.8527 4.69688 102.533 4.77567 106.21C4.79006 106.882 5.10371 107.853 5.60217 108.158C9.03184 110.257 12.5474 112.215 16.3902 114.422C16.3902 111.375 16.1149 108.828 16.453 106.365C16.9962 102.409 15.5708 100.005 11.8559 98.6061C10.0671 97.9328 8.48192 96.7189 6.44485 95.5215ZM32.7103 98.0062C32.6648 97.0061 32.6194 96.006 32.5584 94.666C28.8409 96.7956 25.4755 98.6684 22.1842 100.663C21.6436 100.991 21.1282 101.848 21.1121 102.474C21.0138 106.295 21.0629 110.12 21.0629 114.345C22.4676 113.578 23.4064 112.875 24.4621 112.519C31.2629 110.222 34.27 105.741 32.7103 98.0062ZM118.974 103.822C118.737 102.846 118.823 101.372 118.211 100.977C114.79 98.7707 111.2 96.8252 107.322 94.5912C107.322 98.8812 107.281 102.553 107.36 106.223C107.374 106.891 107.693 107.857 108.191 108.162C111.615 110.258 115.123 112.213 118.974 114.426C118.974 110.716 118.974 107.54 118.974 103.822ZM135.294 98.0062C135.249 97.0061 135.203 96.006 135.142 94.666C131.425 96.7956 128.059 98.6684 124.768 100.663C124.227 100.991 123.712 101.848 123.696 102.474C123.598 106.295 123.647 110.12 123.647 114.345C125.051 113.578 125.99 112.875 127.046 112.519C133.847 110.222 136.854 105.741 135.294 98.0062ZM72.3487 27.3101C72.3487 29.7723 72.3487 32.2344 72.3487 35.1622C76.154 32.9884 79.5185 31.1366 82.7902 29.1331C83.3874 28.7674 83.9243 27.7928 83.9458 27.0828C84.0595 23.3398 83.9991 19.5915 83.9991 15.3566C81.3069 16.8843 79.096 18.4694 76.6436 19.4512C73.171 20.8413 71.6523 23.0603 72.3487 27.3101ZM56.0286 25.9254C56.1894 26.8413 56.0323 28.2523 56.5626 28.5929C60.0667 30.8436 63.7185 32.8642 67.6806 35.1682C67.6806 30.8543 67.7223 27.1823 67.6425 23.5129C67.6279 22.8449 67.3045 21.8806 66.8045 21.5749C63.3808 19.4815 59.872 17.5273 56.0286 15.3204C56.0286 19.029 56.0286 22.2061 56.0286 25.9254ZM67.6326 120.43C63.9201 118.049 60.2076 115.668 56.0302 112.989C56.0302 117.559 55.9875 121.235 56.0693 124.907C56.084 125.572 56.4245 126.527 56.9281 126.834C60.353 128.925 63.8619 130.878 67.6735 133.064C67.6735 128.662 67.6735 124.796 67.6326 120.43ZM83.8693 113.809C80.2421 115.738 76.6 117.641 73.0099 119.638C72.6344 119.846 72.3899 120.605 72.3831 121.113C72.3317 124.94 72.355 128.769 72.355 133.041C75.8047 131.104 78.7845 129.343 81.8503 127.746C83.526 126.873 84.1534 125.739 84.0484 123.829C83.873 120.64 83.9898 117.434 83.8693 113.809Z" fill="#5831C8"/>
<path d="M61.7097 107.275C67.3134 102.387 72.7111 102.374 78.1647 107.149C79.0068 107.886 80.1035 108.332 81.5692 109.202C77.7289 111.406 74.2694 113.425 70.7632 115.359C70.3547 115.584 69.5864 115.525 69.1571 115.287C65.7194 113.38 62.3231 111.399 58.5601 109.237C59.7905 108.465 60.6561 107.922 61.7097 107.275Z" fill="#F2F3F6"/>
<path d="M61.3352 12.9471C60.4278 12.3936 59.7088 11.9351 58.543 11.1916C62.3099 9.02883 65.7678 7.01057 69.2718 5.0757C69.6825 4.84892 70.4506 4.89432 70.8773 5.13075C74.317 7.03695 77.7146 9.01918 81.6058 11.2543C77.7705 13.4541 74.4029 15.4621 70.9429 17.2958C70.3594 17.6051 69.2674 17.3755 68.5996 17.0295C66.1971 15.785 63.8757 14.3839 61.3352 12.9471Z" fill="#F2F3F6"/>
<path d="M126.65 86.9225C128.673 88.0871 130.508 89.1482 132.894 90.5279C128.99 92.7641 125.458 94.8231 121.874 96.7869C121.493 96.9953 120.73 96.7852 120.275 96.5327C116.912 94.6627 113.582 92.7328 109.72 90.5234C113.597 88.2985 117.02 86.2113 120.582 84.3999C121.243 84.0641 122.513 84.7378 123.422 85.1301C124.481 85.5872 125.452 86.2471 126.65 86.9225Z" fill="#F2F3F6"/>
<path d="M17.14 84.7822C18.2144 84.6488 19.2684 84.2907 19.9487 84.6467C23.2792 86.3898 26.5102 88.3231 30.3376 90.5097C26.4034 92.7638 22.8716 94.8235 19.2875 96.7878C18.9078 96.9958 18.1443 96.783 17.6897 96.5302C14.3278 94.6605 10.9991 92.7311 7.16064 90.5347C10.6868 88.4998 13.8171 86.6933 17.14 84.7822Z" fill="#F2F3F6"/>
<path d="M80.5269 60.8304C77.4068 62.6217 74.4964 64.355 71.5169 65.9601C70.849 66.3199 69.7472 66.5931 69.1721 66.2887C65.7 64.4507 62.323 62.4332 58.4541 60.2116C62.2874 58.0096 65.6697 56.0239 69.108 54.1405C69.5902 53.8763 70.4693 53.8892 70.957 54.1549C74.1843 55.9133 77.3633 57.7616 80.5244 59.6372C80.7298 59.7591 80.6557 60.3521 80.5269 60.8304Z" fill="#F2F3F6"/>
<path d="M120.107 23.952C120.843 23.7651 121.527 23.4341 121.913 23.6461C125.443 25.5861 128.921 27.6204 132.898 29.9054C129.063 32.1044 125.683 34.0847 122.248 35.9646C121.763 36.2301 120.884 36.236 120.401 35.9716C116.962 34.0894 113.58 32.1057 109.741 29.9027C113.439 27.7788 116.678 25.9192 120.107 23.952Z" fill="#F2F3F6"/>
<path d="M26.6655 27.7837C27.8246 28.4789 28.8046 29.06 30.2652 29.9261C26.4331 32.1278 22.9746 34.1481 19.4695 36.0838C19.0617 36.309 18.2942 36.2495 17.8654 36.0118C14.4277 34.1064 11.0314 32.1264 7.16064 29.9041C10.9905 27.7038 14.358 25.6928 17.818 23.856C18.4009 23.5465 19.4885 23.7818 20.1617 24.123C22.3158 25.2148 24.3846 26.4746 26.6655 27.7837Z" fill="#F2F3F6"/>
<path d="M32.7115 38.7358C34.2058 45.519 31.1528 49.2801 25.3053 51.4536C23.9804 51.9461 22.7917 52.8048 21.0674 53.7558C21.0674 49.4553 21.0404 45.5551 21.102 41.6562C21.1096 41.1748 21.4669 40.4962 21.8693 40.2555C25.3191 38.1915 28.8166 36.2075 32.7115 33.9623C32.7115 35.8125 32.7115 37.1365 32.7115 38.7358Z" fill="#B69EFD"/>
<path d="M118.626 53.3347C115.212 51.6027 111.965 49.8675 108.822 47.9615C108.133 47.5442 107.422 46.5335 107.392 45.7699C107.246 42.0157 107.325 38.2527 107.325 33.9836C111.113 36.1471 114.561 38.0418 117.908 40.1C118.483 40.4536 118.914 41.4996 118.926 42.2333C118.983 45.9108 118.878 49.5909 118.626 53.3347Z" fill="#B69EFD"/>
<path d="M135.294 36.1254C135.294 39.1809 135.208 41.9925 135.327 44.7953C135.396 46.4287 134.932 47.4983 133.441 48.2895C130.298 49.9567 127.229 51.7619 123.651 53.7808C123.651 49.4438 123.597 45.5368 123.708 41.6345C123.725 41.0393 124.38 40.2591 124.95 39.9164C128.175 37.9804 131.465 36.1518 135.023 34.1204C135.138 34.8674 135.216 35.3726 135.294 36.1254Z" fill="#B69EFD"/>
<path d="M16.3815 52.5933C16.2003 53.0115 15.9198 53.3971 15.8687 53.3687C12.4009 51.4463 8.93046 49.5262 5.52667 47.4945C5.08467 47.2307 4.78605 46.3806 4.77573 45.7958C4.70937 42.0327 4.74182 38.2679 4.74182 33.9717C8.58884 36.1828 12.1121 38.1287 15.5257 40.251C16.0671 40.5876 16.3321 41.7129 16.3528 42.4836C16.441 45.7762 16.3897 49.0725 16.3815 52.5933Z" fill="#B69EFD"/>
<path d="M56.0273 72.411C56.0273 69.7157 56.0273 67.3029 56.0273 64.2822C59.9077 66.5175 63.4574 68.5286 66.956 70.625C67.3441 70.8575 67.6351 71.573 67.6423 72.0693C67.6982 75.9117 67.6731 79.7552 67.6731 84.1193C63.807 81.8934 60.1288 80.1471 56.9584 77.7336C55.9522 76.9676 56.2994 74.4237 56.0273 72.411Z" fill="#B69EFD"/>
<path d="M72.3484 80.4358C70.7996 72.9735 73.7881 68.4841 80.5978 66.1959C81.6534 65.8412 82.5911 65.1358 83.9957 64.3668C83.9957 68.5965 84.045 72.4212 83.9464 76.2421C83.9303 76.8678 83.4132 77.7248 82.8719 78.0529C79.5814 80.0472 76.2168 81.9193 72.5008 84.0476C72.4395 82.7034 72.394 81.7027 72.3484 80.4358Z" fill="#B69EFD"/>
<path d="M6.62442 95.636C8.48164 96.7192 10.0669 97.9331 11.8556 98.6065C15.5706 100.005 16.9959 102.41 16.4527 106.366C16.1146 108.829 16.3899 111.375 16.3899 114.423C12.5471 112.215 9.03156 110.257 5.60189 108.158C5.10343 107.853 4.78978 106.882 4.77539 106.211C4.6966 102.533 4.73783 98.8531 4.73783 94.9252C5.43648 95.1694 5.94053 95.3456 6.62442 95.636Z" fill="#B69EFD"/>
<path d="M32.711 98.2726C34.2707 105.742 31.2636 110.222 24.4628 112.519C23.407 112.875 22.4682 113.578 21.0636 114.346C21.0636 110.12 21.0144 106.295 21.1127 102.474C21.1288 101.849 21.6442 100.991 22.1849 100.664C25.4762 98.6686 28.8415 96.7958 32.5591 94.6663C32.62 96.0062 32.6655 97.0063 32.711 98.2726Z" fill="#B69EFD"/>
<path d="M118.973 104.093C118.973 107.54 118.973 110.716 118.973 114.426C115.123 112.213 111.614 110.257 108.191 108.162C107.692 107.857 107.374 106.891 107.359 106.223C107.28 102.553 107.321 98.8811 107.321 94.5911C111.2 96.8251 114.789 98.7706 118.21 100.977C118.822 101.371 118.737 102.846 118.973 104.093Z" fill="#B69EFD"/>
<path d="M135.294 98.2726C136.854 105.742 133.847 110.222 127.046 112.519C125.991 112.875 125.052 113.578 123.647 114.346C123.647 110.12 123.598 106.295 123.696 102.474C123.712 101.849 124.228 100.991 124.768 100.664C128.06 98.6686 131.425 96.7958 135.143 94.6663C135.204 96.0062 135.249 97.0063 135.294 98.2726Z" fill="#B69EFD"/>
<path d="M72.3494 27.0288C71.6529 23.0602 73.1716 20.8413 76.6442 19.4511C79.0967 18.4694 81.3075 16.8843 83.9997 15.3566C83.9997 19.5915 84.0601 23.3397 83.9464 27.0827C83.9249 27.7927 83.388 28.7673 82.7908 29.133C79.5191 31.1366 76.1546 32.9883 72.3494 35.1622C72.3494 32.2344 72.3494 29.7722 72.3494 27.0288Z" fill="#B69EFD"/>
<path d="M56.0274 25.6538C56.0273 22.2056 56.0273 19.0285 56.0273 15.3198C59.8708 17.5268 63.3796 19.481 66.8033 21.5744C67.3032 21.8801 67.6267 22.8444 67.6412 23.5124C67.7211 27.1818 67.6794 30.8538 67.6794 35.1677C63.7173 32.8637 60.0654 30.843 56.5613 28.5924C56.031 28.2518 56.1882 26.8408 56.0274 25.6538Z" fill="#B69EFD"/>
<path d="M67.6511 120.68C67.6715 124.796 67.6715 128.662 67.6715 133.064C63.8599 130.878 60.351 128.925 56.9261 126.835C56.4225 126.527 56.0821 125.572 56.0673 124.907C55.9856 121.235 56.0282 117.559 56.0282 112.989C60.2057 115.668 63.9181 118.049 67.6511 120.68Z" fill="#B69EFD"/>
<path d="M83.9248 114.022C83.9882 117.434 83.8714 120.64 84.0468 123.829C84.1518 125.74 83.5244 126.873 81.8487 127.746C78.7829 129.343 75.8031 131.105 72.3534 133.042C72.3534 128.77 72.3301 124.941 72.3815 121.113C72.3883 120.605 72.6328 119.847 73.0083 119.638C76.5984 117.642 80.2405 115.739 83.9248 114.022Z" fill="#B69EFD"/>
</svg>
