<svg width="140" height="141" viewBox="0 0 140 141" fill="none" xmlns="http://www.w3.org/2000/svg">
<path d="M110.583 131.699C111.862 133.979 111.305 136.263 111.27 138.502C111.255 139.454 110.673 139.974 109.679 139.967C109.044 139.963 108.408 139.987 107.773 139.987C82.6153 139.987 57.458 139.997 32.3008 139.953C31.0805 139.951 29.2085 140.718 28.8327 138.823C28.3789 136.534 28.2257 134.107 29.286 131.892C29.4527 131.544 30.4341 131.494 31.0457 131.468C32.4964 131.406 33.9561 131.365 35.403 131.458C37.1539 131.57 38.0062 130.911 38.3981 129.129C39.2542 125.236 40.4274 121.413 41.286 117.521C41.6955 115.665 42.542 114.961 44.4417 115.025C47.8888 115.141 51.345 114.978 54.793 115.08C56.6891 115.137 57.3219 114.412 57.3723 112.547C57.5148 107.274 57.5816 107.277 52.4175 107.276C36.1606 107.274 19.9037 107.275 3.64681 107.267C0.0718339 107.265 0.0350203 107.25 0.0635225 103.604C0.106349 98.1255 -0.712972 98.4361 5.12173 98.4147C10.5709 98.3947 16.0224 98.3256 21.4683 98.4607C23.8003 98.5186 24.9329 97.8228 24.5932 95.3847C24.556 95.1175 24.5885 94.8407 24.5887 94.5683C24.5912 90.918 24.5912 90.9151 21.0568 90.9123C15.1535 90.9077 9.24837 90.8223 3.34769 90.9462C0.933669 90.997 -0.0870602 90.316 0.00578577 87.7274C0.174522 83.0227 -0.223066 78.2885 1.32155 73.7113C3.45029 67.4033 7.11993 62.2538 12.6422 58.4712C13.4592 57.9116 14.2694 57.3419 15.3779 56.5719C10.7946 50.9586 9.12834 44.6968 11.1545 37.7575C12.366 33.6084 14.9133 30.3319 18.4923 27.9025C25.685 23.02 35.3542 23.7625 41.6247 29.6463C49.0286 36.5937 49.4266 45.2808 42.8492 56.4195C42.8961 57.0807 43.4627 57.2693 43.9079 57.5499C53.3866 63.5249 57.8428 72.2656 58.0437 83.3115C58.1822 90.9264 58.1463 90.927 50.4423 90.9246C45.6288 90.9231 40.8139 90.9902 36.0025 90.889C33.9089 90.8449 32.9276 91.5374 33.1625 93.7107C33.2595 94.6084 33.2071 95.5252 33.1826 96.4322C33.1451 97.8273 33.8601 98.4032 35.191 98.3806C35.9172 98.3683 36.644 98.3938 37.3705 98.3938C59.1674 98.3964 80.9644 98.3987 102.761 98.3985C106.247 98.3984 108.304 94.8261 106.637 91.705C106.071 90.6446 105.075 90.9363 104.224 90.9323C97.8664 90.9017 91.5065 90.8116 85.1526 90.9598C82.5822 91.0198 81.9444 90.038 81.8918 87.6218C81.6966 78.6644 83.0516 70.2489 89.2843 63.2612C91.0503 61.2812 92.9905 59.4931 95.2472 58.1264C96.9222 57.112 97.2591 56.3045 96.0356 54.5234C87.8184 42.5613 93.8838 27.7248 108.052 24.9137C118.571 22.8264 129.467 31.6293 129.603 42.3252C129.675 47.9092 129.675 47.9092 124.944 56.4636C125.436 57.516 126.546 57.8631 127.404 58.4848C135.61 64.4307 139.88 72.4116 139.949 82.5823C139.96 84.1255 139.955 85.669 139.95 87.2123C139.937 90.8927 139.935 90.9022 136.122 90.9079C130.218 90.9167 124.307 91.0932 118.415 90.8413C115.012 90.6959 115.463 92.692 115.374 94.8145C115.277 97.1235 115.536 98.5707 118.507 98.469C124.585 98.2607 130.676 98.4623 136.759 98.378C138.974 98.3473 140.079 98.893 139.996 101.42C139.775 108.121 140.747 107.247 134.22 107.264C118.145 107.304 102.069 107.353 85.9949 107.207C83.0363 107.18 82.51 108.29 82.6206 110.868C82.7997 115.041 82.6684 115.066 86.0058 115.056C89.2744 115.046 92.5465 115.074 95.8099 114.926C97.5162 114.849 98.2187 115.488 98.5872 117.124C99.5025 121.186 100.677 125.191 101.585 129.255C101.955 130.913 102.734 131.516 104.381 131.464C106.372 131.402 108.369 131.535 110.583 131.699ZM9.89048 75.6486C9.63672 76.6082 9.3174 77.556 9.14102 78.5296C8.5129 81.9965 8.53131 82.0042 11.9953 82.0041C23.4113 82.0039 34.8274 82.0129 46.2434 81.989C49.0766 81.983 49.4454 81.4893 48.9125 78.7938C47.1054 69.6523 39.8609 63.092 30.5312 62.1484C21.8798 61.2734 13.4438 66.6744 9.89048 75.6486ZM120.959 82.0077C123.59 82.008 126.223 81.9612 128.853 82.0249C130.647 82.0684 131.451 81.7244 131.096 79.5454C129.471 69.5911 121.314 62.2546 111.442 62.1033C101.482 61.9507 92.9134 69.0878 91.0335 79.0322C90.6395 81.117 91.1732 82.0416 93.467 82.0232C102.449 81.9512 111.432 82.002 120.959 82.0077ZM82.8067 123.636C73.1861 123.637 63.5654 123.609 53.9449 123.649C47.8734 123.675 49.1766 122.877 47.496 128.841C46.9547 130.762 47.5592 131.482 49.5732 131.461C56.198 131.392 62.824 131.438 69.4495 131.439C76.4381 131.44 83.427 131.4 90.4149 131.466C92.4202 131.485 93.0302 130.752 92.5252 128.837C90.8663 122.546 91.8276 123.774 86.0724 123.638C85.1653 123.617 84.2572 123.636 82.8067 123.636ZM110.673 53.4858C111.824 53.274 113.01 53.1755 114.12 52.8308C118.856 51.3593 121.863 46.2608 120.842 41.5509C119.67 36.1474 115.23 33.0193 109.617 33.6429C104.781 34.1801 101.213 38.2905 101.206 43.3314C101.199 48.6855 104.078 51.9021 110.673 53.4858ZM26.7558 53.0692C30.6717 54.0193 33.8816 52.7331 36.5005 49.8529C39.0555 47.0429 39.416 43.6818 38.3499 40.2063C36.957 35.6653 32.7321 33.1329 27.7547 33.6229C23.0715 34.0838 19.4911 37.7325 18.9961 42.5482C18.5296 47.087 21.4751 51.281 26.7558 53.0692ZM73.005 114.768C74.3985 112.791 73.5521 110.585 73.6219 108.478C73.6412 107.894 73.186 107.558 72.6137 107.356C68.6116 105.948 66.3641 107.556 66.2435 111.656C66.1691 114.184 66.8979 115.444 69.6028 115.069C70.5828 114.933 71.5885 114.982 73.005 114.768Z" fill="#5831C8"/>
<path d="M73.6138 0.360935C74.9711 2.01196 74.4485 3.79548 74.4279 5.46175C74.4032 7.46122 74.871 8.395 77.1573 8.37871C82.7532 8.33882 83.6581 9.65131 82.6448 15.2883C82.3757 16.7854 81.4513 16.8987 80.3 16.8993C76.5799 16.9013 72.857 16.9956 69.1409 16.8766C67.0673 16.8102 66.0067 17.437 66.2922 19.6357C66.3038 19.7249 66.2937 19.8169 66.2925 19.9076C66.2312 24.6788 66.2312 24.68 70.8961 24.6847C73.8903 24.6878 76.8866 24.7553 79.8779 24.6629C81.8326 24.6025 82.6894 25.3322 82.6737 27.3376C82.6216 33.958 82.6098 40.5797 82.6865 47.1997C82.71 49.23 81.8367 49.8633 79.9262 49.9326C74.6647 50.1233 74.5839 50.1785 74.5127 55.2646C74.4829 57.3921 73.6471 58.2734 71.5893 58.1301C71.3187 58.1113 71.0452 58.134 70.773 58.1374C65.6243 58.2025 65.5775 58.2025 65.5691 53.0144C65.566 51.1591 65.3757 49.8395 62.9946 49.9053C56.734 50.0786 57.3406 50.5777 57.3678 43.2931C57.3738 41.686 58.0755 41.0132 59.6786 41.0314C63.3982 41.0736 67.1229 40.9283 70.837 41.0752C73.1409 41.1663 73.9855 40.2694 73.7421 38.0687C73.6628 37.3517 73.6831 36.6161 73.7317 35.8939C73.8526 34.0966 72.9326 33.4975 71.2595 33.5169C67.7215 33.558 64.1806 33.4513 60.6446 33.5445C58.2861 33.6067 57.2215 32.8804 57.2906 30.2749C57.4589 23.9304 57.4206 17.5776 57.3216 11.2304C57.2863 8.96819 58.1245 8.26133 60.344 8.28406C65.4352 8.33619 65.5364 8.23852 65.4859 3.06674C65.4638 0.797727 66.2555 -0.0660044 68.4842 0.132212C70.1059 0.276434 71.7446 0.22788 73.6138 0.360935Z" fill="#5831C8"/>
</svg>
