<svg width="140" height="132" viewBox="0 0 140 132" fill="none" xmlns="http://www.w3.org/2000/svg">
<path d="M47.0264 14.8747C47.1823 14.1589 47.6723 13.9627 48.3443 13.9782C57.5906 14.1917 66.8402 13.9085 76.0872 14.176C79.9574 14.288 83.8326 14.2305 87.7055 14.2438C94.9047 14.2687 102.104 14.2766 109.303 14.315C115.439 14.3477 118.99 17.9352 119.339 24.1427C119.596 28.6972 119.503 33.2478 119.508 37.7993C119.534 58.3041 119.519 78.8089 119.519 99.3137C119.519 101.176 119.521 101.179 121.422 101.18C125.796 101.182 130.171 101.227 134.544 101.152C135.892 101.129 136.255 101.603 136.234 102.885C136.167 106.894 136.242 110.905 136.193 114.914C136.131 120.07 133.196 122.952 128.073 122.954C108.616 122.962 89.1591 122.971 69.7023 122.958C67.9625 122.957 66.3287 123.155 64.6505 123.769C59.4103 125.688 53.8886 122.19 52.6963 116.38C52.169 113.81 52.3676 111.202 52.2905 108.616C52.1371 103.471 52.1757 98.32 52.1359 93.1713C52.1324 92.7246 52.1354 92.2778 52.1354 91.6036C50.7826 92.4541 49.5665 93.1171 48.1904 93.2787C48.4034 97.7539 47.8621 98.3475 43.0824 99.0163C42.5316 102.846 42.1148 103.169 37.1484 103.577C37.2749 103.929 37.4054 104.263 37.5157 104.604C37.9536 105.956 37.5834 106.908 36.3219 107.561C34.7384 108.38 33.0407 108.711 31.2879 108.393C27.878 107.774 24.8521 106.392 22.0293 104.285C20.3761 103.052 18.753 101.752 17.0536 100.576C7.08299 93.6764 5.44205 80.1892 13.6264 71.1972C17.0352 67.4521 21.5119 65.7695 26.5049 65.3548C31.1622 64.9679 35.5522 65.8993 39.7341 67.9416C40.4084 68.2709 41.1317 68.4999 42.168 68.9072C38.9953 62.6412 38.4668 56.4423 40.3686 49.7531C37.3904 50.1803 34.5827 49.3007 31.7851 50.495C28.4009 51.9398 25.0076 51.7706 21.8935 49.6384C20.173 48.4604 19.277 46.7725 19.2987 44.643C19.3136 43.185 19.2409 41.7227 19.3307 40.27C19.4069 39.0374 18.9086 38.7087 17.7414 38.7258C13.9146 38.782 10.0865 38.7515 6.259 38.7425C4.41068 38.7381 4.02158 38.3406 4.01203 36.4921C4.00449 35.0341 4.00832 33.5759 4.00918 32.1178C4.01159 28.0502 5.69762 26.2068 9.69968 25.4334C14.3108 24.5423 18.9507 25.0768 23.5737 24.893C26.9857 24.7574 30.4034 24.7387 33.8187 24.7251C34.8383 24.721 35.3371 24.4194 35.31 23.3228C35.2911 22.5562 35.4309 21.7806 35.548 21.0163C36.4476 15.1449 41.3619 13.9505 45.47 14.5723C45.9191 14.6403 46.3614 14.7525 46.9819 14.9222C50.6443 17.2617 52.6455 20.249 52.3475 24.6295C52.1439 27.6228 52.3091 30.6417 52.3303 33.649C52.3337 34.13 52.1832 34.6502 52.6354 35.2388C54.5781 34.3495 56.6218 33.6163 58.7402 33.1486C59.6864 32.9397 60.1293 32.5758 60.1022 31.517C60.0645 30.0448 60.5873 29.6018 62.1007 29.5728C63.5583 29.5449 65.0169 29.5637 66.4751 29.5712C68.6226 29.5822 68.9267 29.8709 69.0031 31.9752C69.0248 32.5748 68.9738 33.1772 69.7705 33.3658C72.091 33.9149 74.2793 34.7948 76.3291 36.0213C77.2018 36.5434 78.0118 36.2527 78.7296 35.6872C79.452 35.1181 79.5879 34.4186 79.2884 33.4992C78.8077 32.0235 78.5958 30.4946 78.8943 28.9246C79.0591 28.0578 79.2824 27.2436 80.3352 27.26C81.4695 27.2777 81.741 28.1856 81.7658 29.0808C81.8051 30.4961 81.5385 31.8868 81.1325 33.2459C80.6368 34.9052 81.2732 35.6657 83.0365 35.6264C84.5148 35.5934 85.4178 34.596 86.4134 33.7449C88.5391 31.928 89.2872 31.8305 91.8017 33.1312C92.746 33.6197 93.7211 33.9059 94.8006 33.9415C99.9433 34.1114 105.085 34.3141 110.226 34.5245C110.804 34.5481 111.526 34.3532 111.815 35.1568C111.554 35.5734 111.202 35.5643 110.827 35.5519C106.365 35.4053 101.901 35.3322 97.4441 35.0965C95.4654 34.9918 93.4326 35.0582 91.5532 34.1531C88.8746 32.863 88.7947 32.8723 86.6639 34.8494C84.0154 37.307 82.2484 37.0108 80.1394 35.6791C79.7116 36.3548 78.9891 36.7465 78.3505 37.3328C82.0191 40.11 84.6763 43.5679 86.5338 47.7083C87.1906 47.1551 87.7064 46.398 88.4847 47.1317C89.1886 47.7951 89.8111 47.5148 90.4566 47.1228C91.7841 46.3168 93.131 46.3029 94.4883 47.0144C96.2337 47.9295 98.1129 48.1796 100.047 48.1767C103.282 48.1718 106.517 48.1533 109.752 48.1668C110.255 48.1689 110.875 47.952 111.195 48.6269C110.898 49.324 110.274 49.1065 109.773 49.1116C106.583 49.1435 103.393 49.1218 100.204 49.1672C98.0268 49.1981 95.945 48.8882 94.0003 47.8438C92.9543 47.2821 91.9174 47.2771 90.9225 48.0291C90.1911 48.5818 89.3344 48.8518 88.4867 48.4398C87.5135 47.9668 87.3281 48.5294 87.295 49.237C87.2721 49.7233 87.4046 50.2293 87.5344 50.7084C88.7544 55.211 88.7446 59.697 87.3949 64.1717C87.1936 64.8392 87.0075 65.5113 86.724 66.495C88.663 65.5807 90.2832 65.9704 91.898 66.5447C92.1913 66.6491 92.5549 66.767 92.828 66.685C96.1253 65.6954 99.3255 66.937 102.571 67.078C102.972 67.0954 103.415 67.1128 103.506 67.6935C103.12 68.3644 102.512 68.1068 101.945 68.066C99.4183 67.8843 96.9444 66.9064 94.3724 67.4809C92.9337 67.8022 91.5703 67.6541 90.2219 67.1377C89.152 66.7279 88.1416 66.9102 87.2254 67.5153C86.2709 68.1457 85.4555 68.931 84.8643 69.9394C83.8925 71.5968 82.7169 73.1072 81.3732 74.4779C78.2705 77.6428 74.5431 79.7618 70.2793 80.9116C69.3002 81.1756 68.8856 81.6365 69.0124 82.6274C69.0524 82.9407 69.0185 83.2647 69.0061 83.5833C68.9502 85.017 68.5316 85.4566 67.1023 85.4764C65.3711 85.5002 63.6393 85.48 61.9078 85.4767C60.7405 85.4745 60.1683 84.8631 60.0763 83.7217C59.9002 81.5363 59.8796 81.5807 57.7771 80.9619C56.2733 80.5194 54.8645 79.9952 53.9262 81.9194C53.7222 82.3378 53.4303 82.587 53.6639 83.0995C54.6415 85.2438 54.2743 87.3726 53.4875 89.4705C53.2777 90.0297 53.081 90.5657 53.0884 91.1791C53.1821 98.9226 53.0538 106.669 53.4083 114.409C53.6193 119.014 56.7111 122.595 61.0424 123.271C63.7597 123.696 65.2446 122.752 65.7035 120.163C66.6869 114.615 67.6319 109.059 68.5485 103.499C68.9298 101.187 68.8786 101.178 71.2246 101.178C85.806 101.179 100.388 101.18 114.969 101.18C118.423 101.181 118.414 101.18 118.414 97.7239C118.413 84.0538 118.409 70.3837 118.425 56.7136C118.437 46.4224 118.515 36.1311 118.483 25.8401C118.474 23.0334 117.885 20.311 116.142 17.9836C114.924 16.358 113.306 15.4527 111.255 15.3914C109.525 15.3398 107.795 15.2742 106.065 15.2669C88.2047 15.1907 70.3448 15.1298 52.4849 15.0497C50.6652 15.0415 48.8459 14.9354 47.0264 14.8747ZM85.1422 67.3335C87.1137 63.0561 87.8852 58.6154 87.181 53.9122C85.0462 39.6535 71.4003 30.7024 57.5214 34.5005C44.7892 37.9848 37.3462 51.1577 41.2016 63.8336C43.9212 72.7753 50.1057 78.4652 59.2189 80.3047C70.0211 82.4851 79.9534 77.3166 85.1422 67.3335ZM11.955 75.3578C6.9386 85.0227 9.91112 94.6921 17.314 99.1713C17.6584 98.4789 18.1152 97.8719 18.685 97.3412C20.3169 95.8212 21.9152 94.265 23.5544 92.7529C24.1788 92.1769 24.5729 91.5865 24.6619 90.6765C24.8862 88.3812 26.1978 87.0988 28.471 86.682C28.9843 86.5878 29.5614 86.6877 29.996 86.2906C27.9283 80.5896 28.5025 79.7792 34.6737 79.6424C34.5876 75.6686 36.1675 74.3422 40.2124 74.9977C40.5711 75.0558 40.9247 75.1452 41.2818 75.2142C41.7565 75.3059 42.1873 75.2234 42.5452 74.8755C43.2561 74.1846 43.9667 73.4933 44.6513 72.8275C43.7903 71.2918 43.3843 70.6931 42.7647 70.4004C37.5971 67.9595 32.4014 65.6467 26.4421 66.3739C20.2966 67.1239 15.1568 69.4784 11.955 75.3578ZM28.6111 98.2382C28.2693 97.9371 27.929 97.6342 27.5854 97.335C25.9922 95.9474 23.5625 95.8026 22.199 97.0129C20.8254 98.2323 20.68 100.632 21.873 102.393C24.0425 105.596 30.8475 108.171 34.578 107.201C36.911 106.595 37.2794 105.299 35.6566 103.491C35.2965 103.09 34.5885 102.873 34.775 102.137C35.1431 101.809 35.4929 101.967 35.8366 102.074C37.1279 102.479 38.4487 102.463 39.7611 102.273C41.8572 101.97 42.5432 100.35 41.3507 98.6126C41.129 98.2896 40.7303 98.0398 40.9974 97.2617C42.6525 97.8099 44.4148 98.3535 46.0939 97.2997C48.2968 95.9171 47.1948 94.2097 46.4588 92.6392C46.9317 92.0855 47.4736 92.2603 47.95 92.2189C52.0928 91.8591 54.6314 87.0309 52.6037 83.3981C50.0195 78.7684 42.0663 75.608 37.8311 75.9396C36.0985 76.0753 35.2414 77.5477 35.8482 79.1887C36.1226 79.9308 36.5648 80.5517 37.1229 81.1056C39.1032 83.0709 41.2961 84.7637 43.627 86.2927C44.5608 86.9053 45.4 87.4695 46.1937 86.1365C46.3059 85.9481 46.5805 85.9132 46.965 86.221C46.6579 87.4143 45.8854 88.2591 44.7554 88.975C44.3238 88.3534 44.2104 87.742 43.5747 87.4021C41.0663 86.0606 38.889 84.2378 36.871 82.2639C35.541 80.9629 33.9919 80.5766 32.2752 80.5859C30.3446 80.5963 29.3479 82.0351 30.0309 83.846C30.5631 85.2568 31.3459 86.54 32.4577 87.6009C34.107 89.1747 35.8405 90.648 37.6175 92.075C38.427 92.725 39.1697 93.4617 40.4341 92.9708C40.3207 94.1431 39.6905 94.5709 38.7202 94.8163C38.5254 94.0039 37.921 93.5956 37.364 93.1288C35.5142 91.578 33.6749 90.0142 31.849 88.4353C30.7005 87.4422 28.7485 87.3104 27.267 88.1696C26.0296 88.8873 25.3781 90.5726 25.6769 92.072C26.2479 94.9377 28.2917 96.6734 30.4071 98.3672C31.1709 98.9787 31.8922 99.7066 33.1978 98.9735C33.0664 100.321 32.4867 100.949 31.3331 101.349C31.2912 99.5713 29.6031 99.3631 28.6111 98.2382ZM20.2291 44.2119C20.2039 46.8487 21.5654 48.5651 23.8509 49.6676C25.5204 50.473 27.3145 50.5476 29.0719 50.2756C32.1709 49.796 35.1155 47.7909 35.0008 43.6652C34.8501 38.2472 34.9327 32.8216 34.9838 27.3999C34.995 26.2108 34.6354 25.8087 33.4275 25.8248C28.0518 25.8965 22.675 25.8857 17.2986 25.9103C16.8436 25.9124 16.3887 25.9562 15.5746 25.9999C18.5015 27.951 19.3495 30.5713 19.8031 33.4522C20.3526 36.942 20.1749 40.4485 20.2291 44.2119ZM67.4529 84.452C68.1675 84.1408 67.9951 83.4921 68.0418 82.9216C68.1267 81.8842 67.9654 81.3007 66.6292 81.5854C65.2661 81.8758 63.8389 82.0002 62.4285 81.7866C61.7095 81.6777 61.0254 81.5167 61.0553 82.6324C61.0797 83.5444 60.8868 84.5491 62.3141 84.5281C63.9492 84.5041 65.5847 84.5059 67.4529 84.452ZM68.0365 32.1545C68.2117 30.9002 67.6611 30.4377 66.417 30.5202C65.2002 30.6009 63.9739 30.5341 62.7519 30.5407C61.0057 30.5501 60.7462 30.9386 61.3409 32.7415C63.1652 32.5597 65.0086 32.5706 66.8499 32.8105C67.2727 32.8656 67.7861 32.9577 68.0365 32.1545ZM50.9064 79.7623C51.3221 80.1769 51.7344 80.5949 52.1541 81.0052C52.8385 81.6743 53.2947 81.172 53.7095 80.6668C54.1934 80.0774 53.9264 79.7171 53.3124 79.4256C52.4159 78.9999 51.535 78.5381 50.6684 78.0542C50.1044 77.7392 49.7419 77.8505 49.4987 78.4371C49.7355 79.048 50.3891 79.1948 50.9064 79.7623ZM38.8058 33.0584C38.8232 33.2573 38.8407 33.4561 38.8581 33.6549C38.8715 33.6519 38.8849 33.6488 38.8983 33.6458C38.8983 29.4348 38.8983 25.2237 38.8983 21.0127C38.8675 21.0137 38.8366 21.0147 38.8058 21.0157C38.8058 24.9611 38.8058 28.9064 38.8058 33.0584ZM110.883 114.445C109.783 114.445 108.683 114.445 107.583 114.445C107.584 114.503 107.586 114.56 107.587 114.617C114.443 114.617 121.299 114.617 128.154 114.617C128.155 114.56 128.155 114.502 128.155 114.445C122.488 114.445 116.822 114.445 110.883 114.445ZM44.6509 29.4468C44.7049 29.6245 44.5572 29.9094 44.8979 29.9415C44.8979 27.7218 44.8979 25.516 44.8979 23.3103C44.8146 23.3111 44.7313 23.3119 44.6479 23.3127C44.6479 25.2894 44.6479 27.266 44.6509 29.4468ZM80.5602 31.496C80.8506 28.8932 80.8506 28.8932 80.1121 28.3139C79.7057 29.7591 79.813 31.1293 80.0198 32.5922C80.4465 32.3211 80.4188 31.9777 80.5602 31.496Z" fill="#5831C8"/>
<path d="M12.1272 106.376C15.2708 109.826 18.9396 112.387 23.1012 114.242C27.1607 116.051 31.5037 116.728 35.9527 116.947C35.8973 117.204 35.8418 117.462 35.7863 117.72C30.7486 117.999 25.9752 116.721 21.4421 114.555C16.7215 112.299 12.6382 109.201 9.80713 104.704C11.1704 104.48 11.3025 105.785 12.1272 106.376Z" fill="#5831C8"/>
<path d="M6.92203 46.4289C8.74955 44.4908 10.4237 43.6493 11.6925 44.0043C11.7351 44.7841 11.0423 44.7685 10.5972 44.9739C8.78873 45.8082 7.32877 46.9538 6.79495 48.991C6.4147 50.442 6.6485 50.8559 8.08365 51.1522C8.70098 51.2797 9.20838 51.5626 9.48474 52.1319C9.73533 52.6481 9.78562 53.2056 9.34301 53.6559C8.90365 54.103 8.36396 54.1198 7.83765 53.8145C7.44741 53.5881 7.08816 53.3084 6.65622 53.012C5.1166 54.3999 5.79223 56.16 5.93692 57.7585C5.04457 58.0233 4.94857 57.481 4.82571 57.0007C4.4333 55.4669 4.63804 54.0118 5.47885 52.6688C5.80708 52.1445 6.01525 51.6325 5.85159 50.9997C5.42108 49.335 5.82089 47.8468 6.92203 46.4289Z" fill="#5831C8"/>
<path d="M125.75 13.1983C126.134 12.6855 126.17 11.9424 126.966 11.9852C127.338 13.9998 121.952 20.145 119.252 20.2525C121.699 17.8793 124.203 16.0116 125.75 13.1983Z" fill="#5831C8"/>
<path d="M17.3724 120.842C15.003 119.661 12.7887 118.435 11.1783 116.338C13.9974 117.73 16.5999 119.474 19.5677 120.83C18.6418 121.843 18.0754 121.029 17.3724 120.842Z" fill="#5831C8"/>
<path d="M126.715 31.9593C125.062 30.9157 123.078 31.2342 121.294 30.4076C122.65 29.5321 126.39 30.2447 127.91 31.5806C128.573 32.1628 129.56 32.6973 129.147 34.0519C128.068 33.5105 127.761 32.3809 126.715 31.9593Z" fill="#5831C8"/>
<path d="M126.978 24.7499C127.338 24.8903 127.613 25.022 127.598 25.3408C127.587 25.5901 127.358 25.776 127.122 25.7261C125.356 25.3535 123.524 25.25 121.861 24.4604C121.783 24.4234 121.781 24.2261 121.684 23.9065C123.549 23.7028 125.171 24.5545 126.978 24.7499Z" fill="#5831C8"/>
<path d="M81.5991 80.9432C82.6313 81.5144 83.615 81.4962 84.608 81.2081C86.3744 80.6956 88.1303 80.757 89.8386 81.3901C92.3125 82.307 94.8526 82.1537 97.4003 81.9769C99.2609 81.8478 101.119 81.6807 102.98 81.5604C103.494 81.5272 104.07 81.4724 104.325 81.9817C104.296 82.3547 104.12 82.4559 103.947 82.4662C100.365 82.6817 96.8031 83.2444 93.1964 83.0531C91.8149 82.9799 90.4956 82.6555 89.1987 82.229C87.8558 81.7873 86.5137 81.7208 85.1709 82.1361C83.5491 82.6377 82.0666 82.4507 80.5978 81.5653C79.1105 80.6689 78.3073 80.8395 77.0704 82.0431C76.6144 82.4867 76.1852 82.9784 75.6638 83.3291C74.9921 83.781 74.1935 83.9393 73.4764 83.4515C72.8786 83.0447 72.1694 82.6213 72.3419 81.7062C72.9246 81.4064 73.1697 81.8157 73.4349 82.0958C74.1735 82.8758 74.8769 82.6931 75.579 82.059C75.7479 81.9065 75.9062 81.7421 76.0676 81.5814C78.0254 79.6321 78.9192 79.5197 81.5991 80.9432Z" fill="#5831C8"/>
<path d="M57.9777 104.826C57.8801 106.101 58.2187 107.294 57.6989 108.382C56.9138 108.338 56.8866 107.83 56.8844 107.393C56.8669 103.892 56.87 100.39 56.8766 96.8886C56.8773 96.5235 56.9414 96.1585 57.3533 95.903C58.1027 96.1182 57.9621 96.7796 57.9663 97.3236C57.9852 99.7792 57.9765 102.235 57.9777 104.826Z" fill="#5831C8"/>
<path d="M78.1945 66.5134C74.06 72.4595 68.3409 75.0735 61.3861 74.0993C54.0835 73.0763 49.1768 68.6526 47.2699 61.5232C44.358 50.6366 52.6229 40.3683 63.4172 40.1461C71.9091 39.9714 80.1735 46.2295 80.9393 56.3013C81.2161 59.9425 80.1917 63.3316 78.1945 66.5134ZM75.3499 49.7413C74.7423 48.7343 74.456 47.6336 74.5811 46.4729C74.6816 45.5409 74.3122 44.9327 73.6092 44.3797C68.0118 39.9774 59.3784 40.0867 53.8067 44.6C52.9104 45.3261 52.5311 46.0917 52.5553 47.2654C52.6972 54.139 52.7823 61.0141 52.8316 67.889C52.8389 68.9126 53.3665 69.4523 54.0704 70.0016C57.7936 72.9069 62.0884 73.7237 66.5865 72.9377C68.6155 72.5832 71.2876 72.7604 72.1221 69.9165C72.1684 69.7586 72.4877 69.6718 72.6892 69.5702C73.1357 69.3452 73.6033 69.1583 74.0347 68.9083C74.9344 68.387 75.3907 67.7985 74.6184 66.7349C73.8634 65.6952 73.4929 64.443 73.3134 63.1716C73.0554 61.3441 73.045 59.5238 74.0446 57.8683C74.8833 56.4792 76.1013 56.4413 76.9272 57.7766C77.4903 58.687 77.6808 59.7077 77.7406 60.7735C77.8356 62.4697 77.3563 64.1014 77.1636 66.014C77.4186 65.6943 77.5402 65.5748 77.6235 65.4328C79.9724 61.4281 80.6165 57.1927 79.3112 52.706C78.7074 50.6306 77.6942 50.3246 75.952 51.6576C75.455 52.0378 74.906 52.2553 74.3031 51.9544C73.8267 51.7167 73.3021 51.4554 73.4857 50.9663C74.1019 50.2006 75.7197 52.129 75.3499 49.7413ZM50.1569 65.7398C50.628 66.2923 50.8441 67.0926 51.6603 67.4174C51.7401 67.1848 51.8206 67.0615 51.8189 66.9392C51.7467 61.5778 51.6589 56.2165 51.5966 50.855C51.5858 49.9231 51.0204 49.8799 50.3235 49.8783C49.4385 49.8763 49.1975 50.5182 48.9527 51.1641C47.0683 56.1376 47.3569 60.9467 50.1569 65.7398ZM76.0229 65.6796C76.122 65.3317 76.2464 64.9889 76.3158 64.6352C76.6835 62.7599 76.8753 60.8767 76.3711 58.9965C76.2559 58.5669 76.0719 58.0935 75.5492 58.0128C75.1823 57.956 75.0203 58.2941 74.857 58.5692C73.789 60.3683 74.0293 64.2036 75.3064 65.8598C75.5506 66.1765 75.7561 66.333 76.0229 65.6796ZM75.6217 47.6664C75.8106 48.0453 75.7788 48.5566 76.3449 48.8002C77.0629 47.8012 76.6338 47.1512 75.8115 46.5489C75.4547 46.859 75.5873 47.1821 75.6217 47.6664Z" fill="#5831C8"/>
<path d="M59.9815 69.3075C59.4451 68.9482 59.2017 68.525 59.2005 67.9882C59.1958 65.896 59.2165 63.8036 59.1956 61.7116C59.1841 60.5633 59.7896 60.0067 60.8553 59.9858C62.9476 59.9448 65.0417 59.9507 67.1343 59.9862C68.1635 60.0037 68.7164 60.5804 68.7164 61.638C68.7163 63.6858 68.7172 65.7336 68.72 67.7815C68.7214 68.8239 68.2072 69.438 67.1669 69.4638C64.8054 69.5226 62.4397 69.6852 59.9815 69.3075Z" fill="#5831C8"/>
<path d="M66.6052 51.5444C64.7546 51.5467 63.0286 51.5669 61.3033 51.5399C59.675 51.5145 59.1959 50.9935 59.2095 49.3956C59.2254 47.5338 59.2518 45.6716 59.23 43.8101C59.2153 42.5556 59.8133 41.9536 61.0362 41.946C63.0342 41.9336 65.0324 41.9355 67.0306 41.9359C68.0846 41.9361 68.6602 42.5033 68.6793 43.5225C68.7191 45.6561 68.7199 47.7913 68.6868 49.9251C68.6674 51.1742 67.7636 51.4629 66.6052 51.5444Z" fill="#5831C8"/>
</svg>
