<svg width="40" height="40" viewBox="0 0 40 40" fill="none" xmlns="http://www.w3.org/2000/svg">
<path d="M19.2302 33.8506V21.9487C19.2302 21.5246 19.5773 21.1774 20.0007 21.1774C20.4249 21.1774 20.772 21.5246 20.772 21.9487V33.8506C24.0581 32.1223 29.1871 30.3102 33.8845 32.3615V8.77513C32.7743 8.21966 31.5554 7.99551 30.1592 8.08834H29.1403C29.2256 8.58192 29.2641 9.08305 29.2641 9.60003C29.2641 14.7064 25.1071 18.8634 20.0007 18.8634C14.8943 18.8634 10.7373 14.7064 10.7373 9.60003C10.7373 9.08305 10.7758 8.58192 10.8603 8.08834H9.89657C8.4543 7.98796 7.22789 8.21966 6.11694 8.77513V32.3615C7.606 31.7064 9.13279 31.4438 10.6369 31.4438C13.8762 31.4438 16.9773 32.6627 19.2302 33.8506ZM30.8075 10.3789C31.0928 10.3789 31.3781 10.4023 31.6868 10.4483C32.1109 10.5178 32.3962 10.9117 32.3343 11.3276C32.3058 11.5099 32.2133 11.6762 32.0733 11.7965C31.9333 11.9168 31.7551 11.9834 31.5705 11.9842C31.5328 11.9842 31.4935 11.9842 31.4551 11.9759C31.2409 11.9396 31.024 11.9214 30.8068 11.9215C30.3826 11.9215 30.0354 11.5744 30.0354 11.1502C30.0354 10.7261 30.3834 10.3789 30.8075 10.3789ZM29.8581 14.6061C30.4714 14.5318 31.0922 14.5447 31.7019 14.6446C32.126 14.7215 32.4037 15.1231 32.3268 15.5397C32.2976 15.7189 32.2054 15.8819 32.0668 15.9993C31.9281 16.1166 31.7522 16.1806 31.5705 16.1797C31.5266 16.1789 31.4829 16.1738 31.44 16.1646C31.2021 16.1301 30.9625 16.1095 30.7222 16.1027C30.5139 16.0951 30.2905 16.1027 30.0279 16.1329C29.9271 16.1446 29.825 16.1364 29.7274 16.1087C29.6298 16.0809 29.5387 16.0342 29.4592 15.9712C29.3797 15.9082 29.3134 15.8301 29.2641 15.7414C29.2149 15.6527 29.1836 15.5552 29.172 15.4544C29.1614 15.3536 29.1707 15.2516 29.1994 15.1544C29.2282 15.0572 29.2758 14.9666 29.3396 14.8879C29.4034 14.8091 29.4821 14.7436 29.5712 14.6953C29.6603 14.6469 29.7573 14.6166 29.8581 14.6061ZM22.7169 21.3321C24.8762 20.1676 28.0618 18.6249 30.7773 18.7404C31.1011 18.7555 31.4173 18.7864 31.7177 18.8483C32.1343 18.9253 32.4045 19.3344 32.3275 19.751C32.3092 19.8507 32.2712 19.9458 32.2156 20.0306C32.1601 20.1155 32.0882 20.1884 32.0041 20.2451C31.9201 20.3019 31.8256 20.3412 31.7261 20.361C31.6266 20.3807 31.5242 20.3804 31.4249 20.36C31.1905 20.3179 30.9534 20.2922 30.7154 20.2831C28.1079 20.1827 24.6068 22.0717 23.4498 22.6898C23.2705 22.7865 23.0603 22.8082 22.8651 22.7502C22.6699 22.6922 22.5056 22.5593 22.4083 22.3804C22.3116 22.2001 22.2898 21.9889 22.3475 21.7926C22.4053 21.5963 22.538 21.4314 22.7169 21.3321ZM22.732 25.3585C24.892 24.24 28.0694 22.7585 30.7924 22.9208C31.1169 22.9434 31.4324 22.9827 31.7335 23.0446C32.1502 23.1366 32.4128 23.5457 32.3275 23.9623C32.2347 24.3789 31.8264 24.6491 31.4098 24.5563C31.1758 24.5087 30.9387 24.4777 30.7003 24.4634C28.1003 24.3012 24.5909 26.1298 23.4415 26.7314C23.0083 26.9336 22.5826 26.7434 22.4 26.3993C22.3073 26.2169 22.2901 26.0053 22.3523 25.8104C22.4144 25.6155 22.5509 25.4536 22.732 25.3585ZM22.7396 29.3849C24.8996 28.3049 28.0928 26.8929 30.8075 27.1012C31.132 27.1321 31.4483 27.1789 31.7486 27.2483C32.1577 27.348 32.4203 27.757 32.32 28.1736C32.2271 28.5902 31.8105 28.8453 31.3939 28.7517C31.161 28.6953 30.9237 28.6592 30.6845 28.6438C28.0852 28.4355 24.5834 30.1864 23.4339 30.7646C23.3429 30.8108 23.2436 30.8384 23.1418 30.846C23.04 30.8536 22.9377 30.8409 22.8409 30.8087C22.744 30.7765 22.6545 30.7253 22.5775 30.6583C22.5006 30.5913 22.4376 30.5097 22.3924 30.4181C22.2075 30.0408 22.3622 29.5774 22.7396 29.3842V29.3849ZM17.2792 21.3321C17.6566 21.5329 17.7954 22.0031 17.5954 22.3812C17.4965 22.5604 17.3308 22.6934 17.1344 22.7512C16.9379 22.8089 16.7266 22.7869 16.5464 22.6898C15.3969 22.0725 11.88 20.1827 9.28826 20.2823C9.04072 20.2906 8.80223 20.3215 8.57883 20.36C8.47953 20.3799 8.37728 20.3798 8.278 20.3598C8.17873 20.3399 8.08439 20.3005 8.00045 20.2438C7.91651 20.1872 7.84463 20.1145 7.78897 20.0299C7.73332 19.9453 7.69498 19.8505 7.67619 19.751C7.65637 19.6517 7.65644 19.5494 7.67639 19.4502C7.69634 19.3509 7.73577 19.2565 7.79241 19.1726C7.84905 19.0887 7.92177 19.0168 8.00636 18.9611C8.09095 18.9055 8.18574 18.8671 8.28525 18.8483C8.59572 18.7882 8.91036 18.7522 9.22638 18.7404C11.9335 18.6249 15.1192 20.1668 17.2792 21.3321ZM17.603 26.3993C17.508 26.5806 17.3454 26.7171 17.1505 26.7793C16.9555 26.8415 16.7438 26.8242 16.5615 26.7314C15.4045 26.1298 11.8951 24.3012 9.30336 24.4634C9.05657 24.4785 8.81732 24.5095 8.59392 24.5563C8.39362 24.5974 8.18518 24.5582 8.01351 24.4471C7.84185 24.336 7.72071 24.1619 7.67619 23.9623C7.63504 23.7621 7.67415 23.5538 7.7851 23.3821C7.89604 23.2105 8.06996 23.0892 8.2694 23.0446C8.58009 22.9829 8.89446 22.9416 9.21053 22.9208C11.9185 22.7668 15.1117 24.24 17.2709 25.3585C17.649 25.5585 17.7954 26.0212 17.603 26.3993ZM8.31543 10.4483C8.60632 10.4028 8.90026 10.3796 9.19468 10.3789C9.61883 10.3789 9.966 10.7261 9.966 11.1502C9.966 11.5744 9.61883 11.9215 9.19468 11.9215C8.98638 11.9215 8.77808 11.9366 8.54638 11.9759C8.50864 11.9834 8.4694 11.9834 8.43091 11.9834C8.05355 11.9834 7.72902 11.7132 7.66713 11.3276C7.63784 11.1252 7.68946 10.9195 7.8108 10.7549C7.93215 10.5903 8.11345 10.4802 8.31543 10.4483ZM8.30034 14.6446C8.90978 14.5448 9.53028 14.5318 10.1434 14.6061C10.5675 14.6521 10.8679 15.0302 10.8226 15.4544C10.7758 15.8785 10.3902 16.1872 9.97355 16.1336C9.74296 16.1091 9.51107 16.0987 9.27921 16.1027C9.0392 16.1085 8.79977 16.129 8.56223 16.1638C8.51619 16.1714 8.47694 16.1789 8.43091 16.1789C8.06109 16.1789 7.73657 15.917 7.66713 15.5397C7.63377 15.3373 7.68142 15.1299 7.79978 14.9624C7.91814 14.7949 8.09769 14.6807 8.29959 14.6446H8.30034ZM9.3177 28.6446C9.07856 28.6597 8.84119 28.6955 8.60826 28.7517C8.40793 28.7984 8.19726 28.7638 8.02241 28.6554C7.84756 28.547 7.72279 28.3738 7.67543 28.1736C7.63039 27.9743 7.66585 27.7653 7.77412 27.592C7.88238 27.4188 8.05468 27.2952 8.25355 27.2483C8.5637 27.1788 8.87809 27.1296 9.19468 27.1012C11.9094 26.8929 15.0951 28.3049 17.2626 29.3849C17.64 29.5774 17.7947 30.04 17.6022 30.4181C17.5581 30.5097 17.496 30.5914 17.4198 30.6586C17.3436 30.7258 17.2547 30.7771 17.1584 30.8095C17.062 30.8418 16.9602 30.8546 16.8589 30.847C16.7575 30.8394 16.6587 30.8116 16.5683 30.7653C15.4188 30.1864 11.9252 28.4438 9.3177 28.6446Z" fill="url(#paint0_linear_74_20)"/>
<path d="M36.1978 12.1759H35.4265V33.6182C35.4265 34.2136 34.7789 34.5857 34.2635 34.2823C29.3653 31.3902 23.471 34.0076 20.3918 35.825C20.273 35.8947 20.1378 35.9315 20.0001 35.9315C19.8623 35.9315 19.7271 35.8947 19.6084 35.825C16.5299 34.0076 10.6348 31.3918 5.73667 34.2823C5.6195 34.3511 5.48626 34.3878 5.35039 34.3886C5.21452 34.3894 5.08084 34.3544 4.96285 34.287C4.84486 34.2196 4.74675 34.1223 4.67841 34.0049C4.61007 33.8874 4.57393 33.754 4.57365 33.6182V12.1767H3.80233C3.37742 12.1767 3.03101 12.5223 3.03101 12.948V35.1623C3.03101 35.5872 3.37742 35.9336 3.80233 35.9336H15.271C16.7231 35.9336 18.0665 36.5487 18.8635 37.5804C19.4121 38.2906 20.588 38.2899 21.1359 37.5804C21.9336 36.5487 23.277 35.9336 24.7284 35.9336H36.1978C36.6227 35.9336 36.9691 35.5865 36.9691 35.1623V12.948C36.9691 12.5223 36.6227 12.1759 36.1978 12.1759Z" fill="url(#paint1_linear_74_20)"/>
<path d="M20 17.3185C24.2642 17.3185 27.72 13.8627 27.72 9.59778C27.72 5.34194 24.2642 1.88684 19.9993 1.88684C15.7351 1.88684 12.28 5.34194 12.28 9.59854C12.28 13.8627 15.7351 17.3185 20 17.3185ZM17.1834 7.57967C16.9789 7.57967 16.7827 7.49841 16.638 7.35376C16.4934 7.20911 16.4121 7.01292 16.4121 6.80835C16.4121 6.60378 16.4934 6.4076 16.638 6.26294C16.7827 6.11829 16.9789 6.03703 17.1834 6.03703H18.1004V5.51477C18.1004 5.3102 18.1817 5.11401 18.3263 4.96936C18.471 4.82471 18.6672 4.74344 18.8717 4.74344C19.0763 4.74344 19.2725 4.82471 19.4171 4.96936C19.5618 5.11401 19.643 5.3102 19.643 5.51477V6.03778H20.234V5.51552C20.234 5.31095 20.3153 5.11476 20.4599 4.97011C20.6046 4.82546 20.8007 4.7442 21.0053 4.7442C21.2099 4.7442 21.4061 4.82546 21.5507 4.97011C21.6954 5.11476 21.7766 5.31095 21.7766 5.51552V6.07401C22.2818 6.15817 22.7408 6.41844 23.0723 6.8087C23.4039 7.19896 23.5865 7.69401 23.588 8.20609C23.588 8.74118 23.3857 9.22496 23.0634 9.60382C23.3857 9.98194 23.588 10.4657 23.588 11C23.5867 11.5123 23.4041 12.0075 23.0726 12.3979C22.741 12.7883 22.2819 13.0487 21.7766 13.1329V13.6914C21.7766 13.8959 21.6954 14.0921 21.5507 14.2368C21.4061 14.3814 21.2099 14.4627 21.0053 14.4627C20.8007 14.4627 20.6046 14.3814 20.4599 14.2368C20.3153 14.0921 20.234 13.8959 20.234 13.6914V13.1691H19.643V13.6914C19.643 13.8959 19.5618 14.0921 19.4171 14.2368C19.2725 14.3814 19.0763 14.4627 18.8717 14.4627C18.6672 14.4627 18.471 14.3814 18.3263 14.2368C18.1817 14.0921 18.1004 13.8959 18.1004 13.6914V13.1691H17.1834C16.9789 13.1691 16.7827 13.0878 16.638 12.9432C16.4934 12.7985 16.4121 12.6024 16.4121 12.3978C16.4121 12.1932 16.4934 11.997 16.638 11.8524C16.7827 11.7077 16.9789 11.6265 17.1834 11.6265H17.96V7.58043L17.1834 7.57967Z" fill="#8B97FF"/>
<path d="M21.8616 7.7627C21.9791 7.88017 22.0451 8.0395 22.0451 8.20564C22.0451 8.37177 21.9791 8.53111 21.8616 8.64858C21.7442 8.76606 21.5848 8.83205 21.4187 8.83205H19.5017V7.57922H21.4187C21.5848 7.57922 21.7442 7.64522 21.8616 7.7627Z" fill="#8B97FF"/>
<path d="M21.8616 10.5574C21.9791 10.6749 22.0451 10.8342 22.0451 11.0004C22.0451 11.1665 21.9791 11.3251 21.8616 11.4425C21.7442 11.56 21.5848 11.626 21.4187 11.626H19.5017V10.3739H21.4187C21.5848 10.3739 21.7442 10.4399 21.8616 10.5574Z" fill="#8B97FF"/>
<defs>
<linearGradient id="paint0_linear_74_20" x1="2.5" y1="23.5" x2="36.5" y2="23.5" gradientUnits="userSpaceOnUse">
<stop stop-color="#5465F7"/>
<stop offset="1" stop-color="#9333EA"/>
</linearGradient>
<linearGradient id="paint1_linear_74_20" x1="3" y1="25" x2="37" y2="25" gradientUnits="userSpaceOnUse">
<stop stop-color="#5465F7"/>
<stop offset="1" stop-color="#9333EA"/>
</linearGradient>
</defs>
</svg>
