<svg width="140" height="141" viewBox="0 0 140 141" fill="none" xmlns="http://www.w3.org/2000/svg">
<path d="M44.08 14.4047C45.9138 12.8622 47.8536 12.286 50.0297 12.3203C52.7519 12.3632 55.4765 12.2806 58.1979 12.3436C59.7639 12.3798 60.4335 11.8734 60.5302 10.1778C60.8592 4.41072 64.6259 0.812672 70.0568 0.862822C75.3486 0.911687 79.0678 4.53533 79.361 10.1436C79.4481 11.8088 80.0482 12.3828 81.6481 12.347C84.5509 12.2819 87.458 12.273 90.3605 12.3489C95.1736 12.4749 97.9293 15.2586 97.9891 20.0216C98.0333 23.5413 97.9978 27.0621 97.9978 30.654C99.4193 30.8643 100.484 30.9755 101.53 31.1844C106.62 32.202 109.935 36.0736 109.81 40.8176C109.688 45.4656 106.338 49.5412 101.343 49.9616C98.0375 50.2399 97.7398 51.7225 97.9542 54.2824C98.09 55.9045 97.9825 57.5474 97.9785 59.1809C97.9605 66.5235 95.7144 68.7898 88.4453 68.7913C76.1014 68.7938 63.7576 68.7926 51.4137 68.7923C50.6876 68.7923 49.9606 68.8087 49.2356 68.7788C44.8074 68.596 42.0215 65.7723 41.9251 61.3319C41.8522 57.9769 41.8347 54.6208 41.7719 51.2656C41.7672 51.0124 41.5964 50.7623 41.5084 50.5257C33.5131 48.9777 29.8425 45.6801 30.077 40.2775C30.3149 34.7935 34.0876 31.581 41.5197 30.7051C42.2755 27.2888 41.8406 23.7555 41.8882 20.2601C41.918 18.0781 42.3204 16.1241 44.08 14.4047ZM94.0401 43.8106C95.5297 42.8903 96.7892 43.5807 98.0927 44.3203C100.288 45.5656 102.173 44.855 103.643 43.0739C104.947 41.494 104.986 39.6487 103.661 38.0733C102.184 36.3177 100.321 35.7317 98.0736 36.8159C94.2761 38.6476 92.8648 37.7211 92.8146 33.3775C92.7674 29.2924 92.7328 25.2047 92.8263 21.1213C92.8842 18.5905 91.909 17.478 89.2979 17.5462C84.9424 17.66 80.5811 17.6119 76.2232 17.557C72.7794 17.5136 71.8523 15.9192 73.4451 12.881C74.5889 10.6993 74.613 8.63365 72.6006 7.00449C70.9326 5.65419 68.9971 5.65437 67.3274 6.99491C65.3153 8.61033 65.3165 10.6791 66.4416 12.8691C68.0374 15.9752 67.16 17.5126 63.6976 17.5572C59.2489 17.6145 54.7979 17.6343 50.3501 17.5512C48.0043 17.5074 47.0531 18.5533 47.0756 20.8182C47.1181 25.0849 47.1368 29.353 47.0789 33.6194C47.023 37.7463 45.5576 38.6415 41.866 36.8467C39.7912 35.838 37.9523 36.1149 36.4563 37.8134C35.031 39.4314 34.8725 41.3026 36.22 43.0378C37.6629 44.896 39.5105 45.4136 41.7659 44.3685C45.6406 42.5729 47.0154 43.4632 47.0721 47.7928C47.1269 51.9685 47.131 56.1459 47.0832 60.3216C47.057 62.6062 48.018 63.5767 50.3563 63.5671C63.4317 63.5133 76.5077 63.5107 89.5831 63.5708C91.9723 63.5818 92.832 62.5181 92.8087 60.2811C92.7662 56.1959 92.7986 52.1099 92.8077 48.0243C92.8107 46.6592 92.8124 45.2883 94.0401 43.8106Z" fill="#5831C8"/>
<path d="M0.0880011 90.2442C1.3516 86.0638 4.19167 84.4163 8.15406 84.3889C10.8776 84.3701 13.6016 84.3573 16.3249 84.383C17.7196 84.3961 18.4044 83.9552 18.571 82.3826C19.1997 76.4491 22.9343 72.791 28.0833 72.8406C33.4757 72.8925 37.102 76.6269 37.6254 82.6668C37.6636 83.1071 37.7053 83.5471 37.782 84.3901C40.9054 84.3901 43.9667 84.3761 47.0278 84.3929C53.5304 84.4287 56.3257 87.1789 56.3874 93.6649C56.4271 97.8402 56.4482 102.018 56.359 106.192C56.282 109.789 54.709 110.703 51.5152 109.174C49.3456 108.135 47.2078 108.045 45.6113 110.071C44.3054 111.728 44.2933 113.659 45.7114 115.324C47.3793 117.284 49.3495 117.347 51.5707 116.125C54.3874 114.575 56.2261 115.521 56.3194 118.716C56.465 123.704 56.5269 128.709 56.2775 133.689C56.0516 138.203 53.1068 140.739 48.5732 140.748C34.864 140.773 21.1546 140.774 7.44542 140.742C2.95728 140.732 0.0137178 137.895 0.00644026 133.505C-0.0173394 119.163 0.0280655 104.82 0.0880011 90.2442ZM50.2569 103.185C51.4643 102.776 51.1357 101.712 51.1593 100.879C51.2285 98.4293 51.2399 95.9768 51.2033 93.5267C51.158 90.4837 50.3094 89.6078 47.3184 89.5762C43.1425 89.5321 38.9658 89.5794 34.7897 89.554C30.839 89.53 30.0344 88.2529 31.6898 84.7675C32.683 82.6761 32.6509 80.6742 30.7438 79.1116C29.0717 77.7416 27.1667 77.6559 25.4914 79.0317C23.551 80.6253 23.3126 82.62 24.5277 84.8761C26.1857 87.9543 25.2719 89.508 21.8032 89.55C17.3552 89.604 12.9061 89.5762 8.45743 89.5687C6.42369 89.5652 5.19203 90.2918 5.19752 92.5817C5.22954 105.926 5.22833 119.27 5.20268 132.614C5.19868 134.695 6.13839 135.555 8.18097 135.55C21.4361 135.522 34.6913 135.517 47.9464 135.538C50.08 135.542 51.1913 134.611 51.2035 132.467C51.2189 129.744 51.1729 127.02 51.217 124.297C51.2411 122.811 50.6395 122.284 49.1233 122.178C43.3095 121.769 39.2413 117.674 39.3722 112.546C39.5151 106.944 43.8053 103.127 50.2569 103.185Z" fill="#5831C8"/>
<path d="M139.91 131.259C140.645 137.623 136.813 141.012 130.612 140.857C117.729 140.535 104.833 140.768 91.9421 140.754C86.5723 140.749 83.6486 137.959 83.5466 132.631C83.4615 128.185 83.4582 123.734 83.5488 119.288C83.6253 115.533 85.216 114.591 88.561 116.268C90.7371 117.359 92.653 117.184 94.1474 115.263C95.4389 113.603 95.6252 111.679 94.187 110.005C92.6131 108.172 90.5974 108.099 88.4936 109.106C85.188 110.688 83.5842 109.734 83.529 106.019C83.4629 101.572 83.4243 97.1212 83.5409 92.6766C83.6806 87.353 86.614 84.5062 91.9417 84.3953C95.2785 84.3259 98.618 84.3824 101.692 84.3824C102.608 83.2465 102.247 82.2859 102.355 81.4181C102.964 76.5158 106.877 72.8758 111.695 72.8335C116.624 72.7902 120.932 76.4454 121.244 81.4412C121.398 83.92 122.309 84.5094 124.536 84.4177C127.343 84.3022 130.179 84.2531 132.969 84.527C137.579 84.9798 139.896 87.6963 139.903 92.3266C139.921 105.216 139.91 118.105 139.91 131.259ZM113.828 135.546C119.547 135.544 125.267 135.558 130.986 135.536C134.34 135.523 134.698 135.159 134.7 131.721C134.71 118.923 134.707 106.124 134.692 93.3256C134.688 90.1063 134.155 89.5932 130.833 89.5721C126.566 89.545 122.299 89.5963 118.033 89.547C114.698 89.5085 113.697 87.9063 115.261 85.0759C116.46 82.9084 116.601 80.8879 114.615 79.196C112.898 77.7329 110.917 77.5957 109.145 79.084C107.168 80.745 107.248 82.8215 108.34 84.9963C109.916 88.1384 109.065 89.5185 105.484 89.5538C101.127 89.5967 96.7687 89.5832 92.4113 89.5575C90.5762 89.5467 88.9409 90.0993 88.8277 92.0825C88.6233 95.6648 88.7699 99.267 88.7699 102.968C92.3361 103.081 95.528 103.485 97.8004 106.065C100.386 109 101.312 112.38 99.7365 116.144C98.1972 119.822 95.4144 121.971 91.4177 122.157C89.5554 122.244 88.5009 122.556 88.6487 124.723C88.7965 126.891 88.6679 129.078 88.6757 131.256C88.6894 135.077 89.1321 135.54 92.8571 135.546C99.6657 135.555 106.474 135.547 113.828 135.546Z" fill="#5831C8"/>
<path d="M71.2049 73.3328C72.8979 74.8832 72.5858 76.7944 72.618 78.56C72.695 82.7906 72.6429 87.0235 72.6429 91.291C74.1357 91.2822 74.5098 90.2819 75.2321 89.8079C76.4635 88.9997 77.6408 88.964 78.6759 90.0459C79.6144 91.027 79.7336 92.3161 78.852 93.2639C76.4445 95.8524 73.9554 98.3764 71.3529 100.767C70.1068 101.912 68.7752 101.168 67.7327 100.145C65.6596 98.1092 63.6171 96.0423 61.583 93.9679C60.4392 92.8015 59.9787 91.4432 61.1832 90.1086C62.4082 88.7513 63.7519 89.1595 65.0453 90.1819C65.5822 90.6064 65.9542 91.3537 67.2232 91.2328C67.2232 87.3106 67.2108 83.3582 67.2304 79.406C67.2366 78.1376 67.2154 76.8527 67.4046 75.6053C67.7141 73.5644 68.7934 72.4764 71.2049 73.3328Z" fill="#5831C8"/>
<path d="M72.7973 40.3124C71.9152 42.9106 71.0902 45.3015 70.2531 47.6882C69.6944 49.281 68.8038 50.5895 66.8889 49.8815C65.1683 49.2454 64.7701 47.8465 65.3576 46.1036C66.7432 41.9937 68.0548 37.8587 69.4489 33.7517C70.0043 32.1154 70.9274 30.6007 72.9599 31.2303C75.1546 31.9102 74.986 33.6965 74.3955 35.4778C73.8839 37.0209 73.3649 38.5616 72.7973 40.3124Z" fill="#5831C8"/>
<path d="M80.578 47.5025C76.9222 44.2477 81.0706 42.8701 82.0111 40.6499C81.8175 39.4295 80.6217 38.8764 79.9651 37.935C79.1241 36.7292 78.538 35.4825 79.7829 34.2752C80.933 33.1598 82.333 33.2471 83.4673 34.275C85.0774 35.7341 86.5527 37.3433 88.067 38.9065C88.6122 39.4694 88.7086 40.2008 88.6165 40.9436C88.3647 42.9737 83.0095 47.485 80.578 47.5025Z" fill="#5831C8"/>
<path d="M58.1174 47.6345C55.1316 46.4503 53.0101 44.2221 51.7082 41.8108C49.949 38.5528 53.8059 37.373 55.302 35.3555C56.3068 34.0006 57.7138 32.9162 59.4965 33.8591C61.0632 34.6878 61.2041 36.1279 60.2077 37.55C59.492 38.5715 58.6249 39.4868 57.8535 40.4155C61.5774 46.1468 61.5963 46.4963 58.1174 47.6345Z" fill="#5831C8"/>
</svg>
