<svg width="22" height="3751" viewBox="0 0 22 3751" fill="none" xmlns="http://www.w3.org/2000/svg">
<path d="M11 0.333333C5.10896 0.333333 0.333333 5.10896 0.333333 11C0.333333 16.891 5.10896 21.6667 11 21.6667C16.891 21.6667 21.6667 16.891 21.6667 11C21.6667 5.10896 16.891 0.333333 11 0.333333ZM10.9998 3729.33C5.1088 3729.33 0.33317 3734.11 0.33317 3740C0.33317 3745.89 5.1088 3750.67 10.9998 3750.67C16.8909 3750.67 21.6665 3745.89 21.6665 3740C21.6665 3734.11 16.8909 3729.33 10.9998 3729.33ZM9 16.0121C9 17.1167 9.89543 18.0121 11 18.0121C12.1046 18.0121 13 17.1167 13 16.0121L9 16.0121ZM13 26.0363C13 24.9317 12.1046 24.0363 11 24.0363C9.89543 24.0363 9 24.9317 9 26.0363L13 26.0363ZM9 36.0605C9 37.1651 9.89543 38.0605 11 38.0605C12.1046 38.0605 13 37.1651 13 36.0605L9 36.0605ZM13 46.0847C13 44.9801 12.1046 44.0847 11 44.0847C9.89543 44.0847 9 44.9801 9 46.0847L13 46.0847ZM9 56.1089C9 57.2134 9.89543 58.1089 11 58.1089C12.1046 58.1089 13 57.2134 13 56.1089L9 56.1089ZM13 66.1331C13 65.0285 12.1046 64.1331 11 64.1331C9.89543 64.1331 9 65.0285 9 66.1331L13 66.1331ZM9 76.1573C9 77.2618 9.89543 78.1573 11 78.1573C12.1046 78.1573 13 77.2618 13 76.1573L9 76.1573ZM13 86.1814C13 85.0769 12.1046 84.1814 11 84.1814C9.89543 84.1814 9 85.0769 9 86.1814L13 86.1814ZM9 96.2056C9 97.3102 9.89543 98.2056 11 98.2056C12.1046 98.2056 13 97.3102 13 96.2056L9 96.2056ZM13 106.23C13 105.125 12.1046 104.23 11 104.23C9.89543 104.23 9 105.125 9 106.23L13 106.23ZM9 116.254C9 117.359 9.89543 118.254 11 118.254C12.1046 118.254 13 117.359 13 116.254L9 116.254ZM13 126.278C13 125.174 12.1046 124.278 11 124.278C9.89543 124.278 9 125.174 8.99999 126.278L13 126.278ZM8.99999 136.302C8.99999 137.407 9.89542 138.302 11 138.302C12.1046 138.302 13 137.407 13 136.302L8.99999 136.302ZM13 146.327C13 145.222 12.1046 144.327 11 144.327C9.89542 144.327 8.99999 145.222 8.99999 146.327L13 146.327ZM8.99999 156.351C8.99999 157.455 9.89542 158.351 11 158.351C12.1046 158.351 13 157.455 13 156.351L8.99999 156.351ZM13 166.375C13 165.27 12.1046 164.375 11 164.375C9.89542 164.375 8.99999 165.27 8.99999 166.375L13 166.375ZM8.99999 176.399C8.99999 177.504 9.89542 178.399 11 178.399C12.1046 178.399 13 177.504 13 176.399L8.99999 176.399ZM13 186.423C13 185.319 12.1046 184.423 11 184.423C9.89542 184.423 8.99999 185.319 8.99999 186.423L13 186.423ZM8.99999 196.448C8.99999 197.552 9.89542 198.448 11 198.448C12.1046 198.448 13 197.552 13 196.448L8.99999 196.448ZM13 206.472C13 205.367 12.1046 204.472 11 204.472C9.89542 204.472 8.99999 205.367 8.99999 206.472L13 206.472ZM8.99999 216.496C8.99999 217.601 9.89542 218.496 11 218.496C12.1046 218.496 13 217.601 13 216.496L8.99999 216.496ZM13 226.52C13 225.416 12.1046 224.52 11 224.52C9.89542 224.52 8.99999 225.416 8.99999 226.52L13 226.52ZM8.99999 236.544C8.99999 237.649 9.89542 238.544 11 238.544C12.1046 238.544 13 237.649 13 236.544L8.99999 236.544ZM13 246.569C13 245.464 12.1046 244.569 11 244.569C9.89542 244.569 8.99999 245.464 8.99999 246.569L13 246.569ZM8.99999 256.593C8.99999 257.697 9.89542 258.593 11 258.593C12.1046 258.593 13 257.697 13 256.593L8.99999 256.593ZM13 266.617C13 265.512 12.1046 264.617 11 264.617C9.89542 264.617 8.99999 265.512 8.99999 266.617L13 266.617ZM8.99999 276.641C8.99999 277.746 9.89542 278.641 11 278.641C12.1046 278.641 13 277.746 13 276.641L8.99999 276.641ZM13 286.665C13 285.561 12.1046 284.665 11 284.665C9.89542 284.665 8.99999 285.561 8.99999 286.665L13 286.665ZM8.99999 296.69C8.99999 297.794 9.89542 298.69 11 298.69C12.1046 298.69 13 297.794 13 296.69L8.99999 296.69ZM13 306.714C13 305.609 12.1046 304.714 11 304.714C9.89542 304.714 8.99999 305.609 8.99999 306.714L13 306.714ZM8.99999 316.738C8.99999 317.843 9.89542 318.738 11 318.738C12.1046 318.738 13 317.843 13 316.738L8.99999 316.738ZM13 326.762C13 325.658 12.1046 324.762 11 324.762C9.89542 324.762 8.99999 325.658 8.99999 326.762L13 326.762ZM8.99999 336.786C8.99999 337.891 9.89542 338.786 11 338.786C12.1046 338.786 13 337.891 13 336.786L8.99999 336.786ZM13 346.811C13 345.706 12.1046 344.811 11 344.811C9.89542 344.811 8.99999 345.706 8.99999 346.811L13 346.811ZM8.99998 356.835C8.99998 357.939 9.89542 358.835 11 358.835C12.1046 358.835 13 357.939 13 356.835L8.99998 356.835ZM13 366.859C13 365.754 12.1046 364.859 11 364.859C9.89541 364.859 8.99998 365.754 8.99998 366.859L13 366.859ZM8.99998 376.883C8.99998 377.988 9.89541 378.883 11 378.883C12.1046 378.883 13 377.988 13 376.883L8.99998 376.883ZM13 386.907C13 385.803 12.1046 384.907 11 384.907C9.89541 384.907 8.99998 385.803 8.99998 386.907L13 386.907ZM8.99998 396.932C8.99998 398.036 9.89541 398.932 11 398.932C12.1046 398.932 13 398.036 13 396.932L8.99998 396.932ZM13 406.956C13 405.851 12.1046 404.956 11 404.956C9.89541 404.956 8.99998 405.851 8.99998 406.956L13 406.956ZM8.99998 416.98C8.99998 418.085 9.89541 418.98 11 418.98C12.1046 418.98 13 418.085 13 416.98L8.99998 416.98ZM13 427.004C13 425.9 12.1046 425.004 11 425.004C9.89541 425.004 8.99998 425.9 8.99998 427.004L13 427.004ZM8.99998 437.028C8.99998 438.133 9.89541 439.028 11 439.028C12.1046 439.028 13 438.133 13 437.028L8.99998 437.028ZM13 447.053C13 445.948 12.1046 445.053 11 445.053C9.89541 445.053 8.99998 445.948 8.99998 447.053L13 447.053ZM8.99998 457.077C8.99998 458.181 9.89541 459.077 11 459.077C12.1045 459.077 13 458.181 13 457.077L8.99998 457.077ZM13 467.101C13 465.996 12.1045 465.101 11 465.101C9.89541 465.101 8.99998 465.996 8.99998 467.101L13 467.101ZM8.99998 477.125C8.99998 478.23 9.89541 479.125 11 479.125C12.1045 479.125 13 478.23 13 477.125L8.99998 477.125ZM13 487.149C13 486.045 12.1045 485.149 11 485.149C9.89541 485.149 8.99998 486.045 8.99998 487.149L13 487.149ZM8.99998 497.174C8.99998 498.278 9.89541 499.174 11 499.174C12.1045 499.174 13 498.278 13 497.174L8.99998 497.174ZM13 507.198C13 506.093 12.1045 505.198 11 505.198C9.89541 505.198 8.99998 506.093 8.99998 507.198L13 507.198ZM8.99998 517.222C8.99998 518.327 9.89541 519.222 11 519.222C12.1045 519.222 13 518.327 13 517.222L8.99998 517.222ZM13 527.246C13 526.142 12.1045 525.246 11 525.246C9.89541 525.246 8.99998 526.142 8.99998 527.246L13 527.246ZM8.99998 537.27C8.99998 538.375 9.89541 539.27 11 539.27C12.1045 539.27 13 538.375 13 537.27L8.99998 537.27ZM13 547.295C13 546.19 12.1045 545.295 11 545.295C9.89541 545.295 8.99998 546.19 8.99998 547.295L13 547.295ZM8.99998 557.319C8.99998 558.423 9.89541 559.319 11 559.319C12.1045 559.319 13 558.423 13 557.319L8.99998 557.319ZM13 567.343C13 566.238 12.1045 565.343 11 565.343C9.89541 565.343 8.99998 566.238 8.99998 567.343L13 567.343ZM8.99998 577.367C8.99998 578.472 9.89541 579.367 11 579.367C12.1045 579.367 13 578.472 13 577.367L8.99998 577.367ZM13 587.391C13 586.287 12.1045 585.391 11 585.391C9.89541 585.391 8.99997 586.287 8.99997 587.391L13 587.391ZM8.99997 597.415C8.99997 598.52 9.8954 599.415 11 599.415C12.1045 599.415 13 598.52 13 597.415L8.99997 597.415ZM13 607.44C13 606.335 12.1045 605.44 11 605.44C9.8954 605.44 8.99997 606.335 8.99997 607.44L13 607.44ZM8.99997 617.464C8.99997 618.568 9.8954 619.464 11 619.464C12.1045 619.464 13 618.568 13 617.464L8.99997 617.464ZM13 627.488C13 626.383 12.1045 625.488 11 625.488C9.8954 625.488 8.99997 626.383 8.99997 627.488L13 627.488ZM8.99997 637.512C8.99997 638.617 9.8954 639.512 11 639.512C12.1045 639.512 13 638.617 13 637.512L8.99997 637.512ZM13 647.536C13 646.432 12.1045 645.536 11 645.536C9.8954 645.536 8.99997 646.432 8.99997 647.536L13 647.536ZM8.99997 657.56C8.99997 658.665 9.8954 659.56 11 659.56C12.1045 659.56 13 658.665 13 657.56L8.99997 657.56ZM13 667.585C13 666.48 12.1045 665.585 11 665.585C9.8954 665.585 8.99997 666.48 8.99997 667.585L13 667.585ZM8.99997 677.609C8.99997 678.713 9.8954 679.609 11 679.609C12.1045 679.609 13 678.713 13 677.609L8.99997 677.609ZM13 687.633C13 686.528 12.1045 685.633 11 685.633C9.8954 685.633 8.99997 686.528 8.99997 687.633L13 687.633ZM8.99997 697.657C8.99997 698.762 9.8954 699.657 11 699.657C12.1045 699.657 13 698.762 13 697.657L8.99997 697.657ZM13 707.681C13 706.577 12.1045 705.681 11 705.681C9.8954 705.681 8.99997 706.577 8.99997 707.681L13 707.681ZM8.99997 717.705C8.99997 718.81 9.8954 719.705 11 719.705C12.1045 719.705 13 718.81 13 717.705L8.99997 717.705ZM13 727.73C13 726.625 12.1045 725.73 11 725.73C9.8954 725.73 8.99997 726.625 8.99997 727.73L13 727.73ZM8.99997 737.754C8.99997 738.858 9.8954 739.754 11 739.754C12.1045 739.754 13 738.858 13 737.754L8.99997 737.754ZM13 747.778C13 746.673 12.1045 745.778 11 745.778C9.8954 745.778 8.99997 746.673 8.99997 747.778L13 747.778ZM8.99997 757.802C8.99997 758.907 9.8954 759.802 11 759.802C12.1045 759.802 13 758.907 13 757.802L8.99997 757.802ZM13 767.826C13 766.722 12.1045 765.826 11 765.826C9.8954 765.826 8.99997 766.722 8.99997 767.826L13 767.826ZM8.99997 777.85C8.99997 778.955 9.8954 779.85 11 779.85C12.1045 779.85 13 778.955 13 777.85L8.99997 777.85ZM13 787.875C13 786.77 12.1045 785.875 11 785.875C9.8954 785.875 8.99997 786.77 8.99997 787.875L13 787.875ZM8.99997 797.899C8.99997 799.003 9.8954 799.899 11 799.899C12.1045 799.899 13 799.003 13 797.899L8.99997 797.899ZM13 807.923C13 806.818 12.1045 805.923 11 805.923C9.8954 805.923 8.99997 806.818 8.99997 807.923L13 807.923ZM8.99996 817.947C8.99996 819.052 9.8954 819.947 11 819.947C12.1045 819.947 13 819.052 13 817.947L8.99996 817.947ZM13 827.971C13 826.867 12.1045 825.971 11 825.971C9.89539 825.971 8.99996 826.867 8.99996 827.971L13 827.971ZM8.99996 837.995C8.99996 839.1 9.89539 839.995 11 839.995C12.1045 839.995 13 839.1 13 837.995L8.99996 837.995ZM13 848.02C13 846.915 12.1045 846.02 11 846.02C9.89539 846.02 8.99996 846.915 8.99996 848.02L13 848.02ZM8.99996 858.044C8.99996 859.148 9.89539 860.044 11 860.044C12.1045 860.044 13 859.148 13 858.044L8.99996 858.044ZM13 868.068C13 866.963 12.1045 866.068 11 866.068C9.89539 866.068 8.99996 866.963 8.99996 868.068L13 868.068ZM8.99996 878.092C8.99996 879.197 9.89539 880.092 11 880.092C12.1045 880.092 13 879.197 13 878.092L8.99996 878.092ZM13 888.116C13 887.012 12.1045 886.116 11 886.116C9.89539 886.116 8.99996 887.012 8.99996 888.116L13 888.116ZM8.99996 898.141C8.99996 899.245 9.89539 900.141 11 900.141C12.1045 900.141 13 899.245 13 898.141L8.99996 898.141ZM13 908.165C13 907.06 12.1045 906.165 11 906.165C9.89539 906.165 8.99996 907.06 8.99996 908.165L13 908.165ZM8.99996 918.189C8.99996 919.293 9.89539 920.189 11 920.189C12.1045 920.189 13 919.293 13 918.189L8.99996 918.189ZM13 928.213C13 927.108 12.1045 926.213 11 926.213C9.89539 926.213 8.99996 927.108 8.99996 928.213L13 928.213ZM8.99996 938.237C8.99996 939.342 9.89539 940.237 11 940.237C12.1045 940.237 13 939.342 13 938.237L8.99996 938.237ZM13 948.261C13 947.157 12.1045 946.261 11 946.261C9.89539 946.261 8.99996 947.157 8.99996 948.261L13 948.261ZM8.99996 958.285C8.99996 959.39 9.89539 960.285 11 960.285C12.1045 960.285 13 959.39 13 958.285L8.99996 958.285ZM13 968.31C13 967.205 12.1045 966.31 11 966.31C9.89539 966.31 8.99996 967.205 8.99996 968.31L13 968.31ZM8.99996 978.334C8.99996 979.438 9.89539 980.334 11 980.334C12.1045 980.334 13 979.438 13 978.334L8.99996 978.334ZM13 988.358C13 987.253 12.1045 986.358 11 986.358C9.89539 986.358 8.99996 987.253 8.99996 988.358L13 988.358ZM8.99996 998.382C8.99996 999.487 9.89539 1000.38 11 1000.38C12.1045 1000.38 13 999.487 13 998.382L8.99996 998.382ZM13 1008.41C13 1007.3 12.1045 1006.41 11 1006.41C9.89539 1006.41 8.99996 1007.3 8.99996 1008.41L13 1008.41ZM8.99996 1018.43C8.99996 1019.54 9.89539 1020.43 11 1020.43C12.1045 1020.43 13 1019.54 13 1018.43L8.99996 1018.43ZM13 1028.45C13 1027.35 12.1045 1026.45 11 1026.45C9.89539 1026.45 8.99996 1027.35 8.99996 1028.45L13 1028.45ZM8.99996 1038.48C8.99996 1039.58 9.89539 1040.48 11 1040.48C12.1045 1040.48 13 1039.58 13 1038.48L8.99996 1038.48ZM13 1048.5C13 1047.4 12.1045 1046.5 11 1046.5C9.89539 1046.5 8.99995 1047.4 8.99995 1048.5L13 1048.5ZM8.99995 1058.53C8.99995 1059.63 9.89538 1060.53 11 1060.53C12.1045 1060.53 13 1059.63 13 1058.53L8.99995 1058.53ZM13 1068.55C13 1067.45 12.1045 1066.55 11 1066.55C9.89538 1066.55 8.99995 1067.45 8.99995 1068.55L13 1068.55ZM8.99995 1078.58C8.99995 1079.68 9.89538 1080.58 11 1080.58C12.1045 1080.58 13 1079.68 13 1078.58L8.99995 1078.58ZM13 1088.6C13 1087.5 12.1045 1086.6 11 1086.6C9.89538 1086.6 8.99995 1087.5 8.99995 1088.6L13 1088.6ZM8.99995 1098.62C8.99995 1099.73 9.89538 1100.62 11 1100.62C12.1045 1100.62 13 1099.73 13 1098.62L8.99995 1098.62ZM13 1108.65C13 1107.54 12.1045 1106.65 11 1106.65C9.89538 1106.65 8.99995 1107.54 8.99995 1108.65L13 1108.65ZM8.99995 1118.67C8.99995 1119.78 9.89538 1120.67 11 1120.67C12.1045 1120.67 13 1119.78 13 1118.67L8.99995 1118.67ZM13 1128.7C13 1127.59 12.1045 1126.7 11 1126.7C9.89538 1126.7 8.99995 1127.59 8.99995 1128.7L13 1128.7ZM8.99995 1138.72C8.99995 1139.83 9.89538 1140.72 11 1140.72C12.1045 1140.72 13 1139.83 13 1138.72L8.99995 1138.72ZM13 1148.74C13 1147.64 12.1045 1146.74 11 1146.74C9.89538 1146.74 8.99995 1147.64 8.99995 1148.74L13 1148.74ZM8.99995 1158.77C8.99995 1159.87 9.89538 1160.77 10.9999 1160.77C12.1045 1160.77 12.9999 1159.87 12.9999 1158.77L8.99995 1158.77ZM12.9999 1168.79C12.9999 1167.69 12.1045 1166.79 10.9999 1166.79C9.89538 1166.79 8.99995 1167.69 8.99995 1168.79L12.9999 1168.79ZM8.99995 1178.82C8.99995 1179.92 9.89538 1180.82 10.9999 1180.82C12.1045 1180.82 12.9999 1179.92 12.9999 1178.82L8.99995 1178.82ZM12.9999 1188.84C12.9999 1187.74 12.1045 1186.84 10.9999 1186.84C9.89538 1186.84 8.99995 1187.74 8.99995 1188.84L12.9999 1188.84ZM8.99995 1198.87C8.99995 1199.97 9.89538 1200.87 10.9999 1200.87C12.1045 1200.87 12.9999 1199.97 12.9999 1198.87L8.99995 1198.87ZM12.9999 1208.89C12.9999 1207.79 12.1045 1206.89 10.9999 1206.89C9.89538 1206.89 8.99995 1207.79 8.99995 1208.89L12.9999 1208.89ZM8.99995 1218.91C8.99995 1220.02 9.89538 1220.91 10.9999 1220.91C12.1045 1220.91 12.9999 1220.02 12.9999 1218.91L8.99995 1218.91ZM12.9999 1228.94C12.9999 1227.83 12.1045 1226.94 10.9999 1226.94C9.89538 1226.94 8.99995 1227.83 8.99995 1228.94L12.9999 1228.94ZM8.99995 1238.96C8.99995 1240.07 9.89538 1240.96 10.9999 1240.96C12.1045 1240.96 12.9999 1240.07 12.9999 1238.96L8.99995 1238.96ZM12.9999 1248.99C12.9999 1247.88 12.1045 1246.99 10.9999 1246.99C9.89538 1246.99 8.99995 1247.88 8.99995 1248.99L12.9999 1248.99ZM8.99995 1259.01C8.99995 1260.12 9.89538 1261.01 10.9999 1261.01C12.1045 1261.01 12.9999 1260.12 12.9999 1259.01L8.99995 1259.01ZM12.9999 1269.03C12.9999 1267.93 12.1045 1267.03 10.9999 1267.03C9.89538 1267.03 8.99995 1267.93 8.99995 1269.03L12.9999 1269.03ZM8.99994 1279.06C8.99994 1280.16 9.89537 1281.06 10.9999 1281.06C12.1045 1281.06 12.9999 1280.16 12.9999 1279.06L8.99994 1279.06ZM12.9999 1289.08C12.9999 1287.98 12.1045 1287.08 10.9999 1287.08C9.89537 1287.08 8.99994 1287.98 8.99994 1289.08L12.9999 1289.08ZM8.99994 1299.11C8.99994 1300.21 9.89537 1301.11 10.9999 1301.11C12.1045 1301.11 12.9999 1300.21 12.9999 1299.11L8.99994 1299.11ZM12.9999 1309.13C12.9999 1308.03 12.1045 1307.13 10.9999 1307.13C9.89537 1307.13 8.99994 1308.03 8.99994 1309.13L12.9999 1309.13ZM8.99994 1319.16C8.99994 1320.26 9.89537 1321.16 10.9999 1321.16C12.1045 1321.16 12.9999 1320.26 12.9999 1319.16L8.99994 1319.16ZM12.9999 1329.18C12.9999 1328.08 12.1045 1327.18 10.9999 1327.18C9.89537 1327.18 8.99994 1328.08 8.99994 1329.18L12.9999 1329.18ZM8.99994 1339.2C8.99994 1340.31 9.89537 1341.2 10.9999 1341.2C12.1045 1341.2 12.9999 1340.31 12.9999 1339.2L8.99994 1339.2ZM12.9999 1349.23C12.9999 1348.12 12.1045 1347.23 10.9999 1347.23C9.89537 1347.23 8.99994 1348.12 8.99994 1349.23L12.9999 1349.23ZM8.99994 1359.25C8.99994 1360.36 9.89537 1361.25 10.9999 1361.25C12.1045 1361.25 12.9999 1360.36 12.9999 1359.25L8.99994 1359.25ZM12.9999 1369.28C12.9999 1368.17 12.1045 1367.28 10.9999 1367.28C9.89537 1367.28 8.99994 1368.17 8.99994 1369.28L12.9999 1369.28ZM8.99994 1379.3C8.99994 1380.41 9.89537 1381.3 10.9999 1381.3C12.1045 1381.3 12.9999 1380.41 12.9999 1379.3L8.99994 1379.3ZM12.9999 1389.32C12.9999 1388.22 12.1045 1387.32 10.9999 1387.32C9.89537 1387.32 8.99994 1388.22 8.99994 1389.32L12.9999 1389.32ZM8.99994 1399.35C8.99994 1400.45 9.89537 1401.35 10.9999 1401.35C12.1045 1401.35 12.9999 1400.45 12.9999 1399.35L8.99994 1399.35ZM12.9999 1409.37C12.9999 1408.27 12.1045 1407.37 10.9999 1407.37C9.89537 1407.37 8.99994 1408.27 8.99994 1409.37L12.9999 1409.37ZM8.99994 1419.4C8.99994 1420.5 9.89537 1421.4 10.9999 1421.4C12.1045 1421.4 12.9999 1420.5 12.9999 1419.4L8.99994 1419.4ZM12.9999 1429.42C12.9999 1428.32 12.1045 1427.42 10.9999 1427.42C9.89537 1427.42 8.99994 1428.32 8.99994 1429.42L12.9999 1429.42ZM8.99994 1439.45C8.99994 1440.55 9.89537 1441.45 10.9999 1441.45C12.1045 1441.45 12.9999 1440.55 12.9999 1439.45L8.99994 1439.45ZM12.9999 1449.47C12.9999 1448.37 12.1045 1447.47 10.9999 1447.47C9.89537 1447.47 8.99994 1448.37 8.99994 1449.47L12.9999 1449.47ZM8.99994 1459.49C8.99994 1460.6 9.89537 1461.49 10.9999 1461.49C12.1045 1461.49 12.9999 1460.6 12.9999 1459.49L8.99994 1459.49ZM12.9999 1469.52C12.9999 1468.41 12.1045 1467.52 10.9999 1467.52C9.89537 1467.52 8.99994 1468.41 8.99994 1469.52L12.9999 1469.52ZM8.99994 1479.54C8.99994 1480.65 9.89537 1481.54 10.9999 1481.54C12.1045 1481.54 12.9999 1480.65 12.9999 1479.54L8.99994 1479.54ZM12.9999 1489.57C12.9999 1488.46 12.1045 1487.57 10.9999 1487.57C9.89537 1487.57 8.99994 1488.46 8.99994 1489.57L12.9999 1489.57ZM8.99993 1499.59C8.99993 1500.7 9.89537 1501.59 10.9999 1501.59C12.1045 1501.59 12.9999 1500.7 12.9999 1499.59L8.99993 1499.59ZM12.9999 1509.61C12.9999 1508.51 12.1045 1507.61 10.9999 1507.61C9.89537 1507.61 8.99993 1508.51 8.99993 1509.61L12.9999 1509.61ZM8.99993 1519.64C8.99993 1520.74 9.89536 1521.64 10.9999 1521.64C12.1045 1521.64 12.9999 1520.74 12.9999 1519.64L8.99993 1519.64ZM12.9999 1529.66C12.9999 1528.56 12.1045 1527.66 10.9999 1527.66C9.89536 1527.66 8.99993 1528.56 8.99993 1529.66L12.9999 1529.66ZM8.99993 1539.69C8.99993 1540.79 9.89536 1541.69 10.9999 1541.69C12.1045 1541.69 12.9999 1540.79 12.9999 1539.69L8.99993 1539.69ZM12.9999 1549.71C12.9999 1548.61 12.1045 1547.71 10.9999 1547.71C9.89536 1547.71 8.99993 1548.61 8.99993 1549.71L12.9999 1549.71ZM8.99993 1559.74C8.99993 1560.84 9.89536 1561.74 10.9999 1561.74C12.1045 1561.74 12.9999 1560.84 12.9999 1559.74L8.99993 1559.74ZM12.9999 1569.76C12.9999 1568.66 12.1045 1567.76 10.9999 1567.76C9.89536 1567.76 8.99993 1568.66 8.99993 1569.76L12.9999 1569.76ZM8.99993 1579.78C8.99993 1580.89 9.89536 1581.78 10.9999 1581.78C12.1045 1581.78 12.9999 1580.89 12.9999 1579.78L8.99993 1579.78ZM12.9999 1589.81C12.9999 1588.7 12.1045 1587.81 10.9999 1587.81C9.89536 1587.81 8.99993 1588.7 8.99993 1589.81L12.9999 1589.81ZM8.99993 1599.83C8.99993 1600.94 9.89536 1601.83 10.9999 1601.83C12.1045 1601.83 12.9999 1600.94 12.9999 1599.83L8.99993 1599.83ZM12.9999 1609.86C12.9999 1608.75 12.1045 1607.86 10.9999 1607.86C9.89536 1607.86 8.99993 1608.75 8.99993 1609.86L12.9999 1609.86ZM8.99993 1619.88C8.99993 1620.99 9.89536 1621.88 10.9999 1621.88C12.1045 1621.88 12.9999 1620.99 12.9999 1619.88L8.99993 1619.88ZM12.9999 1629.9C12.9999 1628.8 12.1045 1627.9 10.9999 1627.9C9.89536 1627.9 8.99993 1628.8 8.99993 1629.9L12.9999 1629.9ZM8.99993 1639.93C8.99993 1641.03 9.89536 1641.93 10.9999 1641.93C12.1045 1641.93 12.9999 1641.03 12.9999 1639.93L8.99993 1639.93ZM12.9999 1649.95C12.9999 1648.85 12.1045 1647.95 10.9999 1647.95C9.89536 1647.95 8.99993 1648.85 8.99993 1649.95L12.9999 1649.95ZM8.99993 1659.98C8.99993 1661.08 9.89536 1661.98 10.9999 1661.98C12.1045 1661.98 12.9999 1661.08 12.9999 1659.98L8.99993 1659.98ZM12.9999 1670C12.9999 1668.9 12.1045 1668 10.9999 1668C9.89536 1668 8.99993 1668.9 8.99993 1670L12.9999 1670ZM8.99993 1680.03C8.99993 1681.13 9.89536 1682.03 10.9999 1682.03C12.1045 1682.03 12.9999 1681.13 12.9999 1680.03L8.99993 1680.03ZM12.9999 1690.05C12.9999 1688.95 12.1045 1688.05 10.9999 1688.05C9.89536 1688.05 8.99993 1688.95 8.99993 1690.05L12.9999 1690.05ZM8.99993 1700.07C8.99993 1701.18 9.89536 1702.07 10.9999 1702.07C12.1045 1702.07 12.9999 1701.18 12.9999 1700.07L8.99993 1700.07ZM12.9999 1710.1C12.9999 1708.99 12.1045 1708.1 10.9999 1708.1C9.89536 1708.1 8.99993 1708.99 8.99993 1710.1L12.9999 1710.1ZM8.99993 1720.12C8.99993 1721.23 9.89536 1722.12 10.9999 1722.12C12.1045 1722.12 12.9999 1721.23 12.9999 1720.12L8.99993 1720.12ZM12.9999 1730.15C12.9999 1729.04 12.1045 1728.15 10.9999 1728.15C9.89536 1728.15 8.99992 1729.04 8.99992 1730.15L12.9999 1730.15ZM8.99992 1740.17C8.99992 1741.28 9.89535 1742.17 10.9999 1742.17C12.1045 1742.17 12.9999 1741.28 12.9999 1740.17L8.99992 1740.17ZM12.9999 1750.19C12.9999 1749.09 12.1045 1748.19 10.9999 1748.19C9.89535 1748.19 8.99992 1749.09 8.99992 1750.19L12.9999 1750.19ZM8.99992 1760.22C8.99992 1761.32 9.89535 1762.22 10.9999 1762.22C12.1045 1762.22 12.9999 1761.32 12.9999 1760.22L8.99992 1760.22ZM12.9999 1770.24C12.9999 1769.14 12.1045 1768.24 10.9999 1768.24C9.89535 1768.24 8.99992 1769.14 8.99992 1770.24L12.9999 1770.24ZM8.99992 1780.27C8.99992 1781.37 9.89535 1782.27 10.9999 1782.27C12.1045 1782.27 12.9999 1781.37 12.9999 1780.27L8.99992 1780.27ZM12.9999 1790.29C12.9999 1789.19 12.1045 1788.29 10.9999 1788.29C9.89535 1788.29 8.99992 1789.19 8.99992 1790.29L12.9999 1790.29ZM8.99992 1800.32C8.99992 1801.42 9.89535 1802.32 10.9999 1802.32C12.1045 1802.32 12.9999 1801.42 12.9999 1800.32L8.99992 1800.32ZM12.9999 1810.34C12.9999 1809.24 12.1045 1808.34 10.9999 1808.34C9.89535 1808.34 8.99992 1809.24 8.99992 1810.34L12.9999 1810.34ZM8.99992 1820.36C8.99992 1821.47 9.89535 1822.36 10.9999 1822.36C12.1045 1822.36 12.9999 1821.47 12.9999 1820.36L8.99992 1820.36ZM12.9999 1830.39C12.9999 1829.28 12.1045 1828.39 10.9999 1828.39C9.89535 1828.39 8.99992 1829.28 8.99992 1830.39L12.9999 1830.39ZM8.99992 1840.41C8.99992 1841.52 9.89535 1842.41 10.9999 1842.41C12.1045 1842.41 12.9999 1841.52 12.9999 1840.41L8.99992 1840.41ZM12.9999 1850.44C12.9999 1849.33 12.1045 1848.44 10.9999 1848.44C9.89535 1848.44 8.99992 1849.33 8.99992 1850.44L12.9999 1850.44ZM8.99992 1860.46C8.99992 1861.57 9.89535 1862.46 10.9999 1862.46C12.1045 1862.46 12.9999 1861.57 12.9999 1860.46L8.99992 1860.46ZM12.9999 1870.48C12.9999 1869.38 12.1045 1868.48 10.9999 1868.48C9.89535 1868.48 8.99992 1869.38 8.99992 1870.48L12.9999 1870.48ZM8.99992 1880.51C8.99992 1881.61 9.89535 1882.51 10.9999 1882.51C12.1045 1882.51 12.9999 1881.61 12.9999 1880.51L8.99992 1880.51ZM12.9999 1890.53C12.9999 1889.43 12.1045 1888.53 10.9999 1888.53C9.89535 1888.53 8.99992 1889.43 8.99992 1890.53L12.9999 1890.53ZM8.99992 1900.56C8.99992 1901.66 9.89535 1902.56 10.9999 1902.56C12.1045 1902.56 12.9999 1901.66 12.9999 1900.56L8.99992 1900.56ZM12.9999 1910.58C12.9999 1909.48 12.1045 1908.58 10.9999 1908.58C9.89535 1908.58 8.99992 1909.48 8.99992 1910.58L12.9999 1910.58ZM8.99992 1920.61C8.99992 1921.71 9.89535 1922.61 10.9999 1922.61C12.1045 1922.61 12.9999 1921.71 12.9999 1920.61L8.99992 1920.61ZM12.9999 1930.63C12.9999 1929.53 12.1045 1928.63 10.9999 1928.63C9.89535 1928.63 8.99992 1929.53 8.99992 1930.63L12.9999 1930.63ZM8.99992 1940.65C8.99992 1941.76 9.89535 1942.65 10.9999 1942.65C12.1045 1942.65 12.9999 1941.76 12.9999 1940.65L8.99992 1940.65ZM12.9999 1950.68C12.9999 1949.57 12.1045 1948.68 10.9999 1948.68C9.89535 1948.68 8.99992 1949.57 8.99992 1950.68L12.9999 1950.68ZM8.99991 1960.7C8.99991 1961.81 9.89535 1962.7 10.9999 1962.7C12.1045 1962.7 12.9999 1961.81 12.9999 1960.7L8.99991 1960.7ZM12.9999 1970.73C12.9999 1969.62 12.1045 1968.73 10.9999 1968.73C9.89534 1968.73 8.99991 1969.62 8.99991 1970.73L12.9999 1970.73ZM8.99991 1980.75C8.99991 1981.86 9.89534 1982.75 10.9999 1982.75C12.1045 1982.75 12.9999 1981.86 12.9999 1980.75L8.99991 1980.75ZM12.9999 1990.77C12.9999 1989.67 12.1045 1988.77 10.9999 1988.77C9.89534 1988.77 8.99991 1989.67 8.99991 1990.77L12.9999 1990.77ZM8.99991 2000.8C8.99991 2001.9 9.89534 2002.8 10.9999 2002.8C12.1045 2002.8 12.9999 2001.9 12.9999 2000.8L8.99991 2000.8ZM12.9999 2010.82C12.9999 2009.72 12.1045 2008.82 10.9999 2008.82C9.89534 2008.82 8.99991 2009.72 8.99991 2010.82L12.9999 2010.82ZM8.99991 2020.85C8.99991 2021.95 9.89534 2022.85 10.9999 2022.85C12.1045 2022.85 12.9999 2021.95 12.9999 2020.85L8.99991 2020.85ZM12.9999 2030.87C12.9999 2029.77 12.1045 2028.87 10.9999 2028.87C9.89534 2028.87 8.99991 2029.77 8.99991 2030.87L12.9999 2030.87ZM8.99991 2040.9C8.99991 2042 9.89534 2042.9 10.9999 2042.9C12.1045 2042.9 12.9999 2042 12.9999 2040.9L8.99991 2040.9ZM12.9999 2050.92C12.9999 2049.82 12.1045 2048.92 10.9999 2048.92C9.89534 2048.92 8.99991 2049.82 8.99991 2050.92L12.9999 2050.92ZM8.99991 2060.94C8.99991 2062.05 9.89534 2062.94 10.9999 2062.94C12.1045 2062.94 12.9999 2062.05 12.9999 2060.94L8.99991 2060.94ZM12.9999 2070.97C12.9999 2069.86 12.1045 2068.97 10.9999 2068.97C9.89534 2068.97 8.99991 2069.86 8.99991 2070.97L12.9999 2070.97ZM8.99991 2080.99C8.99991 2082.1 9.89534 2082.99 10.9999 2082.99C12.1045 2082.99 12.9999 2082.1 12.9999 2080.99L8.99991 2080.99ZM12.9999 2091.02C12.9999 2089.91 12.1045 2089.02 10.9999 2089.02C9.89534 2089.02 8.99991 2089.91 8.99991 2091.02L12.9999 2091.02ZM8.99991 2101.04C8.99991 2102.15 9.89534 2103.04 10.9999 2103.04C12.1045 2103.04 12.9999 2102.15 12.9999 2101.04L8.99991 2101.04ZM12.9999 2111.07C12.9999 2109.96 12.1045 2109.07 10.9999 2109.07C9.89534 2109.07 8.99991 2109.96 8.99991 2111.07L12.9999 2111.07ZM8.99991 2121.09C8.99991 2122.19 9.89534 2123.09 10.9999 2123.09C12.1045 2123.09 12.9999 2122.19 12.9999 2121.09L8.99991 2121.09ZM12.9999 2131.11C12.9999 2130.01 12.1045 2129.11 10.9999 2129.11C9.89534 2129.11 8.99991 2130.01 8.99991 2131.11L12.9999 2131.11ZM8.99991 2141.14C8.99991 2142.24 9.89534 2143.14 10.9999 2143.14C12.1045 2143.14 12.9999 2142.24 12.9999 2141.14L8.99991 2141.14ZM12.9999 2151.16C12.9999 2150.06 12.1045 2149.16 10.9999 2149.16C9.89534 2149.16 8.99991 2150.06 8.99991 2151.16L12.9999 2151.16ZM8.99991 2161.19C8.99991 2162.29 9.89534 2163.19 10.9999 2163.19C12.1045 2163.19 12.9999 2162.29 12.9999 2161.19L8.99991 2161.19ZM12.9999 2171.21C12.9999 2170.11 12.1045 2169.21 10.9999 2169.21C9.89534 2169.21 8.99991 2170.11 8.99991 2171.21L12.9999 2171.21ZM8.99991 2181.23C8.99991 2182.34 9.89534 2183.23 10.9999 2183.23C12.1045 2183.23 12.9999 2182.34 12.9999 2181.23L8.99991 2181.23ZM12.9999 2191.26C12.9999 2190.15 12.1045 2189.26 10.9999 2189.26C9.89534 2189.26 8.9999 2190.15 8.9999 2191.26L12.9999 2191.26ZM8.9999 2201.28C8.9999 2202.39 9.89533 2203.28 10.9999 2203.28C12.1045 2203.28 12.9999 2202.39 12.9999 2201.28L8.9999 2201.28ZM12.9999 2211.31C12.9999 2210.2 12.1045 2209.31 10.9999 2209.31C9.89533 2209.31 8.9999 2210.2 8.9999 2211.31L12.9999 2211.31ZM8.9999 2221.33C8.9999 2222.44 9.89533 2223.33 10.9999 2223.33C12.1045 2223.33 12.9999 2222.44 12.9999 2221.33L8.9999 2221.33ZM12.9999 2231.36C12.9999 2230.25 12.1045 2229.36 10.9999 2229.36C9.89533 2229.36 8.9999 2230.25 8.9999 2231.36L12.9999 2231.36ZM8.9999 2241.38C8.9999 2242.48 9.89533 2243.38 10.9999 2243.38C12.1045 2243.38 12.9999 2242.48 12.9999 2241.38L8.9999 2241.38ZM12.9999 2251.4C12.9999 2250.3 12.1045 2249.4 10.9999 2249.4C9.89533 2249.4 8.9999 2250.3 8.9999 2251.4L12.9999 2251.4ZM8.9999 2261.43C8.9999 2262.53 9.89533 2263.43 10.9999 2263.43C12.1045 2263.43 12.9999 2262.53 12.9999 2261.43L8.9999 2261.43ZM12.9999 2271.45C12.9999 2270.35 12.1045 2269.45 10.9999 2269.45C9.89533 2269.45 8.9999 2270.35 8.9999 2271.45L12.9999 2271.45ZM8.9999 2281.48C8.9999 2282.58 9.89533 2283.48 10.9999 2283.48C12.1045 2283.48 12.9999 2282.58 12.9999 2281.48L8.9999 2281.48ZM12.9999 2291.5C12.9999 2290.4 12.1045 2289.5 10.9999 2289.5C9.89533 2289.5 8.9999 2290.4 8.9999 2291.5L12.9999 2291.5ZM8.9999 2301.52C8.9999 2302.63 9.89533 2303.52 10.9999 2303.52C12.1045 2303.52 12.9999 2302.63 12.9999 2301.52L8.9999 2301.52ZM12.9999 2311.55C12.9999 2310.44 12.1045 2309.55 10.9999 2309.55C9.89533 2309.55 8.9999 2310.44 8.9999 2311.55L12.9999 2311.55ZM8.9999 2321.57C8.9999 2322.68 9.89533 2323.57 10.9999 2323.57C12.1045 2323.57 12.9999 2322.68 12.9999 2321.57L8.9999 2321.57ZM12.9999 2331.6C12.9999 2330.49 12.1045 2329.6 10.9999 2329.6C9.89533 2329.6 8.9999 2330.49 8.9999 2331.6L12.9999 2331.6ZM8.9999 2341.62C8.9999 2342.73 9.89533 2343.62 10.9999 2343.62C12.1045 2343.62 12.9999 2342.73 12.9999 2341.62L8.9999 2341.62ZM12.9999 2351.65C12.9999 2350.54 12.1045 2349.65 10.9999 2349.65C9.89533 2349.65 8.9999 2350.54 8.9999 2351.65L12.9999 2351.65ZM8.9999 2361.67C8.9999 2362.77 9.89533 2363.67 10.9999 2363.67C12.1045 2363.67 12.9999 2362.77 12.9999 2361.67L8.9999 2361.67ZM12.9999 2371.69C12.9999 2370.59 12.1045 2369.69 10.9999 2369.69C9.89533 2369.69 8.9999 2370.59 8.9999 2371.69L12.9999 2371.69ZM8.9999 2381.72C8.9999 2382.82 9.89533 2383.72 10.9999 2383.72C12.1045 2383.72 12.9999 2382.82 12.9999 2381.72L8.9999 2381.72ZM12.9999 2391.74C12.9999 2390.64 12.1045 2389.74 10.9999 2389.74C9.89533 2389.74 8.9999 2390.64 8.9999 2391.74L12.9999 2391.74ZM8.9999 2401.77C8.9999 2402.87 9.89533 2403.77 10.9999 2403.77C12.1045 2403.77 12.9999 2402.87 12.9999 2401.77L8.9999 2401.77ZM12.9999 2411.79C12.9999 2410.69 12.1045 2409.79 10.9999 2409.79C9.89533 2409.79 8.9999 2410.69 8.9999 2411.79L12.9999 2411.79ZM8.99989 2421.81C8.99989 2422.92 9.89532 2423.81 10.9999 2423.81C12.1045 2423.81 12.9999 2422.92 12.9999 2421.81L8.99989 2421.81ZM12.9999 2431.84C12.9999 2430.73 12.1045 2429.84 10.9999 2429.84C9.89532 2429.84 8.99989 2430.73 8.99989 2431.84L12.9999 2431.84ZM8.99989 2441.86C8.99989 2442.97 9.89532 2443.86 10.9999 2443.86C12.1045 2443.86 12.9999 2442.97 12.9999 2441.86L8.99989 2441.86ZM12.9999 2451.89C12.9999 2450.78 12.1045 2449.89 10.9999 2449.89C9.89532 2449.89 8.99989 2450.78 8.99989 2451.89L12.9999 2451.89ZM8.99989 2461.91C8.99989 2463.02 9.89532 2463.91 10.9999 2463.91C12.1045 2463.91 12.9999 2463.02 12.9999 2461.91L8.99989 2461.91ZM12.9999 2471.94C12.9999 2470.83 12.1045 2469.94 10.9999 2469.94C9.89532 2469.94 8.99989 2470.83 8.99989 2471.94L12.9999 2471.94ZM8.99989 2481.96C8.99989 2483.06 9.89532 2483.96 10.9999 2483.96C12.1045 2483.96 12.9999 2483.06 12.9999 2481.96L8.99989 2481.96ZM12.9999 2491.98C12.9999 2490.88 12.1045 2489.98 10.9999 2489.98C9.89532 2489.98 8.99989 2490.88 8.99989 2491.98L12.9999 2491.98ZM8.99989 2502.01C8.99989 2503.11 9.89532 2504.01 10.9999 2504.01C12.1045 2504.01 12.9999 2503.11 12.9999 2502.01L8.99989 2502.01ZM12.9999 2512.03C12.9999 2510.93 12.1045 2510.03 10.9999 2510.03C9.89532 2510.03 8.99989 2510.93 8.99989 2512.03L12.9999 2512.03ZM8.99989 2522.06C8.99989 2523.16 9.89532 2524.06 10.9999 2524.06C12.1045 2524.06 12.9999 2523.16 12.9999 2522.06L8.99989 2522.06ZM12.9999 2532.08C12.9999 2530.98 12.1045 2530.08 10.9999 2530.08C9.89532 2530.08 8.99989 2530.98 8.99989 2532.08L12.9999 2532.08ZM8.99989 2542.1C8.99989 2543.21 9.89532 2544.1 10.9999 2544.1C12.1045 2544.1 12.9999 2543.21 12.9999 2542.1L8.99989 2542.1ZM12.9999 2552.13C12.9999 2551.02 12.1045 2550.13 10.9999 2550.13C9.89532 2550.13 8.99989 2551.02 8.99989 2552.13L12.9999 2552.13ZM8.99989 2562.15C8.99989 2563.26 9.89532 2564.15 10.9999 2564.15C12.1045 2564.15 12.9999 2563.26 12.9999 2562.15L8.99989 2562.15ZM12.9999 2572.18C12.9999 2571.07 12.1045 2570.18 10.9999 2570.18C9.89532 2570.18 8.99989 2571.07 8.99989 2572.18L12.9999 2572.18ZM8.99989 2582.2C8.99989 2583.31 9.89532 2584.2 10.9999 2584.2C12.1045 2584.2 12.9999 2583.31 12.9999 2582.2L8.99989 2582.2ZM12.9999 2592.23C12.9999 2591.12 12.1045 2590.23 10.9999 2590.23C9.89532 2590.23 8.99989 2591.12 8.99989 2592.23L12.9999 2592.23ZM8.99989 2602.25C8.99989 2603.35 9.89532 2604.25 10.9999 2604.25C12.1045 2604.25 12.9999 2603.35 12.9999 2602.25L8.99989 2602.25ZM12.9999 2612.27C12.9999 2611.17 12.1045 2610.27 10.9999 2610.27C9.89532 2610.27 8.99989 2611.17 8.99989 2612.27L12.9999 2612.27ZM8.99989 2622.3C8.99989 2623.4 9.89532 2624.3 10.9999 2624.3C12.1045 2624.3 12.9999 2623.4 12.9999 2622.3L8.99989 2622.3ZM12.9999 2632.32C12.9999 2631.22 12.1045 2630.32 10.9999 2630.32C9.89532 2630.32 8.99989 2631.22 8.99989 2632.32L12.9999 2632.32ZM8.99988 2642.35C8.99988 2643.45 9.89532 2644.35 10.9999 2644.35C12.1045 2644.35 12.9999 2643.45 12.9999 2642.35L8.99988 2642.35ZM12.9999 2652.37C12.9999 2651.27 12.1045 2650.37 10.9999 2650.37C9.89532 2650.37 8.99988 2651.27 8.99988 2652.37L12.9999 2652.37ZM8.99988 2662.39C8.99988 2663.5 9.89531 2664.39 10.9999 2664.39C12.1045 2664.39 12.9999 2663.5 12.9999 2662.39L8.99988 2662.39ZM12.9999 2672.42C12.9999 2671.31 12.1045 2670.42 10.9999 2670.42C9.89531 2670.42 8.99988 2671.31 8.99988 2672.42L12.9999 2672.42ZM8.99988 2682.44C8.99988 2683.55 9.89531 2684.44 10.9999 2684.44C12.1045 2684.44 12.9999 2683.55 12.9999 2682.44L8.99988 2682.44ZM12.9999 2692.47C12.9999 2691.36 12.1045 2690.47 10.9999 2690.47C9.89531 2690.47 8.99988 2691.36 8.99988 2692.47L12.9999 2692.47ZM8.99988 2702.49C8.99988 2703.6 9.89531 2704.49 10.9999 2704.49C12.1045 2704.49 12.9999 2703.6 12.9999 2702.49L8.99988 2702.49ZM12.9999 2712.52C12.9999 2711.41 12.1045 2710.52 10.9999 2710.52C9.89531 2710.52 8.99988 2711.41 8.99988 2712.52L12.9999 2712.52ZM8.99988 2722.54C8.99988 2723.64 9.89531 2724.54 10.9999 2724.54C12.1045 2724.54 12.9999 2723.64 12.9999 2722.54L8.99988 2722.54ZM12.9999 2732.56C12.9999 2731.46 12.1045 2730.56 10.9999 2730.56C9.89531 2730.56 8.99988 2731.46 8.99988 2732.56L12.9999 2732.56ZM8.99988 2742.59C8.99988 2743.69 9.89531 2744.59 10.9999 2744.59C12.1045 2744.59 12.9999 2743.69 12.9999 2742.59L8.99988 2742.59ZM12.9999 2752.61C12.9999 2751.51 12.1044 2750.61 10.9999 2750.61C9.89531 2750.61 8.99988 2751.51 8.99988 2752.61L12.9999 2752.61ZM8.99988 2762.64C8.99988 2763.74 9.89531 2764.64 10.9999 2764.64C12.1044 2764.64 12.9999 2763.74 12.9999 2762.64L8.99988 2762.64ZM12.9999 2772.66C12.9999 2771.56 12.1044 2770.66 10.9999 2770.66C9.89531 2770.66 8.99988 2771.56 8.99988 2772.66L12.9999 2772.66ZM8.99988 2782.68C8.99988 2783.79 9.89531 2784.68 10.9999 2784.68C12.1044 2784.68 12.9999 2783.79 12.9999 2782.68L8.99988 2782.68ZM12.9999 2792.71C12.9999 2791.6 12.1044 2790.71 10.9999 2790.71C9.89531 2790.71 8.99988 2791.6 8.99988 2792.71L12.9999 2792.71ZM8.99988 2802.73C8.99988 2803.84 9.89531 2804.73 10.9999 2804.73C12.1044 2804.73 12.9999 2803.84 12.9999 2802.73L8.99988 2802.73ZM12.9999 2812.76C12.9999 2811.65 12.1044 2810.76 10.9999 2810.76C9.89531 2810.76 8.99988 2811.65 8.99988 2812.76L12.9999 2812.76ZM8.99988 2822.78C8.99988 2823.89 9.89531 2824.78 10.9999 2824.78C12.1044 2824.78 12.9999 2823.89 12.9999 2822.78L8.99988 2822.78ZM12.9999 2832.81C12.9999 2831.7 12.1044 2830.81 10.9999 2830.81C9.89531 2830.81 8.99988 2831.7 8.99988 2832.81L12.9999 2832.81ZM8.99988 2842.83C8.99988 2843.93 9.89531 2844.83 10.9999 2844.83C12.1044 2844.83 12.9999 2843.93 12.9999 2842.83L8.99988 2842.83ZM12.9999 2852.85C12.9999 2851.75 12.1044 2850.85 10.9999 2850.85C9.89531 2850.85 8.99988 2851.75 8.99988 2852.85L12.9999 2852.85ZM8.99988 2862.88C8.99988 2863.98 9.89531 2864.88 10.9999 2864.88C12.1044 2864.88 12.9999 2863.98 12.9999 2862.88L8.99988 2862.88ZM12.9999 2872.9C12.9999 2871.8 12.1044 2870.9 10.9999 2870.9C9.89531 2870.9 8.99987 2871.8 8.99987 2872.9L12.9999 2872.9ZM8.99987 2882.93C8.99987 2884.03 9.8953 2884.93 10.9999 2884.93C12.1044 2884.93 12.9999 2884.03 12.9999 2882.93L8.99987 2882.93ZM12.9999 2892.95C12.9999 2891.85 12.1044 2890.95 10.9999 2890.95C9.8953 2890.95 8.99987 2891.85 8.99987 2892.95L12.9999 2892.95ZM8.99987 2902.97C8.99987 2904.08 9.8953 2904.97 10.9999 2904.97C12.1044 2904.97 12.9999 2904.08 12.9999 2902.97L8.99987 2902.97ZM12.9999 2913C12.9999 2911.89 12.1044 2911 10.9999 2911C9.8953 2911 8.99987 2911.89 8.99987 2913L12.9999 2913ZM8.99987 2923.02C8.99987 2924.13 9.8953 2925.02 10.9999 2925.02C12.1044 2925.02 12.9999 2924.13 12.9999 2923.02L8.99987 2923.02ZM12.9999 2933.05C12.9999 2931.94 12.1044 2931.05 10.9999 2931.05C9.8953 2931.05 8.99987 2931.94 8.99987 2933.05L12.9999 2933.05ZM8.99987 2943.07C8.99987 2944.18 9.8953 2945.07 10.9999 2945.07C12.1044 2945.07 12.9999 2944.18 12.9999 2943.07L8.99987 2943.07ZM12.9999 2953.1C12.9999 2951.99 12.1044 2951.1 10.9999 2951.1C9.8953 2951.1 8.99987 2951.99 8.99987 2953.1L12.9999 2953.1ZM8.99987 2963.12C8.99987 2964.22 9.8953 2965.12 10.9999 2965.12C12.1044 2965.12 12.9999 2964.22 12.9999 2963.12L8.99987 2963.12ZM12.9999 2973.14C12.9999 2972.04 12.1044 2971.14 10.9999 2971.14C9.8953 2971.14 8.99987 2972.04 8.99987 2973.14L12.9999 2973.14ZM8.99987 2983.17C8.99987 2984.27 9.8953 2985.17 10.9999 2985.17C12.1044 2985.17 12.9999 2984.27 12.9999 2983.17L8.99987 2983.17ZM12.9999 2993.19C12.9999 2992.09 12.1044 2991.19 10.9999 2991.19C9.8953 2991.19 8.99987 2992.09 8.99987 2993.19L12.9999 2993.19ZM8.99987 3003.22C8.99987 3004.32 9.8953 3005.22 10.9999 3005.22C12.1044 3005.22 12.9999 3004.32 12.9999 3003.22L8.99987 3003.22ZM12.9999 3013.24C12.9999 3012.14 12.1044 3011.24 10.9999 3011.24C9.8953 3011.24 8.99987 3012.14 8.99987 3013.24L12.9999 3013.24ZM8.99987 3023.26C8.99987 3024.37 9.8953 3025.26 10.9999 3025.26C12.1044 3025.26 12.9999 3024.37 12.9999 3023.26L8.99987 3023.26ZM12.9999 3033.29C12.9999 3032.18 12.1044 3031.29 10.9999 3031.29C9.8953 3031.29 8.99987 3032.18 8.99987 3033.29L12.9999 3033.29ZM8.99987 3043.31C8.99987 3044.42 9.8953 3045.31 10.9999 3045.31C12.1044 3045.31 12.9999 3044.42 12.9999 3043.31L8.99987 3043.31ZM12.9999 3053.34C12.9999 3052.23 12.1044 3051.34 10.9999 3051.34C9.8953 3051.34 8.99987 3052.23 8.99987 3053.34L12.9999 3053.34ZM8.99987 3063.36C8.99987 3064.47 9.8953 3065.36 10.9999 3065.36C12.1044 3065.36 12.9999 3064.47 12.9999 3063.36L8.99987 3063.36ZM12.9999 3073.39C12.9999 3072.28 12.1044 3071.39 10.9999 3071.39C9.8953 3071.39 8.99987 3072.28 8.99987 3073.39L12.9999 3073.39ZM8.99987 3083.41C8.99987 3084.51 9.8953 3085.41 10.9999 3085.41C12.1044 3085.41 12.9999 3084.51 12.9999 3083.41L8.99987 3083.41ZM12.9999 3093.43C12.9999 3092.33 12.1044 3091.43 10.9999 3091.43C9.8953 3091.43 8.99987 3092.33 8.99987 3093.43L12.9999 3093.43ZM8.99986 3103.46C8.99986 3104.56 9.8953 3105.46 10.9999 3105.46C12.1044 3105.46 12.9999 3104.56 12.9999 3103.46L8.99986 3103.46ZM12.9999 3113.48C12.9999 3112.38 12.1044 3111.48 10.9999 3111.48C9.89529 3111.48 8.99986 3112.38 8.99986 3113.48L12.9999 3113.48ZM8.99986 3123.51C8.99986 3124.61 9.89529 3125.51 10.9999 3125.51C12.1044 3125.51 12.9999 3124.61 12.9999 3123.51L8.99986 3123.51ZM12.9999 3133.53C12.9999 3132.43 12.1044 3131.53 10.9999 3131.53C9.89529 3131.53 8.99986 3132.43 8.99986 3133.53L12.9999 3133.53ZM8.99986 3143.55C8.99986 3144.66 9.89529 3145.55 10.9999 3145.55C12.1044 3145.55 12.9999 3144.66 12.9999 3143.55L8.99986 3143.55ZM12.9999 3153.58C12.9999 3152.47 12.1044 3151.58 10.9999 3151.58C9.89529 3151.58 8.99986 3152.47 8.99986 3153.58L12.9999 3153.58ZM8.99986 3163.6C8.99986 3164.71 9.89529 3165.6 10.9999 3165.6C12.1044 3165.6 12.9999 3164.71 12.9999 3163.6L8.99986 3163.6ZM12.9999 3173.63C12.9999 3172.52 12.1044 3171.63 10.9999 3171.63C9.89529 3171.63 8.99986 3172.52 8.99986 3173.63L12.9999 3173.63ZM8.99986 3183.65C8.99986 3184.76 9.89529 3185.65 10.9999 3185.65C12.1044 3185.65 12.9999 3184.76 12.9999 3183.65L8.99986 3183.65ZM12.9999 3193.68C12.9999 3192.57 12.1044 3191.68 10.9999 3191.68C9.89529 3191.68 8.99986 3192.57 8.99986 3193.68L12.9999 3193.68ZM8.99986 3203.7C8.99986 3204.8 9.89529 3205.7 10.9999 3205.7C12.1044 3205.7 12.9999 3204.8 12.9999 3203.7L8.99986 3203.7ZM12.9999 3213.72C12.9999 3212.62 12.1044 3211.72 10.9999 3211.72C9.89529 3211.72 8.99986 3212.62 8.99986 3213.72L12.9999 3213.72ZM8.99986 3223.75C8.99986 3224.85 9.89529 3225.75 10.9999 3225.75C12.1044 3225.75 12.9999 3224.85 12.9999 3223.75L8.99986 3223.75ZM12.9999 3233.77C12.9999 3232.67 12.1044 3231.77 10.9999 3231.77C9.89529 3231.77 8.99986 3232.67 8.99986 3233.77L12.9999 3233.77ZM8.99986 3243.8C8.99986 3244.9 9.89529 3245.8 10.9999 3245.8C12.1044 3245.8 12.9999 3244.9 12.9999 3243.8L8.99986 3243.8ZM12.9999 3253.82C12.9999 3252.72 12.1044 3251.82 10.9999 3251.82C9.89529 3251.82 8.99986 3252.72 8.99986 3253.82L12.9999 3253.82ZM8.99986 3263.84C8.99986 3264.95 9.89529 3265.84 10.9999 3265.84C12.1044 3265.84 12.9999 3264.95 12.9999 3263.84L8.99986 3263.84ZM12.9999 3273.87C12.9999 3272.76 12.1044 3271.87 10.9999 3271.87C9.89529 3271.87 8.99986 3272.76 8.99986 3273.87L12.9999 3273.87ZM8.99986 3283.89C8.99986 3285 9.89529 3285.89 10.9999 3285.89C12.1044 3285.89 12.9999 3285 12.9999 3283.89L8.99986 3283.89ZM12.9999 3293.92C12.9999 3292.81 12.1044 3291.92 10.9999 3291.92C9.89529 3291.92 8.99986 3292.81 8.99986 3293.92L12.9999 3293.92ZM8.99986 3303.94C8.99986 3305.05 9.89529 3305.94 10.9999 3305.94C12.1044 3305.94 12.9999 3305.05 12.9999 3303.94L8.99986 3303.94ZM12.9999 3313.97C12.9999 3312.86 12.1044 3311.97 10.9999 3311.97C9.89529 3311.97 8.99986 3312.86 8.99986 3313.97L12.9999 3313.97ZM8.99986 3323.99C8.99986 3325.09 9.89529 3325.99 10.9999 3325.99C12.1044 3325.99 12.9999 3325.09 12.9999 3323.99L8.99986 3323.99ZM12.9999 3334.01C12.9999 3332.91 12.1044 3332.01 10.9999 3332.01C9.89529 3332.01 8.99985 3332.91 8.99985 3334.01L12.9999 3334.01ZM8.99985 3344.04C8.99985 3345.14 9.89528 3346.04 10.9999 3346.04C12.1044 3346.04 12.9999 3345.14 12.9999 3344.04L8.99985 3344.04ZM12.9999 3354.06C12.9999 3352.96 12.1044 3352.06 10.9999 3352.06C9.89528 3352.06 8.99985 3352.96 8.99985 3354.06L12.9999 3354.06ZM8.99985 3364.09C8.99985 3365.19 9.89528 3366.09 10.9999 3366.09C12.1044 3366.09 12.9999 3365.19 12.9999 3364.09L8.99985 3364.09ZM12.9999 3374.11C12.9999 3373.01 12.1044 3372.11 10.9999 3372.11C9.89528 3372.11 8.99985 3373.01 8.99985 3374.11L12.9999 3374.11ZM8.99985 3384.13C8.99985 3385.24 9.89528 3386.13 10.9999 3386.13C12.1044 3386.13 12.9999 3385.24 12.9999 3384.13L8.99985 3384.13ZM12.9999 3394.16C12.9999 3393.05 12.1044 3392.16 10.9999 3392.16C9.89528 3392.16 8.99985 3393.05 8.99985 3394.16L12.9999 3394.16ZM8.99985 3404.18C8.99985 3405.29 9.89528 3406.18 10.9999 3406.18C12.1044 3406.18 12.9999 3405.29 12.9999 3404.18L8.99985 3404.18ZM12.9999 3414.21C12.9999 3413.1 12.1044 3412.21 10.9999 3412.21C9.89528 3412.21 8.99985 3413.1 8.99985 3414.21L12.9999 3414.21ZM8.99985 3424.23C8.99985 3425.34 9.89528 3426.23 10.9999 3426.23C12.1044 3426.23 12.9999 3425.34 12.9999 3424.23L8.99985 3424.23ZM12.9999 3434.26C12.9999 3433.15 12.1044 3432.26 10.9999 3432.26C9.89528 3432.26 8.99985 3433.15 8.99985 3434.26L12.9999 3434.26ZM8.99985 3444.28C8.99985 3445.38 9.89528 3446.28 10.9998 3446.28C12.1044 3446.28 12.9998 3445.38 12.9998 3444.28L8.99985 3444.28ZM12.9998 3454.3C12.9998 3453.2 12.1044 3452.3 10.9998 3452.3C9.89528 3452.3 8.99985 3453.2 8.99985 3454.3L12.9998 3454.3ZM8.99985 3464.33C8.99985 3465.43 9.89528 3466.33 10.9998 3466.33C12.1044 3466.33 12.9998 3465.43 12.9998 3464.33L8.99985 3464.33ZM12.9998 3474.35C12.9998 3473.25 12.1044 3472.35 10.9998 3472.35C9.89528 3472.35 8.99985 3473.25 8.99985 3474.35L12.9998 3474.35ZM8.99985 3484.38C8.99985 3485.48 9.89528 3486.38 10.9998 3486.38C12.1044 3486.38 12.9998 3485.48 12.9998 3484.38L8.99985 3484.38ZM12.9998 3494.4C12.9998 3493.3 12.1044 3492.4 10.9998 3492.4C9.89528 3492.4 8.99985 3493.3 8.99985 3494.4L12.9998 3494.4ZM8.99985 3504.42C8.99985 3505.53 9.89528 3506.42 10.9998 3506.42C12.1044 3506.42 12.9998 3505.53 12.9998 3504.42L8.99985 3504.42ZM12.9998 3514.45C12.9998 3513.34 12.1044 3512.45 10.9998 3512.45C9.89528 3512.45 8.99985 3513.34 8.99985 3514.45L12.9998 3514.45ZM8.99985 3524.47C8.99985 3525.58 9.89528 3526.47 10.9998 3526.47C12.1044 3526.47 12.9998 3525.58 12.9998 3524.47L8.99985 3524.47ZM12.9998 3534.5C12.9998 3533.39 12.1044 3532.5 10.9998 3532.5C9.89528 3532.5 8.99985 3533.39 8.99985 3534.5L12.9998 3534.5ZM8.99985 3544.52C8.99985 3545.63 9.89528 3546.52 10.9998 3546.52C12.1044 3546.52 12.9998 3545.63 12.9998 3544.52L8.99985 3544.52ZM12.9998 3554.55C12.9998 3553.44 12.1044 3552.55 10.9998 3552.55C9.89528 3552.55 8.99985 3553.44 8.99985 3554.55L12.9998 3554.55ZM8.99984 3564.57C8.99984 3565.67 9.89528 3566.57 10.9998 3566.57C12.1044 3566.57 12.9998 3565.67 12.9998 3564.57L8.99984 3564.57ZM12.9998 3574.59C12.9998 3573.49 12.1044 3572.59 10.9998 3572.59C9.89527 3572.59 8.99984 3573.49 8.99984 3574.59L12.9998 3574.59ZM8.99984 3584.62C8.99984 3585.72 9.89527 3586.62 10.9998 3586.62C12.1044 3586.62 12.9998 3585.72 12.9998 3584.62L8.99984 3584.62ZM12.9998 3594.64C12.9998 3593.54 12.1044 3592.64 10.9998 3592.64C9.89527 3592.64 8.99984 3593.54 8.99984 3594.64L12.9998 3594.64ZM8.99984 3604.67C8.99984 3605.77 9.89527 3606.67 10.9998 3606.67C12.1044 3606.67 12.9998 3605.77 12.9998 3604.67L8.99984 3604.67ZM12.9998 3614.69C12.9998 3613.59 12.1044 3612.69 10.9998 3612.69C9.89527 3612.69 8.99984 3613.59 8.99984 3614.69L12.9998 3614.69ZM8.99984 3624.71C8.99984 3625.82 9.89527 3626.71 10.9998 3626.71C12.1044 3626.71 12.9998 3625.82 12.9998 3624.71L8.99984 3624.71ZM12.9998 3634.74C12.9998 3633.63 12.1044 3632.74 10.9998 3632.74C9.89527 3632.74 8.99984 3633.63 8.99984 3634.74L12.9998 3634.74ZM8.99984 3644.76C8.99984 3645.87 9.89527 3646.76 10.9998 3646.76C12.1044 3646.76 12.9998 3645.87 12.9998 3644.76L8.99984 3644.76ZM12.9998 3654.79C12.9998 3653.68 12.1044 3652.79 10.9998 3652.79C9.89527 3652.79 8.99984 3653.68 8.99984 3654.79L12.9998 3654.79ZM8.99984 3664.81C8.99984 3665.92 9.89527 3666.81 10.9998 3666.81C12.1044 3666.81 12.9998 3665.92 12.9998 3664.81L8.99984 3664.81ZM12.9998 3674.84C12.9998 3673.73 12.1044 3672.84 10.9998 3672.84C9.89527 3672.84 8.99984 3673.73 8.99984 3674.84L12.9998 3674.84ZM8.99984 3684.86C8.99984 3685.96 9.89527 3686.86 10.9998 3686.86C12.1044 3686.86 12.9998 3685.96 12.9998 3684.86L8.99984 3684.86ZM12.9998 3694.88C12.9998 3693.78 12.1044 3692.88 10.9998 3692.88C9.89527 3692.88 8.99984 3693.78 8.99984 3694.88L12.9998 3694.88ZM8.99984 3704.91C8.99984 3706.01 9.89527 3706.91 10.9998 3706.91C12.1044 3706.91 12.9998 3706.01 12.9998 3704.91L8.99984 3704.91ZM12.9998 3714.93C12.9998 3713.83 12.1044 3712.93 10.9998 3712.93C9.89527 3712.93 8.99984 3713.83 8.99984 3714.93L12.9998 3714.93ZM8.99984 3724.96C8.99984 3726.06 9.89527 3726.96 10.9998 3726.96C12.1044 3726.96 12.9998 3726.06 12.9998 3724.96L8.99984 3724.96ZM12.9998 3734.98C12.9998 3733.88 12.1044 3732.98 10.9998 3732.98C9.89527 3732.98 8.99984 3733.88 8.99984 3734.98L12.9998 3734.98ZM9 11L9 16.0121L13 16.0121L13 11L9 11ZM9 26.0363L9 36.0605L13 36.0605L13 26.0363L9 26.0363ZM9 46.0847L9 56.1089L13 56.1089L13 46.0847L9 46.0847ZM9 66.1331L9 76.1573L13 76.1573L13 66.1331L9 66.1331ZM9 86.1814L9 96.2056L13 96.2056L13 86.1814L9 86.1814ZM9 106.23L9 116.254L13 116.254L13 106.23L9 106.23ZM8.99999 126.278L8.99999 136.302L13 136.302L13 126.278L8.99999 126.278ZM8.99999 146.327L8.99999 156.351L13 156.351L13 146.327L8.99999 146.327ZM8.99999 166.375L8.99999 176.399L13 176.399L13 166.375L8.99999 166.375ZM8.99999 186.423L8.99999 196.448L13 196.448L13 186.423L8.99999 186.423ZM8.99999 206.472L8.99999 216.496L13 216.496L13 206.472L8.99999 206.472ZM8.99999 226.52L8.99999 236.544L13 236.544L13 226.52L8.99999 226.52ZM8.99999 246.569L8.99999 256.593L13 256.593L13 246.569L8.99999 246.569ZM8.99999 266.617L8.99999 276.641L13 276.641L13 266.617L8.99999 266.617ZM8.99999 286.665L8.99999 296.69L13 296.69L13 286.665L8.99999 286.665ZM8.99999 306.714L8.99999 316.738L13 316.738L13 306.714L8.99999 306.714ZM8.99999 326.762L8.99999 336.786L13 336.786L13 326.762L8.99999 326.762ZM8.99999 346.811L8.99998 356.835L13 356.835L13 346.811L8.99999 346.811ZM8.99998 366.859L8.99998 376.883L13 376.883L13 366.859L8.99998 366.859ZM8.99998 386.907L8.99998 396.932L13 396.932L13 386.907L8.99998 386.907ZM8.99998 406.956L8.99998 416.98L13 416.98L13 406.956L8.99998 406.956ZM8.99998 427.004L8.99998 437.028L13 437.028L13 427.004L8.99998 427.004ZM8.99998 447.053L8.99998 457.077L13 457.077L13 447.053L8.99998 447.053ZM8.99998 467.101L8.99998 477.125L13 477.125L13 467.101L8.99998 467.101ZM8.99998 487.149L8.99998 497.174L13 497.174L13 487.149L8.99998 487.149ZM8.99998 507.198L8.99998 517.222L13 517.222L13 507.198L8.99998 507.198ZM8.99998 527.246L8.99998 537.27L13 537.27L13 527.246L8.99998 527.246ZM8.99998 547.295L8.99998 557.319L13 557.319L13 547.295L8.99998 547.295ZM8.99998 567.343L8.99998 577.367L13 577.367L13 567.343L8.99998 567.343ZM8.99997 587.391L8.99997 597.415L13 597.415L13 587.391L8.99997 587.391ZM8.99997 607.44L8.99997 617.464L13 617.464L13 607.44L8.99997 607.44ZM8.99997 627.488L8.99997 637.512L13 637.512L13 627.488L8.99997 627.488ZM8.99997 647.536L8.99997 657.56L13 657.56L13 647.536L8.99997 647.536ZM8.99997 667.585L8.99997 677.609L13 677.609L13 667.585L8.99997 667.585ZM8.99997 687.633L8.99997 697.657L13 697.657L13 687.633L8.99997 687.633ZM8.99997 707.681L8.99997 717.705L13 717.705L13 707.681L8.99997 707.681ZM8.99997 727.73L8.99997 737.754L13 737.754L13 727.73L8.99997 727.73ZM8.99997 747.778L8.99997 757.802L13 757.802L13 747.778L8.99997 747.778ZM8.99997 767.826L8.99997 777.85L13 777.85L13 767.826L8.99997 767.826ZM8.99997 787.875L8.99997 797.899L13 797.899L13 787.875L8.99997 787.875ZM8.99997 807.923L8.99996 817.947L13 817.947L13 807.923L8.99997 807.923ZM8.99996 827.971L8.99996 837.995L13 837.995L13 827.971L8.99996 827.971ZM8.99996 848.02L8.99996 858.044L13 858.044L13 848.02L8.99996 848.02ZM8.99996 868.068L8.99996 878.092L13 878.092L13 868.068L8.99996 868.068ZM8.99996 888.116L8.99996 898.141L13 898.141L13 888.116L8.99996 888.116ZM8.99996 908.165L8.99996 918.189L13 918.189L13 908.165L8.99996 908.165ZM8.99996 928.213L8.99996 938.237L13 938.237L13 928.213L8.99996 928.213ZM8.99996 948.261L8.99996 958.285L13 958.285L13 948.261L8.99996 948.261ZM8.99996 968.31L8.99996 978.334L13 978.334L13 968.31L8.99996 968.31ZM8.99996 988.358L8.99996 998.382L13 998.382L13 988.358L8.99996 988.358ZM8.99996 1008.41L8.99996 1018.43L13 1018.43L13 1008.41L8.99996 1008.41ZM8.99996 1028.45L8.99996 1038.48L13 1038.48L13 1028.45L8.99996 1028.45ZM8.99995 1048.5L8.99995 1058.53L13 1058.53L13 1048.5L8.99995 1048.5ZM8.99995 1068.55L8.99995 1078.58L13 1078.58L13 1068.55L8.99995 1068.55ZM8.99995 1088.6L8.99995 1098.62L13 1098.62L13 1088.6L8.99995 1088.6ZM8.99995 1108.65L8.99995 1118.67L13 1118.67L13 1108.65L8.99995 1108.65ZM8.99995 1128.7L8.99995 1138.72L13 1138.72L13 1128.7L8.99995 1128.7ZM8.99995 1148.74L8.99995 1158.77L12.9999 1158.77L13 1148.74L8.99995 1148.74ZM8.99995 1168.79L8.99995 1178.82L12.9999 1178.82L12.9999 1168.79L8.99995 1168.79ZM8.99995 1188.84L8.99995 1198.87L12.9999 1198.87L12.9999 1188.84L8.99995 1188.84ZM8.99995 1208.89L8.99995 1218.91L12.9999 1218.91L12.9999 1208.89L8.99995 1208.89ZM8.99995 1228.94L8.99995 1238.96L12.9999 1238.96L12.9999 1228.94L8.99995 1228.94ZM8.99995 1248.99L8.99995 1259.01L12.9999 1259.01L12.9999 1248.99L8.99995 1248.99ZM8.99995 1269.03L8.99994 1279.06L12.9999 1279.06L12.9999 1269.03L8.99995 1269.03ZM8.99994 1289.08L8.99994 1299.11L12.9999 1299.11L12.9999 1289.08L8.99994 1289.08ZM8.99994 1309.13L8.99994 1319.16L12.9999 1319.16L12.9999 1309.13L8.99994 1309.13ZM8.99994 1329.18L8.99994 1339.2L12.9999 1339.2L12.9999 1329.18L8.99994 1329.18ZM8.99994 1349.23L8.99994 1359.25L12.9999 1359.25L12.9999 1349.23L8.99994 1349.23ZM8.99994 1369.28L8.99994 1379.3L12.9999 1379.3L12.9999 1369.28L8.99994 1369.28ZM8.99994 1389.32L8.99994 1399.35L12.9999 1399.35L12.9999 1389.32L8.99994 1389.32ZM8.99994 1409.37L8.99994 1419.4L12.9999 1419.4L12.9999 1409.37L8.99994 1409.37ZM8.99994 1429.42L8.99994 1439.45L12.9999 1439.45L12.9999 1429.42L8.99994 1429.42ZM8.99994 1449.47L8.99994 1459.49L12.9999 1459.49L12.9999 1449.47L8.99994 1449.47ZM8.99994 1469.52L8.99994 1479.54L12.9999 1479.54L12.9999 1469.52L8.99994 1469.52ZM8.99994 1489.57L8.99993 1499.59L12.9999 1499.59L12.9999 1489.57L8.99994 1489.57ZM8.99993 1509.61L8.99993 1519.64L12.9999 1519.64L12.9999 1509.61L8.99993 1509.61ZM8.99993 1529.66L8.99993 1539.69L12.9999 1539.69L12.9999 1529.66L8.99993 1529.66ZM8.99993 1549.71L8.99993 1559.74L12.9999 1559.74L12.9999 1549.71L8.99993 1549.71ZM8.99993 1569.76L8.99993 1579.78L12.9999 1579.78L12.9999 1569.76L8.99993 1569.76ZM8.99993 1589.81L8.99993 1599.83L12.9999 1599.83L12.9999 1589.81L8.99993 1589.81ZM8.99993 1609.86L8.99993 1619.88L12.9999 1619.88L12.9999 1609.86L8.99993 1609.86ZM8.99993 1629.9L8.99993 1639.93L12.9999 1639.93L12.9999 1629.9L8.99993 1629.9ZM8.99993 1649.95L8.99993 1659.98L12.9999 1659.98L12.9999 1649.95L8.99993 1649.95ZM8.99993 1670L8.99993 1680.03L12.9999 1680.03L12.9999 1670L8.99993 1670ZM8.99993 1690.05L8.99993 1700.07L12.9999 1700.07L12.9999 1690.05L8.99993 1690.05ZM8.99993 1710.1L8.99993 1720.12L12.9999 1720.12L12.9999 1710.1L8.99993 1710.1ZM8.99992 1730.15L8.99992 1740.17L12.9999 1740.17L12.9999 1730.15L8.99992 1730.15ZM8.99992 1750.19L8.99992 1760.22L12.9999 1760.22L12.9999 1750.19L8.99992 1750.19ZM8.99992 1770.24L8.99992 1780.27L12.9999 1780.27L12.9999 1770.24L8.99992 1770.24ZM8.99992 1790.29L8.99992 1800.32L12.9999 1800.32L12.9999 1790.29L8.99992 1790.29ZM8.99992 1810.34L8.99992 1820.36L12.9999 1820.36L12.9999 1810.34L8.99992 1810.34ZM8.99992 1830.39L8.99992 1840.41L12.9999 1840.41L12.9999 1830.39L8.99992 1830.39ZM8.99992 1850.44L8.99992 1860.46L12.9999 1860.46L12.9999 1850.44L8.99992 1850.44ZM8.99992 1870.48L8.99992 1880.51L12.9999 1880.51L12.9999 1870.48L8.99992 1870.48ZM8.99992 1890.53L8.99992 1900.56L12.9999 1900.56L12.9999 1890.53L8.99992 1890.53ZM8.99992 1910.58L8.99992 1920.61L12.9999 1920.61L12.9999 1910.58L8.99992 1910.58ZM8.99992 1930.63L8.99992 1940.65L12.9999 1940.65L12.9999 1930.63L8.99992 1930.63ZM8.99992 1950.68L8.99991 1960.7L12.9999 1960.7L12.9999 1950.68L8.99992 1950.68ZM8.99991 1970.73L8.99991 1980.75L12.9999 1980.75L12.9999 1970.73L8.99991 1970.73ZM8.99991 1990.77L8.99991 2000.8L12.9999 2000.8L12.9999 1990.77L8.99991 1990.77ZM8.99991 2010.82L8.99991 2020.85L12.9999 2020.85L12.9999 2010.82L8.99991 2010.82ZM8.99991 2030.87L8.99991 2040.9L12.9999 2040.9L12.9999 2030.87L8.99991 2030.87ZM8.99991 2050.92L8.99991 2060.94L12.9999 2060.94L12.9999 2050.92L8.99991 2050.92ZM8.99991 2070.97L8.99991 2080.99L12.9999 2080.99L12.9999 2070.97L8.99991 2070.97ZM8.99991 2091.02L8.99991 2101.04L12.9999 2101.04L12.9999 2091.02L8.99991 2091.02ZM8.99991 2111.07L8.99991 2121.09L12.9999 2121.09L12.9999 2111.07L8.99991 2111.07ZM8.99991 2131.11L8.99991 2141.14L12.9999 2141.14L12.9999 2131.11L8.99991 2131.11ZM8.99991 2151.16L8.99991 2161.19L12.9999 2161.19L12.9999 2151.16L8.99991 2151.16ZM8.99991 2171.21L8.99991 2181.23L12.9999 2181.23L12.9999 2171.21L8.99991 2171.21ZM8.9999 2191.26L8.9999 2201.28L12.9999 2201.28L12.9999 2191.26L8.9999 2191.26ZM8.9999 2211.31L8.9999 2221.33L12.9999 2221.33L12.9999 2211.31L8.9999 2211.31ZM8.9999 2231.36L8.9999 2241.38L12.9999 2241.38L12.9999 2231.36L8.9999 2231.36ZM8.9999 2251.4L8.9999 2261.43L12.9999 2261.43L12.9999 2251.4L8.9999 2251.4ZM8.9999 2271.45L8.9999 2281.48L12.9999 2281.48L12.9999 2271.45L8.9999 2271.45ZM8.9999 2291.5L8.9999 2301.52L12.9999 2301.52L12.9999 2291.5L8.9999 2291.5ZM8.9999 2311.55L8.9999 2321.57L12.9999 2321.57L12.9999 2311.55L8.9999 2311.55ZM8.9999 2331.6L8.9999 2341.62L12.9999 2341.62L12.9999 2331.6L8.9999 2331.6ZM8.9999 2351.65L8.9999 2361.67L12.9999 2361.67L12.9999 2351.65L8.9999 2351.65ZM8.9999 2371.69L8.9999 2381.72L12.9999 2381.72L12.9999 2371.69L8.9999 2371.69ZM8.9999 2391.74L8.9999 2401.77L12.9999 2401.77L12.9999 2391.74L8.9999 2391.74ZM8.9999 2411.79L8.99989 2421.81L12.9999 2421.81L12.9999 2411.79L8.9999 2411.79ZM8.99989 2431.84L8.99989 2441.86L12.9999 2441.86L12.9999 2431.84L8.99989 2431.84ZM8.99989 2451.89L8.99989 2461.91L12.9999 2461.91L12.9999 2451.89L8.99989 2451.89ZM8.99989 2471.94L8.99989 2481.96L12.9999 2481.96L12.9999 2471.94L8.99989 2471.94ZM8.99989 2491.98L8.99989 2502.01L12.9999 2502.01L12.9999 2491.98L8.99989 2491.98ZM8.99989 2512.03L8.99989 2522.06L12.9999 2522.06L12.9999 2512.03L8.99989 2512.03ZM8.99989 2532.08L8.99989 2542.1L12.9999 2542.1L12.9999 2532.08L8.99989 2532.08ZM8.99989 2552.13L8.99989 2562.15L12.9999 2562.15L12.9999 2552.13L8.99989 2552.13ZM8.99989 2572.18L8.99989 2582.2L12.9999 2582.2L12.9999 2572.18L8.99989 2572.18ZM8.99989 2592.23L8.99989 2602.25L12.9999 2602.25L12.9999 2592.23L8.99989 2592.23ZM8.99989 2612.27L8.99989 2622.3L12.9999 2622.3L12.9999 2612.27L8.99989 2612.27ZM8.99989 2632.32L8.99988 2642.35L12.9999 2642.35L12.9999 2632.32L8.99989 2632.32ZM8.99988 2652.37L8.99988 2662.39L12.9999 2662.39L12.9999 2652.37L8.99988 2652.37ZM8.99988 2672.42L8.99988 2682.44L12.9999 2682.44L12.9999 2672.42L8.99988 2672.42ZM8.99988 2692.47L8.99988 2702.49L12.9999 2702.49L12.9999 2692.47L8.99988 2692.47ZM8.99988 2712.52L8.99988 2722.54L12.9999 2722.54L12.9999 2712.52L8.99988 2712.52ZM8.99988 2732.56L8.99988 2742.59L12.9999 2742.59L12.9999 2732.56L8.99988 2732.56ZM8.99988 2752.61L8.99988 2762.64L12.9999 2762.64L12.9999 2752.61L8.99988 2752.61ZM8.99988 2772.66L8.99988 2782.68L12.9999 2782.68L12.9999 2772.66L8.99988 2772.66ZM8.99988 2792.71L8.99988 2802.73L12.9999 2802.73L12.9999 2792.71L8.99988 2792.71ZM8.99988 2812.76L8.99988 2822.78L12.9999 2822.78L12.9999 2812.76L8.99988 2812.76ZM8.99988 2832.81L8.99988 2842.83L12.9999 2842.83L12.9999 2832.81L8.99988 2832.81ZM8.99988 2852.85L8.99988 2862.88L12.9999 2862.88L12.9999 2852.85L8.99988 2852.85ZM8.99987 2872.9L8.99987 2882.93L12.9999 2882.93L12.9999 2872.9L8.99987 2872.9ZM8.99987 2892.95L8.99987 2902.97L12.9999 2902.97L12.9999 2892.95L8.99987 2892.95ZM8.99987 2913L8.99987 2923.02L12.9999 2923.02L12.9999 2913L8.99987 2913ZM8.99987 2933.05L8.99987 2943.07L12.9999 2943.07L12.9999 2933.05L8.99987 2933.05ZM8.99987 2953.1L8.99987 2963.12L12.9999 2963.12L12.9999 2953.1L8.99987 2953.1ZM8.99987 2973.14L8.99987 2983.17L12.9999 2983.17L12.9999 2973.14L8.99987 2973.14ZM8.99987 2993.19L8.99987 3003.22L12.9999 3003.22L12.9999 2993.19L8.99987 2993.19ZM8.99987 3013.24L8.99987 3023.26L12.9999 3023.26L12.9999 3013.24L8.99987 3013.24ZM8.99987 3033.29L8.99987 3043.31L12.9999 3043.31L12.9999 3033.29L8.99987 3033.29ZM8.99987 3053.34L8.99987 3063.36L12.9999 3063.36L12.9999 3053.34L8.99987 3053.34ZM8.99987 3073.39L8.99987 3083.41L12.9999 3083.41L12.9999 3073.39L8.99987 3073.39ZM8.99987 3093.43L8.99986 3103.46L12.9999 3103.46L12.9999 3093.43L8.99987 3093.43ZM8.99986 3113.48L8.99986 3123.51L12.9999 3123.51L12.9999 3113.48L8.99986 3113.48ZM8.99986 3133.53L8.99986 3143.55L12.9999 3143.55L12.9999 3133.53L8.99986 3133.53ZM8.99986 3153.58L8.99986 3163.6L12.9999 3163.6L12.9999 3153.58L8.99986 3153.58ZM8.99986 3173.63L8.99986 3183.65L12.9999 3183.65L12.9999 3173.63L8.99986 3173.63ZM8.99986 3193.68L8.99986 3203.7L12.9999 3203.7L12.9999 3193.68L8.99986 3193.68ZM8.99986 3213.72L8.99986 3223.75L12.9999 3223.75L12.9999 3213.72L8.99986 3213.72ZM8.99986 3233.77L8.99986 3243.8L12.9999 3243.8L12.9999 3233.77L8.99986 3233.77ZM8.99986 3253.82L8.99986 3263.84L12.9999 3263.84L12.9999 3253.82L8.99986 3253.82ZM8.99986 3273.87L8.99986 3283.89L12.9999 3283.89L12.9999 3273.87L8.99986 3273.87ZM8.99986 3293.92L8.99986 3303.94L12.9999 3303.94L12.9999 3293.92L8.99986 3293.92ZM8.99986 3313.97L8.99986 3323.99L12.9999 3323.99L12.9999 3313.97L8.99986 3313.97ZM8.99985 3334.01L8.99985 3344.04L12.9999 3344.04L12.9999 3334.01L8.99985 3334.01ZM8.99985 3354.06L8.99985 3364.09L12.9999 3364.09L12.9999 3354.06L8.99985 3354.06ZM8.99985 3374.11L8.99985 3384.13L12.9999 3384.13L12.9999 3374.11L8.99985 3374.11ZM8.99985 3394.16L8.99985 3404.18L12.9999 3404.18L12.9999 3394.16L8.99985 3394.16ZM8.99985 3414.21L8.99985 3424.23L12.9999 3424.23L12.9999 3414.21L8.99985 3414.21ZM8.99985 3434.26L8.99985 3444.28L12.9998 3444.28L12.9999 3434.26L8.99985 3434.26ZM8.99985 3454.3L8.99985 3464.33L12.9998 3464.33L12.9998 3454.3L8.99985 3454.3ZM8.99985 3474.35L8.99985 3484.38L12.9998 3484.38L12.9998 3474.35L8.99985 3474.35ZM8.99985 3494.4L8.99985 3504.42L12.9998 3504.42L12.9998 3494.4L8.99985 3494.4ZM8.99985 3514.45L8.99985 3524.47L12.9998 3524.47L12.9998 3514.45L8.99985 3514.45ZM8.99985 3534.5L8.99985 3544.52L12.9998 3544.52L12.9998 3534.5L8.99985 3534.5ZM8.99985 3554.55L8.99984 3564.57L12.9998 3564.57L12.9998 3554.55L8.99985 3554.55ZM8.99984 3574.59L8.99984 3584.62L12.9998 3584.62L12.9998 3574.59L8.99984 3574.59ZM8.99984 3594.64L8.99984 3604.67L12.9998 3604.67L12.9998 3594.64L8.99984 3594.64ZM8.99984 3614.69L8.99984 3624.71L12.9998 3624.71L12.9998 3614.69L8.99984 3614.69ZM8.99984 3634.74L8.99984 3644.76L12.9998 3644.76L12.9998 3634.74L8.99984 3634.74ZM8.99984 3654.79L8.99984 3664.81L12.9998 3664.81L12.9998 3654.79L8.99984 3654.79ZM8.99984 3674.84L8.99984 3684.86L12.9998 3684.86L12.9998 3674.84L8.99984 3674.84ZM8.99984 3694.88L8.99984 3704.91L12.9998 3704.91L12.9998 3694.88L8.99984 3694.88ZM8.99984 3714.93L8.99984 3724.96L12.9998 3724.96L12.9998 3714.93L8.99984 3714.93ZM8.99984 3734.98L8.99984 3740L12.9998 3740L12.9998 3734.98L8.99984 3734.98Z" fill="url(#paint0_linear_412_6785)"/>
<defs>
<linearGradient id="paint0_linear_412_6785" x1="11" y1="418.263" x2="5.93772" y2="3739.99" gradientUnits="userSpaceOnUse">
<stop stop-color="#8B97FF"/>
<stop offset="1" stop-color="#EDEFFF"/>
</linearGradient>
</defs>
</svg>
