<svg width="100" height="88" viewBox="0 0 100 88" fill="none" xmlns="http://www.w3.org/2000/svg">
<path d="M75.039 33.1461C74.9297 33.1539 74.8203 33.1539 74.7109 33.1539C73.5853 33.1473 72.4667 32.9762 71.3906 32.6461L69.8203 40.0914H73.0234L74.2187 34.3961L75.414 40.0914H78.6093L77.0937 32.8882C77 32.9117 76.9062 32.9429 76.8047 32.9586C76.2222 33.069 75.6317 33.1317 75.039 33.1461ZM57.5078 3.1445C57.0286 2.01059 56.1278 1.10713 54.9953 0.624685C53.8627 0.142238 52.5871 0.118529 51.4375 0.558558C50.8556 0.773088 50.3231 1.10307 49.872 1.52867C49.4209 1.95426 49.0605 2.46668 48.8125 3.03512C48.5723 3.58765 48.4452 4.18265 48.4384 4.78508C48.4317 5.38751 48.5456 5.98519 48.7734 6.54293L58.625 30.3179L59.5937 40.0914H62.7343L61.7109 29.7789C61.693 29.6265 61.6563 29.4769 61.6015 29.3336L51.664 5.35543C51.595 5.18504 51.5608 5.00253 51.5635 4.81869C51.5662 4.63486 51.6057 4.45343 51.6797 4.28512C51.763 4.0998 51.8827 3.93309 52.0317 3.79487C52.1806 3.65665 52.3558 3.54973 52.5468 3.48043C52.9379 3.32491 53.3742 3.32857 53.7626 3.49063C54.1509 3.65269 54.4605 3.96028 54.625 4.34762L61.7578 20.9812C61.6208 20.222 61.5321 19.4548 61.4922 18.6843C61.4243 17.0096 61.6113 15.3342 62.0468 13.7156L57.5078 3.1445ZM90.625 40.0914V31.5289C90.624 30.02 90.2583 28.5336 89.5591 27.1965C88.8599 25.8593 87.8479 24.711 86.6093 23.8492C86.269 24.864 85.8239 25.8406 85.2812 26.7632C85.977 27.3471 86.5362 28.0764 86.9196 28.8998C87.3029 29.7232 87.501 30.6206 87.5 31.5289V40.0914H90.625ZM84.357 17.9507C84.0914 11.4711 79.4961 6.332 74.0242 6.48434C72.8404 6.53265 71.6782 6.81705 70.6058 7.32083C69.5335 7.8246 68.5726 8.5376 67.7797 9.41793C65.5568 11.9258 64.4197 15.2132 64.6179 18.5586C64.8789 24.9429 69.3789 30.0289 74.707 30.0289C74.7875 30.0289 74.8695 30.0273 74.95 30.025C76.1336 29.9766 77.2956 29.6923 78.3678 29.1886C79.44 28.685 80.4008 27.9722 81.1937 27.0922C83.4177 24.5841 84.5556 21.2962 84.3578 17.95L84.357 17.9507ZM35.9765 33.1453C35.8672 33.1531 35.7578 33.1531 35.6484 33.1531C34.5228 33.1465 33.4042 32.9754 32.3281 32.6453L30.7578 40.0906H33.9609L35.1562 34.3953L36.3515 40.0906H39.5468L38.0312 32.8875C37.9375 32.9109 37.8437 32.9422 37.7422 32.9578C37.1597 33.0682 36.5692 33.1309 35.9765 33.1453ZM12.375 0.558558C11.7931 0.773088 11.2606 1.10307 10.8095 1.52867C10.3584 1.95426 9.99797 2.46668 9.74997 3.03512C9.50982 3.58765 9.38266 4.18265 9.37595 4.78508C9.36924 5.38751 9.48313 5.98519 9.71091 6.54293L19.5625 30.3179L20.5312 40.0914H23.6718L22.6484 29.7789C22.6305 29.6265 22.5938 29.4769 22.539 29.3336L12.6015 5.35543C12.5325 5.18504 12.4983 5.00253 12.501 4.81869C12.5037 4.63486 12.5432 4.45343 12.6172 4.28512C12.7005 4.0998 12.8202 3.93309 12.9692 3.79487C13.1181 3.65665 13.2933 3.54973 13.4843 3.48043C13.8754 3.32491 14.3117 3.32857 14.7001 3.49063C15.0884 3.65269 15.398 3.96028 15.5625 4.34762L22.6953 20.9812C22.5583 20.222 22.4696 19.4548 22.4297 18.6843C22.3618 17.0096 22.5488 15.3342 22.9843 13.7156L18.4453 3.14528C17.9661 2.01137 17.0653 1.10791 15.9328 0.625465C14.8002 0.143019 13.5246 0.118529 12.375 0.558558ZM47.5468 23.8484C47.2065 24.8632 46.7614 25.8399 46.2187 26.7625C46.9145 27.3463 47.4737 28.0756 47.8571 28.899C48.2404 29.7224 48.4385 30.6198 48.4375 31.5281V40.0914H51.5625V31.5289C51.5615 30.02 51.1958 28.5336 50.4966 27.1965C49.7974 25.8593 48.7855 24.7102 47.5468 23.8484ZM45.2945 17.95C45.0289 11.4711 40.432 6.332 34.9617 6.48434C33.7779 6.53265 32.6157 6.81705 31.5433 7.32083C30.471 7.8246 29.5101 8.5376 28.7172 9.41793C26.4943 11.9258 25.3572 15.2132 25.5554 18.5586C25.8164 24.9429 30.3164 30.0289 35.6445 30.0289C35.725 30.0289 35.807 30.0273 35.8875 30.025C37.0711 29.9766 38.2331 29.6923 39.3053 29.1886C40.3775 28.685 41.3383 27.9722 42.1312 27.0922C44.3552 24.5841 45.4923 21.2962 45.2945 17.95ZM3.12497 86.1875C3.1262 86.6015 3.29122 86.9982 3.58398 87.291C3.87674 87.5837 4.27345 87.7487 4.68747 87.75H95.3125C95.7265 87.7487 96.1232 87.5837 96.416 87.291C96.7087 86.9982 96.8737 86.6015 96.875 86.1875V55.4218H3.12497V86.1875ZM95.3125 43.2187H4.68747C3.58756 43.2175 2.52231 43.6035 1.67843 44.3089C0.83455 45.0144 0.265873 45.9943 0.0720671 47.077C-0.121739 48.1598 0.0716917 49.2761 0.618457 50.2305C1.16522 51.1849 2.03044 51.9164 3.06247 52.2968H96.9375C97.9695 51.9164 98.8347 51.1849 99.3815 50.2305C99.9282 49.2761 100.122 48.1598 99.9279 47.077C99.7341 45.9943 99.1654 45.0144 98.3215 44.3089C97.4776 43.6035 96.4124 43.2175 95.3125 43.2187Z" fill="#5831C8"/>
</svg>
