<svg width="60" height="60" viewBox="0 0 60 60" fill="none" xmlns="http://www.w3.org/2000/svg">
<circle cx="30" cy="30" r="30" fill="#978FFD"/>
<circle cx="30" cy="30" r="24" fill="white" fill-opacity="0.75"/>
<path d="M16.9384 15.88H19.8584C20.5884 15.88 21.1684 16.05 21.5984 16.38C22.0184 16.71 22.2384 17.23 22.2384 17.93C22.2384 19.37 21.4284 20.08 19.8084 20.08H17.8784V23H16.9384V15.88ZM17.8684 16.69V19.29H19.6784C20.1884 19.29 20.5884 19.2 20.8684 19.01C21.1484 18.82 21.2884 18.48 21.2884 17.99C21.2884 17.72 21.2484 17.49 21.1584 17.31C21.0684 17.13 20.9384 17 20.7584 16.91C20.5884 16.83 20.4084 16.77 20.2184 16.74C20.0384 16.71 19.8084 16.69 19.5484 16.69H17.8684ZM24.0828 15.88V18.57C24.4628 18 25.0228 17.71 25.7728 17.71C26.9328 17.71 27.5128 18.3 27.5128 19.47V23H26.6628V19.67C26.6628 19.28 26.5728 18.98 26.4128 18.77C26.2528 18.56 25.9528 18.45 25.5328 18.45C25.0128 18.45 24.6328 18.62 24.4128 18.95C24.1928 19.29 24.0828 19.76 24.0828 20.38V23H23.2328V15.88H24.0828ZM33.3594 22.32V22.99C33.1794 23.05 32.9894 23.09 32.7794 23.09C32.2894 23.09 32.0394 22.83 32.0294 22.33C31.5394 22.87 30.9194 23.15 30.1594 23.15C29.6494 23.15 29.2494 23.02 28.9494 22.76C28.6494 22.5 28.5094 22.14 28.5094 21.69C28.5094 20.77 29.1194 20.23 30.3394 20.08C30.4194 20.06 30.5294 20.05 30.6894 20.04C31.2694 19.97 31.6194 19.89 31.7594 19.81C31.9094 19.7 31.9894 19.52 31.9894 19.26C31.9894 18.69 31.5994 18.41 30.8194 18.41C30.4194 18.41 30.1094 18.49 29.9094 18.65C29.6994 18.81 29.5794 19.08 29.5394 19.46H28.7094C28.7194 18.9 28.9194 18.47 29.2994 18.17C29.6794 17.86 30.1994 17.71 30.8694 17.71C31.5894 17.71 32.1294 17.87 32.4894 18.21C32.5994 18.31 32.6794 18.45 32.7394 18.63C32.7894 18.8 32.8194 18.94 32.8294 19.05C32.8294 19.16 32.8394 19.33 32.8394 19.55C32.8394 19.8 32.8294 20.18 32.8194 20.69C32.7994 21.21 32.7994 21.59 32.7994 21.84C32.7994 22.03 32.8194 22.16 32.8694 22.24C32.9194 22.32 33.0094 22.35 33.1494 22.35C33.1994 22.35 33.2694 22.34 33.3594 22.32ZM31.9894 20.33C31.9294 20.37 31.8594 20.41 31.7994 20.45C31.7294 20.48 31.6394 20.51 31.5394 20.53C31.4394 20.55 31.3694 20.56 31.3294 20.57C31.2894 20.58 31.2094 20.59 31.0694 20.61C30.9294 20.63 30.8494 20.64 30.8494 20.64C30.6394 20.66 30.4994 20.68 30.4394 20.69C30.3794 20.7 30.2594 20.73 30.0794 20.78C29.8994 20.82 29.7794 20.88 29.7094 20.94C29.6294 21 29.5594 21.08 29.4894 21.2C29.4194 21.32 29.3894 21.46 29.3894 21.62C29.3894 21.88 29.4794 22.09 29.6594 22.25C29.8394 22.4 30.0994 22.48 30.4194 22.48C30.8194 22.48 31.1894 22.36 31.5094 22.12C31.8294 21.88 31.9894 21.59 31.9894 21.27V20.33ZM37.9905 19.34H37.1405C37.0805 18.72 36.6605 18.4 35.8805 18.4C35.5505 18.4 35.2905 18.47 35.1105 18.59C34.9205 18.72 34.8305 18.89 34.8305 19.1C34.8305 19.16 34.8305 19.22 34.8505 19.28C34.8605 19.34 34.8805 19.39 34.9205 19.43C34.9605 19.47 34.9905 19.51 35.0205 19.54C35.0505 19.58 35.1005 19.61 35.1705 19.64C35.2405 19.67 35.2905 19.69 35.3305 19.71C35.3705 19.73 35.4305 19.76 35.5305 19.78C35.6305 19.8 35.7005 19.82 35.7405 19.83C35.7805 19.84 35.8505 19.86 35.9705 19.88C36.0905 19.91 36.1605 19.93 36.2005 19.93C36.4405 19.99 36.6305 20.03 36.7505 20.06C36.8705 20.1 37.0405 20.16 37.2605 20.25C37.4805 20.34 37.6405 20.43 37.7605 20.53C37.8705 20.63 37.9705 20.76 38.0605 20.93C38.1505 21.1 38.2005 21.29 38.2005 21.5C38.2005 22 38.0005 22.41 37.6105 22.71C37.2205 23.01 36.7005 23.16 36.0605 23.16C35.3605 23.16 34.8205 23.01 34.4405 22.7C34.0605 22.4 33.8605 21.95 33.8405 21.37H34.6805C34.7205 22.1 35.1905 22.46 36.0805 22.46C36.4605 22.46 36.7605 22.39 36.9905 22.23C37.2205 22.07 37.3405 21.86 37.3405 21.6C37.3405 21.43 37.2805 21.29 37.1605 21.17C37.0405 21.06 36.9005 20.98 36.7605 20.93C36.6105 20.88 36.4005 20.82 36.1305 20.75C36.0905 20.75 36.0605 20.74 36.0405 20.73C35.9805 20.72 35.8505 20.69 35.6505 20.65C35.4505 20.61 35.3105 20.57 35.2305 20.54C35.1405 20.52 35.0105 20.48 34.8505 20.42C34.6905 20.36 34.5705 20.3 34.4905 20.24C34.4105 20.18 34.3205 20.1 34.2205 20C34.1205 19.9 34.0605 19.79 34.0205 19.66C33.9805 19.53 33.9605 19.38 33.9605 19.21C33.9605 18.75 34.1305 18.38 34.4905 18.1C34.8505 17.83 35.3305 17.69 35.9305 17.69C36.5305 17.69 37.0305 17.84 37.4105 18.12C37.7905 18.41 37.9905 18.82 37.9905 19.34ZM43.5705 21.37C43.3105 22.57 42.5605 23.17 41.3205 23.17C40.5605 23.17 39.9605 22.94 39.5305 22.46C39.1005 21.99 38.8905 21.33 38.8905 20.49C38.8905 19.66 39.1105 18.99 39.5505 18.47C39.9905 17.95 40.5705 17.69 41.2905 17.69C42.0805 17.69 42.6705 17.96 43.0505 18.5C43.4305 19.04 43.6305 19.71 43.6305 20.53V20.65H39.7505L39.7405 20.71C39.7405 21.26 39.8805 21.69 40.1705 22C40.4505 22.32 40.8505 22.47 41.3505 22.47C41.7205 22.47 42.0105 22.39 42.2305 22.21C42.4505 22.04 42.6205 21.76 42.7405 21.37H43.5705ZM42.7505 19.96C42.7105 19.47 42.5605 19.09 42.3005 18.81C42.0405 18.53 41.6905 18.39 41.2705 18.39C40.8505 18.39 40.5105 18.53 40.2405 18.81C39.9605 19.09 39.8005 19.48 39.7505 19.96H42.7505Z" fill="#5A6573"/>
<path d="M32.5997 29.6V45H29.2777V34.99H25.5377V32.68H25.9337C28.2657 32.68 29.6297 31.668 30.0257 29.6H32.5997Z" fill="#132337"/>
</svg>
