<svg width="24" height="24" viewBox="0 0 24 24" fill="none" xmlns="http://www.w3.org/2000/svg">
<g clip-path="url(#clip0_477_458)">
<path d="M22.5413 11.5417C22.798 11.5417 22.9997 11.7434 22.9997 12.0001C22.9997 12.2567 22.798 12.4584 22.5413 12.4584H22.083V11.5417H22.5413ZM12.458 11.5417H22.083V12.4584H12.458V11.5417Z" fill="white"/>
<path d="M22.083 12.4584H22.5413C22.798 12.4584 22.9997 12.2567 22.9997 12.0001C22.9997 11.7434 22.798 11.5417 22.5413 11.5417H22.083M22.083 12.4584V11.5417M22.083 12.4584H12.458V11.5417H22.083" stroke="white" stroke-width="0.3"/>
<path d="M20.7083 23H12C12.2567 23 12.4583 22.7983 12.4583 22.5417V22.0833H20.7083C21.4692 22.0833 22.0833 21.4692 22.0833 20.7083V12.4583H22.5417C22.7983 12.4583 23 12.2567 23 12V20.7083C23 21.0093 22.9407 21.3073 22.8256 21.5853C22.7104 21.8634 22.5416 22.116 22.3288 22.3288C22.116 22.5416 21.8634 22.7104 21.5853 22.8256C21.3073 22.9407 21.0093 23 20.7083 23ZM23 3.29167V12C23 11.7433 22.7983 11.5417 22.5417 11.5417H22.0833V3.29167C22.0833 2.53083 21.4692 1.91667 20.7083 1.91667H12.4583V1.45833C12.4583 1.20167 12.2567 1 12 1H20.7083C21.0093 1 21.3073 1.05928 21.5853 1.17444C21.8634 1.28961 22.116 1.45841 22.3288 1.67121C22.5416 1.88401 22.7104 2.13665 22.8256 2.41468C22.9407 2.69272 23 2.99072 23 3.29167Z" fill="white"/>
<path d="M23 12C23 12.2567 22.7983 12.4583 22.5417 12.4583H22.0833V20.7083C22.0833 21.4692 21.4692 22.0833 20.7083 22.0833H12.4583V22.5417C12.4583 22.7983 12.2567 23 12 23H20.7083C21.0093 23 21.3073 22.9407 21.5853 22.8256C21.8634 22.7104 22.116 22.5416 22.3288 22.3288C22.5416 22.116 22.7104 21.8634 22.8256 21.5853C22.9407 21.3073 23 21.0093 23 20.7083V12ZM23 12V3.29167C23 2.99072 22.9407 2.69272 22.8256 2.41468C22.7104 2.13665 22.5416 1.88401 22.3288 1.67121C22.116 1.45841 21.8634 1.28961 21.5853 1.17444C21.3073 1.05928 21.0093 1 20.7083 1H12C12.2567 1 12.4583 1.20167 12.4583 1.45833V1.91667H20.7083C21.4692 1.91667 22.0833 2.53083 22.0833 3.29167V11.5417H22.5417C22.7983 11.5417 23 11.7433 23 12Z" stroke="white" stroke-width="0.3"/>
<path d="M19.3337 6.5C19.5903 6.5 19.792 6.70167 19.792 6.95833C19.792 7.215 19.5903 7.41667 19.3337 7.41667H15.667C15.4103 7.41667 15.2087 7.215 15.2087 6.95833C15.2087 6.70167 15.4103 6.5 15.667 6.5H19.3337ZM19.3337 15.6667C19.5903 15.6667 19.792 15.8683 19.792 16.125C19.792 16.3817 19.5903 16.5833 19.3337 16.5833H15.667C15.4103 16.5833 15.2087 16.3817 15.2087 16.125C15.2087 15.8683 15.4103 15.6667 15.667 15.6667H19.3337ZM19.3337 18.4167C19.5903 18.4167 19.792 18.6183 19.792 18.875C19.792 19.1317 19.5903 19.3333 19.3337 19.3333H15.667C15.4103 19.3333 15.2087 19.1317 15.2087 18.875C15.2087 18.6183 15.4103 18.4167 15.667 18.4167H19.3337ZM12.4587 22.0833V22.5417C12.4587 22.7983 12.257 23 12.0003 23C11.7437 23 11.542 22.7983 11.542 22.5417V22.0833H12.4587ZM11.542 12.4583H12.4587V22.0833H11.542V12.4583ZM11.542 11.5417H12.4587V12.4583H11.542V11.5417ZM11.542 1.91667H12.4587V11.5417H11.542V1.91667ZM12.4587 1.45833V1.91667H11.542V1.45833C11.542 1.20167 11.7437 1 12.0003 1C12.257 1 12.4587 1.20167 12.4587 1.45833ZM1.91699 11.5417H11.542V12.4583H1.91699V11.5417ZM8.33366 6.5C8.59033 6.5 8.79199 6.70167 8.79199 6.95833C8.79199 7.215 8.59033 7.41667 8.33366 7.41667H6.95866V6.5H8.33366ZM8.19616 18.5542C8.37949 18.7283 8.37949 19.0217 8.19616 19.1958C8.11366 19.2875 7.99449 19.3333 7.87533 19.3333C7.75616 19.3333 7.63699 19.2875 7.55449 19.1958L6.50033 18.1417L7.14199 17.5L8.19616 18.5542ZM7.55449 15.8042C7.72866 15.6208 8.02199 15.6208 8.19616 15.8042C8.37949 15.9783 8.37949 16.2717 8.19616 16.4458L7.14199 17.5L6.50033 16.8583L7.55449 15.8042ZM5.85591 17.4991L6.49758 16.8574L7.13924 17.4991L6.49758 18.1407L5.85591 17.4991ZM6.95866 7.41667V8.79167C6.95866 9.04833 6.75699 9.25 6.50033 9.25C6.24366 9.25 6.04199 9.04833 6.04199 8.79167V7.41667H6.95866ZM6.04199 6.5H6.95866V7.41667H6.04199V6.5ZM6.95866 5.125V6.5H6.04199V5.125C6.04199 4.86833 6.24366 4.66667 6.50033 4.66667C6.75699 4.66667 6.95866 4.86833 6.95866 5.125Z" fill="white"/>
<path d="M12.4587 22.0833V22.5417C12.4587 22.7983 12.257 23 12.0003 23C11.7437 23 11.542 22.7983 11.542 22.5417V22.0833M12.4587 22.0833H11.542M12.4587 22.0833V12.4583M11.542 22.0833V12.4583M11.542 12.4583H12.4587M11.542 12.4583V11.5417M11.542 12.4583H1.91699V11.5417H11.542M12.4587 12.4583V11.5417M11.542 11.5417H12.4587M11.542 11.5417V1.91667M12.4587 11.5417V1.91667M11.542 1.91667H12.4587M11.542 1.91667V1.45833C11.542 1.20167 11.7437 1 12.0003 1C12.257 1 12.4587 1.20167 12.4587 1.45833V1.91667M6.95866 7.41667H8.33366C8.59033 7.41667 8.79199 7.215 8.79199 6.95833C8.79199 6.70167 8.59033 6.5 8.33366 6.5H6.95866M6.95866 7.41667V6.5M6.95866 7.41667V8.79167C6.95866 9.04833 6.75699 9.25 6.50033 9.25C6.24366 9.25 6.04199 9.04833 6.04199 8.79167V7.41667M6.95866 7.41667H6.04199M6.95866 6.5H6.04199M6.95866 6.5V5.125C6.95866 4.86833 6.75699 4.66667 6.50033 4.66667C6.24366 4.66667 6.04199 4.86833 6.04199 5.125V6.5M7.14199 17.5L6.50033 18.1417L7.55449 19.1958C7.63699 19.2875 7.75616 19.3333 7.87533 19.3333C7.99449 19.3333 8.11366 19.2875 8.19616 19.1958C8.37949 19.0217 8.37949 18.7283 8.19616 18.5542L7.14199 17.5ZM7.14199 17.5L8.19616 16.4458C8.37949 16.2717 8.37949 15.9783 8.19616 15.8042C8.02199 15.6208 7.72866 15.6208 7.55449 15.8042L6.50033 16.8583L7.14199 17.5ZM6.04199 7.41667V6.5M19.3337 6.5C19.5903 6.5 19.792 6.70167 19.792 6.95833C19.792 7.215 19.5903 7.41667 19.3337 7.41667H15.667C15.4103 7.41667 15.2087 7.215 15.2087 6.95833C15.2087 6.70167 15.4103 6.5 15.667 6.5H19.3337ZM19.3337 15.6667C19.5903 15.6667 19.792 15.8683 19.792 16.125C19.792 16.3817 19.5903 16.5833 19.3337 16.5833H15.667C15.4103 16.5833 15.2087 16.3817 15.2087 16.125C15.2087 15.8683 15.4103 15.6667 15.667 15.6667H19.3337ZM19.3337 18.4167C19.5903 18.4167 19.792 18.6183 19.792 18.875C19.792 19.1317 19.5903 19.3333 19.3337 19.3333H15.667C15.4103 19.3333 15.2087 19.1317 15.2087 18.875C15.2087 18.6183 15.4103 18.4167 15.667 18.4167H19.3337ZM5.85591 17.4991L6.49758 16.8574L7.13924 17.4991L6.49758 18.1407L5.85591 17.4991Z" stroke="white" stroke-width="0.3"/>
<path d="M6.5 16.8583L5.85833 17.5L4.80417 16.4458C4.62083 16.2717 4.62083 15.9783 4.80417 15.8042C4.97833 15.6208 5.27167 15.6208 5.44583 15.8042L6.5 16.8583ZM6.04167 6.5V7.41667H4.66667C4.41 7.41667 4.20833 7.215 4.20833 6.95833C4.20833 6.70167 4.41 6.5 4.66667 6.5H6.04167ZM5.44583 19.1958C5.36333 19.2875 5.24417 19.3333 5.125 19.3333C5.00583 19.3333 4.88667 19.2875 4.80417 19.1958C4.62083 19.0217 4.62083 18.7283 4.80417 18.5542L5.85833 17.5L6.5 18.1417L5.44583 19.1958ZM1.91667 11.5417V12.4583H1.45833C1.20167 12.4583 1 12.2567 1 12C1 11.7433 1.20167 11.5417 1.45833 11.5417H1.91667Z" fill="white"/>
<path d="M5.85833 17.5L6.5 16.8583L5.44583 15.8042C5.27167 15.6208 4.97833 15.6208 4.80417 15.8042C4.62083 15.9783 4.62083 16.2717 4.80417 16.4458L5.85833 17.5ZM5.85833 17.5L4.80417 18.5542C4.62083 18.7283 4.62083 19.0217 4.80417 19.1958C4.88667 19.2875 5.00583 19.3333 5.125 19.3333C5.24417 19.3333 5.36333 19.2875 5.44583 19.1958L6.5 18.1417L5.85833 17.5ZM6.04167 6.5V7.41667H4.66667C4.41 7.41667 4.20833 7.215 4.20833 6.95833C4.20833 6.70167 4.41 6.5 4.66667 6.5H6.04167ZM1.91667 11.5417V12.4583H1.45833C1.20167 12.4583 1 12.2567 1 12C1 11.7433 1.20167 11.5417 1.45833 11.5417H1.91667Z" stroke="white" stroke-width="0.3"/>
<path d="M1 3.29167C1 2.68388 1.24144 2.10098 1.67121 1.67121C2.10098 1.24144 2.68388 1 3.29167 1L12 1C11.7433 1 11.5417 1.20167 11.5417 1.45833V1.91667H3.29167C2.53083 1.91667 1.91667 2.53083 1.91667 3.29167V11.5417H1.45833C1.20167 11.5417 1 11.7433 1 12V3.29167ZM1.91667 20.7083C1.91667 21.4692 2.53083 22.0833 3.29167 22.0833H11.5417V22.5417C11.5417 22.7983 11.7433 23 12 23H3.29167C2.99072 23 2.69272 22.9407 2.41468 22.8256C2.13665 22.7104 1.88401 22.5416 1.67121 22.3288C1.45841 22.116 1.28961 21.8634 1.17444 21.5853C1.05928 21.3073 1 21.0093 1 20.7083L1 12C1 12.2567 1.20167 12.4583 1.45833 12.4583H1.91667V20.7083Z" fill="white"/>
<path d="M1 12C1 11.7433 1.20167 11.5417 1.45833 11.5417H1.91667V3.29167C1.91667 2.53083 2.53083 1.91667 3.29167 1.91667H11.5417V1.45833C11.5417 1.20167 11.7433 1 12 1L3.29167 1C2.68388 1 2.10098 1.24144 1.67121 1.67121C1.24144 2.10098 1 2.68388 1 3.29167V12ZM1 12L1 20.7083C1 21.0093 1.05928 21.3073 1.17444 21.5853C1.28961 21.8634 1.45841 22.116 1.67121 22.3288C1.88401 22.5416 2.13665 22.7104 2.41468 22.8256C2.69272 22.9407 2.99072 23 3.29167 23H12C11.7433 23 11.5417 22.7983 11.5417 22.5417V22.0833H3.29167C2.53083 22.0833 1.91667 21.4692 1.91667 20.7083V12.4583H1.45833C1.20167 12.4583 1 12.2567 1 12Z" stroke="white" stroke-width="0.3"/>
</g>
<defs>
<clipPath id="clip0_477_458">
<rect width="24" height="24" fill="white"/>
</clipPath>
</defs>
</svg>
