<svg width="140" height="121" viewBox="0 0 140 121" fill="none" xmlns="http://www.w3.org/2000/svg">
<path d="M41.6122 19.2485C64.594 19.2485 83.2244 37.879 83.2244 60.8607C83.2244 74.2358 76.8962 86.2864 66.8226 93.969V99.7145H74.4159C76.0286 99.7145 77.3366 101.023 77.3366 102.635V117.775C77.3366 119.388 76.0286 120.696 74.4159 120.696H8.80857C7.19587 120.696 5.88784 119.388 5.88784 117.775V102.635C5.88784 101.023 7.19587 99.7145 8.80857 99.7145H16.4018V93.969C6.32826 86.2864 0 74.2358 0 60.8607C0 37.879 18.6305 19.2485 41.6122 19.2485ZM41.6122 57.94C48.8445 57.94 54.7092 63.8046 54.7092 71.0369C54.7092 77.1168 50.5433 82.3192 44.7813 83.7498V88.8495C44.7813 90.4622 43.4733 91.7702 41.8606 91.7702C40.2479 91.7702 38.9398 90.4622 38.9398 88.8495V83.8624C32.9328 82.6172 28.512 77.3023 28.512 71.0369C28.512 69.4242 29.82 68.1162 31.4327 68.1162C33.0454 68.1162 34.3534 69.4242 34.3534 71.0369C34.3534 75.0472 37.602 78.2957 41.6122 78.2957C45.6191 78.2957 48.871 75.0472 48.871 71.0369C48.871 67.03 45.6191 63.7815 41.6122 63.7815C34.3766 63.7815 28.512 57.9168 28.512 50.6812C28.512 44.4192 32.9328 39.1009 38.9398 37.8558V32.8687C38.9398 31.256 40.2479 29.9479 41.8606 29.9479C43.4733 29.9479 44.7813 31.256 44.7813 32.8687V37.9684C50.5433 39.4023 54.7092 44.6013 54.7092 50.6812C54.7092 52.2939 53.4044 53.6019 51.7884 53.6019C50.1757 53.6019 48.871 52.2939 48.871 50.6812C48.871 46.6743 45.6191 43.4257 41.6122 43.4257C37.602 43.4257 34.3534 46.6743 34.3534 50.6812C34.3534 54.6914 37.602 57.94 41.6122 57.94ZM118.409 43.0317V99.3138C123.098 99.9595 126.681 104 126.681 108.805C126.681 114.08 122.376 118.385 117.101 118.385H102.381C97.1095 118.385 92.8046 114.08 92.8046 108.805C92.8046 104 96.3876 99.9595 101.073 99.3138V43.0317H99.7885C98.1758 43.0317 96.8678 41.7269 96.8678 40.1109C96.8678 36.9749 96.6393 34.9417 96.285 33.7528C95.6194 34.8589 95.1392 36.5709 95.1392 38.4287C95.1392 41.1607 92.9172 43.3827 90.1852 43.3827H84.7179C81.9893 43.3827 79.7673 41.1607 79.7673 38.4287V5.55548C79.7673 2.82681 81.9893 0.604802 84.7179 0.604802H90.1852C92.9172 0.604802 95.1392 2.82681 95.1392 5.55548C95.1392 7.33044 95.573 8.90672 96.1823 9.92003C96.5963 8.71134 96.8678 6.56549 96.8678 3.17452C96.8678 1.56182 98.1758 0.253784 99.7885 0.253784H119.697C121.31 0.253784 122.615 1.56182 122.615 3.17452C122.615 6.74762 122.926 8.93983 123.386 10.1088C124.098 9.09878 124.625 7.41986 124.625 5.55548C124.625 2.82681 126.85 0.604802 129.579 0.604802H135.046C137.775 0.604802 140 2.82681 140 5.55548V38.4287C140 41.1607 137.775 43.3827 135.046 43.3827H129.579C126.85 43.3827 124.625 41.1607 124.625 38.4287C124.625 36.4815 124.049 34.6635 123.277 33.5542C122.88 34.7099 122.615 36.7928 122.615 40.1109C122.615 41.7269 121.31 43.0317 119.697 43.0317H118.409ZM106.915 43.0317V102.145C106.915 103.758 105.607 105.066 103.994 105.066H102.381C100.332 105.066 98.6428 106.755 98.6428 108.805C98.6428 110.854 100.332 112.543 102.381 112.543H117.101C119.151 112.543 120.84 110.854 120.84 108.805C120.84 106.755 119.151 105.066 117.101 105.066H115.492C113.876 105.066 112.571 103.758 112.571 102.145V43.0317H106.915ZM85.6054 6.44296V37.5412H89.3242C89.5891 33.1435 91.99 27.5471 96.1393 27.1398C97.5831 27.0007 98.9441 27.4908 100.087 28.7691C101.335 30.1632 102.315 32.8356 102.617 37.1935H116.869C117.177 32.7892 118.184 30.1003 119.472 28.6995C120.631 27.4411 122.005 26.961 123.462 27.1067C127.628 27.5206 130.162 33.1137 130.44 37.5412H134.159V6.44296H130.44C130.162 10.8671 127.632 16.1953 123.496 16.4967C122.075 16.5993 120.73 16.1059 119.581 14.8773C118.24 13.4435 117.184 10.6618 116.869 6.09526H102.617C102.309 10.6221 101.279 13.3905 99.9806 14.8244C98.8547 16.0629 97.5235 16.5629 96.1095 16.4635C91.9999 16.1788 89.5891 10.8439 89.3242 6.44296H85.6054ZM60.9811 97.6978C48.8942 104.066 34.3269 104.066 22.2433 97.6978V102.635C22.2433 104.248 20.9353 105.556 19.3226 105.556H11.7293V114.855H71.4951V105.556H63.9019C62.2892 105.556 60.9811 104.248 60.9811 102.635V97.6978ZM66.9054 35.5675C52.9375 21.5964 30.2869 21.5964 16.319 35.5675C2.34785 49.5354 2.34785 72.186 16.319 86.1539C30.2869 100.122 52.9375 100.122 66.9054 86.1539C80.8733 72.186 80.8766 49.5354 66.9054 35.5675Z" fill="#5831C8"/>
</svg>
