<svg width="30" height="30" viewBox="0 0 30 30" fill="none" xmlns="http://www.w3.org/2000/svg">
<path d="M10.4829 22.8968C10.4686 23.0394 10.4809 23.1884 10.5329 23.3361C10.6599 23.6921 10.9579 23.9821 11.3109 24.0914C11.6389 24.1951 11.9652 24.1261 12.0642 24.0184L12.7486 23.2841C12.9466 23.0724 12.9966 22.7341 12.8802 22.4058C12.5939 21.8571 12.2102 21.6591 11.7189 21.5704L10.4829 22.8968ZM9.56755 19.2251L8.37155 20.5078C8.12855 20.7721 8.05888 21.1784 8.19455 21.5678C8.33855 21.9791 8.68222 22.3138 9.09355 22.4388C9.48288 22.5554 9.87355 22.4648 10.1182 22.2044L11.2256 21.0168C11.4702 20.7531 11.5382 20.3488 11.4026 19.9594C11.2586 19.5461 10.9129 19.2128 10.5036 19.0884C10.1769 18.9841 9.79355 18.9801 9.56755 19.2251ZM7.19655 17.1144L6.09222 18.3001C5.84888 18.5624 5.78088 18.9701 5.91522 19.3608C6.05922 19.7708 6.40288 20.1054 6.81422 20.2304C7.20288 20.3488 7.59755 20.2564 7.72055 20.1261L8.94655 18.8104C9.19122 18.5461 9.25922 18.1398 9.12355 17.7511C8.97888 17.3384 8.63522 17.0051 8.22388 16.8814C7.84555 16.7581 7.42688 16.8678 7.19655 17.1144ZM5.03622 14.7771L3.81222 16.0934C3.56755 16.3571 3.49955 16.7614 3.63522 17.1488C3.77788 17.5634 4.12355 17.8968 4.53488 18.0218C4.92355 18.1378 5.31755 18.0478 5.43922 17.9158L6.66655 16.6001V16.5988C6.91122 16.3384 6.97922 15.9334 6.84355 15.5448C6.70155 15.1301 6.35588 14.7968 5.94455 14.6731C5.63022 14.5648 5.24988 14.5461 5.03622 14.7771ZM20.9269 6.92676C20.1352 7.36942 19.0349 7.44876 17.9632 7.52576C17.1526 7.58109 16.3162 7.63976 15.7152 7.86176L12.3736 9.09476C12.3511 9.10345 12.3277 9.10938 12.3039 9.11242C12.1426 9.13776 11.9932 9.15943 11.8592 9.17809C11.0456 9.29276 10.9516 9.32776 10.8579 9.56876C10.7726 9.79142 10.8662 10.1124 11.0976 10.3851C11.2862 10.6091 12.0246 11.3084 13.5436 10.9488L15.4466 10.6974C16.5122 10.5601 17.3666 11.2548 18.0489 11.8154L23.1666 15.9094L23.1706 15.9074C24.1822 15.4841 25.2362 14.9334 26.1322 13.8541L20.9269 6.92676Z" fill="url(#paint0_linear_1018_1349)"/>
<path d="M13.8853 6.6776C13.582 6.7056 13.2343 6.74394 12.8696 6.78194C10.8526 6.99727 9.7343 7.08194 9.1653 6.9766L3.92896 13.7923C4.11311 13.9633 4.27474 14.1571 4.40996 14.3689C4.84763 13.9209 5.50896 13.7609 6.15296 13.9556C6.78496 14.1463 7.31263 14.6586 7.5333 15.2943C7.62696 15.5633 7.6563 15.8393 7.6323 16.1036C7.90019 16.0651 8.17327 16.0858 8.4323 16.1643C9.06263 16.3536 9.5923 16.8673 9.8113 17.5029C9.9063 17.7706 9.9363 18.0459 9.91363 18.3103C10.1816 18.2716 10.4549 18.2931 10.7136 18.3729C11.3426 18.5636 11.87 19.0759 12.0906 19.7083C12.2293 20.1093 12.2346 20.5219 12.122 20.8919C12.1863 20.9043 12.2523 20.9199 12.318 20.9406C12.8823 21.1156 13.3616 21.5793 13.568 22.1509C13.7646 22.7043 13.6793 23.2856 13.3563 23.7029L14.2853 24.4459C14.5126 24.6263 14.844 24.6459 15.1533 24.4959C15.4886 24.3333 15.742 24.0029 15.8166 23.6333C15.8455 23.4865 15.8406 23.3352 15.8023 23.1906L14.624 22.2479C14.5477 22.1857 14.4985 22.0963 14.4868 21.9986C14.4751 21.9008 14.5018 21.8024 14.5613 21.7239C14.5905 21.6855 14.627 21.6533 14.6688 21.6293C14.7106 21.6052 14.7567 21.5897 14.8046 21.5837C14.8524 21.5777 14.901 21.5813 14.9474 21.5944C14.9939 21.6074 15.0372 21.6296 15.075 21.6596L16.4916 22.7949C16.6323 22.9076 17.0353 22.9376 17.405 22.7636C17.7936 22.5779 18.0873 22.1953 18.1686 21.7683C18.2466 21.3646 18.1216 20.9733 17.8436 20.7493L16.5623 19.7239C16.4855 19.6624 16.436 19.5731 16.4242 19.4754C16.4125 19.3777 16.4396 19.2793 16.4996 19.2013C16.5284 19.1625 16.5646 19.1299 16.6063 19.1056C16.648 19.0812 16.6941 19.0655 16.742 19.0595C16.7899 19.0535 16.8385 19.0573 16.8849 19.0706C16.9313 19.0839 16.9745 19.1065 17.012 19.1369L18.8746 20.6266C19.1546 20.8493 19.557 20.8799 19.9286 20.7066C20.314 20.5223 20.6076 20.1403 20.691 19.7086C20.769 19.3049 20.644 18.9149 20.363 18.6889L18.4996 17.2013C18.4227 17.1389 18.3732 17.049 18.3615 16.9506C18.3498 16.8523 18.3769 16.7533 18.437 16.6746C18.4664 16.6364 18.5032 16.6045 18.5451 16.5807C18.587 16.5568 18.6333 16.5416 18.6811 16.5358C18.729 16.5301 18.7776 16.5339 18.8239 16.5471C18.8703 16.5602 18.9136 16.5825 18.9513 16.6126L21.7826 18.8749C21.9233 18.9856 22.3243 19.0169 22.6923 18.8409C23.0816 18.6593 23.3733 18.2773 23.458 17.8469C23.5346 17.4426 23.4096 17.0499 23.13 16.8279L17.5923 12.3963C16.957 11.8753 16.3006 11.3356 15.5383 11.4379L13.6736 11.6813C12.4166 11.9833 11.231 11.6846 10.5453 10.8739C10.132 10.3856 9.9913 9.7816 10.177 9.29594C10.4373 8.62227 10.936 8.5526 11.759 8.4366C11.882 8.42094 12.0143 8.4016 12.16 8.3786L15.4673 7.1586C15.6823 7.0786 15.9203 7.02327 16.1666 6.97427C15.3163 6.64527 14.7 6.6256 13.8853 6.6776ZM6.69796 5.38594C6.09563 5.34027 5.54563 5.79427 4.75396 6.82527L2.7293 9.4626C1.99696 10.4139 1.72263 11.0056 1.7833 11.5069C1.83196 11.9189 2.11863 12.3233 2.40296 12.5513L3.3633 13.3183L8.5783 6.5306L7.9033 5.99027C7.4393 5.62027 7.0593 5.41394 6.69796 5.38594Z" fill="url(#paint1_linear_1018_1349)"/>
<path d="M23.4205 5.37919C23.0592 5.40185 22.6759 5.60385 22.2082 5.96852L21.5259 6.49785L26.6685 13.3409L27.3332 12.8239C27.9082 12.3779 28.2015 11.9789 28.2552 11.5672C28.3215 11.0672 28.0559 10.4709 27.3352 9.50719L25.3435 6.84452C24.5675 5.80285 24.0245 5.34052 23.4205 5.37919Z" fill="url(#paint2_linear_1018_1349)"/>
<defs>
<linearGradient id="paint0_linear_1018_1349" x1="-7.03269" y1="8.75268" x2="23.9854" y2="-1.42369" gradientUnits="userSpaceOnUse">
<stop stop-color="#8B97FF"/>
<stop offset="1" stop-color="#EDEFFF"/>
</linearGradient>
<linearGradient id="paint1_linear_1018_1349" x1="-8.41963" y1="7.42059" x2="22.18" y2="-1.23163" gradientUnits="userSpaceOnUse">
<stop stop-color="#8B97FF"/>
<stop offset="1" stop-color="#EDEFFF"/>
</linearGradient>
<linearGradient id="paint2_linear_1018_1349" x1="18.3605" y1="6.22161" x2="28.1804" y2="4.14171" gradientUnits="userSpaceOnUse">
<stop stop-color="#8B97FF"/>
<stop offset="1" stop-color="#EDEFFF"/>
</linearGradient>
</defs>
</svg>
