<svg width="36" height="40" viewBox="0 0 36 40" fill="none" xmlns="http://www.w3.org/2000/svg">
<path d="M8.21005 0.399414C4.27942 0.399414 1.0813 3.59754 1.0813 7.52816C1.0813 11.4594 4.27942 14.6575 8.21005 14.6575C12.1413 14.6575 15.3394 11.4594 15.3394 7.52816C15.3388 3.59754 12.1413 0.399414 8.21005 0.399414ZM9.31755 11.4632V11.6794C9.31623 11.9843 9.19399 12.2761 8.97767 12.4909C8.76135 12.7057 8.46864 12.8259 8.1638 12.825C7.85907 12.8257 7.56651 12.7055 7.35033 12.4907C7.13415 12.2759 7.012 11.9841 7.01067 11.6794V11.675C6.67026 11.6337 6.33417 11.5624 6.0063 11.4619C5.79332 11.3929 5.61439 11.2458 5.5055 11.0501C5.39661 10.8545 5.36586 10.6249 5.41942 10.4075L5.47005 10.2082C5.52505 9.97004 5.6763 9.76942 5.89255 9.64754C6.00103 9.58688 6.12089 9.54934 6.2446 9.53729C6.3683 9.52524 6.49315 9.53895 6.6113 9.57754C6.81567 9.64754 7.05567 9.70254 7.30755 9.73692C7.47692 9.76379 7.64067 9.77691 7.80942 9.77691C8.16317 9.77691 8.75692 9.70379 8.75692 9.21192C8.75692 8.94004 8.57693 8.71817 7.65817 8.39067C7.49027 8.33221 7.32528 8.26567 7.1638 8.19129C5.9788 7.66566 5.3763 6.89066 5.3763 5.88816C5.3763 4.85691 5.98317 4.01566 7.01005 3.60504V3.37754C7.01121 3.07276 7.13331 2.7809 7.34953 2.56609C7.56574 2.35128 7.85839 2.23108 8.16317 2.23191C8.7988 2.23191 9.31693 2.74566 9.31693 3.37754V3.38691C9.53005 3.41191 9.73567 3.45191 9.94255 3.50691C10.175 3.56941 10.3682 3.71816 10.4869 3.92629C10.6057 4.13316 10.6363 4.37504 10.5738 4.60691L10.5232 4.78066C10.3963 5.24691 9.8988 5.52254 9.41817 5.39191C9.28302 5.35439 9.14621 5.32311 9.00817 5.29816C8.84117 5.27162 8.67228 5.25867 8.50317 5.25941C7.98755 5.25941 7.65442 5.44816 7.65442 5.74004C7.65442 6.02879 7.9088 6.19754 8.8913 6.56254L9.15817 6.66629C10.4432 7.21629 11.0425 7.98691 11.0425 9.09254C11.0425 10.1819 10.4025 11.0563 9.31755 11.4632ZM27.7894 0.399414C23.8588 0.399414 20.6607 3.59754 20.6607 7.52816C20.6607 11.4594 23.8588 14.6575 27.7894 14.6575C31.7207 14.6575 34.9188 11.4594 34.9188 7.52816C34.9188 3.59754 31.7207 0.399414 27.7894 0.399414ZM28.8976 11.4632V11.6794C28.8976 12.3113 28.3801 12.825 27.7438 12.825C27.1076 12.825 26.5907 12.3113 26.5907 11.6794V11.675C26.2503 11.6337 25.9142 11.5624 25.5863 11.4619C25.3733 11.3929 25.1944 11.2458 25.0855 11.0501C24.9766 10.8545 24.9459 10.6249 24.9994 10.4075L25.0501 10.2082C25.1051 9.97004 25.2563 9.76942 25.4726 9.64754C25.581 9.58688 25.7009 9.54934 25.8246 9.53729C25.9483 9.52524 26.0732 9.53895 26.1913 9.57754C26.3957 9.64754 26.6357 9.70254 26.8876 9.73692C27.0569 9.76379 27.2207 9.77691 27.3894 9.77691C27.7432 9.77691 28.3369 9.70379 28.3369 9.21192C28.3369 8.94004 28.1569 8.71817 27.2382 8.39067C27.0703 8.33221 26.9053 8.26567 26.7438 8.19129C25.5588 7.66566 24.9563 6.89066 24.9563 5.88816C24.9563 4.85691 25.5632 4.01566 26.5901 3.60504V3.37691C26.5901 2.74504 27.1069 2.23129 27.7432 2.23129C28.3794 2.23129 28.8969 2.74504 28.8969 3.37691V3.38629C29.1101 3.41129 29.3157 3.45129 29.5226 3.50629C29.7551 3.56879 29.9482 3.71754 30.0669 3.92566C30.1857 4.13254 30.2163 4.37441 30.1538 4.60629L30.1032 4.78004C29.9763 5.24629 29.4788 5.52191 28.9982 5.39129C28.863 5.35377 28.7262 5.32248 28.5882 5.29754C28.4212 5.271 28.2523 5.25804 28.0832 5.25879C27.5676 5.25879 27.2344 5.44754 27.2344 5.73941C27.2344 6.02816 27.4888 6.19691 28.4713 6.56191L28.7382 6.66567C30.0232 7.21567 30.6226 7.98629 30.6226 9.09192C30.6226 10.1813 29.9819 11.0563 28.8976 11.4632Z" fill="#8B97FF"/>
<path d="M25.2219 28.9307L22.865 28.1763C22.5787 28.5888 22.2644 28.9832 21.9212 29.3582L21.4462 29.8763C21.0538 30.3048 20.5765 30.647 20.0446 30.8811C19.5127 31.1151 18.9379 31.2359 18.3569 31.2357H17.6394C17.0594 31.2346 16.486 31.1133 15.9552 30.8796C15.4245 30.6458 14.9479 30.3046 14.5556 29.8775L14.5475 29.8682L14.0837 29.3569C13.7427 28.9845 13.4276 28.5892 13.1406 28.1738L10.7787 28.93C9.13186 29.4569 7.78498 31.3025 7.78498 33.0307V38.4213C7.78498 39.0719 8.31311 39.6 8.96373 39.6H27.0375C27.1923 39.6 27.3456 39.5695 27.4886 39.5103C27.6316 39.4511 27.7615 39.3642 27.871 39.2548C27.9804 39.1453 28.0673 39.0154 28.1265 38.8724C28.1857 38.7294 28.2162 38.5761 28.2162 38.4213V33.0313C28.2156 31.3025 26.8681 29.4569 25.2219 28.9307ZM24.2519 22.3694C24.3363 23.0676 24.5295 23.7484 24.8244 24.3869C25.1167 25.0255 25.5078 25.6142 25.9831 26.1313L26.325 26.5082C26.4808 26.6779 26.6701 26.8135 26.8809 26.9066C27.0918 26.9996 27.3195 27.048 27.55 27.0488H28.0731C28.5406 27.0488 28.9875 26.8532 29.3012 26.5082L29.6469 26.1313C30.3174 25.3975 30.8188 24.5256 31.1156 23.5769C31.2381 23.1863 31.3256 22.7813 31.3775 22.3694C31.4094 22.1219 31.4231 21.8707 31.4269 21.6194V20.4332C31.4269 20.0982 31.3775 19.77 31.2869 19.4632C31.0717 18.7078 30.6162 18.0431 29.9894 17.5698C29.3626 17.0966 28.5985 16.8406 27.8131 16.8406C27.0277 16.8406 26.2637 17.0966 25.6368 17.5698C25.01 18.0431 24.5545 18.7078 24.3394 19.4632C24.2467 19.7854 24.1998 20.1191 24.2 20.4544V21.5394C24.2 21.5675 24.2 21.5913 24.2037 21.6194C24.2038 21.8702 24.2199 22.1207 24.2519 22.3694ZM4.62561 22.3694C4.71007 23.0676 4.90323 23.7484 5.19811 24.3869C5.49048 25.0255 5.88151 25.6142 6.35686 26.1313L6.69873 26.5082C6.85459 26.6779 7.04388 26.8135 7.2547 26.9066C7.46551 26.9996 7.6933 27.048 7.92373 27.0488H8.44686C8.91436 27.0488 9.36123 26.8532 9.67498 26.5082L10.0206 26.1313C10.6912 25.3975 11.1925 24.5256 11.4894 23.5769C11.6119 23.1863 11.6994 22.7813 11.7512 22.3694C11.7831 22.1219 11.7969 21.8707 11.8006 21.6194V20.4332C11.8006 20.0982 11.7512 19.77 11.6606 19.4632C11.4455 18.7078 10.99 18.0431 10.3631 17.5698C9.7363 17.0966 8.97228 16.8406 8.18686 16.8406C7.40143 16.8406 6.63741 17.0966 6.01057 17.5698C5.38373 18.0431 4.92823 18.7078 4.71311 19.4632C4.6205 19.7854 4.57358 20.1191 4.57373 20.4544V21.5394C4.57373 21.5675 4.57373 21.5913 4.57748 21.6194C4.57753 21.8702 4.59361 22.1207 4.62561 22.3694Z" fill="url(#paint0_linear_74_28)"/>
<path d="M13.9618 24.9417C13.563 24.079 13.3019 23.1591 13.188 22.2155C13.1455 21.8811 13.1224 21.5411 13.1237 21.203C13.1187 21.1649 13.1187 21.1324 13.1187 21.0949V19.6286C13.1187 19.1756 13.182 18.7247 13.3068 18.2892C13.5974 17.2684 14.2129 16.3702 15.06 15.7306C15.907 15.0911 16.9395 14.7451 18.0008 14.7451C19.0622 14.7451 20.0947 15.0911 20.9417 15.7306C21.7888 16.3702 22.4043 17.2684 22.6949 18.2892C22.818 18.7042 22.8843 19.1474 22.8843 19.5999V21.2024C22.8817 21.5411 22.8595 21.8793 22.818 22.2155C22.7474 22.7724 22.6299 23.3192 22.4643 23.8474C22.0629 25.1292 21.3853 26.3075 20.4793 27.2992L20.0124 27.8086C19.8018 28.0392 19.5454 28.2233 19.2595 28.3491C18.9737 28.4749 18.6647 28.5397 18.3524 28.5392H17.6449C17.3335 28.5381 17.0257 28.4726 16.7407 28.3469C16.4558 28.2212 16.2 28.0379 15.9893 27.8086L15.5274 27.2992C14.8852 26.6003 14.3569 25.8047 13.9618 24.9417Z" fill="url(#paint1_linear_74_28)"/>
<path d="M33.1574 27.3388L31.4131 26.7807C31.2001 27.0875 30.9666 27.3796 30.7143 27.655L30.3631 28.0388C30.0727 28.3559 29.7194 28.6091 29.3258 28.7823C28.9322 28.9554 28.5068 29.0447 28.0768 29.0444H27.5456C27.3743 29.0444 27.2049 29.0263 27.0374 28.9982C28.2399 29.9819 29.0543 31.5169 29.0543 33.0319V35.235H34.4999C34.9818 35.235 35.3724 34.8444 35.3724 34.3632V30.3744C35.3724 29.0938 34.3756 27.7282 33.1574 27.3388ZM6.94494 33.0313C6.94494 31.5163 7.75994 29.9807 8.96244 28.9975C8.79361 29.0273 8.62261 29.043 8.45119 29.0444H7.91994C7.4908 29.0436 7.06648 28.9539 6.67374 28.7809C6.281 28.608 5.92836 28.3555 5.63807 28.0394L5.63182 28.0325L5.28869 27.6544C5.03641 27.3789 4.80317 27.0866 4.59057 26.7794L2.84307 27.3388C1.62432 27.7288 0.627441 29.0944 0.627441 30.3732V34.3619C0.627441 34.8438 1.01807 35.2338 1.49932 35.2338H6.94432L6.94494 33.0313Z" fill="url(#paint2_linear_74_28)"/>
<defs>
<linearGradient id="paint0_linear_74_28" x1="1" y1="28" x2="35" y2="28" gradientUnits="userSpaceOnUse">
<stop stop-color="#5465F7"/>
<stop offset="1" stop-color="#9333EA"/>
</linearGradient>
<linearGradient id="paint1_linear_74_28" x1="18.0015" y1="14.7451" x2="18.0015" y2="28.5392" gradientUnits="userSpaceOnUse">
<stop stop-color="#5465F7"/>
<stop offset="1" stop-color="#9333EA"/>
</linearGradient>
<linearGradient id="paint2_linear_74_28" x1="0.627441" y1="31.0072" x2="35.3724" y2="31.0072" gradientUnits="userSpaceOnUse">
<stop stop-color="#5465F7"/>
<stop offset="1" stop-color="#9333EA"/>
</linearGradient>
</defs>
</svg>
