<svg width="690" height="609" viewBox="0 0 690 609" fill="none" xmlns="http://www.w3.org/2000/svg">
<path d="M364.413 85.1433C364.413 83.6387 365.633 82.4167 367.138 82.4358C397.036 82.8036 426.559 89.2247 453.923 101.323C482.118 113.788 507.399 132.003 528.146 154.805C548.894 177.605 564.65 204.489 574.406 233.732C584.162 262.975 587.704 293.933 584.803 324.624C581.901 355.315 572.622 385.061 557.559 411.958C542.496 438.855 521.981 462.309 497.329 480.818C472.677 499.328 444.43 512.485 414.399 519.445C385.253 526.202 355.049 526.977 325.612 521.736C324.13 521.473 323.161 520.043 323.443 518.565L339.014 436.938C339.296 435.46 340.722 434.493 342.206 434.744C359.528 437.682 377.271 437.155 394.404 433.184C412.423 429.007 429.372 421.113 444.163 410.007C458.954 398.902 471.263 384.829 480.301 368.691C489.338 352.553 494.906 334.705 496.647 316.291C498.387 297.876 496.263 279.301 490.409 261.755C484.555 244.21 475.102 228.08 462.653 214.399C450.204 200.719 435.036 189.789 418.119 182.31C402.033 175.198 384.704 171.356 367.138 170.996C365.633 170.965 364.413 169.748 364.413 168.243V85.1433Z" fill="url(#paint0_linear_1243_179)"/>
<path d="M149.158 265.423C147.677 265.159 146.689 263.742 146.971 262.264C154.503 222.822 172.623 186.17 199.389 156.235C200.391 155.113 202.117 155.039 203.226 156.056L264.487 212.204C265.597 213.221 265.669 214.943 264.675 216.073C249.253 233.609 238.725 254.903 234.156 277.805C233.862 279.281 232.45 280.269 230.969 280.005L149.158 265.423Z" fill="url(#paint1_linear_1243_179)"/>
<path d="M218.218 141.207C217.212 140.088 217.302 138.364 218.433 137.371C234.523 123.257 252.575 111.552 272.025 102.619C273.392 101.991 275.003 102.612 275.614 103.987L309.363 179.925C309.975 181.3 309.354 182.907 307.991 183.547C297.027 188.692 286.818 195.312 277.647 203.224C276.508 204.207 274.787 204.118 273.781 202.999L218.218 141.207Z" fill="url(#paint2_linear_1243_179)"/>
<path d="M292.895 97.1705C292.403 95.7483 293.156 94.1953 294.584 93.7205C310.476 88.4376 326.916 84.9753 343.589 83.3998C345.088 83.2581 346.403 84.3759 346.526 85.8758L353.325 168.697C353.448 170.197 352.332 171.509 350.834 171.663C341.564 172.616 332.419 174.542 323.551 177.409C322.119 177.872 320.568 177.121 320.077 175.699L292.895 97.1705Z" fill="url(#paint3_linear_1243_179)"/>
<path d="M307.351 514.861C306.958 516.314 305.462 517.175 304.014 516.764C275.811 508.766 249.468 495.242 226.521 476.971C203.573 458.699 184.493 436.055 170.381 410.36C169.656 409.042 170.16 407.39 171.488 406.682L244.812 367.577C246.139 366.869 247.787 367.372 248.523 368.686C256.936 383.71 268.194 396.963 281.678 407.699C295.162 418.435 310.599 426.439 327.127 431.273C328.571 431.696 329.431 433.189 329.038 434.642L307.351 514.861Z" fill="url(#paint4_linear_1243_179)"/>
<path d="M164.493 392.328C163.118 392.937 161.506 392.316 160.914 390.933C146.962 358.351 141.037 322.895 143.638 287.547C143.748 286.046 145.07 284.935 146.569 285.064L229.363 292.181C230.863 292.31 231.971 293.63 231.873 295.132C230.534 315.617 233.963 336.135 241.889 355.072C242.47 356.46 241.852 358.069 240.476 358.678L164.493 392.328Z" fill="url(#paint5_linear_1243_179)"/>
<path d="M613.231 304.76H617.713V306.515H611.057V293.26H613.231V304.76ZM620.637 294.614C620.244 294.614 619.912 294.48 619.645 294.213C619.378 293.946 619.245 293.616 619.245 293.221C619.245 292.827 619.378 292.497 619.645 292.23C619.912 291.963 620.244 291.829 620.637 291.829C621.019 291.829 621.343 291.963 621.61 292.23C621.877 292.497 622.01 292.827 622.01 293.221C622.01 293.616 621.877 293.946 621.61 294.213C621.343 294.48 621.019 294.614 620.637 294.614ZM621.705 296.006V306.515H619.531V296.006H621.705ZM623.835 301.213C623.835 300.157 624.052 299.223 624.484 298.409C624.929 297.595 625.526 296.966 626.276 296.521C627.039 296.063 627.885 295.834 628.813 295.834C629.627 295.834 630.346 296 630.968 296.33C631.604 296.66 632.093 297.061 632.437 297.532V296.006H634.63V311.512H632.437V304.989C632.093 305.46 631.598 305.86 630.949 306.19C630.301 306.521 629.564 306.686 628.737 306.686C627.834 306.686 627.008 306.457 626.257 306C625.52 305.529 624.929 304.881 624.484 304.054C624.052 303.215 623.835 302.268 623.835 301.213ZM632.437 301.251C632.437 300.526 632.284 299.897 631.979 299.363C631.687 298.829 631.299 298.422 630.816 298.142C630.333 297.862 629.812 297.722 629.252 297.722C628.692 297.722 628.171 297.862 627.688 298.142C627.205 298.409 626.81 298.809 626.505 299.343C626.213 299.865 626.067 300.488 626.067 301.213C626.067 301.937 626.213 302.573 626.505 303.12C626.81 303.667 627.205 304.086 627.688 304.379C628.184 304.659 628.705 304.798 629.252 304.798C629.812 304.798 630.333 304.659 630.816 304.379C631.299 304.099 631.687 303.692 631.979 303.158C632.284 302.611 632.437 301.975 632.437 301.251ZM647.003 296.006V306.515H644.829V305.275C644.486 305.707 644.034 306.051 643.475 306.305C642.928 306.547 642.343 306.667 641.72 306.667C640.893 306.667 640.149 306.496 639.489 306.152C638.84 305.809 638.325 305.3 637.944 304.626C637.575 303.953 637.391 303.139 637.391 302.185V296.006H639.546V301.861C639.546 302.802 639.781 303.526 640.252 304.035C640.722 304.531 641.364 304.779 642.178 304.779C642.991 304.779 643.633 304.531 644.104 304.035C644.587 303.526 644.829 302.802 644.829 301.861V296.006H647.003ZM650.978 294.614C650.584 294.614 650.253 294.48 649.986 294.213C649.719 293.946 649.585 293.616 649.585 293.221C649.585 292.827 649.719 292.497 649.986 292.23C650.253 291.963 650.584 291.829 650.978 291.829C651.359 291.829 651.683 291.963 651.95 292.23C652.217 292.497 652.351 292.827 652.351 293.221C652.351 293.616 652.217 293.946 651.95 294.213C651.683 294.48 651.359 294.614 650.978 294.614ZM652.046 296.006V306.515H649.871V296.006H652.046ZM654.176 301.213C654.176 300.157 654.391 299.223 654.824 298.409C655.269 297.595 655.867 296.966 656.617 296.521C657.38 296.063 658.225 295.834 659.153 295.834C659.84 295.834 660.514 295.987 661.175 296.292C661.849 296.584 662.383 296.979 662.777 297.474V292.401H664.97V306.515H662.777V304.932C662.421 305.44 661.925 305.86 661.289 306.19C660.666 306.521 659.948 306.686 659.134 306.686C658.219 306.686 657.38 306.457 656.617 306C655.867 305.529 655.269 304.881 654.824 304.054C654.391 303.215 654.176 302.268 654.176 301.213ZM662.777 301.251C662.777 300.526 662.624 299.897 662.319 299.363C662.027 298.829 661.639 298.422 661.156 298.142C660.673 297.862 660.151 297.722 659.592 297.722C659.033 297.722 658.511 297.862 658.028 298.142C657.545 298.409 657.151 298.809 656.846 299.343C656.553 299.865 656.407 300.488 656.407 301.213C656.407 301.937 656.553 302.573 656.846 303.12C657.151 303.667 657.545 304.086 658.028 304.379C658.524 304.659 659.045 304.798 659.592 304.798C660.151 304.798 660.673 304.659 661.156 304.379C661.639 304.099 662.027 303.692 662.319 303.158C662.624 302.611 662.777 301.975 662.777 301.251ZM668.933 294.614C668.538 294.614 668.208 294.48 667.941 294.213C667.674 293.946 667.54 293.616 667.54 293.221C667.54 292.827 667.674 292.497 667.941 292.23C668.208 291.963 668.538 291.829 668.933 291.829C669.314 291.829 669.638 291.963 669.905 292.23C670.172 292.497 670.306 292.827 670.306 293.221C670.306 293.616 670.172 293.946 669.905 294.213C669.638 294.48 669.314 294.614 668.933 294.614ZM670.001 296.006V306.515H667.826V296.006H670.001ZM675.392 297.78V303.597C675.392 303.991 675.48 304.277 675.659 304.455C675.85 304.62 676.167 304.703 676.612 304.703H677.948V306.515H676.231C675.252 306.515 674.502 306.286 673.981 305.828C673.459 305.37 673.199 304.626 673.199 303.597V297.78H671.959V296.006H673.199V293.393H675.392V296.006H677.948V297.78H675.392ZM689.408 296.006L682.964 311.454H680.714L682.848 306.343L678.711 296.006H681.133L684.088 304.016L687.16 296.006H689.408Z" fill="#7E5EF5"/>
<path d="M640.169 323.77H633.78V327.565C634.047 327.209 634.441 326.91 634.962 326.668C635.496 326.427 636.062 326.306 636.66 326.306C637.728 326.306 638.592 326.535 639.253 326.993C639.927 327.45 640.404 328.029 640.684 328.728C640.976 329.428 641.122 330.165 641.122 330.941C641.122 331.881 640.938 332.72 640.569 333.458C640.213 334.183 639.673 334.755 638.948 335.175C638.236 335.594 637.359 335.804 636.316 335.804C634.93 335.804 633.818 335.461 632.979 334.774C632.139 334.087 631.637 333.178 631.472 332.047H633.589C633.729 332.644 634.041 333.121 634.523 333.477C635.006 333.82 635.611 333.992 636.335 333.992C637.238 333.992 637.912 333.719 638.357 333.172C638.815 332.625 639.044 331.9 639.044 330.998C639.044 330.082 638.815 329.383 638.357 328.9C637.899 328.404 637.226 328.156 636.335 328.156C635.712 328.156 635.185 328.315 634.752 328.633C634.333 328.938 634.028 329.358 633.837 329.892H631.777V321.862H640.169V323.77ZM652.35 323.77H645.961V327.565C646.228 327.209 646.621 326.91 647.143 326.668C647.677 326.427 648.242 326.306 648.84 326.306C649.909 326.306 650.773 326.535 651.434 326.993C652.108 327.45 652.585 328.029 652.865 328.728C653.157 329.428 653.303 330.165 653.303 330.941C653.303 331.881 653.119 332.72 652.75 333.458C652.394 334.183 651.854 334.755 651.129 335.175C650.417 335.594 649.539 335.804 648.497 335.804C647.111 335.804 645.999 335.461 645.16 334.774C644.32 334.087 643.818 333.178 643.653 332.047H645.77C645.91 332.644 646.221 333.121 646.704 333.477C647.187 333.82 647.792 333.992 648.516 333.992C649.419 333.992 650.092 333.719 650.538 333.172C650.996 332.625 651.224 331.9 651.224 330.998C651.224 330.082 650.996 329.383 650.538 328.9C650.08 328.404 649.406 328.156 648.516 328.156C647.893 328.156 647.365 328.315 646.933 328.633C646.514 328.938 646.209 329.358 646.018 329.892H643.958V321.862H652.35V323.77ZM655.223 325.257C655.223 324.329 655.49 323.604 656.025 323.083C656.571 322.549 657.27 322.282 658.122 322.282C658.974 322.282 659.667 322.549 660.201 323.083C660.748 323.604 661.021 324.329 661.021 325.257C661.021 326.186 660.748 326.916 660.201 327.45C659.667 327.984 658.974 328.251 658.122 328.251C657.27 328.251 656.571 327.984 656.025 327.45C655.49 326.916 655.223 326.186 655.223 325.257ZM666.857 322.53L659.248 335.804H657.112L664.721 322.53H666.857ZM658.122 323.598C657.321 323.598 656.921 324.151 656.921 325.257C656.921 326.376 657.321 326.935 658.122 326.935C658.504 326.935 658.796 326.802 659 326.535C659.216 326.255 659.324 325.829 659.324 325.257C659.324 324.151 658.923 323.598 658.122 323.598ZM662.986 333.058C662.986 332.129 663.253 331.404 663.787 330.883C664.333 330.349 665.033 330.082 665.885 330.082C666.724 330.082 667.411 330.349 667.945 330.883C668.491 331.404 668.765 332.129 668.765 333.058C668.765 333.986 668.491 334.717 667.945 335.251C667.411 335.785 666.724 336.052 665.885 336.052C665.033 336.052 664.333 335.785 663.787 335.251C663.253 334.717 662.986 333.986 662.986 333.058ZM665.866 331.398C665.065 331.398 664.664 331.951 664.664 333.058C664.664 334.164 665.065 334.717 665.866 334.717C666.667 334.717 667.067 334.164 667.067 333.058C667.067 331.951 666.667 331.398 665.866 331.398Z" fill="#7E5EF5"/>
<path d="M158.474 60.1007L158.598 61.8701L152.986 62.2626L153.258 66.1628L157.634 65.8568L157.758 67.6262L153.382 67.9322L153.787 73.7161L151.617 73.8673L150.693 60.6448L158.474 60.1007ZM165.968 73.0363C164.979 73.1051 164.069 72.9457 163.239 72.5582C162.408 72.157 161.736 71.5671 161.222 70.7872C160.708 69.9943 160.413 69.0591 160.338 67.9811C160.263 66.9157 160.432 65.9543 160.843 65.0971C161.256 64.2398 161.852 63.5608 162.632 63.0601C163.413 62.5594 164.304 62.2741 165.306 62.204C166.308 62.1339 167.231 62.2925 168.074 62.6796C168.916 63.0668 169.601 63.6562 170.128 64.4478C170.655 65.2394 170.956 66.168 171.03 67.2334C171.105 68.299 170.93 69.2607 170.505 70.119C170.081 70.9772 169.467 71.6638 168.661 72.1788C167.868 72.6801 166.97 72.9662 165.968 73.0363ZM165.836 71.153C166.395 71.1134 166.905 70.9438 167.369 70.6441C167.845 70.3431 168.216 69.9153 168.483 69.3615C168.751 68.8078 168.858 68.1498 168.804 67.3891C168.751 66.628 168.56 65.9977 168.232 65.4981C167.904 64.9858 167.489 64.6133 166.988 64.3807C166.487 64.148 165.958 64.0512 165.4 64.0902C164.842 64.1292 164.331 64.2988 163.868 64.5988C163.417 64.898 163.071 65.3237 162.829 65.8759C162.586 66.4154 162.492 67.0657 162.545 67.8268C162.624 68.9556 162.971 69.8111 163.584 70.3921C164.21 70.9602 164.961 71.2136 165.836 71.153ZM182.302 61.1876L183.035 71.6706L180.866 71.8225L180.78 70.5856C180.468 71.0406 180.042 71.4145 179.501 71.7074C178.972 71.9867 178.397 72.1481 177.776 72.1917C176.951 72.2489 176.198 72.1297 175.514 71.8334C174.843 71.5364 174.294 71.0644 173.866 70.4194C173.451 69.7723 173.211 68.974 173.144 68.0224L172.713 61.8581L174.863 61.7078L175.271 67.5486C175.338 68.4869 175.622 69.194 176.128 69.6681C176.631 70.1299 177.289 70.3328 178.101 70.2756C178.913 70.2191 179.536 69.9269 179.971 69.3997C180.417 68.8589 180.608 68.1184 180.541 67.1801L180.133 61.3393L182.302 61.1876ZM190.441 60.4464C191.265 60.3887 192.013 60.5085 192.684 60.8057C193.367 61.1021 193.916 61.5735 194.331 62.2201C194.746 62.8665 194.987 63.6655 195.053 64.6167L195.486 70.8001L193.336 70.9507L192.926 65.0905C192.861 64.1519 192.576 63.4517 192.072 62.9898C191.567 62.5153 190.909 62.3064 190.097 62.3632C189.285 62.4199 188.657 62.7189 188.21 63.2599C187.775 63.7874 187.591 64.5204 187.656 65.459L188.066 71.3192L185.897 71.4704L185.164 60.9875L187.333 60.8358L187.417 62.0344C187.742 61.5784 188.168 61.2107 188.697 60.9316C189.238 60.6516 189.819 60.4898 190.441 60.4464ZM197.16 65.368C197.086 64.3153 197.236 63.3679 197.611 62.526C197.999 61.6833 198.55 61.0137 199.268 60.5174C199.997 60.0076 200.825 59.7203 201.75 59.6555C202.435 59.6077 203.118 59.7129 203.799 59.9712C204.491 60.2159 205.052 60.5718 205.48 61.039L205.125 55.9782L207.314 55.8252L208.298 69.9044L206.11 70.057L206 68.4781C205.68 69.0101 205.215 69.463 204.604 69.8377C204.005 70.2109 203.3 70.4255 202.488 70.4827C201.575 70.546 200.722 70.3764 199.929 69.9732C199.148 69.5563 198.507 68.9508 198.005 68.158C197.515 67.3507 197.234 66.4208 197.16 65.368ZM205.743 64.8061C205.692 64.0831 205.497 63.4659 205.155 62.9545C204.826 62.4421 204.41 62.0633 203.909 61.818C203.408 61.5726 202.878 61.4695 202.32 61.5085C201.761 61.5475 201.251 61.7234 200.789 62.0362C200.325 62.3362 199.96 62.7633 199.693 63.3173C199.438 63.8577 199.335 64.4894 199.386 65.2124C199.436 65.9354 199.626 66.5594 199.956 67.0843C200.299 67.6085 200.721 67.9995 201.224 68.2574C201.738 68.5019 202.268 68.6055 202.813 68.5673C203.371 68.5278 203.882 68.3521 204.344 68.0394C204.807 67.7266 205.165 67.2937 205.42 66.7406C205.686 66.1739 205.794 65.5291 205.743 64.8061ZM220.37 63.5347C220.398 63.9279 220.397 64.2848 220.369 64.6054L212.359 65.1655C212.481 65.9982 212.839 66.6487 213.432 67.1171C214.026 67.5854 214.728 67.7912 215.54 67.7344C216.707 67.6528 217.498 67.1068 217.911 66.0965L220.252 65.9329C220.002 66.919 219.48 67.7521 218.686 68.4325C217.904 69.0986 216.898 69.4746 215.668 69.5611C214.666 69.6313 213.75 69.4719 212.92 69.0836C212.102 68.6824 211.436 68.0915 210.922 67.3117C210.421 66.5183 210.132 65.5825 210.057 64.5044C209.981 63.4263 210.131 62.4663 210.505 61.6244C210.892 60.7689 211.463 60.0917 212.218 59.5927C212.986 59.0929 213.884 58.8071 214.911 58.7353C215.9 58.6661 216.797 58.8201 217.601 59.1972C218.404 59.5744 219.049 60.1411 219.536 60.8973C220.021 61.6409 220.299 62.52 220.37 63.5347ZM218.058 63.0081C217.99 62.2099 217.66 61.5893 217.068 61.1464C216.476 60.7034 215.768 60.5107 214.943 60.5684C214.196 60.6207 213.572 60.9065 213.072 61.4257C212.572 61.9323 212.301 62.595 212.256 63.4138L218.058 63.0081ZM224.432 59.7711C224.712 59.2162 225.101 58.7747 225.601 58.4467C226.112 58.105 226.729 57.9089 227.453 57.8583L227.609 60.1033L227.058 60.1419C226.208 60.2014 225.576 60.4622 225.162 60.9245C224.761 61.3859 224.598 62.1493 224.672 63.2147L225.058 68.7322L222.889 68.8841L222.156 58.4007L224.325 58.2491L224.432 59.7711ZM234.008 68.2785C233.184 68.3357 232.432 68.2417 231.751 67.9965C231.083 67.7373 230.542 67.3673 230.125 66.8866C229.709 66.3932 229.465 65.8302 229.395 65.1978L231.64 65.0408C231.71 65.4821 231.945 65.8416 232.347 66.1194C232.76 66.3837 233.259 66.4954 233.842 66.4546C234.451 66.412 234.913 66.265 235.227 66.0137C235.552 65.7487 235.702 65.4323 235.676 65.0645C235.649 64.6713 235.438 64.3929 235.044 64.2292C234.663 64.0647 234.058 63.8967 233.231 63.7251C232.43 63.5645 231.775 63.4 231.266 63.2317C230.757 63.0633 230.304 62.7828 229.907 62.3899C229.522 61.9962 229.306 61.4568 229.258 60.7719C229.219 60.2138 229.348 59.6949 229.647 59.2153C229.943 58.7229 230.387 58.3223 230.977 58.0133C231.58 57.7035 232.281 57.5206 233.08 57.4648C234.272 57.3814 235.251 57.6189 236.017 58.1771C236.794 58.7218 237.244 59.5124 237.368 60.5489L235.199 60.7006C235.128 60.234 234.912 59.8731 234.55 59.618C234.188 59.3629 233.715 59.2558 233.131 59.2966C232.561 59.3365 232.131 59.4749 231.841 59.7118C231.552 59.9487 231.42 60.2447 231.445 60.5999C231.464 60.879 231.582 61.1065 231.798 61.2825C232.014 61.4586 232.272 61.5935 232.572 61.6873C232.871 61.7683 233.312 61.8714 233.894 61.9964C234.669 62.1461 235.306 62.3119 235.802 62.4938C236.311 62.6621 236.757 62.9368 237.141 63.3179C237.525 63.699 237.746 64.2252 237.806 64.8965C237.848 65.4926 237.72 66.0369 237.423 66.5293C237.126 67.0216 236.682 67.4222 236.092 67.7311C235.515 68.0392 234.82 68.2213 234.008 68.2785Z" fill="#27CF71"/>
<path d="M190.475 87.073C190.295 86.4995 190.011 86.0799 189.623 85.8136C189.234 85.5479 188.711 85.4376 188.051 85.4839C187.049 85.554 186.328 85.9934 185.887 86.8012C185.446 87.5968 185.274 88.8835 185.373 90.6613C185.664 90.0803 186.116 89.615 186.728 89.2663C187.341 88.9175 188.016 88.7173 188.751 88.6662C189.589 88.6076 190.337 88.7398 190.997 89.0633C191.669 89.3732 192.206 89.8582 192.609 90.5182C193.025 91.1776 193.266 91.9827 193.333 92.9343C193.395 93.8218 193.272 94.6269 192.966 95.3496C192.672 96.0709 192.197 96.6588 191.541 97.1124C190.883 97.5538 190.073 97.8079 189.108 97.8753C187.802 97.9666 186.755 97.7534 185.967 97.235C185.19 96.7024 184.613 95.9211 184.235 94.8891C183.87 93.8572 183.632 92.5549 183.522 90.9821C183.197 86.3394 184.671 83.9043 187.944 83.6755C189.212 83.5862 190.232 83.8594 191.003 84.4935C191.786 85.127 192.276 85.9403 192.473 86.9334L190.475 87.073ZM188.403 90.5257C187.63 90.5795 186.987 90.8609 186.474 91.3683C185.973 91.8621 185.754 92.5467 185.815 93.4213C185.876 94.2965 186.172 94.977 186.703 95.4627C187.246 95.9347 187.967 96.139 188.868 96.0757C189.667 96.0198 190.278 95.729 190.699 95.2025C191.135 94.6746 191.323 93.9989 191.266 93.174C191.205 92.3117 190.929 91.6428 190.437 91.1674C189.956 90.6783 189.279 90.4644 188.403 90.5257ZM194.891 86.8986C194.827 85.9723 195.042 85.2312 195.538 84.6733C196.046 84.1025 196.726 83.7878 197.576 83.7279C198.425 83.6686 199.135 83.8866 199.705 84.3825C200.287 84.8641 200.61 85.5677 200.675 86.494C200.74 87.4197 200.518 88.1683 200.01 88.7391C199.514 89.3092 198.842 89.6239 197.992 89.6831C197.142 89.7424 196.426 89.5251 195.844 89.0306C195.273 88.5347 194.956 87.8243 194.891 86.8986ZM206.307 83.3662L199.642 97.139L197.51 97.2881L204.176 83.5154L206.307 83.3662ZM197.668 85.0411C196.868 85.097 196.507 85.6767 196.585 86.7801C196.662 87.8958 197.101 88.4264 197.9 88.3706C198.281 88.344 198.563 88.1901 198.747 87.9095C198.943 87.6152 199.022 87.1833 198.982 86.6125C198.905 85.5091 198.467 84.9853 197.668 85.0411ZM203.179 94.1385C203.114 93.2122 203.33 92.4711 203.826 91.9139C204.334 91.3424 205.013 91.0277 205.863 90.9685C206.7 90.9099 207.404 91.1279 207.974 91.6237C208.556 92.1053 208.879 92.8096 208.943 93.7353C209.008 94.661 208.787 95.4095 208.278 95.9803C207.783 96.5505 207.116 96.8645 206.279 96.923C205.43 96.9823 204.713 96.765 204.131 96.2705C203.561 95.7746 203.243 95.0642 203.179 94.1385ZM205.936 92.2824C205.137 92.3383 204.776 92.9179 204.853 94.0214C204.93 95.1248 205.368 95.6486 206.168 95.5928C206.967 95.5369 207.328 94.9573 207.25 93.8538C207.173 92.7503 206.735 92.2266 205.936 92.2824Z" fill="#27CF71"/>
<path d="M16.4333 125.409V129.3H21.0106V131.074H16.4333V135.136H21.5827V136.91H14.2591V123.636H21.5827V125.409H16.4333ZM23.536 131.646C23.536 130.565 23.7521 129.618 24.1844 128.804C24.6294 127.978 25.2397 127.342 26.0153 126.897C26.7909 126.452 27.6809 126.23 28.6854 126.23C29.9569 126.23 31.0059 126.535 31.8323 127.145C32.6715 127.742 33.2373 128.601 33.5297 129.72H31.1839C30.9931 129.199 30.688 128.791 30.2684 128.499C29.8488 128.207 29.3211 128.06 28.6854 128.06C27.7954 128.06 27.0834 128.379 26.5493 129.014C26.028 129.637 25.7674 130.515 25.7674 131.646C25.7674 132.777 26.028 133.662 26.5493 134.297C27.0834 134.933 27.7954 135.251 28.6854 135.251C29.9442 135.251 30.777 134.698 31.1839 133.591H33.5297C33.2246 134.659 32.6524 135.512 31.8132 136.147C30.9741 136.77 29.9314 137.082 28.6854 137.082C27.6809 137.082 26.7909 136.859 26.0153 136.414C25.2397 135.956 24.6294 135.321 24.1844 134.507C23.7521 133.681 23.536 132.727 23.536 131.646ZM40.2546 137.082C39.2629 137.082 38.3665 136.859 37.5655 136.414C36.7645 135.956 36.1351 135.321 35.6774 134.507C35.2196 133.681 34.9908 132.727 34.9908 131.646C34.9908 130.578 35.226 129.631 35.6964 128.804C36.1669 127.978 36.809 127.342 37.6227 126.897C38.4365 126.452 39.3456 126.23 40.35 126.23C41.3545 126.23 42.2636 126.452 43.0773 126.897C43.8911 127.342 44.5332 127.978 45.0036 128.804C45.474 129.631 45.7092 130.578 45.7092 131.646C45.7092 132.714 45.4677 133.662 44.9845 134.488C44.5014 135.314 43.8402 135.956 43.001 136.414C42.1746 136.859 41.2591 137.082 40.2546 137.082ZM40.2546 135.193C40.8141 135.193 41.3354 135.06 41.8186 134.793C42.3144 134.526 42.7149 134.125 43.0201 133.591C43.3252 133.057 43.4778 132.409 43.4778 131.646C43.4778 130.883 43.3316 130.241 43.0392 129.72C42.7467 129.186 42.359 128.785 41.8758 128.518C41.3926 128.251 40.8714 128.118 40.3119 128.118C39.7524 128.118 39.2312 128.251 38.748 128.518C38.2776 128.785 37.9025 129.186 37.6227 129.72C37.343 130.241 37.2031 130.883 37.2031 131.646C37.2031 132.777 37.4892 133.655 38.0614 134.278C38.6463 134.888 39.3773 135.193 40.2546 135.193ZM51.673 137.082C50.8466 137.082 50.1028 136.935 49.4416 136.643C48.7931 136.338 48.2782 135.931 47.8967 135.422C47.5153 134.901 47.3119 134.322 47.2864 133.687H49.5369C49.5751 134.132 49.7849 134.507 50.1663 134.812C50.5605 135.104 51.05 135.251 51.6349 135.251C52.2452 135.251 52.7156 135.136 53.0462 134.907C53.3895 134.666 53.5611 134.36 53.5611 133.992C53.5611 133.598 53.3704 133.305 52.989 133.115C52.6203 132.924 52.029 132.714 51.2153 132.485C50.427 132.269 49.7849 132.059 49.289 131.856C48.7931 131.652 48.3609 131.341 47.9921 130.921C47.6361 130.502 47.4581 129.949 47.4581 129.262C47.4581 128.703 47.6234 128.194 47.954 127.736C48.2846 127.266 48.755 126.897 49.3653 126.63C49.9883 126.363 50.7003 126.23 51.5014 126.23C52.6966 126.23 53.6565 126.535 54.3812 127.145C55.1187 127.742 55.5129 128.562 55.5637 129.605H53.3895C53.3513 129.135 53.1606 128.76 52.8173 128.48C52.474 128.2 52.01 128.06 51.4251 128.06C50.8529 128.06 50.4143 128.169 50.1091 128.385C49.8039 128.601 49.6514 128.887 49.6514 129.243C49.6514 129.523 49.7531 129.758 49.9565 129.949C50.16 130.139 50.4079 130.292 50.7003 130.406C50.9928 130.508 51.4251 130.641 51.9972 130.807C52.7601 131.011 53.3832 131.22 53.8663 131.436C54.3622 131.64 54.7881 131.945 55.1441 132.352C55.5001 132.758 55.6845 133.299 55.6972 133.973C55.6972 134.57 55.532 135.104 55.2013 135.575C54.8708 136.046 54.4003 136.414 53.79 136.681C53.1924 136.948 52.4868 137.082 51.673 137.082ZM67.5063 126.401L61.0599 141.85H58.8094L60.9455 136.738L56.8069 126.401H59.229L62.1852 134.411L65.2558 126.401H67.5063ZM72.9614 137.082C72.1352 137.082 71.3914 136.935 70.73 136.643C70.0815 136.338 69.5666 135.931 69.1852 135.422C68.8037 134.901 68.6 134.322 68.5748 133.687H70.8253C70.8635 134.132 71.0733 134.507 71.4547 134.812C71.8491 135.104 72.3382 135.251 72.9233 135.251C73.5336 135.251 74.0042 135.136 74.3346 134.907C74.6779 134.666 74.8495 134.36 74.8495 133.992C74.8495 133.598 74.6588 133.305 74.2774 133.115C73.9089 132.924 73.3176 132.714 72.5037 132.485C71.7156 132.269 71.0733 132.059 70.5774 131.856C70.0815 131.652 69.649 131.341 69.2805 130.921C68.9243 130.502 68.7465 129.949 68.7465 129.262C68.7465 128.703 68.912 128.194 69.2424 127.736C69.5727 127.266 70.0434 126.897 70.6537 126.63C71.2769 126.363 71.9887 126.23 72.7898 126.23C73.9852 126.23 74.9449 126.535 75.6696 127.145C76.4073 127.742 76.801 128.562 76.8521 129.605H74.6779C74.6397 129.135 74.449 128.76 74.1057 128.48C73.7624 128.2 73.2986 128.06 72.7135 128.06C72.1413 128.06 71.7027 128.169 71.3975 128.385C71.0924 128.601 70.9398 128.887 70.9398 129.243C70.9398 129.523 71.0413 129.758 71.2449 129.949C71.4486 130.139 71.6965 130.292 71.9887 130.406C72.281 130.508 72.7135 130.641 73.2856 130.807C74.0485 131.011 74.6718 131.22 75.1547 131.436C75.6506 131.64 76.0763 131.945 76.4325 132.352C76.7888 132.758 76.9727 133.299 76.9856 133.973C76.9856 134.57 76.8201 135.104 76.4897 135.575C76.1594 136.046 75.6887 136.414 75.0784 136.681C74.481 136.948 73.7754 137.082 72.9614 137.082ZM81.8715 128.175V133.992C81.8715 134.386 81.9607 134.672 82.1385 134.85C82.3292 135.016 82.6473 135.098 83.0921 135.098H84.4271V136.91H82.7106C81.7318 136.91 80.9812 136.681 80.4601 136.223C79.939 135.766 79.6782 135.022 79.6782 133.992V128.175H78.4385V126.401H79.6782V123.788H81.8715V126.401H84.4271V128.175H81.8715ZM96.0624 131.398C96.0624 131.792 96.0372 132.148 95.9861 132.466H87.9568C88.0201 133.305 88.3321 133.979 88.8913 134.488C89.4505 134.997 90.1371 135.251 90.9511 135.251C92.1206 135.251 92.9475 134.761 93.4305 133.782H95.7763C95.4582 134.749 94.8799 135.543 94.0408 136.166C93.2145 136.776 92.1846 137.082 90.9511 137.082C89.9464 137.082 89.0439 136.859 88.2429 136.414C87.4548 135.956 86.8315 135.321 86.3738 134.507C85.929 133.681 85.7063 132.727 85.7063 131.646C85.7063 130.565 85.9222 129.618 86.3547 128.804C86.7995 127.978 87.4166 127.342 88.2047 126.897C89.0058 126.452 89.9212 126.23 90.9511 126.23C91.9428 126.23 92.8263 126.445 93.6021 126.878C94.3779 127.311 94.9814 127.921 95.4139 128.709C95.8465 129.485 96.0624 130.381 96.0624 131.398ZM93.7928 130.711C93.7799 129.91 93.4938 129.268 92.9346 128.785C92.3754 128.302 91.682 128.06 90.8557 128.06C90.1058 128.06 89.4635 128.302 88.9295 128.785C88.3954 129.256 88.0774 129.898 87.9759 130.711H93.7928ZM110.923 126.23C111.75 126.23 112.487 126.401 113.135 126.745C113.797 127.088 114.312 127.597 114.68 128.27C115.062 128.944 115.252 129.758 115.252 130.711V136.91H113.097V131.036C113.097 130.095 112.862 129.376 112.391 128.881C111.921 128.372 111.279 128.118 110.465 128.118C109.652 128.118 109.003 128.372 108.52 128.881C108.05 129.376 107.814 130.095 107.814 131.036V136.91H105.659V131.036C105.659 130.095 105.424 129.376 104.953 128.881C104.483 128.372 103.841 128.118 103.027 128.118C102.214 128.118 101.565 128.372 101.082 128.881C100.612 129.376 100.376 130.095 100.376 131.036V136.91H98.2019V126.401H100.376V127.603C100.732 127.17 101.184 126.834 101.73 126.592C102.277 126.35 102.862 126.23 103.485 126.23C104.324 126.23 105.075 126.407 105.735 126.764C106.397 127.12 106.906 127.635 107.261 128.308C107.579 127.673 108.075 127.17 108.749 126.802C109.423 126.42 110.148 126.23 110.923 126.23ZM69.1266 162.793L67.4861 161.153C66.8504 161.789 66.1575 162.266 65.4072 162.584C64.6571 162.889 63.8179 163.041 62.8897 163.041C61.9489 163.041 61.116 162.876 60.3913 162.546C59.6666 162.215 59.1071 161.745 58.713 161.134C58.3189 160.511 58.1217 159.793 58.1217 158.979C58.1217 158.064 58.3824 157.25 58.9037 156.538C59.425 155.813 60.2006 155.241 61.2305 154.821C60.8618 154.377 60.6011 153.963 60.4485 153.582C60.2959 153.187 60.2197 152.755 60.2197 152.285C60.2197 151.7 60.3659 151.179 60.6583 150.721C60.9635 150.263 61.3958 149.901 61.9552 149.634C62.5147 149.367 63.1632 149.233 63.9006 149.233C64.6508 149.233 65.2865 149.38 65.8078 149.672C66.3418 149.952 66.736 150.339 66.9902 150.835C67.2572 151.331 67.3653 151.884 67.3145 152.495H65.1402C65.153 152.024 65.0385 151.662 64.7969 151.407C64.5554 151.14 64.2248 151.007 63.8052 151.007C63.3856 151.007 63.0423 151.134 62.7753 151.388C62.521 151.63 62.3939 151.929 62.3939 152.285C62.3939 152.628 62.4892 152.971 62.68 153.315C62.8834 153.645 63.233 154.078 63.7289 154.612L67.2382 158.102L68.5926 155.87H70.9384L69.2219 158.807L68.7451 159.589L71.9683 162.793H69.1266ZM62.8897 161.191C64.0849 161.191 65.1402 160.702 66.0557 159.723L62.5464 156.195C61.0462 156.792 60.2959 157.695 60.2959 158.903C60.2959 159.551 60.5376 160.098 61.0207 160.543C61.5039 160.976 62.1269 161.191 62.8897 161.191ZM5.84888 175.422C7.26024 175.422 8.49352 175.695 9.54888 176.242C10.6169 176.776 11.437 177.552 12.0092 178.569C12.594 179.574 12.8865 180.749 12.8865 182.097C12.8865 183.445 12.594 184.615 12.0092 185.606C11.437 186.598 10.6169 187.361 9.54888 187.895C8.49352 188.416 7.26024 188.677 5.84888 188.677H1.51953V175.422H5.84888ZM5.84888 186.903C7.40008 186.903 8.58888 186.484 9.41538 185.645C10.2418 184.805 10.6551 183.623 10.6551 182.097C10.6551 180.558 10.2418 179.357 9.41538 178.493C8.58888 177.628 7.40008 177.196 5.84888 177.196H3.69374V186.903H5.84888ZM24.6727 183.165C24.6727 183.56 24.6473 183.915 24.5964 184.233H16.567C16.6307 185.072 16.9422 185.746 17.5016 186.255C18.0611 186.764 18.7477 187.018 19.5614 187.018C20.7312 187.018 21.5576 186.528 22.0407 185.549H24.3866C24.0688 186.516 23.4902 187.31 22.651 187.933C21.8246 188.544 20.7947 188.849 19.5614 188.849C18.5569 188.849 17.6542 188.626 16.8531 188.181C16.0648 187.723 15.4418 187.088 14.9841 186.274C14.5391 185.448 14.3166 184.494 14.3166 183.413C14.3166 182.332 14.5327 181.385 14.965 180.571C15.4101 179.745 16.0267 179.109 16.815 178.664C17.616 178.219 18.5315 177.997 19.5614 177.997C20.5531 177.997 21.4368 178.213 22.2124 178.645C22.988 179.078 23.592 179.688 24.0242 180.476C24.4565 181.252 24.6727 182.148 24.6727 183.165ZM22.4031 182.479C22.3904 181.678 22.1043 181.035 21.5448 180.552C20.9854 180.069 20.2925 179.828 19.466 179.828C18.7159 179.828 18.0737 180.069 17.5397 180.552C17.0057 181.023 16.6879 181.665 16.5861 182.479H22.4031ZM30.8747 186.732L33.8499 178.168H36.1576L32.1525 188.677H29.5587L25.5727 178.168H27.8994L30.8747 186.732ZM47.4325 183.165C47.4325 183.56 47.4071 183.915 47.3562 184.233H39.3269C39.3904 185.072 39.702 185.746 40.2614 186.255C40.8208 186.764 41.5074 187.018 42.3212 187.018C43.4909 187.018 44.3174 186.528 44.8005 185.549H47.1464C46.8285 186.516 46.25 187.31 45.4108 187.933C44.5844 188.544 43.5545 188.849 42.3212 188.849C41.3167 188.849 40.414 188.626 39.6129 188.181C38.8247 187.723 38.2016 187.088 37.7439 186.274C37.2989 185.448 37.0764 184.494 37.0764 183.413C37.0764 182.332 37.2925 181.385 37.7248 180.571C38.1698 179.745 38.7865 179.109 39.5748 178.664C40.3758 178.219 41.2913 177.997 42.3212 177.997C43.3129 177.997 44.1966 178.213 44.9722 178.645C45.7478 179.078 46.3517 179.688 46.784 180.476C47.2164 181.252 47.4325 182.148 47.4325 183.165ZM45.1629 182.479C45.1502 181.678 44.8641 181.035 44.3047 180.552C43.7452 180.069 43.0522 179.828 42.2258 179.828C41.4757 179.828 40.8336 180.069 40.2995 180.552C39.7655 181.023 39.4476 181.665 39.3459 182.479H45.1629ZM51.7463 174.564V188.677H49.5721V174.564H51.7463ZM59.1591 188.849C58.1674 188.849 57.271 188.626 56.47 188.181C55.6689 187.723 55.0396 187.088 54.5818 186.274C54.1241 185.448 53.8952 184.494 53.8952 183.413C53.8952 182.345 54.1304 181.398 54.6009 180.571C55.0713 179.745 55.7134 179.109 56.5272 178.664C57.3409 178.219 58.25 177.997 59.2545 177.997C60.2589 177.997 61.168 178.219 61.9818 178.664C62.7955 179.109 63.4376 179.745 63.9081 180.571C64.3785 181.398 64.6137 182.345 64.6137 183.413C64.6137 184.481 64.3721 185.429 63.889 186.255C63.4058 187.081 62.7447 187.723 61.9055 188.181C61.079 188.626 60.1635 188.849 59.1591 188.849ZM59.1591 186.961C59.7185 186.961 60.2398 186.827 60.723 186.56C61.2189 186.293 61.6194 185.893 61.9246 185.359C62.2297 184.824 62.3823 184.176 62.3823 183.413C62.3823 182.65 62.236 182.008 61.9436 181.487C61.6511 180.953 61.2634 180.552 60.7802 180.285C60.297 180.018 59.7758 179.885 59.2163 179.885C58.6568 179.885 58.1356 180.018 57.6524 180.285C57.182 180.552 56.8069 180.953 56.5272 181.487C56.2474 182.008 56.1076 182.65 56.1076 183.413C56.1076 184.545 56.3937 185.422 56.9658 186.045C57.5507 186.655 58.2818 186.961 59.1591 186.961ZM68.9372 179.713C69.3057 179.23 69.8084 178.823 70.4439 178.493C71.0794 178.162 71.798 177.997 72.599 177.997C73.5145 177.997 74.3475 178.226 75.0975 178.683C75.8604 179.128 76.4577 179.757 76.8903 180.571C77.3228 181.385 77.5387 182.32 77.5387 183.375C77.5387 184.43 77.3228 185.378 76.8903 186.217C76.4577 187.043 75.8604 187.691 75.0975 188.162C74.3475 188.62 73.5145 188.849 72.599 188.849C71.798 188.849 71.0862 188.69 70.463 188.372C69.8397 188.042 69.3316 187.634 68.9372 187.151V193.674H66.763V178.168H68.9372V179.713ZM75.3263 183.375C75.3263 182.65 75.1738 182.027 74.8686 181.506C74.5764 180.972 74.182 180.571 73.6861 180.304C73.2032 180.024 72.6815 179.885 72.1222 179.885C71.5753 179.885 71.0542 180.024 70.5583 180.304C70.0754 180.584 69.681 180.991 69.3759 181.525C69.0837 182.059 68.9372 182.688 68.9372 183.413C68.9372 184.138 69.0837 184.773 69.3759 185.32C69.681 185.854 70.0754 186.261 70.5583 186.541C71.0542 186.821 71.5753 186.961 72.1222 186.961C72.6815 186.961 73.2032 186.821 73.6861 186.541C74.182 186.249 74.5764 185.829 74.8686 185.282C75.1738 184.735 75.3263 184.1 75.3263 183.375ZM92.4101 177.997C93.2363 177.997 93.974 178.168 94.6225 178.512C95.2832 178.855 95.7981 179.364 96.1673 180.037C96.5487 180.711 96.7395 181.525 96.7395 182.479V188.677H94.5843V182.803C94.5843 181.862 94.3486 181.144 93.8787 180.648C93.408 180.139 92.7657 179.885 91.9524 179.885C91.1384 179.885 90.49 180.139 90.007 180.648C89.5364 181.144 89.3014 181.862 89.3014 182.803V188.677H87.1462V182.803C87.1462 181.862 86.9106 181.144 86.4406 180.648C85.9699 180.139 85.3276 179.885 84.5143 179.885C83.7003 179.885 83.0519 180.139 82.5689 180.648C82.0983 181.144 81.8633 181.862 81.8633 182.803V188.677H79.6891V178.168H81.8633V179.37C82.2188 178.937 82.6704 178.601 83.2174 178.359C83.7637 178.117 84.3488 177.997 84.972 177.997C85.8112 177.997 86.5611 178.174 87.2225 178.531C87.8832 178.887 88.392 179.402 88.7483 180.076C89.0657 179.44 89.5616 178.937 90.2359 178.569C90.9096 178.187 91.6343 177.997 92.4101 177.997ZM109.137 183.165C109.137 183.56 109.112 183.915 109.061 184.233H101.031C101.095 185.072 101.407 185.746 101.966 186.255C102.526 186.764 103.212 187.018 104.026 187.018C105.196 187.018 106.022 186.528 106.505 185.549H108.851C108.533 186.516 107.954 187.31 107.115 187.933C106.289 188.544 105.259 188.849 104.026 188.849C103.022 188.849 102.118 188.626 101.317 188.181C100.529 187.723 99.9061 187.088 99.4484 186.274C99.0036 185.448 98.7808 184.494 98.7808 183.413C98.7808 182.332 98.9975 181.385 99.4293 180.571C99.8748 179.745 100.491 179.109 101.279 178.664C102.08 178.219 102.996 177.997 104.026 177.997C105.017 177.997 105.902 178.213 106.677 178.645C107.452 179.078 108.057 179.688 108.489 180.476C108.921 181.252 109.137 182.148 109.137 183.165ZM106.867 182.479C106.855 181.678 106.569 181.035 106.009 180.552C105.45 180.069 104.757 179.828 103.93 179.828C103.18 179.828 102.538 180.069 102.004 180.552C101.47 181.023 101.153 181.665 101.05 182.479H106.867ZM116.579 177.997C117.405 177.997 118.143 178.168 118.791 178.512C119.452 178.855 119.967 179.364 120.336 180.037C120.705 180.711 120.889 181.525 120.889 182.479V188.677H118.734V182.803C118.734 181.862 118.499 181.144 118.029 180.648C117.558 180.139 116.916 179.885 116.102 179.885C115.288 179.885 114.64 180.139 114.157 180.648C113.686 181.144 113.451 181.862 113.451 182.803V188.677H111.277V178.168H113.451V179.37C113.807 178.937 114.258 178.601 114.805 178.359C115.365 178.117 115.956 177.997 116.579 177.997ZM126.199 179.942V185.759C126.199 186.153 126.288 186.439 126.466 186.617C126.657 186.783 126.975 186.865 127.42 186.865H128.755V188.677H127.038C126.059 188.677 125.309 188.448 124.788 187.99C124.267 187.533 124.006 186.789 124.006 185.759V179.942H122.766V178.168H124.006V175.555H126.199V178.168H128.755V179.942H126.199Z" fill="#226BDF"/>
<path d="M48.0349 217.744V215.761H52.0019V229.664H49.8086V217.744H48.0349ZM54.9888 222.531C54.9888 220.332 55.3575 218.615 56.095 217.382C56.8451 216.136 58.1293 215.513 59.9475 215.513C61.7657 215.513 63.0435 216.136 63.781 217.382C64.5311 218.615 64.9063 220.332 64.9063 222.531C64.9063 224.757 64.5311 226.498 63.781 227.757C63.0435 229.003 61.7657 229.626 59.9475 229.626C58.1293 229.626 56.8451 229.003 56.095 227.757C55.3575 226.498 54.9888 224.757 54.9888 222.531ZM62.7702 222.531C62.7702 221.501 62.7002 220.631 62.5604 219.918C62.4332 219.207 62.1662 218.628 61.7594 218.183C61.3525 217.725 60.7485 217.496 59.9475 217.496C59.1465 217.496 58.5425 217.725 58.1357 218.183C57.7288 218.628 57.4554 219.207 57.3156 219.918C57.1884 220.631 57.1249 221.501 57.1249 222.531C57.1249 223.599 57.1884 224.496 57.3156 225.22C57.4427 225.945 57.7098 226.53 58.1166 226.975C58.5362 227.42 59.1465 227.643 59.9475 227.643C60.7485 227.643 61.3525 227.42 61.7594 226.975C62.179 226.53 62.4523 225.945 62.5795 225.22C62.7066 224.496 62.7702 223.599 62.7702 222.531ZM66.8635 219.117C66.8635 218.19 67.1305 217.465 67.6646 216.943C68.2113 216.409 68.9108 216.142 69.7623 216.142C70.6144 216.142 71.3071 216.409 71.8411 216.943C72.3881 217.465 72.6612 218.19 72.6612 219.117C72.6612 220.046 72.3881 220.777 71.8411 221.311C71.3071 221.845 70.6144 222.112 69.7623 222.112C68.9108 222.112 68.2113 221.845 67.6646 221.311C67.1305 220.777 66.8635 220.046 66.8635 219.117ZM78.4973 216.39L70.8875 229.664H68.7514L76.3612 216.39H78.4973ZM69.7623 217.458C68.9612 217.458 68.5607 218.011 68.5607 219.117C68.5607 220.236 68.9612 220.796 69.7623 220.796C70.1437 220.796 70.4366 220.662 70.6396 220.395C70.8562 220.116 70.9638 219.689 70.9638 219.117C70.9638 218.011 70.5633 217.458 69.7623 217.458ZM74.6256 226.918C74.6256 225.99 74.8927 225.265 75.4267 224.744C75.9736 224.21 76.6732 223.943 77.5246 223.943C78.3638 223.943 79.0504 224.21 79.5844 224.744C80.1313 225.265 80.4045 225.99 80.4045 226.918C80.4045 227.846 80.1313 228.577 79.5844 229.111C79.0504 229.645 78.3638 229.912 77.5246 229.912C76.6732 229.912 75.9736 229.645 75.4267 229.111C74.8927 228.577 74.6256 227.846 74.6256 226.918ZM77.5055 225.259C76.7045 225.259 76.304 225.812 76.304 226.918C76.304 228.024 76.7045 228.577 77.5055 228.577C78.3065 228.577 78.7071 228.024 78.7071 226.918C78.7071 225.812 78.3065 225.259 77.5055 225.259Z" fill="#226BDF"/>
<path d="M10.8684 310.151C10.8684 310.824 10.7094 311.461 10.3915 312.058C10.0737 312.655 9.56511 313.145 8.86578 313.527C8.16651 313.895 7.27013 314.08 6.17665 314.08H3.77358V319.458H1.59937V306.203H6.17665C7.19384 306.203 8.05208 306.381 8.75134 306.737C9.46341 307.08 9.99103 307.551 10.3344 308.148C10.6904 308.746 10.8684 309.413 10.8684 310.151ZM6.17665 312.306C7.00312 312.306 7.61976 312.121 8.02661 311.753C8.43352 311.371 8.63691 310.837 8.63691 310.151C8.63691 308.701 7.81682 307.977 6.17665 307.977H3.77358V312.306H6.17665ZM12.2173 314.156C12.2173 313.101 12.4334 312.166 12.8657 311.352C13.3107 310.538 13.9084 309.909 14.6585 309.464C15.4214 309.006 16.2606 308.778 17.176 308.778C18.0024 308.778 18.7208 308.943 19.3311 309.273C19.9542 309.592 20.4501 309.992 20.8188 310.475V308.949H23.0121V319.458H20.8188V317.894C20.4501 318.39 19.9478 318.803 19.3121 319.134C18.6764 319.464 17.9516 319.63 17.1379 319.63C16.2351 319.63 15.4086 319.401 14.6585 318.943C13.9084 318.472 13.3107 317.824 12.8657 316.998C12.4334 316.158 12.2173 315.211 12.2173 314.156ZM20.8188 314.194C20.8188 313.469 20.6662 312.84 20.361 312.306C20.0686 311.772 19.6808 311.365 19.1976 311.085C18.7145 310.805 18.1932 310.666 17.6337 310.666C17.0743 310.666 16.553 310.805 16.0698 311.085C15.5867 311.352 15.1925 311.753 14.8874 312.287C14.5949 312.808 14.4487 313.431 14.4487 314.156C14.4487 314.881 14.5949 315.516 14.8874 316.063C15.1925 316.61 15.5867 317.03 16.0698 317.322C16.5657 317.602 17.087 317.741 17.6337 317.741C18.1932 317.741 18.7145 317.602 19.1976 317.322C19.6808 317.042 20.0686 316.635 20.361 316.101C20.6662 315.554 20.8188 314.919 20.8188 314.194ZM28.042 310.475C28.3598 309.941 28.7794 309.528 29.3008 309.235C29.8348 308.93 30.4642 308.778 31.1889 308.778V311.028H30.6358C29.7839 311.028 29.1355 311.244 28.6905 311.677C28.2582 312.109 28.042 312.859 28.042 313.927V319.458H25.8678V308.949H28.042V310.475ZM35.724 310.723V316.54C35.724 316.934 35.813 317.22 35.9911 317.398C36.1818 317.564 36.4996 317.646 36.9447 317.646H38.2797V319.458H36.5632C35.5841 319.458 34.834 319.229 34.3127 318.771C33.7914 318.314 33.5308 317.57 33.5308 316.54V310.723H32.2911V308.949H33.5308V306.336H35.724V308.949H38.2797V310.723H35.724ZM45.5856 308.778C46.4121 308.778 47.1495 308.949 47.7979 309.293C48.4591 309.636 48.9741 310.145 49.3428 310.818C49.7115 311.492 49.8959 312.306 49.8959 313.26V319.458H47.7407V313.584C47.7407 312.643 47.5055 311.924 47.0351 311.429C46.5647 310.92 45.9225 310.666 45.1088 310.666C44.2951 310.666 43.6466 310.92 43.1634 311.429C42.693 311.924 42.4578 312.643 42.4578 313.584V319.458H40.2836V308.949H42.4578V310.151C42.8138 309.718 43.2652 309.382 43.8119 309.14C44.3714 308.898 44.9626 308.778 45.5856 308.778ZM62.3006 313.946C62.3006 314.34 62.2752 314.696 62.2243 315.014H54.195C54.2586 315.853 54.5701 316.527 55.1295 317.036C55.689 317.545 56.3756 317.799 57.1893 317.799C58.3591 317.799 59.1855 317.309 59.6686 316.33H62.0145C61.6967 317.297 61.1181 318.091 60.2789 318.714C59.4525 319.324 58.4226 319.63 57.1893 319.63C56.1849 319.63 55.2821 319.407 54.481 318.962C53.6928 318.504 53.0697 317.869 52.612 317.055C52.167 316.229 51.9445 315.275 51.9445 314.194C51.9445 313.113 52.1607 312.166 52.5929 311.352C53.038 310.526 53.6546 309.89 54.4429 309.445C55.2439 309 56.1594 308.778 57.1893 308.778C58.181 308.778 59.0647 308.994 59.8403 309.426C60.6159 309.859 61.2199 310.469 61.6521 311.257C62.0845 312.033 62.3006 312.929 62.3006 313.946ZM60.031 313.26C60.0183 312.458 59.7323 311.816 59.1728 311.333C58.6133 310.85 57.9204 310.609 57.0939 310.609C56.3438 310.609 55.7017 310.85 55.1676 311.333C54.6336 311.804 54.3158 312.446 54.214 313.26H60.031ZM66.6145 310.475C66.9323 309.941 67.3519 309.528 67.8732 309.235C68.4073 308.93 69.0367 308.778 69.7614 308.778V311.028H69.2083C68.3562 311.028 67.7079 311.244 67.2629 311.677C66.8306 312.109 66.6145 312.859 66.6145 313.927V319.458H64.4403V308.949H66.6145V310.475ZM75.5743 319.63C74.7481 319.63 74.0043 319.483 73.3429 319.191C72.6944 318.886 72.1795 318.479 71.798 317.97C71.4166 317.449 71.2129 316.87 71.1877 316.235H73.4382C73.4764 316.68 73.6862 317.055 74.0676 317.36C74.462 317.652 74.9511 317.799 75.5362 317.799C76.1465 317.799 76.6171 317.684 76.9475 317.455C77.2908 317.214 77.4624 316.908 77.4624 316.54C77.4624 316.146 77.2717 315.853 76.8903 315.663C76.5218 315.472 75.9305 315.262 75.1166 315.033C74.3285 314.817 73.6862 314.607 73.1903 314.404C72.6944 314.2 72.2619 313.889 71.8934 313.469C71.5372 313.05 71.3594 312.497 71.3594 311.81C71.3594 311.251 71.5249 310.742 71.8553 310.284C72.1856 309.814 72.6563 309.445 73.2666 309.178C73.8898 308.911 74.6016 308.778 75.4027 308.778C76.5981 308.778 77.5578 309.083 78.2825 309.693C79.0202 310.29 79.4139 311.111 79.465 312.153H77.2908C77.2526 311.683 77.0619 311.308 76.7186 311.028C76.3753 310.748 75.9115 310.609 75.3264 310.609C74.7542 310.609 74.3156 310.717 74.0104 310.933C73.7053 311.149 73.5527 311.435 73.5527 311.791C73.5527 312.071 73.6542 312.306 73.8578 312.497C74.0615 312.687 74.3094 312.84 74.6016 312.954C74.8939 313.056 75.3264 313.189 75.8985 313.355C76.6614 313.559 77.2847 313.768 77.7676 313.984C78.2635 314.188 78.6892 314.493 79.0454 314.9C79.4017 315.306 79.5856 315.847 79.5985 316.521C79.5985 317.118 79.433 317.652 79.1026 318.123C78.7723 318.594 78.3016 318.962 77.6913 319.229C77.0939 319.496 76.3883 319.63 75.5743 319.63ZM87.3833 308.778C88.1843 308.778 88.8961 308.949 89.5194 309.293C90.1549 309.636 90.6507 310.145 91.007 310.818C91.3755 311.492 91.5601 312.306 91.5601 313.26V319.458H89.4049V313.584C89.4049 312.643 89.1699 311.924 88.6993 311.429C88.2286 310.92 87.587 310.666 86.773 310.666C85.959 310.666 85.3106 310.92 84.8277 311.429C84.357 311.924 84.122 312.643 84.122 313.584V319.458H81.9478V305.345H84.122V310.17C84.4905 309.725 84.955 309.382 85.5142 309.14C86.0864 308.898 86.7097 308.778 87.3833 308.778ZM95.4399 307.557C95.0455 307.557 94.7151 307.423 94.4481 307.156C94.1811 306.889 94.0476 306.559 94.0476 306.165C94.0476 305.77 94.1811 305.44 94.4481 305.173C94.7151 304.906 95.0455 304.772 95.4399 304.772C95.8213 304.772 96.1455 304.906 96.4126 305.173C96.6796 305.44 96.8131 305.77 96.8131 306.165C96.8131 306.559 96.6796 306.889 96.4126 307.156C96.1455 307.423 95.8213 307.557 95.4399 307.557ZM96.5079 308.949V319.458H94.3337V308.949H96.5079ZM101.536 310.494C101.905 310.011 102.407 309.604 103.043 309.273C103.679 308.943 104.397 308.778 105.198 308.778C106.113 308.778 106.946 309.006 107.696 309.464C108.459 309.909 109.057 310.538 109.489 311.352C109.922 312.166 110.138 313.101 110.138 314.156C110.138 315.211 109.922 316.158 109.489 316.998C109.057 317.824 108.459 318.472 107.696 318.943C106.946 319.401 106.113 319.63 105.198 319.63C104.397 319.63 103.685 319.471 103.062 319.153C102.439 318.822 101.931 318.415 101.536 317.932V324.455H99.3619V308.949H101.536V310.494ZM107.925 314.156C107.925 313.431 107.773 312.808 107.468 312.287C107.175 311.753 106.781 311.352 106.285 311.085C105.802 310.805 105.281 310.666 104.721 310.666C104.175 310.666 103.653 310.805 103.157 311.085C102.674 311.365 102.28 311.772 101.975 312.306C101.683 312.84 101.536 313.469 101.536 314.194C101.536 314.919 101.683 315.554 101.975 316.101C102.28 316.635 102.674 317.042 103.157 317.322C103.653 317.602 104.175 317.741 104.721 317.741C105.281 317.741 105.802 317.602 106.285 317.322C106.781 317.03 107.175 316.61 107.468 316.063C107.773 315.516 107.925 314.881 107.925 314.156ZM59.9309 345.341L58.2907 343.701C57.655 344.337 56.962 344.814 56.2118 345.132C55.4617 345.437 54.6225 345.589 53.6943 345.589C52.7535 345.589 51.9206 345.424 51.1959 345.093C50.4711 344.763 49.9117 344.292 49.5176 343.682C49.1234 343.059 48.9263 342.341 48.9263 341.527C48.9263 340.612 49.187 339.798 49.7083 339.086C50.2296 338.361 51.0052 337.789 52.0351 337.369C51.6664 336.925 51.4057 336.511 51.2531 336.13C51.1005 335.735 51.0242 335.303 51.0242 334.833C51.0242 334.248 51.1705 333.727 51.4629 333.269C51.768 332.811 52.2004 332.449 52.7598 332.182C53.3193 331.915 53.9677 331.781 54.7051 331.781C55.4554 331.781 56.0911 331.928 56.6123 332.22C57.1464 332.5 57.5405 332.887 57.7948 333.383C58.0618 333.879 58.1699 334.432 58.119 335.043H55.9448C55.9576 334.572 55.8431 334.209 55.6015 333.955C55.36 333.688 55.0294 333.555 54.6098 333.555C54.1902 333.555 53.8469 333.682 53.5799 333.936C53.3256 334.178 53.1985 334.476 53.1985 334.833C53.1985 335.176 53.2938 335.519 53.4845 335.863C53.688 336.193 54.0376 336.626 54.5335 337.16L58.0428 340.65L59.3969 338.418H61.7427L60.0262 341.355L59.5494 342.137L62.7726 345.341H59.9309ZM53.6943 343.739C54.8895 343.739 55.9448 343.25 56.8603 342.271L53.351 338.743C51.8507 339.34 51.1005 340.243 51.1005 341.451C51.1005 342.099 51.3421 342.646 51.8253 343.091C52.3085 343.523 52.9314 343.739 53.6943 343.739ZM31.8105 361.784C31.4672 361.123 30.9904 360.627 30.3801 360.297C29.7698 359.953 29.0642 359.782 28.2631 359.782C27.3858 359.782 26.6039 359.979 25.9173 360.373C25.2307 360.767 24.6903 361.327 24.2961 362.051C23.9147 362.776 23.724 363.615 23.724 364.569C23.724 365.522 23.9147 366.368 24.2961 367.105C24.6903 367.83 25.2307 368.389 25.9173 368.784C26.6039 369.178 27.3858 369.375 28.2631 369.375C29.4456 369.375 30.4055 369.045 31.143 368.383C31.8805 367.722 32.3318 366.825 32.4971 365.694H27.5193V363.958H34.8239V365.656C34.6841 366.686 34.3153 367.633 33.7177 368.498C33.1328 369.362 32.3636 370.055 31.41 370.576C30.4692 371.085 29.4202 371.339 28.2631 371.339C27.017 371.339 25.8791 371.053 24.8492 370.481C23.8193 369.896 22.9992 369.089 22.3889 368.059C21.7913 367.029 21.4926 365.866 21.4926 364.569C21.4926 363.272 21.7913 362.108 22.3889 361.079C22.9992 360.049 23.8193 359.248 24.8492 358.675C25.8918 358.09 27.0298 357.798 28.2631 357.798C29.6745 357.798 30.9269 358.148 32.0203 358.847C33.1265 359.534 33.9275 360.513 34.4234 361.784H31.8105ZM39.1425 362.242C39.4604 361.708 39.88 361.295 40.4013 361.002C40.9353 360.697 41.5646 360.545 42.2894 360.545V362.795H41.7363C40.8845 362.795 40.236 363.011 39.791 363.444C39.3587 363.876 39.1425 364.626 39.1425 365.694V371.225H36.9683V360.716H39.1425V362.242ZM48.8461 371.397C47.8544 371.397 46.958 371.174 46.157 370.729C45.356 370.271 44.7266 369.636 44.2689 368.822C43.8111 367.996 43.5823 367.042 43.5823 365.961C43.5823 364.893 43.8175 363.946 44.2879 363.119C44.7584 362.293 45.4005 361.657 46.2142 361.212C47.028 360.767 47.9371 360.545 48.9415 360.545C49.946 360.545 50.8551 360.767 51.6688 361.212C52.4826 361.657 53.1247 362.293 53.5951 363.119C54.0655 363.946 54.3008 364.893 54.3008 365.961C54.3008 367.029 54.0592 367.977 53.576 368.803C53.0929 369.629 52.4317 370.271 51.5925 370.729C50.7661 371.174 49.8506 371.397 48.8461 371.397ZM48.8461 369.508C49.4056 369.508 49.9269 369.375 50.41 369.108C50.9059 368.841 51.3064 368.44 51.6116 367.906C51.9167 367.372 52.0693 366.724 52.0693 365.961C52.0693 365.198 51.9231 364.556 51.6307 364.035C51.3382 363.501 50.9505 363.1 50.4673 362.833C49.9841 362.566 49.4629 362.433 48.9034 362.433C48.3439 362.433 47.8227 362.566 47.3395 362.833C46.8691 363.1 46.4939 363.501 46.2142 364.035C45.9345 364.556 45.7946 365.198 45.7946 365.961C45.7946 367.092 46.0807 367.97 46.6529 368.593C47.2378 369.203 47.9688 369.508 48.8461 369.508ZM70.5631 360.716L67.3021 371.225H65.0134L62.8965 363.463L60.7794 371.225H58.4908L55.2104 360.716H57.4228L59.6161 369.165L61.8475 360.716H64.1171L66.2531 369.127L68.4271 360.716H70.5631ZM74.7249 362.49V368.307C74.7249 368.701 74.8142 368.987 74.9919 369.165C75.1827 369.331 75.5007 369.413 75.9455 369.413H77.2806V371.225H75.5641C74.5853 371.225 73.8347 370.996 73.3136 370.538C72.7925 370.081 72.5316 369.337 72.5316 368.307V362.49H71.292V360.716H72.5316V358.103H74.7249V360.716H77.2806V362.49H74.7249ZM84.72 360.545C85.5211 360.545 86.2329 360.716 86.8561 361.06C87.4916 361.403 87.9875 361.912 88.3437 362.585C88.7122 363.259 88.8968 364.073 88.8968 365.027V371.225H86.7417V365.351C86.7417 364.41 86.5067 363.691 86.036 363.196C85.5653 362.687 84.9237 362.433 84.1097 362.433C83.2958 362.433 82.6473 362.687 82.1644 363.196C81.6937 363.691 81.4587 364.41 81.4587 365.351V371.225H79.2845V357.112H81.4587V361.937C81.8272 361.492 82.2918 361.149 82.851 360.907C83.4231 360.665 84.0464 360.545 84.72 360.545Z" fill="#937E00"/>
<path d="M39.2432 397.449V395.466H43.2102V409.369H41.0169V397.449H39.2432ZM46.197 402.236C46.197 400.037 46.5657 398.32 47.3032 397.087C48.0534 395.841 49.3375 395.218 51.1558 395.218C52.9739 395.218 54.2518 395.841 54.9892 397.087C55.7394 398.32 56.1145 400.037 56.1145 402.236C56.1145 404.462 55.7394 406.203 54.9892 407.462C54.2518 408.708 52.9739 409.331 51.1558 409.331C49.3375 409.331 48.0534 408.708 47.3032 407.462C46.5657 406.203 46.197 404.462 46.197 402.236ZM53.9784 402.236C53.9784 401.206 53.9085 400.335 53.7686 399.623C53.6415 398.912 53.3745 398.333 52.9676 397.888C52.5607 397.43 51.9568 397.201 51.1558 397.201C50.3547 397.201 49.7508 397.43 49.3439 397.888C48.937 398.333 48.6637 398.912 48.5238 399.623C48.3967 400.335 48.3331 401.206 48.3331 402.236C48.3331 403.304 48.3967 404.201 48.5238 404.925C48.6509 405.65 48.9179 406.235 49.3248 406.68C49.7444 407.125 50.3547 407.348 51.1558 407.348C51.9568 407.348 52.5607 407.125 52.9676 406.68C53.3872 406.235 53.6605 405.65 53.7877 404.925C53.9148 404.201 53.9784 403.304 53.9784 402.236ZM58.0718 398.822C58.0718 397.894 58.3388 397.169 58.8728 396.648C59.4195 396.114 60.1188 395.847 60.9707 395.847C61.8226 395.847 62.5156 396.114 63.0496 396.648C63.5963 397.169 63.8697 397.894 63.8697 398.822C63.8697 399.751 63.5963 400.482 63.0496 401.016C62.5156 401.55 61.8226 401.817 60.9707 401.817C60.1188 401.817 59.4195 401.55 58.8728 401.016C58.3388 400.482 58.0718 399.751 58.0718 398.822ZM69.7056 396.095L62.096 409.369H59.9599L67.5696 396.095H69.7056ZM60.9707 397.163C60.1697 397.163 59.7692 397.716 59.7692 398.822C59.7692 399.942 60.1697 400.501 60.9707 400.501C61.3522 400.501 61.6446 400.367 61.848 400.1C62.0642 399.82 62.1723 399.395 62.1723 398.822C62.1723 397.716 61.7717 397.163 60.9707 397.163ZM65.8341 406.623C65.8341 405.694 66.1011 404.97 66.6351 404.449C67.1819 403.915 67.8811 403.648 68.733 403.648C69.5721 403.648 70.2587 403.915 70.7928 404.449C71.3397 404.97 71.6129 405.694 71.6129 406.623C71.6129 407.551 71.3397 408.282 70.7928 408.816C70.2587 409.35 69.5721 409.617 68.733 409.617C67.8811 409.617 67.1819 409.35 66.6351 408.816C66.1011 408.282 65.8341 407.551 65.8341 406.623ZM68.7139 404.964C67.9129 404.964 67.5124 405.517 67.5124 406.623C67.5124 407.729 67.9129 408.282 68.7139 408.282C69.5149 408.282 69.9154 407.729 69.9154 406.623C69.9154 405.517 69.5149 404.964 68.7139 404.964Z" fill="#937E00"/>
<path d="M121.817 511.673C120.927 511.673 120.126 511.521 119.414 511.216C118.703 510.898 118.143 510.453 117.736 509.881C117.329 509.309 117.126 508.641 117.126 507.878H119.452C119.504 508.45 119.726 508.921 120.12 509.289C120.527 509.658 121.093 509.843 121.817 509.843C122.567 509.843 123.152 509.665 123.572 509.309C123.992 508.94 124.201 508.469 124.201 507.897C124.201 507.452 124.068 507.09 123.801 506.81C123.547 506.53 123.223 506.314 122.828 506.162C122.447 506.009 121.913 505.844 121.226 505.666C120.362 505.437 119.656 505.208 119.109 504.979C118.575 504.737 118.117 504.369 117.736 503.873C117.355 503.377 117.164 502.716 117.164 501.889C117.164 501.127 117.355 500.459 117.736 499.887C118.117 499.315 118.651 498.876 119.338 498.571C120.025 498.266 120.82 498.113 121.722 498.113C123.006 498.113 124.055 498.437 124.869 499.086C125.695 499.721 126.153 500.599 126.242 501.718H123.839C123.801 501.235 123.572 500.821 123.152 500.478C122.733 500.135 122.18 499.963 121.493 499.963C120.87 499.963 120.362 500.122 119.967 500.44C119.573 500.758 119.376 501.216 119.376 501.813C119.376 502.22 119.497 502.557 119.739 502.824C119.993 503.078 120.311 503.282 120.692 503.434C121.074 503.587 121.595 503.752 122.256 503.93C123.133 504.172 123.845 504.413 124.392 504.655C124.951 504.897 125.422 505.271 125.803 505.78C126.198 506.276 126.395 506.944 126.395 507.783C126.395 508.456 126.21 509.093 125.842 509.69C125.485 510.287 124.958 510.771 124.259 511.139C123.572 511.496 122.758 511.673 121.817 511.673ZM131.497 502.805V508.622C131.497 509.016 131.586 509.302 131.764 509.48C131.955 509.646 132.272 509.728 132.718 509.728H134.053V511.54H132.336C131.357 511.54 130.607 511.311 130.086 510.853C129.564 510.396 129.304 509.652 129.304 508.622V502.805H128.064V501.031H129.304V498.418H131.497V501.031H134.053V502.805H131.497ZM135.331 506.238C135.331 505.183 135.548 504.248 135.98 503.434C136.425 502.62 137.023 501.991 137.773 501.546C138.536 501.088 139.375 500.86 140.291 500.86C141.117 500.86 141.836 501.025 142.446 501.355C143.068 501.674 143.564 502.074 143.933 502.557V501.031H146.127V511.54H143.933V509.976C143.564 510.472 143.062 510.885 142.427 511.216C141.791 511.546 141.066 511.712 140.253 511.712C139.349 511.712 138.523 511.483 137.773 511.025C137.023 510.554 136.425 509.906 135.98 509.08C135.548 508.241 135.331 507.293 135.331 506.238ZM143.933 506.276C143.933 505.551 143.781 504.922 143.476 504.388C143.183 503.854 142.795 503.447 142.312 503.167C141.829 502.887 141.308 502.748 140.748 502.748C140.189 502.748 139.667 502.887 139.185 503.167C138.701 503.434 138.307 503.835 138.001 504.369C137.709 504.89 137.563 505.513 137.563 506.238C137.563 506.963 137.709 507.598 138.001 508.145C138.307 508.692 138.701 509.112 139.185 509.404C139.68 509.684 140.201 509.823 140.748 509.823C141.308 509.823 141.829 509.684 142.312 509.404C142.795 509.124 143.183 508.717 143.476 508.183C143.781 507.636 143.933 507.001 143.933 506.276ZM153.14 506.295L157.984 511.54H155.047L151.156 507.02V511.54H148.982V497.427H151.156V505.628L154.971 501.031H157.984L153.14 506.295ZM160.649 499.639C160.254 499.639 159.924 499.506 159.657 499.239C159.39 498.971 159.257 498.641 159.257 498.247C159.257 497.852 159.39 497.522 159.657 497.255C159.924 496.988 160.254 496.854 160.649 496.854C161.03 496.854 161.354 496.988 161.621 497.255C161.888 497.522 162.022 497.852 162.022 498.247C162.022 498.641 161.888 498.971 161.621 499.239C161.354 499.506 161.03 499.639 160.649 499.639ZM161.717 501.031V511.54H159.543V501.031H161.717ZM169.874 500.86C170.7 500.86 171.437 501.031 172.086 501.375C172.747 501.718 173.262 502.227 173.631 502.9C173.999 503.574 174.184 504.388 174.184 505.342V511.54H172.029V505.666C172.029 504.725 171.793 504.007 171.323 503.511C170.852 503.002 170.21 502.748 169.397 502.748C168.583 502.748 167.934 503.002 167.451 503.511C166.981 504.007 166.746 504.725 166.746 505.666V511.54H164.571V501.031H166.746V502.233C167.101 501.8 167.553 501.464 168.1 501.222C168.659 500.98 169.25 500.86 169.874 500.86ZM181.191 500.86C182.005 500.86 182.723 501.025 183.346 501.355C183.982 501.674 184.478 502.074 184.833 502.557V501.031H187.027V511.712C187.027 512.678 186.824 513.536 186.416 514.286C186.01 515.049 185.419 515.647 184.643 516.079C183.88 516.512 182.964 516.728 181.896 516.728C180.473 516.728 179.29 516.39 178.349 515.717C177.408 515.055 176.874 514.153 176.747 513.009H178.902C179.068 513.556 179.417 513.994 179.951 514.325C180.498 514.668 181.146 514.839 181.896 514.839C182.774 514.839 183.479 514.572 184.013 514.038C184.56 513.504 184.833 512.729 184.833 511.712V509.957C184.465 510.453 183.963 510.872 183.327 511.216C182.704 511.546 181.992 511.712 181.191 511.712C180.275 511.712 179.436 511.483 178.673 511.025C177.923 510.554 177.326 509.906 176.88 509.08C176.449 508.241 176.232 507.293 176.232 506.238C176.232 505.183 176.449 504.248 176.88 503.434C177.326 502.62 177.923 501.991 178.673 501.546C179.436 501.088 180.275 500.86 181.191 500.86ZM184.833 506.276C184.833 505.551 184.681 504.922 184.376 504.388C184.084 503.854 183.696 503.447 183.212 503.167C182.729 502.887 182.208 502.748 181.648 502.748C181.089 502.748 180.568 502.887 180.085 503.167C179.602 503.434 179.207 503.835 178.902 504.369C178.61 504.89 178.463 505.513 178.463 506.238C178.463 506.963 178.61 507.598 178.902 508.145C179.207 508.692 179.602 509.112 180.085 509.404C180.58 509.684 181.102 509.823 181.648 509.823C182.208 509.823 182.729 509.684 183.212 509.404C183.696 509.124 184.084 508.717 184.376 508.183C184.681 507.636 184.833 507.001 184.833 506.276ZM156.654 537.424L155.014 535.783C154.377 536.419 153.685 536.896 152.935 537.214C152.184 537.519 151.345 537.671 150.417 537.671C149.476 537.671 148.644 537.506 147.919 537.176C147.194 536.845 146.634 536.375 146.241 535.764C145.846 535.141 145.649 534.423 145.649 533.609C145.649 532.694 145.909 531.88 146.431 531.168C146.952 530.443 147.728 529.871 148.758 529.451C148.389 529.007 148.129 528.593 147.976 528.212C147.824 527.817 147.747 527.386 147.747 526.915C147.747 526.33 147.893 525.809 148.186 525.351C148.491 524.893 148.923 524.531 149.483 524.264C150.042 523.997 150.69 523.863 151.428 523.863C152.178 523.863 152.814 524.01 153.335 524.302C153.869 524.582 154.263 524.969 154.518 525.465C154.785 525.961 154.892 526.514 154.842 527.125H152.668C152.68 526.654 152.566 526.292 152.325 526.037C152.083 525.77 151.752 525.637 151.333 525.637C150.913 525.637 150.57 525.764 150.303 526.018C150.048 526.26 149.921 526.559 149.921 526.915C149.921 527.258 150.017 527.601 150.208 527.945C150.41 528.275 150.761 528.708 151.256 529.242L154.766 532.732L156.12 530.5H158.466L156.749 533.437L156.272 534.219L159.496 537.424H156.654ZM150.417 535.821C151.612 535.821 152.668 535.332 153.583 534.353L150.074 530.825C148.573 531.422 147.824 532.325 147.824 533.533C147.824 534.181 148.065 534.728 148.548 535.173C149.031 535.606 149.654 535.821 150.417 535.821ZM49.8706 556.651C49.8706 555.354 50.1694 554.191 50.767 553.161C51.3773 552.131 52.1974 551.33 53.2273 550.758C54.2699 550.173 55.4078 549.88 56.6412 549.88C58.0525 549.88 59.3049 550.23 60.3984 550.929C61.5046 551.616 62.3056 552.595 62.8015 553.866H60.1886C59.8453 553.167 59.3685 552.646 58.7582 552.302C58.1479 551.959 57.4422 551.788 56.6412 551.788C55.7639 551.788 54.9819 551.984 54.2953 552.379C53.6087 552.773 53.0684 553.339 52.6742 554.076C52.2928 554.814 52.102 555.672 52.102 556.651C52.102 557.63 52.2928 558.488 52.6742 559.226C53.0684 559.963 53.6087 560.536 54.2953 560.942C54.9819 561.337 55.7639 561.533 56.6412 561.533C57.4422 561.533 58.1479 561.362 58.7582 561.018C59.3685 560.675 59.8453 560.154 60.1886 559.455H62.8015C62.3056 560.726 61.5046 561.705 60.3984 562.392C59.3049 563.078 58.0525 563.422 56.6412 563.422C55.3952 563.422 54.2572 563.135 53.2273 562.563C52.1974 561.978 51.3773 561.171 50.767 560.141C50.1694 559.111 49.8706 557.948 49.8706 556.651ZM69.9046 563.479C68.9129 563.479 68.0164 563.256 67.2154 562.811C66.4144 562.353 65.785 561.718 65.3273 560.904C64.8695 560.078 64.6407 559.124 64.6407 558.043C64.6407 556.975 64.876 556.028 65.3463 555.201C65.8168 554.375 66.4589 553.739 67.2726 553.294C68.0864 552.849 68.9953 552.627 70 552.627C71.0047 552.627 71.9133 552.849 72.7273 553.294C73.5413 553.739 74.1829 554.375 74.6536 555.201C75.1243 556.028 75.3592 556.975 75.3592 558.043C75.3592 559.111 75.1174 560.059 74.6345 560.885C74.1516 561.711 73.4902 562.353 72.651 562.811C71.8248 563.256 70.9093 563.479 69.9046 563.479ZM69.9046 561.591C70.4639 561.591 70.9856 561.457 71.4685 561.19C71.9644 560.923 72.3649 560.523 72.6701 559.989C72.9752 559.455 73.1278 558.806 73.1278 558.043C73.1278 557.28 72.9814 556.638 72.6892 556.117C72.3969 555.583 72.0087 555.182 71.5258 554.915C71.0428 554.648 70.5211 554.515 69.9619 554.515C69.4026 554.515 68.8809 554.648 68.3979 554.915C67.9275 555.182 67.5524 555.583 67.2726 556.117C66.993 556.638 66.853 557.28 66.853 558.043C66.853 559.175 67.1391 560.052 67.7113 560.675C68.2965 561.285 69.0273 561.591 69.9046 561.591ZM90.2293 552.627C91.0562 552.627 91.7932 552.798 92.4417 553.142C93.1031 553.485 93.618 553.994 93.9865 554.667C94.368 555.341 94.5587 556.155 94.5587 557.109V563.307H92.4035V557.433C92.4035 556.492 92.1685 555.774 91.6979 555.278C91.2279 554.769 90.5856 554.515 89.7716 554.515C88.9583 554.515 88.3098 554.769 87.8262 555.278C87.3562 555.774 87.1206 556.492 87.1206 557.433V563.307H84.9654V557.433C84.9654 556.492 84.7304 555.774 84.2598 555.278C83.7898 554.769 83.1475 554.515 82.3335 554.515C81.5202 554.515 80.8717 554.769 80.3881 555.278C79.9181 555.774 79.6825 556.492 79.6825 557.433V563.307H77.5083V552.798H79.6825V554C80.0387 553.567 80.4903 553.231 81.0366 552.989C81.5835 552.747 82.1686 552.627 82.7912 552.627C83.6304 552.627 84.381 552.804 85.0417 553.161C85.7031 553.517 86.2119 554.032 86.5675 554.706C86.8856 554.07 87.3814 553.567 88.0551 553.199C88.7294 552.817 89.4542 552.627 90.2293 552.627ZM110.047 552.627C110.873 552.627 111.61 552.798 112.259 553.142C112.92 553.485 113.435 553.994 113.804 554.667C114.185 555.341 114.376 556.155 114.376 557.109V563.307H112.221V557.433C112.221 556.492 111.986 555.774 111.515 555.278C111.045 554.769 110.403 554.515 109.589 554.515C108.776 554.515 108.127 554.769 107.643 555.278C107.173 555.774 106.938 556.492 106.938 557.433V563.307H104.783V557.433C104.783 556.492 104.548 555.774 104.077 555.278C103.606 554.769 102.965 554.515 102.151 554.515C101.337 554.515 100.688 554.769 100.205 555.278C99.7347 555.774 99.4997 556.492 99.4997 557.433V563.307H97.3255V552.798H99.4997V554C99.8559 553.567 100.307 553.231 100.854 552.989C101.401 552.747 101.985 552.627 102.608 552.627C103.448 552.627 104.198 552.804 104.859 553.161C105.52 553.517 106.028 554.032 106.385 554.706C106.703 554.07 107.199 553.567 107.872 553.199C108.547 552.817 109.271 552.627 110.047 552.627ZM126.66 552.798V563.307H124.485V562.067C124.142 562.5 123.691 562.843 123.131 563.097C122.584 563.339 122 563.46 121.377 563.46C120.55 563.46 119.807 563.288 119.145 562.945C118.497 562.601 117.982 562.093 117.6 561.419C117.232 560.745 117.047 559.931 117.047 558.978V552.798H119.202V558.654C119.202 559.594 119.437 560.319 119.908 560.828C120.379 561.324 121.02 561.572 121.834 561.572C122.648 561.572 123.29 561.324 123.761 560.828C124.244 560.319 124.485 559.594 124.485 558.654V552.798H126.66ZM134.831 552.627C135.657 552.627 136.395 552.798 137.043 553.142C137.704 553.485 138.219 553.994 138.588 554.667C138.956 555.341 139.141 556.155 139.141 557.109V563.307H136.986V557.433C136.986 556.492 136.75 555.774 136.28 555.278C135.809 554.769 135.167 554.515 134.354 554.515C133.54 554.515 132.891 554.769 132.409 555.278C131.938 555.774 131.703 556.492 131.703 557.433V563.307H129.529V552.798H131.703V554C132.058 553.567 132.51 553.231 133.057 552.989C133.616 552.747 134.207 552.627 134.831 552.627ZM143.02 551.406C142.626 551.406 142.295 551.273 142.028 551.006C141.761 550.739 141.628 550.408 141.628 550.014C141.628 549.619 141.761 549.289 142.028 549.022C142.295 548.755 142.626 548.622 143.02 548.622C143.402 548.622 143.726 548.755 143.993 549.022C144.26 549.289 144.393 549.619 144.393 550.014C144.393 550.408 144.26 550.739 143.993 551.006C143.726 551.273 143.402 551.406 143.02 551.406ZM144.088 552.798V563.307H141.914V552.798H144.088ZM149.479 554.572V560.389C149.479 560.783 149.569 561.07 149.746 561.247C149.937 561.413 150.255 561.495 150.7 561.495H152.035V563.307H150.319C149.34 563.307 148.589 563.078 148.068 562.62C147.547 562.163 147.286 561.419 147.286 560.389V554.572H146.046V552.798H147.286V550.185H149.479V552.798H152.035V554.572H149.479ZM163.499 552.798L157.052 568.247H154.802L156.938 563.135L152.799 552.798H155.221L158.178 560.809L161.248 552.798H163.499ZM172.268 550.052V563.307H170.094V550.052H172.268ZM180.424 552.627C181.251 552.627 181.988 552.798 182.637 553.142C183.298 553.485 183.813 553.994 184.182 554.667C184.55 555.341 184.735 556.155 184.735 557.109V563.307H182.58V557.433C182.58 556.492 182.345 555.774 181.874 555.278C181.403 554.769 180.762 554.515 179.948 554.515C179.134 554.515 178.485 554.769 178.002 555.278C177.532 555.774 177.297 556.492 177.297 557.433V563.307H175.122V552.798H177.297V554C177.653 553.567 178.104 553.231 178.651 552.989C179.21 552.747 179.801 552.627 180.424 552.627ZM191.323 563.479C190.496 563.479 189.752 563.332 189.091 563.04C188.443 562.735 187.928 562.328 187.547 561.819C187.165 561.298 186.961 560.719 186.936 560.084H189.187C189.225 560.529 189.435 560.904 189.816 561.209C190.21 561.501 190.7 561.648 191.285 561.648C191.895 561.648 192.365 561.533 192.696 561.305C193.039 561.063 193.211 560.758 193.211 560.389C193.211 559.995 193.02 559.702 192.639 559.512C192.27 559.321 191.678 559.111 190.865 558.882C190.076 558.666 189.435 558.457 188.939 558.253C188.443 558.049 188.01 557.738 187.642 557.318C187.286 556.899 187.108 556.346 187.108 555.659C187.108 555.1 187.273 554.591 187.604 554.133C187.934 553.663 188.405 553.294 189.015 553.027C189.638 552.76 190.35 552.627 191.151 552.627C192.346 552.627 193.306 552.932 194.031 553.542C194.768 554.14 195.162 554.96 195.213 556.002H193.039C193.001 555.532 192.81 555.157 192.467 554.877C192.124 554.597 191.659 554.458 191.075 554.458C190.503 554.458 190.064 554.566 189.759 554.782C189.454 554.998 189.301 555.284 189.301 555.64C189.301 555.92 189.403 556.155 189.606 556.346C189.809 556.537 190.057 556.689 190.35 556.804C190.642 556.905 191.075 557.038 191.647 557.204C192.41 557.408 193.032 557.617 193.516 557.833C194.012 558.037 194.438 558.342 194.794 558.749C195.149 559.155 195.334 559.696 195.347 560.37C195.347 560.967 195.181 561.501 194.851 561.972C194.52 562.443 194.05 562.811 193.44 563.078C192.842 563.345 192.136 563.479 191.323 563.479ZM207.328 557.795C207.328 558.19 207.302 558.545 207.251 558.863H199.222C199.285 559.702 199.597 560.376 200.157 560.885C200.716 561.394 201.402 561.648 202.216 561.648C203.386 561.648 204.212 561.158 204.696 560.179H207.042C206.723 561.146 206.145 561.94 205.306 562.563C204.479 563.174 203.449 563.479 202.216 563.479C201.212 563.479 200.309 563.256 199.508 562.811C198.719 562.353 198.097 561.718 197.639 560.904C197.194 560.078 196.972 559.124 196.972 558.043C196.972 556.962 197.187 556.015 197.62 555.201C198.065 554.375 198.681 553.739 199.47 553.294C200.271 552.849 201.186 552.627 202.216 552.627C203.208 552.627 204.092 552.843 204.867 553.275C205.642 553.708 206.247 554.318 206.679 555.106C207.111 555.882 207.328 556.778 207.328 557.795ZM205.058 557.109C205.045 556.308 204.759 555.665 204.2 555.182C203.64 554.699 202.947 554.458 202.121 554.458C201.37 554.458 200.729 554.699 200.195 555.182C199.661 555.653 199.343 556.295 199.241 557.109H205.058ZM214.769 552.627C215.595 552.627 216.333 552.798 216.981 553.142C217.643 553.485 218.158 553.994 218.526 554.667C218.895 555.341 219.079 556.155 219.079 557.109V563.307H216.924V557.433C216.924 556.492 216.689 555.774 216.219 555.278C215.748 554.769 215.106 554.515 214.292 554.515C213.478 554.515 212.83 554.769 212.347 555.278C211.876 555.774 211.641 556.492 211.641 557.433V563.307H209.467V552.798H211.641V554C211.998 553.567 212.448 553.231 212.995 552.989C213.555 552.747 214.146 552.627 214.769 552.627ZM224.389 554.572V560.389C224.389 560.783 224.478 561.07 224.656 561.247C224.847 561.413 225.165 561.495 225.61 561.495H226.945V563.307H225.228C224.249 563.307 223.499 563.078 222.978 562.62C222.457 562.163 222.196 561.419 222.196 560.389V554.572H220.956V552.798H222.196V550.185H224.389V552.798H226.945V554.572H224.389ZM230.055 551.406C229.661 551.406 229.33 551.273 229.063 551.006C228.796 550.739 228.662 550.408 228.662 550.014C228.662 549.619 228.796 549.289 229.063 549.022C229.33 548.755 229.661 548.622 230.055 548.622C230.436 548.622 230.76 548.755 231.027 549.022C231.294 549.289 231.428 549.619 231.428 550.014C231.428 550.408 231.294 550.739 231.027 551.006C230.76 551.273 230.436 551.406 230.055 551.406ZM231.123 552.798V563.307H228.949V552.798H231.123ZM238.04 561.362L241.015 552.798H243.323L239.318 563.307H236.724L232.738 552.798H235.065L238.04 561.362ZM254.598 557.795C254.598 558.19 254.572 558.545 254.521 558.863H246.492C246.555 559.702 246.867 560.376 247.427 560.885C247.986 561.394 248.672 561.648 249.486 561.648C250.656 561.648 251.483 561.158 251.966 560.179H254.312C253.994 561.146 253.415 561.94 252.576 562.563C251.75 563.174 250.72 563.479 249.486 563.479C248.482 563.479 247.579 563.256 246.778 562.811C245.99 562.353 245.367 561.718 244.909 560.904C244.464 560.078 244.242 559.124 244.242 558.043C244.242 556.962 244.458 556.015 244.89 555.201C245.335 554.375 245.952 553.739 246.74 553.294C247.541 552.849 248.457 552.627 249.486 552.627C250.478 552.627 251.362 552.843 252.137 553.275C252.913 553.708 253.517 554.318 253.949 555.106C254.382 555.882 254.598 556.778 254.598 557.795ZM252.328 557.109C252.315 556.308 252.029 555.665 251.47 555.182C250.911 554.699 250.217 554.458 249.391 554.458C248.641 554.458 247.999 554.699 247.465 555.182C246.931 555.653 246.613 556.295 246.511 557.109H252.328Z" fill="#D76748"/>
<path d="M135.966 589.532V587.549H139.933V601.452H137.74V589.532H135.966ZM142.92 594.319C142.92 592.12 143.289 590.403 144.026 589.17C144.776 587.924 146.06 587.301 147.879 587.301C149.697 587.301 150.975 587.924 151.712 589.17C152.462 590.403 152.837 592.12 152.837 594.319C152.837 596.545 152.462 598.286 151.712 599.545C150.975 600.791 149.697 601.414 147.879 601.414C146.06 601.414 144.776 600.791 144.026 599.545C143.289 598.286 142.92 596.545 142.92 594.319ZM150.701 594.319C150.701 593.289 150.631 592.418 150.492 591.706C150.364 590.995 150.097 590.416 149.691 589.971C149.283 589.513 148.68 589.284 147.879 589.284C147.078 589.284 146.474 589.513 146.067 589.971C145.66 590.416 145.386 590.995 145.247 591.706C145.119 592.418 145.056 593.289 145.056 594.319C145.056 595.387 145.119 596.284 145.247 597.008C145.373 597.733 145.64 598.318 146.048 598.763C146.467 599.208 147.078 599.431 147.879 599.431C148.68 599.431 149.283 599.208 149.691 598.763C150.11 598.318 150.383 597.733 150.511 597.008C150.637 596.284 150.701 595.387 150.701 594.319ZM154.794 590.905C154.794 589.977 155.061 589.252 155.595 588.731C156.142 588.197 156.841 587.93 157.693 587.93C158.545 587.93 159.238 588.197 159.772 588.731C160.319 589.252 160.592 589.977 160.592 590.905C160.592 591.834 160.319 592.565 159.772 593.099C159.238 593.633 158.545 593.9 157.693 593.9C156.841 593.9 156.142 593.633 155.595 593.099C155.061 592.565 154.794 591.834 154.794 590.905ZM166.428 588.178L158.819 601.452H156.683L164.292 588.178H166.428ZM157.693 589.246C156.892 589.246 156.492 589.799 156.492 590.905C156.492 592.025 156.892 592.584 157.693 592.584C158.075 592.584 158.367 592.45 158.571 592.183C158.787 591.903 158.895 591.478 158.895 590.905C158.895 589.799 158.494 589.246 157.693 589.246ZM162.557 598.706C162.557 597.777 162.824 597.053 163.358 596.532C163.905 595.998 164.604 595.731 165.456 595.731C166.295 595.731 166.981 595.998 167.515 596.532C168.062 597.053 168.336 597.777 168.336 598.706C168.336 599.634 168.062 600.365 167.515 600.899C166.981 601.433 166.295 601.7 165.456 601.7C164.604 601.7 163.905 601.433 163.358 600.899C162.824 600.365 162.557 599.634 162.557 598.706ZM165.437 597.047C164.636 597.047 164.235 597.6 164.235 598.706C164.235 599.812 164.636 600.365 165.437 600.365C166.238 600.365 166.638 599.812 166.638 598.706C166.638 597.6 166.238 597.047 165.437 597.047Z" fill="#D76748"/>
<path d="M271.273 15.6067L272.428 28.8113L270.262 29.0008L269.472 19.9571L266.235 29.3533L264.734 29.4846L259.895 20.7949L260.687 29.8386L258.521 30.0281L257.366 16.8235L259.703 16.619L265.244 26.5681L268.955 15.8095L271.273 15.6067ZM274.091 23.3436C273.999 22.2923 274.133 21.3424 274.493 20.4941C274.865 19.6447 275.406 18.9657 276.114 18.457C276.834 17.9345 277.65 17.6333 278.562 17.5536C279.386 17.4815 280.116 17.5835 280.753 17.8597C281.4 18.1221 281.93 18.4778 282.339 18.927L282.206 17.4071L284.391 17.2159L285.307 27.6846L283.122 27.8758L282.985 26.3178C282.661 26.8439 282.197 27.2994 281.593 27.6841C280.988 28.0688 280.281 28.2967 279.47 28.3676C278.571 28.4462 277.728 28.2903 276.94 27.8997C276.152 27.4964 275.5 26.9025 274.985 26.118C274.481 25.3197 274.183 24.3949 274.091 23.3436ZM282.663 22.6319C282.6 21.9099 282.393 21.2963 282.043 20.7909C281.705 20.2844 281.283 19.9129 280.777 19.6763C280.272 19.4397 279.74 19.3459 279.183 19.3946C278.625 19.4433 278.118 19.6281 277.662 19.9489C277.203 20.257 276.846 20.6903 276.588 21.2489C276.342 21.7937 276.251 22.4271 276.314 23.1491C276.377 23.8711 276.579 24.4916 276.917 25.0108C277.269 25.5289 277.698 25.9125 278.205 26.1617C278.724 26.3972 279.255 26.4911 279.8 26.4434C280.357 26.3946 280.864 26.2099 281.321 25.8891C281.778 25.5683 282.129 25.1292 282.373 24.5718C282.63 24.0005 282.727 23.3539 282.663 22.6319ZM289.535 18.2975C289.805 17.7378 290.187 17.2896 290.681 16.9528C291.186 16.6023 291.8 16.3954 292.522 16.3322L292.718 18.5742L292.167 18.6224C291.319 18.6966 290.691 18.9684 290.285 19.4379C289.892 19.9062 289.742 20.6724 289.836 21.7364L290.318 27.2462L288.152 27.4357L287.236 16.967L289.402 16.7775L289.535 18.2975ZM299.129 21.2106L304.412 26.0132L301.485 26.2692L297.215 22.1054L297.61 26.6083L295.444 26.7978L294.213 12.7382L296.38 12.5487L297.094 20.7184L300.494 15.8071L303.495 15.5445L299.129 21.2106ZM315.078 19.5471C315.112 19.9398 315.119 20.2966 315.095 20.6177L307.097 21.3175C307.233 22.148 307.602 22.7921 308.204 23.25C308.806 23.7079 309.511 23.9014 310.322 23.8305C311.487 23.7285 312.268 23.1688 312.664 22.1514L315.001 21.947C314.768 22.9373 314.262 23.7794 313.48 24.4732C312.71 25.1532 311.71 25.5469 310.482 25.6544C309.481 25.742 308.562 25.599 307.725 25.2254C306.9 24.8382 306.224 24.2592 305.698 23.4884C305.182 22.7039 304.877 21.7733 304.783 20.6966C304.689 19.62 304.822 18.6576 305.181 17.8092C305.552 16.9472 306.112 16.2601 306.858 15.7481C307.617 15.2349 308.51 14.9335 309.536 14.8437C310.523 14.7573 311.423 14.8956 312.233 15.2587C313.044 15.6217 313.698 16.177 314.198 16.9247C314.696 17.6596 314.99 18.5338 315.078 19.5471ZM312.758 19.0609C312.675 18.264 312.334 17.6493 311.735 17.2167C311.135 16.7842 310.424 16.6039 309.601 16.676C308.853 16.7414 308.235 17.0379 307.744 17.5658C307.254 18.0811 306.993 18.7484 306.962 19.5679L312.758 19.0609ZM319.456 15.9286L319.963 21.7235C319.997 22.1161 320.111 22.3934 320.303 22.5552C320.508 22.7032 320.832 22.7579 321.275 22.719L322.605 22.6027L322.763 24.4077L321.053 24.5572C320.078 24.6426 319.31 24.4799 318.751 24.0694C318.192 23.6589 317.868 22.9406 317.778 21.9146L317.271 16.1198L316.036 16.2278L315.881 14.4608L317.116 14.3528L316.888 11.7499L319.073 11.5587L319.301 14.1617L321.847 13.9389L322.001 15.7059L319.456 15.9286ZM324.824 12.2809C324.431 12.3152 324.091 12.2111 323.801 11.9683C323.512 11.7256 323.35 11.4079 323.315 11.0153C323.281 10.6227 323.386 10.2817 323.628 9.99239C323.871 9.7031 324.189 9.54133 324.581 9.507C324.961 9.4737 325.296 9.57846 325.585 9.82122C325.874 10.0639 326.036 10.3816 326.071 10.7743C326.105 11.1669 326 11.5079 325.758 11.7971C325.516 12.0864 325.204 12.2477 324.824 12.2809ZM326.009 13.5748L326.925 24.0435L324.759 24.233L323.843 13.7643L326.009 13.5748ZM334.12 12.6929C334.943 12.6209 335.692 12.7276 336.369 13.0131C337.058 13.2974 337.615 13.7592 338.04 14.3984C338.467 15.0376 338.722 15.8321 338.805 16.7821L339.345 22.957L337.198 23.1448L336.686 17.2929C336.604 16.3556 336.307 15.6605 335.795 15.2075C335.282 14.7418 334.62 14.5445 333.809 14.6154C332.999 14.6863 332.375 14.9961 331.938 15.5449C331.512 16.0799 331.341 16.816 331.423 17.7534L331.935 23.6052L329.769 23.7947L328.853 13.326L331.019 13.1365L331.123 14.3335C331.441 13.8718 331.861 13.4967 332.384 13.2085C332.921 12.9191 333.499 12.7472 334.12 12.6929ZM345.395 11.7065C346.205 11.6356 346.935 11.7376 347.585 12.0127C348.245 12.2739 348.775 12.6296 349.171 13.0799L349.038 11.56L351.223 11.3688L352.154 22.0085C352.238 22.9712 352.11 23.8439 351.77 24.6267C351.432 25.4221 350.895 26.069 350.16 26.5672C349.437 27.0643 348.544 27.3595 347.48 27.4526C346.062 27.5767 344.855 27.3441 343.858 26.7548C342.864 26.1781 342.253 25.3254 342.026 24.1964L344.173 24.0086C344.386 24.5389 344.772 24.9454 345.333 25.2282C345.908 25.5225 346.568 25.637 347.316 25.5716C348.19 25.4952 348.869 25.1676 349.355 24.5891C349.853 24.0095 350.058 23.213 349.969 22.1997L349.816 20.4518C349.492 20.9779 349.029 21.4396 348.425 21.837C347.833 22.2206 347.138 22.4474 346.34 22.5172C345.428 22.597 344.573 22.4422 343.772 22.0526C342.984 21.6494 342.332 21.0555 341.817 20.2709C341.313 19.4726 341.015 18.5478 340.923 17.4965C340.831 16.4452 340.965 15.4954 341.325 14.6471C341.697 13.7977 342.238 13.1186 342.946 12.6099C343.667 12.0874 344.483 11.7863 345.395 11.7065ZM349.495 16.7848C349.433 16.0629 349.225 15.4492 348.875 14.9438C348.537 14.4373 348.115 14.0658 347.61 13.8292C347.104 13.5926 346.572 13.4988 346.015 13.5476C345.457 13.5963 344.951 13.7811 344.494 14.1018C344.036 14.41 343.678 14.8433 343.42 15.4018C343.174 15.9467 343.083 16.5801 343.146 17.302C343.21 18.024 343.411 18.6446 343.75 19.1637C344.101 19.6818 344.53 20.0654 345.037 20.3147C345.555 20.5501 346.087 20.644 346.632 20.5964C347.189 20.5476 347.696 20.3628 348.153 20.0421C348.61 19.7213 348.961 19.2822 349.206 18.7247C349.462 18.1535 349.559 17.5068 349.495 16.7848Z" fill="#E04B96"/>
<path d="M303.038 40.7191L296.673 41.276L297.004 45.0569C297.239 44.6789 297.606 44.3469 298.104 44.0608C298.615 43.7736 299.168 43.604 299.763 43.5519C300.827 43.4588 301.709 43.6114 302.407 44.0098C303.118 44.4071 303.644 44.9418 303.983 45.6141C304.336 46.2852 304.546 47.0071 304.613 47.7798C304.695 48.7171 304.585 49.5692 304.281 50.336C303.99 51.089 303.502 51.706 302.816 52.1872C302.143 52.6673 301.288 52.9527 300.249 53.0436C298.868 53.1644 297.73 52.9193 296.834 52.3085C295.939 51.6976 295.359 50.8358 295.096 49.7229L297.205 49.5383C297.396 50.1215 297.748 50.5693 298.26 50.8819C298.772 51.1817 299.388 51.3001 300.11 51.237C301.009 51.1582 301.657 50.8272 302.053 50.2438C302.461 49.6592 302.626 48.9173 302.547 48.018C302.468 47.106 302.179 46.4293 301.68 45.9879C301.181 45.5338 300.488 45.3455 299.601 45.4231C298.981 45.4774 298.469 45.6817 298.066 46.036C297.675 46.3766 297.407 46.8212 297.264 47.3698L295.212 47.5493L294.512 39.5506L302.872 38.8191L303.038 40.7191ZM306.031 41.9506C305.95 41.026 306.153 40.2807 306.639 39.7148C307.137 39.1352 307.81 38.8082 308.659 38.734C309.508 38.6597 310.221 38.8654 310.8 39.3508C311.39 39.8225 311.726 40.5206 311.806 41.4453C311.887 42.37 311.679 43.1221 311.181 43.7017C310.695 44.2802 310.028 44.6066 309.18 44.6809C308.331 44.7551 307.611 44.5501 307.02 44.0657C306.441 43.5803 306.112 42.8752 306.031 41.9506ZM317.383 38.2197L310.959 52.1066L308.831 52.2928L315.255 38.4059L317.383 38.2197ZM308.774 40.045C307.976 40.1148 307.625 40.7007 307.721 41.8027C307.819 42.9173 308.267 43.4397 309.064 43.3699C309.445 43.3366 309.724 43.1782 309.904 42.8944C310.095 42.597 310.165 42.1632 310.115 41.5932C310.019 40.4913 309.572 39.9752 308.774 40.045ZM314.443 49.0448C314.362 48.1203 314.565 47.3749 315.052 46.8091C315.55 46.2295 316.223 45.9025 317.072 45.8283C317.908 45.7552 318.615 45.9613 319.194 46.4468C319.784 46.9184 320.119 47.6166 320.2 48.5412C320.281 49.4659 320.072 50.218 319.574 50.7976C319.089 51.3761 318.428 51.702 317.592 51.7752C316.744 51.8494 316.024 51.6444 315.432 51.16C314.854 50.6746 314.524 49.9695 314.443 49.0448ZM317.167 47.1409C316.37 47.2107 316.019 47.7966 316.115 48.8986C316.212 50.0006 316.659 50.5167 317.457 50.4468C318.254 50.377 318.605 49.7911 318.509 48.6892C318.413 47.5872 317.966 47.0711 317.167 47.1409Z" fill="#E04B96"/>
<defs>
<linearGradient id="paint0_linear_1243_179" x1="364.413" y1="82.4187" x2="364.413" y2="525.163" gradientUnits="userSpaceOnUse">
<stop stop-color="#3250F9" stop-opacity="0.8"/>
<stop offset="1" stop-color="#9133EE" stop-opacity="0.88"/>
</linearGradient>
<linearGradient id="paint1_linear_1243_179" x1="218.989" y1="177.438" x2="183.91" y2="268.371" gradientUnits="userSpaceOnUse">
<stop stop-color="#006DF2"/>
<stop offset="1" stop-color="#4B6AC7"/>
</linearGradient>
<linearGradient id="paint2_linear_1243_179" x1="271.437" y1="105.578" x2="278.589" y2="204.003" gradientUnits="userSpaceOnUse">
<stop stop-color="#6FE7DB"/>
<stop offset="1" stop-color="#23CE6B"/>
</linearGradient>
<linearGradient id="paint3_linear_1243_179" x1="339.967" y1="94.9289" x2="265.648" y2="253.045" gradientUnits="userSpaceOnUse">
<stop stop-color="#EC4AA1"/>
<stop offset="1" stop-color="#974E52"/>
</linearGradient>
<linearGradient id="paint4_linear_1243_179" x1="206.047" y1="390.296" x2="315.371" y2="478.845" gradientUnits="userSpaceOnUse">
<stop stop-color="#FE6B43"/>
<stop offset="1" stop-color="#845F54"/>
</linearGradient>
<linearGradient id="paint5_linear_1243_179" x1="188.678" y1="281.313" x2="158.367" y2="420.266" gradientUnits="userSpaceOnUse">
<stop stop-color="#FDEE6D"/>
<stop offset="1" stop-color="#937E00"/>
</linearGradient>
</defs>
</svg>
