<svg width="605" height="535" viewBox="0 0 605 535" fill="none" xmlns="http://www.w3.org/2000/svg">
<path d="M332.964 104.224L332 299L303.185 236.305L303.63 41.5264L332.964 104.224Z" fill="#44A2FF"/>
<path d="M501.708 72.2812L501.263 267.209L422.595 313.118L423.039 118.19L501.708 72.2812Z" fill="#44A2FF"/>
<g filter="url(#filter0_i_575_464)">
<path d="M333 104V298.772L303 236.5V41.5L333 104Z" fill="url(#paint0_linear_575_464)"/>
</g>
<path d="M501.708 72.2812L501.263 267.209L422.595 313.118L423.039 118.19L501.708 72.2812Z" fill="url(#paint1_linear_575_464)"/>
<path d="M303 82L333 145C318.629 148.417 305.204 153.814 293.5 160.5C281.796 167.334 272.926 175.68 267 184L158.776 166.587C169.887 147.719 188.406 129.89 214.332 114.735C240.259 99.7295 270.407 88.3886 303 82Z" fill="url(#paint2_linear_575_464)"/>
<g filter="url(#filter1_i_575_464)">
<path d="M333 145V299C296.172 301.492 273.063 325.905 266.63 337.744L239.5 258L267 183.5C273.425 173.475 296.246 152.755 333 145Z" fill="url(#paint3_linear_575_464)"/>
</g>
<g filter="url(#filter2_i_575_464)">
<path d="M158.776 166.587L158.331 320.805L266.556 337.57L267 183.5L158.776 166.587Z" fill="#F5C262"/>
</g>
<g filter="url(#filter3_i_575_464)">
<path d="M161 265.5V381L269.5 343.5V251.5L161 265.5Z" fill="url(#paint4_linear_575_464)"/>
</g>
<g filter="url(#filter4_i_575_464)">
<path d="M154.001 348.233L154.5 233.5C154.473 239.698 155.077 250.995 161 265.5L162.445 384.81C156.767 372.864 153.944 360.549 154.001 348.233Z" fill="url(#paint5_linear_575_464)"/>
</g>
<path d="M266.744 224.986L158.594 208.197C152.409 227.156 153.249 246.717 161 265.5L269.655 251.5C265.838 242.818 264.868 233.814 266.744 224.986Z" fill="url(#paint6_linear_575_464)"/>
<g filter="url(#filter5_i_575_464)">
<path d="M212.224 323.193L212 437.5C188.263 421.752 171.563 403.993 162.446 384.81L161 265.5C166.5 280.5 182.004 302.947 212.224 323.193Z" fill="url(#paint7_linear_575_464)"/>
</g>
<g filter="url(#filter6_i_575_464)">
<path d="M291.041 277.284L290.596 392.062L212 437.5L212.224 323.193L291.041 277.284Z" fill="url(#paint8_linear_575_464)"/>
</g>
<path d="M212.372 323.193L291.189 277.284C280.853 269.433 273.675 260.645 269.655 251.5L161 265.5C169.588 286.312 186.675 306.168 212.372 323.193Z" fill="url(#paint9_linear_575_464)"/>
<g filter="url(#filter7_i_575_464)">
<path fill-rule="evenodd" clip-rule="evenodd" d="M423 118.001V118C410 112.001 381 100.5 333 104V299C358.559 295.729 399.715 299.178 422.524 313.222L422.523 313.719C439.354 326.452 447.799 341.841 447.857 357.092L447.5 170.001C452 148.501 443 130.001 423 118.001Z" fill="url(#paint10_linear_575_464)"/>
</g>
<g filter="url(#filter8_i_575_464)">
<path d="M559.445 164.527C559.445 165.121 559.445 165.715 559.296 166.31C559.296 166.755 559.296 167.35 559.148 167.795C559.148 168.39 559 168.984 559 169.578C559 170.024 558.852 170.47 558.852 171.064C558.704 171.658 558.704 172.401 558.556 172.995C558.556 173.441 558.407 173.887 558.407 174.333C558.259 175.075 558.111 175.67 558.111 176.413C557.963 176.858 557.963 177.304 557.815 177.601C557.815 177.75 557.667 178.047 557.667 178.195C557.519 178.938 557.37 179.681 557.222 180.424C557.222 180.721 557.074 181.018 556.926 181.315C556.778 182.058 556.63 182.653 556.333 183.395C556.185 183.693 556.185 183.99 556.037 184.287C555.741 185.178 555.296 186.11 555 187.001V382.916C555.296 382.025 555.593 380.985 555.889 380.094C556.037 379.796 556.037 379.499 556.185 379.202C556.333 378.459 556.482 377.865 556.778 377.122C556.926 376.825 556.926 376.528 557.074 376.231C557.222 375.488 557.37 374.745 557.519 374.002C557.519 373.853 557.667 373.556 557.667 373.408V373.259C557.667 372.962 557.815 372.516 557.815 372.219C557.963 371.476 558.111 370.882 558.111 370.139C558.111 369.693 558.259 369.248 558.259 368.802C558.407 368.208 558.407 367.465 558.556 366.871C558.556 366.425 558.704 365.979 558.704 365.533C558.704 364.939 558.852 364.345 558.852 363.602C558.852 363.156 558.852 362.562 559 362.116C559 361.522 559 360.928 559.148 360.333C559.148 360.185 559.148 360.036 559.148 359.888C559.148 359.145 559.148 358.551 559.148 357.808L559.593 162.001C559.593 162.744 559.593 163.635 559.445 164.527Z" fill="url(#paint11_linear_575_464)"/>
</g>
<path fill-rule="evenodd" clip-rule="evenodd" d="M501.612 72.2449L501.531 72.2921C549.646 98.895 569.447 152.626 555 187C545.5 205 523.5 224.5 499.771 238.592C473.844 253.746 442.593 264.463 410 271L381.398 208.283C395.769 204.866 409.102 199.666 420.806 192.98C432.356 186.149 441.99 179.008 447.438 170.089C451.239 151.992 445.45 131.47 423 118C396 106 364.26 101.623 333 104L303 41.5001C371.594 33.7743 445.611 44.0161 501.612 72.2449Z" fill="url(#paint12_linear_575_464)"/>
<g filter="url(#filter9_i_575_464)">
<path d="M555 187V382.867C541 411 483.6 458.1 410 468.5V271C499.947 253.798 544.329 207.814 555 187Z" fill="#D9D9D9"/>
<path d="M555 187V382.867C541 411 483.6 458.1 410 468.5V271C499.947 253.798 544.329 207.814 555 187Z" fill="url(#paint13_linear_575_464)"/>
</g>
<path d="M410 271V468.5L381.007 405.359L381.599 208.208L410 271Z" fill="url(#paint14_linear_575_464)"/>
<g filter="url(#filter10_i_575_464)">
<path d="M333 336L332.596 404.062L302 465.5L303 398L333 336Z" fill="url(#paint15_linear_575_464)"/>
</g>
<path d="M291.117 323.755L212 370C238 383 271.5 393.5 303 398L333 336C316 333 303.491 329.332 291.117 323.755Z" fill="url(#paint16_linear_575_464)"/>
<g filter="url(#filter11_i_575_464)">
<path d="M212 437.5V370C229.5 378.5 260 391.5 303 398L302 465.5C301.259 465.351 300.446 465.235 299.557 465.087C298.372 464.938 297.187 464.641 296.002 464.492C295.113 464.344 294.372 464.195 293.483 464.046C292.15 463.749 290.965 463.601 289.631 463.304L287.409 462.858C287.261 462.709 287.113 462.709 286.964 462.709C286.076 462.561 285.187 462.264 284.298 462.115C283.261 461.818 282.224 461.669 281.187 461.372C280.15 461.075 279.112 460.926 278.075 460.629C277.038 460.332 276.001 460.184 274.964 459.886C274.075 459.589 273.038 459.441 272.001 459.144C270.964 458.995 269.927 458.698 268.89 458.401C267.853 458.252 266.964 457.955 265.927 457.658L262.816 456.766C262.668 456.618 262.52 456.618 262.371 456.618C261.779 456.469 261.334 456.321 260.89 456.172C259.26 455.726 257.631 455.132 256.001 454.686C255.26 454.389 254.371 454.241 253.63 453.944C252.149 453.498 250.816 453.052 249.334 452.606C248.593 452.458 247.704 452.161 246.964 451.864C245.482 451.418 244.001 450.972 242.519 450.378C241.927 450.081 241.186 449.932 240.445 449.635L234.667 447.406C234.519 447.406 234.223 447.258 234.075 447.258H233.926C232.889 446.812 231.704 446.366 230.667 445.921C229.926 445.623 229.037 445.326 228.297 445.029C227.111 444.583 226.074 443.989 224.889 443.543C224.148 443.246 223.556 442.949 222.815 442.652C221.482 442.206 220.297 441.612 219.111 441.018L219.111 441.018C218.519 440.869 217.926 440.572 217.334 440.275L217.333 440.275C215.556 439.383 213.778 438.391 212 437.5Z" fill="url(#paint17_linear_575_464)"/>
</g>
<path d="M410 415L381.193 351.869C365.113 353.092 348.719 352.467 333 349.954L303 412.067C338.092 417.746 374.44 419.005 410 415Z" fill="url(#paint18_linear_575_464)"/>
<g filter="url(#filter12_i_575_464)">
<path d="M410 415V468.5C374.347 475.153 323.195 469.262 302 465.5L303 412.096C319.518 415.041 363.621 419.972 410 415Z" fill="url(#paint19_linear_575_464)"/>
</g>
<path d="M163.262 56V55.5H163.484L163.633 55.6652L163.262 56ZM30.6667 56C30.6667 57.4728 29.4728 58.6667 28 58.6667C26.5272 58.6667 25.3333 57.4728 25.3333 56C25.3333 54.5272 26.5272 53.3333 28 53.3333C29.4728 53.3333 30.6667 54.5272 30.6667 56ZM215.629 114.835L162.89 56.3348L163.633 55.6652L216.371 114.165L215.629 114.835ZM163.262 56.5H28V55.5H163.262V56.5Z" fill="#FFCB69"/>
<path d="M34.336 68.8V80H31.92V72.72H29.2V71.04H29.488C31.184 71.04 32.176 70.304 32.464 68.8H34.336ZM44.7626 68.896L44.7466 70.832H40.1546L39.7226 73.264C40.2506 72.752 40.9386 72.48 41.7866 72.48C42.8746 72.48 43.7386 72.816 44.3786 73.488C45.0346 74.16 45.3546 75.056 45.3546 76.144C45.3546 77.328 44.9706 78.288 44.1706 79.04C43.3866 79.808 42.3786 80.176 41.1306 80.176C39.9626 80.176 39.0026 79.888 38.2666 79.28C37.5306 78.672 37.1306 77.808 37.0666 76.688H39.3066C39.3546 77.184 39.5466 77.584 39.8826 77.888C40.2186 78.192 40.6346 78.336 41.1466 78.336C41.7066 78.336 42.1706 78.144 42.5386 77.744C42.8906 77.344 43.0826 76.832 43.0826 76.192C43.0826 75.568 42.9066 75.072 42.5546 74.688C42.2026 74.32 41.7226 74.128 41.1306 74.128C40.4106 74.128 39.8506 74.448 39.4506 75.056H37.4186L38.5066 68.896H44.7626ZM57.5733 68.48L51.2853 80.432H49.8613L56.1653 68.48H57.5733ZM49.7173 68.704C50.5813 68.704 51.2373 68.976 51.7013 69.488C52.1493 70 52.3893 70.752 52.3893 71.744C52.3893 72.768 52.1493 73.568 51.7013 74.112C51.2373 74.656 50.5813 74.944 49.7333 74.944C48.8533 74.944 48.1813 74.672 47.7173 74.128C47.2533 73.584 47.0293 72.816 47.0293 71.808C47.0293 70.816 47.2533 70.064 47.7333 69.52C48.1973 68.976 48.8533 68.704 49.7173 68.704ZM49.7013 69.888C48.9973 69.888 48.6613 70.56 48.6613 71.904C48.6613 72.576 48.7413 73.056 48.9013 73.344C49.0613 73.632 49.3173 73.792 49.6853 73.792C50.0533 73.792 50.3253 73.632 50.4852 73.312C50.6453 72.992 50.7413 72.464 50.7413 71.744C50.7413 71.488 50.7253 71.28 50.7093 71.12C50.6933 70.96 50.6613 70.768 50.5973 70.544C50.5333 70.32 50.4373 70.16 50.2773 70.048C50.1173 69.936 49.9253 69.888 49.7013 69.888ZM57.9413 74.016C58.8053 74.016 59.4613 74.272 59.9253 74.784C60.3733 75.296 60.6133 76.048 60.6133 77.04C60.6133 78.064 60.3733 78.864 59.9253 79.408C59.4613 79.952 58.8053 80.24 57.9573 80.24C57.0773 80.24 56.4053 79.968 55.9413 79.424C55.4773 78.88 55.2533 78.112 55.2533 77.12C55.2533 76.128 55.4773 75.36 55.9573 74.816C56.4213 74.272 57.0773 74.016 57.9413 74.016ZM57.9253 75.184C57.2213 75.184 56.8853 75.856 56.8853 77.2C56.8853 77.872 56.9653 78.352 57.1253 78.64C57.2853 78.928 57.5413 79.088 57.9093 79.088C58.2773 79.088 58.5493 78.928 58.7093 78.608C58.8693 78.288 58.9653 77.76 58.9653 77.04C58.9653 76.784 58.9493 76.576 58.9333 76.416C58.9173 76.256 58.8853 76.064 58.8213 75.84C58.7573 75.616 58.6613 75.456 58.5013 75.344C58.3413 75.232 58.1493 75.184 57.9253 75.184Z" fill="white"/>
<path d="M34.996 93.964L33.892 93.976C33.772 92.812 33.064 92.236 31.768 92.236C31.156 92.236 30.676 92.356 30.34 92.608C30.004 92.848 29.836 93.196 29.836 93.652C29.836 93.808 29.86 93.952 29.908 94.072C29.956 94.192 30.04 94.288 30.16 94.384C30.28 94.48 30.388 94.552 30.484 94.624C30.592 94.684 30.76 94.744 30.976 94.804C31.204 94.876 31.384 94.924 31.516 94.948C31.66 94.972 31.864 95.02 32.152 95.08C32.512 95.152 32.8 95.224 33.028 95.284C33.268 95.344 33.544 95.44 33.856 95.572C34.18 95.716 34.432 95.86 34.624 96.028C34.816 96.196 34.972 96.412 35.116 96.676C35.26 96.952 35.32 97.264 35.32 97.6C35.32 98.2 35.152 98.704 34.816 99.112C34.48 99.52 34.072 99.796 33.592 99.952C33.112 100.12 32.584 100.192 31.996 100.192C30.928 100.192 30.076 99.94 29.428 99.436C28.78 98.932 28.456 98.176 28.456 97.18H29.548C29.572 97.912 29.824 98.44 30.28 98.776C30.748 99.112 31.348 99.28 32.092 99.28C32.68 99.28 33.184 99.148 33.604 98.908C34.012 98.668 34.228 98.272 34.228 97.72C34.228 97.456 34.168 97.24 34.06 97.06C33.94 96.88 33.772 96.736 33.532 96.616C33.292 96.496 33.052 96.412 32.812 96.34C32.572 96.268 32.248 96.184 31.864 96.1C31.804 96.088 31.768 96.076 31.744 96.064C30.856 95.872 30.28 95.704 30.016 95.584C29.176 95.224 28.768 94.612 28.768 93.724C28.768 92.908 29.068 92.308 29.668 91.9C30.268 91.492 31 91.288 31.852 91.288C32.788 91.288 33.544 91.516 34.096 91.96C34.66 92.416 34.96 93.076 34.996 93.964ZM39.2013 93.808V94.648H37.9653V98.26C37.9653 98.464 37.9653 98.596 37.9653 98.656C37.9653 98.728 37.9893 98.812 38.0373 98.92C38.0733 99.028 38.1453 99.1 38.2413 99.124C38.3373 99.16 38.4693 99.172 38.6493 99.172C38.7933 99.172 38.9853 99.16 39.2013 99.136V100.012C38.9133 100.048 38.6493 100.06 38.4213 100.06C38.1333 100.06 37.8933 100.036 37.7013 99.964C37.5093 99.904 37.3533 99.832 37.2573 99.748C37.1613 99.676 37.0893 99.532 37.0413 99.328C36.9933 99.124 36.9573 98.956 36.9573 98.812C36.9453 98.668 36.9453 98.44 36.9453 98.104V98.056V97.996V97.936V94.648H35.9013V93.808H36.9453V91.972H37.9653V93.808H39.2013ZM45.8184 99.184V99.988C45.6024 100.06 45.3744 100.108 45.1224 100.108C44.5344 100.108 44.2344 99.796 44.2224 99.196C43.6344 99.844 42.8904 100.18 41.9784 100.18C41.3664 100.18 40.8864 100.024 40.5264 99.712C40.1664 99.4 39.9984 98.968 39.9984 98.428C39.9984 97.324 40.7304 96.676 42.1944 96.496C42.2904 96.472 42.4224 96.46 42.6144 96.448C43.3104 96.364 43.7304 96.268 43.8984 96.172C44.0784 96.04 44.1744 95.824 44.1744 95.512C44.1744 94.828 43.7064 94.492 42.7704 94.492C42.2904 94.492 41.9184 94.588 41.6784 94.78C41.4264 94.972 41.2824 95.296 41.2344 95.752H40.2384C40.2504 95.08 40.4904 94.564 40.9464 94.204C41.4024 93.832 42.0264 93.652 42.8304 93.652C43.6944 93.652 44.3424 93.844 44.7744 94.252C44.9064 94.372 45.0024 94.54 45.0744 94.756C45.1344 94.96 45.1704 95.128 45.1824 95.26C45.1824 95.392 45.1944 95.596 45.1944 95.86C45.1944 96.16 45.1824 96.616 45.1704 97.228C45.1464 97.852 45.1464 98.308 45.1464 98.608C45.1464 98.836 45.1704 98.992 45.2304 99.088C45.2904 99.184 45.3984 99.22 45.5664 99.22C45.6264 99.22 45.7104 99.208 45.8184 99.184ZM44.1744 96.796C44.1024 96.844 44.0184 96.892 43.9464 96.94C43.8624 96.976 43.7544 97.012 43.6344 97.036C43.5144 97.06 43.4304 97.072 43.3824 97.084C43.3344 97.096 43.2384 97.108 43.0704 97.132C42.9024 97.156 42.8064 97.168 42.8064 97.168C42.5544 97.192 42.3864 97.216 42.3144 97.228C42.2424 97.24 42.0984 97.276 41.8824 97.336C41.6664 97.384 41.5224 97.456 41.4384 97.528C41.3424 97.6 41.2584 97.696 41.1744 97.84C41.0904 97.984 41.0544 98.152 41.0544 98.344C41.0544 98.656 41.1624 98.908 41.3784 99.1C41.5944 99.28 41.9064 99.376 42.2904 99.376C42.7704 99.376 43.2144 99.232 43.5984 98.944C43.9824 98.656 44.1744 98.308 44.1744 97.924V96.796ZM51.9877 93.808L49.5277 96.052L52.1677 100H50.8717L48.7477 96.76L47.7757 97.66V100H46.7797V91.456H47.7757V96.508L50.6197 93.808H51.9877ZM54.0824 91.456V92.704H53.0504V91.456H54.0824ZM54.0824 93.808V100H53.0504V93.808H54.0824ZM56.6225 93.808V94.768C57.1265 94.024 57.8345 93.64 58.7345 93.64C59.4545 93.64 59.9825 93.832 60.3065 94.216C60.6305 94.6 60.7985 95.152 60.7985 95.884V100H59.7785V96.352C59.7785 96.052 59.7665 95.812 59.7425 95.644C59.7185 95.476 59.6705 95.284 59.5985 95.092C59.5145 94.9 59.3825 94.756 59.1905 94.66C58.9985 94.576 58.7465 94.528 58.4465 94.528C57.2705 94.528 56.6825 95.272 56.6825 96.76V100H55.6625V93.808H56.6225ZM67.6945 93.808V99.34C67.6945 99.868 67.6585 100.288 67.6105 100.576C67.5505 100.864 67.4425 101.14 67.2865 101.392C66.8305 102.148 66.0145 102.52 64.8385 102.52C64.1425 102.52 63.5545 102.388 63.0745 102.1C62.5945 101.812 62.3185 101.344 62.2345 100.696H63.2785C63.3985 101.392 63.9385 101.728 64.8745 101.728C65.5105 101.728 65.9665 101.572 66.2545 101.248C66.5425 100.936 66.6865 100.42 66.7105 99.7L66.7225 98.944C66.3265 99.7 65.6665 100.072 64.7425 100.072C63.9145 100.072 63.2545 99.796 62.7625 99.22C62.2705 98.656 62.0185 97.888 62.0185 96.928C62.0185 96.028 62.2705 95.26 62.7505 94.612C63.2425 93.964 63.9265 93.64 64.8025 93.64C65.2345 93.64 65.6185 93.736 65.9545 93.916C66.2905 94.108 66.5665 94.372 66.7585 94.708V93.808H67.6945ZM64.8505 94.54C64.2985 94.54 63.8545 94.744 63.5425 95.176C63.2305 95.608 63.0745 96.196 63.0745 96.952C63.0745 97.624 63.2305 98.176 63.5665 98.584C63.8905 98.992 64.3225 99.208 64.8745 99.208C65.4385 99.208 65.8825 98.992 66.2065 98.56C66.5305 98.128 66.6985 97.528 66.6985 96.784C66.6985 96.076 66.5305 95.524 66.2065 95.128C65.8825 94.732 65.4265 94.54 64.8505 94.54ZM78.453 95.956C78.405 96.772 78.213 97.48 77.853 98.08L79.509 100.012H78.189L77.277 98.932C76.689 99.772 75.861 100.192 74.793 100.192C74.049 100.192 73.437 99.964 72.933 99.532C72.429 99.1 72.189 98.512 72.189 97.78C72.189 97.216 72.381 96.712 72.765 96.256C73.149 95.8 73.617 95.452 74.193 95.212C73.569 94.456 73.269 93.796 73.269 93.232C73.269 92.692 73.449 92.26 73.821 91.924C74.193 91.588 74.673 91.42 75.261 91.42C75.837 91.42 76.305 91.576 76.665 91.912C77.025 92.248 77.217 92.668 77.217 93.196C77.217 94.12 76.689 94.864 75.645 95.416L77.205 97.324C77.361 96.928 77.457 96.472 77.481 95.956H78.453ZM75.093 94.756C75.849 94.3 76.221 93.808 76.221 93.28C76.221 92.98 76.137 92.74 75.945 92.548C75.753 92.356 75.525 92.26 75.237 92.26C74.961 92.26 74.721 92.344 74.529 92.524C74.337 92.704 74.241 92.932 74.241 93.196C74.241 93.244 74.253 93.304 74.265 93.376C74.277 93.436 74.289 93.496 74.313 93.568C74.337 93.628 74.361 93.688 74.385 93.736C74.409 93.784 74.445 93.856 74.493 93.928C74.541 94 74.577 94.06 74.601 94.108C74.625 94.144 74.673 94.204 74.733 94.288C74.793 94.372 74.829 94.432 74.853 94.456C74.877 94.48 74.913 94.528 74.985 94.612C75.057 94.696 75.093 94.744 75.093 94.756ZM74.733 95.872C73.749 96.376 73.245 96.988 73.245 97.732C73.245 98.164 73.413 98.536 73.725 98.848C74.049 99.16 74.433 99.316 74.889 99.316C75.645 99.316 76.245 98.956 76.701 98.248L74.733 95.872ZM90.8754 96.772C90.7794 97.852 90.3954 98.704 89.7474 99.304C89.0994 99.904 88.2354 100.204 87.1674 100.204C85.9554 100.204 84.9954 99.808 84.2874 99.004C83.5674 98.2 83.2194 97.108 83.2194 95.74C83.2194 94.468 83.5674 93.4 84.2874 92.548C85.0074 91.696 85.9914 91.264 87.2634 91.264C88.1634 91.264 88.9554 91.516 89.6394 91.996C90.3354 92.488 90.7194 93.16 90.7914 94.024H89.6634C89.5434 93.472 89.2554 93.028 88.8234 92.716C88.3914 92.404 87.8634 92.236 87.2274 92.236C86.2794 92.236 85.5594 92.572 85.0794 93.244C84.5994 93.916 84.3594 94.744 84.3594 95.728C84.3594 96.82 84.6114 97.672 85.1274 98.296C85.6314 98.92 86.3394 99.232 87.2274 99.232C87.9474 99.232 88.5354 99.028 88.9674 98.608C89.3994 98.188 89.6514 97.576 89.7474 96.772H90.8754ZM94.8316 93.628C95.7676 93.628 96.4876 93.916 97.0156 94.492C97.5316 95.056 97.7956 95.848 97.7956 96.868C97.7956 97.924 97.5316 98.74 97.0156 99.316C96.4876 99.904 95.7556 100.192 94.8196 100.192C93.8716 100.192 93.1276 99.904 92.5996 99.328C92.0596 98.752 91.7956 97.96 91.7956 96.928C91.7956 95.92 92.0596 95.116 92.6116 94.516C93.1516 93.928 93.8956 93.628 94.8316 93.628ZM94.8076 94.492C94.2076 94.492 93.7276 94.708 93.3796 95.14C93.0196 95.584 92.8516 96.172 92.8516 96.904C92.8516 97.672 93.0196 98.26 93.3676 98.692C93.7156 99.124 94.2076 99.328 94.8316 99.328C95.4316 99.328 95.8996 99.112 96.2356 98.68C96.5716 98.248 96.7516 97.66 96.7516 96.892C96.7516 96.16 96.5716 95.572 96.2236 95.14C95.8756 94.708 95.4076 94.492 94.8076 94.492ZM99.9702 93.808L99.9582 94.72C100.234 94.348 100.522 94.084 100.834 93.916C101.146 93.748 101.53 93.664 101.974 93.664C102.826 93.664 103.402 94.012 103.702 94.732C104.23 94.012 104.914 93.652 105.754 93.652C106.39 93.652 106.87 93.82 107.206 94.18C107.542 94.54 107.71 95.032 107.71 95.68V100.012H106.69V96.112C106.69 95.596 106.606 95.212 106.45 94.948C106.282 94.684 105.958 94.564 105.454 94.564C104.398 94.564 103.87 95.2 103.87 96.496V100.012H102.85V96.04C102.85 95.56 102.766 95.2 102.61 94.948C102.454 94.696 102.154 94.576 101.71 94.576C101.074 94.576 100.63 94.768 100.39 95.152C100.15 95.536 100.03 96.064 100.03 96.724V100H99.0102V93.808H99.9702ZM110.201 93.808L110.189 94.72C110.465 94.348 110.753 94.084 111.065 93.916C111.377 93.748 111.761 93.664 112.205 93.664C113.057 93.664 113.633 94.012 113.933 94.732C114.461 94.012 115.145 93.652 115.985 93.652C116.621 93.652 117.101 93.82 117.437 94.18C117.773 94.54 117.941 95.032 117.941 95.68V100.012H116.921V96.112C116.921 95.596 116.837 95.212 116.681 94.948C116.513 94.684 116.189 94.564 115.685 94.564C114.629 94.564 114.101 95.2 114.101 96.496V100.012H113.081V96.04C113.081 95.56 112.997 95.2 112.841 94.948C112.685 94.696 112.385 94.576 111.941 94.576C111.305 94.576 110.861 94.768 110.621 95.152C110.381 95.536 110.261 96.064 110.261 96.724V100H109.241V93.808H110.201ZM124.607 93.808L124.595 100H123.647V99.028C123.119 99.796 122.411 100.168 121.511 100.168C120.863 100.168 120.347 99.988 119.987 99.628C119.627 99.268 119.447 98.752 119.447 98.068V93.808H120.467V97.792C120.467 98.284 120.563 98.656 120.755 98.908C120.947 99.16 121.283 99.28 121.775 99.28C122.975 99.28 123.587 98.536 123.587 97.048V93.808H124.607ZM127.099 93.808V94.768C127.603 94.024 128.311 93.64 129.211 93.64C129.931 93.64 130.459 93.832 130.783 94.216C131.107 94.6 131.275 95.152 131.275 95.884V100H130.255V96.352C130.255 96.052 130.243 95.812 130.219 95.644C130.195 95.476 130.147 95.284 130.075 95.092C129.991 94.9 129.859 94.756 129.667 94.66C129.475 94.576 129.223 94.528 128.923 94.528C127.747 94.528 127.159 95.272 127.159 96.76V100H126.139V93.808H127.099ZM133.887 91.456V92.704H132.855V91.456H133.887ZM133.887 93.808V100H132.855V93.808H133.887ZM138.119 93.808V94.648H136.883V98.26C136.883 98.464 136.883 98.596 136.883 98.656C136.883 98.728 136.907 98.812 136.955 98.92C136.991 99.028 137.063 99.1 137.159 99.124C137.255 99.16 137.387 99.172 137.567 99.172C137.711 99.172 137.903 99.16 138.119 99.136V100.012C137.831 100.048 137.567 100.06 137.339 100.06C137.051 100.06 136.811 100.036 136.619 99.964C136.427 99.904 136.271 99.832 136.175 99.748C136.079 99.676 136.007 99.532 135.959 99.328C135.911 99.124 135.875 98.956 135.875 98.812C135.863 98.668 135.863 98.44 135.863 98.104V98.056V97.996V97.936V94.648H134.819V93.808H135.863V91.972H136.883V93.808H138.119ZM144.376 93.808L141.724 100.792C141.616 101.08 141.52 101.296 141.448 101.452C141.376 101.608 141.268 101.776 141.124 101.968C140.98 102.16 140.812 102.292 140.62 102.376C140.428 102.46 140.2 102.496 139.936 102.496C139.732 102.496 139.48 102.46 139.18 102.388V101.476C139.468 101.572 139.696 101.608 139.84 101.608C140.176 101.608 140.416 101.44 140.56 101.092L141.04 99.964L138.58 93.808H139.732L141.568 98.74L143.308 93.808H144.376ZM30.124 111.456V120H28.996V111.456H30.124ZM32.8335 113.808V114.768C33.3375 114.024 34.0455 113.64 34.9455 113.64C35.6655 113.64 36.1935 113.832 36.5175 114.216C36.8415 114.6 37.0095 115.152 37.0095 115.884V120H35.9895V116.352C35.9895 116.052 35.9775 115.812 35.9535 115.644C35.9295 115.476 35.8815 115.284 35.8095 115.092C35.7255 114.9 35.5935 114.756 35.4015 114.66C35.2095 114.576 34.9575 114.528 34.6575 114.528C33.4815 114.528 32.8935 115.272 32.8935 116.76V120H31.8735V113.808H32.8335ZM43.8694 117.744C43.7734 118.488 43.4974 119.088 43.0174 119.52C42.5374 119.964 41.9254 120.18 41.1574 120.18C40.2214 120.18 39.5014 119.892 38.9854 119.316C38.4814 118.74 38.2174 117.96 38.2174 116.988C38.2174 115.956 38.4934 115.14 39.0214 114.54C39.5614 113.94 40.2814 113.628 41.1934 113.628C41.9614 113.628 42.5614 113.82 43.0174 114.204C43.4734 114.588 43.7494 115.128 43.8214 115.836H42.7654C42.5854 114.936 42.0694 114.492 41.2174 114.492C40.6174 114.492 40.1494 114.708 39.8134 115.14C39.4654 115.572 39.2974 116.172 39.2974 116.916C39.2974 117.66 39.4534 118.26 39.7894 118.692C40.1134 119.124 40.5694 119.34 41.1454 119.34C41.6014 119.34 41.9854 119.196 42.2734 118.932C42.5614 118.656 42.7534 118.26 42.8374 117.744H43.8694ZM50.2787 118.044C49.9668 119.484 49.0668 120.204 47.5788 120.204C46.6668 120.204 45.9468 119.928 45.4308 119.352C44.9148 118.788 44.6628 117.996 44.6628 116.988C44.6628 115.992 44.9268 115.188 45.4548 114.564C45.9827 113.94 46.6788 113.628 47.5428 113.628C48.4908 113.628 49.1988 113.952 49.6548 114.6C50.1108 115.248 50.3508 116.052 50.3508 117.036V117.18H45.6948L45.6828 117.252C45.6828 117.912 45.8508 118.428 46.1988 118.8C46.5348 119.184 47.0148 119.364 47.6148 119.364C48.0588 119.364 48.4068 119.268 48.6708 119.052C48.9348 118.848 49.1388 118.512 49.2828 118.044H50.2787ZM49.2948 116.352C49.2468 115.764 49.0668 115.308 48.7548 114.972C48.4428 114.636 48.0228 114.468 47.5188 114.468C47.0148 114.468 46.6068 114.636 46.2828 114.972C45.9468 115.308 45.7548 115.776 45.6948 116.352H49.2948ZM52.3921 113.808V114.768C52.8961 114.024 53.6041 113.64 54.5041 113.64C55.2241 113.64 55.7521 113.832 56.0761 114.216C56.4001 114.6 56.5681 115.152 56.5681 115.884V120H55.5481V116.352C55.5481 116.052 55.5361 115.812 55.5121 115.644C55.4881 115.476 55.4401 115.284 55.3681 115.092C55.2841 114.9 55.1521 114.756 54.9601 114.66C54.7681 114.576 54.5161 114.528 54.2161 114.528C53.0401 114.528 52.4521 115.272 52.4521 116.76V120H51.4321V113.808H52.3921ZM60.752 113.808V114.648H59.516V118.26C59.516 118.464 59.516 118.596 59.516 118.656C59.516 118.728 59.54 118.812 59.588 118.92C59.624 119.028 59.696 119.1 59.792 119.124C59.888 119.16 60.02 119.172 60.2 119.172C60.344 119.172 60.536 119.16 60.752 119.136V120.012C60.464 120.048 60.2 120.06 59.972 120.06C59.684 120.06 59.444 120.036 59.252 119.964C59.06 119.904 58.904 119.832 58.808 119.748C58.712 119.676 58.64 119.532 58.592 119.328C58.544 119.124 58.508 118.956 58.508 118.812C58.496 118.668 58.496 118.44 58.496 118.104V118.056V117.996V117.936V114.648H57.452V113.808H58.496V111.972H59.516V113.808H60.752ZM62.9652 111.456V112.704H61.9332V111.456H62.9652ZM62.9652 113.808V120H61.9332V113.808H62.9652ZM63.9453 113.808H65.0853L66.8373 119.004L68.5413 113.808H69.6093L67.3413 120H66.2493L63.9453 113.808ZM75.8373 118.044C75.5253 119.484 74.6253 120.204 73.1373 120.204C72.2253 120.204 71.5053 119.928 70.9893 119.352C70.4733 118.788 70.2213 117.996 70.2213 116.988C70.2213 115.992 70.4853 115.188 71.0133 114.564C71.5413 113.94 72.2373 113.628 73.1013 113.628C74.0493 113.628 74.7573 113.952 75.2133 114.6C75.6693 115.248 75.9093 116.052 75.9093 117.036V117.18H71.2533L71.2413 117.252C71.2413 117.912 71.4093 118.428 71.7573 118.8C72.0933 119.184 72.5733 119.364 73.1733 119.364C73.6173 119.364 73.9653 119.268 74.2293 119.052C74.4933 118.848 74.6973 118.512 74.8413 118.044H75.8373ZM74.8533 116.352C74.8053 115.764 74.6253 115.308 74.3133 114.972C74.0013 114.636 73.5813 114.468 73.0773 114.468C72.5733 114.468 72.1653 114.636 71.8413 114.972C71.5053 115.308 71.3133 115.776 71.2533 116.352H74.8533Z" fill="#D0D3D7"/>
<path d="M224.762 494.5V495H224.968L225.114 494.855L224.762 494.5ZM115.667 494.5C115.667 493.027 114.473 491.833 113 491.833C111.527 491.833 110.333 493.027 110.333 494.5C110.333 495.973 111.527 497.167 113 497.167C114.473 497.167 115.667 495.973 115.667 494.5ZM262.148 456.645L224.409 494.145L225.114 494.855L262.852 457.355L262.148 456.645ZM224.762 494H113V495H224.762V494Z" fill="#F37B51"/>
<path d="M121.384 447.712H119.208C119 446.88 118.504 446.448 117.704 446.448C116.456 446.448 115.752 447.568 115.576 449.776C116.2 448.944 117.032 448.512 118.072 448.512C119.096 448.512 119.944 448.864 120.6 449.552C121.256 450.256 121.576 451.136 121.576 452.208C121.592 453.376 121.224 454.336 120.472 455.072C119.72 455.824 118.76 456.192 117.592 456.192C116.28 456.192 115.24 455.712 114.488 454.736C113.752 453.76 113.368 452.4 113.368 450.64C113.368 448.8 113.768 447.36 114.536 446.304C115.32 445.248 116.392 444.72 117.736 444.72C118.76 444.72 119.576 444.992 120.216 445.504C120.856 446.032 121.24 446.768 121.384 447.712ZM117.544 450.208C117.032 450.208 116.616 450.416 116.28 450.8C115.96 451.2 115.784 451.696 115.784 452.288C115.784 452.896 115.96 453.392 116.28 453.776C116.616 454.16 117.048 454.352 117.56 454.352C118.088 454.352 118.52 454.16 118.856 453.76C119.208 453.376 119.368 452.88 119.368 452.272C119.368 451.68 119.208 451.184 118.856 450.8C118.52 450.416 118.088 450.208 117.544 450.208ZM133.683 444.48L127.395 456.432H125.971L132.275 444.48H133.683ZM125.827 444.704C126.691 444.704 127.347 444.976 127.811 445.488C128.259 446 128.499 446.752 128.499 447.744C128.499 448.768 128.259 449.568 127.811 450.112C127.347 450.656 126.691 450.944 125.843 450.944C124.963 450.944 124.291 450.672 123.827 450.128C123.363 449.584 123.139 448.816 123.139 447.808C123.139 446.816 123.363 446.064 123.843 445.52C124.307 444.976 124.963 444.704 125.827 444.704ZM125.811 445.888C125.107 445.888 124.771 446.56 124.771 447.904C124.771 448.576 124.851 449.056 125.011 449.344C125.171 449.632 125.427 449.792 125.795 449.792C126.163 449.792 126.435 449.632 126.595 449.312C126.755 448.992 126.851 448.464 126.851 447.744C126.851 447.488 126.835 447.28 126.819 447.12C126.803 446.96 126.771 446.768 126.707 446.544C126.643 446.32 126.547 446.16 126.387 446.048C126.227 445.936 126.035 445.888 125.811 445.888ZM134.051 450.016C134.915 450.016 135.571 450.272 136.035 450.784C136.483 451.296 136.723 452.048 136.723 453.04C136.723 454.064 136.483 454.864 136.035 455.408C135.571 455.952 134.915 456.24 134.067 456.24C133.187 456.24 132.515 455.968 132.051 455.424C131.587 454.88 131.363 454.112 131.363 453.12C131.363 452.128 131.587 451.36 132.067 450.816C132.531 450.272 133.187 450.016 134.051 450.016ZM134.035 451.184C133.331 451.184 132.995 451.856 132.995 453.2C132.995 453.872 133.075 454.352 133.235 454.64C133.395 454.928 133.651 455.088 134.019 455.088C134.387 455.088 134.659 454.928 134.819 454.608C134.979 454.288 135.075 453.76 135.075 453.04C135.075 452.784 135.059 452.576 135.043 452.416C135.027 452.256 134.995 452.064 134.931 451.84C134.867 451.616 134.771 451.456 134.611 451.344C134.451 451.232 134.259 451.184 134.035 451.184Z" fill="white"/>
<path d="M119.576 467.456V468.44H115.088V471.104H119.048V472.052H115.088V476H113.96V467.456H119.576ZM123.371 469.628C124.307 469.628 125.027 469.916 125.555 470.492C126.071 471.056 126.335 471.848 126.335 472.868C126.335 473.924 126.071 474.74 125.555 475.316C125.027 475.904 124.295 476.192 123.359 476.192C122.411 476.192 121.667 475.904 121.139 475.328C120.599 474.752 120.335 473.96 120.335 472.928C120.335 471.92 120.599 471.116 121.151 470.516C121.691 469.928 122.435 469.628 123.371 469.628ZM123.347 470.492C122.747 470.492 122.267 470.708 121.919 471.14C121.559 471.584 121.391 472.172 121.391 472.904C121.391 473.672 121.559 474.26 121.907 474.692C122.255 475.124 122.747 475.328 123.371 475.328C123.971 475.328 124.439 475.112 124.775 474.68C125.111 474.248 125.291 473.66 125.291 472.892C125.291 472.16 125.111 471.572 124.763 471.14C124.415 470.708 123.947 470.492 123.347 470.492ZM132.685 469.808L132.673 476H131.725V475.028C131.197 475.796 130.489 476.168 129.589 476.168C128.941 476.168 128.425 475.988 128.065 475.628C127.705 475.268 127.525 474.752 127.525 474.068V469.808H128.545V473.792C128.545 474.284 128.641 474.656 128.833 474.908C129.025 475.16 129.361 475.28 129.853 475.28C131.053 475.28 131.665 474.536 131.665 473.048V469.808H132.685ZM135.177 469.808V470.768C135.681 470.024 136.389 469.64 137.289 469.64C138.009 469.64 138.537 469.832 138.861 470.216C139.185 470.6 139.353 471.152 139.353 471.884V476H138.333V472.352C138.333 472.052 138.321 471.812 138.297 471.644C138.273 471.476 138.225 471.284 138.153 471.092C138.069 470.9 137.937 470.756 137.745 470.66C137.553 470.576 137.301 470.528 137.001 470.528C135.825 470.528 135.237 471.272 135.237 472.76V476H134.217V469.808H135.177ZM146.465 467.456V476H145.505V475.088C145.109 475.808 144.425 476.168 143.465 476.168C142.577 476.168 141.881 475.88 141.365 475.292C140.849 474.704 140.597 473.9 140.597 472.892C140.597 471.956 140.837 471.188 141.317 470.564C141.797 469.94 142.505 469.628 143.417 469.628C144.305 469.628 144.977 469.964 145.445 470.636V467.456H146.465ZM143.549 470.504C142.961 470.504 142.493 470.72 142.157 471.14C141.821 471.572 141.653 472.148 141.653 472.868C141.653 473.624 141.821 474.224 142.169 474.668C142.517 475.112 142.985 475.328 143.573 475.328C144.161 475.328 144.629 475.124 144.965 474.692C145.301 474.26 145.469 473.672 145.469 472.904C145.469 472.232 145.301 471.656 144.989 471.2C144.677 470.744 144.197 470.504 143.549 470.504ZM153.29 474.044C152.978 475.484 152.078 476.204 150.59 476.204C149.678 476.204 148.958 475.928 148.442 475.352C147.926 474.788 147.674 473.996 147.674 472.988C147.674 471.992 147.938 471.188 148.466 470.564C148.994 469.94 149.69 469.628 150.554 469.628C151.502 469.628 152.21 469.952 152.666 470.6C153.122 471.248 153.362 472.052 153.362 473.036V473.18H148.706L148.694 473.252C148.694 473.912 148.862 474.428 149.21 474.8C149.546 475.184 150.026 475.364 150.626 475.364C151.07 475.364 151.418 475.268 151.682 475.052C151.946 474.848 152.15 474.512 152.294 474.044H153.29ZM152.306 472.352C152.258 471.764 152.078 471.308 151.766 470.972C151.454 470.636 151.034 470.468 150.53 470.468C150.026 470.468 149.618 470.636 149.294 470.972C148.958 471.308 148.766 471.776 148.706 472.352H152.306ZM157.672 469.664L157.66 470.732C157.588 470.72 157.504 470.72 157.396 470.72C157.072 470.72 156.784 470.768 156.544 470.864C156.304 470.96 156.124 471.092 155.98 471.248C155.836 471.416 155.728 471.608 155.632 471.848C155.548 472.088 155.488 472.328 155.464 472.568C155.44 472.808 155.428 473.084 155.428 473.384V476H154.408V469.808H155.38V471.14C155.788 470.156 156.544 469.664 157.672 469.664ZM163.036 471.608H162.016C161.944 470.864 161.44 470.48 160.504 470.48C160.108 470.48 159.796 470.564 159.58 470.708C159.352 470.864 159.244 471.068 159.244 471.32C159.244 471.392 159.244 471.464 159.268 471.536C159.28 471.608 159.304 471.668 159.352 471.716C159.4 471.764 159.436 471.812 159.472 471.848C159.508 471.896 159.568 471.932 159.652 471.968C159.736 472.004 159.796 472.028 159.844 472.052C159.892 472.076 159.964 472.112 160.084 472.136C160.204 472.16 160.288 472.184 160.336 472.196C160.384 472.208 160.468 472.232 160.612 472.256C160.756 472.292 160.84 472.316 160.888 472.316C161.176 472.388 161.404 472.436 161.548 472.472C161.692 472.52 161.896 472.592 162.16 472.7C162.424 472.808 162.616 472.916 162.76 473.036C162.892 473.156 163.012 473.312 163.12 473.516C163.228 473.72 163.288 473.948 163.288 474.2C163.288 474.8 163.048 475.292 162.58 475.652C162.112 476.012 161.488 476.192 160.72 476.192C159.88 476.192 159.232 476.012 158.776 475.64C158.32 475.28 158.08 474.74 158.056 474.044H159.064C159.112 474.92 159.676 475.352 160.744 475.352C161.2 475.352 161.56 475.268 161.836 475.076C162.112 474.884 162.256 474.632 162.256 474.32C162.256 474.116 162.184 473.948 162.04 473.804C161.896 473.672 161.728 473.576 161.56 473.516C161.38 473.456 161.128 473.384 160.804 473.3C160.756 473.3 160.72 473.288 160.696 473.276C160.624 473.264 160.468 473.228 160.228 473.18C159.988 473.132 159.82 473.084 159.724 473.048C159.616 473.024 159.46 472.976 159.268 472.904C159.076 472.832 158.932 472.76 158.836 472.688C158.74 472.616 158.632 472.52 158.512 472.4C158.392 472.28 158.32 472.148 158.272 471.992C158.224 471.836 158.2 471.656 158.2 471.452C158.2 470.9 158.404 470.456 158.836 470.12C159.268 469.796 159.844 469.628 160.564 469.628C161.284 469.628 161.884 469.808 162.34 470.144C162.796 470.492 163.036 470.984 163.036 471.608Z" fill="#D0D3D7"/>
<path d="M124.762 363V362.5H124.945L125.085 362.619L124.762 363ZM5.66667 363C5.66667 364.473 4.47276 365.667 3 365.667C1.52724 365.667 0.333328 364.473 0.333328 363C0.333328 361.527 1.52724 360.333 3 360.333C4.47276 360.333 5.66667 361.527 5.66667 363ZM179.176 409.881L124.438 363.381L125.085 362.619L179.824 409.119L179.176 409.881ZM124.762 363.5H3V362.5H124.762V363.5Z" fill="#997CF4"/>
<path d="M9.336 375.8V387H6.92V379.72H4.2V378.04H4.488C6.184 378.04 7.176 377.304 7.464 375.8H9.336ZM16.3546 375.736C16.9626 375.736 17.5226 375.864 18.0026 376.104C18.4826 376.328 18.8826 376.632 19.1706 377.016C19.4746 377.384 19.7306 377.832 19.9226 378.344C20.1146 378.856 20.2586 379.368 20.3226 379.88C20.4026 380.392 20.4346 380.92 20.4346 381.496C20.4346 383.272 20.0826 384.664 19.3466 385.672C18.6266 386.696 17.6346 387.192 16.3546 387.192C15.0586 387.192 14.0506 386.696 13.3146 385.688C12.5786 384.68 12.2106 383.272 12.2106 381.48C12.2106 380.776 12.2906 380.104 12.4186 379.464C12.5626 378.824 12.7866 378.216 13.0906 377.64C13.3786 377.064 13.8106 376.6 14.3706 376.248C14.9306 375.912 15.5866 375.736 16.3546 375.736ZM16.3226 377.624C16.0346 377.624 15.7626 377.688 15.5386 377.816C15.3146 377.944 15.1386 378.12 15.0106 378.376C14.8826 378.632 14.7706 378.872 14.6906 379.096C14.6106 379.32 14.5466 379.624 14.5146 379.992C14.4826 380.36 14.4666 380.648 14.4666 380.84C14.4666 381.032 14.4506 381.288 14.4506 381.608C14.4506 384.104 15.0906 385.368 16.3386 385.368C17.5866 385.368 18.1946 384.072 18.1946 381.496C18.1946 380.152 18.0506 379.176 17.7466 378.552C17.4586 377.928 16.9786 377.624 16.3226 377.624ZM32.5733 375.48L26.2853 387.432H24.8613L31.1653 375.48H32.5733ZM24.7173 375.704C25.5813 375.704 26.2373 375.976 26.7013 376.488C27.1493 377 27.3893 377.752 27.3893 378.744C27.3893 379.768 27.1493 380.568 26.7013 381.112C26.2373 381.656 25.5813 381.944 24.7333 381.944C23.8533 381.944 23.1813 381.672 22.7173 381.128C22.2533 380.584 22.0293 379.816 22.0293 378.808C22.0293 377.816 22.2533 377.064 22.7333 376.52C23.1973 375.976 23.8533 375.704 24.7173 375.704ZM24.7013 376.888C23.9973 376.888 23.6613 377.56 23.6613 378.904C23.6613 379.576 23.7413 380.056 23.9013 380.344C24.0613 380.632 24.3173 380.792 24.6853 380.792C25.0533 380.792 25.3253 380.632 25.4852 380.312C25.6453 379.992 25.7413 379.464 25.7413 378.744C25.7413 378.488 25.7253 378.28 25.7093 378.12C25.6933 377.96 25.6613 377.768 25.5973 377.544C25.5333 377.32 25.4373 377.16 25.2773 377.048C25.1173 376.936 24.9253 376.888 24.7013 376.888ZM32.9413 381.016C33.8053 381.016 34.4613 381.272 34.9253 381.784C35.3733 382.296 35.6133 383.048 35.6133 384.04C35.6133 385.064 35.3733 385.864 34.9253 386.408C34.4613 386.952 33.8053 387.24 32.9573 387.24C32.0773 387.24 31.4053 386.968 30.9413 386.424C30.4773 385.88 30.2533 385.112 30.2533 384.12C30.2533 383.128 30.4773 382.36 30.9573 381.816C31.4213 381.272 32.0773 381.016 32.9413 381.016ZM32.9253 382.184C32.2213 382.184 31.8853 382.856 31.8853 384.2C31.8853 384.872 31.9653 385.352 32.1253 385.64C32.2853 385.928 32.5413 386.088 32.9093 386.088C33.2773 386.088 33.5493 385.928 33.7093 385.608C33.8693 385.288 33.9653 384.76 33.9653 384.04C33.9653 383.784 33.9493 383.576 33.9333 383.416C33.9173 383.256 33.8853 383.064 33.8213 382.84C33.7573 382.616 33.6613 382.456 33.5013 382.344C33.3413 382.232 33.1493 382.184 32.9253 382.184Z" fill="white"/>
<path d="M3.996 398.456H7.5C8.376 398.456 9.072 398.66 9.588 399.056C10.092 399.452 10.356 400.076 10.356 400.916C10.356 402.644 9.384 403.496 7.44 403.496H5.124V407H3.996V398.456ZM5.112 399.428V402.548H7.284C7.896 402.548 8.376 402.44 8.712 402.212C9.048 401.984 9.216 401.576 9.216 400.988C9.216 400.664 9.168 400.388 9.06 400.172C8.952 399.956 8.796 399.8 8.58 399.692C8.376 399.596 8.16 399.524 7.932 399.488C7.716 399.452 7.44 399.428 7.128 399.428H5.112ZM17.0333 406.184V406.988C16.8173 407.06 16.5893 407.108 16.3373 407.108C15.7493 407.108 15.4493 406.796 15.4373 406.196C14.8493 406.844 14.1053 407.18 13.1933 407.18C12.5813 407.18 12.1013 407.024 11.7413 406.712C11.3813 406.4 11.2133 405.968 11.2133 405.428C11.2133 404.324 11.9453 403.676 13.4093 403.496C13.5053 403.472 13.6373 403.46 13.8293 403.448C14.5253 403.364 14.9453 403.268 15.1133 403.172C15.2933 403.04 15.3893 402.824 15.3893 402.512C15.3893 401.828 14.9213 401.492 13.9853 401.492C13.5053 401.492 13.1333 401.588 12.8933 401.78C12.6413 401.972 12.4973 402.296 12.4493 402.752H11.4533C11.4653 402.08 11.7053 401.564 12.1613 401.204C12.6173 400.832 13.2413 400.652 14.0453 400.652C14.9093 400.652 15.5573 400.844 15.9893 401.252C16.1213 401.372 16.2173 401.54 16.2893 401.756C16.3493 401.96 16.3853 402.128 16.3973 402.26C16.3973 402.392 16.4093 402.596 16.4093 402.86C16.4093 403.16 16.3973 403.616 16.3853 404.228C16.3613 404.852 16.3613 405.308 16.3613 405.608C16.3613 405.836 16.3853 405.992 16.4453 406.088C16.5053 406.184 16.6133 406.22 16.7812 406.22C16.8412 406.22 16.9253 406.208 17.0333 406.184ZM15.3893 403.796C15.3173 403.844 15.2333 403.892 15.1613 403.94C15.0773 403.976 14.9693 404.012 14.8493 404.036C14.7293 404.06 14.6453 404.072 14.5973 404.084C14.5493 404.096 14.4533 404.108 14.2853 404.132C14.1173 404.156 14.0213 404.168 14.0213 404.168C13.7693 404.192 13.6013 404.216 13.5293 404.228C13.4573 404.24 13.3133 404.276 13.0973 404.336C12.8813 404.384 12.7373 404.456 12.6533 404.528C12.5573 404.6 12.4733 404.696 12.3893 404.84C12.3053 404.984 12.2693 405.152 12.2693 405.344C12.2693 405.656 12.3773 405.908 12.5933 406.1C12.8093 406.28 13.1213 406.376 13.5053 406.376C13.9853 406.376 14.4293 406.232 14.8133 405.944C15.1973 405.656 15.3893 405.308 15.3893 404.924V403.796ZM21.2226 400.664L21.2106 401.732C21.1386 401.72 21.0546 401.72 20.9466 401.72C20.6226 401.72 20.3346 401.768 20.0946 401.864C19.8546 401.96 19.6746 402.092 19.5306 402.248C19.3866 402.416 19.2786 402.608 19.1826 402.848C19.0986 403.088 19.0386 403.328 19.0146 403.568C18.9906 403.808 18.9786 404.084 18.9786 404.384V407H17.9586V400.808H18.9306V402.14C19.3386 401.156 20.0946 400.664 21.2226 400.664ZM24.6427 400.808V401.648H23.4067V405.26C23.4067 405.464 23.4067 405.596 23.4067 405.656C23.4067 405.728 23.4307 405.812 23.4787 405.92C23.5147 406.028 23.5867 406.1 23.6827 406.124C23.7787 406.16 23.9107 406.172 24.0907 406.172C24.2347 406.172 24.4267 406.16 24.6427 406.136V407.012C24.3547 407.048 24.0907 407.06 23.8627 407.06C23.5747 407.06 23.3347 407.036 23.1427 406.964C22.9507 406.904 22.7947 406.832 22.6987 406.748C22.6027 406.676 22.5307 406.532 22.4827 406.328C22.4347 406.124 22.3987 405.956 22.3987 405.812C22.3867 405.668 22.3867 405.44 22.3867 405.104V405.056V404.996V404.936V401.648H21.3427V400.808H22.3867V398.972H23.4067V400.808H24.6427ZM26.7358 400.808V401.768C27.2398 401.024 27.9478 400.64 28.8478 400.64C29.5678 400.64 30.0958 400.832 30.4198 401.216C30.7438 401.6 30.9118 402.152 30.9118 402.884V407H29.8918V403.352C29.8918 403.052 29.8798 402.812 29.8558 402.644C29.8318 402.476 29.7838 402.284 29.7118 402.092C29.6278 401.9 29.4958 401.756 29.3038 401.66C29.1118 401.576 28.8598 401.528 28.5598 401.528C27.3838 401.528 26.7958 402.272 26.7958 403.76V407H25.7758V400.808H26.7358ZM37.7358 405.044C37.4238 406.484 36.5238 407.204 35.0358 407.204C34.1238 407.204 33.4038 406.928 32.8878 406.352C32.3718 405.788 32.1198 404.996 32.1198 403.988C32.1198 402.992 32.3838 402.188 32.9118 401.564C33.4398 400.94 34.1358 400.628 34.9998 400.628C35.9478 400.628 36.6558 400.952 37.1118 401.6C37.5678 402.248 37.8078 403.052 37.8078 404.036V404.18H33.1518L33.1398 404.252C33.1398 404.912 33.3078 405.428 33.6558 405.8C33.9918 406.184 34.4718 406.364 35.0718 406.364C35.5158 406.364 35.8638 406.268 36.1278 406.052C36.3918 405.848 36.5958 405.512 36.7398 405.044H37.7358ZM36.7518 403.352C36.7038 402.764 36.5238 402.308 36.2118 401.972C35.8998 401.636 35.4798 401.468 34.9758 401.468C34.4718 401.468 34.0638 401.636 33.7398 401.972C33.4038 402.308 33.2118 402.776 33.1518 403.352H36.7518ZM42.1171 400.664L42.1051 401.732C42.0331 401.72 41.9491 401.72 41.8411 401.72C41.5171 401.72 41.2291 401.768 40.9891 401.864C40.7491 401.96 40.5691 402.092 40.4251 402.248C40.2811 402.416 40.1731 402.608 40.0771 402.848C39.9931 403.088 39.9331 403.328 39.9091 403.568C39.8851 403.808 39.8731 404.084 39.8731 404.384V407H38.8531V400.808H39.8251V402.14C40.2331 401.156 40.9891 400.664 42.1171 400.664ZM47.4812 402.608H46.4612C46.3892 401.864 45.8852 401.48 44.9492 401.48C44.5532 401.48 44.2412 401.564 44.0252 401.708C43.7972 401.864 43.6892 402.068 43.6892 402.32C43.6892 402.392 43.6892 402.464 43.7132 402.536C43.7252 402.608 43.7492 402.668 43.7972 402.716C43.8452 402.764 43.8812 402.812 43.9172 402.848C43.9532 402.896 44.0132 402.932 44.0972 402.968C44.1812 403.004 44.2412 403.028 44.2892 403.052C44.3372 403.076 44.4092 403.112 44.5292 403.136C44.6492 403.16 44.7332 403.184 44.7812 403.196C44.8292 403.208 44.9132 403.232 45.0572 403.256C45.2012 403.292 45.2852 403.316 45.3332 403.316C45.6212 403.388 45.8492 403.436 45.9932 403.472C46.1372 403.52 46.3412 403.592 46.6052 403.7C46.8692 403.808 47.0612 403.916 47.2052 404.036C47.3372 404.156 47.4572 404.312 47.5652 404.516C47.6732 404.72 47.7332 404.948 47.7332 405.2C47.7332 405.8 47.4932 406.292 47.0252 406.652C46.5572 407.012 45.9332 407.192 45.1652 407.192C44.3252 407.192 43.6772 407.012 43.2212 406.64C42.7652 406.28 42.5252 405.74 42.5012 405.044H43.5092C43.5572 405.92 44.1212 406.352 45.1892 406.352C45.6452 406.352 46.0052 406.268 46.2812 406.076C46.5572 405.884 46.7012 405.632 46.7012 405.32C46.7012 405.116 46.6292 404.948 46.4852 404.804C46.3412 404.672 46.1732 404.576 46.0052 404.516C45.8252 404.456 45.5732 404.384 45.2492 404.3C45.2012 404.3 45.1652 404.288 45.1412 404.276C45.0692 404.264 44.9132 404.228 44.6732 404.18C44.4332 404.132 44.2652 404.084 44.1692 404.048C44.0612 404.024 43.9052 403.976 43.7132 403.904C43.5212 403.832 43.3772 403.76 43.2812 403.688C43.1852 403.616 43.0772 403.52 42.9572 403.4C42.8372 403.28 42.7652 403.148 42.7172 402.992C42.6692 402.836 42.6452 402.656 42.6452 402.452C42.6452 401.9 42.8492 401.456 43.2812 401.12C43.7132 400.796 44.2892 400.628 45.0092 400.628C45.7292 400.628 46.3292 400.808 46.7852 401.144C47.2412 401.492 47.4812 401.984 47.4812 402.608ZM49.9052 398.456V401.684C50.3612 401 51.0332 400.652 51.9332 400.652C53.3252 400.652 54.0212 401.36 54.0212 402.764V407H53.0012V403.004C53.0012 402.536 52.8932 402.176 52.7012 401.924C52.5092 401.672 52.1492 401.54 51.6452 401.54C51.0212 401.54 50.5652 401.744 50.3012 402.14C50.0372 402.548 49.9052 403.112 49.9052 403.856V407H48.8852V398.456H49.9052ZM56.6332 398.456V399.704H55.6012V398.456H56.6332ZM56.6332 400.808V407H55.6012V400.808H56.6332ZM59.1733 400.808V401.684C59.6173 400.976 60.3133 400.616 61.2613 400.616C62.1253 400.616 62.8093 400.916 63.3133 401.492C63.8173 402.08 64.0813 402.872 64.0813 403.868C64.0813 404.876 63.8293 405.668 63.3253 406.268C62.8213 406.868 62.1493 407.156 61.3093 407.156C60.4213 407.156 59.7253 406.82 59.2333 406.136V409.388H58.2133V400.808H59.1733ZM61.1053 401.468C60.5053 401.468 60.0373 401.684 59.7013 402.116C59.3653 402.548 59.1973 403.136 59.1973 403.88C59.1973 404.636 59.3653 405.224 59.7133 405.656C60.0613 406.088 60.5413 406.304 61.1413 406.304C61.7173 406.304 62.1853 406.088 62.5213 405.656C62.8573 405.224 63.0253 404.636 63.0253 403.892C63.0253 403.136 62.8453 402.548 62.5093 402.116C62.1733 401.684 61.7053 401.468 61.1053 401.468ZM74.5584 402.956C74.5104 403.772 74.3184 404.48 73.9584 405.08L75.6144 407.012H74.2944L73.3824 405.932C72.7944 406.772 71.9664 407.192 70.8984 407.192C70.1544 407.192 69.5424 406.964 69.0384 406.532C68.5344 406.1 68.2944 405.512 68.2944 404.78C68.2944 404.216 68.4864 403.712 68.8704 403.256C69.2544 402.8 69.7224 402.452 70.2984 402.212C69.6744 401.456 69.3744 400.796 69.3744 400.232C69.3744 399.692 69.5544 399.26 69.9264 398.924C70.2984 398.588 70.7784 398.42 71.3664 398.42C71.9424 398.42 72.4104 398.576 72.7704 398.912C73.1304 399.248 73.3224 399.668 73.3224 400.196C73.3224 401.12 72.7944 401.864 71.7504 402.416L73.3104 404.324C73.4664 403.928 73.5624 403.472 73.5864 402.956H74.5584ZM71.1984 401.756C71.9544 401.3 72.3264 400.808 72.3264 400.28C72.3264 399.98 72.2424 399.74 72.0504 399.548C71.8584 399.356 71.6304 399.26 71.3424 399.26C71.0664 399.26 70.8264 399.344 70.6344 399.524C70.4424 399.704 70.3464 399.932 70.3464 400.196C70.3464 400.244 70.3584 400.304 70.3704 400.376C70.3824 400.436 70.3944 400.496 70.4184 400.568C70.4424 400.628 70.4664 400.688 70.4904 400.736C70.5144 400.784 70.5504 400.856 70.5984 400.928C70.6464 401 70.6824 401.06 70.7064 401.108C70.7304 401.144 70.7784 401.204 70.8384 401.288C70.8984 401.372 70.9344 401.432 70.9584 401.456C70.9824 401.48 71.0184 401.528 71.0904 401.612C71.1624 401.696 71.1984 401.744 71.1984 401.756ZM70.8384 402.872C69.8544 403.376 69.3504 403.988 69.3504 404.732C69.3504 405.164 69.5184 405.536 69.8304 405.848C70.1544 406.16 70.5384 406.316 70.9944 406.316C71.7504 406.316 72.3504 405.956 72.8064 405.248L70.8384 402.872ZM11.364 422.476L11.352 427.012H10.632L10.344 425.944C9.66 426.784 8.736 427.216 7.584 427.216C6.372 427.216 5.388 426.808 4.644 425.992C3.9 425.176 3.528 424.12 3.528 422.812C3.528 421.504 3.888 420.424 4.632 419.572C5.376 418.708 6.384 418.288 7.68 418.288C8.268 418.288 8.82 418.384 9.336 418.588C9.84 418.792 10.284 419.116 10.644 419.548C11.004 419.98 11.208 420.496 11.256 421.084H10.152C10.056 420.532 9.792 420.076 9.336 419.74C8.88 419.404 8.328 419.224 7.668 419.224C6.744 419.224 6.012 419.548 5.472 420.184C4.92 420.82 4.656 421.684 4.656 422.764C4.656 423.844 4.92 424.696 5.472 425.32C6.012 425.956 6.744 426.268 7.668 426.268C8.532 426.268 9.18 426.016 9.636 425.488C10.092 424.96 10.332 424.264 10.356 423.4H7.62V422.476H11.364ZM16.1015 420.664L16.0895 421.732C16.0175 421.72 15.9335 421.72 15.8255 421.72C15.5015 421.72 15.2135 421.768 14.9735 421.864C14.7335 421.96 14.5535 422.092 14.4095 422.248C14.2655 422.416 14.1575 422.608 14.0615 422.848C13.9775 423.088 13.9175 423.328 13.8935 423.568C13.8695 423.808 13.8575 424.084 13.8575 424.384V427H12.8375V420.808H13.8095V422.14C14.2175 421.156 14.9735 420.664 16.1015 420.664ZM19.3706 420.628C20.3066 420.628 21.0266 420.916 21.5546 421.492C22.0706 422.056 22.3346 422.848 22.3346 423.868C22.3346 424.924 22.0706 425.74 21.5546 426.316C21.0266 426.904 20.2946 427.192 19.3586 427.192C18.4106 427.192 17.6666 426.904 17.1386 426.328C16.5986 425.752 16.3346 424.96 16.3346 423.928C16.3346 422.92 16.5986 422.116 17.1506 421.516C17.6906 420.928 18.4346 420.628 19.3706 420.628ZM19.3466 421.492C18.7466 421.492 18.2666 421.708 17.9186 422.14C17.5586 422.584 17.3906 423.172 17.3906 423.904C17.3906 424.672 17.5586 425.26 17.9066 425.692C18.2546 426.124 18.7466 426.328 19.3706 426.328C19.9706 426.328 20.4386 426.112 20.7746 425.68C21.1106 425.248 21.2906 424.66 21.2906 423.892C21.2906 423.16 21.1106 422.572 20.7626 422.14C20.4146 421.708 19.9466 421.492 19.3466 421.492ZM22.9853 420.808H24.1133L25.5293 425.908L26.7893 420.808H27.9053L29.2133 425.908L30.6173 420.808H31.6733L29.6933 427H28.6133L27.3413 422.104L26.0813 427H24.9773L22.9853 420.808ZM35.295 420.808V421.648H34.059V425.26C34.059 425.464 34.059 425.596 34.059 425.656C34.059 425.728 34.083 425.812 34.131 425.92C34.167 426.028 34.239 426.1 34.335 426.124C34.431 426.16 34.563 426.172 34.743 426.172C34.887 426.172 35.079 426.16 35.295 426.136V427.012C35.007 427.048 34.743 427.06 34.515 427.06C34.227 427.06 33.987 427.036 33.795 426.964C33.603 426.904 33.447 426.832 33.351 426.748C33.255 426.676 33.183 426.532 33.135 426.328C33.087 426.124 33.051 425.956 33.051 425.812C33.039 425.668 33.039 425.44 33.039 425.104V425.056V424.996V424.936V421.648H31.995V420.808H33.039V418.972H34.059V420.808H35.295ZM37.4482 418.456V421.684C37.9042 421 38.5762 420.652 39.4762 420.652C40.8682 420.652 41.5642 421.36 41.5642 422.764V427H40.5442V423.004C40.5442 422.536 40.4362 422.176 40.2442 421.924C40.0522 421.672 39.6922 421.54 39.1882 421.54C38.5642 421.54 38.1082 421.744 37.8442 422.14C37.5802 422.548 37.4482 423.112 37.4482 423.856V427H36.4282V418.456H37.4482Z" fill="#D0D3D7"/>
<path d="M111.762 235V234.5H111.999L112.15 234.684L111.762 235ZM12.6667 235C12.6667 236.473 11.4728 237.667 10 237.667C8.52724 237.667 7.33333 236.473 7.33333 235C7.33333 233.527 8.52724 232.333 10 232.333C11.4728 232.333 12.6667 233.527 12.6667 235ZM154.112 287.816L111.374 235.316L112.15 234.684L154.888 287.184L154.112 287.816ZM111.762 235.5H10V234.5H111.762V235.5Z" fill="#5CF1B1"/>
<path d="M16.336 247.8V259H13.92V251.72H11.2V250.04H11.488C13.184 250.04 14.176 249.304 14.464 247.8H16.336ZM23.3546 247.736C23.9626 247.736 24.5226 247.864 25.0026 248.104C25.4826 248.328 25.8826 248.632 26.1706 249.016C26.4746 249.384 26.7306 249.832 26.9226 250.344C27.1146 250.856 27.2586 251.368 27.3226 251.88C27.4026 252.392 27.4346 252.92 27.4346 253.496C27.4346 255.272 27.0826 256.664 26.3466 257.672C25.6266 258.696 24.6346 259.192 23.3546 259.192C22.0586 259.192 21.0506 258.696 20.3146 257.688C19.5786 256.68 19.2106 255.272 19.2106 253.48C19.2106 252.776 19.2906 252.104 19.4186 251.464C19.5626 250.824 19.7866 250.216 20.0906 249.64C20.3786 249.064 20.8106 248.6 21.3706 248.248C21.9306 247.912 22.5866 247.736 23.3546 247.736ZM23.3226 249.624C23.0346 249.624 22.7626 249.688 22.5386 249.816C22.3146 249.944 22.1386 250.12 22.0106 250.376C21.8826 250.632 21.7706 250.872 21.6906 251.096C21.6106 251.32 21.5466 251.624 21.5146 251.992C21.4826 252.36 21.4666 252.648 21.4666 252.84C21.4666 253.032 21.4506 253.288 21.4506 253.608C21.4506 256.104 22.0906 257.368 23.3386 257.368C24.5866 257.368 25.1946 256.072 25.1946 253.496C25.1946 252.152 25.0506 251.176 24.7466 250.552C24.4586 249.928 23.9786 249.624 23.3226 249.624ZM39.5733 247.48L33.2853 259.432H31.8613L38.1653 247.48H39.5733ZM31.7173 247.704C32.5813 247.704 33.2373 247.976 33.7013 248.488C34.1493 249 34.3893 249.752 34.3893 250.744C34.3893 251.768 34.1493 252.568 33.7013 253.112C33.2373 253.656 32.5813 253.944 31.7333 253.944C30.8533 253.944 30.1813 253.672 29.7173 253.128C29.2533 252.584 29.0293 251.816 29.0293 250.808C29.0293 249.816 29.2533 249.064 29.7333 248.52C30.1973 247.976 30.8533 247.704 31.7173 247.704ZM31.7013 248.888C30.9973 248.888 30.6613 249.56 30.6613 250.904C30.6613 251.576 30.7413 252.056 30.9013 252.344C31.0613 252.632 31.3173 252.792 31.6853 252.792C32.0533 252.792 32.3253 252.632 32.4852 252.312C32.6453 251.992 32.7413 251.464 32.7413 250.744C32.7413 250.488 32.7253 250.28 32.7093 250.12C32.6933 249.96 32.6613 249.768 32.5973 249.544C32.5333 249.32 32.4373 249.16 32.2773 249.048C32.1173 248.936 31.9253 248.888 31.7013 248.888ZM39.9413 253.016C40.8053 253.016 41.4613 253.272 41.9253 253.784C42.3733 254.296 42.6133 255.048 42.6133 256.04C42.6133 257.064 42.3733 257.864 41.9253 258.408C41.4613 258.952 40.8053 259.24 39.9573 259.24C39.0773 259.24 38.4053 258.968 37.9413 258.424C37.4773 257.88 37.2533 257.112 37.2533 256.12C37.2533 255.128 37.4773 254.36 37.9573 253.816C38.4213 253.272 39.0773 253.016 39.9413 253.016ZM39.9253 254.184C39.2213 254.184 38.8853 254.856 38.8853 256.2C38.8853 256.872 38.9653 257.352 39.1253 257.64C39.2853 257.928 39.5413 258.088 39.9093 258.088C40.2773 258.088 40.5493 257.928 40.7093 257.608C40.8693 257.288 40.9653 256.76 40.9653 256.04C40.9653 255.784 40.9493 255.576 40.9333 255.416C40.9173 255.256 40.8853 255.064 40.8213 254.84C40.7573 254.616 40.6613 254.456 40.5013 254.344C40.3413 254.232 40.1493 254.184 39.9253 254.184Z" fill="white"/>
<path d="M16.864 270.456V271.44H12.076V274.116H16.552V275.064H12.076V278.016H16.924V279H10.948V270.456H16.864ZM23.4319 276.744C23.3359 277.488 23.0599 278.088 22.5799 278.52C22.0999 278.964 21.4879 279.18 20.7199 279.18C19.7839 279.18 19.0639 278.892 18.5479 278.316C18.0439 277.74 17.7799 276.96 17.7799 275.988C17.7799 274.956 18.0559 274.14 18.5839 273.54C19.1239 272.94 19.8439 272.628 20.7559 272.628C21.5239 272.628 22.1239 272.82 22.5799 273.204C23.0359 273.588 23.3119 274.128 23.3839 274.836H22.3279C22.1479 273.936 21.6319 273.492 20.7799 273.492C20.1799 273.492 19.7119 273.708 19.3759 274.14C19.0279 274.572 18.8599 275.172 18.8599 275.916C18.8599 276.66 19.0159 277.26 19.3519 277.692C19.6759 278.124 20.1319 278.34 20.7079 278.34C21.1639 278.34 21.5479 278.196 21.8359 277.932C22.1239 277.656 22.3159 277.26 22.3999 276.744H23.4319ZM27.2613 272.628C28.1973 272.628 28.9173 272.916 29.4453 273.492C29.9613 274.056 30.2253 274.848 30.2253 275.868C30.2253 276.924 29.9613 277.74 29.4453 278.316C28.9173 278.904 28.1853 279.192 27.2493 279.192C26.3013 279.192 25.5573 278.904 25.0293 278.328C24.4893 277.752 24.2253 276.96 24.2253 275.928C24.2253 274.92 24.4893 274.116 25.0413 273.516C25.5813 272.928 26.3253 272.628 27.2613 272.628ZM27.2373 273.492C26.6373 273.492 26.1573 273.708 25.8093 274.14C25.4493 274.584 25.2812 275.172 25.2812 275.904C25.2812 276.672 25.4493 277.26 25.7973 277.692C26.1453 278.124 26.6373 278.328 27.2613 278.328C27.8613 278.328 28.3293 278.112 28.6653 277.68C29.0013 277.248 29.1813 276.66 29.1813 275.892C29.1813 275.16 29.0013 274.572 28.6533 274.14C28.3053 273.708 27.8373 273.492 27.2373 273.492ZM36.0359 274.608H35.0159C34.9439 273.864 34.4399 273.48 33.5039 273.48C33.1079 273.48 32.7959 273.564 32.5799 273.708C32.3519 273.864 32.2439 274.068 32.2439 274.32C32.2439 274.392 32.2439 274.464 32.2679 274.536C32.2799 274.608 32.3039 274.668 32.3519 274.716C32.3999 274.764 32.4359 274.812 32.4719 274.848C32.5079 274.896 32.5679 274.932 32.6519 274.968C32.7359 275.004 32.7959 275.028 32.8439 275.052C32.8919 275.076 32.9639 275.112 33.0839 275.136C33.2039 275.16 33.2879 275.184 33.3359 275.196C33.3839 275.208 33.4679 275.232 33.6119 275.256C33.7559 275.292 33.8399 275.316 33.8879 275.316C34.1759 275.388 34.4039 275.436 34.5479 275.472C34.6919 275.52 34.8959 275.592 35.1599 275.7C35.4239 275.808 35.6159 275.916 35.7599 276.036C35.8919 276.156 36.0119 276.312 36.1199 276.516C36.2279 276.72 36.2879 276.948 36.2879 277.2C36.2879 277.8 36.0479 278.292 35.5799 278.652C35.1119 279.012 34.4879 279.192 33.7199 279.192C32.8799 279.192 32.2319 279.012 31.7759 278.64C31.3199 278.28 31.0799 277.74 31.0559 277.044H32.0639C32.1119 277.92 32.6759 278.352 33.7439 278.352C34.1999 278.352 34.5599 278.268 34.8359 278.076C35.1119 277.884 35.2559 277.632 35.2559 277.32C35.2559 277.116 35.1839 276.948 35.0399 276.804C34.8959 276.672 34.7279 276.576 34.5599 276.516C34.3799 276.456 34.1279 276.384 33.8039 276.3C33.7559 276.3 33.7199 276.288 33.6959 276.276C33.6239 276.264 33.4679 276.228 33.2279 276.18C32.9879 276.132 32.8199 276.084 32.7239 276.048C32.6159 276.024 32.4599 275.976 32.2679 275.904C32.0759 275.832 31.9319 275.76 31.8359 275.688C31.7399 275.616 31.6319 275.52 31.5119 275.4C31.3919 275.28 31.3199 275.148 31.2719 274.992C31.2239 274.836 31.1999 274.656 31.1999 274.452C31.1999 273.9 31.4039 273.456 31.8359 273.12C32.2679 272.796 32.8439 272.628 33.5639 272.628C34.2839 272.628 34.8839 272.808 35.3399 273.144C35.7959 273.492 36.0359 273.984 36.0359 274.608ZM42.5639 272.808L39.9119 279.792C39.8039 280.08 39.7079 280.296 39.6359 280.452C39.5639 280.608 39.4559 280.776 39.3119 280.968C39.1679 281.16 38.9999 281.292 38.8079 281.376C38.6159 281.46 38.3879 281.496 38.1239 281.496C37.9199 281.496 37.6679 281.46 37.3679 281.388V280.476C37.6559 280.572 37.8839 280.608 38.0279 280.608C38.3639 280.608 38.6039 280.44 38.7479 280.092L39.2279 278.964L36.7679 272.808H37.9199L39.7559 277.74L41.4959 272.808H42.5639ZM48.0359 274.608H47.0159C46.9439 273.864 46.4399 273.48 45.5039 273.48C45.1079 273.48 44.7959 273.564 44.5799 273.708C44.3519 273.864 44.2439 274.068 44.2439 274.32C44.2439 274.392 44.2439 274.464 44.2679 274.536C44.2799 274.608 44.3039 274.668 44.3519 274.716C44.3999 274.764 44.4359 274.812 44.4719 274.848C44.5079 274.896 44.5679 274.932 44.6519 274.968C44.7359 275.004 44.7959 275.028 44.8439 275.052C44.8919 275.076 44.9639 275.112 45.0839 275.136C45.2039 275.16 45.2879 275.184 45.3359 275.196C45.3839 275.208 45.4679 275.232 45.6119 275.256C45.7559 275.292 45.8399 275.316 45.8879 275.316C46.1759 275.388 46.4039 275.436 46.5479 275.472C46.6919 275.52 46.8959 275.592 47.1599 275.7C47.4239 275.808 47.6159 275.916 47.7599 276.036C47.8919 276.156 48.0119 276.312 48.1199 276.516C48.2279 276.72 48.2879 276.948 48.2879 277.2C48.2879 277.8 48.0479 278.292 47.5799 278.652C47.1119 279.012 46.4879 279.192 45.7199 279.192C44.8799 279.192 44.2319 279.012 43.7759 278.64C43.3199 278.28 43.0799 277.74 43.0559 277.044H44.0639C44.1119 277.92 44.6759 278.352 45.7439 278.352C46.1999 278.352 46.5599 278.268 46.8359 278.076C47.1119 277.884 47.2559 277.632 47.2559 277.32C47.2559 277.116 47.1839 276.948 47.0399 276.804C46.8959 276.672 46.7279 276.576 46.5599 276.516C46.3799 276.456 46.1279 276.384 45.8039 276.3C45.7559 276.3 45.7199 276.288 45.6959 276.276C45.6239 276.264 45.4679 276.228 45.2279 276.18C44.9879 276.132 44.8199 276.084 44.7239 276.048C44.6159 276.024 44.4599 275.976 44.2679 275.904C44.0759 275.832 43.9319 275.76 43.8359 275.688C43.7399 275.616 43.6319 275.52 43.5119 275.4C43.3919 275.28 43.3199 275.148 43.2719 274.992C43.2239 274.836 43.1999 274.656 43.1999 274.452C43.1999 273.9 43.4039 273.456 43.8359 273.12C44.2679 272.796 44.8439 272.628 45.5639 272.628C46.2839 272.628 46.8839 272.808 47.3399 273.144C47.7959 273.492 48.0359 273.984 48.0359 274.608ZM52.0919 272.808V273.648H50.8559V277.26C50.8559 277.464 50.8559 277.596 50.8559 277.656C50.8559 277.728 50.8799 277.812 50.9279 277.92C50.9639 278.028 51.0359 278.1 51.1319 278.124C51.2279 278.16 51.3599 278.172 51.5399 278.172C51.6839 278.172 51.8759 278.16 52.0919 278.136V279.012C51.8039 279.048 51.5399 279.06 51.3119 279.06C51.0239 279.06 50.7839 279.036 50.5919 278.964C50.3999 278.904 50.2439 278.832 50.1479 278.748C50.0519 278.676 49.9799 278.532 49.9319 278.328C49.8839 278.124 49.8479 277.956 49.8479 277.812C49.8359 277.668 49.8359 277.44 49.8359 277.104V277.056V276.996V276.936V273.648H48.7919V272.808H49.8359V270.972H50.8559V272.808H52.0919ZM58.517 277.044C58.205 278.484 57.305 279.204 55.817 279.204C54.905 279.204 54.185 278.928 53.669 278.352C53.153 277.788 52.901 276.996 52.901 275.988C52.901 274.992 53.165 274.188 53.693 273.564C54.221 272.94 54.917 272.628 55.781 272.628C56.729 272.628 57.437 272.952 57.893 273.6C58.349 274.248 58.589 275.052 58.589 276.036V276.18H53.933L53.921 276.252C53.921 276.912 54.089 277.428 54.437 277.8C54.773 278.184 55.253 278.364 55.853 278.364C56.297 278.364 56.645 278.268 56.909 278.052C57.173 277.848 57.377 277.512 57.521 277.044H58.517ZM57.533 275.352C57.485 274.764 57.305 274.308 56.993 273.972C56.681 273.636 56.261 273.468 55.757 273.468C55.253 273.468 54.845 273.636 54.521 273.972C54.185 274.308 53.993 274.776 53.933 275.352H57.533ZM60.6303 272.808L60.6183 273.72C60.8943 273.348 61.1823 273.084 61.4943 272.916C61.8063 272.748 62.1903 272.664 62.6343 272.664C63.4863 272.664 64.0623 273.012 64.3623 273.732C64.8903 273.012 65.5743 272.652 66.4143 272.652C67.0503 272.652 67.5303 272.82 67.8663 273.18C68.2023 273.54 68.3703 274.032 68.3703 274.68V279.012H67.3503V275.112C67.3503 274.596 67.2663 274.212 67.1103 273.948C66.9423 273.684 66.6183 273.564 66.1143 273.564C65.0583 273.564 64.5303 274.2 64.5303 275.496V279.012H63.5103V275.04C63.5103 274.56 63.4263 274.2 63.2703 273.948C63.1143 273.696 62.8143 273.576 62.3703 273.576C61.7343 273.576 61.2903 273.768 61.0503 274.152C60.8103 274.536 60.6903 275.064 60.6903 275.724V279H59.6703V272.808H60.6303ZM79.1327 274.956C79.0847 275.772 78.8927 276.48 78.5327 277.08L80.1887 279.012H78.8687L77.9567 277.932C77.3687 278.772 76.5407 279.192 75.4727 279.192C74.7287 279.192 74.1167 278.964 73.6127 278.532C73.1087 278.1 72.8687 277.512 72.8687 276.78C72.8687 276.216 73.0607 275.712 73.4447 275.256C73.8287 274.8 74.2967 274.452 74.8727 274.212C74.2487 273.456 73.9487 272.796 73.9487 272.232C73.9487 271.692 74.1287 271.26 74.5007 270.924C74.8727 270.588 75.3527 270.42 75.9407 270.42C76.5167 270.42 76.9847 270.576 77.3447 270.912C77.7047 271.248 77.8967 271.668 77.8967 272.196C77.8967 273.12 77.3687 273.864 76.3247 274.416L77.8847 276.324C78.0407 275.928 78.1367 275.472 78.1607 274.956H79.1327ZM75.7727 273.756C76.5287 273.3 76.9007 272.808 76.9007 272.28C76.9007 271.98 76.8167 271.74 76.6247 271.548C76.4327 271.356 76.2047 271.26 75.9167 271.26C75.6407 271.26 75.4007 271.344 75.2087 271.524C75.0167 271.704 74.9207 271.932 74.9207 272.196C74.9207 272.244 74.9327 272.304 74.9447 272.376C74.9567 272.436 74.9687 272.496 74.9927 272.568C75.0167 272.628 75.0407 272.688 75.0647 272.736C75.0887 272.784 75.1247 272.856 75.1727 272.928C75.2207 273 75.2567 273.06 75.2807 273.108C75.3047 273.144 75.3527 273.204 75.4127 273.288C75.4727 273.372 75.5087 273.432 75.5327 273.456C75.5567 273.48 75.5927 273.528 75.6647 273.612C75.7367 273.696 75.7727 273.744 75.7727 273.756ZM75.4127 274.872C74.4287 275.376 73.9247 275.988 73.9247 276.732C73.9247 277.164 74.0927 277.536 74.4047 277.848C74.7287 278.16 75.1127 278.316 75.5687 278.316C76.3247 278.316 76.9247 277.956 77.3807 277.248L75.4127 274.872ZM10.948 290.456H13.72C15.172 290.456 16.24 290.792 16.924 291.464C17.62 292.136 17.956 293.204 17.956 294.656C17.956 296.096 17.644 297.176 16.996 297.908C16.36 298.64 15.34 299 13.936 299H10.948L10.948 290.456ZM12.064 291.428L12.076 298.04H13.792C14.86 298.04 15.64 297.776 16.12 297.248C16.6 296.72 16.84 295.904 16.84 294.788C16.84 293.624 16.612 292.772 16.132 292.232C15.664 291.704 14.86 291.428 13.732 291.428H12.064ZM24.5092 297.044C24.1972 298.484 23.2972 299.204 21.8092 299.204C20.8972 299.204 20.1772 298.928 19.6612 298.352C19.1452 297.788 18.8932 296.996 18.8932 295.988C18.8932 294.992 19.1572 294.188 19.6852 293.564C20.2132 292.94 20.9092 292.628 21.7732 292.628C22.7212 292.628 23.4292 292.952 23.8852 293.6C24.3412 294.248 24.5812 295.052 24.5812 296.036V296.18H19.9252L19.9132 296.252C19.9132 296.912 20.0812 297.428 20.4292 297.8C20.7652 298.184 21.2452 298.364 21.8452 298.364C22.2892 298.364 22.6372 298.268 22.9012 298.052C23.1652 297.848 23.3692 297.512 23.5132 297.044H24.5092ZM23.5252 295.352C23.4772 294.764 23.2972 294.308 22.9852 293.972C22.6732 293.636 22.2532 293.468 21.7492 293.468C21.2452 293.468 20.8372 293.636 20.5132 293.972C20.1772 294.308 19.9852 294.776 19.9252 295.352H23.5252ZM25.0625 292.808H26.2025L27.9545 298.004L29.6585 292.808H30.7265L28.4585 299H27.3665L25.0625 292.808ZM32.7425 290.456V299H31.7105V290.456H32.7425ZM37.0347 292.628C37.9707 292.628 38.6907 292.916 39.2187 293.492C39.7347 294.056 39.9987 294.848 39.9987 295.868C39.9987 296.924 39.7347 297.74 39.2187 298.316C38.6907 298.904 37.9587 299.192 37.0227 299.192C36.0747 299.192 35.3307 298.904 34.8027 298.328C34.2627 297.752 33.9987 296.96 33.9987 295.928C33.9987 294.92 34.2627 294.116 34.8147 293.516C35.3547 292.928 36.0987 292.628 37.0347 292.628ZM37.0107 293.492C36.4107 293.492 35.9307 293.708 35.5827 294.14C35.2227 294.584 35.0547 295.172 35.0547 295.904C35.0547 296.672 35.2227 297.26 35.5707 297.692C35.9187 298.124 36.4107 298.328 37.0347 298.328C37.6347 298.328 38.1027 298.112 38.4387 297.68C38.7747 297.248 38.9547 296.66 38.9547 295.892C38.9547 295.16 38.7747 294.572 38.4267 294.14C38.0787 293.708 37.6107 293.492 37.0107 293.492ZM42.1733 292.808V293.684C42.6173 292.976 43.3133 292.616 44.2613 292.616C45.1253 292.616 45.8093 292.916 46.3133 293.492C46.8173 294.08 47.0813 294.872 47.0813 295.868C47.0813 296.876 46.8293 297.668 46.3253 298.268C45.8213 298.868 45.1493 299.156 44.3093 299.156C43.4213 299.156 42.7253 298.82 42.2333 298.136V301.388H41.2133V292.808H42.1733ZM44.1053 293.468C43.5053 293.468 43.0373 293.684 42.7013 294.116C42.3653 294.548 42.1973 295.136 42.1973 295.88C42.1973 296.636 42.3653 297.224 42.7133 297.656C43.0613 298.088 43.5413 298.304 44.1413 298.304C44.7173 298.304 45.1853 298.088 45.5213 297.656C45.8573 297.224 46.0253 296.636 46.0253 295.892C46.0253 295.136 45.8453 294.548 45.5093 294.116C45.1733 293.684 44.7053 293.468 44.1053 293.468ZM49.2866 292.808L49.2746 293.72C49.5506 293.348 49.8386 293.084 50.1506 292.916C50.4626 292.748 50.8466 292.664 51.2906 292.664C52.1426 292.664 52.7186 293.012 53.0186 293.732C53.5466 293.012 54.2306 292.652 55.0706 292.652C55.7066 292.652 56.1866 292.82 56.5226 293.18C56.8586 293.54 57.0266 294.032 57.0266 294.68V299.012H56.0066V295.112C56.0066 294.596 55.9226 294.212 55.7666 293.948C55.5986 293.684 55.2746 293.564 54.7706 293.564C53.7146 293.564 53.1866 294.2 53.1866 295.496V299.012H52.1666V295.04C52.1666 294.56 52.0826 294.2 51.9266 293.948C51.7706 293.696 51.4706 293.576 51.0266 293.576C50.3906 293.576 49.9466 293.768 49.7066 294.152C49.4666 294.536 49.3466 295.064 49.3466 295.724V299H48.3266V292.808H49.2866ZM63.8491 297.044C63.5371 298.484 62.6371 299.204 61.1491 299.204C60.2371 299.204 59.5171 298.928 59.0011 298.352C58.4851 297.788 58.2331 296.996 58.2331 295.988C58.2331 294.992 58.4971 294.188 59.0251 293.564C59.5531 292.94 60.2491 292.628 61.1131 292.628C62.0611 292.628 62.7691 292.952 63.2251 293.6C63.6811 294.248 63.9211 295.052 63.9211 296.036V296.18H59.2651L59.2531 296.252C59.2531 296.912 59.4211 297.428 59.7691 297.8C60.1051 298.184 60.5851 298.364 61.1851 298.364C61.6291 298.364 61.9771 298.268 62.2411 298.052C62.5051 297.848 62.7091 297.512 62.8531 297.044H63.8491ZM62.8651 295.352C62.8171 294.764 62.6371 294.308 62.3251 293.972C62.0131 293.636 61.5931 293.468 61.0891 293.468C60.5851 293.468 60.1771 293.636 59.8531 293.972C59.5171 294.308 59.3251 294.776 59.2651 295.352H62.8651ZM65.9624 292.808V293.768C66.4664 293.024 67.1744 292.64 68.0744 292.64C68.7944 292.64 69.3224 292.832 69.6464 293.216C69.9704 293.6 70.1384 294.152 70.1384 294.884V299H69.1184V295.352C69.1184 295.052 69.1064 294.812 69.0824 294.644C69.0584 294.476 69.0104 294.284 68.9384 294.092C68.8544 293.9 68.7224 293.756 68.5304 293.66C68.3384 293.576 68.0864 293.528 67.7864 293.528C66.6104 293.528 66.0224 294.272 66.0224 295.76V299H65.0024V292.808H65.9624ZM74.3223 292.808V293.648H73.0863V297.26C73.0863 297.464 73.0863 297.596 73.0863 297.656C73.0863 297.728 73.1103 297.812 73.1583 297.92C73.1943 298.028 73.2663 298.1 73.3623 298.124C73.4583 298.16 73.5903 298.172 73.7703 298.172C73.9143 298.172 74.1063 298.16 74.3223 298.136V299.012C74.0343 299.048 73.7703 299.06 73.5423 299.06C73.2543 299.06 73.0143 299.036 72.8223 298.964C72.6303 298.904 72.4743 298.832 72.3783 298.748C72.2823 298.676 72.2103 298.532 72.1623 298.328C72.1143 298.124 72.0783 297.956 72.0783 297.812C72.0663 297.668 72.0663 297.44 72.0663 297.104V297.056V296.996V296.936V293.648H71.0223V292.808H72.0663V290.972H73.0863V292.808H74.3223Z" fill="#D0D3D7"/>
<path d="M394.738 531.5V532H394.487L394.337 531.798L394.738 531.5ZM511.833 531.5C511.833 530.027 513.027 528.833 514.5 528.833C515.973 528.833 517.167 530.027 517.167 531.5C517.167 532.973 515.973 534.167 514.5 534.167C513.027 534.167 511.833 532.973 511.833 531.5ZM349.401 469.702L395.139 531.202L394.337 531.798L348.599 470.298L349.401 469.702ZM394.738 531H514.5V532H394.738V531Z" fill="#F35B72"/>
<path d="M468.872 481.896L468.856 483.832H464.264L463.832 486.264C464.36 485.752 465.048 485.48 465.896 485.48C466.984 485.48 467.848 485.816 468.488 486.488C469.144 487.16 469.464 488.056 469.464 489.144C469.464 490.328 469.08 491.288 468.28 492.04C467.496 492.808 466.488 493.176 465.24 493.176C464.072 493.176 463.112 492.888 462.376 492.28C461.64 491.672 461.24 490.808 461.176 489.688H463.416C463.464 490.184 463.656 490.584 463.992 490.888C464.328 491.192 464.744 491.336 465.256 491.336C465.816 491.336 466.28 491.144 466.648 490.744C467 490.344 467.192 489.832 467.192 489.192C467.192 488.568 467.016 488.072 466.664 487.688C466.312 487.32 465.832 487.128 465.24 487.128C464.52 487.128 463.96 487.448 463.56 488.056H461.528L462.616 481.896H468.872ZM481.683 481.48L475.395 493.432H473.971L480.275 481.48H481.683ZM473.827 481.704C474.691 481.704 475.347 481.976 475.811 482.488C476.259 483 476.499 483.752 476.499 484.744C476.499 485.768 476.259 486.568 475.811 487.112C475.347 487.656 474.691 487.944 473.843 487.944C472.963 487.944 472.291 487.672 471.827 487.128C471.363 486.584 471.139 485.816 471.139 484.808C471.139 483.816 471.363 483.064 471.843 482.52C472.307 481.976 472.963 481.704 473.827 481.704ZM473.811 482.888C473.107 482.888 472.771 483.56 472.771 484.904C472.771 485.576 472.851 486.056 473.011 486.344C473.171 486.632 473.427 486.792 473.795 486.792C474.163 486.792 474.435 486.632 474.595 486.312C474.755 485.992 474.851 485.464 474.851 484.744C474.851 484.488 474.835 484.28 474.819 484.12C474.803 483.96 474.771 483.768 474.707 483.544C474.643 483.32 474.547 483.16 474.387 483.048C474.227 482.936 474.035 482.888 473.811 482.888ZM482.051 487.016C482.915 487.016 483.571 487.272 484.035 487.784C484.483 488.296 484.723 489.048 484.723 490.04C484.723 491.064 484.483 491.864 484.035 492.408C483.571 492.952 482.915 493.24 482.067 493.24C481.187 493.24 480.515 492.968 480.051 492.424C479.587 491.88 479.363 491.112 479.363 490.12C479.363 489.128 479.587 488.36 480.067 487.816C480.531 487.272 481.187 487.016 482.051 487.016ZM482.035 488.184C481.331 488.184 480.995 488.856 480.995 490.2C480.995 490.872 481.075 491.352 481.235 491.64C481.395 491.928 481.651 492.088 482.019 492.088C482.387 492.088 482.659 491.928 482.819 491.608C482.979 491.288 483.075 490.76 483.075 490.04C483.075 489.784 483.059 489.576 483.043 489.416C483.027 489.256 482.995 489.064 482.931 488.84C482.867 488.616 482.771 488.456 482.611 488.344C482.451 488.232 482.259 488.184 482.035 488.184Z" fill="white"/>
<path d="M461.96 504.456H463.52L466.268 511.692L468.92 504.456H470.492V513H469.424V505.872L466.748 513H465.764L463.04 505.872V513H461.96V504.456ZM477.705 512.184V512.988C477.489 513.06 477.261 513.108 477.009 513.108C476.421 513.108 476.121 512.796 476.109 512.196C475.521 512.844 474.777 513.18 473.865 513.18C473.253 513.18 472.773 513.024 472.413 512.712C472.053 512.4 471.885 511.968 471.885 511.428C471.885 510.324 472.617 509.676 474.081 509.496C474.177 509.472 474.309 509.46 474.501 509.448C475.197 509.364 475.617 509.268 475.785 509.172C475.965 509.04 476.061 508.824 476.061 508.512C476.061 507.828 475.593 507.492 474.657 507.492C474.177 507.492 473.805 507.588 473.565 507.78C473.313 507.972 473.169 508.296 473.121 508.752H472.125C472.137 508.08 472.377 507.564 472.833 507.204C473.289 506.832 473.913 506.652 474.717 506.652C475.581 506.652 476.229 506.844 476.661 507.252C476.793 507.372 476.889 507.54 476.961 507.756C477.021 507.96 477.057 508.128 477.069 508.26C477.069 508.392 477.081 508.596 477.081 508.86C477.081 509.16 477.069 509.616 477.057 510.228C477.033 510.852 477.033 511.308 477.033 511.608C477.033 511.836 477.057 511.992 477.117 512.088C477.177 512.184 477.285 512.22 477.453 512.22C477.513 512.22 477.597 512.208 477.705 512.184ZM476.061 509.796C475.989 509.844 475.905 509.892 475.833 509.94C475.749 509.976 475.641 510.012 475.521 510.036C475.401 510.06 475.317 510.072 475.269 510.084C475.221 510.096 475.125 510.108 474.957 510.132C474.789 510.156 474.693 510.168 474.693 510.168C474.441 510.192 474.273 510.216 474.201 510.228C474.129 510.24 473.985 510.276 473.769 510.336C473.553 510.384 473.409 510.456 473.325 510.528C473.229 510.6 473.145 510.696 473.061 510.84C472.977 510.984 472.941 511.152 472.941 511.344C472.941 511.656 473.049 511.908 473.265 512.1C473.481 512.28 473.793 512.376 474.177 512.376C474.657 512.376 475.101 512.232 475.485 511.944C475.869 511.656 476.061 511.308 476.061 510.924V509.796ZM481.894 506.664L481.882 507.732C481.81 507.72 481.726 507.72 481.618 507.72C481.294 507.72 481.006 507.768 480.766 507.864C480.526 507.96 480.346 508.092 480.202 508.248C480.058 508.416 479.95 508.608 479.854 508.848C479.77 509.088 479.71 509.328 479.686 509.568C479.662 509.808 479.65 510.084 479.65 510.384V513H478.63V506.808H479.602V508.14C480.01 507.156 480.766 506.664 481.894 506.664ZM487.871 506.808L485.411 509.052L488.051 513H486.755L484.631 509.76L483.659 510.66V513H482.663V504.456H483.659V509.508L486.503 506.808H487.871ZM494.177 511.044C493.865 512.484 492.965 513.204 491.477 513.204C490.565 513.204 489.845 512.928 489.329 512.352C488.813 511.788 488.561 510.996 488.561 509.988C488.561 508.992 488.825 508.188 489.353 507.564C489.881 506.94 490.577 506.628 491.441 506.628C492.389 506.628 493.097 506.952 493.553 507.6C494.009 508.248 494.249 509.052 494.249 510.036V510.18H489.593L489.581 510.252C489.581 510.912 489.749 511.428 490.097 511.8C490.433 512.184 490.913 512.364 491.513 512.364C491.957 512.364 492.305 512.268 492.569 512.052C492.833 511.848 493.037 511.512 493.181 511.044H494.177ZM493.193 509.352C493.145 508.764 492.965 508.308 492.653 507.972C492.341 507.636 491.921 507.468 491.417 507.468C490.913 507.468 490.505 507.636 490.181 507.972C489.845 508.308 489.653 508.776 489.593 509.352H493.193ZM497.983 506.808V507.648H496.747V511.26C496.747 511.464 496.747 511.596 496.747 511.656C496.747 511.728 496.771 511.812 496.819 511.92C496.855 512.028 496.927 512.1 497.023 512.124C497.119 512.16 497.251 512.172 497.431 512.172C497.575 512.172 497.767 512.16 497.983 512.136V513.012C497.695 513.048 497.431 513.06 497.203 513.06C496.915 513.06 496.675 513.036 496.483 512.964C496.291 512.904 496.135 512.832 496.039 512.748C495.943 512.676 495.871 512.532 495.823 512.328C495.775 512.124 495.739 511.956 495.739 511.812C495.727 511.668 495.727 511.44 495.727 511.104V511.056V510.996V510.936V507.648H494.683V506.808H495.727V504.972H496.747V506.808H497.983ZM500.196 504.456V505.704H499.164V504.456H500.196ZM500.196 506.808V513H499.164V506.808H500.196ZM502.736 506.808V507.768C503.24 507.024 503.948 506.64 504.848 506.64C505.568 506.64 506.096 506.832 506.42 507.216C506.744 507.6 506.912 508.152 506.912 508.884V513H505.892V509.352C505.892 509.052 505.88 508.812 505.856 508.644C505.832 508.476 505.784 508.284 505.712 508.092C505.628 507.9 505.496 507.756 505.304 507.66C505.112 507.576 504.86 507.528 504.56 507.528C503.384 507.528 502.796 508.272 502.796 509.76V513H501.776V506.808H502.736ZM513.808 506.808V512.34C513.808 512.868 513.772 513.288 513.724 513.576C513.664 513.864 513.556 514.14 513.4 514.392C512.944 515.148 512.128 515.52 510.952 515.52C510.256 515.52 509.668 515.388 509.188 515.1C508.708 514.812 508.432 514.344 508.348 513.696H509.392C509.512 514.392 510.052 514.728 510.988 514.728C511.624 514.728 512.08 514.572 512.368 514.248C512.656 513.936 512.8 513.42 512.824 512.7L512.836 511.944C512.44 512.7 511.78 513.072 510.856 513.072C510.028 513.072 509.368 512.796 508.876 512.22C508.384 511.656 508.132 510.888 508.132 509.928C508.132 509.028 508.384 508.26 508.864 507.612C509.356 506.964 510.04 506.64 510.916 506.64C511.348 506.64 511.732 506.736 512.068 506.916C512.404 507.108 512.68 507.372 512.872 507.708V506.808H513.808ZM510.964 507.54C510.412 507.54 509.968 507.744 509.656 508.176C509.344 508.608 509.188 509.196 509.188 509.952C509.188 510.624 509.344 511.176 509.68 511.584C510.004 511.992 510.436 512.208 510.988 512.208C511.552 512.208 511.996 511.992 512.32 511.56C512.644 511.128 512.812 510.528 512.812 509.784C512.812 509.076 512.644 508.524 512.32 508.128C511.996 507.732 511.54 507.54 510.964 507.54Z" fill="#D0D3D7"/>
<path d="M491.738 3V2.5H491.516L491.367 2.66474L491.738 3ZM599.333 3C599.333 4.47276 600.527 5.66667 602 5.66667C603.473 5.66667 604.667 4.47276 604.667 3C604.667 1.52724 603.473 0.333333 602 0.333333C600.527 0.333333 599.333 1.52724 599.333 3ZM447.371 52.8353L492.109 3.33526L491.367 2.66474L446.629 52.1647L447.371 52.8353ZM491.738 3.5H602V2.5H491.738V3.5Z" fill="#7C91FF"/>
<path d="M563.872 15.896L563.856 17.832H559.264L558.832 20.264C559.36 19.752 560.048 19.48 560.896 19.48C561.984 19.48 562.848 19.816 563.488 20.488C564.144 21.16 564.464 22.056 564.464 23.144C564.464 24.328 564.08 25.288 563.28 26.04C562.496 26.808 561.488 27.176 560.24 27.176C559.072 27.176 558.112 26.888 557.376 26.28C556.64 25.672 556.24 24.808 556.176 23.688H558.416C558.464 24.184 558.656 24.584 558.992 24.888C559.328 25.192 559.744 25.336 560.256 25.336C560.816 25.336 561.28 25.144 561.648 24.744C562 24.344 562.192 23.832 562.192 23.192C562.192 22.568 562.016 22.072 561.664 21.688C561.312 21.32 560.832 21.128 560.24 21.128C559.52 21.128 558.96 21.448 558.56 22.056H556.528L557.616 15.896H563.872ZM573.515 22.536V24.424H572.011V27H569.899V24.424H565.099V22.328L569.963 15.768H572.011V22.536H573.515ZM569.899 22.536V18.376L566.923 22.536H569.899ZM585.573 15.48L579.285 27.432H577.861L584.165 15.48H585.573ZM577.717 15.704C578.581 15.704 579.237 15.976 579.701 16.488C580.149 17 580.389 17.752 580.389 18.744C580.389 19.768 580.149 20.568 579.701 21.112C579.237 21.656 578.581 21.944 577.733 21.944C576.853 21.944 576.181 21.672 575.717 21.128C575.253 20.584 575.029 19.816 575.029 18.808C575.029 17.816 575.253 17.064 575.733 16.52C576.197 15.976 576.853 15.704 577.717 15.704ZM577.701 16.888C576.997 16.888 576.661 17.56 576.661 18.904C576.661 19.576 576.741 20.056 576.901 20.344C577.061 20.632 577.317 20.792 577.685 20.792C578.053 20.792 578.325 20.632 578.485 20.312C578.645 19.992 578.741 19.464 578.741 18.744C578.741 18.488 578.725 18.28 578.709 18.12C578.693 17.96 578.661 17.768 578.597 17.544C578.533 17.32 578.437 17.16 578.277 17.048C578.117 16.936 577.925 16.888 577.701 16.888ZM585.941 21.016C586.805 21.016 587.461 21.272 587.925 21.784C588.373 22.296 588.613 23.048 588.613 24.04C588.613 25.064 588.373 25.864 587.925 26.408C587.461 26.952 586.805 27.24 585.957 27.24C585.077 27.24 584.405 26.968 583.941 26.424C583.477 25.88 583.253 25.112 583.253 24.12C583.253 23.128 583.477 22.36 583.957 21.816C584.421 21.272 585.077 21.016 585.941 21.016ZM585.925 22.184C585.221 22.184 584.885 22.856 584.885 24.2C584.885 24.872 584.965 25.352 585.125 25.64C585.285 25.928 585.541 26.088 585.909 26.088C586.277 26.088 586.549 25.928 586.709 25.608C586.869 25.288 586.965 24.76 586.965 24.04C586.965 23.784 586.949 23.576 586.933 23.416C586.917 23.256 586.885 23.064 586.821 22.84C586.757 22.616 586.661 22.456 586.501 22.344C586.341 22.232 586.149 22.184 585.925 22.184Z" fill="white"/>
<path d="M562.624 46.016V47H556.96V38.456H558.088V46.016H562.624ZM564.516 38.456V39.704H563.484V38.456H564.516ZM564.516 40.808V47H563.484V40.808H564.516ZM571.676 40.808V49.4H570.656V46.136C570.224 46.82 569.54 47.168 568.58 47.168C567.692 47.168 567.008 46.856 566.528 46.232C566.048 45.608 565.82 44.852 565.82 43.94C565.82 42.92 566.072 42.116 566.588 41.516C567.092 40.916 567.788 40.616 568.676 40.616C569.612 40.616 570.296 40.976 570.728 41.684V40.808H571.676ZM568.76 41.48C568.184 41.48 567.728 41.696 567.392 42.14C567.044 42.584 566.876 43.172 566.876 43.916C566.876 44.648 567.044 45.224 567.38 45.656C567.716 46.088 568.184 46.304 568.772 46.304C569.36 46.304 569.828 46.088 570.176 45.656C570.512 45.224 570.692 44.624 570.692 43.868C570.692 43.124 570.512 42.536 570.176 42.116C569.828 41.684 569.36 41.48 568.76 41.48ZM578.345 40.808L578.333 47H577.385V46.028C576.857 46.796 576.149 47.168 575.249 47.168C574.601 47.168 574.085 46.988 573.725 46.628C573.365 46.268 573.185 45.752 573.185 45.068V40.808H574.205V44.792C574.205 45.284 574.301 45.656 574.493 45.908C574.685 46.16 575.021 46.28 575.513 46.28C576.713 46.28 577.325 45.536 577.325 44.048V40.808H578.345ZM580.957 38.456V39.704H579.925V38.456H580.957ZM580.957 40.808V47H579.925V40.808H580.957ZM588.118 38.456V47H587.158V46.088C586.762 46.808 586.078 47.168 585.118 47.168C584.23 47.168 583.534 46.88 583.018 46.292C582.502 45.704 582.25 44.9 582.25 43.892C582.25 42.956 582.49 42.188 582.97 41.564C583.45 40.94 584.158 40.628 585.07 40.628C585.958 40.628 586.63 40.964 587.098 41.636V38.456H588.118ZM585.202 41.504C584.614 41.504 584.146 41.72 583.81 42.14C583.474 42.572 583.306 43.148 583.306 43.868C583.306 44.624 583.474 45.224 583.822 45.668C584.17 46.112 584.638 46.328 585.226 46.328C585.814 46.328 586.282 46.124 586.618 45.692C586.954 45.26 587.122 44.672 587.122 43.904C587.122 43.232 586.954 42.656 586.642 42.2C586.33 41.744 585.85 41.504 585.202 41.504ZM590.731 38.456V39.704H589.699V38.456H590.731ZM590.731 40.808V47H589.699V40.808H590.731ZM594.963 40.808V41.648H593.727V45.26C593.727 45.464 593.727 45.596 593.727 45.656C593.727 45.728 593.751 45.812 593.799 45.92C593.835 46.028 593.907 46.1 594.003 46.124C594.099 46.16 594.231 46.172 594.411 46.172C594.555 46.172 594.747 46.16 594.963 46.136V47.012C594.675 47.048 594.411 47.06 594.183 47.06C593.895 47.06 593.655 47.036 593.463 46.964C593.271 46.904 593.115 46.832 593.019 46.748C592.923 46.676 592.851 46.532 592.803 46.328C592.755 46.124 592.719 45.956 592.719 45.812C592.707 45.668 592.707 45.44 592.707 45.104V45.056V44.996V44.936V41.648H591.663V40.808H592.707V38.972H593.727V40.808H594.963ZM601.22 40.808L598.568 47.792C598.46 48.08 598.364 48.296 598.292 48.452C598.22 48.608 598.112 48.776 597.968 48.968C597.824 49.16 597.656 49.292 597.464 49.376C597.272 49.46 597.044 49.496 596.78 49.496C596.576 49.496 596.324 49.46 596.024 49.388V48.476C596.312 48.572 596.54 48.608 596.684 48.608C597.02 48.608 597.26 48.44 597.404 48.092L597.884 46.964L595.424 40.808H596.576L598.412 45.74L600.152 40.808H601.22Z" fill="#D0D3D7"/>
<defs>
<filter id="filter0_i_575_464" x="303" y="41.5" width="30" height="257.271" filterUnits="userSpaceOnUse" color-interpolation-filters="sRGB">
<feFlood flood-opacity="0" result="BackgroundImageFix"/>
<feBlend mode="normal" in="SourceGraphic" in2="BackgroundImageFix" result="shape"/>
<feColorMatrix in="SourceAlpha" type="matrix" values="0 0 0 0 0 0 0 0 0 0 0 0 0 0 0 0 0 0 127 0" result="hardAlpha"/>
<feOffset dy="1.03065"/>
<feComposite in2="hardAlpha" operator="arithmetic" k2="-1" k3="1"/>
<feColorMatrix type="matrix" values="0 0 0 0 1 0 0 0 0 1 0 0 0 0 1 0 0 0 0.6 0"/>
<feBlend mode="normal" in2="shape" result="effect1_innerShadow_575_464"/>
</filter>
<filter id="filter1_i_575_464" x="239.5" y="145" width="93.5" height="192.743" filterUnits="userSpaceOnUse" color-interpolation-filters="sRGB">
<feFlood flood-opacity="0" result="BackgroundImageFix"/>
<feBlend mode="normal" in="SourceGraphic" in2="BackgroundImageFix" result="shape"/>
<feColorMatrix in="SourceAlpha" type="matrix" values="0 0 0 0 0 0 0 0 0 0 0 0 0 0 0 0 0 0 127 0" result="hardAlpha"/>
<feOffset dy="1.03065"/>
<feComposite in2="hardAlpha" operator="arithmetic" k2="-1" k3="1"/>
<feColorMatrix type="matrix" values="0 0 0 0 1 0 0 0 0 1 0 0 0 0 1 0 0 0 0.6 0"/>
<feBlend mode="normal" in2="shape" result="effect1_innerShadow_575_464"/>
</filter>
<filter id="filter2_i_575_464" x="158.331" y="166.587" width="108.669" height="170.983" filterUnits="userSpaceOnUse" color-interpolation-filters="sRGB">
<feFlood flood-opacity="0" result="BackgroundImageFix"/>
<feBlend mode="normal" in="SourceGraphic" in2="BackgroundImageFix" result="shape"/>
<feColorMatrix in="SourceAlpha" type="matrix" values="0 0 0 0 0 0 0 0 0 0 0 0 0 0 0 0 0 0 127 0" result="hardAlpha"/>
<feOffset dy="1.03065"/>
<feComposite in2="hardAlpha" operator="arithmetic" k2="-1" k3="1"/>
<feColorMatrix type="matrix" values="0 0 0 0 1 0 0 0 0 1 0 0 0 0 1 0 0 0 0.6 0"/>
<feBlend mode="normal" in2="shape" result="effect1_innerShadow_575_464"/>
</filter>
<filter id="filter3_i_575_464" x="161" y="251.5" width="108.5" height="129.5" filterUnits="userSpaceOnUse" color-interpolation-filters="sRGB">
<feFlood flood-opacity="0" result="BackgroundImageFix"/>
<feBlend mode="normal" in="SourceGraphic" in2="BackgroundImageFix" result="shape"/>
<feColorMatrix in="SourceAlpha" type="matrix" values="0 0 0 0 0 0 0 0 0 0 0 0 0 0 0 0 0 0 127 0" result="hardAlpha"/>
<feOffset dy="1.03065"/>
<feComposite in2="hardAlpha" operator="arithmetic" k2="-1" k3="1"/>
<feColorMatrix type="matrix" values="0 0 0 0 1 0 0 0 0 1 0 0 0 0 1 0 0 0 0.6 0"/>
<feBlend mode="normal" in2="shape" result="effect1_innerShadow_575_464"/>
</filter>
<filter id="filter4_i_575_464" x="154" y="233.5" width="8.44556" height="151.311" filterUnits="userSpaceOnUse" color-interpolation-filters="sRGB">
<feFlood flood-opacity="0" result="BackgroundImageFix"/>
<feBlend mode="normal" in="SourceGraphic" in2="BackgroundImageFix" result="shape"/>
<feColorMatrix in="SourceAlpha" type="matrix" values="0 0 0 0 0 0 0 0 0 0 0 0 0 0 0 0 0 0 127 0" result="hardAlpha"/>
<feOffset dy="1.03065"/>
<feComposite in2="hardAlpha" operator="arithmetic" k2="-1" k3="1"/>
<feColorMatrix type="matrix" values="0 0 0 0 1 0 0 0 0 1 0 0 0 0 1 0 0 0 0.6 0"/>
<feBlend mode="normal" in2="shape" result="effect1_innerShadow_575_464"/>
</filter>
<filter id="filter5_i_575_464" x="161" y="265.5" width="51.2244" height="172" filterUnits="userSpaceOnUse" color-interpolation-filters="sRGB">
<feFlood flood-opacity="0" result="BackgroundImageFix"/>
<feBlend mode="normal" in="SourceGraphic" in2="BackgroundImageFix" result="shape"/>
<feColorMatrix in="SourceAlpha" type="matrix" values="0 0 0 0 0 0 0 0 0 0 0 0 0 0 0 0 0 0 127 0" result="hardAlpha"/>
<feOffset dy="1.03065"/>
<feComposite in2="hardAlpha" operator="arithmetic" k2="-1" k3="1"/>
<feColorMatrix type="matrix" values="0 0 0 0 1 0 0 0 0 1 0 0 0 0 1 0 0 0 0.6 0"/>
<feBlend mode="normal" in2="shape" result="effect1_innerShadow_575_464"/>
</filter>
<filter id="filter6_i_575_464" x="212" y="277.284" width="79.0405" height="160.216" filterUnits="userSpaceOnUse" color-interpolation-filters="sRGB">
<feFlood flood-opacity="0" result="BackgroundImageFix"/>
<feBlend mode="normal" in="SourceGraphic" in2="BackgroundImageFix" result="shape"/>
<feColorMatrix in="SourceAlpha" type="matrix" values="0 0 0 0 0 0 0 0 0 0 0 0 0 0 0 0 0 0 127 0" result="hardAlpha"/>
<feOffset dy="1.03065"/>
<feComposite in2="hardAlpha" operator="arithmetic" k2="-1" k3="1"/>
<feColorMatrix type="matrix" values="0 0 0 0 1 0 0 0 0 1 0 0 0 0 1 0 0 0 0.6 0"/>
<feBlend mode="normal" in2="shape" result="effect1_innerShadow_575_464"/>
</filter>
<filter id="filter7_i_575_464" x="333" y="103.351" width="115.637" height="253.741" filterUnits="userSpaceOnUse" color-interpolation-filters="sRGB">
<feFlood flood-opacity="0" result="BackgroundImageFix"/>
<feBlend mode="normal" in="SourceGraphic" in2="BackgroundImageFix" result="shape"/>
<feColorMatrix in="SourceAlpha" type="matrix" values="0 0 0 0 0 0 0 0 0 0 0 0 0 0 0 0 0 0 127 0" result="hardAlpha"/>
<feOffset dy="1"/>
<feComposite in2="hardAlpha" operator="arithmetic" k2="-1" k3="1"/>
<feColorMatrix type="matrix" values="0 0 0 0 1 0 0 0 0 1 0 0 0 0 1 0 0 0 0.6 0"/>
<feBlend mode="normal" in2="shape" result="effect1_innerShadow_575_464"/>
</filter>
<filter id="filter8_i_575_464" x="555" y="162.001" width="4.59277" height="220.915" filterUnits="userSpaceOnUse" color-interpolation-filters="sRGB">
<feFlood flood-opacity="0" result="BackgroundImageFix"/>
<feBlend mode="normal" in="SourceGraphic" in2="BackgroundImageFix" result="shape"/>
<feColorMatrix in="SourceAlpha" type="matrix" values="0 0 0 0 0 0 0 0 0 0 0 0 0 0 0 0 0 0 127 0" result="hardAlpha"/>
<feOffset dy="1"/>
<feComposite in2="hardAlpha" operator="arithmetic" k2="-1" k3="1"/>
<feColorMatrix type="matrix" values="0 0 0 0 1 0 0 0 0 1 0 0 0 0 1 0 0 0 0.6 0"/>
<feBlend mode="normal" in2="shape" result="effect1_innerShadow_575_464"/>
</filter>
<filter id="filter9_i_575_464" x="410" y="187" width="145" height="281.5" filterUnits="userSpaceOnUse" color-interpolation-filters="sRGB">
<feFlood flood-opacity="0" result="BackgroundImageFix"/>
<feBlend mode="normal" in="SourceGraphic" in2="BackgroundImageFix" result="shape"/>
<feColorMatrix in="SourceAlpha" type="matrix" values="0 0 0 0 0 0 0 0 0 0 0 0 0 0 0 0 0 0 127 0" result="hardAlpha"/>
<feOffset dy="1.03065"/>
<feComposite in2="hardAlpha" operator="arithmetic" k2="-1" k3="1"/>
<feColorMatrix type="matrix" values="0 0 0 0 1 0 0 0 0 1 0 0 0 0 1 0 0 0 0.6 0"/>
<feBlend mode="normal" in2="shape" result="effect1_innerShadow_575_464"/>
</filter>
<filter id="filter10_i_575_464" x="302" y="336" width="31" height="129.5" filterUnits="userSpaceOnUse" color-interpolation-filters="sRGB">
<feFlood flood-opacity="0" result="BackgroundImageFix"/>
<feBlend mode="normal" in="SourceGraphic" in2="BackgroundImageFix" result="shape"/>
<feColorMatrix in="SourceAlpha" type="matrix" values="0 0 0 0 0 0 0 0 0 0 0 0 0 0 0 0 0 0 127 0" result="hardAlpha"/>
<feOffset dy="1"/>
<feComposite in2="hardAlpha" operator="arithmetic" k2="-1" k3="1"/>
<feColorMatrix type="matrix" values="0 0 0 0 1 0 0 0 0 1 0 0 0 0 1 0 0 0 0.6 0"/>
<feBlend mode="normal" in2="shape" result="effect1_innerShadow_575_464"/>
</filter>
<filter id="filter11_i_575_464" x="212" y="370" width="91" height="95.5" filterUnits="userSpaceOnUse" color-interpolation-filters="sRGB">
<feFlood flood-opacity="0" result="BackgroundImageFix"/>
<feBlend mode="normal" in="SourceGraphic" in2="BackgroundImageFix" result="shape"/>
<feColorMatrix in="SourceAlpha" type="matrix" values="0 0 0 0 0 0 0 0 0 0 0 0 0 0 0 0 0 0 127 0" result="hardAlpha"/>
<feOffset dy="1.03065"/>
<feComposite in2="hardAlpha" operator="arithmetic" k2="-1" k3="1"/>
<feColorMatrix type="matrix" values="0 0 0 0 1 0 0 0 0 1 0 0 0 0 1 0 0 0 0.6 0"/>
<feBlend mode="normal" in2="shape" result="effect1_innerShadow_575_464"/>
</filter>
<filter id="filter12_i_575_464" x="302" y="412.096" width="108" height="59.4199" filterUnits="userSpaceOnUse" color-interpolation-filters="sRGB">
<feFlood flood-opacity="0" result="BackgroundImageFix"/>
<feBlend mode="normal" in="SourceGraphic" in2="BackgroundImageFix" result="shape"/>
<feColorMatrix in="SourceAlpha" type="matrix" values="0 0 0 0 0 0 0 0 0 0 0 0 0 0 0 0 0 0 127 0" result="hardAlpha"/>
<feOffset dy="1.03065"/>
<feComposite in2="hardAlpha" operator="arithmetic" k2="-1" k3="1"/>
<feColorMatrix type="matrix" values="0 0 0 0 1 0 0 0 0 1 0 0 0 0 1 0 0 0 0.6 0"/>
<feBlend mode="normal" in2="shape" result="effect1_innerShadow_575_464"/>
</filter>
<linearGradient id="paint0_linear_575_464" x1="318.074" y1="41.5264" x2="318.074" y2="299.151" gradientUnits="userSpaceOnUse">
<stop stop-color="#3795FF"/>
<stop offset="1" stop-color="#D850FA"/>
</linearGradient>
<linearGradient id="paint1_linear_575_464" x1="462.151" y1="72.2812" x2="462.151" y2="313.118" gradientUnits="userSpaceOnUse">
<stop stop-color="#3795FF"/>
<stop offset="1" stop-color="#D850FA"/>
</linearGradient>
<linearGradient id="paint2_linear_575_464" x1="238.041" y1="102.848" x2="287.974" y2="164.883" gradientUnits="userSpaceOnUse">
<stop stop-color="#FFCB69"/>
<stop offset="1" stop-color="#FFDB9A"/>
</linearGradient>
<linearGradient id="paint3_linear_575_464" x1="296.701" y1="183.801" x2="342.081" y2="195.076" gradientUnits="userSpaceOnUse">
<stop stop-color="#FFCB69"/>
<stop offset="1" stop-color="#FFDB9A"/>
</linearGradient>
<linearGradient id="paint4_linear_575_464" x1="246.606" y1="367.931" x2="222.414" y2="241.109" gradientUnits="userSpaceOnUse">
<stop stop-color="#A7CFFF"/>
<stop offset="1" stop-color="#5C80F1"/>
</linearGradient>
<linearGradient id="paint5_linear_575_464" x1="165.213" y1="294.012" x2="153.25" y2="294.075" gradientUnits="userSpaceOnUse">
<stop stop-color="#A7ECFF"/>
<stop offset="1" stop-color="#55EAA9"/>
</linearGradient>
<linearGradient id="paint6_linear_575_464" x1="307.4" y1="231.089" x2="149.882" y2="260.905" gradientUnits="userSpaceOnUse">
<stop stop-color="#A7ECFF"/>
<stop offset="1" stop-color="#5CF1B1"/>
</linearGradient>
<linearGradient id="paint7_linear_575_464" x1="264" y1="352.5" x2="131.467" y2="369.81" gradientUnits="userSpaceOnUse">
<stop stop-color="#C6B9EF"/>
<stop offset="1" stop-color="#997CF4"/>
</linearGradient>
<linearGradient id="paint8_linear_575_464" x1="274.335" y1="424.096" x2="244.406" y2="309.31" gradientUnits="userSpaceOnUse">
<stop stop-color="#C6B9EF"/>
<stop offset="1" stop-color="#997CF4"/>
</linearGradient>
<linearGradient id="paint9_linear_575_464" x1="390" y1="252" x2="186.345" y2="312.632" gradientUnits="userSpaceOnUse">
<stop stop-color="#C6B9EF"/>
<stop offset="1" stop-color="#997CF4"/>
</linearGradient>
<linearGradient id="paint10_linear_575_464" x1="435.725" y1="-58.103" x2="253.569" y2="46.6471" gradientUnits="userSpaceOnUse">
<stop stop-color="#B375FF"/>
<stop offset="1" stop-color="#28BCFF"/>
</linearGradient>
<linearGradient id="paint11_linear_575_464" x1="563.382" y1="281.111" x2="406.882" y2="329.111" gradientUnits="userSpaceOnUse">
<stop stop-color="#3795FF"/>
<stop offset="1" stop-color="#D850FA"/>
</linearGradient>
<linearGradient id="paint12_linear_575_464" x1="539.959" y1="79.0107" x2="417.39" y2="163.558" gradientUnits="userSpaceOnUse">
<stop offset="0.137857" stop-color="#7C91FF"/>
<stop offset="1" stop-color="#48ABFF"/>
</linearGradient>
<linearGradient id="paint13_linear_575_464" x1="656.828" y1="283.611" x2="85.6629" y2="501.776" gradientUnits="userSpaceOnUse">
<stop stop-color="#3795FF"/>
<stop offset="1" stop-color="#D850FA"/>
</linearGradient>
<linearGradient id="paint14_linear_575_464" x1="432" y1="297.5" x2="297.5" y2="309" gradientUnits="userSpaceOnUse">
<stop stop-color="#3795FF"/>
<stop offset="1" stop-color="#D850FA"/>
</linearGradient>
<linearGradient id="paint15_linear_575_464" x1="316.317" y1="459.177" x2="280.779" y2="330.24" gradientUnits="userSpaceOnUse">
<stop stop-color="#FB9D7C"/>
<stop offset="1" stop-color="#DC7450"/>
</linearGradient>
<linearGradient id="paint16_linear_575_464" x1="281.263" y1="444.183" x2="306.668" y2="317.634" gradientUnits="userSpaceOnUse">
<stop stop-color="#F37B51"/>
<stop offset="1" stop-color="#FCA283"/>
</linearGradient>
<linearGradient id="paint17_linear_575_464" x1="264.161" y1="524.817" x2="315.885" y2="373.224" gradientUnits="userSpaceOnUse">
<stop stop-color="#F37B51"/>
<stop offset="1" stop-color="#FCA283"/>
</linearGradient>
<linearGradient id="paint18_linear_575_464" x1="364.436" y1="458.697" x2="387.663" y2="344.548" gradientUnits="userSpaceOnUse">
<stop stop-color="#F35B72"/>
<stop offset="1" stop-color="#E590C4"/>
</linearGradient>
<linearGradient id="paint19_linear_575_464" x1="363.915" y1="515.744" x2="388.064" y2="381.438" gradientUnits="userSpaceOnUse">
<stop stop-color="#F35B72"/>
<stop offset="1" stop-color="#E590C4"/>
</linearGradient>
</defs>
</svg>
