<svg width="126" height="24" viewBox="0 0 126 24" fill="none" xmlns="http://www.w3.org/2000/svg">
<g clip-path="url(#clip0_1848_1274)">
<path d="M55.4459 23.4545C53.1921 23.4545 51.2507 22.9597 49.6221 21.9701C48.0156 20.9586 46.7773 19.6062 45.9071 17.913C45.0369 16.2198 44.6018 14.3397 44.6018 12.2726C44.6018 10.2056 45.0481 8.32546 45.9406 6.63225C46.8331 4.93904 48.0938 3.59767 49.7226 2.60812C51.3736 1.59659 53.3038 1.09082 55.5127 1.09082C57.9 1.09082 59.9642 1.67355 61.7042 2.83901C63.4671 3.98246 64.7611 5.46681 65.5869 7.29194H62.8425C62.173 6.1265 61.236 5.20292 60.0309 4.52125C58.8481 3.83953 57.4095 3.4987 55.7134 3.4987C53.9283 3.4987 52.389 3.8945 51.095 4.68616C49.8006 5.45579 48.8077 6.50033 48.1161 7.81971C47.4467 9.13909 47.112 10.6234 47.112 12.2726C47.112 13.8999 47.4467 15.3842 48.1161 16.7256C48.7854 18.045 49.756 19.1005 51.0277 19.8921C52.3218 20.6617 53.8616 21.0466 55.6467 21.0466C56.9852 21.0466 58.2459 20.7607 59.4287 20.1889C60.6332 19.6172 61.6041 18.7926 62.3404 17.7151C63.0989 16.6376 63.4782 15.3402 63.4782 13.8229H55.3786V11.58H65.7876V23.1906H63.4782V19.3313C63.0099 20.035 62.4072 20.7057 61.6709 21.3434C60.9346 21.9591 60.0421 22.4649 58.9933 22.8607C57.9672 23.2566 56.7844 23.4545 55.4459 23.4545Z" fill="black"/>
<path d="M76.1781 23.4545C74.5371 23.4545 73.0983 23.0712 71.8617 22.3044C70.6476 21.5152 69.7035 20.4553 69.0294 19.1247C68.3549 17.7942 68.0176 16.3284 68.0176 14.7273C68.0176 13.1036 68.3549 11.6378 69.0294 10.3298C69.7035 8.99928 70.6476 7.95068 71.8617 7.18394C73.0983 6.39466 74.5371 6 76.1781 6C77.5721 6 78.7633 6.27062 79.7522 6.81182C80.7641 7.35306 81.5849 8.08596 82.2141 9.01058V6.27062H84.7432V23.1839H82.2141V20.4778C81.5849 21.3798 80.7641 22.1015 79.7522 22.6427C78.7633 23.1839 77.5721 23.4545 76.1781 23.4545ZM76.5154 21.1543C77.7744 21.1543 78.8306 20.8612 79.685 20.2749C80.5618 19.6885 81.2252 18.9105 81.6746 17.9408C82.1244 16.9486 82.3491 15.8774 82.3491 14.7273C82.3491 13.5546 82.1244 12.4834 81.6746 11.5137C81.2252 10.5441 80.5618 9.76602 79.685 9.1797C78.8306 8.59337 77.7744 8.30021 76.5154 8.30021C75.2789 8.30021 74.211 8.59337 73.3117 9.1797C72.4125 9.76602 71.7267 10.5441 71.2549 11.5137C70.7826 12.4834 70.5467 13.5546 70.5467 14.7273C70.5467 15.8774 70.7826 16.9486 71.2549 17.9408C71.7267 18.9105 72.4125 19.6885 73.3117 20.2749C74.211 20.8612 75.2789 21.1543 76.5154 21.1543Z" fill="black"/>
<path d="M88.646 22.9091V0H91.4336V22.9091H88.646Z" fill="black"/>
<path d="M93.1062 22.9095L99.6895 14.4659L93.5154 6.5459H96.7901L101.19 12.7314L105.556 6.5459H108.831L102.657 14.4659L109.274 22.9095H106L101.19 16.2332L96.3468 22.9095H93.1062Z" fill="black"/>
<path d="M117.806 23.4545C116.097 23.4545 114.602 23.0712 113.321 22.3044C112.039 21.5152 111.039 20.4553 110.32 19.1247C109.623 17.7942 109.274 16.3284 109.274 14.7273C109.274 13.1036 109.612 11.6378 110.286 10.3298C110.96 8.99928 111.927 7.95068 113.186 7.18394C114.445 6.39466 115.929 6 117.637 6C119.368 6 120.852 6.39466 122.088 7.18394C123.347 7.95068 124.314 8.99928 124.988 10.3298C125.663 11.6378 126 13.1036 126 14.7273V15.742H111.871C112.006 16.7343 112.321 17.6476 112.815 18.482C113.332 19.2939 114.018 19.9479 114.872 20.444C115.726 20.9175 116.716 21.1543 117.84 21.1543C119.031 21.1543 120.031 20.895 120.841 20.3763C121.65 19.8351 122.279 19.1473 122.729 18.3129H125.494C124.91 19.8238 123.977 21.0641 122.695 22.0338C121.437 22.981 119.807 23.4545 117.806 23.4545ZM111.904 13.3742H123.37C123.145 11.9309 122.538 10.7245 121.549 9.75477C120.56 8.78503 119.256 8.30021 117.637 8.30021C116.019 8.30021 114.715 8.78503 113.725 9.75477C112.759 10.7245 112.152 11.9309 111.904 13.3742Z" fill="black"/>
<path d="M38.8011 2.79614C38.5463 2.29581 38.1077 1.92262 37.567 1.74546C37.0264 1.56832 36.4472 1.60867 35.9374 1.8587L35.9248 1.86454L0 24.0004L37.845 5.60622C38.3549 5.35618 38.7352 4.92578 38.9157 4.39522C39.0963 3.86466 39.0551 3.29643 38.8003 2.7961L38.8011 2.79614Z" fill="black"/>
<path d="M28.0817 2.90238C28.8614 2.55304 29.2069 1.65262 28.8512 0.891596C28.494 0.128054 27.5656 -0.210474 26.7795 0.135938L26.7572 0.145323L3.34521 16.3636L28.0817 2.90238Z" fill="black"/>
<path d="M29.4114 15.6067C30.0325 15.2773 30.2841 14.4801 29.9726 13.8261C29.6604 13.1704 28.8974 12.9028 28.2723 13.2312L28.2548 13.2406L13.3806 22.3635L29.4113 15.6076L29.4114 15.6067Z" fill="black"/>
</g>
<defs>
<clipPath id="clip0_1848_1274">
<rect width="126" height="24" fill="white"/>
</clipPath>
</defs>
</svg>
