<svg width="116" height="30" viewBox="0 0 116 30" fill="none" xmlns="http://www.w3.org/2000/svg">
<path fill-rule="evenodd" clip-rule="evenodd" d="M19.9233 1.22754C24.2251 2.67016 27.6094 6.05297 29.0794 10.3292C29.6685 11.8819 29.9908 13.5653 29.9908 15.3237C29.9908 20.2142 27.4976 24.5242 23.7095 27.059C21.3063 28.7683 18.3649 29.7739 15.1878 29.7739C14.2532 29.7739 13.2329 29.6128 12.3469 29.4465L12.3502 29.4409C12.4 29.3525 13.0275 28.2393 14.2326 26.1011L19.6763 16.4084L20.3935 15.1699L18.0328 11.093H14.2647C18.0372 4.51606 19.9233 1.22754 19.9233 1.22754Z" fill="#CBFF01"/>
<path fill-rule="evenodd" clip-rule="evenodd" d="M15.1745 0.495117C16.2537 0.495117 17.2157 0.569554 18.2283 0.792471C18.2357 0.794169 16.2158 4.41661 12.1686 11.6601L11.4888 12.8577L10.8294 14.0381L10.1171 15.2749L12.4618 19.3464H16.2166L10.8467 28.7026C10.8362 28.7187 10.8272 28.7346 10.8184 28.7498L10.7806 28.8156C10.6943 28.9663 10.6511 29.0415 10.6511 29.0415C4.76739 27.1567 0.584473 21.6449 0.584473 15.1212C0.584473 7.04344 7.1166 0.495117 15.1745 0.495117Z" fill="#00FFA3"/>
<path d="M43.9571 24.3972V8.61721H47.1035V24.3972H43.9571ZM38.8127 11.0484V8.27317H52.2479V11.0484H38.8127ZM55.9636 24.6266C54.9531 24.6266 54.0421 24.3743 53.2306 23.8697C52.4191 23.3651 51.7837 22.677 51.3244 21.8054C50.8651 20.9339 50.6354 19.9553 50.6354 18.8696C50.6354 17.7687 50.8651 16.7824 51.3244 15.9109C51.7837 15.0393 52.4191 14.3512 53.2306 13.8466C54.0421 13.342 54.9531 13.0897 55.9636 13.0897C56.7597 13.0897 57.4716 13.2503 58.0994 13.5714C58.7272 13.8925 59.2247 14.3435 59.5922 14.9246C59.9749 15.4903 60.1816 16.1325 60.2123 16.8513V20.8421C60.1816 21.5761 59.9749 22.226 59.5922 22.7917C59.2247 23.3574 58.7272 23.8086 58.0994 24.1449C57.4716 24.466 56.7597 24.6266 55.9636 24.6266ZM56.5147 21.8513C57.3568 21.8513 58.0382 21.5761 58.5587 21.0256C59.0792 20.4599 59.3396 19.7335 59.3396 18.8467C59.3396 18.2656 59.217 17.7534 58.9721 17.31C58.7424 16.8513 58.4132 16.4995 57.9846 16.2549C57.5712 15.9949 57.0812 15.865 56.5147 15.865C55.9636 15.865 55.4736 15.9949 55.0449 16.2549C54.6315 16.4995 54.3023 16.8513 54.0574 17.31C53.8277 17.7534 53.7129 18.2656 53.7129 18.8467C53.7129 19.443 53.8277 19.9706 54.0574 20.4293C54.3023 20.8727 54.6315 21.2243 55.0449 21.4843C55.4736 21.7289 55.9636 21.8513 56.5147 21.8513ZM59.1788 24.3972V21.4155L59.6611 18.7091L59.1788 16.0485V13.3191H62.1644V24.3972H59.1788ZM68.6383 24.6495C68.0106 24.6495 67.3905 24.5654 66.7781 24.3972C66.181 24.229 65.6298 23.9996 65.1245 23.7091C64.6193 23.4033 64.1829 23.0363 63.8155 22.6082L65.6068 20.7963C65.9895 21.2243 66.4336 21.5454 66.9389 21.7596C67.4441 21.9737 68.0029 22.0807 68.6154 22.0807C69.1052 22.0807 69.4727 22.0119 69.7177 21.8742C69.9779 21.7366 70.1082 21.5302 70.1082 21.255C70.1082 20.9491 69.9704 20.7122 69.6948 20.544C69.4345 20.3757 69.09 20.2381 68.6613 20.1311C68.2325 20.0087 67.7809 19.8788 67.3063 19.7412C66.847 19.5883 66.4029 19.3972 65.9743 19.1678C65.5455 18.9232 65.1934 18.5944 64.9178 18.1815C64.6575 17.7534 64.5274 17.203 64.5274 16.5301C64.5274 15.8268 64.6957 15.2151 65.0327 14.6953C65.3847 14.1754 65.8824 13.7701 66.5255 13.4797C67.1685 13.1892 67.9264 13.0439 68.7991 13.0439C69.7177 13.0439 70.5445 13.2044 71.2794 13.5255C72.0296 13.8466 72.6497 14.3283 73.1397 14.9705L71.3254 16.7824C70.9884 16.3696 70.6057 16.0714 70.1771 15.8879C69.7637 15.7044 69.3119 15.6127 68.8221 15.6127C68.378 15.6127 68.0335 15.6815 67.7886 15.8191C67.5589 15.9567 67.4441 16.1479 67.4441 16.3925C67.4441 16.6678 67.5742 16.8819 67.8345 17.0347C68.1101 17.1876 68.4622 17.3252 68.891 17.4476C69.3196 17.5546 69.7637 17.6846 70.223 17.8375C70.6976 17.9751 71.1416 18.1739 71.555 18.4338C71.9837 18.6938 72.3282 19.0379 72.5885 19.466C72.8641 19.8941 73.0019 20.4445 73.0019 21.1174C73.0019 22.203 72.6115 23.0669 71.8306 23.7091C71.0498 24.3361 69.9856 24.6495 68.6383 24.6495ZM82.1042 24.3972L77.8095 18.6861L82.0812 13.3191H85.5491L80.5425 19.3742L80.6573 17.9063L85.7787 24.3972H82.1042ZM75.0306 24.3972V7.81445H78.0392V24.3972H75.0306ZM95.0413 24.6495C93.8624 24.6495 92.76 24.4354 91.7342 24.0073C90.7237 23.5792 89.8358 22.9904 89.0702 22.2412C88.32 21.4766 87.7304 20.5898 87.3018 19.5806C86.8731 18.5562 86.6587 17.4628 86.6587 16.3008C86.6587 15.1387 86.8654 14.0607 87.2788 13.0668C87.7075 12.0576 88.297 11.1784 89.0472 10.4292C89.8128 9.66458 90.7008 9.07594 91.7113 8.66309C92.7218 8.23499 93.8164 8.02088 94.9954 8.02088C96.1897 8.02088 97.292 8.23499 98.3025 8.66309C99.313 9.07594 100.193 9.66458 100.944 10.4292C101.709 11.1784 102.306 12.0576 102.735 13.0668C103.164 14.076 103.378 15.1617 103.378 16.3237C103.378 17.4858 103.164 18.5715 102.735 19.5806C102.306 20.5898 101.709 21.4766 100.944 22.2412C100.193 22.9904 99.313 23.5792 98.3025 24.0073C97.3073 24.4354 96.2203 24.6495 95.0413 24.6495ZM94.9954 21.7366C96.0366 21.7366 96.9398 21.5073 97.7054 21.0485C98.471 20.5898 99.0681 19.9553 99.4968 19.1449C99.9408 18.3344 100.163 17.3865 100.163 16.3008C100.163 15.5057 100.04 14.7793 99.7953 14.1219C99.5504 13.4644 99.1982 12.8986 98.7389 12.4246C98.2796 11.9353 97.7361 11.5607 97.1083 11.3007C96.4805 11.0407 95.7763 10.9108 94.9954 10.9108C93.9849 10.9108 93.0892 11.1402 92.3084 11.5989C91.5428 12.0424 90.9381 12.6692 90.4941 13.4797C90.0654 14.2901 89.851 15.2305 89.851 16.3008C89.851 17.1112 89.9735 17.8527 90.2185 18.5256C90.4788 19.1984 90.8309 19.7718 91.2749 20.2458C91.7342 20.7198 92.2777 21.0867 92.9055 21.3467C93.5485 21.6067 94.2452 21.7366 94.9954 21.7366ZM112.997 24.3972V18.0439C112.997 17.3865 112.789 16.8513 112.376 16.4384C111.963 16.0256 111.427 15.8191 110.768 15.8191C110.34 15.8191 109.957 15.9109 109.62 16.0944C109.283 16.2779 109.016 16.5378 108.817 16.8742C108.633 17.2105 108.541 17.6005 108.541 18.0439L107.37 17.4476C107.37 16.576 107.553 15.8191 107.921 15.1769C108.304 14.5195 108.824 14.0072 109.483 13.6402C110.156 13.2732 110.914 13.0897 111.756 13.0897C112.567 13.0897 113.294 13.2962 113.938 13.709C114.581 14.1066 115.086 14.6341 115.454 15.2916C115.821 15.9338 116.005 16.6296 116.005 17.3788V24.3972H112.997ZM105.532 24.3972V13.3191H108.541V24.3972H105.532Z" fill="#071115"/>
</svg>
