<svg width="140" height="138" viewBox="0 0 140 138" fill="none" xmlns="http://www.w3.org/2000/svg">
<g clip-path="url(#clip0_787_14066)">
<path d="M0.273438 49.746C0.273438 33.2526 0.273438 16.896 0.273438 0.53327C46.9246 0.53327 93.5757 0.53327 140.25 0.53327C140.25 46.1645 140.25 91.8018 140.25 137.479C93.6068 137.479 46.9401 137.479 0.273438 137.479C0.273438 108.293 0.273438 79.0877 0.273438 49.746ZM52.5962 84.4164C50.698 83.1872 48.73 83.576 46.838 84.3201C40.5792 86.7814 35.189 90.4994 31.3108 96.0494C28.7052 99.7781 26.3408 103.733 28.1888 108.245C25.3847 109.706 22.5586 111.023 19.8991 112.618C18.1603 113.66 17.2123 115.38 17.1854 117.527C17.1212 122.653 20.6472 126.463 25.7921 126.633C28.7831 126.732 31.7863 126.772 34.7728 126.619C38.9101 126.408 42.9404 125.542 46.7872 123.959C50.8229 122.299 52.059 120.322 51.8321 115.964C51.8016 115.379 51.6173 114.801 51.5886 114.215C51.5787 114.012 51.8247 113.797 51.9801 113.831C52.5735 115.849 53.9286 117.313 55.5682 118.496C61.2482 122.594 67.5471 125.313 74.4443 126.515C76.1063 126.804 77.9557 126.853 79.5646 126.428C82.4426 125.668 83.6505 123.176 84.5016 120.545C85.1337 118.592 84.902 116.718 83.5206 115.193C82.0642 113.585 80.5477 111.989 78.8504 110.65C73.2118 106.202 66.9164 103.437 59.5643 103.592C53.8871 103.712 50.4267 108.286 51.7447 113.842C50.6381 111.302 48.6501 109.829 46.0295 109.125C45.4542 108.97 44.8762 108.825 44.1028 108.625C44.5554 108.225 44.7783 108.005 45.0246 107.815C48.3188 105.274 51.2309 102.345 53.6593 98.9751C55.5913 96.294 57.6508 93.6088 57.2163 89.8307C57.2961 89.7706 57.3759 89.7105 57.6046 89.7576C59.4039 92.7569 62.2563 94.29 65.3597 95.633C68.8247 97.1324 72.3234 97.9645 76.0796 97.3395C82.174 96.3253 86.7971 93.2723 88.7343 87.2287C89.369 85.2483 90.3491 83.7798 91.7091 82.3708C99.9229 73.8604 109.398 66.8269 118.557 59.4253C118.838 59.1982 119.299 59.2032 119.664 59.0691C120.574 58.735 121.614 58.5636 122.359 58.0041C124.518 56.3825 125.401 53.9832 125.797 51.4155C126.443 47.2339 126.225 43.0671 125.241 38.9587C123.964 33.6274 121.553 28.9257 117.345 25.2759C114.938 23.1877 112.321 21.8284 109.158 22.9872C108.684 20.909 108.385 18.8405 107.735 16.8886C106.163 12.1681 103.353 8.38545 98.5796 6.52724C93.0772 4.38534 88.1136 5.9712 83.689 9.39853C81.785 10.8734 80.2541 12.8298 78.5328 14.5888C78.5161 14.5643 78.3962 14.3859 78.2738 14.2091C74.8796 9.30611 70.2387 6.92281 64.2685 7.58968C57.8524 8.30637 52.126 13.974 50.8163 20.7121C50.5626 22.0169 50.4516 23.3493 50.2616 24.7674C47.3316 23.3157 44.3619 23.0347 41.3051 23.8326C36.6738 25.0415 33.5189 28.7465 33.2945 33.1983C33.042 38.2104 35.8986 42.6302 40.4236 44.3352C41.2079 44.6307 41.9889 45.067 42.622 45.6118C50.8013 52.6513 56.5675 61.3245 60.0029 71.5441C60.1302 71.9229 60.0336 72.5748 59.7758 72.8552C56.6706 76.2314 55.3639 80.193 55.5438 84.7292C54.6266 84.6403 53.7093 84.5514 52.5962 84.4164ZM127.858 58.3804C127.809 58.1432 127.76 57.9059 127.712 57.6686C126.566 62.1375 125.293 66.3361 120.348 68.0444C120.193 67.7934 120.136 67.5835 120.001 67.5017C119.437 67.1595 118.87 66.7922 118.252 66.5927C118.132 66.554 117.57 67.2319 117.582 67.5655C117.614 68.4438 118.286 68.7751 119.1 68.7672C120.127 68.7572 119.978 69.5389 119.963 70.1142C119.897 72.709 117.941 74.7936 115.309 75.1651C114.912 75.2212 114.523 75.3413 114.131 75.4318C117.761 76.4714 120.733 73.2547 120.535 69.0066C121.921 68.0275 123.346 67.2721 124.448 66.1882C126.533 64.1372 127.331 61.4144 127.858 58.3804ZM19.3281 25.1182C21.5107 25.9454 23.8857 25.2436 25.0356 23.1439C24.4474 23.5216 24.1545 23.7591 23.8227 23.9127C23.0905 24.2516 22.3648 24.6875 21.5895 24.8325C20.0865 25.1136 18.6875 24.375 18.6356 23.3454C18.5569 21.7807 19.8411 21.5984 20.9253 21.3396C24.2256 20.5518 26.9698 21.8402 29.5417 23.732C29.8854 23.9848 30.2843 24.1628 30.6576 24.3754C28.506 21.2686 23.4498 19.7201 19.9404 21.0052C19.1933 21.2788 18.2699 22.0509 18.1338 22.734C18.0012 23.3997 18.7733 24.2456 19.3281 25.1182ZM35.0494 13.8303C35.1605 13.8966 35.3208 14.048 35.3753 14.0165C36.1912 13.5445 36.2453 12.3584 35.522 11.1057C34.9993 10.2003 34.3339 9.74174 33.2917 10.3619C31.9119 11.183 31.1288 13.1765 31.4247 15.1623C31.7264 17.1871 33.7823 19.4298 35.6293 19.4816C34.8665 18.8738 34.2248 18.42 33.6496 17.8936C31.8969 16.2896 31.4166 13.7835 32.6352 11.9926C33.0105 11.441 33.7987 11.1702 34.3979 10.7708C34.7089 11.5612 35.0355 12.3462 35.3143 13.1477C35.3573 13.2712 35.1803 13.4711 35.0494 13.8303ZM51.822 76.138C51.6258 76.7597 51.4297 77.3814 51.2335 78.0032C52.5918 76.7096 52.8796 74.7874 52.3113 72.7164C52.1994 72.3089 52.0196 71.7973 52.1657 71.4621C52.9798 69.5939 52.3761 67.9101 51.6096 66.238C51.5133 66.028 51.2381 65.9001 51.0458 65.7341C51.4293 67.5788 52.5198 69.2205 51.6094 71.0816C51.5181 70.9918 51.4268 70.9021 51.3355 70.8123C50.8222 71.1153 50.3089 71.4183 49.7956 71.7213C50.3304 72.0945 50.8652 72.4677 51.4 72.8409C51.5643 72.7528 51.7286 72.6648 51.8928 72.5768C51.8928 73.692 51.8928 74.8072 51.822 76.138ZM93.2118 85.2327C92.5837 84.9023 91.9696 84.3389 91.324 84.3001C90.5041 84.2509 89.6542 85.621 89.8252 86.3667C90.0827 87.49 91.1621 88.1385 92.3246 87.7013C93.3351 87.3213 93.7701 86.524 93.2118 85.2327ZM85.3839 99.7502C87.4912 96.874 90.2852 94.8082 93.4249 93.1505C90.973 92.9183 84.4706 98.575 83.9453 101.559C84.561 100.823 84.9327 100.378 85.3839 99.7502ZM57.775 123.333C55.7364 123.333 53.6978 123.333 51.6592 123.333C51.6576 123.537 51.656 123.741 51.6544 123.944C52.0155 123.978 52.3776 124.049 52.7375 124.039C54.1399 124 55.5428 123.954 56.9428 123.867C57.2569 123.847 57.5597 123.647 57.775 123.333ZM30.9771 19.7305C30.4458 19.3445 29.9145 18.9584 29.3832 18.5724C29.2856 18.7131 29.1881 18.8538 29.0905 18.9944C30.0492 19.7589 31.0079 20.5234 31.9666 21.2879C32.0869 21.1394 32.2071 20.9909 32.3274 20.8423C31.926 20.5144 31.5246 20.1865 30.9771 19.7305ZM53.3119 126.351C52.3582 125.253 51.0519 125.378 49.8587 125.11C49.8188 125.245 49.779 125.38 49.7391 125.515C50.872 125.832 52.0049 126.15 53.3119 126.351Z" fill="#FEFEFE"/>
<path d="M55.7469 84.7396C55.3639 80.193 56.6706 76.2314 59.7758 72.8552C60.0336 72.5748 60.1302 71.9229 60.0029 71.5441C56.5675 61.3245 50.8013 52.6513 42.622 45.6118C41.9889 45.067 41.2079 44.6307 40.4236 44.3352C35.8986 42.6302 33.042 38.2104 33.2945 33.1983C33.5189 28.7465 36.6738 25.0415 41.3051 23.8326C44.3619 23.0347 47.3316 23.3157 50.2616 24.7674C50.4516 23.3493 50.5626 22.0169 50.8163 20.7121C52.126 13.974 57.8524 8.30637 64.2685 7.58968C70.2387 6.92281 74.8796 9.30612 78.2738 14.2091C78.3962 14.3859 78.5161 14.5643 78.5328 14.5888C80.2541 12.8298 81.785 10.8734 83.689 9.39854C88.1136 5.9712 93.0772 4.38534 98.5796 6.52724C103.353 8.38545 106.163 12.1681 107.735 16.8886C108.385 18.8405 108.684 20.909 109.158 22.9872C112.321 21.8284 114.938 23.1877 117.345 25.2759C121.553 28.9257 123.964 33.6274 125.241 38.9587C126.225 43.0671 126.443 47.2339 125.797 51.4155C125.401 53.9832 124.518 56.3825 122.359 58.0041C121.614 58.5636 120.574 58.735 119.664 59.0691C119.299 59.2032 118.838 59.1982 118.557 59.4253C109.398 66.8269 99.9229 73.8604 91.7091 82.3708C90.3491 83.7798 89.369 85.2483 88.7343 87.2286C86.7971 93.2723 82.174 96.3253 76.0796 97.3395C72.3234 97.9645 68.8247 97.1324 65.3597 95.633C62.2563 94.29 59.4039 92.7569 57.5184 89.6035C56.8704 87.8795 56.3087 86.3095 55.7469 84.7396ZM72.4822 44.5569C72.4777 47.1748 72.4493 49.793 72.4823 52.4104C72.4932 53.2772 72.4752 54.069 71.4249 54.5789C70.3065 54.0639 69.1881 53.549 68.0556 52.8141C66.8093 48.0214 65.8485 46.1585 64.5742 46.064C65.2241 47.3426 65.9293 48.5967 66.5057 49.9075C66.9459 50.9084 67.2231 51.981 67.624 53.2384C67.2914 55.3032 66.3267 57.0035 64.614 58.2156C61.5987 60.3496 58.3799 60.6132 55.1778 59.0268C57.1179 63.2709 59.0433 67.4829 60.8624 71.4623C62.6967 70.5161 64.5714 69.269 66.6316 68.5647C68.7197 67.8509 70.9912 67.6735 73.5565 67.1909C73.1553 63.1825 72.7315 58.9481 72.4796 54.7388C72.6378 54.8069 72.7959 54.875 73.0183 55.167C73.3934 59.3194 73.7685 63.4717 74.1326 67.5014C76.2327 68.2977 78.4068 69.1222 80.5602 69.9387C82.3625 64.2448 84.2099 58.4086 86.0857 52.4823C83.5625 52.6874 81.6828 51.7018 80.2098 49.5586C80.0818 48.9561 79.8366 48.3518 79.8458 47.7514C79.8882 44.9886 79.3605 42.3595 78.1573 39.874C77.9998 39.5489 77.7068 39.2893 77.4766 38.9994C77.3706 39.07 77.2645 39.1405 77.1584 39.2111C77.277 39.5204 77.4197 39.8228 77.5101 40.1402C78.0269 41.9534 78.6 43.7548 79.0138 45.5918C79.2579 46.6751 79.2428 47.8168 79.3011 49.0619C79.3011 49.0619 79.2929 49.1982 79.1539 49.2849C79.1174 49.441 79.0809 49.5971 78.9047 49.8803C77.7703 52.3056 76.0832 54.0602 73.1966 54.2966C73.0405 53.81 72.7576 53.3256 72.7491 52.8365C72.7 49.9932 72.7153 47.1489 72.7246 44.0514C72.7278 43.733 72.7755 43.4075 72.7263 43.0974C72.5239 41.8216 73.0632 41.4005 74.3096 41.522C75.3157 41.6201 76.3391 41.5419 77.3548 41.5419C77.355 41.4439 77.3553 41.3459 77.3555 41.2479C75.875 41.2479 74.3944 41.2479 72.8577 41.2479C72.7749 40.5446 72.7074 39.9713 72.6398 39.3979C72.6004 39.4017 72.561 39.4055 72.5216 39.4092C72.4712 39.9794 72.4207 40.5496 72.3555 41.2874C68.5379 41.2874 64.798 41.2874 61.0582 41.2874C61.0599 41.3721 61.0616 41.4568 61.0634 41.5415C63.9231 41.5415 66.7828 41.5415 69.6426 41.5415C72.4015 41.5416 72.4015 41.5416 72.4822 44.5569ZM59.8885 49.7333C59.8866 50.7796 59.8476 51.8275 59.8938 52.8716C59.9365 53.8357 59.5053 54.1609 58.5867 54.1327C57.2058 54.0904 55.8226 54.1217 54.4404 54.1217C55.841 54.3907 57.2435 54.437 58.6411 54.3745C59.5734 54.3327 59.9575 54.616 59.8984 55.598C59.8247 56.8205 59.8807 58.0508 59.8807 59.2777C60.154 58.0542 60.2064 56.8316 60.1372 55.616C60.0828 54.6598 60.4174 54.3388 61.3753 54.374C63.1387 54.4387 64.9061 54.3925 66.6719 54.3925C64.8563 54.1192 63.0442 54.0855 61.2343 54.1342C60.3944 54.1568 60.1048 53.8555 60.1394 53.029C60.1888 51.8485 60.1469 50.6642 60.1526 49.2235C60.1526 47.3184 60.1526 45.4132 60.1526 43.5081C60.0653 43.5093 59.978 43.5104 59.8906 43.5115C59.8906 45.5005 59.8906 47.4896 59.8885 49.7333ZM92.4252 47.3351C93.3206 44.0527 93.2708 39.5272 92.2169 38.5048C92.2169 39.1291 92.2284 39.6473 92.2149 40.1648C92.1674 41.9802 92.1764 43.8005 92.032 45.6084C91.9568 46.5489 91.6051 47.4673 91.2612 48.5407C90.009 49.6857 88.748 50.8214 87.5102 51.9817C87.1724 52.2984 86.7597 52.642 86.6256 53.0529C84.8301 58.5576 83.0796 64.0769 81.3127 69.5909C81.1117 70.2184 81.1459 70.6391 81.8515 71.0077C84.1936 72.2313 85.9797 74.0548 87.385 76.2976C88.79 78.5401 89.3163 81.0163 89.4692 83.8907C97.2595 75.4878 106.009 68.6023 114.887 61.5487C112.739 61.5513 111.493 60.6324 110.992 58.8589C110.739 57.961 110.751 56.9881 110.735 55.8782C112.314 54.0111 113.656 52.0039 114.655 49.7936C114.494 49.6912 114.334 49.5888 114.174 49.4864C112.828 51.6593 111.483 53.8321 109.965 56.0691C109.717 56.2661 109.478 56.4736 109.221 56.6585C107.883 57.6243 106.414 57.9717 104.884 57.268C103.385 56.5787 102.684 55.2398 102.729 53.6473C102.765 52.3622 103.079 51.0849 103.432 49.7481C105.695 47.3248 107.468 44.5802 108.925 41.6035C108.628 41.5412 108.404 41.5532 108.328 41.6655C106.501 44.3565 104.69 47.0582 102.721 49.867C99.8021 52.5201 95.1168 52.6915 92.8526 48.3513C92.7424 48.1685 92.6322 47.9858 92.5158 47.6606C92.483 47.6262 92.4503 47.5917 92.4252 47.3351ZM85.5879 46.1924C85.5879 44.706 85.5879 43.2195 85.5879 41.6899C86.1252 41.5891 86.531 41.513 87.3307 41.363C84.4933 41.363 82.0681 41.363 79.6429 41.363C81.1336 41.5407 82.6258 41.5931 84.1122 41.5222C85.0929 41.4755 85.3786 41.8538 85.3295 42.7813C85.2649 44.0027 85.3095 45.2298 85.1019 46.5003C84.9602 47.0267 84.8185 47.5532 84.6768 48.0796C84.7747 48.1049 84.8727 48.1301 84.9706 48.1554C85.1704 47.8035 85.3703 47.4516 85.6985 46.8737C85.8374 47.5296 85.9169 47.9054 85.9939 48.269C86.1965 48.3143 86.3258 48.3693 86.4546 48.3679C87.4978 48.3561 88.5416 48.3491 89.5838 48.3066C89.9584 48.2913 90.6002 48.2644 90.6495 48.1009C90.782 47.6614 90.7718 47.0941 90.5836 46.6857C90.5118 46.5297 89.6382 46.4937 89.4129 46.7049C88.7527 47.3236 88.256 47.1465 87.6189 46.6728C87.9669 46.4863 88.2309 46.3449 88.4948 46.2035C88.4537 46.0794 88.4125 45.9554 88.3713 45.8313C87.9146 45.974 87.4579 46.1166 87.0012 46.2592C87.3371 46.7982 87.6729 47.3372 88.0087 47.8762C87.4944 47.8299 87.0786 47.5336 86.6657 47.2333C86.3074 46.9727 85.9523 46.7076 85.5879 46.1924ZM82.2048 89.8863C82.1447 89.8525 82.0846 89.8187 82.1131 89.6126C82.3549 89.2823 82.6063 88.9584 82.8373 88.6207C88.0471 81.0054 84.6514 71.1414 75.9757 68.6839C68.6376 66.6053 60.3858 70.5674 57.3779 77.6138C54.3966 84.5979 57.5373 91.9595 64.6797 94.6007C69.7685 96.4826 74.478 95.4651 78.8955 92.5486C79.2667 92.3036 79.6575 92.0885 80.293 91.7072C79.8429 92.558 79.5701 93.0738 79.1521 93.8296C78.6175 93.9025 78.0581 93.8988 77.5529 94.0624C75.9244 94.5898 74.3429 95.2837 72.6907 95.7099C71.4473 96.0306 70.1232 96.0386 68.5336 96.2202C72.7882 97.4521 76.6068 97.1323 80.5721 95.3848C80.0338 94.9015 79.6335 94.6 79.3165 94.2277C79.1975 94.0879 79.2719 93.7834 79.4438 93.6438C79.9059 94.2006 80.368 94.7574 80.8155 95.2966C83.8582 93.7718 86.0083 91.7528 87.5183 88.8407C86.5985 88.0197 85.7205 87.2361 84.9266 86.5276C83.965 87.8378 83.1693 88.9219 82.2048 89.8863ZM90.2933 6.67485C85.1465 8.12334 81.4828 11.4707 78.6769 16.0683C78.3918 15.567 78.2395 15.2933 78.0818 15.0227C75.1221 9.9467 68.643 7.08141 63.1357 8.41232C56.9384 9.90997 51.8116 15.7571 51.1511 22.1139C51.0278 23.3005 51 24.497 50.9143 25.9179C48.5714 24.2995 46.1209 23.9122 43.5163 24.0342C38.817 24.2542 34.5738 27.9262 33.9483 32.4178C33.2556 37.3918 36.2618 42.3882 40.8255 43.848C42.8283 44.4887 45.3914 43.8217 46.4388 42.1042C47.0491 41.1035 47.3783 39.8382 47.4831 38.6607C47.5373 38.0509 46.8188 37.3775 46.4725 36.7207C46.4277 36.6357 46.5218 36.4774 46.6225 36.0572C47.2077 36.8183 47.7066 37.3832 48.1096 38.0099C48.8329 39.1346 49.7993 39.4717 50.9542 38.7681C51.5953 38.3775 52.3179 37.8592 52.6154 37.2182C53.3364 35.665 53.83 34.0062 54.4622 32.26C54.6043 32.311 55.0546 32.3951 55.4219 32.6167C58.2497 34.3225 61.8181 32.6897 63.2026 30.0869C63.5987 29.3423 63.6947 28.7544 63.2187 27.9687C62.809 27.2923 62.7005 26.4335 62.4589 25.6553C62.6201 25.5487 62.7813 25.4422 62.9425 25.3357C63.466 28.8129 65.6383 30.1 68.8036 30.3548C71.9201 30.6056 74.1937 29.2328 75.8158 27.3376C77.3501 27.9789 78.6116 28.6906 79.9662 29.0227C81.429 29.3814 82.7856 28.7675 84.0676 27.9692C85.0534 27.3554 84.6444 26.4499 84.7939 25.6563C85.1447 23.7947 85.502 23.1003 86.5156 22.6106C85.4979 24.5913 85.0156 26.4714 85.8627 28.5478C86.8994 31.089 88.4065 33.0236 91.2364 33.6295C92.033 33.8 92.8556 34.1931 93.2256 32.5072C93.6266 33.5676 93.9277 34.1086 94.0316 34.6851C94.3909 36.6797 95.5682 38.0317 97.2699 38.9903C99.3166 40.1432 101.55 40.0108 103.785 39.9266C106.498 39.8244 109.294 39.3467 111.806 40.7855C116.355 43.3914 118.156 47.5543 118.171 52.6187C118.175 53.7938 117.902 54.9694 117.9 56.1449C117.898 58.1576 119.517 59.0331 121.275 58.0321C123.036 57.0295 124.065 55.4381 124.652 53.5755C125.796 49.9466 125.717 46.2422 125.248 42.5069C124.403 35.7771 121.884 29.9096 116.591 25.4638C114.217 23.4693 111.628 22.2788 108.357 24.1296C108.325 23.4629 108.307 22.9874 108.277 22.5126C107.988 17.864 106.421 13.7221 103.194 10.3248C99.7123 6.65834 95.4317 5.49742 90.2933 6.67485ZM88.8243 84.0033C88.6936 82.7486 88.598 81.4889 88.4232 80.2403C88.2051 78.6831 86.9671 78.2838 85.9884 77.9288C85.748 80.6463 85.5127 83.3051 85.2732 86.0114C85.9931 86.6422 86.864 87.4053 87.9318 88.341C88.2315 86.9485 88.5217 85.6004 88.8243 84.0033ZM75.9693 45.6358C74.6248 45.9585 73.8548 47.0483 74.1059 48.273C74.3568 49.4968 75.3306 50.1458 76.7252 50.0186C77.6614 49.9333 78.7504 48.7401 78.7389 47.8123C78.7248 46.6758 77.536 45.6567 75.9693 45.6358ZM85.2873 76.7245C85.9879 77.1496 86.6884 77.5748 87.389 78C86.5694 76.0967 85.7148 74.3417 83.6523 73.2619C84.26 74.5491 84.7288 75.5423 85.2873 76.7245ZM81.1564 48.3783C81.9176 48.3817 82.6925 48.4707 83.4344 48.3524C83.8036 48.2936 84.2577 47.913 84.3958 47.5672C84.4844 47.3451 84.1337 46.7318 83.8598 46.6355C83.5142 46.5139 82.9905 46.6457 82.6489 46.847C82.3813 47.0046 82.3366 47.5197 82.0732 47.7129C81.898 47.8414 81.5122 47.6828 81.2206 47.6528C81.1504 47.4952 81.0802 47.3377 81.01 47.1802C81.3674 47.064 81.7248 46.9478 82.0821 46.8317C81.9563 46.6783 81.8304 46.5249 81.7045 46.3715C81.3193 46.5934 80.7261 46.7377 80.6064 47.0587C80.4818 47.3926 80.8145 47.8971 81.1564 48.3783ZM95.3934 46.3508C94.8923 46.7636 94.3913 47.1764 93.9146 47.569C93.8206 47.3073 93.687 46.9358 93.4648 46.3174C93.0064 48.5516 93.21 48.7511 95.0589 48.1886C95.1172 47.8194 95.1786 47.4306 95.2309 47.0993C95.4972 47.5622 95.7538 48.0083 96.0104 48.4543C96.338 47.877 96.2608 47.4646 96.3543 47.0954C96.5408 46.3591 96.2128 46.1955 95.3934 46.3508ZM87.2195 49.0537C86.0095 49.2513 84.6572 48.4851 83.2429 49.6034C84.1301 49.7269 84.6873 49.8045 85.2534 49.8833C85.2982 50.6344 85.3359 51.2656 85.3736 51.8967C85.4383 50.455 85.4042 49.0578 87.5648 49.6722C87.8228 49.7455 88.1632 49.529 88.8455 49.3436C88.1057 49.2345 87.7609 49.1836 87.2195 49.0537ZM82.9954 49.123C82.9594 49.2355 82.9172 49.3468 82.8924 49.4617C82.8874 49.485 82.9481 49.5224 82.9784 49.5533C83.0142 49.4409 83.0499 49.3285 82.9954 49.123Z" fill="#5831C8"/>
<path d="M51.9538 113.587C51.8247 113.797 51.5787 114.012 51.5887 114.215C51.6173 114.801 51.8016 115.379 51.8321 115.964C52.059 120.322 50.8229 122.299 46.7873 123.959C42.9404 125.542 38.9102 126.408 34.7728 126.619C31.7863 126.772 28.7831 126.732 25.7921 126.633C20.6472 126.463 17.1212 122.653 17.1854 117.527C17.2123 115.38 18.1603 113.66 19.8991 112.618C22.5586 111.023 25.3847 109.706 28.1888 108.245C26.3408 103.733 28.7053 99.7781 31.3108 96.0494C35.189 90.4994 40.5792 86.7814 46.838 84.3201C48.7301 83.576 50.698 83.1872 52.7541 84.5261C53.2693 85.1229 53.6266 85.61 53.8932 86.052C53.4331 85.7441 53.0638 85.4812 52.5781 85.1217C51.6125 84.4776 51.2653 84.7195 51.4891 85.6889C51.9643 87.7473 51.6046 89.7298 50.5669 91.4711C49.3686 93.4821 48.0322 95.4514 46.4962 97.2125C42.6495 101.623 37.8752 104.796 32.3976 107.101C31.0931 107.192 29.9049 107.285 28.6361 107.385C29.9457 109.993 32.2452 111.219 35.1155 111.857C36.3782 111.69 37.7146 111.78 38.6375 111.205C41.4369 109.463 44.2116 107.626 46.7373 105.516C48.9769 103.645 50.8706 101.36 53.0575 99.1131C51.8612 98.2571 50.9353 97.5946 50.0094 96.932C50.0907 96.8033 50.172 96.6745 50.2533 96.5457C51.2471 97.141 52.2408 97.7363 53.4346 98.4514C54.2738 96.9843 55.2108 95.5419 55.9521 94.005C57.0854 91.6556 56.805 89.4255 54.9914 87.3556C54.6138 86.8562 54.2698 86.4488 54.0029 85.9281C55.8205 86.6647 56.3017 88.4432 57.1367 89.9608C57.6508 93.6088 55.5913 96.294 53.6593 98.9751C51.2309 102.345 48.3188 105.274 45.0247 107.815C44.7784 108.005 44.5554 108.225 44.1028 108.624C44.8762 108.825 45.4542 108.97 46.0295 109.125C48.6501 109.829 50.6381 111.302 51.8574 113.743C51.97 113.644 51.9538 113.587 51.9538 113.587ZM20.2455 123.733C20.3257 123.789 20.4058 123.845 20.5865 124.054C21.497 124.537 22.3567 125.205 23.3265 125.47C27.8852 126.718 32.5141 126.338 37.124 125.8C38.8499 125.599 40.5509 125.184 42.4341 124.835C42.0149 123.527 41.6801 122.482 41.3453 121.436C41.4903 121.376 41.6353 121.317 41.7802 121.257C42.2082 122.348 42.6362 123.439 43.1201 124.672C44.337 124.227 45.5543 123.76 46.7858 123.334C52.1182 121.491 51.9997 115.903 50.2544 112.451C50.1365 112.496 50.0187 112.541 49.8437 112.765C48.5136 116.248 45.5374 117.654 42.2848 118.588C35.3433 120.58 28.3836 120.461 21.2818 118.413C20.1773 117.716 19.0729 117.019 17.9108 116.285C17.5974 119.056 17.9421 121.615 20.2455 123.733ZM29.8957 115.446C29.4527 116.072 29.1764 115.944 29.1074 115.241C29.0336 114.49 29.0179 113.734 28.9676 112.812C29.5809 112.349 30.3626 111.759 31.1443 111.17C31.0923 111.054 31.0402 110.939 30.9882 110.824C30.3688 111.122 29.74 111.402 29.1336 111.725C28.7984 111.903 28.5128 112.173 28.1826 112.363C27.8334 112.564 27.141 112.733 27.148 112.892C27.18 113.615 27.2898 114.385 27.5991 115.029C27.8305 115.51 28.4088 115.825 29.057 116.42C29.9333 116.285 31.18 115.92 32.4193 115.944C34.2802 115.978 36.1914 115.435 38.0256 116.367C38.3554 116.535 39.0494 116.065 39.537 115.815C39.8841 115.638 40.2546 115.391 40.4584 115.075C40.7699 114.591 41.0487 114.037 41.1384 113.48C41.1844 113.194 40.8664 112.705 40.5796 112.541C40.0468 112.237 39.4164 112.104 38.7738 111.882C38.8062 112.336 38.8332 112.716 38.8668 113.188C38.4951 112.774 38.1971 112.443 37.899 112.112C37.8242 112.167 37.7494 112.222 37.6746 112.278C37.7562 112.865 37.8377 113.452 37.9384 114.176C36.7863 114.176 35.8193 114.176 34.7346 114.176C34.7346 113.563 34.7346 113.014 34.7346 112.282C34.3714 112.553 34.1768 112.698 33.9815 112.841C33.0748 111.824 31.5142 111.414 30.6175 112.079C29.6994 112.759 29.3773 113.705 29.9142 114.963C29.9604 115.096 30.0066 115.229 29.8957 115.446ZM28.1764 105.128C28.2124 106.5 28.5722 106.836 30.107 106.834C32.1877 106.832 33.9546 105.893 35.7029 104.908C41.5275 101.628 46.5266 97.4639 49.8576 91.5517C50.8796 89.7378 51.4516 87.8093 50.8813 85.6811C50.7963 85.364 51.0252 84.9627 51.142 84.4572C49.9365 83.9286 48.549 84.2841 47.2662 84.7758C41.9299 86.8213 37.2628 89.9037 33.4727 94.2048C30.7649 97.2776 28.7604 100.742 28.1764 105.128ZM24.2612 116.73C22.0682 115.613 21.9611 114.184 24.0306 112.824C24.8557 112.282 25.7695 111.844 26.6935 111.491C27.7955 111.07 28.9518 110.791 30.1039 110.445C29.4026 109.309 28.6415 109.152 27.5081 109.549C24.4471 110.621 21.4704 111.785 19.1479 114.179C18.4817 114.866 18.1771 115.554 19.079 116.204C20.0181 116.88 20.9617 117.71 22.0337 118.017C28.172 119.773 34.3881 119.948 40.6019 118.417C44.2167 117.527 47.7133 116.375 49.3654 112.514C49.4443 112.33 49.7539 112.244 50.0391 112.058C48.3469 110.47 46.3403 109.861 44.2514 109.346C43.237 109.096 42.6778 109.445 42.117 110.157C43.1052 110.487 44.0448 110.683 44.8731 111.1C46.5625 111.951 46.7112 113.638 45.2383 114.825C44.7873 115.188 44.2489 115.507 43.6984 115.671C41.7483 116.253 39.8038 116.929 37.8059 117.259C33.3442 117.994 28.8646 118.172 24.2612 116.73Z" fill="#5831C8"/>
<path d="M51.967 113.709C51.9539 113.587 51.97 113.644 51.9757 113.654C50.4268 108.286 53.8871 103.712 59.5644 103.592C66.9165 103.437 73.2119 106.202 78.8504 110.65C80.5477 111.989 82.0642 113.585 83.5206 115.193C84.9021 116.718 85.1337 118.592 84.5016 120.545C83.6505 123.176 82.4427 125.668 79.5646 126.428C77.9557 126.853 76.1063 126.804 74.4443 126.515C67.5471 125.313 61.2482 122.594 55.5683 118.496C53.9287 117.313 52.5735 115.849 51.967 113.709ZM52.7276 113.955C53.3868 114.965 53.8517 116.209 54.7377 116.947C59.5789 120.982 65.1979 123.514 71.3655 125.246C71.6453 124.035 71.8951 122.954 72.1448 121.873C72.2934 121.906 72.4419 121.939 72.5904 121.971C72.4204 123.094 72.2504 124.216 72.0759 125.368C72.7478 125.535 73.4396 125.766 74.15 125.874C79.1009 126.631 81.5297 126.051 83.3928 121.683C83.8177 120.687 83.9353 119.56 84.1944 118.493C84.0648 118.45 83.9351 118.406 83.8055 118.363C81.9758 119.822 79.8701 120.433 77.5855 120.285C73.913 120.047 70.4862 118.852 67.1701 117.342C63.0114 115.448 59.3208 112.854 55.999 109.508C55.1689 110.818 54.4142 112.035 53.6236 113.228C53.5034 113.409 53.2161 113.48 52.9948 113.382C53.8549 111.975 54.715 110.569 55.5962 109.128C55.2458 108.24 54.8117 107.141 54.3244 105.907C52.5552 108.317 51.6669 110.822 52.7276 113.955ZM58.4049 110.972C62.5744 114.502 67.2188 117.181 72.4888 118.684C75.015 119.405 77.5912 120.166 80.2349 119.422C81.5791 119.044 82.8336 118.347 84.3475 117.701C83.5819 116.544 83.0231 115.299 82.1203 114.4C76.7195 109.02 70.4545 105.184 62.7268 104.289C60.1232 103.988 57.4737 104.013 55.0945 105.333C55.0959 107.837 56.6084 109.38 58.4049 110.972Z" fill="#5831C8"/>
<path d="M127.84 58.4909C127.331 61.4144 126.533 64.1372 124.448 66.1882C123.346 67.2721 121.921 68.0275 120.535 69.0066C120.733 73.2547 117.761 76.4714 114.131 75.4318C114.523 75.3413 114.912 75.2212 115.309 75.1651C117.941 74.7936 119.897 72.709 119.963 70.1142C119.978 69.5389 120.127 68.7572 119.1 68.7672C118.286 68.7751 117.614 68.4438 117.582 67.5655C117.57 67.2319 118.132 66.554 118.252 66.5927C118.87 66.7923 119.437 67.1595 120.001 67.5017C120.136 67.5835 120.193 67.7934 120.348 68.0444C125.293 66.3361 126.566 62.1375 127.712 57.6686C127.76 57.9059 127.809 58.1432 127.84 58.4909Z" fill="#5831C8"/>
<path d="M19.2382 25.0653C18.7734 24.2456 18.0013 23.3997 18.1339 22.734C18.2699 22.0509 19.1934 21.2788 19.9405 21.0052C23.4499 19.7201 28.506 21.2686 30.6577 24.3754C30.2843 24.1628 29.8855 23.9848 29.5417 23.732C26.9699 21.8402 24.2256 20.5518 20.9253 21.3396C19.8412 21.5984 18.5569 21.7807 18.6357 23.3454C18.6875 24.375 20.0866 25.1136 21.5896 24.8325C22.3649 24.6874 23.0906 24.2516 23.8227 23.9127C24.1545 23.7591 24.4475 23.5216 25.0356 23.1439C23.8858 25.2435 21.5107 25.9454 19.2382 25.0653Z" fill="#5831C8"/>
<path d="M35.0772 13.733C35.1803 13.4711 35.3573 13.2712 35.3143 13.1477C35.0355 12.3462 34.7089 11.5612 34.3979 10.7708C33.7987 11.1702 33.0105 11.441 32.6352 11.9926C31.4166 13.7835 31.8969 16.2896 33.6496 17.8936C34.2248 18.42 34.8665 18.8738 35.6294 19.4816C33.7823 19.4298 31.7264 17.1871 31.4247 15.1623C31.1288 13.1765 31.9119 11.183 33.2917 10.3619C34.3339 9.74174 34.9993 10.2003 35.522 11.1057C36.2453 12.3584 36.1912 13.5445 35.3753 14.0165C35.3208 14.048 35.1605 13.8966 35.0772 13.733Z" fill="#5831C8"/>
<path d="M51.8574 76.0302C51.8928 74.8072 51.8928 73.692 51.8928 72.5768C51.7285 72.6648 51.5642 72.7528 51.4 72.8409C50.8652 72.4677 50.3303 72.0945 49.7955 71.7213C50.3088 71.4183 50.8221 71.1153 51.3355 70.8123C51.4268 70.9021 51.518 70.9918 51.6093 71.0816C52.5198 69.2205 51.4292 67.5788 51.0458 65.7341C51.2381 65.9001 51.5133 66.028 51.6096 66.238C52.3761 67.9101 52.9798 69.5939 52.1657 71.4621C52.0196 71.7973 52.1994 72.3089 52.3113 72.7164C52.8796 74.7874 52.5917 76.7096 51.2335 78.0032C51.4297 77.3814 51.6258 76.7597 51.8574 76.0302Z" fill="#5831C8"/>
<path d="M93.2564 85.3284C93.7701 86.524 93.3351 87.3213 92.3246 87.7013C91.1621 88.1385 90.0827 87.49 89.8252 86.3667C89.6542 85.621 90.504 84.2509 91.324 84.3001C91.9696 84.3389 92.5837 84.9023 93.2564 85.3284Z" fill="#EDEDEE"/>
<path d="M85.3441 99.8417C84.9326 100.378 84.561 100.823 83.9453 101.559C84.4705 98.575 90.973 92.9183 93.4249 93.1505C90.2852 94.8082 87.4912 96.874 85.3441 99.8417Z" fill="#5831C8"/>
<path d="M53.9839 86.0971C53.6265 85.61 53.2692 85.1229 52.8519 84.5492C53.7093 84.5514 54.6265 84.6403 55.6453 84.7344C56.3086 86.3095 56.8704 87.8795 57.4439 89.5499C57.3759 89.7105 57.2961 89.7706 57.1764 89.8958C56.3016 88.4432 55.8204 86.6647 54.0148 85.9345C53.9498 86.0542 53.9839 86.0971 53.9839 86.0971Z" fill="#DBDBDB"/>
<path d="M57.8213 123.432C57.5597 123.647 57.2569 123.847 56.9428 123.867C55.5428 123.954 54.1399 124 52.7375 124.039C52.3776 124.049 52.0155 123.978 51.6544 123.944C51.656 123.741 51.6576 123.537 51.6593 123.333C53.6978 123.333 55.7364 123.333 57.8213 123.432Z" fill="#5831C8"/>
<path d="M31.0501 19.7946C31.5245 20.1865 31.926 20.5144 32.3274 20.8423C32.2071 20.9909 32.0868 21.1394 31.9666 21.2879C31.0079 20.5234 30.0492 19.7589 29.0905 18.9944C29.188 18.8538 29.2856 18.7131 29.3832 18.5724C29.9145 18.9584 30.4458 19.3445 31.0501 19.7946Z" fill="#5831C8"/>
<path d="M53.2249 126.409C52.005 126.15 50.8721 125.832 49.7391 125.515C49.779 125.38 49.8189 125.245 49.8588 125.11C51.052 125.378 52.3582 125.254 53.2249 126.409Z" fill="#5831C8"/>
<path d="M90.405 6.64726C95.4316 5.49742 99.7123 6.65834 103.194 10.3248C106.421 13.7221 107.988 17.864 108.277 22.5126C108.307 22.9874 108.325 23.4629 108.357 24.1296C111.628 22.2788 114.217 23.4693 116.591 25.4638C121.884 29.9096 124.403 35.7771 125.248 42.5068C125.717 46.2422 125.796 49.9466 124.652 53.5755C124.065 55.4381 123.036 57.0295 121.275 58.0321C119.517 59.0331 117.897 58.1576 117.9 56.1449C117.901 54.9694 118.175 53.7938 118.171 52.6187C118.156 47.5543 116.355 43.3914 111.806 40.7855C109.294 39.3467 106.498 39.8244 103.785 39.9266C101.55 40.0108 99.3165 40.1432 97.2699 38.9903C95.5682 38.0317 94.3909 36.6797 94.0315 34.6851C93.9277 34.1086 93.6265 33.5676 93.2256 32.5072C92.8556 34.1931 92.033 33.8 91.2364 33.6295C88.4065 33.0236 86.8993 31.089 85.8626 28.5478C85.0156 26.4714 85.4978 24.5913 86.5155 22.6106C85.5019 23.1003 85.1446 23.7947 84.7939 25.6563C84.6443 26.4499 85.0534 27.3554 84.0676 27.9692C82.7855 28.7675 81.4289 29.3814 79.9661 29.0227C78.6115 28.6906 77.35 27.9789 75.8158 27.3376C74.1936 29.2328 71.92 30.6056 68.8035 30.3548C65.6382 30.1 63.466 28.8129 62.9424 25.3357C62.7812 25.4422 62.62 25.5487 62.4588 25.6553C62.7005 26.4335 62.8089 27.2923 63.2187 27.9687C63.6947 28.7544 63.5986 29.3423 63.2025 30.0869C61.818 32.6897 58.2497 34.3225 55.4219 32.6167C55.0545 32.3951 54.6042 32.311 54.4622 32.26C53.8299 34.0062 53.3364 35.665 52.6154 37.2182C52.3178 37.8592 51.5952 38.3775 50.9541 38.7681C49.7992 39.4717 48.8328 39.1346 48.1095 38.0099C47.7065 37.3832 47.2076 36.8183 46.6225 36.0572C46.5218 36.4774 46.4276 36.6357 46.4724 36.7207C46.8187 37.3775 47.5373 38.0509 47.483 38.6607C47.3783 39.8382 47.0491 41.1035 46.4388 42.1042C45.3913 43.8217 42.8282 44.4887 40.8254 43.848C36.2617 42.3882 33.2556 37.3918 33.9482 32.4178C34.5737 27.9262 38.817 24.2542 43.5162 24.0342C46.1208 23.9122 48.5714 24.2995 50.9142 25.9179C50.9999 24.497 51.0277 23.3005 51.151 22.1139C51.8115 15.7571 56.9383 9.90997 63.1356 8.41232C68.6429 7.08141 75.122 9.9467 78.0817 15.0227C78.2395 15.2933 78.3918 15.567 78.6768 16.0683C81.4827 11.4707 85.1464 8.12335 90.405 6.64726ZM117.017 34.6459C116.785 34.5438 116.553 34.4417 116.536 34.4342C118.274 37.2087 120.056 40.0532 121.764 42.7799C121.792 40.9832 119.871 37.5781 117.017 34.6459ZM94.0208 11.4208C93.3557 11.438 92.6905 11.4552 92.0253 11.4723C91.9959 11.6575 91.9665 11.8427 91.9371 12.0279C96.0246 11.6622 98.9007 13.4742 100.93 17.2503C100.951 14.6507 97.1774 11.6653 94.0208 11.4208ZM37.4363 35.3005C37.6384 35.8519 37.8406 36.4033 38.0427 36.9547C38.1987 36.9179 38.3547 36.8812 38.5107 36.8444C37.6522 34.9997 37.9434 33.2952 39.035 31.6649C37.6323 32.4334 37.3224 33.654 37.4363 35.3005Z" fill="#FDFDFD"/>
<path d="M103.27 49.8041C103.079 51.0849 102.765 52.3622 102.729 53.6473C102.684 55.2398 103.385 56.5787 104.884 57.268C106.414 57.9717 107.883 57.6243 109.221 56.6585C109.478 56.4736 109.717 56.2661 110.135 56.0474C110.418 56.0336 110.531 56.0413 110.644 56.0491C110.751 56.9881 110.739 57.961 110.992 58.8589C111.493 60.6323 112.739 61.5513 114.887 61.5487C106.009 68.6023 97.2596 75.4878 89.4692 83.8907C89.3163 81.0163 88.7901 78.5401 87.385 76.2976C85.9797 74.0548 84.1936 72.2313 81.8515 71.0077C81.1459 70.6391 81.1117 70.2184 81.3128 69.5909C83.0796 64.0769 84.8301 58.5576 86.6256 53.0529C86.7597 52.642 87.1724 52.2983 87.5102 51.9817C88.7481 50.8214 90.009 49.6857 91.4204 48.5146C92.0156 48.4955 92.4518 48.5026 92.8879 48.5097C95.1168 52.6915 99.8021 52.5201 102.896 49.8327C103.137 49.8004 103.204 49.8022 103.27 49.8041ZM89.3162 51.7102C88.6976 52.1826 88.0791 52.655 87.4605 53.1274C87.4994 53.2214 87.5383 53.3153 87.5771 53.4093C90.8106 53.4093 94.044 53.4093 97.2774 53.4093C97.114 52.9153 96.881 52.6371 96.5851 52.5248C95.0737 51.9514 93.716 51.2163 92.7661 49.8151C92.6244 49.606 91.7379 49.651 91.3977 49.8793C90.691 50.3535 90.1196 51.0296 89.3162 51.7102Z" fill="#FDFDFD"/>
<path d="M79.2972 93.5896C79.5701 93.0738 79.8429 92.558 80.293 91.7072C79.6576 92.0884 79.2667 92.3036 78.8956 92.5486C74.4781 95.4651 69.7686 96.4826 64.6797 94.6007C57.5373 91.9595 54.3967 84.5979 57.378 77.6138C60.3859 70.5674 68.6376 66.6053 75.9758 68.6839C84.6515 71.1414 88.0472 81.0054 82.8373 88.6207C82.6063 88.9584 82.355 89.2823 81.9944 89.7396C81.3008 90.4875 80.7259 91.1083 80.151 91.7292C80.2753 91.8437 80.3996 91.9582 80.5238 92.0727C81.1404 91.3838 81.757 90.6949 82.3736 90.006C83.1693 88.9219 83.9651 87.8377 84.9267 86.5276C85.7205 87.2361 86.5985 88.0197 87.5183 88.8407C86.0083 91.7528 83.8583 93.7718 80.8155 95.2966C80.368 94.7574 79.9059 94.2006 79.3467 93.6117C79.2496 93.5797 79.2972 93.5896 79.2972 93.5896ZM59.6309 78.1471C58.7908 80.6788 58.5214 83.2227 59.5763 85.7595C61.7146 90.9014 67.1182 93.3582 72.9202 91.5651C78.726 89.7708 82.4059 84.3409 80.5614 77.9802C79.32 73.6992 75.7463 71.2353 71.1996 71.0385C65.9453 70.811 62.0527 73.1687 59.6309 78.1471Z" fill="#F8F8F8"/>
<path d="M68.0696 53.034C69.188 53.549 70.3065 54.0639 71.6013 54.6189C71.9544 54.6771 72.1311 54.6953 72.3077 54.7136C72.7315 58.9481 73.1553 63.1825 73.5564 67.1909C70.9912 67.6735 68.7197 67.8508 66.6316 68.5647C64.5713 69.269 62.6967 70.5161 60.8624 71.4623C59.0433 67.4829 57.1178 63.2709 55.1777 59.0268C58.3799 60.6132 61.5986 60.3496 64.6139 58.2156C66.3266 57.0035 67.2913 55.3032 67.6801 53.1476C67.8473 53.0492 67.9585 53.0416 68.0696 53.034ZM67.738 59.7379C66.7763 59.049 65.8022 59.0152 64.9802 59.893C64.3397 60.5771 64.3069 61.5792 65.0592 62.0401C65.7109 62.4394 66.8458 62.6347 67.4849 62.3294C68.391 61.8967 68.5948 60.8654 67.738 59.7379Z" fill="#FBFBFB"/>
<path d="M80.274 49.7542C81.6828 51.7018 83.5625 52.6874 86.0857 52.4823C84.2098 58.4086 82.3625 64.2448 80.5602 69.9387C78.4068 69.1221 76.2327 68.2977 74.1326 67.5014C73.7685 63.4717 73.3934 59.3194 73.0112 54.986C73.1051 54.7012 73.2061 54.5974 73.3071 54.4936C76.0832 54.0602 77.7703 52.3056 79.0771 49.8151C79.591 49.7513 79.9325 49.7528 80.274 49.7542Z" fill="#FCFCFC"/>
<path d="M88.8181 84.1278C88.5217 85.6004 88.2315 86.9485 87.9318 88.341C86.864 87.4053 85.9931 86.6422 85.2732 86.0114C85.5127 83.3051 85.748 80.6463 85.9884 77.9288C86.9671 78.2838 88.2051 78.6831 88.4232 80.2403C88.598 81.4889 88.6936 82.7486 88.8181 84.1278Z" fill="#F3F3F3"/>
<path d="M79.2246 93.7096C79.2972 93.5896 79.2496 93.5797 79.2538 93.5668C79.2718 93.7834 79.1975 94.0879 79.3165 94.2277C79.6335 94.6 80.0338 94.9015 80.5721 95.3848C76.6068 97.1323 72.7881 97.4521 68.5336 96.2202C70.1231 96.0386 71.4472 96.0306 72.6907 95.7099C74.3428 95.2837 75.9244 94.5898 77.5529 94.0624C78.0581 93.8988 78.6175 93.9025 79.2246 93.7096Z" fill="#EDEDEE"/>
<path d="M76.0841 45.6354C77.536 45.6567 78.7248 46.6758 78.7389 47.8123C78.7504 48.7401 77.6614 49.9333 76.7252 50.0186C75.3306 50.1458 74.3568 49.4968 74.1059 48.273C73.8548 47.0483 74.6248 45.9585 76.0841 45.6354Z" fill="#5831C8"/>
<path d="M85.5957 46.4444C85.9523 46.7076 86.3074 46.9727 86.6657 47.2333C87.0787 47.5336 87.4944 47.8299 88.0087 47.8762C87.6729 47.3372 87.3371 46.7982 87.0013 46.2592C87.4579 46.1166 87.9146 45.974 88.3713 45.8313C88.4125 45.9554 88.4537 46.0794 88.4949 46.2035C88.2309 46.3449 87.9669 46.4863 87.6189 46.6728C88.256 47.1465 88.7527 47.3236 89.4129 46.7049C89.6382 46.4937 90.5118 46.5297 90.5836 46.6857C90.7718 47.0941 90.782 47.6614 90.6495 48.1009C90.6002 48.2644 89.9584 48.2913 89.5839 48.3066C88.5416 48.3491 87.4978 48.3561 86.4546 48.3679C86.3259 48.3693 86.1965 48.3143 85.9939 48.269C85.917 47.9054 85.8374 47.5296 85.6985 46.8737C85.3703 47.4516 85.1705 47.8035 84.9706 48.1554C84.8727 48.1301 84.7748 48.1049 84.6768 48.0796C84.8185 47.5532 84.9602 47.0267 85.2768 46.4773C85.4997 46.4511 85.5477 46.4478 85.5957 46.4444Z" fill="#5831C8"/>
<path d="M92.8703 48.4305C92.4518 48.5026 92.0156 48.4955 91.4789 48.4421C91.6052 47.4673 91.9569 46.5489 92.032 45.6084C92.1764 43.8005 92.1675 41.9802 92.2149 40.1648C92.2284 39.6473 92.2169 39.1291 92.2169 38.5048C93.2708 39.5272 93.3206 44.0527 92.3509 47.4185C92.1751 47.5278 92.0736 47.5537 91.9722 47.5797C92.1555 47.6541 92.3387 47.7286 92.522 47.803C92.6322 47.9858 92.7424 48.1685 92.8703 48.4305Z" fill="#DBDBDB"/>
<path d="M80.2419 49.6564C79.9325 49.7528 79.591 49.7513 79.1469 49.7516C79.0809 49.5971 79.1174 49.441 79.2685 49.2211C79.4055 49.1336 79.4514 49.0983 79.4464 49.088C79.4193 49.0326 79.3796 48.9836 79.3442 48.9323C79.2428 47.8168 79.2579 46.6751 79.0138 45.5918C78.6 43.7548 78.0269 41.9534 77.5101 40.1402C77.4197 39.8228 77.277 39.5204 77.1584 39.2111C77.2645 39.1405 77.3706 39.07 77.4766 38.9994C77.7068 39.2893 77.9998 39.5489 78.1573 39.874C79.3605 42.3595 79.8882 44.9886 79.8458 47.7514C79.8366 48.3518 80.0818 48.9561 80.2419 49.6564Z" fill="#EDEDEE"/>
<path d="M103.351 49.7761C103.203 49.8022 103.137 49.8004 102.973 49.7782C104.69 47.0582 106.501 44.3565 108.328 41.6655C108.404 41.5532 108.628 41.5412 108.925 41.6035C107.468 44.5802 105.695 47.3248 103.351 49.7761Z" fill="#E1E1E1"/>
<path d="M60.144 49.4814C60.1469 50.6642 60.1888 51.8485 60.1394 53.029C60.1048 53.8555 60.3945 54.1568 61.2343 54.1342C63.0442 54.0855 64.8563 54.1192 66.6719 54.3925C64.9062 54.3925 63.1387 54.4387 61.3754 54.374C60.4174 54.3388 60.0828 54.6598 60.1373 55.616C60.2065 56.8316 60.154 58.0542 59.8807 59.2777C59.8807 58.0508 59.8247 56.8205 59.8984 55.598C59.9576 54.616 59.5735 54.3327 58.6411 54.3745C57.2435 54.437 55.8411 54.3907 54.4404 54.1217C55.8227 54.1217 57.2058 54.0904 58.5868 54.1327C59.5053 54.1609 59.9365 53.8357 59.8938 52.8716C59.8476 51.8275 59.8866 50.7796 59.9529 49.6052C60.0173 49.4771 60.144 49.4814 60.144 49.4814Z" fill="#5831C8"/>
<path d="M68.0626 52.924C67.9585 53.0416 67.8474 53.0492 67.6545 53.0392C67.2231 51.981 66.9459 50.9084 66.5057 49.9075C65.9292 48.5967 65.224 47.3426 64.5743 46.064C65.8485 46.1585 66.8093 48.0214 68.0626 52.924Z" fill="#DBDBDB"/>
<path d="M72.4888 44.3066C72.4016 41.5416 72.4016 41.5416 69.6426 41.5415C66.7829 41.5415 63.9231 41.5415 61.0634 41.5415C61.0617 41.4568 61.0599 41.3721 61.0582 41.2874C64.798 41.2874 68.5379 41.2874 72.3555 41.2874C72.4207 40.5496 72.4712 39.9794 72.5216 39.4092C72.561 39.4055 72.6004 39.4017 72.6398 39.3979C72.7074 39.9713 72.7749 40.5446 72.8578 41.2479C74.3944 41.2479 75.875 41.2479 77.3555 41.2479C77.3553 41.3459 77.355 41.4439 77.3548 41.5419C76.3391 41.5419 75.3157 41.6201 74.3096 41.522C73.0632 41.4005 72.5239 41.8216 72.7263 43.0974C72.7755 43.4075 72.7278 43.733 72.6618 44.1742C72.599 44.297 72.4888 44.3066 72.4888 44.3066Z" fill="#5831C8"/>
<path d="M110.689 55.9636C110.531 56.0413 110.418 56.0336 110.221 56.0154C111.483 53.8321 112.828 51.6593 114.174 49.4864C114.334 49.5888 114.494 49.6912 114.655 49.7936C113.656 52.0039 112.314 54.0111 110.689 55.9636Z" fill="#DBDBDB"/>
<path d="M85.2425 76.63C84.7288 75.5423 84.26 74.5491 83.6523 73.2619C85.7148 74.3417 86.5694 76.0967 87.389 78C86.6885 77.5748 85.9879 77.1496 85.2425 76.63Z" fill="#EDEDEE"/>
<path d="M81.0518 48.3527C80.8145 47.8971 80.4818 47.3926 80.6063 47.0587C80.7261 46.7377 81.3193 46.5934 81.7045 46.3715C81.8304 46.5249 81.9562 46.6783 82.0821 46.8317C81.7247 46.9478 81.3674 47.064 81.01 47.1802C81.0802 47.3377 81.1504 47.4952 81.2206 47.6527C81.5122 47.6828 81.898 47.8414 82.0732 47.7129C82.3366 47.5197 82.3813 47.0046 82.6489 46.847C82.9904 46.6457 83.5142 46.5139 83.8598 46.6355C84.1337 46.7318 84.4844 47.3451 84.3958 47.5672C84.2577 47.913 83.8035 48.2936 83.4344 48.3524C82.6925 48.4707 81.9176 48.3817 81.0518 48.3527Z" fill="#5831C8"/>
<path d="M95.4894 46.3041C96.2127 46.1955 96.5408 46.3591 96.3543 47.0954C96.2608 47.4646 96.338 47.877 96.0104 48.4543C95.7538 48.0083 95.4972 47.5622 95.2308 47.0993C95.1785 47.4306 95.1171 47.8194 95.0588 48.1886C93.21 48.7511 93.0064 48.5516 93.4648 46.3174C93.687 46.9358 93.8205 47.3073 93.9146 47.569C94.3912 47.1764 94.8923 46.7636 95.4894 46.3041Z" fill="#5831C8"/>
<path d="M87.3178 49.0933C87.7609 49.1836 88.1057 49.2345 88.8454 49.3436C88.1632 49.529 87.8228 49.7455 87.5648 49.6722C85.4042 49.0578 85.4383 50.455 85.3736 51.8967C85.3359 51.2656 85.2982 50.6344 85.2534 49.8833C84.6873 49.8045 84.1301 49.7269 83.2429 49.6034C84.6571 48.4851 86.0095 49.2513 87.3178 49.0933Z" fill="#5831C8"/>
<path d="M72.4855 44.4318C72.4888 44.3066 72.599 44.297 72.6539 44.301C72.7153 47.1489 72.6999 49.9932 72.7491 52.8365C72.7576 53.3256 73.0405 53.81 73.2518 54.3951C73.2061 54.5974 73.105 54.7012 72.9791 54.874C72.7959 54.875 72.6378 54.8069 72.3937 54.7262C72.1311 54.6953 71.9545 54.6771 71.7021 54.6119C72.4751 54.069 72.4932 53.2772 72.4823 52.4104C72.4493 49.793 72.4777 47.1748 72.4855 44.4318Z" fill="#5831C8"/>
<path d="M85.5918 46.3184C85.5477 46.4478 85.4997 46.4511 85.3795 46.4545C85.3096 45.2298 85.265 44.0027 85.3295 42.7813C85.3786 41.8538 85.0929 41.4755 84.1122 41.5222C82.6259 41.5931 81.1337 41.5407 79.6429 41.363C82.0681 41.363 84.4933 41.363 87.3308 41.363C86.5311 41.513 86.1252 41.5891 85.5879 41.6899C85.5879 43.2195 85.5879 44.706 85.5918 46.3184Z" fill="#5831C8"/>
<path d="M60.1483 49.3525C60.144 49.4814 60.0172 49.4771 59.9539 49.4779C59.8906 47.4896 59.8906 45.5005 59.8906 43.5115C59.9779 43.5104 60.0653 43.5093 60.1526 43.5081C60.1526 45.4132 60.1526 47.3184 60.1483 49.3525Z" fill="#5831C8"/>
<path d="M92.5189 47.7318C92.3387 47.7286 92.1555 47.6541 91.9722 47.5797C92.0737 47.5537 92.1752 47.5278 92.3471 47.5296C92.4503 47.5917 92.483 47.6262 92.5189 47.7318Z" fill="#F3F3F3"/>
<path d="M83.0406 49.1696C83.05 49.3285 83.0142 49.4409 82.9785 49.5533C82.9481 49.5224 82.8874 49.485 82.8924 49.4617C82.9172 49.3468 82.9594 49.2356 83.0406 49.1696Z" fill="#5831C8"/>
<path d="M79.3226 48.9971C79.3795 48.9836 79.4193 49.0326 79.4463 49.088C79.4514 49.0983 79.4055 49.1336 79.338 49.1777C79.2929 49.1982 79.3011 49.0619 79.3226 48.9971Z" fill="#FCFCFC"/>
<path d="M50.2867 112.637C51.9997 115.904 52.1181 121.491 46.7858 123.334C45.5542 123.76 44.3369 124.227 43.1201 124.672C42.6362 123.439 42.2082 122.348 41.7802 121.257C41.6352 121.317 41.4903 121.376 41.3453 121.436C41.6801 122.482 42.0149 123.527 42.434 124.835C40.5509 125.184 38.8499 125.599 37.124 125.8C32.5141 126.338 27.8852 126.718 23.3264 125.47C22.3566 125.205 21.4969 124.537 20.5453 123.9C20.5055 123.693 20.5069 123.641 20.615 123.569C20.887 121.951 21.0524 120.353 21.2772 118.697C21.3722 118.596 21.4079 118.553 21.4436 118.51C28.3836 120.461 35.3433 120.58 42.2848 118.588C45.5374 117.654 48.5136 116.248 49.9683 112.692C50.1575 112.625 50.2221 112.631 50.2867 112.637ZM48.4777 118.198C48.374 117.996 48.2703 117.795 48.1667 117.593C48.0582 117.626 47.9497 117.659 47.8412 117.692C48.03 118.888 48.2187 120.084 48.4075 121.28C48.6094 121.251 48.8114 121.221 49.0133 121.191C48.8529 120.266 48.6926 119.34 48.4777 118.198ZM36.6743 124.949C36.8436 124.905 37.013 124.861 37.1823 124.817C36.9184 123.835 36.6544 122.853 36.3905 121.871C36.2206 121.916 36.0507 121.962 35.8808 122.007C36.1134 122.928 36.3461 123.848 36.6743 124.949ZM28.6317 125.494C28.5543 124.263 28.477 123.031 28.3996 121.8C28.2652 121.811 28.1308 121.823 27.9963 121.834C27.743 123.065 27.8402 124.278 28.6317 125.494Z" fill="#F9F9F9"/>
<path d="M32.5138 107.104C37.8752 104.796 42.6495 101.623 46.4962 97.2125C48.0322 95.4514 49.3686 93.4821 50.5669 91.4711C51.6046 89.7298 51.9643 87.7473 51.4891 85.6889C51.2653 84.7195 51.6125 84.4776 52.4779 85.1717C52.5983 85.9108 52.5292 86.6287 52.8463 87.0674C53.3618 87.7806 54.1849 87.9658 55.025 87.4476C56.805 89.4255 57.0854 91.6556 55.9521 94.005C55.2108 95.5419 54.2738 96.9843 53.4346 98.4514C52.2408 97.7363 51.247 97.141 50.2533 96.5457C50.172 96.6745 50.0907 96.8033 50.0094 96.932C50.9353 97.5946 51.8612 98.2571 53.0575 99.1131C50.8706 101.36 48.9769 103.645 46.7373 105.516C44.2116 107.626 41.4369 109.463 38.6375 111.205C37.7146 111.78 36.3781 111.69 35.1155 111.792C35.0002 111.68 35.0003 111.549 35.0579 111.478C34.2573 110.054 33.3991 108.7 32.5386 107.286C32.5362 107.224 32.5138 107.104 32.5138 107.104ZM41.798 107.083C41.2206 106.462 40.6431 105.841 40.0657 105.22C39.9325 105.351 39.7993 105.482 39.6661 105.613C40.5406 106.526 41.4151 107.44 42.2896 108.354C42.4383 108.204 42.5869 108.054 42.7356 107.905C42.472 107.674 42.2085 107.443 41.798 107.083ZM53.7234 90.1496C53.4643 90.0509 53.2051 89.9521 52.946 89.8533C52.895 89.9622 52.844 90.0711 52.793 90.1799C53.7154 90.9705 54.6379 91.7611 55.5604 92.5517C55.6717 92.4233 55.783 92.295 55.8943 92.1666C55.2239 91.536 54.5536 90.9055 53.7234 90.1496ZM46.2814 100.981C47.0923 101.572 47.9033 102.162 48.7143 102.752C48.8135 102.608 48.9127 102.463 49.0119 102.318C48.2367 101.732 47.4685 101.137 46.6739 100.578C46.6054 100.53 46.3628 100.73 46.2814 100.981Z" fill="#F9F9F9"/>
<path d="M28.1791 105.009C28.7603 100.742 30.7648 97.2776 33.4726 94.2048C37.2627 89.9037 41.9298 86.8213 47.2661 84.7758C48.549 84.2841 49.9364 83.9286 51.142 84.4572C51.0252 84.9627 50.7962 85.364 50.8812 85.6811C51.4515 87.8093 50.8795 89.7378 49.8576 91.5517C46.5266 97.4639 41.5274 101.628 35.7028 104.908C33.9546 105.893 32.1876 106.832 30.1069 106.834C28.5721 106.836 28.2124 106.5 28.1791 105.009ZM32.8844 97.5546C32.465 98.307 31.9807 99.0314 31.6415 99.8183C31.1293 101.007 30.2772 102.357 31.4032 103.491C32.5711 104.667 34.0743 103.97 35.1853 103.274C37.6732 101.716 40.1603 100.101 42.3966 98.2118C45.0015 96.0111 47.3249 93.4504 48.6519 90.2394C48.9984 89.401 48.9331 88.095 48.5027 87.3061C47.9264 86.2496 46.6738 86.6015 45.6565 86.9289C45.2265 87.0673 44.7995 87.2433 44.4069 87.4655C39.9304 89.998 35.9564 93.1111 32.8844 97.5546Z" fill="#F3F3F3"/>
<path d="M24.3576 116.777C28.8646 118.172 33.3442 117.994 37.8059 117.259C39.8038 116.929 41.7483 116.253 43.6983 115.671C44.2489 115.507 44.7873 115.188 45.2383 114.825C46.7112 113.638 46.5625 111.951 44.8731 111.1C44.0448 110.683 43.1052 110.487 42.117 110.157C42.6778 109.445 43.237 109.096 44.2514 109.346C46.3403 109.861 48.3469 110.47 50.0391 112.058C49.7539 112.244 49.4443 112.33 49.3654 112.514C47.7133 116.375 44.2166 117.527 40.6019 118.417C34.3881 119.948 28.1719 119.773 22.0337 118.017C20.9616 117.71 20.0181 116.88 19.079 116.204C18.177 115.554 18.4817 114.866 19.1479 114.179C21.4703 111.785 24.4471 110.621 27.5081 109.549C28.6414 109.152 29.4026 109.309 30.1039 110.445C28.9518 110.791 27.7955 111.07 26.6935 111.491C25.7695 111.844 24.8557 112.282 24.0305 112.824C21.9611 114.184 22.0682 115.613 24.3576 116.777Z" fill="#F3F3F3"/>
<path d="M29.8743 114.821C29.3772 113.705 29.6993 112.759 30.6175 112.079C31.5141 111.414 33.0748 111.824 33.9818 112.842C34.1767 112.698 34.3713 112.553 34.7345 112.282C34.7345 113.014 34.7345 113.563 34.7345 114.176C35.8193 114.176 36.7862 114.176 37.9383 114.176C37.8377 113.452 37.7561 112.865 37.6745 112.278C37.7493 112.222 37.8241 112.167 37.8989 112.112C38.197 112.443 38.4951 112.774 38.8668 113.188C38.8332 112.716 38.8061 112.336 38.7738 111.882C39.4163 112.104 40.0468 112.237 40.5796 112.541C40.8664 112.705 41.1844 113.194 41.1383 113.48C41.0486 114.037 40.7699 114.591 40.4584 115.075C40.2545 115.391 39.8841 115.638 39.537 115.815C39.0494 116.065 38.3553 116.535 38.0256 116.367C36.1913 115.435 34.2802 115.978 32.4193 115.944C31.1799 115.92 29.9333 116.285 29.057 116.42C28.4087 115.825 27.8304 115.51 27.5991 115.029C27.2898 114.385 27.1799 113.615 27.148 112.892C27.141 112.733 27.8333 112.564 28.1826 112.363C28.5127 112.173 28.7984 111.903 29.1336 111.725C29.74 111.402 30.3688 111.122 30.9882 110.824C31.0402 110.939 31.0922 111.054 31.1442 111.17C30.3625 111.759 29.5809 112.349 28.9676 112.812C29.0178 113.734 29.0336 114.491 29.1074 115.242C29.1764 115.944 29.4527 116.072 30.104 115.406C33.1243 115.384 35.9363 115.402 39.0237 115.423C39.0481 115.078 39.0983 114.368 39.1485 113.659C39.0269 113.598 38.9053 113.537 38.7837 113.476C38.6222 114.925 37.9655 115.327 36.6472 114.91C35.8193 114.647 34.8791 114.685 33.9893 114.686C32.6176 114.687 31.246 114.772 29.8743 114.821ZM30.841 114.313C31.6401 114.313 32.4392 114.313 33.6184 114.313C33.2325 113.574 33.0864 112.845 32.739 112.731C32.1736 112.546 31.4036 112.614 30.8665 112.875C30.6051 113.003 30.6751 113.81 30.841 114.313Z" fill="#E6E6E6"/>
<path d="M20.2277 123.581C17.9421 121.615 17.5974 119.056 17.9108 116.285C19.0729 117.019 20.1774 117.716 21.3628 118.462C21.408 118.553 21.3723 118.596 21.1822 118.66C20.8446 119.139 20.558 119.583 20.4982 120.055C20.3498 121.227 20.305 122.412 20.2211 123.589C20.2236 123.586 20.2277 123.581 20.2277 123.581Z" fill="#F3F3F3"/>
<path d="M32.3976 107.102C32.5138 107.104 32.5362 107.225 32.4491 107.334C33.2414 108.812 34.1209 110.181 35.0003 111.549C35.0003 111.549 35.0002 111.68 35.0002 111.745C32.2452 111.219 29.9457 109.993 28.6361 107.385C29.9049 107.285 31.0931 107.192 32.3976 107.102Z" fill="#F3F3F3"/>
<path d="M29.8943 114.892C31.246 114.772 32.6177 114.687 33.9894 114.686C34.8791 114.685 35.8193 114.647 36.6473 114.909C37.9656 115.327 38.6222 114.925 38.7837 113.476C38.9054 113.537 39.027 113.598 39.1486 113.659C39.0984 114.368 39.0481 115.078 39.0237 115.423C35.9364 115.402 33.1244 115.384 30.1826 115.364C30.0066 115.229 29.9604 115.096 29.8943 114.892Z" fill="#E1E1E1"/>
<path d="M54.9914 87.3556C54.1849 87.9658 53.3619 87.7806 52.8463 87.0674C52.5292 86.6287 52.5984 85.9108 52.5943 85.2683C53.0638 85.4812 53.4332 85.7441 53.8932 86.0521C53.984 86.0971 53.9498 86.0542 53.9379 86.0478C54.2698 86.4488 54.6138 86.8562 54.9914 87.3556Z" fill="#E6E6E6"/>
<path d="M50.2705 112.544C50.2221 112.631 50.1575 112.625 49.9968 112.603C50.0186 112.541 50.1365 112.496 50.2705 112.544Z" fill="#F3F3F3"/>
<path d="M20.5084 123.589C20.5069 123.641 20.5055 123.693 20.495 123.823C20.4058 123.845 20.3256 123.789 20.2365 123.657C20.2277 123.581 20.2235 123.586 20.293 123.527C20.4111 123.508 20.4597 123.549 20.5084 123.589Z" fill="#F3F3F3"/>
<path d="M53.0061 113.602C53.2161 113.48 53.5033 113.409 53.6236 113.228C54.4142 112.035 55.1688 110.818 55.9989 109.508C59.3208 112.854 63.0114 115.448 67.1701 117.342C70.4862 118.852 73.913 120.047 77.5855 120.285C79.8701 120.433 81.9758 119.822 83.8055 118.363C83.9351 118.406 84.0647 118.45 84.1944 118.493C83.9353 119.56 83.8177 120.687 83.3928 121.683C81.5297 126.051 79.1008 126.631 74.1499 125.874C73.4395 125.766 72.7478 125.535 72.0759 125.368C72.2504 124.216 72.4204 123.094 72.5904 121.971C72.4419 121.939 72.2934 121.906 72.1448 121.873C71.8951 122.954 71.6453 124.035 71.3655 125.246C65.1978 123.514 59.5788 120.982 54.7377 116.947C53.8517 116.209 53.3868 114.965 52.7675 113.846C52.8886 113.714 52.9548 113.669 53.0061 113.602ZM59.5363 116.845C59.2737 117.601 59.011 118.358 58.7483 119.114C58.889 119.164 59.0296 119.214 59.1703 119.265C59.6704 118.111 60.1705 116.958 60.6706 115.805C60.5637 115.746 60.4567 115.688 60.3497 115.63C60.107 115.973 59.8644 116.317 59.5363 116.845ZM79.3546 124.026C79.5656 123.333 79.7767 122.639 79.9877 121.946C79.8225 121.895 79.6573 121.844 79.4921 121.793C79.1144 122.893 78.7367 123.992 78.359 125.091C78.4927 125.147 78.6264 125.203 78.7601 125.259C78.9429 124.92 79.1258 124.581 79.3546 124.026ZM66.9365 122.545C67.149 121.634 67.3614 120.723 67.5738 119.811C67.3959 119.778 67.218 119.745 67.0401 119.712C66.8081 120.642 66.569 121.571 66.3662 122.507C66.3567 122.551 66.6705 122.665 66.9365 122.545Z" fill="#F9F9F9"/>
<path d="M58.3349 110.905C56.6084 109.38 55.0958 107.837 55.0945 105.333C57.4737 104.013 60.1232 103.988 62.7268 104.289C70.4545 105.184 76.7195 109.02 82.1203 114.4C83.0231 115.299 83.5819 116.544 84.3474 117.701C82.8336 118.347 81.5791 119.044 80.2349 119.422C77.5911 120.166 75.0149 119.405 72.4887 118.684C67.2187 117.181 62.5743 114.502 58.3349 110.905ZM73.7979 109.723C71.3073 108.677 68.8769 107.433 66.3053 106.655C64.5277 106.117 62.5496 106.037 60.6713 106.094C58.7805 106.151 58.2031 107.591 59.2966 109.126C59.7656 109.785 60.3262 110.408 60.9487 110.922C64.4182 113.787 68.3523 115.81 72.6633 117.049C74.3484 117.533 76.1108 117.92 77.8494 117.972C78.7267 117.999 79.8862 117.388 80.456 116.689C81.169 115.814 80.5294 114.689 79.7602 114.044C78.3138 112.833 76.7276 111.788 75.1823 110.527C74.7489 110.317 74.3155 110.107 73.7979 109.723Z" fill="#F3F3F3"/>
<path d="M53.0004 113.492C52.9547 113.669 52.8885 113.714 52.7468 113.747C51.6668 110.822 52.5551 108.317 54.3243 105.907C54.8116 107.141 55.2457 108.24 55.5961 109.128C54.7149 110.569 53.8548 111.975 53.0004 113.492Z" fill="#EDEDEE"/>
<path d="M117.085 34.7087C119.871 37.5781 121.792 40.9832 121.764 42.7799C120.056 40.0532 118.274 37.2087 116.536 34.4342C116.553 34.4417 116.785 34.5438 117.085 34.7087Z" fill="#5831C8"/>
<path d="M94.133 11.4261C97.1775 11.6653 100.951 14.6507 100.93 17.2503C98.9008 13.4742 96.0247 11.6622 91.9371 12.0279C91.9665 11.8427 91.9959 11.6575 92.0254 11.4723C92.6905 11.4552 93.3557 11.438 94.133 11.4261Z" fill="#5831C8"/>
<path d="M37.4304 35.1814C37.3225 33.654 37.6324 32.4334 39.0351 31.6649C37.9435 33.2952 37.6523 34.9997 38.5108 36.8444C38.3548 36.8812 38.1988 36.9179 38.0428 36.9547C37.8406 36.4033 37.6385 35.8519 37.4304 35.1814Z" fill="#5831C8"/>
<path d="M89.4044 51.6664C90.1196 51.0296 90.691 50.3535 91.3977 49.8793C91.7379 49.651 92.6244 49.606 92.7661 49.8151C93.716 51.2163 95.0737 51.9514 96.5851 52.5248C96.881 52.6371 97.114 52.9153 97.2774 53.4093C94.044 53.4093 90.8106 53.4093 87.5771 53.4093C87.5383 53.3153 87.4994 53.2214 87.4605 53.1274C88.0791 52.655 88.6976 52.1826 89.4044 51.6664Z" fill="#F3F3F3"/>
<path d="M59.6739 78.0492C62.0526 73.1687 65.9452 70.811 71.1996 71.0385C75.7462 71.2353 79.32 73.6992 80.5614 77.9802C82.4058 84.3409 78.726 89.7708 72.9202 91.5651C67.1182 93.3582 61.7146 90.9014 59.5763 85.7595C58.5213 83.2227 58.7907 80.6788 59.6739 78.0492ZM68.9293 79.3928C69.2838 79.573 69.6383 79.7531 70.1656 80.0211C69.4839 80.6669 68.8836 81.2355 68.2114 81.8723C67.8596 81.4732 67.6581 81.1488 67.3727 80.9379C66.3379 80.173 64.8069 80.2831 63.6956 81.1607C62.6973 81.949 62.2943 83.2724 62.7613 84.3278C63.2942 85.5325 64.3178 85.9217 65.5378 85.8561C66.8636 85.7848 68.0585 84.6669 68.3813 83.4652C68.5241 82.9333 68.8861 82.1543 69.2698 82.0752C69.6914 81.9882 70.2525 82.5778 70.7928 82.8961C70.4827 83.3581 70.1848 83.6052 70.157 83.8796C70.0667 84.772 69.8249 85.7649 70.1085 86.5503C70.4704 87.5524 71.531 87.8605 72.6172 87.7481C74.2537 87.5787 75.5969 86.1775 75.5453 84.6976C75.4998 83.3921 74.1932 82.0268 72.8872 82.3693C71.5052 82.7317 70.7948 82.1828 69.8175 80.972C70.7442 80.4849 71.5994 80.0354 72.4616 79.8218C72.4616 80.4471 72.4616 81.0724 72.4616 81.6976C72.5331 81.6963 72.6046 81.695 72.6761 81.6936C72.7216 81.1221 72.7672 80.5507 72.8247 79.8289C75.2974 79.8289 77.7011 79.8289 80.1049 79.8289C80.1033 79.7292 80.1018 79.6295 80.1002 79.5298C77.6206 79.5298 75.141 79.5298 72.7426 79.3557C74.3324 77.7957 74.5034 76.4798 73.2718 75.2831C72.0803 74.1252 70.0226 74.3356 68.8105 75.711C67.6782 76.9959 68.1863 78.2663 68.5101 79.5445C66.0961 79.5463 63.6816 79.5757 61.2687 79.5249C60.8254 79.5155 60.389 79.1807 59.8904 78.9714C59.8815 79.0497 59.8427 79.3914 59.8047 79.7258C59.9407 79.7667 60.0268 79.8149 60.113 79.8152C62.4358 79.8224 64.7589 79.8428 67.0813 79.815C67.6522 79.8081 68.2212 79.6411 68.9293 79.3928Z" fill="#5831C8"/>
<path d="M82.2892 89.9462C81.757 90.6949 81.1404 91.3838 80.5238 92.0727C80.3995 91.9582 80.2753 91.8437 80.151 91.7292C80.7259 91.1083 81.3008 90.4875 81.9501 89.8257C82.0846 89.8187 82.1447 89.8525 82.2892 89.9462Z" fill="#5831C8"/>
<path d="M67.7874 59.8339C68.5949 60.8654 68.3911 61.8967 67.485 62.3294C66.8458 62.6347 65.711 62.4394 65.0593 62.0401C64.307 61.5792 64.3397 60.5771 64.9803 59.893C65.8023 59.0152 66.7763 59.049 67.7874 59.8339Z" fill="#EDEDEE"/>
<path d="M20.615 123.569C20.4598 123.549 20.4112 123.508 20.2905 123.53C20.305 122.412 20.3498 121.227 20.4982 120.055C20.558 119.583 20.8446 119.139 21.1229 118.719C21.0525 120.353 20.887 121.951 20.615 123.569Z" fill="#5831C8"/>
<path d="M48.505 118.306C48.6926 119.34 48.8529 120.266 49.0133 121.191C48.8113 121.221 48.6094 121.251 48.4075 121.28C48.2187 120.084 48.03 118.888 47.8412 117.692C47.9497 117.659 48.0582 117.626 48.1667 117.593C48.2703 117.795 48.374 117.996 48.505 118.306Z" fill="#5831C8"/>
<path d="M36.6265 124.858C36.3461 123.848 36.1135 122.928 35.8809 122.007C36.0508 121.962 36.2207 121.916 36.3906 121.871C36.6545 122.853 36.9184 123.835 37.1823 124.817C37.013 124.861 36.8437 124.905 36.6265 124.858Z" fill="#5831C8"/>
<path d="M28.5124 125.481C27.8402 124.278 27.7431 123.065 27.9964 121.834C28.1308 121.823 28.2652 121.811 28.3996 121.8C28.477 123.031 28.5544 124.263 28.5124 125.481Z" fill="#5831C8"/>
<path d="M35.0578 111.478C34.1208 110.181 33.2413 108.812 32.4514 107.396C33.3991 108.7 34.2572 110.054 35.0578 111.478Z" fill="#5831C8"/>
<path d="M41.8714 107.147C42.2085 107.443 42.472 107.674 42.7355 107.905C42.5869 108.054 42.4382 108.204 42.2896 108.354C41.415 107.44 40.5405 106.526 39.666 105.613C39.7992 105.482 39.9325 105.351 40.0657 105.22C40.6431 105.841 41.2205 106.462 41.8714 107.147Z" fill="#5831C8"/>
<path d="M53.8033 90.2123C54.5536 90.9055 55.2239 91.536 55.8943 92.1666C55.783 92.295 55.6717 92.4233 55.5604 92.5517C54.6379 91.7611 53.7155 90.9705 52.793 90.1799C52.844 90.0711 52.895 89.9622 52.946 89.8533C53.2051 89.9521 53.4643 90.0509 53.8033 90.2123Z" fill="#5831C8"/>
<path d="M46.2412 100.898C46.3628 100.73 46.6055 100.53 46.6739 100.578C47.4685 101.137 48.2367 101.732 49.0119 102.318C48.9127 102.463 48.8135 102.608 48.7143 102.752C47.9033 102.162 47.0924 101.572 46.2412 100.898Z" fill="#5831C8"/>
<path d="M32.9454 97.4762C35.9563 93.1111 39.9303 89.998 44.4069 87.4655C44.7995 87.2433 45.2265 87.0673 45.6565 86.9289C46.6738 86.6015 47.9264 86.2496 48.5027 87.3061C48.9331 88.0951 48.9984 89.401 48.6519 90.2394C47.3249 93.4504 45.0015 96.0111 42.3966 98.2118C40.1603 100.101 37.6732 101.716 35.1853 103.274C34.0743 103.97 32.5711 104.667 31.4032 103.491C30.2772 102.357 31.1293 101.007 31.6415 99.8183C31.9806 99.0314 32.465 98.307 32.9454 97.4762ZM39.6384 98.1039C40.1826 98.1395 40.7267 98.1751 41.2801 98.2113C40.8333 97.0612 40.002 96.9491 38.6035 97.7986C37.3882 98.5368 36.1576 99.2501 34.8705 100.012C35.2147 100.599 35.8403 100.469 36.4676 100.084C37.4687 99.4688 38.4457 98.8141 39.6384 98.1039ZM41.6334 96.1605C41.959 94.8744 41.0328 94.799 40.2588 94.9512C39.6397 95.0729 39.0396 95.5206 38.5358 95.9473C37.7244 96.6343 36.9526 97.2345 35.6324 96.2834C35.9253 97.7491 36.7328 97.7981 37.4849 97.4802C38.1692 97.191 38.744 96.6294 39.3447 96.1594C40.0595 95.6 40.7462 95.3022 41.6334 96.1605ZM38.6691 93.7849C37.9113 94.119 37.1535 94.4532 36.35 94.8074C36.5618 95.5772 37.0706 95.6604 38.2197 94.9818C39.4218 94.2718 40.2907 92.7497 42.1458 93.5135C41.8636 92.4766 41.2482 92.3264 40.549 92.6207C39.938 92.8779 39.3983 93.3043 38.6691 93.7849Z" fill="#5831C8"/>
<path d="M30.7181 114.311C30.6751 113.81 30.6051 113.003 30.8665 112.875C31.4036 112.614 32.1736 112.546 32.739 112.731C33.0865 112.845 33.2325 113.574 33.6184 114.313C32.4393 114.313 31.6401 114.313 30.7181 114.311Z" fill="#5831C8"/>
<path d="M59.579 116.752C59.8644 116.317 60.107 115.973 60.3497 115.63C60.4567 115.688 60.5637 115.746 60.6706 115.805C60.1705 116.958 59.6704 118.111 59.1703 119.265C59.0296 119.214 58.889 119.164 58.7484 119.114C59.011 118.358 59.2737 117.601 59.579 116.752Z" fill="#5831C8"/>
<path d="M79.3316 124.134C79.1257 124.581 78.9429 124.92 78.7601 125.259C78.6264 125.203 78.4927 125.147 78.359 125.091C78.7367 123.992 79.1144 122.893 79.4921 121.793C79.6573 121.844 79.8225 121.895 79.9877 121.946C79.7767 122.639 79.5656 123.333 79.3316 124.134Z" fill="#5831C8"/>
<path d="M66.8851 122.646C66.6705 122.665 66.3567 122.551 66.3662 122.507C66.569 121.571 66.8081 120.642 67.0401 119.712C67.218 119.745 67.3959 119.778 67.5738 119.811C67.3614 120.723 67.149 121.634 66.8851 122.646Z" fill="#5831C8"/>
<path d="M75.1996 110.674C76.7277 111.788 78.3139 112.833 79.7603 114.044C80.5294 114.689 81.1691 115.814 80.456 116.689C79.8862 117.388 78.7268 117.999 77.8494 117.972C76.1108 117.92 74.3484 117.533 72.6633 117.049C68.3523 115.81 64.4183 113.787 60.9487 110.922C60.3262 110.408 59.7656 109.785 59.2966 109.126C58.2031 107.591 58.7805 106.151 60.6713 106.094C62.5496 106.037 64.5277 106.117 66.3054 106.655C68.8769 107.433 71.3073 108.677 73.7999 109.898C73.1865 109.785 72.7378 109.825 72.4613 110.572C72.2111 111.247 71.839 111.877 71.3057 112.965C70.7699 112.114 70.2833 111.543 70.0246 110.883C69.6304 109.877 68.6598 109.666 67.7934 110.519C66.6585 109.885 65.5174 109.247 64.3865 108.615C63.3979 109.818 63.4702 110.359 64.6664 111.059C65.643 111.631 66.6478 112.161 67.5807 112.797C67.9311 113.036 68.1139 113.521 68.3731 113.893C68.6271 114.258 68.8122 114.817 69.153 114.938C69.5547 115.081 70.0912 114.846 70.9021 114.726C71.1233 114.853 71.6425 115.265 72.2323 115.443C72.5533 115.54 73.2255 115.349 73.343 115.101C74.027 113.656 74.5934 112.156 75.1996 110.674Z" fill="#5831C8"/>
<path d="M75.1909 110.6C74.5934 112.155 74.027 113.656 73.343 115.101C73.2255 115.349 72.5533 115.54 72.2323 115.443C71.6425 115.265 71.1233 114.853 70.9021 114.726C70.0912 114.846 69.5547 115.081 69.153 114.938C68.8122 114.817 68.6271 114.258 68.3731 113.893C68.1139 113.521 67.9311 113.036 67.5807 112.797C66.6478 112.161 65.643 111.631 64.6664 111.059C63.4702 110.359 63.3979 109.818 64.3865 108.615C65.5174 109.247 66.6585 109.885 67.7934 110.519C68.6598 109.666 69.6304 109.877 70.0246 110.883C70.2833 111.543 70.7699 112.114 71.3057 112.965C71.839 111.877 72.2111 111.247 72.4613 110.571C72.7378 109.825 73.1865 109.785 73.842 109.985C74.3156 110.107 74.7489 110.317 75.1909 110.6ZM73.4027 110.73C72.847 111.63 72.2913 112.53 71.7001 113.488C70.4882 112.893 69.1562 112.538 69.1953 111.243C68.5147 111.21 67.9229 111.326 67.4656 111.129C66.4835 110.706 65.5707 110.122 64.6295 109.604C64.5416 109.749 64.4537 109.894 64.3657 110.039C65.1381 110.515 65.9043 111.001 66.6845 111.463C67.8367 112.146 69.2868 112.528 69.25 114.243C70.7805 112.695 71.5635 114.868 72.8107 114.746C73.2213 113.859 73.5969 112.89 74.1069 111.998C74.5236 111.268 74.1194 111.048 73.4027 110.73Z" fill="#E1E1E1"/>
<path d="M68.7896 79.5482C68.1863 78.2663 67.6782 76.9959 68.8105 75.711C70.0226 74.3356 72.0803 74.1252 73.2718 75.2831C74.5034 76.4798 74.3324 77.7957 72.6449 79.4367C72.5471 79.5178 72.4546 79.5859 72.4546 79.5859C71.5994 80.0354 70.7442 80.4849 69.8176 80.972C70.7949 82.1828 71.5052 82.7317 72.8872 82.3693C74.1932 82.0268 75.4998 83.3921 75.5453 84.6976C75.5969 86.1775 74.2537 87.5787 72.6172 87.7481C71.531 87.8605 70.4705 87.5524 70.1086 86.5503C69.8249 85.7649 70.0667 84.772 70.1571 83.8796C70.1848 83.6052 70.4828 83.3581 70.7928 82.8961C70.2525 82.5778 69.6914 81.9882 69.2698 82.0752C68.8861 82.1543 68.5241 82.9333 68.3813 83.4652C68.0585 84.6669 66.8637 85.7848 65.5378 85.8561C64.3178 85.9217 63.2942 85.5325 62.7613 84.3278C62.2943 83.2724 62.6973 81.949 63.6956 81.1607C64.8069 80.2831 66.3379 80.173 67.3728 80.9379C67.6581 81.1488 67.8596 81.4732 68.2114 81.8723C68.8837 81.2355 69.4839 80.6669 70.1657 80.0211C69.6383 79.7531 69.2838 79.573 68.8513 79.4816C68.7733 79.5704 68.7896 79.5482 68.7896 79.5482ZM64.1443 84.8648C64.7214 84.926 65.4441 85.2322 65.8439 84.9948C66.5634 84.5675 67.2481 83.8961 67.6264 83.1614C67.804 82.8163 67.3767 81.9347 66.9758 81.5649C66.208 80.8569 64.674 81.1192 63.8931 81.9957C63.0852 82.9027 62.9697 83.8488 64.1443 84.8648ZM70.5317 85.9926C71.6376 87.3936 73.5029 87.3408 74.4644 85.8813C75.1673 84.8146 74.7148 83.4989 73.5258 83.1517C71.8603 82.6653 70.3123 83.999 70.5317 85.9926ZM71.16 79.2646C71.4969 79.1378 71.8828 79.0778 72.1619 78.8726C73.2668 78.06 72.7097 76.8807 72.6451 75.8746C72.6287 75.6202 71.7111 75.2316 71.212 75.2382C69.9528 75.2548 68.8967 76.3373 68.8787 77.4523C68.8563 78.8476 69.8198 79.1565 71.16 79.2646Z" fill="#E1E1E1"/>
<path d="M72.4581 79.7039C72.4546 79.5859 72.5472 79.5178 72.6043 79.5238C75.1411 79.5298 77.6207 79.5298 80.1003 79.5298C80.1018 79.6295 80.1034 79.7292 80.1049 79.8289C77.7012 79.8289 75.2974 79.8289 72.8248 79.8289C72.7672 80.5507 72.7217 81.1222 72.6761 81.6936C72.6046 81.695 72.5331 81.6963 72.4616 81.6976C72.4616 81.0724 72.4616 80.4471 72.4581 79.7039Z" fill="#5831C8"/>
<path d="M68.7822 79.559C68.2212 79.6411 67.6522 79.8081 67.0814 79.815C64.7589 79.8428 62.4359 79.8224 60.113 79.8152C60.0268 79.8149 59.9407 79.7667 59.8047 79.7258C59.8427 79.3914 59.8815 79.0497 59.8904 78.9714C60.389 79.1807 60.8254 79.5155 61.2687 79.5249C63.6816 79.5757 66.0961 79.5463 68.6498 79.5463C68.7896 79.5482 68.7733 79.5704 68.7822 79.559Z" fill="#5831C8"/>
<path d="M39.5357 98.14C38.4458 98.8141 37.4689 99.4687 36.4677 100.084C35.8404 100.469 35.2148 100.599 34.8706 100.012C36.1577 99.2501 37.3883 98.5368 38.6036 97.7986C40.0021 96.9491 40.8334 97.0612 41.2802 98.2113C40.7268 98.1751 40.1827 98.1395 39.5357 98.14Z" fill="#E1E1E1"/>
<path d="M41.5298 96.177C40.7462 95.3022 40.0595 95.6 39.3447 96.1594C38.744 96.6294 38.1692 97.191 37.4849 97.4802C36.7328 97.7981 35.9253 97.7491 35.6324 96.2834C36.9527 97.2345 37.7245 96.6343 38.5358 95.9473C39.0396 95.5206 39.6397 95.0729 40.2588 94.9512C41.0328 94.799 41.9591 94.8744 41.5298 96.177Z" fill="#DBDBDB"/>
<path d="M38.7482 93.7204C39.3984 93.3043 39.9381 92.8779 40.5491 92.6207C41.2483 92.3264 41.8637 92.4765 42.1459 93.5135C40.2907 92.7497 39.4219 94.2718 38.2197 94.9818C37.0707 95.6604 36.5618 95.5772 36.3501 94.8074C37.1535 94.4532 37.9114 94.119 38.7482 93.7204Z" fill="#DBDBDB"/>
<path d="M73.4957 110.77C74.1194 111.048 74.5236 111.268 74.1069 111.998C73.5969 112.89 73.2213 113.859 72.8107 114.746C71.5635 114.868 70.7805 112.695 69.25 114.243C69.2868 112.528 67.8367 112.146 66.6845 111.463C65.9043 111.001 65.1381 110.515 64.3657 110.039C64.4537 109.894 64.5416 109.749 64.6295 109.604C65.5707 110.122 66.4835 110.706 67.4656 111.129C67.9229 111.326 68.5147 111.21 69.1953 111.243C69.1562 112.538 70.4882 112.893 71.7001 113.488C72.2913 112.53 72.847 111.63 73.4957 110.77Z" fill="#5831C8"/>
<path d="M64.0569 84.7994C62.9697 83.8488 63.0852 82.9026 63.8931 81.9957C64.6739 81.1192 66.208 80.8568 66.9757 81.5649C67.3767 81.9347 67.804 82.8163 67.6263 83.1614C67.2481 83.8961 66.5634 84.5675 65.8439 84.9948C65.444 85.2322 64.7214 84.926 64.0569 84.7994Z" fill="#5831C8"/>
<path d="M70.4926 85.8957C70.3123 83.999 71.8603 82.6653 73.5258 83.1517C74.7148 83.4989 75.1673 84.8146 74.4644 85.8813C73.5029 87.3408 71.6377 87.3936 70.4926 85.8957Z" fill="#5831C8"/>
<path d="M71.0492 79.2715C69.8198 79.1565 68.8563 78.8476 68.8787 77.4523C68.8967 76.3373 69.9529 75.2547 71.212 75.2382C71.7111 75.2316 72.6287 75.6202 72.6451 75.8746C72.7097 76.8807 73.2668 78.06 72.1619 78.8726C71.8828 79.0778 71.4969 79.1378 71.0492 79.2715Z" fill="#5831C8"/>
</g>
<defs>
<clipPath id="clip0_787_14066">
<rect width="140" height="136.992" fill="white" transform="translate(0 0.253784)"/>
</clipPath>
</defs>
</svg>
