<svg version="1.1" id="Layer_1" xmlns="http://www.w3.org/2000/svg" xmlns:xlink="http://www.w3.org/1999/xlink" x="0px" y="0px"
	 width="100%" viewBox="0 0 512 501" enable-background="new 0 0 512 501" xml:space="preserve">
<path fill="#FEFEFE" opacity="1.000000" stroke="none" 
	d="
M1.000000,181.000000 
	C1.000000,120.681412 1.000000,60.862827 1.000000,1.022120 
	C171.609863,1.022120 342.219727,1.022120 512.914795,1.022120 
	C512.914795,167.901993 512.914795,334.804047 512.914795,501.853027 
	C342.333435,501.853027 171.666733,501.853027 1.000000,501.853027 
	C1.000000,395.113495 1.000000,288.306732 1.000000,181.000000 
M192.351822,307.794647 
	C185.409698,303.299316 178.212708,304.721436 171.293198,307.442627 
	C148.404007,316.444000 128.691208,330.040985 114.507927,350.338379 
	C104.979202,363.974792 96.332047,378.437195 103.090446,394.940491 
	C92.835396,400.281311 82.500114,405.098114 72.773849,410.930542 
	C66.414787,414.743774 62.947830,421.031769 62.849514,428.884338 
	C62.614784,447.631897 75.509705,461.566010 94.325287,462.186432 
	C105.263786,462.547119 116.246948,462.695312 127.169006,462.136993 
	C142.299942,461.363495 157.039261,458.196198 171.107651,452.409210 
	C185.866562,446.338226 190.387039,439.107025 189.557404,423.170258 
	C189.445892,421.028076 188.771927,418.914673 188.667038,416.772827 
	C188.630692,416.030670 189.530350,415.242676 190.098724,415.368744 
	C192.268723,422.749023 197.224701,428.102814 203.220947,432.429291 
	C223.993362,447.417267 247.029236,457.360779 272.253326,461.753510 
	C278.331451,462.811981 285.095032,462.991608 290.979034,461.438019 
	C301.504395,458.658936 305.921661,449.544830 309.034271,439.923706 
	C311.345917,432.778381 310.498871,425.927307 305.446716,420.349396 
	C300.120514,414.469025 294.574341,408.630981 288.367126,403.734253 
	C267.746124,387.466888 244.722992,377.354279 217.835281,377.923523 
	C197.072647,378.363068 184.417755,395.089447 189.237869,415.407990 
	C185.190826,406.119781 177.920456,400.733826 168.336533,398.157074 
	C166.232361,397.591339 164.118759,397.060577 161.290253,396.327209 
	C162.945328,394.867798 163.760788,394.062378 164.661560,393.367554 
	C176.708664,384.074799 187.358566,373.362976 196.239746,361.038086 
	C203.305237,351.232880 210.837097,341.412750 209.248276,327.595734 
	C209.540146,327.375916 209.832031,327.156067 210.668350,327.328064 
	C217.248611,338.297211 227.680069,343.904053 239.029724,348.815491 
	C251.701584,354.299072 264.496979,357.342194 278.233887,355.056213 
	C300.521973,351.347168 317.429382,340.181824 324.513885,318.079529 
	C326.835266,310.837158 330.419464,305.466705 335.393097,300.313568 
	C365.432343,269.190094 400.082977,243.467560 433.581573,216.398590 
	C434.609039,215.568329 436.293213,215.586426 437.629669,215.095840 
	C440.958008,213.874069 444.758301,213.247208 447.482544,211.201096 
	C455.378693,205.270569 458.607758,196.496124 460.058044,187.105835 
	C462.419983,171.812851 461.623718,156.574402 458.024017,141.549484 
	C453.352844,122.052177 444.536835,104.857323 429.149017,91.509377 
	C420.345337,83.872742 410.775146,78.901466 399.205200,83.139526 
	C397.474426,75.539001 396.378357,67.974319 394.001770,60.835957 
	C388.254120,43.572250 377.977356,29.738678 360.519592,22.942940 
	C340.396545,15.109700 322.243988,20.909414 306.062561,33.443661 
	C299.099518,38.837303 293.500763,45.992184 287.205505,52.425289 
	C287.144531,52.335777 286.705963,51.683060 286.258423,51.036568 
	C273.845306,33.105667 256.872925,24.389580 235.039047,26.828430 
	C211.574326,29.449450 190.632355,50.176865 185.842331,74.818970 
	C184.914810,79.590660 184.508636,84.463692 183.813751,89.649910 
	C173.098480,84.340797 162.237961,83.313103 151.058563,86.231140 
	C134.121307,90.652100 122.583237,104.201965 121.762863,120.482826 
	C120.839226,138.812897 131.286255,154.976730 147.835022,161.212112 
	C150.703247,162.292816 153.559372,163.888229 155.874634,165.880829 
	C185.787628,191.625275 206.875427,223.344162 219.439102,260.718781 
	C219.904816,262.104187 219.551620,264.488373 218.608658,265.513641 
	C207.252609,277.860901 202.473587,292.349243 203.131607,308.938660 
	C199.777145,308.613464 196.422668,308.288239 192.351822,307.794647 
M467.593994,212.577515 
	C467.415894,211.709763 467.237823,210.842010 467.059723,209.974258 
	C462.868317,226.317627 458.213654,241.672348 440.129730,247.920090 
	C439.564270,247.002197 439.354706,246.234497 438.861084,245.935181 
	C436.797272,244.683670 434.723206,243.340683 432.465454,242.611069 
	C432.027161,242.469437 429.968536,244.948563 430.013641,246.168671 
	C430.132416,249.380478 432.587219,250.592209 435.566406,250.563293 
	C439.322998,250.526871 438.777252,253.385635 438.723328,255.489532 
	C438.480103,264.979126 431.328888,272.602692 421.701752,273.961426 
	C420.248169,274.166565 418.827606,274.605774 417.391785,274.936707 
	C430.668182,278.738739 441.536194,266.974731 440.812531,251.438797 
	C445.880920,247.858170 451.092682,245.095474 455.122803,241.131424 
	C462.748383,233.630875 465.669281,223.673111 467.593994,212.577515 
M70.685524,90.932655 
	C78.667702,93.958000 87.353493,91.391144 91.558723,83.712273 
	C89.407776,85.093651 88.336388,85.962379 87.122879,86.524132 
	C84.445343,87.763618 81.791412,89.357407 78.955971,89.887825 
	C73.459335,90.916061 68.342728,88.214645 68.153214,84.449425 
	C67.865196,78.726997 72.561829,78.060226 76.526741,77.113792 
	C88.596375,74.232750 98.632568,78.944481 108.038177,85.863182 
	C109.295280,86.787895 110.753944,87.438622 112.119263,88.216225 
	C104.250450,76.854187 85.759331,71.191185 72.925056,75.890831 
	C70.192703,76.891365 66.815620,79.715195 66.317986,82.213417 
	C65.833031,84.648018 68.656685,87.741676 70.685524,90.932655 
M128.180817,49.651100 
	C128.587021,49.893711 129.173248,50.447491 129.372437,50.332256 
	C132.356262,48.606152 132.554306,44.268414 129.909180,39.687145 
	C127.997375,36.375961 125.563980,34.698814 121.752411,36.966972 
	C116.706520,39.969646 113.842499,47.260063 114.924660,54.522472 
	C116.028099,61.927689 123.546722,70.129341 130.301620,70.318886 
	C127.511772,68.096169 125.165039,66.436478 123.061340,64.511223 
	C116.651695,58.645271 114.895142,49.480221 119.351479,42.930569 
	C120.724152,40.913074 123.606766,39.922924 125.797997,38.462368 
	C126.935318,41.352905 128.129913,44.223518 129.149597,47.154980 
	C129.306641,47.606487 128.659439,48.337749 128.180817,49.651100 
M189.520462,277.519470 
	C188.803070,279.793182 188.085678,282.066864 187.368286,284.340576 
	C192.335587,279.609985 193.388367,272.580017 191.309830,265.006134 
	C190.900833,263.515839 190.243240,261.644958 190.777466,260.418976 
	C193.754807,253.586563 191.546982,247.428757 188.743637,241.313736 
	C188.391602,240.545822 187.385101,240.077911 186.681824,239.471008 
	C188.084137,246.217133 192.072433,252.221039 188.742828,259.027435 
	C188.408951,258.699188 188.075073,258.370911 187.741196,258.042664 
	C185.863953,259.150787 183.986710,260.258881 182.109467,261.367004 
	C184.065353,262.731781 186.021240,264.096558 187.977127,265.461304 
	C188.577911,265.139374 189.178711,264.817413 189.779495,264.495453 
	C189.779495,268.573944 189.779495,272.652405 189.520462,277.519470 
M340.888977,310.779999 
	C338.591949,309.571747 336.346100,307.511108 333.985077,307.369446 
	C330.986237,307.189575 327.878204,312.200195 328.503510,314.927338 
	C329.445435,319.035309 333.392975,321.406799 337.644287,319.808167 
	C341.339935,318.418488 342.930786,315.502380 340.888977,310.779999 
M312.261200,363.872650 
	C319.967957,353.354034 330.185913,345.799072 341.668365,339.736542 
	C332.701233,338.887299 308.920929,359.574799 307.000122,370.489136 
	C309.251770,367.794556 310.610931,366.168030 312.261200,363.872650 
M211.291367,450.120026 
	C203.835999,450.120026 196.380615,450.120026 188.925247,450.120026 
	C188.919342,450.864594 188.913437,451.609161 188.907532,452.353729 
	C190.228043,452.477509 191.552338,452.737427 192.868408,452.700958 
	C197.997406,452.558960 203.128052,452.390839 208.247894,452.069733 
	C209.396515,451.997742 210.503891,451.268219 211.291367,450.120026 
M113.287613,71.229271 
	C111.344635,69.817421 109.401657,68.405571 107.458672,66.993721 
	C107.101784,67.508232 106.744896,68.022751 106.388008,68.537270 
	C109.894119,71.333092 113.400230,74.128922 116.906334,76.924751 
	C117.346237,76.381599 117.786140,75.838448 118.226044,75.295296 
	C116.757919,74.096054 115.289803,72.896820 113.287613,71.229271 
M194.969269,461.154602 
	C191.481247,457.141815 186.704147,457.595490 182.340378,456.617096 
	C182.194565,457.110474 182.048752,457.603851 181.902924,458.097229 
	C186.046204,459.259247 190.189468,460.421295 194.969269,461.154602 
z"/>
<path fill="#050505" opacity="1.000000" stroke="none" 
	d="
M203.874466,308.976624 
	C202.473587,292.349243 207.252609,277.860901 218.608658,265.513641 
	C219.551620,264.488373 219.904816,262.104187 219.439102,260.718781 
	C206.875427,223.344162 185.787628,191.625275 155.874634,165.880829 
	C153.559372,163.888229 150.703247,162.292816 147.835022,161.212112 
	C131.286255,154.976730 120.839226,138.812897 121.762863,120.482826 
	C122.583237,104.201965 134.121307,90.652100 151.058563,86.231140 
	C162.237961,83.313103 173.098480,84.340797 183.813751,89.649910 
	C184.508636,84.463692 184.914810,79.590660 185.842331,74.818970 
	C190.632355,50.176865 211.574326,29.449450 235.039047,26.828430 
	C256.872925,24.389580 273.845306,33.105667 286.258423,51.036568 
	C286.705963,51.683060 287.144531,52.335777 287.205505,52.425289 
	C293.500763,45.992184 299.099518,38.837303 306.062561,33.443661 
	C322.243988,20.909414 340.396545,15.109700 360.519592,22.942940 
	C377.977356,29.738678 388.254120,43.572250 394.001770,60.835957 
	C396.378357,67.974319 397.474426,75.539001 399.205200,83.139526 
	C410.775146,78.901466 420.345337,83.872742 429.149017,91.509377 
	C444.536835,104.857323 453.352844,122.052177 458.024017,141.549484 
	C461.623718,156.574402 462.419983,171.812851 460.058044,187.105835 
	C458.607758,196.496124 455.378693,205.270569 447.482544,211.201096 
	C444.758301,213.247208 440.958008,213.874069 437.629669,215.095840 
	C436.293213,215.586426 434.609039,215.568329 433.581573,216.398590 
	C400.082977,243.467560 365.432343,269.190094 335.393097,300.313568 
	C330.419464,305.466705 326.835266,310.837158 324.513885,318.079529 
	C317.429382,340.181824 300.521973,351.347168 278.233887,355.056213 
	C264.496979,357.342194 251.701584,354.299072 239.029724,348.815491 
	C227.680069,343.904053 217.248611,338.297211 210.352997,326.764618 
	C207.983231,320.459656 205.928848,314.718140 203.874466,308.976624 
M265.077637,162.022995 
	C265.061310,171.596970 264.957550,181.172043 265.078125,190.744293 
	C265.118073,193.914383 265.052002,196.809952 261.211182,198.674820 
	C257.120911,196.791428 253.030655,194.908051 248.889130,192.220444 
	C244.331070,174.693100 240.817490,167.880081 236.157242,167.534637 
	C238.533722,172.210373 241.112701,176.797043 243.220932,181.590744 
	C244.830765,185.251129 245.844452,189.173676 247.310623,193.772491 
	C246.094208,201.323685 242.566147,207.541718 236.302536,211.974655 
	C225.275208,219.778992 213.503677,220.743118 201.793015,214.941162 
	C208.888245,230.462448 215.929932,245.866623 222.582611,260.419830 
	C229.290894,256.959442 236.146744,252.398361 243.681305,249.822662 
	C251.317780,247.212128 259.625000,246.563690 269.006561,244.798447 
	C267.539429,230.139252 265.989532,214.653351 265.068420,199.259628 
	C265.646790,199.508545 266.225128,199.757462 267.038239,200.825607 
	C268.410156,216.011230 269.782043,231.196838 271.113464,245.934143 
	C278.793732,248.846420 286.745026,251.861465 294.620300,254.847687 
	C301.211548,234.024185 307.967438,212.680634 314.827698,191.007233 
	C305.599945,191.757080 298.725830,188.152802 293.338593,180.314697 
	C292.870453,178.111328 291.973816,175.901367 292.007477,173.705704 
	C292.162445,163.601639 290.232788,153.986618 285.832275,144.896927 
	C285.256531,143.707718 284.184998,142.758530 283.343109,141.698181 
	C282.955231,141.956299 282.567352,142.214432 282.179443,142.472549 
	C282.613007,143.603699 283.134796,144.709702 283.465546,145.870163 
	C285.355560,152.501587 287.451538,159.089355 288.964874,165.807434 
	C289.857391,169.769409 289.802094,173.944901 290.015381,178.498169 
	C290.015381,178.498169 289.985535,178.996613 289.476990,179.313919 
	C289.343475,179.884811 289.209991,180.455719 288.565735,181.491364 
	C284.417145,190.361084 278.246979,196.777908 267.690521,197.642181 
	C267.119568,195.862701 266.084961,194.091248 266.054016,192.302414 
	C265.874115,181.904282 265.930145,171.502090 265.964355,160.174301 
	C265.975861,159.009766 266.150238,157.819397 265.970367,156.685211 
	C265.230316,152.019409 267.202515,150.479340 271.760742,150.923706 
	C275.440369,151.282410 279.182831,150.996384 282.897430,150.996384 
	C282.898346,150.638077 282.899261,150.279785 282.900177,149.921478 
	C277.485596,149.921478 272.071045,149.921478 266.451172,149.921478 
	C266.148224,147.349365 265.901245,145.252579 265.654266,143.155807 
	C265.510101,143.169556 265.365936,143.183304 265.221771,143.197052 
	C265.037384,145.282227 264.852966,147.367416 264.614349,150.065674 
	C250.652832,150.065674 236.975616,150.065674 223.298401,150.065674 
	C223.304764,150.375488 223.311142,150.685303 223.317520,150.995117 
	C233.775955,150.995117 244.234406,150.994949 254.692856,150.995163 
	C264.782776,150.995361 264.782776,150.995529 265.077637,162.022995 
M219.020630,180.953766 
	C219.013855,184.780090 218.871033,188.612442 219.040146,192.430969 
	C219.196289,195.956757 217.619324,197.145950 214.260025,197.042984 
	C209.209763,196.888184 204.151260,197.002670 199.096252,197.002670 
	C204.218597,197.986511 209.347626,198.155792 214.458847,197.927032 
	C217.868454,197.774414 219.273300,198.810547 219.056854,202.401871 
	C218.787415,206.872665 218.992203,211.372025 218.992203,215.859055 
	C219.991684,211.384445 220.183578,206.913330 219.930405,202.467545 
	C219.731277,198.970444 220.955063,197.796585 224.458374,197.925247 
	C230.907227,198.162094 237.370972,197.992859 243.828522,197.992859 
	C237.188583,196.993591 230.561508,196.870300 223.942535,197.048294 
	C220.871063,197.130875 219.811798,196.029205 219.938293,193.006561 
	C220.118958,188.689224 219.965729,184.357910 219.986618,179.089111 
	C219.986618,172.121857 219.986618,165.154602 219.986618,158.187347 
	C219.667267,158.191437 219.347931,158.195526 219.028580,158.199615 
	C219.028580,165.473877 219.028580,172.748154 219.020630,180.953766 
M338.012238,172.183197 
	C341.286835,160.179031 341.104736,143.628601 337.250458,139.889313 
	C337.250458,142.172684 337.292358,144.067703 337.242920,145.960327 
	C337.069519,152.599304 337.102325,159.256470 336.574097,165.868149 
	C336.299286,169.307846 335.013062,172.666718 333.755280,176.592300 
	C329.175690,180.779572 324.564270,184.932907 320.037323,189.176361 
	C318.801910,190.334412 317.292511,191.591156 316.802277,193.094025 
	C310.235779,213.225266 303.833923,233.410172 297.372284,253.575714 
	C296.636993,255.870483 296.762085,257.409180 299.342560,258.757294 
	C307.908081,263.232117 314.439911,269.900787 319.579346,278.103241 
	C324.717865,286.304199 326.642456,295.359924 327.201477,305.872253 
	C355.691986,275.141632 387.690735,249.960419 420.158417,224.164429 
	C412.302551,224.173706 407.744141,220.813034 405.913666,214.327118 
	C404.986969,211.043518 405.032928,207.485397 404.973450,203.426392 
	C410.746613,196.598022 415.654938,189.257660 419.307953,181.174133 
	C418.721954,180.799683 418.135956,180.425232 417.549927,180.050781 
	C412.629059,187.997177 407.708191,195.943573 402.156342,204.124435 
	C401.251892,204.845108 400.375000,205.603958 399.438354,206.280045 
	C394.545135,209.812134 389.169434,211.082703 383.574249,208.509094 
	C378.093842,205.988297 375.529968,201.091660 375.694092,195.267639 
	C375.826538,190.567764 376.974945,185.896515 378.266907,181.007645 
	C386.540710,172.145370 393.024200,162.108170 398.354156,151.221802 
	C397.269135,150.994003 396.450195,151.038025 396.171356,151.448715 
	C389.489563,161.289871 382.865631,171.170319 375.663788,181.442520 
	C364.990509,191.145370 347.855560,191.772171 339.575134,175.899475 
	C339.172150,175.231125 338.769196,174.562790 338.343414,173.373505 
	C338.223602,173.247589 338.103790,173.121674 338.012238,172.183197 
M313.007202,168.004196 
	C313.007202,162.567947 313.007202,157.131699 313.007202,151.537704 
	C314.972107,151.169189 316.456360,150.890839 319.380951,150.342346 
	C309.004059,150.342346 300.134766,150.342346 291.265503,150.342346 
	C296.717255,150.992294 302.174469,151.183609 307.610229,150.924637 
	C311.196777,150.753754 312.241547,152.137146 312.062225,155.529068 
	C311.826050,159.995880 311.989166,164.483810 311.229736,169.130051 
	C310.711548,171.055344 310.193359,172.980621 309.675171,174.905914 
	C310.033325,174.998291 310.391510,175.090652 310.749664,175.183029 
	C311.480469,173.896164 312.211243,172.609299 313.411652,170.495544 
	C313.919495,172.894302 314.210541,174.268906 314.492035,175.598541 
	C315.232880,175.764175 315.705933,175.965393 316.176636,175.960098 
	C319.992035,175.917206 323.809326,175.891586 327.620911,175.735992 
	C328.990845,175.680069 331.337769,175.581558 331.518066,174.983643 
	C332.002747,173.376282 331.965271,171.301834 331.277130,169.808090 
	C331.014435,169.237778 327.819763,169.106125 326.995758,169.878387 
	C324.581390,172.141190 322.764893,171.493530 320.434906,169.760895 
	C321.707458,169.079056 322.672852,168.561768 323.638275,168.044495 
	C323.487701,167.590851 323.337128,167.137192 323.186523,166.683533 
	C321.516357,167.205185 319.846161,167.726837 318.175964,168.248474 
	C319.404144,170.219635 320.632294,172.190796 321.860474,174.161942 
	C319.979614,173.992538 318.459015,172.908875 316.948944,171.810715 
	C315.638336,170.857605 314.339661,169.888077 313.007202,168.004196 
M300.634857,327.798859 
	C300.415039,327.675201 300.195190,327.551544 300.299225,326.797882 
	C301.183777,325.589905 302.102905,324.405579 302.947876,323.170502 
	C322.000946,295.320282 309.582336,259.246063 277.854126,250.258804 
	C251.017319,242.657074 220.839554,257.147125 209.839279,282.916595 
	C198.936203,308.458344 210.421982,335.380798 236.542816,345.040222 
	C255.153519,351.922424 272.376770,348.201447 288.532288,337.535339 
	C289.889526,336.639252 291.319000,335.852509 293.643005,334.458191 
	C291.996918,337.569794 290.999054,339.456085 289.470551,342.220093 
	C287.515533,342.486694 285.469788,342.473114 283.622192,343.071472 
	C277.666412,345.000305 271.882477,347.537842 265.840302,349.096497 
	C261.292877,350.269562 256.450378,350.298706 250.637161,350.963013 
	C266.196747,355.467987 280.162170,354.298706 294.663788,347.907684 
	C292.694977,346.140106 291.231140,345.037628 290.071777,343.675934 
	C289.636505,343.164673 289.908508,342.051178 290.537292,341.540649 
	C292.227295,343.576996 293.917297,345.613342 295.553741,347.585205 
	C306.681519,342.008698 314.544586,334.624908 320.066895,323.974976 
	C316.703003,320.972626 313.492035,318.106750 310.588837,315.515594 
	C307.072052,320.307098 304.161987,324.271942 300.634857,327.798859 
M330.215393,23.482771 
	C311.392853,28.780109 297.994080,41.021687 287.732605,57.836113 
	C286.690063,56.002758 286.133179,55.001545 285.556213,54.012024 
	C274.732117,35.448380 251.037079,24.969618 230.896225,29.836914 
	C208.231812,35.314056 189.482239,56.697891 187.066696,79.945587 
	C186.615784,84.285034 186.514099,88.660759 186.200760,93.857224 
	C177.632614,87.938759 168.670731,86.522224 159.145248,86.968292 
	C141.959442,87.773064 126.441307,101.201935 124.153770,117.628487 
	C121.620567,135.819046 132.614563,154.091553 149.304703,159.430420 
	C156.629196,161.773392 166.002731,159.334244 169.833359,153.053024 
	C172.065308,149.393204 173.269333,144.765778 173.652374,140.459549 
	C173.850739,138.229492 171.222900,135.766815 169.956467,133.364639 
	C169.792618,133.053848 170.136963,132.475098 170.505249,130.938187 
	C172.645126,133.721603 174.469818,135.787643 175.943634,138.079346 
	C178.588837,142.192535 182.123062,143.425522 186.346741,140.852203 
	C188.691238,139.423782 191.333893,137.528397 192.422073,135.184250 
	C195.058960,129.503922 196.863922,123.437378 199.176147,117.051468 
	C199.695694,117.237907 201.342468,117.545555 202.685944,118.355980 
	C213.027603,124.594337 226.077560,118.622704 231.140839,109.104080 
	C232.589447,106.380768 232.940659,104.230698 231.199966,101.357330 
	C229.701492,98.883812 229.304794,95.742821 228.420944,92.896957 
	C229.010483,92.507301 229.600021,92.117638 230.189560,91.727974 
	C232.104309,104.444878 240.048569,109.151863 251.624512,110.083542 
	C263.022034,111.000862 271.336823,105.980484 277.269257,99.049217 
	C282.880249,101.394882 287.493866,103.997429 292.447784,105.212097 
	C297.797363,106.523773 302.758728,104.278694 307.447266,101.359344 
	C311.052490,99.114540 309.556610,95.802940 310.103485,92.900490 
	C311.386261,86.092659 312.692871,83.552917 316.399780,81.761993 
	C312.678009,89.005661 310.914337,95.881714 314.012146,103.475334 
	C317.803375,112.768623 323.315247,119.843803 333.664642,122.059601 
	C336.577881,122.683319 339.586365,124.121071 340.939484,117.955269 
	C342.405823,121.833565 343.507172,123.811989 343.886993,125.920387 
	C345.201111,133.214783 349.506683,138.159409 355.730072,141.665146 
	C363.214844,145.881424 371.383362,145.396973 379.557739,145.089050 
	C389.478363,144.715317 399.704651,142.968369 408.889923,148.230316 
	C425.525482,157.760300 432.114471,172.984680 432.169098,191.505859 
	C432.181793,195.803406 431.182709,200.102661 431.177307,204.401794 
	C431.168091,211.762619 437.090302,214.964310 443.519470,211.303711 
	C449.959747,207.636795 453.721893,201.817032 455.869995,195.005219 
	C460.055115,181.733673 459.764954,168.186279 458.049896,154.525497 
	C454.959961,129.913879 445.745911,108.455589 426.391418,92.196556 
	C417.708527,84.902367 408.239044,80.548775 396.278473,87.317192 
	C396.159149,84.879005 396.093903,83.140053 395.985931,81.403748 
	C394.929047,64.402992 389.195801,49.255718 377.396423,36.831181 
	C364.662262,23.422377 349.007385,19.176731 330.215393,23.482771 
M324.843140,306.283997 
	C324.365021,301.695160 324.015442,297.088348 323.376129,292.522064 
	C322.578796,286.827240 318.051147,285.366791 314.471985,284.068665 
	C313.592529,294.006989 312.732056,303.730560 311.856232,313.627747 
	C314.488922,315.934662 317.674011,318.725647 321.579224,322.147644 
	C322.675323,317.055115 323.736542,312.124664 324.843140,306.283997 
M277.830658,165.968430 
	C272.913605,167.148651 270.097473,171.134171 271.015778,175.613144 
	C271.933441,180.088806 275.494629,182.462143 280.595093,181.997177 
	C284.018799,181.685074 288.001465,177.321228 287.959320,173.928131 
	C287.907684,169.771805 283.560272,166.045120 277.830658,165.968430 
M311.907806,279.664246 
	C314.469910,281.219147 317.031982,282.774017 319.594086,284.328918 
	C316.596588,277.368317 313.471161,270.949982 305.928497,267.001007 
	C308.150757,271.708649 309.865356,275.340881 311.907806,279.664246 
M296.800446,175.998154 
	C299.584503,176.010757 302.418427,176.336014 305.131561,175.903580 
	C306.481567,175.688416 308.142609,174.296646 308.647400,173.031784 
	C308.971497,172.219742 307.688965,169.976593 306.687286,169.624405 
	C305.423279,169.179993 303.507935,169.661926 302.258728,170.397919 
	C301.280090,170.974533 301.116638,172.858185 300.153503,173.564606 
	C299.512634,174.034653 298.101654,173.454742 297.035370,173.344788 
	C296.778656,172.768677 296.521942,172.192566 296.265198,171.616470 
	C297.572174,171.191666 298.879120,170.766861 300.186096,170.342072 
	C299.725739,169.781113 299.265411,169.220154 298.805054,168.659195 
	C297.396423,169.470734 295.226959,169.998367 294.789001,171.172104 
	C294.333344,172.393280 295.550079,174.238510 296.800446,175.998154 
M348.867340,168.583405 
	C347.034821,170.093048 345.202332,171.602692 343.459259,173.038651 
	C343.115204,172.081406 342.626892,170.722763 341.814026,168.461121 
	C340.137604,176.632111 340.882172,177.361481 347.643799,175.304565 
	C347.857056,173.954132 348.081573,172.532394 348.272858,171.320923 
	C349.246796,173.013733 350.185272,174.644943 351.123779,176.276169 
	C352.321838,174.165009 352.039459,172.656631 352.381439,171.306366 
	C353.063477,168.613571 351.863831,168.015549 348.867340,168.583405 
M318.974121,178.468353 
	C314.549133,179.190857 309.603363,176.388672 304.431335,180.478424 
	C307.675781,180.930283 309.713593,181.214081 311.783813,181.502380 
	C311.947845,184.249268 312.085693,186.557373 312.223511,188.865463 
	C312.460114,183.593048 312.335480,178.483322 320.237122,180.730026 
	C321.180573,180.998276 322.425385,180.206650 324.920563,179.528473 
	C322.215210,179.129471 320.954254,178.943497 318.974121,178.468353 
M303.525970,178.721786 
	C303.394226,179.133316 303.240082,179.540024 303.149445,179.960388 
	C303.131134,180.045486 303.352905,180.182358 303.464020,180.295364 
	C303.594757,179.884369 303.725494,179.473373 303.525970,178.721786 
z"/>
<path fill="#121212" opacity="1.000000" stroke="none" 
	d="
M190.002502,414.475616 
	C189.530350,415.242676 188.630692,416.030670 188.667038,416.772827 
	C188.771927,418.914673 189.445892,421.028076 189.557404,423.170258 
	C190.387039,439.107025 185.866562,446.338226 171.107651,452.409210 
	C157.039261,458.196198 142.299942,461.363495 127.169006,462.136993 
	C116.246948,462.695312 105.263786,462.547119 94.325287,462.186432 
	C75.509705,461.566010 62.614784,447.631897 62.849514,428.884338 
	C62.947830,421.031769 66.414787,414.743774 72.773849,410.930542 
	C82.500114,405.098114 92.835396,400.281311 103.090446,394.940491 
	C96.332047,378.437195 104.979202,363.974792 114.507927,350.338379 
	C128.691208,330.040985 148.404007,316.444000 171.293198,307.442627 
	C178.212708,304.721436 185.409698,303.299316 192.929077,308.196045 
	C194.813202,310.378632 196.120056,312.159882 197.095062,313.776520 
	C195.412567,312.650421 194.061935,311.688904 192.285492,310.374207 
	C188.754318,308.018524 187.484436,308.903076 188.302979,312.448608 
	C190.040863,319.976471 188.725403,327.226562 184.930405,333.594910 
	C180.547867,340.949188 175.660538,348.151459 170.043320,354.591919 
	C155.975388,370.721619 138.515045,382.327209 118.482491,390.757385 
	C113.711838,391.089478 109.366264,391.429810 104.726242,391.793182 
	C109.515541,401.330719 117.925369,405.813873 128.422455,408.148193 
	C133.040054,407.537354 137.927719,407.866791 141.302826,405.766083 
	C151.540497,399.394135 161.688034,392.674500 170.924866,384.958160 
	C179.115585,378.115723 186.041031,369.758759 194.038757,361.542572 
	C189.663773,358.412079 186.277649,355.989136 182.891525,353.566223 
	C183.188812,353.095245 183.486115,352.624268 183.783401,352.153290 
	C187.417755,354.330414 191.052109,356.507538 195.417831,359.122772 
	C198.487061,353.757385 201.913589,348.482147 204.624710,342.861786 
	C208.769440,334.269440 207.744049,326.113617 201.111267,318.543671 
	C199.730301,316.717285 198.472412,315.227509 197.496246,313.323212 
	C204.143417,316.017151 205.903168,322.521210 208.956894,328.071289 
	C210.837097,341.412750 203.305237,351.232880 196.239746,361.038086 
	C187.358566,373.362976 176.708664,384.074799 164.661560,393.367554 
	C163.760788,394.062378 162.945328,394.867798 161.290253,396.327209 
	C164.118759,397.060577 166.232361,397.591339 168.336533,398.157074 
	C177.920456,400.733826 185.190826,406.119781 189.649689,415.046875 
	C190.061523,414.685791 190.002502,414.475616 190.002502,414.475616 
M74.040512,451.579926 
	C74.333771,451.784515 74.627037,451.989105 75.287773,452.756653 
	C78.617363,454.520813 81.761436,456.962830 85.308182,457.933502 
	C101.980194,462.496246 118.908813,461.107788 135.767807,459.140656 
	C142.079636,458.404205 148.300537,456.888397 155.187439,455.612244 
	C153.654541,450.826691 152.430145,447.004303 151.205765,443.181915 
	C151.735916,442.962799 152.266068,442.743683 152.796219,442.524567 
	C154.361481,446.514374 155.926743,450.504211 157.696411,455.015076 
	C162.146576,453.386505 166.598389,451.679199 171.102295,450.122620 
	C190.603561,443.382935 190.170425,422.947540 183.787338,410.319458 
	C183.356369,410.485229 182.925400,410.650970 182.285522,411.468201 
	C177.421082,424.206696 166.536850,429.351135 154.641602,432.764801 
	C129.255508,440.049988 103.802887,439.615601 77.830589,432.125977 
	C73.791367,429.575806 69.752151,427.025604 65.502190,424.342377 
	C64.356140,434.477173 65.616760,443.833710 74.040512,451.579926 
M109.332855,421.274506 
	C107.712639,423.564636 106.702377,423.096924 106.449875,420.526489 
	C106.180069,417.779999 106.122406,415.012634 105.938652,411.639740 
	C108.181526,409.947876 111.040268,407.791412 113.899010,405.634979 
	C113.708778,405.213379 113.518547,404.791779 113.328316,404.370178 
	C111.062950,405.460419 108.763504,406.486603 106.545700,407.666229 
	C105.319801,408.318268 104.275215,409.304840 103.067757,409.999603 
	C101.790550,410.734467 99.258568,411.353058 99.284210,411.933655 
	C99.400993,414.577759 99.802658,417.393677 100.933922,419.747986 
	C101.779991,421.508820 103.894928,422.659943 106.265518,424.835785 
	C109.470367,424.343140 114.029495,423.009064 118.562027,423.093964 
	C125.367622,423.221497 132.356903,421.235687 139.065155,424.644409 
	C140.271011,425.257141 142.809143,423.539642 144.592529,422.625610 
	C145.861832,421.975067 147.216690,421.073517 147.962112,419.916046 
	C149.101395,418.147034 150.120819,416.120605 150.448807,414.083923 
	C150.617218,413.038239 149.454254,411.249268 148.405396,410.650848 
	C146.456909,409.539215 144.151169,409.053802 141.801361,408.240997 
	C141.919571,409.900482 142.018646,411.291260 142.141495,413.015961 
	C140.782089,411.504272 139.692017,410.292114 138.601959,409.079926 
	C138.328400,409.282349 138.054840,409.484772 137.781296,409.687195 
	C138.079575,411.833954 138.377869,413.980713 138.746002,416.630127 
	C134.532593,416.630127 130.996353,416.630127 127.029167,416.630127 
	C127.029167,414.387238 127.029167,412.380035 127.029167,409.704224 
	C125.700996,410.693329 124.989243,411.223358 124.275261,411.747925 
	C120.959229,408.028473 115.251740,406.529968 111.972527,408.960510 
	C108.614853,411.449219 107.436768,414.908722 109.400261,419.507141 
	C109.569260,419.993225 109.738266,420.479340 109.332855,421.274506 
M103.045143,383.538483 
	C103.176804,388.559357 104.492493,389.786865 110.105492,389.780365 
	C117.714890,389.771545 124.176872,386.337891 130.570374,382.736969 
	C151.871780,370.739594 170.154419,355.511230 182.336395,333.889618 
	C186.073883,327.255951 188.165680,320.203217 186.079941,312.420044 
	C185.769135,311.260254 186.606506,309.792786 187.033707,307.943970 
	C182.624863,306.010803 177.550674,307.310760 172.859192,309.109070 
	C153.343552,316.589783 136.275223,327.862640 122.414345,343.592133 
	C112.511444,354.830048 105.180733,367.498444 103.045143,383.538483 
M88.726639,425.971802 
	C80.706558,421.886932 80.314888,416.657684 87.883125,411.685974 
	C90.900742,409.703644 94.242752,408.102936 97.621849,406.812134 
	C101.652199,405.272491 105.880829,404.251953 110.094261,402.985291 
	C107.529602,398.830383 104.745857,398.255585 100.600967,399.707275 
	C89.406517,403.627960 78.520081,407.885468 70.026573,416.641785 
	C67.590141,419.153595 66.476021,421.667877 69.774681,424.044861 
	C73.209099,426.519623 76.659691,429.554016 80.580399,430.675720 
	C103.028809,437.097839 125.762207,437.738037 148.486832,432.140808 
	C161.706573,428.884674 174.494186,424.670685 180.536148,410.553131 
	C180.824860,409.878540 181.957138,409.565002 183.000214,408.885559 
	C176.811447,403.077728 169.473129,400.848328 161.833588,398.966644 
	C158.123917,398.052948 156.078705,399.326477 154.027725,401.933441 
	C157.641922,403.137512 161.078018,403.855286 164.107285,405.380859 
	C170.285583,408.492371 170.829636,414.663757 165.442764,419.003448 
	C163.793610,420.332001 161.824432,421.497070 159.811081,422.097626 
	C152.679459,424.224792 145.568192,426.699158 138.261581,427.903778 
	C121.944504,430.593933 105.562080,431.243591 88.726639,425.971802 
z"/>
<path fill="#181818" opacity="1.000000" stroke="none" 
	d="
M190.050613,414.922180 
	C190.002502,414.475616 190.061523,414.685791 190.082565,414.718994 
	C184.417755,395.089447 197.072647,378.363068 217.835281,377.923523 
	C244.722992,377.354279 267.746124,387.466888 288.367126,403.734253 
	C294.574341,408.630981 300.120514,414.469025 305.446716,420.349396 
	C310.498871,425.927307 311.345917,432.778381 309.034271,439.923706 
	C305.921661,449.544830 301.504395,458.658936 290.979034,461.438019 
	C285.095032,462.991608 278.331451,462.811981 272.253326,461.753510 
	C247.029236,457.360779 223.993362,447.417267 203.220947,432.429291 
	C197.224701,428.102814 192.268723,422.749023 190.050613,414.922180 
M192.832108,415.820343 
	C195.243134,419.515839 196.943161,424.064545 200.183487,426.764923 
	C217.888275,441.519562 238.437698,450.778503 260.993622,457.115479 
	C262.017029,452.685638 262.930420,448.732117 263.843811,444.778595 
	C264.387024,444.898743 264.930237,445.018890 265.473450,445.139038 
	C264.851746,449.243225 264.230042,453.347412 263.591858,457.560364 
	C266.048981,458.171265 268.578796,459.014618 271.176788,459.411652 
	C289.282990,462.178650 298.165771,460.059418 304.979370,444.085327 
	C306.533173,440.442505 306.963379,436.320465 307.910736,432.418976 
	C307.436676,432.260071 306.962616,432.101166 306.488586,431.942291 
	C299.797211,437.278259 292.096252,439.510895 283.741241,438.969849 
	C270.310242,438.100128 257.778046,433.730072 245.650391,428.206604 
	C230.441650,421.279907 216.944473,411.793701 204.796051,399.557526 
	C201.760208,404.347473 199.000488,408.798065 196.109055,413.161346 
	C195.669312,413.824951 194.618774,414.083740 193.809494,413.724304 
	C196.955032,408.580597 200.100555,403.436890 203.323181,398.167114 
	C202.041748,394.922272 200.454132,390.902039 198.671860,386.388947 
	C192.201538,395.202667 188.953003,404.365295 192.832108,415.820343 
M213.594711,404.912384 
	C228.843201,417.821930 245.828461,427.619049 265.101593,433.117432 
	C274.340332,435.753143 283.761871,438.534882 293.430359,435.815857 
	C298.346313,434.433350 302.934296,431.884491 308.470642,429.521362 
	C305.670807,425.288666 303.627319,420.736725 300.325592,417.447937 
	C280.574005,397.773895 257.661987,383.744995 229.400711,380.472687 
	C219.878998,379.370178 210.189514,379.460480 201.488373,384.288330 
	C201.493317,393.447327 207.024841,399.089661 213.594711,404.912384 
z"/>
<path fill="#1D1D1D" opacity="1.000000" stroke="none" 
	d="
M467.531006,212.981583 
	C465.669281,223.673111 462.748383,233.630875 455.122803,241.131424 
	C451.092682,245.095474 445.880920,247.858170 440.812531,251.438797 
	C441.536194,266.974731 430.668182,278.738739 417.391785,274.936707 
	C418.827606,274.605774 420.248169,274.166565 421.701752,273.961426 
	C431.328888,272.602692 438.480103,264.979126 438.723328,255.489532 
	C438.777252,253.385635 439.322998,250.526871 435.566406,250.563293 
	C432.587219,250.592209 430.132416,249.380478 430.013641,246.168671 
	C429.968536,244.948563 432.027161,242.469437 432.465454,242.611069 
	C434.723206,243.340683 436.797272,244.683670 438.861084,245.935181 
	C439.354706,246.234497 439.564270,247.002197 440.129730,247.920090 
	C458.213654,241.672348 462.868317,226.317627 467.059723,209.974258 
	C467.237823,210.842010 467.415894,211.709763 467.531006,212.981583 
z"/>
<path fill="#181818" opacity="1.000000" stroke="none" 
	d="
M70.356613,90.739319 
	C68.656685,87.741676 65.833031,84.648018 66.317986,82.213417 
	C66.815620,79.715195 70.192703,76.891365 72.925056,75.890831 
	C85.759331,71.191185 104.250450,76.854187 112.119263,88.216225 
	C110.753944,87.438622 109.295280,86.787895 108.038177,85.863182 
	C98.632568,78.944481 88.596375,74.232750 76.526741,77.113792 
	C72.561829,78.060226 67.865196,78.726997 68.153214,84.449425 
	C68.342728,88.214645 73.459335,90.916061 78.955971,89.887825 
	C81.791412,89.357407 84.445343,87.763618 87.122879,86.524132 
	C88.336388,85.962379 89.407776,85.093651 91.558723,83.712273 
	C87.353493,91.391144 78.667702,93.958000 70.356613,90.739319 
z"/>
<path fill="#181818" opacity="1.000000" stroke="none" 
	d="
M128.282501,49.295368 
	C128.659439,48.337749 129.306641,47.606487 129.149597,47.154980 
	C128.129913,44.223518 126.935318,41.352905 125.797997,38.462368 
	C123.606766,39.922924 120.724152,40.913074 119.351479,42.930569 
	C114.895142,49.480221 116.651695,58.645271 123.061340,64.511223 
	C125.165039,66.436478 127.511772,68.096169 130.301620,70.318886 
	C123.546722,70.129341 116.028099,61.927689 114.924660,54.522472 
	C113.842499,47.260063 116.706520,39.969646 121.752411,36.966972 
	C125.563980,34.698814 127.997375,36.375961 129.909180,39.687145 
	C132.554306,44.268414 132.356262,48.606152 129.372437,50.332256 
	C129.173248,50.447491 128.587021,49.893711 128.282501,49.295368 
z"/>
<path fill="#181818" opacity="1.000000" stroke="none" 
	d="
M189.649979,277.125183 
	C189.779495,272.652405 189.779495,268.573944 189.779495,264.495453 
	C189.178711,264.817413 188.577911,265.139374 187.977127,265.461304 
	C186.021240,264.096558 184.065353,262.731781 182.109467,261.367004 
	C183.986710,260.258881 185.863953,259.150787 187.741196,258.042664 
	C188.075073,258.370911 188.408951,258.699188 188.742828,259.027435 
	C192.072433,252.221039 188.084137,246.217133 186.681824,239.471008 
	C187.385101,240.077911 188.391602,240.545822 188.743637,241.313736 
	C191.546982,247.428757 193.754807,253.586563 190.777466,260.418976 
	C190.243240,261.644958 190.900833,263.515839 191.309830,265.006134 
	C193.388367,272.580017 192.335587,279.609985 187.368286,284.340576 
	C188.085678,282.066864 188.803070,279.793182 189.649979,277.125183 
z"/>
<path fill="#EDEDEE" opacity="1.000000" stroke="none" 
	d="
M341.052063,311.130066 
	C342.930786,315.502380 341.339935,318.418488 337.644287,319.808167 
	C333.392975,321.406799 329.445435,319.035309 328.503510,314.927338 
	C327.878204,312.200195 330.986237,307.189575 333.985077,307.369446 
	C336.346100,307.511108 338.591949,309.571747 341.052063,311.130066 
z"/>
<path fill="#1D1D1D" opacity="1.000000" stroke="none" 
	d="
M312.115662,364.207092 
	C310.610931,366.168030 309.251770,367.794556 307.000122,370.489136 
	C308.920929,359.574799 332.701233,338.887299 341.668365,339.736542 
	C330.185913,345.799072 319.967957,353.354034 312.115662,364.207092 
z"/>
<path fill="#DBDBDB" opacity="1.000000" stroke="none" 
	d="
M197.426926,313.941101 
	C196.120056,312.159882 194.813202,310.378632 193.287262,308.280212 
	C196.422668,308.288239 199.777145,308.613464 203.503036,308.957642 
	C205.928848,314.718140 207.983231,320.459656 210.080765,326.568726 
	C209.832031,327.156067 209.540146,327.375916 209.102585,327.833496 
	C205.903168,322.521210 204.143417,316.017151 197.540070,313.346558 
	C197.302155,313.784485 197.426926,313.941101 197.426926,313.941101 
z"/>
<path fill="#262335" opacity="1.000000" stroke="none" 
	d="
M211.460815,450.480713 
	C210.503891,451.268219 209.396515,451.997742 208.247894,452.069733 
	C203.128052,452.390839 197.997406,452.558960 192.868408,452.700958 
	C191.552338,452.737427 190.228043,452.477509 188.907532,452.353729 
	C188.913437,451.609161 188.919342,450.864594 188.925247,450.120026 
	C196.380615,450.120026 203.835999,450.120026 211.460815,450.480713 
z"/>
<path fill="#181818" opacity="1.000000" stroke="none" 
	d="
M113.554642,71.463425 
	C115.289803,72.896820 116.757919,74.096054 118.226044,75.295296 
	C117.786140,75.838448 117.346237,76.381599 116.906334,76.924751 
	C113.400230,74.128922 109.894119,71.333092 106.388008,68.537270 
	C106.744896,68.022751 107.101784,67.508232 107.458672,66.993721 
	C109.401657,68.405571 111.344635,69.817421 113.554642,71.463425 
z"/>
<path fill="#181818" opacity="1.000000" stroke="none" 
	d="
M194.651001,461.368958 
	C190.189468,460.421295 186.046204,459.259247 181.902924,458.097229 
	C182.048752,457.603851 182.194565,457.110474 182.340378,456.617096 
	C186.704147,457.595490 191.481247,457.141815 194.651001,461.368958 
z"/>
<path fill="#FDFDFD" opacity="1.000000" stroke="none" 
	d="
M330.624084,23.381865 
	C349.007385,19.176731 364.662262,23.422377 377.396423,36.831181 
	C389.195801,49.255718 394.929047,64.402992 395.985931,81.403748 
	C396.093903,83.140053 396.159149,84.879005 396.278473,87.317192 
	C408.239044,80.548775 417.708527,84.902367 426.391418,92.196556 
	C445.745911,108.455589 454.959961,129.913879 458.049896,154.525497 
	C459.764954,168.186279 460.055115,181.733673 455.869995,195.005219 
	C453.721893,201.817032 449.959747,207.636795 443.519470,211.303711 
	C437.090302,214.964310 431.168091,211.762619 431.177307,204.401794 
	C431.182709,200.102661 432.181793,195.803406 432.169098,191.505859 
	C432.114471,172.984680 425.525482,157.760300 408.889923,148.230316 
	C399.704651,142.968369 389.478363,144.715317 379.557739,145.089050 
	C371.383362,145.396973 363.214844,145.881424 355.730072,141.665146 
	C349.506683,138.159409 345.201111,133.214783 343.886993,125.920387 
	C343.507172,123.811989 342.405823,121.833565 340.939484,117.955269 
	C339.586365,124.121071 336.577881,122.683319 333.664642,122.059601 
	C323.315247,119.843803 317.803375,112.768623 314.012146,103.475334 
	C310.914337,95.881714 312.678009,89.005661 316.399780,81.761993 
	C312.692871,83.552917 311.386261,86.092659 310.103485,92.900490 
	C309.556610,95.802940 311.052490,99.114540 307.447266,101.359344 
	C302.758728,104.278694 297.797363,106.523773 292.447784,105.212097 
	C287.493866,103.997429 282.880249,101.394882 277.269257,99.049217 
	C271.336823,105.980484 263.022034,111.000862 251.624512,110.083542 
	C240.048569,109.151863 232.104309,104.444878 230.189560,91.727974 
	C229.600021,92.117638 229.010483,92.507301 228.420944,92.896957 
	C229.304794,95.742821 229.701492,98.883812 231.199966,101.357330 
	C232.940659,104.230698 232.589447,106.380768 231.140839,109.104080 
	C226.077560,118.622704 213.027603,124.594337 202.685944,118.355980 
	C201.342468,117.545555 199.695694,117.237907 199.176147,117.051468 
	C196.863922,123.437378 195.058960,129.503922 192.422073,135.184250 
	C191.333893,137.528397 188.691238,139.423782 186.346741,140.852203 
	C182.123062,143.425522 178.588837,142.192535 175.943634,138.079346 
	C174.469818,135.787643 172.645126,133.721603 170.505249,130.938187 
	C170.136963,132.475098 169.792618,133.053848 169.956467,133.364639 
	C171.222900,135.766815 173.850739,138.229492 173.652374,140.459549 
	C173.269333,144.765778 172.065308,149.393204 169.833359,153.053024 
	C166.002731,159.334244 156.629196,161.773392 149.304703,159.430420 
	C132.614563,154.091553 121.620567,135.819046 124.153770,117.628487 
	C126.441307,101.201935 141.959442,87.773064 159.145248,86.968292 
	C168.670731,86.522224 177.632614,87.938759 186.200760,93.857224 
	C186.514099,88.660759 186.615784,84.285034 187.066696,79.945587 
	C189.482239,56.697891 208.231812,35.314056 230.896225,29.836914 
	C251.037079,24.969618 274.732117,35.448380 285.556213,54.012024 
	C286.133179,55.001545 286.690063,56.002758 287.732605,57.836113 
	C297.994080,41.021687 311.392853,28.780109 330.624084,23.381865 
M427.948517,125.776711 
	C427.100189,125.403404 426.251862,125.030106 426.189606,125.002716 
	C432.545135,135.149261 439.061157,145.552048 445.307404,155.524094 
	C445.411407,148.953293 438.384827,136.500275 427.948517,125.776711 
M343.847900,40.839310 
	C341.415222,40.902157 338.982544,40.965000 336.549866,41.027847 
	C336.442291,41.705093 336.334747,42.382339 336.227203,43.059586 
	C351.175903,41.722240 361.694305,48.349003 369.116089,62.158657 
	C369.193390,52.651432 355.391998,41.733437 343.847900,40.839310 
M136.910004,128.170929 
	C137.649246,130.187393 138.388504,132.203873 139.127747,134.220337 
	C139.698288,134.085983 140.268829,133.951614 140.839386,133.817261 
	C137.699615,127.070839 138.764587,120.837128 142.756866,114.874817 
	C137.626984,117.685349 136.493607,122.149200 136.910004,128.170929 
z"/>
<path fill="#FDFDFD" opacity="1.000000" stroke="none" 
	d="
M377.672638,181.212555 
	C376.974945,185.896515 375.826538,190.567764 375.694092,195.267639 
	C375.529968,201.091660 378.093842,205.988297 383.574249,208.509094 
	C389.169434,211.082703 394.545135,209.812134 399.438354,206.280045 
	C400.375000,205.603958 401.251892,204.845108 402.780029,204.045349 
	C403.815521,203.994629 404.227325,204.023010 404.639099,204.051392 
	C405.032928,207.485397 404.986969,211.043518 405.913666,214.327118 
	C407.744141,220.813034 412.302551,224.173706 420.158417,224.164429 
	C387.690735,249.960419 355.691986,275.141632 327.201477,305.872253 
	C326.642456,295.359924 324.717865,286.304199 319.579346,278.103241 
	C314.439911,269.900787 307.908081,263.232117 299.342560,258.757294 
	C296.762085,257.409180 296.636993,255.870483 297.372284,253.575714 
	C303.833923,233.410172 310.235779,213.225266 316.802277,193.094025 
	C317.292511,191.591156 318.801910,190.334412 320.037323,189.176361 
	C324.564270,184.932907 329.175690,180.779572 334.337280,176.496704 
	C336.514252,176.426956 338.109283,176.452789 339.704285,176.478638 
	C347.855560,191.772171 364.990509,191.145370 376.304077,181.317291 
	C377.187164,181.198898 377.429901,181.205734 377.672638,181.212555 
M326.641998,188.183289 
	C324.379822,189.910995 322.117676,191.638702 319.855499,193.366425 
	C319.997681,193.710068 320.139862,194.053726 320.282043,194.397385 
	C332.107147,194.397385 343.932251,194.397385 355.757385,194.397385 
	C355.159515,192.590607 354.307587,191.573181 353.225403,191.162598 
	C347.698090,189.065582 342.732849,186.377228 339.258972,181.252792 
	C338.740540,180.487976 335.498383,180.652695 334.254517,181.487442 
	C331.669861,183.221939 329.580322,185.694260 326.641998,188.183289 
z"/>
<path fill="#F8F8F8" opacity="1.000000" stroke="none" 
	d="
M290.001190,341.342407 
	C290.999054,339.456085 291.996918,337.569794 293.643005,334.458191 
	C291.319000,335.852509 289.889526,336.639252 288.532288,337.535339 
	C272.376770,348.201447 255.153519,351.922424 236.542816,345.040222 
	C210.421982,335.380798 198.936203,308.458344 209.839279,282.916595 
	C220.839554,257.147125 251.017319,242.657074 277.854126,250.258804 
	C309.582336,259.246063 322.000946,295.320282 302.947876,323.170502 
	C302.102905,324.405579 301.183777,325.589905 299.865051,327.262390 
	C297.328461,329.997467 295.226074,332.268066 293.123657,334.538666 
	C293.578125,334.957428 294.032562,335.376190 294.487030,335.794952 
	C296.742004,333.275574 298.996979,330.756195 301.251953,328.236816 
	C304.161987,324.271942 307.072052,320.307098 310.588837,315.515594 
	C313.492035,318.106750 316.703003,320.972626 320.066895,323.974976 
	C314.544586,334.624908 306.681519,342.008698 295.553741,347.585205 
	C293.917297,345.613342 292.227295,343.576996 290.182190,341.423370 
	C289.827087,341.306091 290.001190,341.342407 290.001190,341.342407 
M218.078629,284.866821 
	C215.006165,294.125732 214.020844,303.429077 217.879028,312.706757 
	C225.699005,331.511261 245.460785,340.496185 266.679474,333.938538 
	C287.912109,327.376617 301.369965,307.518768 294.624481,284.256744 
	C290.084564,268.600494 277.014862,259.589691 260.387024,258.869720 
	C241.171112,258.037689 226.935333,266.660126 218.078629,284.866821 
z"/>
<path fill="#FBFBFB" opacity="1.000000" stroke="none" 
	d="
M248.940399,193.024658 
	C253.030655,194.908051 257.120911,196.791428 261.856506,198.820831 
	C263.147797,199.033707 263.793732,199.100571 264.439667,199.167435 
	C265.989532,214.653351 267.539429,230.139252 269.006561,244.798447 
	C259.625000,246.563690 251.317780,247.212128 243.681305,249.822662 
	C236.146744,252.398361 229.290894,256.959442 222.582611,260.419830 
	C215.929932,245.866623 208.888245,230.462448 201.793015,214.941162 
	C213.503677,220.743118 225.275208,219.778992 236.302536,211.974655 
	C242.566147,207.541718 246.094208,201.323685 247.515900,193.440308 
	C248.127579,193.080292 248.533997,193.052475 248.940399,193.024658 
M247.727798,217.541855 
	C244.210602,215.022415 240.648376,214.899048 237.642181,218.109253 
	C235.299591,220.610809 235.179749,224.275864 237.931091,225.961533 
	C240.314346,227.421661 244.464661,228.135864 246.802200,227.019455 
	C250.115967,225.436844 250.861176,221.665253 247.727798,217.541855 
z"/>
<path fill="#FCFCFC" opacity="1.000000" stroke="none" 
	d="
M293.573578,181.030243 
	C298.725830,188.152802 305.599945,191.757080 314.827698,191.007233 
	C307.967438,212.680634 301.211548,234.024185 294.620300,254.847687 
	C286.745026,251.861465 278.793732,248.846420 271.113464,245.934143 
	C269.782043,231.196838 268.410156,216.011230 267.012268,200.163696 
	C267.355682,199.122116 267.725128,198.742432 268.094543,198.362762 
	C278.246979,196.777908 284.417145,190.361084 289.196106,181.252792 
	C291.075531,181.019562 292.324554,181.024902 293.573578,181.030243 
z"/>
<path fill="#F3F3F3" opacity="1.000000" stroke="none" 
	d="
M324.820435,306.739136 
	C323.736542,312.124664 322.675323,317.055115 321.579224,322.147644 
	C317.674011,318.725647 314.488922,315.934662 311.856232,313.627747 
	C312.732056,303.730560 313.592529,294.006989 314.471985,284.068665 
	C318.051147,285.366791 322.578796,286.827240 323.376129,292.522064 
	C324.015442,297.088348 324.365021,301.695160 324.820435,306.739136 
z"/>
<path fill="#EDEDEE" opacity="1.000000" stroke="none" 
	d="
M289.735870,341.781250 
	C290.001190,341.342407 289.827087,341.306091 289.842560,341.259155 
	C289.908508,342.051178 289.636505,343.164673 290.071777,343.675934 
	C291.231140,345.037628 292.694977,346.140106 294.663788,347.907684 
	C280.162170,354.298706 266.196747,355.467987 250.637161,350.963013 
	C256.450378,350.298706 261.292877,350.269562 265.840302,349.096497 
	C271.882477,347.537842 277.666412,345.000305 283.622192,343.071472 
	C285.469788,342.473114 287.515533,342.486694 289.735870,341.781250 
z"/>
<path fill="#262335" opacity="1.000000" stroke="none" 
	d="
M278.250458,165.966888 
	C283.560272,166.045120 287.907684,169.771805 287.959320,173.928131 
	C288.001465,177.321228 284.018799,181.685074 280.595093,181.997177 
	C275.494629,182.462143 271.933441,180.088806 271.015778,175.613144 
	C270.097473,171.134171 272.913605,167.148651 278.250458,165.966888 
z"/>
<path fill="#262335" opacity="1.000000" stroke="none" 
	d="
M313.035706,168.925812 
	C314.339661,169.888077 315.638336,170.857605 316.948944,171.810715 
	C318.459015,172.908875 319.979614,173.992538 321.860474,174.161942 
	C320.632294,172.190796 319.404144,170.219635 318.175964,168.248474 
	C319.846161,167.726837 321.516357,167.205185 323.186523,166.683533 
	C323.337128,167.137192 323.487701,167.590851 323.638275,168.044495 
	C322.672852,168.561768 321.707458,169.079056 320.434906,169.760895 
	C322.764893,171.493530 324.581390,172.141190 326.995758,169.878387 
	C327.819763,169.106125 331.014435,169.237778 331.277130,169.808090 
	C331.965271,171.301834 332.002747,173.376282 331.518066,174.983643 
	C331.337769,175.581558 328.990845,175.680069 327.620911,175.735992 
	C323.809326,175.891586 319.992035,175.917206 316.176636,175.960098 
	C315.705933,175.965393 315.232880,175.764175 314.492035,175.598541 
	C314.210541,174.268906 313.919495,172.894302 313.411652,170.495544 
	C312.211243,172.609299 311.480469,173.896164 310.749664,175.183029 
	C310.391510,175.090652 310.033325,174.998291 309.675171,174.905914 
	C310.193359,172.980621 310.711548,171.055344 311.869354,169.046173 
	C312.684540,168.950119 312.860138,168.937973 313.035706,168.925812 
z"/>
<path fill="#DBDBDB" opacity="1.000000" stroke="none" 
	d="
M339.639709,176.189056 
	C338.109283,176.452789 336.514252,176.426956 334.551483,176.231598 
	C335.013062,172.666718 336.299286,169.307846 336.574097,165.868149 
	C337.102325,159.256470 337.069519,152.599304 337.242920,145.960327 
	C337.292358,144.067703 337.250458,142.172684 337.250458,139.889313 
	C341.104736,143.628601 341.286835,160.179031 337.740479,172.488098 
	C337.097595,172.887848 336.726410,172.982697 336.355255,173.077545 
	C337.025574,173.349854 337.695892,173.622147 338.366211,173.894455 
	C338.769196,174.562790 339.172150,175.231125 339.639709,176.189056 
z"/>
<path fill="#EDEDEE" opacity="1.000000" stroke="none" 
	d="
M293.456085,180.672470 
	C292.324554,181.024902 291.075531,181.019562 289.451508,181.020416 
	C289.209991,180.455719 289.343475,179.884811 289.896301,179.080566 
	C290.397400,178.760315 290.565216,178.631378 290.546692,178.593536 
	C290.447815,178.391251 290.302368,178.211746 290.173035,178.024368 
	C289.802094,173.944901 289.857391,169.769409 288.964874,165.807434 
	C287.451538,159.089355 285.355560,152.501587 283.465546,145.870163 
	C283.134796,144.709702 282.613007,143.603699 282.179443,142.472549 
	C282.567352,142.214432 282.955231,141.956299 283.343109,141.698181 
	C284.184998,142.758530 285.256531,143.707718 285.832275,144.896927 
	C290.232788,153.986618 292.162445,163.601639 292.007477,173.705704 
	C291.973816,175.901367 292.870453,178.111328 293.456085,180.672470 
z"/>
<path fill="#E1E1E1" opacity="1.000000" stroke="none" 
	d="
M377.969788,181.110107 
	C377.429901,181.205734 377.187164,181.198898 376.587799,181.117859 
	C382.865631,171.170319 389.489563,161.289871 396.171356,151.448715 
	C396.450195,151.038025 397.269135,150.994003 398.354156,151.221802 
	C393.024200,162.108170 386.540710,172.145370 377.969788,181.110107 
z"/>
<path fill="#1D1D1D" opacity="1.000000" stroke="none" 
	d="
M219.955109,180.032562 
	C219.965729,184.357910 220.118958,188.689224 219.938293,193.006561 
	C219.811798,196.029205 220.871063,197.130875 223.942535,197.048294 
	C230.561508,196.870300 237.188583,196.993591 243.828522,197.992859 
	C237.370972,197.992859 230.907227,198.162094 224.458374,197.925247 
	C220.955063,197.796585 219.731277,198.970444 219.930405,202.467545 
	C220.183578,206.913330 219.991684,211.384445 218.992203,215.859055 
	C218.992203,211.372025 218.787415,206.872665 219.056854,202.401871 
	C219.273300,198.810547 217.868454,197.774414 214.458847,197.927032 
	C209.347626,198.155792 204.218597,197.986511 199.096252,197.002670 
	C204.151260,197.002670 209.209763,196.888184 214.260025,197.042984 
	C217.619324,197.145950 219.196289,195.956757 219.040146,192.430969 
	C218.871033,188.612442 219.013855,184.780090 219.256134,180.485229 
	C219.491638,180.016693 219.955109,180.032562 219.955109,180.032562 
z"/>
<path fill="#DBDBDB" opacity="1.000000" stroke="none" 
	d="
M248.914764,192.622559 
	C248.533997,193.052475 248.127579,193.080292 247.422241,193.043869 
	C245.844452,189.173676 244.830765,185.251129 243.220932,181.590744 
	C241.112701,176.797043 238.533722,172.210373 236.157654,167.534439 
	C240.817490,167.880081 244.331070,174.693100 248.914764,192.622559 
z"/>
<path fill="#121212" opacity="1.000000" stroke="none" 
	d="
M265.101990,161.107361 
	C264.782776,150.995529 264.782776,150.995361 254.692856,150.995163 
	C244.234406,150.994949 233.775955,150.995117 223.317520,150.995117 
	C223.311142,150.685303 223.304764,150.375488 223.298401,150.065674 
	C236.975616,150.065674 250.652832,150.065674 264.614349,150.065674 
	C264.852966,147.367416 265.037384,145.282227 265.221771,143.197052 
	C265.365936,143.183304 265.510101,143.169556 265.654266,143.155807 
	C265.901245,145.252579 266.148224,147.349365 266.451172,149.921478 
	C272.071045,149.921478 277.485596,149.921478 282.900177,149.921478 
	C282.899261,150.279785 282.898346,150.638077 282.897430,150.996384 
	C279.182831,150.996384 275.440369,151.282410 271.760742,150.923706 
	C267.202515,150.479340 265.230316,152.019409 265.970367,156.685211 
	C266.150238,157.819397 265.975861,159.009766 265.734680,160.623413 
	C265.505005,161.072510 265.101990,161.107361 265.101990,161.107361 
z"/>
<path fill="#DBDBDB" opacity="1.000000" stroke="none" 
	d="
M404.806274,203.738892 
	C404.227325,204.023010 403.815521,203.994629 403.095520,203.928101 
	C407.708191,195.943573 412.629059,187.997177 417.549927,180.050781 
	C418.135956,180.425232 418.721954,180.799683 419.307953,181.174133 
	C415.654938,189.257660 410.746613,196.598022 404.806274,203.738892 
z"/>
<path fill="#EDEDEE" opacity="1.000000" stroke="none" 
	d="
M311.743896,279.318665 
	C309.865356,275.340881 308.150757,271.708649 305.928497,267.001007 
	C313.471161,270.949982 316.596588,277.368317 319.594086,284.328918 
	C317.031982,282.774017 314.469910,281.219147 311.743896,279.318665 
z"/>
<path fill="#262335" opacity="1.000000" stroke="none" 
	d="
M296.417969,175.904510 
	C295.550079,174.238510 294.333344,172.393280 294.789001,171.172104 
	C295.226959,169.998367 297.396423,169.470734 298.805054,168.659195 
	C299.265411,169.220154 299.725739,169.781113 300.186096,170.342072 
	C298.879120,170.766861 297.572174,171.191666 296.265198,171.616470 
	C296.521942,172.192566 296.778656,172.768677 297.035370,173.344788 
	C298.101654,173.454742 299.512634,174.034653 300.153503,173.564606 
	C301.116638,172.858185 301.280090,170.974533 302.258728,170.397919 
	C303.507935,169.661926 305.423279,169.179993 306.687286,169.624405 
	C307.688965,169.976593 308.971497,172.219742 308.647400,173.031784 
	C308.142609,174.296646 306.481567,175.688416 305.131561,175.903580 
	C302.418427,176.336014 299.584503,176.010757 296.417969,175.904510 
z"/>
<path fill="#262335" opacity="1.000000" stroke="none" 
	d="
M349.218384,168.412704 
	C351.863831,168.015549 353.063477,168.613571 352.381439,171.306366 
	C352.039459,172.656631 352.321838,174.165009 351.123779,176.276169 
	C350.185272,174.644943 349.246796,173.013733 348.272858,171.320923 
	C348.081573,172.532394 347.857056,173.954132 347.643799,175.304565 
	C340.882172,177.361481 340.137604,176.632111 341.814026,168.461121 
	C342.626892,170.722763 343.115204,172.081406 343.459259,173.038651 
	C345.202332,171.602692 347.034821,170.093048 349.218384,168.412704 
z"/>
<path fill="#1D1D1D" opacity="1.000000" stroke="none" 
	d="
M319.333710,178.612946 
	C320.954254,178.943497 322.215210,179.129471 324.920563,179.528473 
	C322.425385,180.206650 321.180573,180.998276 320.237122,180.730026 
	C312.335480,178.483322 312.460114,183.593048 312.223511,188.865463 
	C312.085693,186.557373 311.947845,184.249268 311.783813,181.502380 
	C309.713593,181.214081 307.675781,180.930283 304.431335,180.478424 
	C309.603363,176.388672 314.549133,179.190857 319.333710,178.612946 
z"/>
<path fill="#262335" opacity="1.000000" stroke="none" 
	d="
M265.089813,161.565186 
	C265.101990,161.107361 265.505005,161.072510 265.705688,161.086884 
	C265.930145,171.502090 265.874115,181.904282 266.054016,192.302414 
	C266.084961,194.091248 267.119568,195.862701 267.892517,198.002472 
	C267.725128,198.742432 267.355682,199.122116 266.894897,199.754089 
	C266.225128,199.757462 265.646790,199.508545 264.754028,199.213531 
	C263.793732,199.100571 263.147797,199.033707 262.224854,198.795502 
	C265.052002,196.809952 265.118073,193.914383 265.078125,190.744293 
	C264.957550,181.172043 265.061310,171.596970 265.089813,161.565186 
z"/>
<path fill="#121212" opacity="1.000000" stroke="none" 
	d="
M313.021454,168.464996 
	C312.860138,168.937973 312.684540,168.950119 312.244781,168.962463 
	C311.989166,164.483810 311.826050,159.995880 312.062225,155.529068 
	C312.241547,152.137146 311.196777,150.753754 307.610229,150.924637 
	C302.174469,151.183609 296.717255,150.992294 291.265503,150.342346 
	C300.134766,150.342346 309.004059,150.342346 319.380951,150.342346 
	C316.456360,150.890839 314.972107,151.169189 313.007202,151.537704 
	C313.007202,157.131699 313.007202,162.567947 313.021454,168.464996 
z"/>
<path fill="#121212" opacity="1.000000" stroke="none" 
	d="
M219.970856,179.560837 
	C219.955109,180.032562 219.491638,180.016693 219.260101,180.019562 
	C219.028580,172.748154 219.028580,165.473877 219.028580,158.199615 
	C219.347931,158.195526 219.667267,158.191437 219.986618,158.187347 
	C219.986618,165.154602 219.986618,172.121857 219.970856,179.560837 
z"/>
<path fill="#F3F3F3" opacity="1.000000" stroke="none" 
	d="
M338.354797,173.633972 
	C337.695892,173.622147 337.025574,173.349854 336.355255,173.077545 
	C336.726410,172.982697 337.097595,172.887848 337.726349,172.894379 
	C338.103790,173.121674 338.223602,173.247589 338.354797,173.633972 
z"/>
<path fill="#1D1D1D" opacity="1.000000" stroke="none" 
	d="
M303.691101,178.892075 
	C303.725494,179.473373 303.594757,179.884369 303.463989,180.295364 
	C303.352905,180.182358 303.131134,180.045486 303.149445,179.960388 
	C303.240082,179.540024 303.394226,179.133316 303.691101,178.892075 
z"/>
<path fill="#FCFCFC" opacity="1.000000" stroke="none" 
	d="
M290.094208,178.261261 
	C290.302368,178.211746 290.447815,178.391251 290.546692,178.593536 
	C290.565216,178.631378 290.397400,178.760315 290.150574,178.921921 
	C289.985535,178.996613 290.015381,178.498169 290.094208,178.261261 
z"/>
<path fill="#F9F9F9" opacity="1.000000" stroke="none" 
	d="
M183.905792,411.002716 
	C190.170425,422.947540 190.603561,443.382935 171.102295,450.122620 
	C166.598389,451.679199 162.146576,453.386505 157.696411,455.015076 
	C155.926743,450.504211 154.361481,446.514374 152.796219,442.524567 
	C152.266068,442.743683 151.735916,442.962799 151.205765,443.181915 
	C152.430145,447.004303 153.654541,450.826691 155.187439,455.612244 
	C148.300537,456.888397 142.079636,458.404205 135.767807,459.140656 
	C118.908813,461.107788 101.980194,462.496246 85.308182,457.933502 
	C81.761436,456.962830 78.617363,454.520813 75.137070,452.191101 
	C74.991615,451.435181 74.996864,451.244812 75.391907,450.979553 
	C76.386696,445.062500 76.991692,439.220337 77.813660,433.163574 
	C78.161232,432.792877 78.291817,432.636871 78.422409,432.480835 
	C103.802887,439.615601 129.255508,440.049988 154.641602,432.764801 
	C166.536850,429.351135 177.421082,424.206696 182.741196,411.201385 
	C183.433182,410.957275 183.669479,410.979980 183.905792,411.002716 
M177.289871,431.337341 
	C176.910721,430.600739 176.531555,429.864166 176.152405,429.127563 
	C175.755646,429.248383 175.358887,429.369202 174.962128,429.490021 
	C175.652496,433.863953 176.342880,438.237854 177.033264,442.611786 
	C177.771713,442.503082 178.510147,442.394379 179.248596,442.285675 
	C178.662247,438.901001 178.075882,435.516357 177.289871,431.337341 
M134.123184,456.027252 
	C134.742477,455.866852 135.361771,455.706451 135.981049,455.546021 
	C135.015823,451.954376 134.050583,448.362732 133.085342,444.771088 
	C132.464005,444.937500 131.842667,445.103943 131.221313,445.270386 
	C132.072083,448.635864 132.922852,452.001312 134.123184,456.027252 
M104.710312,458.021484 
	C104.427345,453.518433 104.144371,449.015350 103.861397,444.512299 
	C103.369820,444.553284 102.878235,444.594299 102.386658,444.635284 
	C101.460220,449.136658 101.815636,453.572571 104.710312,458.021484 
z"/>
<path fill="#F9F9F9" opacity="1.000000" stroke="none" 
	d="
M118.907570,390.765656 
	C138.515045,382.327209 155.975388,370.721619 170.043320,354.591919 
	C175.660538,348.151459 180.547867,340.949188 184.930405,333.594910 
	C188.725403,327.226562 190.040863,319.976471 188.302979,312.448608 
	C187.484436,308.903076 188.754318,308.018524 191.918976,310.557007 
	C192.359604,313.259918 192.106720,315.885345 193.266388,317.489685 
	C195.151794,320.098083 198.161789,320.775330 201.234344,318.880310 
	C207.744049,326.113617 208.769440,334.269440 204.624710,342.861786 
	C201.913589,348.482147 198.487061,353.757385 195.417831,359.122772 
	C191.052109,356.507538 187.417755,354.330414 183.783401,352.153290 
	C183.486115,352.624268 183.188812,353.095245 182.891525,353.566223 
	C186.277649,355.989136 189.663773,358.412079 194.038757,361.542572 
	C186.041031,369.758759 179.115585,378.115723 170.924866,384.958160 
	C161.688034,392.674500 151.540497,399.394135 141.302826,405.766083 
	C137.927719,407.866791 133.040054,407.537354 128.422272,407.909607 
	C128.000549,407.500122 128.001114,407.023010 128.211548,406.762878 
	C125.283684,401.553802 122.145378,396.604858 118.998337,391.431549 
	C118.989609,391.207184 118.907570,390.765656 118.907570,390.765656 
M152.861221,390.689819 
	C150.749496,388.418243 148.637772,386.146637 146.526062,383.875061 
	C146.038849,384.354187 145.551651,384.833282 145.064453,385.312408 
	C148.262680,388.654083 151.460907,391.995758 154.659134,395.337433 
	C155.202789,394.789642 155.746445,394.241852 156.290115,393.694092 
	C155.326309,392.849396 154.362518,392.004700 152.861221,390.689819 
M196.474213,328.761963 
	C195.526505,328.400757 194.578781,328.039581 193.631073,327.678375 
	C193.444504,328.076538 193.257935,328.474670 193.071381,328.872833 
	C196.445038,331.764130 199.818710,334.655396 203.192368,337.546692 
	C203.599335,337.077209 204.006317,336.607758 204.413284,336.138275 
	C201.961746,333.832275 199.510208,331.526245 196.474213,328.761963 
M169.257568,368.375305 
	C172.223373,370.534088 175.189163,372.692871 178.154968,374.851654 
	C178.517838,374.322449 178.880707,373.793274 179.243576,373.264069 
	C176.408493,371.121429 173.598907,368.942535 170.693115,366.900513 
	C170.442719,366.724548 169.555222,367.455139 169.257568,368.375305 
z"/>
<path fill="#F3F3F3" opacity="1.000000" stroke="none" 
	d="
M103.055077,383.103577 
	C105.180733,367.498444 112.511444,354.830048 122.414345,343.592133 
	C136.275223,327.862640 153.343552,316.589783 172.859192,309.109070 
	C177.550674,307.310760 182.624863,306.010803 187.033707,307.943970 
	C186.606506,309.792786 185.769135,311.260254 186.079941,312.420044 
	C188.165680,320.203217 186.073883,327.255951 182.336395,333.889618 
	C170.154419,355.511230 151.871780,370.739594 130.570374,382.736969 
	C124.176872,386.337891 117.714890,389.771545 110.105492,389.780365 
	C104.492493,389.786865 103.176804,388.559357 103.055077,383.103577 
M120.263046,355.843079 
	C118.729370,358.594604 116.958000,361.243713 115.717575,364.121643 
	C113.844337,368.467865 110.728088,373.406708 114.846230,377.554108 
	C119.117355,381.855530 124.614868,379.304108 128.677795,376.759857 
	C137.776413,371.062256 146.872253,365.155426 155.050491,358.246307 
	C164.576950,350.198212 173.074112,340.833344 177.927216,329.090179 
	C179.194305,326.024170 178.955460,321.248047 177.381592,318.362915 
	C175.273849,314.499084 170.692963,315.785950 166.972656,316.983368 
	C165.399963,317.489563 163.838333,318.133240 162.402435,318.945587 
	C146.031174,328.207428 131.497696,339.592621 120.263046,355.843079 
z"/>
<path fill="#F3F3F3" opacity="1.000000" stroke="none" 
	d="
M89.079330,426.141541 
	C105.562080,431.243591 121.944504,430.593933 138.261581,427.903778 
	C145.568192,426.699158 152.679459,424.224792 159.811081,422.097626 
	C161.824432,421.497070 163.793610,420.332001 165.442764,419.003448 
	C170.829636,414.663757 170.285583,408.492371 164.107285,405.380859 
	C161.078018,403.855286 157.641922,403.137512 154.027725,401.933441 
	C156.078705,399.326477 158.123917,398.052948 161.833588,398.966644 
	C169.473129,400.848328 176.811447,403.077728 183.000214,408.885559 
	C181.957138,409.565002 180.824860,409.878540 180.536148,410.553131 
	C174.494186,424.670685 161.706573,428.884674 148.486832,432.140808 
	C125.762207,437.738037 103.028809,437.097839 80.580399,430.675720 
	C76.659691,429.554016 73.209099,426.519623 69.774681,424.044861 
	C66.476021,421.667877 67.590141,419.153595 70.026573,416.641785 
	C78.520081,407.885468 89.406517,403.627960 100.600967,399.707275 
	C104.745857,398.255585 107.529602,398.830383 110.094261,402.985291 
	C105.880829,404.251953 101.652199,405.272491 97.621849,406.812134 
	C94.242752,408.102936 90.900742,409.703644 87.883125,411.685974 
	C80.314888,416.657684 80.706558,421.886932 89.079330,426.141541 
z"/>
<path fill="#E6E6E6" opacity="1.000000" stroke="none" 
	d="
M109.254669,418.989563 
	C107.436768,414.908722 108.614853,411.449219 111.972527,408.960510 
	C115.251740,406.529968 120.959229,408.028473 124.276367,411.750671 
	C124.989243,411.223358 125.700996,410.693329 127.029167,409.704224 
	C127.029167,412.380035 127.029167,414.387238 127.029167,416.630127 
	C130.996353,416.630127 134.532593,416.630127 138.746002,416.630127 
	C138.377869,413.980713 138.079575,411.833954 137.781296,409.687195 
	C138.054840,409.484772 138.328400,409.282349 138.601959,409.079926 
	C139.692017,410.292114 140.782089,411.504272 142.141495,413.015961 
	C142.018646,411.291260 141.919571,409.900482 141.801361,408.240997 
	C144.151169,409.053802 146.456909,409.539215 148.405396,410.650848 
	C149.454254,411.249268 150.617218,413.038239 150.448807,414.083923 
	C150.120819,416.120605 149.101395,418.147034 147.962112,419.916046 
	C147.216690,421.073517 145.861832,421.975067 144.592529,422.625610 
	C142.809143,423.539642 140.271011,425.257141 139.065155,424.644409 
	C132.356903,421.235687 125.367622,423.221497 118.562027,423.093964 
	C114.029495,423.009064 109.470367,424.343140 106.265518,424.835785 
	C103.894928,422.659943 101.779991,421.508820 100.933922,419.747986 
	C99.802658,417.393677 99.400993,414.577759 99.284210,411.933655 
	C99.258568,411.353058 101.790550,410.734467 103.067757,409.999603 
	C104.275215,409.304840 105.319801,408.318268 106.545700,407.666229 
	C108.763504,406.486603 111.062950,405.460419 113.328316,404.370178 
	C113.518547,404.791779 113.708778,405.213379 113.899010,405.634979 
	C111.040268,407.791412 108.181526,409.947876 105.938652,411.639740 
	C106.122406,415.012634 106.180069,417.779999 106.449875,420.526489 
	C106.702377,423.096924 107.712639,423.564636 110.094620,421.127289 
	C121.140327,421.047363 131.424271,421.114624 142.715149,421.188507 
	C142.804413,419.927917 142.988174,417.332886 143.171921,414.737854 
	C142.727112,414.515106 142.282303,414.292328 141.837494,414.069580 
	C141.246857,419.368408 138.845261,420.837982 134.024307,419.312347 
	C130.996216,418.354065 127.557816,418.491760 124.303795,418.494537 
	C119.287277,418.498840 114.271034,418.809082 109.254669,418.989563 
M112.789894,417.129822 
	C115.712440,417.129822 118.634995,417.129822 122.947487,417.129822 
	C121.536110,414.428284 121.001892,411.762421 119.731171,411.346466 
	C117.663567,410.669617 114.847420,410.915985 112.883125,411.872894 
	C111.927261,412.338562 112.183304,415.291962 112.789894,417.129822 
z"/>
<path fill="#F3F3F3" opacity="1.000000" stroke="none" 
	d="
M73.975525,451.025940 
	C65.616760,443.833710 64.356140,434.477173 65.502190,424.342377 
	C69.752151,427.025604 73.791367,429.575806 78.126495,432.303406 
	C78.291817,432.636871 78.161232,432.792877 77.466278,433.029083 
	C76.231354,434.779968 75.183517,436.402893 74.964668,438.130829 
	C74.421944,442.415924 74.257942,446.748993 73.951141,451.052734 
	C73.960464,451.042664 73.975525,451.025940 73.975525,451.025940 
z"/>
<path fill="#F3F3F3" opacity="1.000000" stroke="none" 
	d="
M118.482491,390.757385 
	C118.907570,390.765656 118.989609,391.207184 118.670906,391.608246 
	C121.568504,397.013885 124.784805,402.018433 128.001114,407.023010 
	C128.001114,407.023010 128.000549,407.500122 128.000732,407.738708 
	C117.925369,405.813873 109.515541,401.330719 104.726242,391.793182 
	C109.366264,391.429810 113.711838,391.089478 118.482491,390.757385 
z"/>
<path fill="#E1E1E1" opacity="1.000000" stroke="none" 
	d="
M109.327469,419.248352 
	C114.271034,418.809082 119.287277,418.498840 124.303795,418.494537 
	C127.557816,418.491760 130.996216,418.354065 134.024307,419.312347 
	C138.845261,420.837982 141.246857,419.368408 141.837494,414.069580 
	C142.282303,414.292328 142.727112,414.515106 143.171921,414.737854 
	C142.988174,417.332886 142.804413,419.927917 142.715149,421.188507 
	C131.424271,421.114624 121.140327,421.047363 110.381836,420.972748 
	C109.738266,420.479340 109.569260,419.993225 109.327469,419.248352 
z"/>
<path fill="#E6E6E6" opacity="1.000000" stroke="none" 
	d="
M201.111267,318.543671 
	C198.161789,320.775330 195.151794,320.098083 193.266388,317.489685 
	C192.106720,315.885345 192.359604,313.259918 192.344772,310.910187 
	C194.061935,311.688904 195.412567,312.650421 197.095062,313.776520 
	C197.426926,313.941101 197.302155,313.784485 197.258331,313.761108 
	C198.472412,315.227509 199.730301,316.717285 201.111267,318.543671 
z"/>
<path fill="#F3F3F3" opacity="1.000000" stroke="none" 
	d="
M183.846558,410.661072 
	C183.669479,410.979980 183.433182,410.957275 182.845642,410.875641 
	C182.925400,410.650970 183.356369,410.485229 183.846558,410.661072 
z"/>
<path fill="#F3F3F3" opacity="1.000000" stroke="none" 
	d="
M75.002113,451.054443 
	C74.996864,451.244812 74.991615,451.435181 74.953339,451.909607 
	C74.627037,451.989105 74.333771,451.784515 74.008018,451.302917 
	C73.975525,451.025940 73.960464,451.042664 74.214493,450.827454 
	C74.646378,450.759644 74.824249,450.907043 75.002113,451.054443 
z"/>
<path fill="#F9F9F9" opacity="1.000000" stroke="none" 
	d="
M193.850754,414.529785 
	C194.618774,414.083740 195.669312,413.824951 196.109055,413.161346 
	C199.000488,408.798065 201.760208,404.347473 204.796051,399.557526 
	C216.944473,411.793701 230.441650,421.279907 245.650391,428.206604 
	C257.778046,433.730072 270.310242,438.100128 283.741241,438.969849 
	C292.096252,439.510895 299.797211,437.278259 306.488586,431.942291 
	C306.962616,432.101166 307.436676,432.260071 307.910736,432.418976 
	C306.963379,436.320465 306.533173,440.442505 304.979370,444.085327 
	C298.165771,460.059418 289.282990,462.178650 271.176788,459.411652 
	C268.578796,459.014618 266.048981,458.171265 263.591858,457.560364 
	C264.230042,453.347412 264.851746,449.243225 265.473450,445.139038 
	C264.930237,445.018890 264.387024,444.898743 263.843811,444.778595 
	C262.930420,448.732117 262.017029,452.685638 260.993622,457.115479 
	C238.437698,450.778503 217.888275,441.519562 200.183487,426.764923 
	C196.943161,424.064545 195.243134,419.515839 192.978043,415.424072 
	C193.420929,414.941620 193.663177,414.775604 193.850754,414.529785 
M217.732773,426.389893 
	C216.772186,429.156128 215.811600,431.922363 214.851013,434.688599 
	C215.365341,434.872192 215.879654,435.055756 216.393982,435.239319 
	C218.223007,431.021515 220.052048,426.803741 221.881088,422.585938 
	C221.489853,422.373169 221.098618,422.160370 220.707397,421.947571 
	C219.819962,423.203125 218.932526,424.458710 217.732773,426.389893 
M290.211029,452.652130 
	C290.982819,450.116913 291.754639,447.581726 292.526428,445.046509 
	C291.922302,444.859985 291.318146,444.673462 290.714020,444.486908 
	C289.332733,448.507385 287.951416,452.527832 286.570099,456.548279 
	C287.058990,456.752533 287.547882,456.956757 288.036774,457.161011 
	C288.705475,455.921844 289.374176,454.682709 290.211029,452.652130 
M244.796432,447.237396 
	C245.573303,443.904388 246.350174,440.571350 247.127045,437.238342 
	C246.476395,437.118042 245.825745,436.997742 245.175110,436.877411 
	C244.326630,440.278168 243.452301,443.673340 242.710770,447.097229 
	C242.675964,447.257996 243.823456,447.674835 244.796432,447.237396 
z"/>
<path fill="#F3F3F3" opacity="1.000000" stroke="none" 
	d="
M213.339020,404.667236 
	C207.024841,399.089661 201.493317,393.447327 201.488373,384.288330 
	C210.189514,379.460480 219.878998,379.370178 229.400711,380.472687 
	C257.661987,383.744995 280.574005,397.773895 300.325592,417.447937 
	C303.627319,420.736725 305.670807,425.288666 308.470642,429.521362 
	C302.934296,431.884491 298.346313,434.433350 293.430359,435.815857 
	C283.761871,438.534882 274.340332,435.753143 265.101593,433.117432 
	C245.828461,427.619049 228.843201,417.821930 213.339020,404.667236 
M269.889374,400.343597 
	C260.780884,396.519836 251.892593,391.968292 242.488098,389.122803 
	C235.987091,387.155792 228.752701,386.865234 221.883530,387.071930 
	C214.968506,387.279999 212.856964,392.546936 216.856064,398.162384 
	C218.571228,400.570770 220.621338,402.851105 222.898071,404.730774 
	C235.586685,415.206573 249.974075,422.606537 265.740051,427.134979 
	C271.902618,428.905029 278.347931,430.322784 284.706238,430.514130 
	C287.914948,430.610748 292.155060,428.377289 294.239136,425.820251 
	C296.846741,422.620911 294.507385,418.504608 291.694550,416.148163 
	C286.404877,411.716827 280.603943,407.895874 274.952301,403.284302 
	C273.367401,402.517181 271.782501,401.750061 269.889374,400.343597 
z"/>
<path fill="#EDEDEE" opacity="1.000000" stroke="none" 
	d="
M193.830124,414.127045 
	C193.663177,414.775604 193.420929,414.941620 192.902710,415.059235 
	C188.953003,404.365295 192.201538,395.202667 198.671860,386.388947 
	C200.454132,390.902039 202.041748,394.922272 203.323181,398.167114 
	C200.100555,403.436890 196.955032,408.580597 193.830124,414.127045 
z"/>
<path fill="#1D1D1D" opacity="1.000000" stroke="none" 
	d="
M428.196350,126.006615 
	C438.384827,136.500275 445.411407,148.953293 445.307404,155.524094 
	C439.061157,145.552048 432.545135,135.149261 426.189606,125.002716 
	C426.251862,125.030106 427.100189,125.403404 428.196350,126.006615 
z"/>
<path fill="#181818" opacity="1.000000" stroke="none" 
	d="
M344.257935,40.858612 
	C355.391998,41.733437 369.193390,52.651432 369.116089,62.158657 
	C361.694305,48.349003 351.175903,41.722240 336.227203,43.059586 
	C336.334747,42.382339 336.442291,41.705093 336.549866,41.027847 
	C338.982544,40.965000 341.415222,40.902157 344.257935,40.858612 
z"/>
<path fill="#121212" opacity="1.000000" stroke="none" 
	d="
M136.888168,127.735374 
	C136.493607,122.149200 137.626984,117.685349 142.756866,114.874817 
	C138.764587,120.837128 137.699615,127.070839 140.839386,133.817261 
	C140.268829,133.951614 139.698288,134.085983 139.127747,134.220337 
	C138.388504,132.203873 137.649246,130.187393 136.888168,127.735374 
z"/>
<path fill="#F3F3F3" opacity="1.000000" stroke="none" 
	d="
M326.964661,188.023285 
	C329.580322,185.694260 331.669861,183.221939 334.254517,181.487442 
	C335.498383,180.652695 338.740540,180.487976 339.258972,181.252792 
	C342.732849,186.377228 347.698090,189.065582 353.225403,191.162598 
	C354.307587,191.573181 355.159515,192.590607 355.757385,194.397385 
	C343.932251,194.397385 332.107147,194.397385 320.282043,194.397385 
	C320.139862,194.053726 319.997681,193.710068 319.855499,193.366425 
	C322.117676,191.638702 324.379822,189.910995 326.964661,188.023285 
z"/>
<path fill="#030303" opacity="1.000000" stroke="none" 
	d="
M218.235886,284.508972 
	C226.935333,266.660126 241.171112,258.037689 260.387024,258.869720 
	C277.014862,259.589691 290.084564,268.600494 294.624481,284.256744 
	C301.369965,307.518768 287.912109,327.376617 266.679474,333.938538 
	C245.460785,340.496185 225.699005,331.511261 217.879028,312.706757 
	C214.020844,303.429077 215.006165,294.125732 218.235886,284.508972 
M252.084183,289.422821 
	C253.380661,290.081665 254.677139,290.740509 256.605804,291.720612 
	C254.112595,294.082336 251.917358,296.161774 249.458755,298.490723 
	C248.172180,297.030884 247.435287,295.844788 246.391769,295.073456 
	C242.607193,292.275970 237.008057,292.678772 232.943878,295.888153 
	C229.293015,298.771149 227.819290,303.610901 229.526901,307.470825 
	C231.475983,311.876556 235.219391,313.299744 239.681137,313.059875 
	C244.529877,312.799194 248.899719,308.710846 250.080063,304.316071 
	C250.602524,302.370758 251.926300,299.521851 253.329559,299.232483 
	C254.871384,298.914490 256.923431,301.070618 258.899261,302.234802 
	C257.765503,303.924225 256.675903,304.827942 256.574310,305.831604 
	C256.244019,309.095276 255.359558,312.726227 256.396942,315.598755 
	C257.720459,319.263580 261.598999,320.390350 265.571381,319.979156 
	C271.556396,319.359711 276.468658,314.235321 276.279968,308.823090 
	C276.113464,304.048859 271.335114,299.055725 266.558960,300.308167 
	C261.504639,301.633575 258.906860,299.626007 255.332748,295.197937 
	C258.721771,293.416626 261.849274,291.772797 265.002289,290.991669 
	C265.002289,293.278381 265.002289,295.565063 265.002289,297.851776 
	C265.263794,297.846863 265.525299,297.841980 265.786835,297.837067 
	C265.953400,295.747162 266.119995,293.657257 266.330414,291.017700 
	C275.373260,291.017700 284.164185,291.017700 292.955078,291.017700 
	C292.949402,290.653076 292.943756,290.288483 292.938080,289.923859 
	C283.869751,289.923859 274.801453,289.923859 266.029968,289.287018 
	C271.844147,283.581696 272.469482,278.769562 267.965515,274.392761 
	C263.608032,270.158295 256.082611,270.927612 251.649750,275.957825 
	C247.508774,280.656769 249.366974,285.302795 250.551224,289.977325 
	C241.722961,289.983917 232.892593,290.091431 224.068375,289.905640 
	C222.447281,289.871490 220.851257,288.647064 219.027786,287.881409 
	C218.995239,288.167999 218.853348,289.417419 218.714462,290.640350 
	C219.211792,290.789917 219.526566,290.966461 219.841888,290.967438 
	C228.336777,290.993896 236.832504,291.068573 245.326080,290.966675 
	C247.413864,290.941620 249.494598,290.330658 252.084183,289.422821 
z"/>
<path fill="#050505" opacity="1.000000" stroke="none" 
	d="
M300.943420,328.017822 
	C298.996979,330.756195 296.742004,333.275574 294.487030,335.794952 
	C294.032562,335.376190 293.578125,334.957428 293.123657,334.538666 
	C295.226074,332.268066 297.328461,329.997467 299.703125,327.577362 
	C300.195190,327.551544 300.415039,327.675201 300.943420,328.017822 
z"/>
<path fill="#EDEDEE" opacity="1.000000" stroke="none" 
	d="
M247.908295,217.892960 
	C250.861176,221.665253 250.115967,225.436844 246.802200,227.019455 
	C244.464661,228.135864 240.314346,227.421661 237.931091,225.961533 
	C235.179749,224.275864 235.299591,220.610809 237.642181,218.109253 
	C240.648376,214.899048 244.210602,215.022415 247.908295,217.892960 
z"/>
<path fill="#262335" opacity="1.000000" stroke="none" 
	d="
M75.391907,450.979553 
	C74.824249,450.907043 74.646378,450.759644 74.205162,450.837524 
	C74.257942,446.748993 74.421944,442.415924 74.964668,438.130829 
	C75.183517,436.402893 76.231354,434.779968 77.249298,433.243713 
	C76.991692,439.220337 76.386696,445.062500 75.391907,450.979553 
z"/>
<path fill="#262335" opacity="1.000000" stroke="none" 
	d="
M177.389709,431.734528 
	C178.075882,435.516357 178.662247,438.901001 179.248596,442.285675 
	C178.510147,442.394379 177.771713,442.503082 177.033264,442.611786 
	C176.342880,438.237854 175.652496,433.863953 174.962128,429.490021 
	C175.358887,429.369202 175.755646,429.248383 176.152405,429.127563 
	C176.531555,429.864166 176.910721,430.600739 177.389709,431.734528 
z"/>
<path fill="#262335" opacity="1.000000" stroke="none" 
	d="
M133.948395,455.697021 
	C132.922852,452.001312 132.072083,448.635864 131.221313,445.270386 
	C131.842667,445.103943 132.464005,444.937500 133.085342,444.771088 
	C134.050583,448.362732 135.015823,451.954376 135.981049,455.546021 
	C135.361771,455.706451 134.742477,455.866852 133.948395,455.697021 
z"/>
<path fill="#121212" opacity="1.000000" stroke="none" 
	d="
M104.273651,457.972473 
	C101.815636,453.572571 101.460220,449.136658 102.386658,444.635284 
	C102.878235,444.594299 103.369820,444.553284 103.861397,444.512299 
	C104.144371,449.015350 104.427345,453.518433 104.273651,457.972473 
z"/>
<path fill="#1D1D1D" opacity="1.000000" stroke="none" 
	d="
M128.211548,406.762878 
	C124.784805,402.018433 121.568504,397.013885 118.679642,391.832611 
	C122.145378,396.604858 125.283684,401.553802 128.211548,406.762878 
z"/>
<path fill="#262335" opacity="1.000000" stroke="none" 
	d="
M153.129974,390.924927 
	C154.362518,392.004700 155.326309,392.849396 156.290115,393.694092 
	C155.746445,394.241852 155.202789,394.789642 154.659134,395.337433 
	C151.460907,391.995758 148.262680,388.654083 145.064453,385.312408 
	C145.551651,384.833282 146.038849,384.354187 146.526062,383.875061 
	C148.637772,386.146637 150.749496,388.418243 153.129974,390.924927 
z"/>
<path fill="#262335" opacity="1.000000" stroke="none" 
	d="
M196.766449,328.991089 
	C199.510208,331.526245 201.961746,333.832275 204.413284,336.138275 
	C204.006317,336.607758 203.599335,337.077209 203.192368,337.546692 
	C199.818710,334.655396 196.445038,331.764130 193.071381,328.872833 
	C193.257935,328.474670 193.444504,328.076538 193.631073,327.678375 
	C194.578781,328.039581 195.526505,328.400757 196.766449,328.991089 
z"/>
<path fill="#1D1D1D" opacity="1.000000" stroke="none" 
	d="
M169.110611,368.069946 
	C169.555222,367.455139 170.442719,366.724548 170.693115,366.900513 
	C173.598907,368.942535 176.408493,371.121429 179.243576,373.264069 
	C178.880707,373.793274 178.517838,374.322449 178.154968,374.851654 
	C175.189163,372.692871 172.223373,370.534088 169.110611,368.069946 
z"/>
<path fill="#050505" opacity="1.000000" stroke="none" 
	d="
M120.486374,355.556091 
	C131.497696,339.592621 146.031174,328.207428 162.402435,318.945587 
	C163.838333,318.133240 165.399963,317.489563 166.972656,316.983368 
	C170.692963,315.785950 175.273849,314.499084 177.381592,318.362915 
	C178.955460,321.248047 179.194305,326.024170 177.927216,329.090179 
	C173.074112,340.833344 164.576950,350.198212 155.050491,358.246307 
	C146.872253,365.155426 137.776413,371.062256 128.677795,376.759857 
	C124.614868,379.304108 119.117355,381.855530 114.846230,377.554108 
	C110.728088,373.406708 113.844337,368.467865 115.717575,364.121643 
	C116.958000,361.243713 118.729370,358.594604 120.486374,355.556091 
M144.963531,357.851868 
	C146.953537,357.982086 148.943527,358.112335 150.967407,358.244781 
	C149.333527,354.038513 146.293106,353.628723 141.178864,356.735260 
	C136.734161,359.435181 132.233826,362.043518 127.526588,364.829346 
	C128.785309,366.975983 131.073151,366.503082 133.367325,365.093292 
	C137.028763,362.843323 140.601532,360.449127 144.963531,357.851868 
M152.259476,350.744537 
	C153.450439,346.041229 150.063126,345.765350 147.232224,346.321960 
	C144.968079,346.767181 142.773605,348.404480 140.931046,349.964752 
	C137.963867,352.477203 135.141312,354.672272 130.313095,351.193878 
	C131.384232,356.554138 134.337296,356.733398 137.087723,355.570923 
	C139.590256,354.513275 141.692490,352.459503 143.889450,350.740387 
	C146.503510,348.694885 149.014969,347.605743 152.259476,350.744537 
M141.418610,342.056549 
	C138.647171,343.278564 135.875732,344.500549 132.937424,345.796112 
	C133.711807,348.611359 135.572739,348.915649 139.774994,346.433868 
	C144.171356,343.837372 147.348907,338.270813 154.133377,341.064056 
	C153.101425,337.271820 150.850861,336.722565 148.293701,337.799011 
	C146.059341,338.739624 144.085526,340.299133 141.418610,342.056549 
z"/>
<path fill="#050505" opacity="1.000000" stroke="none" 
	d="
M112.340317,417.124512 
	C112.183304,415.291962 111.927261,412.338562 112.883125,411.872894 
	C114.847420,410.915985 117.663567,410.669617 119.731171,411.346466 
	C121.001892,411.762421 121.536110,414.428284 122.947487,417.129822 
	C118.634995,417.129822 115.712440,417.129822 112.340317,417.124512 
z"/>
<path fill="#1D1D1D" opacity="1.000000" stroke="none" 
	d="
M217.888931,426.052063 
	C218.932526,424.458710 219.819962,423.203125 220.707397,421.947571 
	C221.098618,422.160370 221.489853,422.373169 221.881088,422.585938 
	C220.052048,426.803741 218.223007,431.021515 216.393982,435.239319 
	C215.879654,435.055756 215.365341,434.872192 214.851013,434.688599 
	C215.811600,431.922363 216.772186,429.156128 217.888931,426.052063 
z"/>
<path fill="#1D1D1D" opacity="1.000000" stroke="none" 
	d="
M290.126953,453.047852 
	C289.374176,454.682709 288.705475,455.921844 288.036774,457.161011 
	C287.547882,456.956757 287.058990,456.752533 286.570099,456.548279 
	C287.951416,452.527832 289.332733,448.507385 290.714020,444.486908 
	C291.318146,444.673462 291.922302,444.859985 292.526428,445.046509 
	C291.754639,447.581726 290.982819,450.116913 290.126953,453.047852 
z"/>
<path fill="#181818" opacity="1.000000" stroke="none" 
	d="
M244.608383,447.604919 
	C243.823456,447.674835 242.675964,447.257996 242.710770,447.097229 
	C243.452301,443.673340 244.326630,440.278168 245.175110,436.877411 
	C245.825745,436.997742 246.476395,437.118042 247.127045,437.238342 
	C246.350174,440.571350 245.573303,443.904388 244.608383,447.604919 
z"/>
<path fill="#050505" opacity="1.000000" stroke="none" 
	d="
M275.015594,403.821136 
	C280.603943,407.895874 286.404877,411.716827 291.694550,416.148163 
	C294.507385,418.504608 296.846741,422.620911 294.239136,425.820251 
	C292.155060,428.377289 287.914948,430.610748 284.706238,430.514130 
	C278.347931,430.322784 271.902618,428.905029 265.740051,427.134979 
	C249.974075,422.606537 235.586685,415.206573 222.898071,404.730774 
	C220.621338,402.851105 218.571228,400.570770 216.856064,398.162384 
	C212.856964,392.546936 214.968506,387.279999 221.883530,387.071930 
	C228.752701,386.865234 235.987091,387.155792 242.488098,389.122803 
	C251.892593,391.968292 260.780884,396.519836 269.896667,400.983643 
	C267.653290,400.570160 266.012482,400.718933 265.001312,403.447662 
	C264.086365,405.916687 262.725464,408.220428 260.774933,412.202026 
	C258.815613,409.088837 257.036041,407.000427 256.089783,404.585541 
	C254.648315,400.906769 251.098755,400.134918 247.930222,403.255859 
	C243.779465,400.936707 239.606354,398.605042 235.470428,396.294189 
	C231.855209,400.690643 232.119568,402.671356 236.494324,405.232117 
	C240.065613,407.322571 243.740585,409.261169 247.152054,411.586273 
	C248.433716,412.459778 249.102081,414.232971 250.050217,415.595886 
	C250.979019,416.930969 251.656006,418.972748 252.902466,419.417175 
	C254.371414,419.940887 256.333557,419.081329 259.298950,418.640717 
	C260.107941,419.104462 262.006714,420.610809 264.163696,421.262573 
	C265.337769,421.617340 267.795959,420.921448 268.225769,420.013428 
	C270.727264,414.728760 272.798767,409.240540 275.015594,403.821136 
z"/>
<path fill="#E1E1E1" opacity="1.000000" stroke="none" 
	d="
M274.983948,403.552734 
	C272.798767,409.240540 270.727264,414.728760 268.225769,420.013428 
	C267.795959,420.921448 265.337769,421.617340 264.163696,421.262573 
	C262.006714,420.610809 260.107941,419.104462 259.298950,418.640717 
	C256.333557,419.081329 254.371414,419.940887 252.902466,419.417175 
	C251.656006,418.972748 250.979019,416.930969 250.050217,415.595886 
	C249.102081,414.232971 248.433716,412.459778 247.152054,411.586273 
	C243.740585,409.261169 240.065613,407.322571 236.494324,405.232117 
	C232.119568,402.671356 231.855209,400.690643 235.470428,396.294189 
	C239.606354,398.605042 243.779465,400.936707 247.930222,403.255859 
	C251.098755,400.134918 254.648315,400.906769 256.089783,404.585541 
	C257.036041,407.000427 258.815613,409.088837 260.774933,412.202026 
	C262.725464,408.220428 264.086365,405.916687 265.001312,403.447662 
	C266.012482,400.718933 267.653290,400.570160 270.050781,401.303345 
	C271.782501,401.750061 273.367401,402.517181 274.983948,403.552734 
M268.444183,404.025635 
	C266.411896,407.318695 264.379608,410.611755 262.217560,414.115082 
	C257.785339,411.938690 252.913895,410.638885 253.057053,405.904877 
	C250.567917,405.782806 248.403610,406.205597 246.731201,405.485657 
	C243.139450,403.939453 239.801270,401.804108 236.359283,399.909973 
	C236.037704,400.440308 235.716125,400.970612 235.394547,401.500916 
	C238.219406,403.239655 241.021210,405.017273 243.874573,406.707886 
	C248.088409,409.204529 253.391541,410.603271 253.257202,416.874664 
	C258.854156,411.213165 261.717865,419.161469 266.278992,418.712646 
	C267.780579,415.471863 269.154327,411.927032 271.019470,408.662964 
	C272.543274,405.996246 271.065155,405.189392 268.444183,404.025635 
z"/>
<path fill="#E1E1E1" opacity="1.000000" stroke="none" 
	d="
M251.573212,289.991089 
	C249.366974,285.302795 247.508774,280.656769 251.649750,275.957825 
	C256.082611,270.927612 263.608032,270.158295 267.965515,274.392761 
	C272.469482,278.769562 271.844147,283.581696 265.672607,289.583344 
	C265.315216,289.879669 264.976776,290.128937 264.976776,290.128937 
	C261.849274,291.772797 258.721771,293.416626 255.332748,295.197937 
	C258.906860,299.626007 261.504639,301.633575 266.558960,300.308167 
	C271.335114,299.055725 276.113464,304.048859 276.279968,308.823090 
	C276.468658,314.235321 271.556396,319.359711 265.571381,319.979156 
	C261.598999,320.390350 257.720459,319.263580 256.396942,315.598755 
	C255.359558,312.726227 256.244019,309.095276 256.574310,305.831604 
	C256.675903,304.827942 257.765503,303.924225 258.899261,302.234802 
	C256.923431,301.070618 254.871384,298.914490 253.329559,299.232483 
	C251.926300,299.521851 250.602524,302.370758 250.080063,304.316071 
	C248.899719,308.710846 244.529877,312.799194 239.681137,313.059875 
	C235.219391,313.299744 231.475983,311.876556 229.526901,307.470825 
	C227.819290,303.610901 229.293015,298.771149 232.943878,295.888153 
	C237.008057,292.678772 242.607193,292.275970 246.391769,295.073456 
	C247.435287,295.844788 248.172180,297.030884 249.458755,298.490723 
	C251.917358,296.161774 254.112595,294.082336 256.605804,291.720612 
	C254.677139,290.740509 253.380661,290.081665 251.799011,289.747437 
	C251.513840,290.072021 251.573212,289.991089 251.573212,289.991089 
M234.584793,309.434387 
	C236.695465,309.658264 239.338242,310.778198 240.800385,309.909943 
	C243.431763,308.347412 245.935867,305.891815 247.319229,303.204926 
	C247.968979,301.942871 246.406219,298.718658 244.939850,297.366364 
	C242.131989,294.776917 236.521881,295.736328 233.666275,298.941864 
	C230.711533,302.258698 230.289200,305.718781 234.584793,309.434387 
M257.944550,313.558929 
	C261.989044,318.682587 268.810425,318.489685 272.327026,313.152161 
	C274.897339,309.250916 273.242767,304.439240 268.894318,303.169434 
	C262.803314,301.390717 257.142212,306.268372 257.944550,313.558929 
M260.242340,288.953888 
	C261.474213,288.490265 262.885590,288.270752 263.906372,287.520081 
	C267.947205,284.548553 265.909821,280.235504 265.673340,276.556030 
	C265.613525,275.625763 262.257629,274.204529 260.432404,274.228607 
	C255.827484,274.289246 251.964920,278.248138 251.899307,282.325867 
	C251.817200,287.428772 255.340820,288.558411 260.242340,288.953888 
z"/>
<path fill="#262335" opacity="1.000000" stroke="none" 
	d="
M264.989532,290.560303 
	C264.976776,290.128937 265.315216,289.879669 265.524170,289.901764 
	C274.801453,289.923859 283.869751,289.923859 292.938080,289.923859 
	C292.943756,290.288483 292.949402,290.653076 292.955078,291.017700 
	C284.164185,291.017700 275.373260,291.017700 266.330414,291.017700 
	C266.119995,293.657257 265.953400,295.747162 265.786835,297.837067 
	C265.525299,297.841980 265.263794,297.846863 265.002289,297.851776 
	C265.002289,295.565063 265.002289,293.278381 264.989532,290.560303 
z"/>
<path fill="#1D1D1D" opacity="1.000000" stroke="none" 
	d="
M251.546204,290.030548 
	C249.494598,290.330658 247.413864,290.941620 245.326080,290.966675 
	C236.832504,291.068573 228.336777,290.993896 219.841888,290.967438 
	C219.526566,290.966461 219.211792,290.789917 218.714462,290.640350 
	C218.853348,289.417419 218.995239,288.167999 219.027786,287.881409 
	C220.851257,288.647064 222.447281,289.871490 224.068375,289.905640 
	C232.892593,290.091431 241.722961,289.983917 251.062225,289.984192 
	C251.573212,289.991089 251.513840,290.072021 251.546204,290.030548 
z"/>
<path fill="#E1E1E1" opacity="1.000000" stroke="none" 
	d="
M144.587677,357.983887 
	C140.601532,360.449127 137.028763,362.843323 133.367325,365.093292 
	C131.073151,366.503082 128.785309,366.975983 127.526588,364.829346 
	C132.233826,362.043518 136.734161,359.435181 141.178864,356.735260 
	C146.293106,353.628723 149.333527,354.038513 150.967407,358.244781 
	C148.943527,358.112335 146.953537,357.982086 144.587677,357.983887 
z"/>
<path fill="#DBDBDB" opacity="1.000000" stroke="none" 
	d="
M151.880737,350.804871 
	C149.014969,347.605743 146.503510,348.694885 143.889450,350.740387 
	C141.692490,352.459503 139.590256,354.513275 137.087723,355.570923 
	C134.337296,356.733398 131.384232,356.554138 130.313095,351.193878 
	C135.141312,354.672272 137.963867,352.477203 140.931046,349.964752 
	C142.773605,348.404480 144.968079,346.767181 147.232224,346.321960 
	C150.063126,345.765350 153.450439,346.041229 151.880737,350.804871 
z"/>
<path fill="#DBDBDB" opacity="1.000000" stroke="none" 
	d="
M141.707611,341.820892 
	C144.085526,340.299133 146.059341,338.739624 148.293701,337.799011 
	C150.850861,336.722565 153.101425,337.271820 154.133377,341.064056 
	C147.348907,338.270813 144.171356,343.837372 139.774994,346.433868 
	C135.572739,348.915649 133.711807,348.611359 132.937424,345.796112 
	C135.875732,344.500549 138.647171,343.278564 141.707611,341.820892 
z"/>
<path fill="#121212" opacity="1.000000" stroke="none" 
	d="
M268.784119,404.172882 
	C271.065155,405.189392 272.543274,405.996246 271.019470,408.662964 
	C269.154327,411.927032 267.780579,415.471863 266.278992,418.712646 
	C261.717865,419.161469 258.854156,411.213165 253.257202,416.874664 
	C253.391541,410.603271 248.088409,409.204529 243.874573,406.707886 
	C241.021210,405.017273 238.219406,403.239655 235.394547,401.500916 
	C235.716125,400.970612 236.037704,400.440308 236.359283,399.909973 
	C239.801270,401.804108 243.139450,403.939453 246.731201,405.485657 
	C248.403610,406.205597 250.567917,405.782806 253.057053,405.904877 
	C252.913895,410.638885 257.785339,411.938690 262.217560,414.115082 
	C264.379608,410.611755 266.411896,407.318695 268.784119,404.172882 
z"/>
<path fill="#050505" opacity="1.000000" stroke="none" 
	d="
M234.265335,309.195312 
	C230.289200,305.718781 230.711533,302.258698 233.666275,298.941864 
	C236.521881,295.736328 242.131989,294.776917 244.939850,297.366364 
	C246.406219,298.718658 247.968979,301.942871 247.319229,303.204926 
	C245.935867,305.891815 243.431763,308.347412 240.800385,309.909943 
	C239.338242,310.778198 236.695465,309.658264 234.265335,309.195312 
z"/>
<path fill="#050505" opacity="1.000000" stroke="none" 
	d="
M257.801453,313.204651 
	C257.142212,306.268372 262.803314,301.390717 268.894318,303.169434 
	C273.242767,304.439240 274.897339,309.250916 272.327026,313.152161 
	C268.810425,318.489685 261.989044,318.682587 257.801453,313.204651 
z"/>
<path fill="#030303" opacity="1.000000" stroke="none" 
	d="
M259.837036,288.979004 
	C255.340820,288.558411 251.817200,287.428772 251.899307,282.325867 
	C251.964920,278.248138 255.827484,274.289246 260.432404,274.228607 
	C262.257629,274.204529 265.613525,275.625763 265.673340,276.556030 
	C265.909821,280.235504 267.947205,284.548553 263.906372,287.520081 
	C262.885590,288.270752 261.474213,288.490265 259.837036,288.979004 
z"/>
</svg>