<svg width="40" height="40" viewBox="0 0 40 40" fill="none" xmlns="http://www.w3.org/2000/svg">
<path d="M20.0013 0C12.0157 0 5.9102 6.66758 6.01762 13.993C6.02231 14.3352 5.42098 13.5646 15.8162 25.0793C13.4653 26.512 11.9544 29.084 11.9544 31.9531C11.9544 36.3902 15.5643 40 20.0013 40C24.4383 40 28.0482 36.3902 28.0482 31.9531C28.0482 29.0984 26.5499 26.5197 24.1864 25.0793C34.379 13.789 33.9857 14.3255 33.9857 13.9844C33.9857 6.27336 27.7123 0 20.0013 0ZM20.0013 37.6562C16.8566 37.6562 14.2982 35.0978 14.2982 31.9531C14.2982 28.8084 16.8566 26.25 20.0013 26.25C23.146 26.25 25.7044 28.8084 25.7044 31.9531C25.7044 35.0978 23.146 37.6562 20.0013 37.6562ZM19.356 23.9327L16.3347 13.9335C18.5661 11.9259 21.7147 12.1363 23.6686 13.9312L20.6466 23.9327C20.2171 23.8989 19.7855 23.8989 19.356 23.9327ZM7.49786 13.9998C9.75661 11.9091 13.0038 12.0667 15.0731 14.0802L18.11 24.1313C17.7228 24.2246 17.3431 24.3467 16.9741 24.4967L7.49786 13.9998ZM23.0283 24.4967C22.6593 24.3467 22.2796 24.2246 21.8924 24.1313L24.9296 14.0795C26.9929 12.0648 30.2536 11.9078 32.5055 13.9988L23.0283 24.4967Z" fill="#3B4EF4"/>
<path d="M20.7043 30.3906H19.5325V31.3281C20.7808 31.3281 20.8555 31.3705 21.0367 31.19C21.3278 30.8977 21.1233 30.3906 20.7043 30.3906Z" fill="#8B97FF"/>
<path d="M20.0012 27.5C17.5458 27.5 15.5481 29.4977 15.5481 31.9531C15.5481 34.4086 17.5458 36.4062 20.0012 36.4062C22.4567 36.4062 24.4543 34.4086 24.4543 31.9531C24.4543 29.4977 22.4567 27.5 20.0012 27.5ZM21.4075 34.6139V35C21.4075 35.1658 21.3416 35.3247 21.2244 35.4419C21.1072 35.5592 20.9482 35.625 20.7825 35.625C20.6167 35.625 20.4577 35.5592 20.3405 35.4419C20.2233 35.3247 20.1575 35.1658 20.1575 35V34.7656H19.845V35C19.845 35.1658 19.7791 35.3247 19.6619 35.4419C19.5447 35.5592 19.3857 35.625 19.22 35.625C19.0542 35.625 18.8952 35.5592 18.778 35.4419C18.6608 35.3247 18.595 35.1658 18.595 35V34.7656H18.2043C18.0386 34.7656 17.8796 34.6998 17.7624 34.5826C17.6452 34.4654 17.5793 34.3064 17.5793 34.1406C17.5793 33.9749 17.6452 33.8159 17.7624 33.6987C17.8796 33.5815 18.0386 33.5156 18.2043 33.5156H18.2825V30.3906H18.2043C18.0386 30.3906 17.8796 30.3248 17.7624 30.2076C17.6452 30.0904 17.5793 29.9314 17.5793 29.7656C17.5793 29.5999 17.6452 29.4409 17.7624 29.3237C17.8796 29.2065 18.0386 29.1406 18.2043 29.1406H18.595V28.9062C18.595 28.7405 18.6608 28.5815 18.778 28.4643C18.8952 28.3471 19.0542 28.2812 19.22 28.2812C19.3857 28.2812 19.5447 28.3471 19.6619 28.4643C19.7791 28.5815 19.845 28.7405 19.845 28.9062V29.1406H20.1575V28.9062C20.1575 28.7405 20.2233 28.5815 20.3405 28.4643C20.4577 28.3471 20.6167 28.2812 20.7825 28.2812C20.9482 28.2812 21.1072 28.3471 21.2244 28.4643C21.3416 28.5815 21.4075 28.7405 21.4075 28.9062V29.2916C22.4486 29.7604 22.748 31.0849 22.0294 31.9534C22.7402 32.8133 22.4621 34.1395 21.4075 34.6139Z" fill="#8B97FF"/>
<path d="M20.7043 32.5781H19.5325V33.5156C20.7808 33.5156 20.8555 33.558 21.0367 33.3775C21.3278 33.0852 21.1233 32.5781 20.7043 32.5781Z" fill="#8B97FF"/>
</svg>
