<svg width="42" height="42" viewBox="0 0 42 42" fill="none" xmlns="http://www.w3.org/2000/svg">
<path d="M22.2303 20.6439V30.018L30.3485 25.331V15.9569L22.2303 20.6439ZM12.8816 13.8257L20.9998 18.5128L29.118 13.8257L20.9998 9.13855L12.8816 13.8257ZM19.7693 20.6439L11.6511 15.9569V25.331L19.7693 30.018V20.6439Z" fill="#8B97FF"/>
<path d="M37.0556 7.05091C36.1708 7.05091 35.3602 7.37305 34.7334 7.90535L21.041 0L7.29924 7.93382C6.66809 7.38462 5.84466 7.05091 4.94429 7.05091C2.96307 7.05091 1.35132 8.66266 1.35132 10.6439C1.35132 12.2227 2.37548 13.5661 3.79404 14.0469V29.8725L17.3966 37.7259C17.3532 37.9503 17.3312 38.1784 17.3311 38.4069C17.3311 40.3881 18.9428 41.9998 20.9241 41.9998C22.9052 41.9998 24.5169 40.3881 24.5169 38.4069C24.5169 38.217 24.5019 38.0304 24.4733 37.8483L38.2879 29.8724V14.0191C39.6639 13.5151 40.6486 12.1923 40.6486 10.6439C40.6486 8.66275 39.0367 7.05091 37.0556 7.05091ZM35.8232 28.4496L23.2755 35.694C22.6447 35.1466 21.8227 34.8141 20.924 34.8141C20.0699 34.8141 19.2848 35.1142 18.6675 35.6138L6.25884 28.4496V13.9867C7.59144 13.4608 8.53717 12.1611 8.53717 10.6439C8.53717 10.4555 8.52241 10.2705 8.49435 10.0898L21.041 2.84599L33.5131 10.0468C33.4797 10.2441 33.4628 10.4438 33.4626 10.6439C33.4626 12.1923 34.4472 13.5151 35.8232 14.0191V28.4496Z" fill="url(#paint0_linear_74_15)"/>
<defs>
<linearGradient id="paint0_linear_74_15" x1="5" y1="21" x2="38.5" y2="21" gradientUnits="userSpaceOnUse">
<stop stop-color="#5465F7"/>
<stop offset="1" stop-color="#9333EA"/>
</linearGradient>
</defs>
</svg>
