<svg width="28" height="28" viewBox="0 0 28 28" fill="none" xmlns="http://www.w3.org/2000/svg">
<path fill-rule="evenodd" clip-rule="evenodd" d="M14.0048 1.75757C17.2153 1.81559 20.2748 3.13171 22.5248 5.42272C24.7747 7.71373 26.0354 10.7965 26.0354 14.0076C26.0354 17.2187 24.7747 20.3014 22.5248 22.5924C20.2748 24.8834 17.2153 26.1996 14.0048 26.2576C10.7942 26.1996 7.73471 24.8834 5.48473 22.5924C3.23475 20.3014 1.97412 17.2187 1.97412 14.0076C1.97412 10.7965 3.23475 7.71373 5.48473 5.42272C7.73471 3.13171 10.7942 1.81559 14.0048 1.75757ZM11.4608 17.9869L8.46075 14.9842C8.21519 14.7378 8.0773 14.4041 8.0773 14.0562C8.0773 13.7084 8.21519 13.3747 8.46075 13.1282C8.70757 12.8829 9.04142 12.7452 9.38942 12.7452C9.73741 12.7452 10.0713 12.8829 10.3181 13.1282L12.4314 15.2442L17.6914 9.98424C17.9378 9.73867 18.2715 9.60079 18.6194 9.60079C18.9673 9.60079 19.301 9.73867 19.5474 9.98424C19.7927 10.2308 19.9303 10.5645 19.9303 10.9122C19.9303 11.26 19.7927 11.5936 19.5474 11.8402L13.3581 18.0296C13.2324 18.1546 13.0828 18.2529 12.9183 18.3187C12.7537 18.3844 12.5775 18.4163 12.4003 18.4123C12.2231 18.4083 12.0486 18.3686 11.8871 18.2955C11.7257 18.2224 11.5806 18.1174 11.4608 17.9869Z" fill="url(#paint0_linear_1193_292)"/>
<defs>
<linearGradient id="paint0_linear_1193_292" x1="-9.69195" y1="4.54166" x2="34.0886" y2="21.4311" gradientUnits="userSpaceOnUse">
<stop stop-color="#3B4EF4"/>
<stop offset="0.5" stop-color="#5868F8"/>
<stop offset="1" stop-color="#978FFD"/>
</linearGradient>
</defs>
</svg>
