<svg width="28" height="28" viewBox="0 0 28 28" fill="none" xmlns="http://www.w3.org/2000/svg">
<path fill-rule="evenodd" clip-rule="evenodd" d="M14.0052 1.75732C17.2158 1.81534 20.2753 3.13147 22.5253 5.42247C24.7752 7.71348 26.0359 10.7962 26.0359 14.0073C26.0359 17.2184 24.7752 20.3012 22.5253 22.5922C20.2753 24.8832 17.2158 26.1993 14.0052 26.2573C10.7947 26.1993 7.7352 24.8832 5.48522 22.5922C3.23524 20.3012 1.97461 17.2184 1.97461 14.0073C1.97461 10.7962 3.23524 7.71348 5.48522 5.42247C7.7352 3.13147 10.7947 1.81534 14.0052 1.75732ZM11.4612 17.9867L8.46124 14.984C8.21568 14.7376 8.07779 14.4039 8.07779 14.056C8.07779 13.7081 8.21568 13.3744 8.46124 13.128C8.70805 12.8827 9.04191 12.745 9.38991 12.745C9.7379 12.745 10.0718 12.8827 10.3186 13.128L12.4319 15.244L17.6919 9.98399C17.9383 9.73843 18.272 9.60054 18.6199 9.60054C18.9678 9.60054 19.3015 9.73843 19.5479 9.98399C19.7931 10.2306 19.9308 10.5642 19.9308 10.912C19.9308 11.2598 19.7931 11.5934 19.5479 11.84L13.3586 18.0293C13.2329 18.1543 13.0833 18.2527 12.9188 18.3184C12.7542 18.3842 12.578 18.416 12.4008 18.4121C12.2236 18.4081 12.0491 18.3683 11.8876 18.2952C11.7262 18.2221 11.5811 18.1172 11.4612 17.9867Z" fill="url(#paint0_linear_68_3)"/>
<defs>
<linearGradient id="paint0_linear_68_3" x1="-9.69146" y1="4.54142" x2="34.0891" y2="21.4308" gradientUnits="userSpaceOnUse">
<stop stop-color="#5465F7"/>
<stop offset="1" stop-color="#9333EA"/>
</linearGradient>
</defs>
</svg>
