<svg width="140" height="141" viewBox="0 0 140 141" fill="none" xmlns="http://www.w3.org/2000/svg">
<path d="M20.5012 60.8835C21.8833 60.4617 23.2186 60.4957 24.5385 59.3634C20.9335 55.795 18.0695 51.8316 18.0165 46.4973C17.9677 41.5817 17.7715 36.6908 20.8561 32.3765C23.9811 28.0057 28.4376 26.0895 33.4847 25.3151C33.5782 24.8715 33.7669 24.5296 33.6664 24.3721C31.4982 20.9763 32.8857 18.6263 35.6452 16.3193C38.1427 14.2313 40.3409 11.7755 42.5892 9.40423C43.6235 8.31326 44.6999 7.80748 45.8463 8.93629C49.4423 12.4771 53.1348 12.1665 57.3009 9.87296C58.8464 9.02209 59.6337 8.19677 60.0024 6.56653C61.4954 -0.0348369 60.0647 0.985957 66.9988 0.900927C70.1768 0.861957 73.3589 0.982597 76.533 0.865921C78.244 0.803027 79.3481 1.56108 79.2621 3.08943C78.9191 9.18339 83.6744 10.1823 87.7517 11.9457C89.2751 12.6046 90.144 11.4593 91.159 10.8302C96.6366 7.43495 94.9715 7.18612 99.691 11.7957C101.64 13.699 103.461 15.7427 105.503 17.5373C107.365 19.1734 108.298 20.7856 106.711 23.1095C106.379 23.5948 106.044 24.218 106.487 25.3269C114.312 26.5022 120.159 30.7306 121.594 39.0611C122.895 46.6106 122.333 53.9971 114.697 59.571C119.392 60.8578 123.173 61.9625 126.999 62.8768C127.653 63.0333 128.528 62.4309 129.256 62.0846C130.978 61.2661 132.612 60.2291 134.389 59.5715C138.344 58.108 139.916 59.2321 139.919 63.3246C139.924 71.7683 139.794 80.2151 139.996 88.6539C140.067 91.5973 139.199 93.1728 136.475 94.4845C125.027 99.9963 113.716 105.793 102.326 111.427C100.688 112.238 99.3511 113.109 99.1908 115.112C99.1557 115.551 98.9331 115.977 98.7864 116.406C97.8053 119.273 94.2637 119.292 92.9582 121.269C91.5054 123.468 90.7206 126.06 87.9094 126.874C86.5993 127.253 85.9765 127.959 85.5814 129.182C84.8687 131.389 83.3622 132.908 81.1517 133.649C79.9521 134.051 79.263 134.73 78.7799 135.988C76.9178 140.833 71.6614 142.352 67.4074 139.241C65.8991 138.138 64.7047 137.708 62.7755 138.335C59.6459 139.352 56.0877 137.471 54.7563 134.295C54.0705 132.66 53.2089 131.618 51.4753 131.072C49.7649 130.533 48.5034 129.192 47.9636 127.493C47.4516 125.882 46.6775 124.831 44.9628 124.457C43.9806 124.243 42.8161 123.649 42.5837 122.775C41.3218 118.031 35.0732 117.629 34.0383 112.853C33.5837 110.755 31.7782 110.414 30.4263 109.483C29.1437 108.599 28.0346 107.834 26.1399 109.009C24.6596 109.928 22.4266 109.41 20.5718 108.786C14.4693 106.731 8.38048 104.634 2.25025 102.666C0.567449 102.126 0.0110759 101.213 0.0168175 99.503C0.0637567 85.5212 0.0841164 71.5389 0.000145539 57.5575C-0.0132045 55.3348 0.891503 55.0183 2.86659 54.7634C7.57668 54.1555 10.9655 56.7775 14.656 58.8485C16.4043 59.8297 17.9063 61.6453 20.5012 60.8835ZM86.9237 98.8245C89.8087 101.448 92.7197 104.045 95.5663 106.709C96.7614 107.828 97.8194 108.118 99.4148 107.308C110.411 101.725 121.444 96.2149 132.503 90.7565C134.195 89.9214 134.883 88.8508 134.859 86.9583C134.779 80.6114 134.851 74.2627 134.841 67.9147C134.84 67.1292 135.027 66.278 134.329 65.503C133.517 65.4251 132.844 65.9437 132.147 66.3099C120.186 72.5892 108.191 78.8059 96.3049 85.2237C93.3598 86.8139 90.5674 87.1392 87.4533 86.2135C83.4607 85.0266 79.4411 83.9305 75.4329 82.796C73.4558 82.2364 71.4406 82.1334 69.5739 83.0134C65.1469 85.1004 60.7444 87.2462 56.4043 89.5071C54.7002 90.3949 53.8598 91.9596 54.9913 93.8252C56.0591 95.5856 57.6542 95.473 59.2544 94.5356C61.367 93.298 63.4552 92.0187 65.5543 90.7581C70.9519 87.517 74.7184 87.8552 79.3611 92.0104C81.7936 94.1875 84.2147 96.3773 86.9237 98.8245ZM56.8617 83.5385C59.0174 82.4441 61.1732 81.3497 63.6719 80.0811C61.3753 78.6995 59.3181 78.2311 57.1517 78.0613C49.8329 77.4877 43.0424 80.1811 36.0242 81.4613C34.8788 81.6703 34.4982 82.6353 34.2176 83.6312C32.7183 88.9531 31.3321 94.311 29.6605 99.5783C28.9259 101.893 29.6894 103.085 31.5691 104.216C35.1994 106.4 35.1484 106.448 38.1291 103.55C39.0368 102.667 39.9681 101.773 41.0163 101.077C43.8643 99.1852 48.0564 99.2888 49.9242 102.004C51.8852 104.855 54.5409 106.747 56.8131 109.103C58.9725 111.341 61.4116 113.388 63.3185 115.647C65.632 118.387 68.2346 120.558 70.8049 122.925C72.599 124.576 74.3618 126.275 76.2525 127.821C77.5032 128.843 79.0241 129.714 80.2751 128.017C81.438 126.44 80.1188 125.335 78.9893 124.382C76.075 121.923 73.1831 119.434 70.1912 117.072C68.6621 115.864 68.4435 114.937 69.7733 113.319C71.2136 111.567 72.2159 112.108 73.5664 113.263C76.6711 115.918 79.8414 118.496 82.9962 121.092C84.2648 122.136 85.6873 122.998 87.0162 121.362C88.3088 119.77 86.9959 118.677 85.882 117.728C83.118 115.373 80.3126 113.066 77.52 110.744C76.2053 109.651 74.6313 108.866 76.4067 106.671C78.0903 104.59 79.1819 105.545 80.595 106.748C83.6368 109.337 86.7111 111.888 89.806 114.414C91.0141 115.4 92.4623 115.981 93.7096 114.662C95.1231 113.167 93.9182 111.992 92.8173 110.995C87.0967 105.815 81.3813 100.629 75.6048 95.5123C73.0931 93.2874 71.4209 93.2354 68.4415 94.9707C65.932 96.4324 63.5134 98.0762 60.9128 99.3502C55.2906 102.104 49.6652 98.4062 49.6132 92.1611C49.5732 87.3589 52.7999 85.3864 56.8617 83.5385ZM92.1313 72.5631C91.6674 69.4997 89.7959 67.759 86.8857 67.0143C83.4621 66.1381 80.0309 65.2919 76.6102 64.4046C75.6581 64.1576 74.676 63.9541 74.2916 62.7916C73.3862 60.0531 74.4386 56.5104 76.7205 54.6944C78.8629 52.9894 80.2992 50.793 80.6655 48.0776C81.0299 45.3765 81.0186 42.6238 80.6419 39.9279C79.8813 34.4858 74.7876 30.4306 69.2506 30.691C63.7901 30.9479 59.4449 35.3489 59.1959 40.962C59.1076 42.9535 59.1837 44.9531 59.2084 46.9488C59.2457 49.9688 60.4625 52.7063 62.8918 54.1909C65.7956 55.9655 65.8222 58.3351 65.8434 61.1199C65.8586 63.1281 65.1431 64.0582 63.2086 64.4869C59.6718 65.2707 56.148 66.1472 52.6747 67.1739C49.395 68.1434 48.1599 69.8969 48.161 73.0019C48.3158 73.089 48.463 73.229 48.6269 73.2523C48.9826 73.3029 49.3631 73.3704 49.7051 73.2978C55.4172 72.0848 60.8293 73.3821 66.2827 74.9907C73.7524 77.194 81.2989 79.1402 88.8289 81.1345C91.758 81.9103 92.099 81.5924 92.1591 78.4803C92.1942 76.6661 92.159 74.8506 92.1313 72.5631ZM118.709 66.1054C116.618 65.5299 114.522 64.969 112.438 64.3722C111.482 64.0988 110.299 63.8561 110.271 62.6397C110.205 59.6918 109.205 56.557 112.801 54.5192C115.046 53.2469 116.262 50.815 116.644 48.1939C117.065 45.31 117.049 42.3813 116.587 39.5164C115.735 34.2251 110.683 30.4079 105.169 30.6898C99.8364 30.9624 95.4826 35.3054 95.1907 40.717C95.0932 42.525 95.1779 44.3422 95.142 46.1544C95.0698 49.8055 96.535 52.8451 99.5383 54.7158C102.869 56.7902 101.675 59.8008 101.642 62.5013C101.613 64.7919 99.2518 64.3147 97.8375 64.7306C95.8256 65.3223 95.08 66.2343 96.0311 68.2622C97.0882 70.5162 97.421 72.9226 97.3854 75.4085C97.3721 76.334 97.0194 77.4365 98.3617 78.2994C105.117 74.7412 111.999 71.1222 118.871 67.4852C119.427 67.1908 119.684 66.7473 118.709 66.1054ZM30.6953 31.1943C26.6232 32.5289 23.8404 35.3273 23.3895 39.5013C22.8011 44.9482 21.9817 50.7576 27.3917 54.6964C28.9638 55.841 29.9508 56.9903 29.8607 59.1226C29.7489 61.7699 30.329 64.5756 26.2817 64.8303C27.4156 66.5239 28.8378 66.9864 30.0415 67.7532C33.095 69.6985 37.5454 70.4479 36.4218 75.9994C38.8407 75.2188 41.6818 76.2671 42.4364 73.6391C43.1801 71.0493 43.715 68.4084 45.0314 66.0027C43.6258 64.9199 42.0592 64.78 40.5895 64.4349C38.945 64.0488 38.2049 63.2492 38.1505 61.4428C38.0599 58.4338 38.3667 56.0469 41.2434 54.0075C45.6179 50.9062 45.0039 45.8945 44.7676 41.2601C44.4033 34.1143 38.1538 29.4898 30.6953 31.1943ZM60.1588 58.9052C57.0641 56.0683 54.7284 52.7232 54.2123 48.4951C53.8735 45.7202 53.8784 42.8694 54.0499 40.0723C54.5993 31.1111 63.7389 24.0858 72.4258 25.7849C78.8037 27.0323 83.3224 30.7606 85.0251 36.8736C86.9396 43.7469 87.0515 50.7166 81.9138 56.6814C81.1361 57.5843 79.8315 58.1489 79.7221 59.6275C85.3526 62.2326 90.8211 62.3732 96.2935 59.5371C96.1966 59.1703 96.2081 58.9385 96.0991 58.84C89.0109 52.4375 88.8879 44.4641 91.0658 36.0499C91.4721 34.4802 90.9208 33.4493 90.1439 32.3091C80.5531 18.2324 59.5726 18.196 49.8398 32.224C48.7929 33.7328 48.5857 35.0978 49.0415 36.9982C50.9165 44.8151 50.9236 52.3478 44.2842 58.3278C43.9475 58.6311 43.6522 58.9883 43.8375 59.7709C46.3636 60.8365 49.2176 61.8976 51.9902 61.7413C54.7979 61.5831 57.9079 61.34 60.1588 58.9052ZM14.4192 64.5679C12.5349 63.4811 10.6751 62.3488 8.76022 61.3187C6.25332 59.9702 5.32681 60.4522 4.93891 63.2363C4.83934 63.951 4.82313 64.6818 4.8243 65.4052C4.83846 74.191 4.84035 82.9769 4.8916 91.7625C4.93822 99.7543 4.50987 97.7462 11.1187 100.328C13.2669 101.168 14.3566 100.84 14.9272 98.3654C16.5117 91.4936 18.4378 84.7007 20.0334 77.8313C22.4879 67.2638 23.8937 70.3862 14.4192 64.5679ZM95.8258 15.2685C94.1435 14.2377 93.0002 15.5901 91.9701 16.3945C89.937 17.9821 88.1578 18.3406 85.8879 16.7722C83.8802 15.3849 81.5149 14.5153 79.1199 14.0079C76.94 13.5461 76.0019 12.4608 75.6084 10.2341C74.8508 5.94622 74.6902 5.9745 70.3563 5.97181C69.9026 5.97152 69.4425 6.02298 68.9964 5.96499C66.2471 5.6075 64.6916 6.60485 64.5445 9.55764C64.4105 12.2483 62.9727 13.7277 60.213 14.2186C58.4621 14.53 56.6064 15.151 55.1741 16.1647C52.307 18.1938 49.8059 18.2434 47.2036 15.8509C45.7103 14.4781 44.2631 14.8075 42.9548 16.2475C42.1624 17.1196 41.3203 17.9466 40.5036 18.7968C38.1295 21.2683 38.1838 24.586 40.8098 26.9043C42.0676 28.0148 43.5955 28.8195 45.0797 29.8155C45.8182 28.9608 46.4021 28.2798 46.9916 27.6036C54.7958 18.6528 64.5412 15.0192 76.2339 17.3182C83.1487 18.6778 88.7543 22.4182 93.2577 27.8382C93.8308 28.528 94.2698 29.8485 95.5543 29.2688C98.5223 27.9292 100.444 25.6063 101.397 22.5036C102.156 20.0369 99.777 19.3342 98.6987 17.9322C97.9902 17.0111 96.9952 16.3102 95.8258 15.2685ZM28.593 84.8576C29.2556 82.6042 29.955 80.3609 30.5725 78.0953C31.6167 74.264 31.0195 73.385 26.8829 72.4863C25.4538 75.9895 19.4517 100.657 19.488 102.878C22.8253 104.297 23.0177 104.247 23.9987 100.909C25.5264 95.7105 26.9835 90.4913 28.593 84.8576ZM64.6127 131.089C65.2425 130.436 65.9388 129.834 66.4868 129.119C67.3331 128.014 67.658 126.761 66.4681 125.714C65.3738 124.752 64.2335 125.235 63.2854 126.072C62.3343 126.912 61.4353 127.816 60.5701 128.745C59.5461 129.844 58.5168 131.14 59.7812 132.555C61.2349 134.181 62.5434 132.99 63.7323 131.926C63.9352 131.745 64.1323 131.557 64.6127 131.089ZM46.0233 109.165C47.1012 107.938 47.5867 106.594 46.1457 105.392C44.7261 104.208 43.6383 105.306 42.6438 106.258C41.6655 107.195 40.6805 108.132 39.7849 109.145C38.8408 110.214 38.6059 111.44 39.727 112.521C40.7761 113.533 41.887 113.208 42.8551 112.303C43.8444 111.379 44.7933 110.411 46.0233 109.165ZM56.7796 125.46C57.8956 124.274 59.0907 123.149 60.0997 121.878C60.7641 121.041 60.804 119.987 59.9266 119.168C59.0108 118.312 57.9574 118.178 56.997 119.052C55.7922 120.149 54.6515 121.319 53.5208 122.494C52.5867 123.465 51.8937 124.539 52.9691 125.838C54.1742 127.293 55.3502 126.655 56.7796 125.46ZM45.7343 117.558C46.5663 119.926 47.833 120.473 49.5981 119.036C50.915 117.963 52.0767 116.684 53.2143 115.413C54.0046 114.531 54.2276 113.46 53.287 112.509C52.3036 111.516 51.112 111.534 50.139 112.414C48.549 113.852 46.8193 115.193 45.7343 117.558ZM69.9404 134.467C71.2307 135.67 72.7151 136.186 73.7066 134.386C74.6696 132.638 73.0669 131.957 71.6718 131.107C70.9897 132.179 69.5797 132.598 69.9404 134.467Z" fill="#5831C8"/>
</svg>
