<svg width="34" height="34" viewBox="0 0 34 34" fill="none" xmlns="http://www.w3.org/2000/svg">
<path d="M26.9561 4.45463H23.8801V3.07856C23.8801 2.63336 23.3945 2.43101 22.9493 2.43101H20.5614C19.9948 0.812083 18.5782 0.00262057 16.9593 0.00262057C15.3582 -0.0575721 13.9019 0.92418 13.3572 2.43101H11.0098C10.5645 2.43101 10.1193 2.63336 10.1193 3.07856V4.45463H7.04331C5.22049 4.47407 3.72923 5.91203 3.64355 7.73292V30.924C3.64355 32.7048 5.26248 33.9999 7.04331 33.9999H26.9561C28.7369 33.9999 30.3558 32.7048 30.3558 30.924V7.733C30.2702 5.91203 28.7789 4.47407 26.9561 4.45463ZM11.7382 4.04993H13.9642C14.1535 4.02684 14.3304 3.94359 14.4688 3.81245C14.6073 3.68131 14.7 3.50919 14.7332 3.32143C14.9729 2.27762 15.8887 1.52835 16.9593 1.50015C18.02 1.5323 18.9219 2.2839 19.1448 3.32143C19.1801 3.51532 19.2787 3.69202 19.4252 3.82385C19.5717 3.95569 19.7578 4.0352 19.9543 4.04993H22.2613V7.28779H11.7382V4.04993ZM28.7369 30.924C28.7369 31.8145 27.8465 32.3811 26.9561 32.3811H7.04331C6.1529 32.3811 5.26248 31.8145 5.26248 30.924V7.733C5.34506 6.80617 6.11292 6.0906 7.04331 6.07363H10.1193V8.13776C10.162 8.59126 10.5548 8.9305 11.0097 8.90679H22.9492C23.1726 8.91901 23.3924 8.84668 23.5649 8.70418C23.7374 8.56168 23.8499 8.35946 23.88 8.13776V6.07355H26.956C27.8863 6.0906 28.6542 6.80609 28.7368 7.73292V30.924H28.7369Z"  />
<path d="M13.883 18.0943C13.5794 17.7743 13.0754 17.7562 12.7497 18.0538L10.1594 20.5227L9.06666 19.3894C8.76307 19.0694 8.25906 19.0514 7.93338 19.3489C7.78246 19.507 7.69824 19.7172 7.69824 19.9358C7.69824 20.1544 7.78246 20.3646 7.93338 20.5227L9.59275 22.2225C9.66369 22.302 9.7512 22.3649 9.84909 22.4069C9.94699 22.4488 10.0529 22.4688 10.1593 22.4654C10.3729 22.4624 10.5765 22.3751 10.726 22.2225L13.8828 19.2276C14.1958 18.9405 14.2167 18.454 13.9296 18.1411C13.9148 18.1247 13.8993 18.1091 13.883 18.0943ZM25.4988 19.8346H16.19C15.7429 19.8346 15.3805 20.197 15.3805 20.6441C15.3805 21.0911 15.7429 21.4535 16.19 21.4535H25.4988C25.9459 21.4535 26.3082 21.0911 26.3082 20.6441C26.3082 20.197 25.9459 19.8346 25.4988 19.8346ZM13.883 11.6186C13.5794 11.2985 13.0754 11.2805 12.7497 11.5781L10.1594 14.047L9.06666 12.9137C8.76307 12.5937 8.25906 12.5756 7.93338 12.8732C7.78246 13.0313 7.69824 13.2415 7.69824 13.4601C7.69824 13.6787 7.78246 13.8889 7.93338 14.047L9.59275 15.7468C9.66369 15.8263 9.7512 15.8892 9.84909 15.9312C9.94699 15.9731 10.0529 15.9931 10.1593 15.9897C10.3729 15.9867 10.5765 15.8994 10.726 15.7468L13.8828 12.7518C14.1958 12.4648 14.2167 11.9783 13.9296 11.6654C13.9148 11.649 13.8993 11.6334 13.883 11.6186ZM25.4988 13.3589H16.19C15.7429 13.3589 15.3805 13.7213 15.3805 14.1683C15.3805 14.6154 15.7429 14.9778 16.19 14.9778H25.4988C25.9459 14.9778 26.3082 14.6154 26.3082 14.1683C26.3082 13.7213 25.9459 13.3589 25.4988 13.3589ZM13.883 24.5699C13.5794 24.2499 13.0754 24.2319 12.7497 24.5295L10.1594 26.9983L9.06666 25.865C8.76307 25.545 8.25906 25.527 7.93338 25.8246C7.78246 25.9827 7.69824 26.1928 7.69824 26.4114C7.69824 26.63 7.78246 26.8402 7.93338 26.9983L9.59275 28.6982C9.66369 28.7776 9.7512 28.8405 9.84909 28.8825C9.94699 28.9244 10.0529 28.9444 10.1593 28.941C10.3729 28.938 10.5765 28.8507 10.726 28.6982L13.8828 25.7032C14.1958 25.4161 14.2167 24.9296 13.9296 24.6167C13.9148 24.6004 13.8992 24.5848 13.883 24.5699ZM25.4988 26.3103H16.19C15.7429 26.3103 15.3805 26.6727 15.3805 27.1198C15.3805 27.5668 15.7429 27.9292 16.19 27.9292H25.4988C25.9459 27.9292 26.3082 27.5668 26.3082 27.1198C26.3082 26.6727 25.9459 26.3103 25.4988 26.3103Z" />
</svg>
