<svg width="30" height="30" viewBox="0 0 30 30" fill="none" xmlns="http://www.w3.org/2000/svg">
<g clip-path="url(#clip0_1018_1396)">
<path d="M16.2875 2.33766L2.55 0.250159C1.9125 0.150159 1.2625 0.325159 0.775 0.737659C0.2875 1.16266 0 1.77516 0 2.41266V28.7502C0 29.4377 0.5625 30.0002 1.25 30.0002H5.3125V23.4377C5.3125 22.2252 6.2875 21.2502 7.5 21.2502H10.625C11.8375 21.2502 12.8125 22.2252 12.8125 23.4377V30.0002H18.125V4.50016C18.125 3.42516 17.35 2.51266 16.2875 2.33766ZM6.875 18.4377H5C4.75136 18.4377 4.5129 18.3389 4.33709 18.1631C4.16127 17.9873 4.0625 17.7488 4.0625 17.5002C4.0625 17.2515 4.16127 17.0131 4.33709 16.8372C4.5129 16.6614 4.75136 16.5627 5 16.5627H6.875C7.12364 16.5627 7.3621 16.6614 7.53791 16.8372C7.71373 17.0131 7.8125 17.2515 7.8125 17.5002C7.8125 17.7488 7.71373 17.9873 7.53791 18.1631C7.3621 18.3389 7.12364 18.4377 6.875 18.4377ZM6.875 14.6877H5C4.75136 14.6877 4.5129 14.5889 4.33709 14.4131C4.16127 14.2373 4.0625 13.9988 4.0625 13.7502C4.0625 13.5015 4.16127 13.2631 4.33709 13.0872C4.5129 12.9114 4.75136 12.8127 5 12.8127H6.875C7.12364 12.8127 7.3621 12.9114 7.53791 13.0872C7.71373 13.2631 7.8125 13.5015 7.8125 13.7502C7.8125 13.9988 7.71373 14.2373 7.53791 14.4131C7.3621 14.5889 7.12364 14.6877 6.875 14.6877ZM6.875 10.9377H5C4.75136 10.9377 4.5129 10.8389 4.33709 10.6631C4.16127 10.4873 4.0625 10.2488 4.0625 10.0002C4.0625 9.75152 4.16127 9.51306 4.33709 9.33725C4.5129 9.16143 4.75136 9.06266 5 9.06266H6.875C7.12364 9.06266 7.3621 9.16143 7.53791 9.33725C7.71373 9.51306 7.8125 9.75152 7.8125 10.0002C7.8125 10.2488 7.71373 10.4873 7.53791 10.6631C7.3621 10.8389 7.12364 10.9377 6.875 10.9377ZM6.875 7.18766H5C4.75136 7.18766 4.5129 7.08889 4.33709 6.91307C4.16127 6.73726 4.0625 6.4988 4.0625 6.25016C4.0625 6.00152 4.16127 5.76306 4.33709 5.58725C4.5129 5.41143 4.75136 5.31266 5 5.31266H6.875C7.12364 5.31266 7.3621 5.41143 7.53791 5.58725C7.71373 5.76306 7.8125 6.00152 7.8125 6.25016C7.8125 6.4988 7.71373 6.73726 7.53791 6.91307C7.3621 7.08889 7.12364 7.18766 6.875 7.18766ZM13.125 18.4377H11.25C11.0014 18.4377 10.7629 18.3389 10.5871 18.1631C10.4113 17.9873 10.3125 17.7488 10.3125 17.5002C10.3125 17.2515 10.4113 17.0131 10.5871 16.8372C10.7629 16.6614 11.0014 16.5627 11.25 16.5627H13.125C13.3736 16.5627 13.6121 16.6614 13.7879 16.8372C13.9637 17.0131 14.0625 17.2515 14.0625 17.5002C14.0625 17.7488 13.9637 17.9873 13.7879 18.1631C13.6121 18.3389 13.3736 18.4377 13.125 18.4377ZM13.125 14.6877H11.25C11.0014 14.6877 10.7629 14.5889 10.5871 14.4131C10.4113 14.2373 10.3125 13.9988 10.3125 13.7502C10.3125 13.5015 10.4113 13.2631 10.5871 13.0872C10.7629 12.9114 11.0014 12.8127 11.25 12.8127H13.125C13.3736 12.8127 13.6121 12.9114 13.7879 13.0872C13.9637 13.2631 14.0625 13.5015 14.0625 13.7502C14.0625 13.9988 13.9637 14.2373 13.7879 14.4131C13.6121 14.5889 13.3736 14.6877 13.125 14.6877ZM13.125 10.9377H11.25C11.0014 10.9377 10.7629 10.8389 10.5871 10.6631C10.4113 10.4873 10.3125 10.2488 10.3125 10.0002C10.3125 9.75152 10.4113 9.51306 10.5871 9.33725C10.7629 9.16143 11.0014 9.06266 11.25 9.06266H13.125C13.3736 9.06266 13.6121 9.16143 13.7879 9.33725C13.9637 9.51306 14.0625 9.75152 14.0625 10.0002C14.0625 10.2488 13.9637 10.4873 13.7879 10.6631C13.6121 10.8389 13.3736 10.9377 13.125 10.9377ZM13.125 7.18766H11.25C11.0014 7.18766 10.7629 7.08889 10.5871 6.91307C10.4113 6.73726 10.3125 6.4988 10.3125 6.25016C10.3125 6.00152 10.4113 5.76306 10.5871 5.58725C10.7629 5.41143 11.0014 5.31266 11.25 5.31266H13.125C13.3736 5.31266 13.6121 5.41143 13.7879 5.58725C13.9637 5.76306 14.0625 6.00152 14.0625 6.25016C14.0625 6.4988 13.9637 6.73726 13.7879 6.91307C13.6121 7.08889 13.3736 7.18766 13.125 7.18766ZM28.275 13.5527L19.375 11.6889V30.0002H27.8125C29.0187 30.0002 30 29.0189 30 27.8127V15.6902C30 14.6577 29.2963 13.7789 28.275 13.5527ZM25.3125 26.2502H23.4375C23.1889 26.2502 22.9504 26.1514 22.7746 25.9756C22.5988 25.7998 22.5 25.5613 22.5 25.3127C22.5 25.064 22.5988 24.8256 22.7746 24.6497C22.9504 24.4739 23.1889 24.3752 23.4375 24.3752H25.3125C25.5611 24.3752 25.7996 24.4739 25.9754 24.6497C26.1512 24.8256 26.25 25.064 26.25 25.3127C26.25 25.5613 26.1512 25.7998 25.9754 25.9756C25.7996 26.1514 25.5611 26.2502 25.3125 26.2502ZM25.3125 22.5002H23.4375C23.1889 22.5002 22.9504 22.4014 22.7746 22.2256C22.5988 22.0498 22.5 21.8113 22.5 21.5627C22.5 21.314 22.5988 21.0756 22.7746 20.8997C22.9504 20.7239 23.1889 20.6252 23.4375 20.6252H25.3125C25.5611 20.6252 25.7996 20.7239 25.9754 20.8997C26.1512 21.0756 26.25 21.314 26.25 21.5627C26.25 21.8113 26.1512 22.0498 25.9754 22.2256C25.7996 22.4014 25.5611 22.5002 25.3125 22.5002ZM25.3125 18.7502H23.4375C23.1889 18.7502 22.9504 18.6514 22.7746 18.4756C22.5988 18.2998 22.5 18.0613 22.5 17.8127C22.5 17.564 22.5988 17.3256 22.7746 17.1497C22.9504 16.9739 23.1889 16.8752 23.4375 16.8752H25.3125C25.5611 16.8752 25.7996 16.9739 25.9754 17.1497C26.1512 17.3256 26.25 17.564 26.25 17.8127C26.25 18.0613 26.1512 18.2998 25.9754 18.4756C25.7996 18.6514 25.5611 18.7502 25.3125 18.7502Z" fill="url(#paint0_linear_1018_1396)"/>
</g>
<defs>
<linearGradient id="paint0_linear_1018_1396" x1="-14.0909" y1="3.38088" x2="28.8537" y2="-7.44832" gradientUnits="userSpaceOnUse">
<stop stop-color="#8B97FF"/>
<stop offset="1" stop-color="#EDEFFF"/>
</linearGradient>
<clipPath id="clip0_1018_1396">
<rect width="30" height="30" fill="white"/>
</clipPath>
</defs>
</svg>
