<svg xmlns="http://www.w3.org/2000/svg" viewBox="0 0 64 64" id="create-idea"><path fill="#9bc9ff" d="M56.56 27.37a24.576 24.576 0 0 0-2.87-7.78l3.42-3.48-9.2-9.2-3.47 3.41a24.433 24.433 0 0 0-7.81-2.88L36 3H28l-.63 4.44a24.7 24.7 0 0 0-9.46 3.91L14.32 8.67 8.67 14.32l2.68 3.59a24.7 24.7 0 0 0-3.91 9.46L3 28v8l4.44.63a24.784 24.784 0 0 0 2.63 7.38l6.84-6.7A15.836 15.836 0 0 1 16 32 16.013 16.013 0 0 1 37.61 17.01l6.77-6.63 9.26 9.26L47 26.41A16.011 16.011 0 0 1 26.7 47.1l-6.71 6.83a24.784 24.784 0 0 0 7.38 2.63L28 61h8l.63-4.44a24.7 24.7 0 0 0 9.46-3.91l3.59 2.68 5.65-5.65-2.68-3.59a24.7 24.7 0 0 0 3.91-9.46L61 36V28zM6 48l-.98 4.23a9.009 9.009 0 0 1 6.75 6.75L16 58l-3-7z"></path><path fill="#4f9af5" d="M61.141,27.01l-3.74-.531a25.478,25.478,0,0,0-2.487-6.709L61.173,13.4a1,1,0,0,0,.208-.312A7.9,7.9,0,0,0,62,10a8.009,8.009,0,0,0-8-8,7.919,7.919,0,0,0-3,.583,1.023,1.023,0,0,0-.323.212L44.26,9.1a25.38,25.38,0,0,0-6.739-2.5L36.99,2.859A1,1,0,0,0,36,2H28a1,1,0,0,0-.99.859L26.479,6.6a25.517,25.517,0,0,0-8.536,3.529L14.918,7.869a1,1,0,0,0-1.3.094l-5.65,5.65a1,1,0,0,0-.094,1.3l2.258,3.025A25.517,25.517,0,0,0,6.6,26.479l-3.739.531A1,1,0,0,0,2,28v8a1,1,0,0,0,.859.99l3.74.531a25.729,25.729,0,0,0,2.25,6.285L5.3,47.286a1,1,0,0,0-.275.489l-3,13A1,1,0,0,0,3,62a1.014,1.014,0,0,0,.225-.025l13-3a1,1,0,0,0,.489-.275L20.2,55.152A25.7,25.7,0,0,0,26.479,57.4l.531,3.74A1,1,0,0,0,28,62h8a1,1,0,0,0,.99-.859l.531-3.739a25.517,25.517,0,0,0,8.536-3.529l3.025,2.258a1,1,0,0,0,1.3-.094l5.65-5.65a1,1,0,0,0,.094-1.3l-2.258-3.025A25.517,25.517,0,0,0,57.4,37.521l3.739-.531A1,1,0,0,0,62,36V28A1,1,0,0,0,61.141,27.01ZM47,32A14.965,14.965,0,0,1,28.589,46.6l17.947-18.29A15.061,15.061,0,0,1,47,32ZM16.331,56.235l-2.145-5.007L49,16.414l3.237,3.237ZM17,32A14.979,14.979,0,0,1,35.713,17.473L17.405,35.419A14.913,14.913,0,0,1,17,32ZM44.372,11.786,47.586,15,12.772,49.814,7.766,47.669ZM47.906,8.32l7.8,7.8-2.066,2.106L45.8,10.386ZM12.238,51.762,14.61,57.3l-2.161.5a10.045,10.045,0,0,0-6.242-6.242l.5-2.161Zm39.7-47.394A5.931,5.931,0,0,1,54,4a6.006,6.006,0,0,1,6,6,5.922,5.922,0,0,1-.393,2.141l-2.5,2.55-1.047-1.047c-.009-.01-.012-.022-.021-.031l-5.65-5.65c-.009-.009-.021-.012-.031-.021L49.33,6.916ZM8.423,36.447a1,1,0,0,0-.842-.807L4,35.132V28.868l3.581-.508a1,1,0,0,0,.842-.808,23.569,23.569,0,0,1,3.752-9.077,1,1,0,0,0-.024-1.163l-2.162-2.9,4.426-4.426,2.9,2.162a1,1,0,0,0,1.163.024,23.569,23.569,0,0,1,9.077-3.752,1,1,0,0,0,.808-.842L28.868,4h6.264l.508,3.581a1,1,0,0,0,.807.842,23.466,23.466,0,0,1,6.311,2.144l-5.414,5.307A16.955,16.955,0,0,0,15.775,37.018l-5.423,5.315A23.769,23.769,0,0,1,8.423,36.447ZM5.757,53.5A8.051,8.051,0,0,1,10.5,58.243L4.334,59.666ZM60,35.132l-3.581.508a1,1,0,0,0-.842.808,23.569,23.569,0,0,1-3.752,9.077,1,1,0,0,0,.024,1.163l2.162,2.9-4.426,4.426-2.9-2.162a1,1,0,0,0-1.163-.024,23.569,23.569,0,0,1-9.077,3.752,1,1,0,0,0-.808.842L35.132,60H28.868l-.508-3.581a1,1,0,0,0-.807-.842A23.784,23.784,0,0,1,21.67,53.65l5.317-5.419A16.973,16.973,0,0,0,48.136,26.677l5.305-5.406a23.566,23.566,0,0,1,2.136,6.283,1,1,0,0,0,.842.806L60,28.868Z"></path></svg>