<svg width="40" height="39" viewBox="0 0 40 39" fill="none" xmlns="http://www.w3.org/2000/svg">
<path d="M24.7059 36.6469H26.4706V15.4704C26.4706 15.1584 26.5945 14.8592 26.8152 14.6385C27.0358 14.4179 27.335 14.2939 27.6471 14.2939H34.7059C35.0179 14.2939 35.3171 14.4179 35.5378 14.6385C35.7584 14.8592 35.8824 15.1584 35.8824 15.4704V36.6469H38.8235C39.1356 36.6469 39.4348 36.7708 39.6554 36.9915C39.8761 37.2121 40 37.5113 40 37.8234C40 38.1354 39.8761 38.4346 39.6554 38.6553C39.4348 38.8759 39.1356 38.9998 38.8235 38.9998H1.17647C0.864451 38.9998 0.565211 38.8759 0.34458 38.6553C0.123949 38.4346 0 38.1354 0 37.8234C0 37.5113 0.123949 37.2121 0.34458 36.9915C0.565211 36.7708 0.864451 36.6469 1.17647 36.6469H4.11765V28.4116C4.11765 28.0996 4.2416 27.8003 4.46223 27.5797C4.68286 27.3591 4.9821 27.2351 5.29412 27.2351H12.3529C12.665 27.2351 12.9642 27.3591 13.1848 27.5797C13.4055 27.8003 13.5294 28.0996 13.5294 28.4116V36.6469H15.2941V23.1175C15.2941 22.8055 15.4181 22.5062 15.6387 22.2856C15.8593 22.065 16.1586 21.941 16.4706 21.941H23.5294C23.8414 21.941 24.1407 22.065 24.3613 22.2856C24.5819 22.5062 24.7059 22.8055 24.7059 23.1175V36.6469Z" fill="url(#paint0_linear_74_34)"/>
<path d="M28.2354 9.41177V4.01647L28.5801 4.36118C28.802 4.57548 29.0991 4.69406 29.4076 4.69138C29.7161 4.6887 30.0111 4.56497 30.2293 4.34685C30.4474 4.12872 30.5711 3.83365 30.5738 3.52518C30.5765 3.21671 30.4579 2.91953 30.2436 2.69765L27.8907 0.344706C27.67 0.124152 27.3709 0.000251231 27.0589 0.000251231C26.7469 0.000251231 26.4478 0.124152 26.2271 0.344706L23.8742 2.69765C23.6599 2.91953 23.5413 3.21671 23.544 3.52518C23.5467 3.83365 23.6704 4.12872 23.8885 4.34685C24.1067 4.56497 24.4017 4.6887 24.7102 4.69138C25.0187 4.69406 25.3158 4.57548 25.5377 4.36118L25.8824 4.01647V9.41177C25.8824 10.9806 28.2354 10.9806 28.2354 9.41177Z" fill="#8B97FF"/>
<path d="M34.1177 1.17647V6.57176L33.773 6.22706C33.5511 6.01276 33.254 5.89417 32.9455 5.89685C32.637 5.89953 32.3419 6.02326 32.1238 6.24139C31.9057 6.45952 31.782 6.75459 31.7793 7.06306C31.7766 7.37152 31.8952 7.6687 32.1095 7.89059L34.4624 10.2435C34.6831 10.4641 34.9822 10.588 35.2942 10.588C35.6062 10.588 35.9053 10.4641 36.126 10.2435L38.4789 7.89059C38.6932 7.6687 38.8118 7.37152 38.8091 7.06306C38.8064 6.75459 38.6827 6.45952 38.4646 6.24139C38.2464 6.02326 37.9514 5.89953 37.6429 5.89685C37.3344 5.89417 37.0373 6.01276 36.8154 6.22706L36.4707 6.57176V1.17647C36.4707 0.864451 36.3467 0.565211 36.1261 0.34458C35.9055 0.123949 35.6062 0 35.2942 0C34.9822 0 34.6829 0.123949 34.4623 0.34458C34.2417 0.565211 34.1177 0.864451 34.1177 1.17647Z" fill="#8B97FF"/>
<defs>
<linearGradient id="paint0_linear_74_34" x1="0" y1="27" x2="40" y2="27" gradientUnits="userSpaceOnUse">
<stop stop-color="#5465F7"/>
<stop offset="1" stop-color="#9333EA"/>
</linearGradient>
</defs>
</svg>
