<svg width="40" height="40" viewBox="0 0 40 40" fill="none" xmlns="http://www.w3.org/2000/svg">
<path d="M19.2302 33.8505V21.9486C19.2302 21.5244 19.5773 21.1773 20.0007 21.1773C20.4249 21.1773 20.772 21.5244 20.772 21.9486V33.8505C24.0581 32.1222 29.1871 30.3101 33.8845 32.3614V8.77501C32.7743 8.21954 31.5554 7.99538 30.1592 8.08821H29.1403C29.2256 8.5818 29.2641 9.08293 29.2641 9.59991C29.2641 14.7063 25.1071 18.8633 20.0007 18.8633C14.8943 18.8633 10.7373 14.7063 10.7373 9.59991C10.7373 9.08293 10.7758 8.5818 10.8603 8.08821H9.89657C8.4543 7.98784 7.22789 8.21954 6.11694 8.77501V32.3614C7.606 31.7063 9.13279 31.4437 10.6369 31.4437C13.8762 31.4437 16.9773 32.6626 19.2302 33.8505ZM30.8075 10.3788C31.0928 10.3788 31.3781 10.4022 31.6868 10.4482C32.1109 10.5176 32.3962 10.9116 32.3343 11.3275C32.3058 11.5098 32.2133 11.676 32.0733 11.7964C31.9333 11.9167 31.7551 11.9832 31.5705 11.9841C31.5328 11.9841 31.4935 11.9841 31.4551 11.9758C31.2409 11.9395 31.024 11.9213 30.8068 11.9214C30.3826 11.9214 30.0354 11.5743 30.0354 11.1501C30.0354 10.726 30.3834 10.3788 30.8075 10.3788ZM29.8581 14.606C30.4714 14.5317 31.0922 14.5446 31.7019 14.6444C32.126 14.7214 32.4037 15.1229 32.3268 15.5395C32.2976 15.7188 32.2054 15.8818 32.0668 15.9991C31.9281 16.1165 31.7522 16.1804 31.5705 16.1795C31.5266 16.1787 31.4829 16.1737 31.44 16.1644C31.2021 16.13 30.9625 16.1093 30.7222 16.1026C30.5139 16.095 30.2905 16.1026 30.0279 16.1327C29.9271 16.1445 29.825 16.1363 29.7274 16.1086C29.6299 16.0808 29.5387 16.0341 29.4592 15.9711C29.3797 15.908 29.3134 15.8299 29.2641 15.7413C29.2149 15.6526 29.1836 15.555 29.172 15.4543C29.1614 15.3534 29.1707 15.2515 29.1994 15.1543C29.2282 15.0571 29.2758 14.9665 29.3396 14.8877C29.4034 14.809 29.4821 14.7435 29.5712 14.6952C29.6603 14.6468 29.7573 14.6165 29.8581 14.606ZM22.7169 21.332C24.8762 20.1675 28.0618 18.6248 30.7773 18.7403C31.1011 18.7554 31.4173 18.7863 31.7177 18.8482C32.1343 18.9252 32.4045 19.3343 32.3275 19.7509C32.3092 19.8506 32.2712 19.9457 32.2156 20.0305C32.1601 20.1154 32.0882 20.1883 32.0041 20.245C31.9201 20.3017 31.8256 20.3411 31.7261 20.3608C31.6266 20.3806 31.5242 20.3803 31.4249 20.3599C31.1905 20.3178 30.9534 20.2921 30.7154 20.2829C28.1079 20.1826 24.6068 22.0716 23.4498 22.6897C23.2705 22.7864 23.0603 22.8081 22.8651 22.7501C22.6699 22.6921 22.5056 22.5591 22.4083 22.3803C22.3116 22.1999 22.2898 21.9888 22.3475 21.7925C22.4053 21.5962 22.538 21.4312 22.7169 21.332ZM22.732 25.3584C24.892 24.2399 28.0694 22.7584 30.7924 22.9207C31.1169 22.9433 31.4324 22.9826 31.7335 23.0444C32.1502 23.1365 32.4128 23.5456 32.3275 23.9622C32.2347 24.3788 31.8264 24.649 31.4098 24.5561C31.1758 24.5086 30.9387 24.4776 30.7003 24.4633C28.1003 24.301 24.5909 26.1297 23.4415 26.7312C23.0083 26.9335 22.5826 26.7433 22.4 26.3992C22.3073 26.2168 22.2901 26.0052 22.3523 25.8103C22.4144 25.6153 22.5509 25.4535 22.732 25.3584ZM22.7396 29.3848C24.8996 28.3048 28.0928 26.8927 30.8075 27.101C31.132 27.132 31.4483 27.1788 31.7486 27.2482C32.1577 27.3478 32.4203 27.7569 32.32 28.1735C32.2271 28.5901 31.8105 28.8452 31.3939 28.7516C31.161 28.6952 30.9237 28.659 30.6845 28.6437C28.0852 28.4354 24.5834 30.1863 23.4339 30.7644C23.3429 30.8106 23.2436 30.8383 23.1418 30.8459C23.04 30.8534 22.9377 30.8408 22.8409 30.8085C22.744 30.7763 22.6545 30.7252 22.5775 30.6582C22.5006 30.5912 22.4376 30.5095 22.3924 30.418C22.2075 30.0407 22.3622 29.5773 22.7396 29.3841V29.3848ZM17.2792 21.332C17.6566 21.5327 17.7954 22.0029 17.5954 22.381C17.4965 22.5603 17.3308 22.6932 17.1344 22.751C16.9379 22.8088 16.7266 22.7868 16.5464 22.6897C15.3969 22.0724 11.88 20.1826 9.28826 20.2822C9.04072 20.2905 8.80223 20.3214 8.57883 20.3599C8.47953 20.3797 8.37728 20.3797 8.278 20.3597C8.17873 20.3398 8.08439 20.3003 8.00045 20.2437C7.91651 20.1871 7.84463 20.1143 7.78897 20.0297C7.73332 19.9451 7.69498 19.8504 7.67619 19.7509C7.65637 19.6516 7.65644 19.5493 7.67639 19.45C7.69634 19.3508 7.73577 19.2564 7.79241 19.1725C7.84905 19.0885 7.92177 19.0167 8.00636 18.961C8.09095 18.9053 8.18574 18.867 8.28525 18.8482C8.59572 18.7881 8.91036 18.752 9.22638 18.7403C11.9335 18.6248 15.1192 20.1667 17.2792 21.332ZM17.603 26.3992C17.508 26.5805 17.3454 26.717 17.1505 26.7792C16.9555 26.8414 16.7438 26.8241 16.5615 26.7312C15.4045 26.1297 11.8951 24.301 9.30336 24.4633C9.05657 24.4784 8.81732 24.5093 8.59392 24.5561C8.39362 24.5973 8.18518 24.5581 8.01351 24.447C7.84185 24.3359 7.72071 24.1618 7.67619 23.9622C7.63504 23.762 7.67415 23.5536 7.7851 23.382C7.89604 23.2103 8.06996 23.0891 8.2694 23.0444C8.58009 22.9828 8.89446 22.9415 9.21053 22.9207C11.9185 22.7667 15.1117 24.2399 17.2709 25.3584C17.649 25.5584 17.7954 26.021 17.603 26.3992ZM8.31543 10.4482C8.60632 10.4027 8.90026 10.3795 9.19468 10.3788C9.61883 10.3788 9.966 10.726 9.966 11.1501C9.966 11.5743 9.61883 11.9214 9.19468 11.9214C8.98638 11.9214 8.77808 11.9365 8.54638 11.9758C8.50864 11.9833 8.4694 11.9833 8.43091 11.9833C8.05355 11.9833 7.72902 11.7131 7.66713 11.3275C7.63784 11.1251 7.68946 10.9193 7.8108 10.7548C7.93215 10.5902 8.11345 10.4801 8.31543 10.4482ZM8.30034 14.6444C8.90978 14.5447 9.53028 14.5317 10.1434 14.606C10.5675 14.652 10.8679 15.0301 10.8226 15.4543C10.7758 15.8784 10.3902 16.1871 9.97355 16.1335C9.74296 16.1089 9.51107 16.0986 9.27921 16.1026C9.0392 16.1084 8.79977 16.1288 8.56223 16.1637C8.51619 16.1712 8.47694 16.1788 8.43091 16.1788C8.06109 16.1788 7.73657 15.9169 7.66713 15.5395C7.63377 15.3372 7.68142 15.1298 7.79978 14.9623C7.91814 14.7948 8.09769 14.6806 8.29959 14.6444H8.30034ZM9.3177 28.6444C9.07856 28.6595 8.84119 28.6954 8.60826 28.7516C8.40793 28.7983 8.19726 28.7636 8.02241 28.6553C7.84756 28.5469 7.72279 28.3737 7.67543 28.1735C7.63039 27.9742 7.66585 27.7652 7.77412 27.5919C7.88238 27.4186 8.05468 27.2951 8.25355 27.2482C8.5637 27.1786 8.87809 27.1295 9.19468 27.101C11.9094 26.8927 15.0951 28.3048 17.2626 29.3848C17.64 29.5773 17.7947 30.0399 17.6022 30.418C17.5581 30.5095 17.496 30.5913 17.4198 30.6585C17.3436 30.7257 17.2547 30.777 17.1584 30.8093C17.062 30.8417 16.9602 30.8544 16.8589 30.8469C16.7575 30.8393 16.6587 30.8115 16.5683 30.7652C15.4188 30.1863 11.9252 28.4437 9.3177 28.6444Z" fill="#3B4EF4"/>
<path d="M36.1978 12.1758H35.4265V33.618C35.4265 34.2135 34.7789 34.5856 34.2635 34.2822C29.3653 31.3901 23.471 34.0075 20.3918 35.8248C20.273 35.8946 20.1378 35.9313 20.0001 35.9313C19.8623 35.9313 19.7271 35.8946 19.6084 35.8248C16.5299 34.0075 10.6348 31.3916 5.73667 34.2822C5.6195 34.351 5.48626 34.3877 5.35039 34.3885C5.21452 34.3893 5.08084 34.3542 4.96285 34.2869C4.84486 34.2195 4.74675 34.1222 4.67841 34.0047C4.61007 33.8873 4.57393 33.7539 4.57365 33.618V12.1765H3.80233C3.37742 12.1765 3.03101 12.5222 3.03101 12.9479V35.1622C3.03101 35.5871 3.37742 35.9335 3.80233 35.9335H15.271C16.7231 35.9335 18.0665 36.5486 18.8635 37.5803C19.4121 38.2905 20.588 38.2897 21.1359 37.5803C21.9336 36.5486 23.277 35.9335 24.7284 35.9335H36.1978C36.6227 35.9335 36.9691 35.5863 36.9691 35.1622V12.9479C36.9691 12.5222 36.6227 12.1758 36.1978 12.1758Z" fill="#3B4EF4"/>
<path d="M20 17.3184C24.2642 17.3184 27.72 13.8626 27.72 9.59766C27.72 5.34181 24.2642 1.88672 19.9993 1.88672C15.7351 1.88672 12.28 5.34181 12.28 9.59842C12.28 13.8626 15.7351 17.3184 20 17.3184ZM17.1834 7.57955C16.9789 7.57955 16.7827 7.49829 16.638 7.35363C16.4934 7.20898 16.4121 7.0128 16.4121 6.80823C16.4121 6.60366 16.4934 6.40747 16.638 6.26282C16.7827 6.11817 16.9789 6.03691 17.1834 6.03691H18.1004V5.51464C18.1004 5.31008 18.1817 5.11389 18.3263 4.96924C18.471 4.82459 18.6672 4.74332 18.8717 4.74332C19.0763 4.74332 19.2725 4.82459 19.4171 4.96924C19.5618 5.11389 19.643 5.31008 19.643 5.51464V6.03766H20.234V5.5154C20.234 5.31083 20.3153 5.11464 20.4599 4.96999C20.6046 4.82534 20.8007 4.74408 21.0053 4.74408C21.2099 4.74408 21.4061 4.82534 21.5507 4.96999C21.6954 5.11464 21.7766 5.31083 21.7766 5.5154V6.07389C22.2818 6.15805 22.7408 6.41832 23.0723 6.80858C23.4039 7.19884 23.5865 7.69388 23.588 8.20596C23.588 8.74106 23.3857 9.22483 23.0634 9.6037C23.3857 9.98181 23.588 10.4656 23.588 10.9999C23.5867 11.5121 23.4041 12.0074 23.0726 12.3978C22.741 12.7882 22.2819 13.0486 21.7766 13.1328V13.6912C21.7766 13.8958 21.6954 14.092 21.5507 14.2367C21.4061 14.3813 21.2099 14.4626 21.0053 14.4626C20.8007 14.4626 20.6046 14.3813 20.4599 14.2367C20.3153 14.092 20.234 13.8958 20.234 13.6912V13.169H19.643V13.6912C19.643 13.8958 19.5618 14.092 19.4171 14.2367C19.2725 14.3813 19.0763 14.4626 18.8717 14.4626C18.6672 14.4626 18.471 14.3813 18.3263 14.2367C18.1817 14.092 18.1004 13.8958 18.1004 13.6912V13.169H17.1834C16.9789 13.169 16.7827 13.0877 16.638 12.9431C16.4934 12.7984 16.4121 12.6022 16.4121 12.3977C16.4121 12.1931 16.4934 11.9969 16.638 11.8523C16.7827 11.7076 16.9789 11.6263 17.1834 11.6263H17.96V7.5803L17.1834 7.57955Z" fill="#8B97FF"/>
<path d="M21.8616 7.76257C21.9791 7.88005 22.0451 8.03938 22.0451 8.20552C22.0451 8.37165 21.9791 8.53098 21.8616 8.64846C21.7442 8.76593 21.5848 8.83193 21.4187 8.83193H19.5017V7.5791H21.4187C21.5848 7.5791 21.7442 7.6451 21.8616 7.76257Z" fill="#8B97FF"/>
<path d="M21.8616 10.5573C21.9791 10.6748 22.0451 10.8341 22.0451 11.0002C22.0451 11.1664 21.9791 11.3249 21.8616 11.4424C21.7442 11.5599 21.5848 11.6259 21.4187 11.6259H19.5017V10.3738H21.4187C21.5848 10.3738 21.7442 10.4398 21.8616 10.5573Z" fill="#8B97FF"/>
</svg>
