<svg width="42" height="42" viewBox="0 0 42 42" fill="none" xmlns="http://www.w3.org/2000/svg">
<path d="M24.7059 37.6469H26.4706V16.4704C26.4706 16.1584 26.5945 15.8592 26.8152 15.6385C27.0358 15.4179 27.335 15.2939 27.6471 15.2939H34.7059C35.0179 15.2939 35.3171 15.4179 35.5378 15.6385C35.7584 15.8592 35.8824 16.1584 35.8824 16.4704V37.6469H38.8235C39.1356 37.6469 39.4348 37.7708 39.6554 37.9915C39.8761 38.2121 40 38.5113 40 38.8234C40 39.1354 39.8761 39.4346 39.6554 39.6553C39.4348 39.8759 39.1356 39.9998 38.8235 39.9998H1.17647C0.864451 39.9998 0.565211 39.8759 0.34458 39.6553C0.123949 39.4346 0 39.1354 0 38.8234C0 38.5113 0.123949 38.2121 0.34458 37.9915C0.565211 37.7708 0.864451 37.6469 1.17647 37.6469H4.11765V29.4116C4.11765 29.0996 4.2416 28.8003 4.46223 28.5797C4.68286 28.3591 4.9821 28.2351 5.29412 28.2351H12.3529C12.665 28.2351 12.9642 28.3591 13.1848 28.5797C13.4055 28.8003 13.5294 29.0996 13.5294 29.4116V37.6469H15.2941V24.1175C15.2941 23.8055 15.4181 23.5062 15.6387 23.2856C15.8593 23.065 16.1586 22.941 16.4706 22.941H23.5294C23.8414 22.941 24.1407 23.065 24.3613 23.2856C24.5819 23.5062 24.7059 23.8055 24.7059 24.1175V37.6469Z" fill="#3B4EF4"/>
<path d="M28.2354 10.4118V5.01647L28.5801 5.36118C28.802 5.57548 29.0991 5.69406 29.4076 5.69138C29.7161 5.6887 30.0111 5.56497 30.2293 5.34685C30.4474 5.12872 30.5711 4.83365 30.5738 4.52518C30.5765 4.21671 30.4579 3.91953 30.2436 3.69765L27.8907 1.34471C27.67 1.12415 27.3709 1.00025 27.0589 1.00025C26.7469 1.00025 26.4478 1.12415 26.2271 1.34471L23.8742 3.69765C23.6599 3.91953 23.5413 4.21671 23.544 4.52518C23.5467 4.83365 23.6704 5.12872 23.8885 5.34685C24.1067 5.56497 24.4017 5.6887 24.7102 5.69138C25.0187 5.69406 25.3158 5.57548 25.5377 5.36118L25.8824 5.01647V10.4118C25.8824 11.9806 28.2354 11.9806 28.2354 10.4118Z" fill="#8B97FF"/>
<path d="M34.1177 2.17647V7.57176L33.773 7.22706C33.5511 7.01276 33.254 6.89417 32.9455 6.89685C32.637 6.89953 32.3419 7.02326 32.1238 7.24139C31.9057 7.45952 31.782 7.75459 31.7793 8.06306C31.7766 8.37152 31.8952 8.6687 32.1095 8.89059L34.4624 11.2435C34.6831 11.4641 34.9822 11.588 35.2942 11.588C35.6062 11.588 35.9053 11.4641 36.126 11.2435L38.4789 8.89059C38.6932 8.6687 38.8118 8.37152 38.8091 8.06306C38.8064 7.75459 38.6827 7.45952 38.4646 7.24139C38.2464 7.02326 37.9514 6.89953 37.6429 6.89685C37.3344 6.89417 37.0373 7.01276 36.8154 7.22706L36.4707 7.57176V2.17647C36.4707 1.86445 36.3467 1.56521 36.1261 1.34458C35.9055 1.12395 35.6062 1 35.2942 1C34.9822 1 34.6829 1.12395 34.4623 1.34458C34.2417 1.56521 34.1177 1.86445 34.1177 2.17647Z" fill="#8B97FF"/>
</svg>
