<svg width="32" height="32" viewBox="0 0 32 32" fill="none" xmlns="http://www.w3.org/2000/svg">
<path d="M16 0C7.16375 0 0 7.16375 0 16C0 24.8363 7.16375 32 16 32C24.8363 32 32 24.8363 32 16C32 7.16375 24.8363 0 16 0Z" fill="url(#paint0_linear_32_18)"/>
<path d="M20.8516 11.5487C19.944 11.132 18.9861 10.8349 18.002 10.6648C17.993 10.6631 17.9838 10.6643 17.9756 10.6682C17.9673 10.6721 17.9606 10.6785 17.9562 10.6864C17.8331 10.9053 17.6968 11.1909 17.6013 11.4153C16.5253 11.2542 15.4547 11.2542 14.4007 11.4153C14.3052 11.1859 14.164 10.9053 14.0403 10.6864C14.0358 10.6787 14.029 10.6724 14.0208 10.6685C14.0126 10.6647 14.0035 10.6634 13.9945 10.6648C12.9946 10.837 12.0378 11.1387 11.1449 11.5487C11.1371 11.5519 11.1306 11.5576 11.1261 11.5648C9.31117 14.2763 8.81395 16.9212 9.05785 19.5333C9.05895 19.5461 9.06614 19.5583 9.07606 19.5661C10.2735 20.4455 11.4335 20.9793 12.5719 21.3332C12.5808 21.3359 12.5902 21.3358 12.599 21.3329C12.6078 21.33 12.6155 21.3245 12.621 21.3171C12.8903 20.9494 13.1303 20.5616 13.3362 20.1538C13.3483 20.13 13.3367 20.1016 13.3119 20.0922C12.9311 19.9477 12.5686 19.7716 12.2198 19.5717C12.1922 19.5556 12.19 19.5161 12.2154 19.4972C12.289 19.4422 12.3613 19.3855 12.4323 19.3272C12.4385 19.3221 12.446 19.3188 12.454 19.3177C12.462 19.3166 12.4702 19.3178 12.4775 19.3211C14.7687 20.3672 17.2492 20.3672 19.5134 19.3211C19.5207 19.3176 19.529 19.3162 19.5371 19.3172C19.5452 19.3182 19.5528 19.3215 19.5592 19.3266C19.6302 19.3853 19.7027 19.4421 19.7766 19.4972C19.802 19.5161 19.8003 19.5555 19.7727 19.5716C19.424 19.7755 19.0614 19.9477 18.6801 20.0916C18.6742 20.0939 18.6689 20.0973 18.6645 20.1018C18.66 20.1062 18.6566 20.1115 18.6544 20.1174C18.6521 20.1233 18.6511 20.1296 18.6515 20.1358C18.6519 20.1421 18.6535 20.1482 18.6564 20.1538C18.8667 20.561 19.1067 20.9488 19.371 21.3166C19.3821 21.3321 19.4019 21.3388 19.4201 21.3332C20.564 20.9793 21.724 20.4455 22.9215 19.5661C22.9266 19.5623 22.9309 19.5575 22.9341 19.5519C22.9372 19.5464 22.9391 19.5402 22.9397 19.5338C23.2316 16.514 22.4508 13.8908 20.8698 11.5653C20.8659 11.5578 20.8595 11.5519 20.8516 11.5487ZM13.6784 17.9428C12.9886 17.9428 12.4202 17.3095 12.4202 16.5317C12.4202 15.754 12.9775 15.1207 13.6784 15.1207C14.3847 15.1207 14.9476 15.7596 14.9365 16.5317C14.9365 17.3095 14.3792 17.9428 13.6784 17.9428ZM18.3303 17.9428C17.6405 17.9428 17.0721 17.3095 17.0721 16.5317C17.0721 15.754 17.6295 15.1207 18.3303 15.1207C19.0366 15.1207 19.5995 15.7596 19.5885 16.5317C19.5885 17.3095 19.0367 17.9428 18.3303 17.9428Z" fill="white"/>
<defs>
<linearGradient id="paint0_linear_32_18" x1="-15.5152" y1="3.63636" x2="42.434" y2="26.3993" gradientUnits="userSpaceOnUse">
<stop stop-color="#5465F7"/>
<stop offset="1" stop-color="#8E24AA"/>
</linearGradient>
</defs>
</svg>
