<svg xmlns="http://www.w3.org/2000/svg" viewBox="0 0 52 52" id="Distributionwork"><path d="M16.972 15.666C11.717 5.578 29.87-2.76 34.675 7.927c1.754 3.902.759 9.916-2.571 12.76-5.188 4.432-13.643 1.944-14.976-4.654-.319-1.575-2.73-.908-2.411.665 1.596 7.896 9.456 10.116 16.462 7.406 6.717-2.599 8.282-12.212 5.38-18.108-2.49-5.057-10.21-7.144-15.146-4.78-5.606 2.686-9.712 9.738-6.6 15.712.744 1.428 2.902.165 2.16-1.262z" fill="#ffffff" class="color000000 svgShape"></path><path d="M33.642 18.84c-2.407-1.882-5.102-3.044-8.18-3.23-3.426-.207-5.359.597-7.477 3.21-1.004 1.239.754 3.018 1.768 1.768 1.64-2.024 3.016-2.659 5.71-2.478 2.365.158 4.547 1.04 6.411 2.497 1.254.98 3.035-.777 1.768-1.768zM24.97 8.246c.8-.442 1.966-.573 2.371.392.35.83.3 1.794-.477 2.31-.565.376-2.092.848-2.62.336-.223-.217-.697-2.383-.464-2.463 1.513-.52.863-2.935-.665-2.411-2.458.843-2.026 3.932-1.156 5.852 1.054 2.33 4.078 1.967 5.996.935 2.117-1.137 2.502-3.598 1.623-5.7-.973-2.324-3.903-2.497-5.87-1.41-1.407.78-.148 2.94 1.263 2.16zM46.161 38.286c-.082-2.997 1.161-9.377-1.98-11.162-1.737-.986-5.478.088-7.4.177-3.508.164-7.021.195-10.532.192-3.516-.002-7.031-.053-10.547-.065-2.71-.009-6.158-.628-8.765.274-4.245 1.47-1.411 7.48-1.606 10.663-.098 1.607 2.402 1.601 2.5 0 .096-1.562-.762-4.095-.465-5.55.621-3.045 4.208-2.889 6.419-2.89 4.155-.004 8.309.065 12.464.068 4.149.003 8.301-.044 12.444-.29 2.626-.157 3.423-.88 4.639 1.428.826 1.568.28 5.378.33 7.155.043 1.605 2.543 1.612 2.5 0z" fill="#ffffff" class="color000000 svgShape"></path><path d="M24.41 24.45a83.414 83.414 0 0 0-.22 12.678c.093 1.6 2.594 1.61 2.5 0a83.415 83.415 0 0 1 .22-12.677c.15-1.601-2.35-1.591-2.5 0zM40.942 45.033c-.155-1.15-.466-2.682-.258-3.846.173-.969-.138-.596.726-.833.615-.168 1.492.033 2.11.08 2.407.185 4.744.564 7.162.306l-1.205-1.582c-1.254 3.004-.75 6.853-.818 10.042l.918-1.206a28.08 28.08 0 0 1-5.692.35c-.79-.033-1.854.087-2.514-.422-.822-.633-.55-1.733-.585-2.801-.05-1.605-2.55-1.612-2.5 0 .084 2.641-.513 4.994 2.623 5.442 3.126.447 6.22.345 9.332-.158.542-.088.907-.7.918-1.205.063-2.962-.426-6.61.729-9.378.295-.708-.459-1.662-1.206-1.582-1.99.212-3.913.007-5.894-.187-1.576-.154-3.636-.567-5.164.027-2.552.992-1.357 5.66-1.092 7.618.214 1.587 2.623.911 2.41-.665z" fill="#ffffff" class="color000000 svgShape"></path><path d="M21.979 44.445a23.827 23.827 0 0 1-.26-2.685l-.015-.758c-.139-.809-.079-.983.18-.521.022-.006 1.429.255 1.81.261l2.46.036c.704.01 1.776-.122 2.46.035.924.213.876.012 1.026 1.134.204 1.518.205 3.097.186 4.626l-.02.842c-.308.654-.21.94.294.86.612.027.438.043-.52.05l-.85.03-5.095.183c-.372.013-1.73.246-1.903.113-.275-.21.083-.28.153-.729.198-1.267.162-2.514.165-3.801.002-1.609-2.498-1.611-2.5 0-.003 1.361-.053 2.507-.408 3.8-.196.715-.322 1.286.07 1.968 1 1.738 3.642 1.177 5.273 1.118l4.246-.151c.804-.029 1.847.124 2.591-.265 1.568-.817 1.022-3.889 1-5.281-.026-1.674.33-4.824-.874-6.2-1.272-1.453-4.405-.82-6.113-.844-1.506-.022-4.648-.746-5.72.673-1.094 1.449-.292 4.543-.047 6.171.239 1.586 2.648.912 2.41-.665zM13.284 48.713c-.457-2.776.325-5.542-.02-8.279-.194-1.538-1.668-2.048-3-2.483-2.635-.862-8.53-1.134-9.92 2.027-.759 1.727.16 3.645.28 5.393.115 1.64-.991 3.93.509 5.22 1.256 1.081 3.946 1.172 5.518 1.164 2.25-.011 4.38-.584 6.418-1.507 1.464-.662.194-2.817-1.262-2.158-1.397.632-2.871 1.044-4.407 1.14-.906.057-3.47.246-4.113-.429-.707-.741-.078-2.649-.143-3.599-.07-1.022-.855-2.74-.59-3.722.614-2.273 6.585-2.027 7.8-.519.8.993.25 3.028.22 4.306a21.926 21.926 0 0 0 .3 4.11c.26 1.584 2.67.912 2.41-.664z" fill="#ffffff" class="color000000 svgShape"></path></svg>