<svg width="34" height="34" viewBox="0 0 34 34" fill="none" xmlns="http://www.w3.org/2000/svg">
<path d="M29.3008 9.14122L20.3564 0.196828C20.294 0.134419 20.2199 0.084914 20.1384 0.0511418C20.0568 0.0173695 19.9694 -8.60731e-06 19.8812 3.19818e-09L7.27773 3.19818e-09C5.74714 3.19818e-09 4.50195 1.24518 4.50195 2.77578V31.2242C4.50195 32.7548 5.74714 34 7.27773 34H26.7218C28.2523 34 29.4975 32.7548 29.4975 31.2242V9.61636C29.4975 9.43815 29.4268 9.26725 29.3008 9.14122ZM20.5532 2.29427L27.2033 8.94426H21.985C21.1955 8.94426 20.5533 8.30198 20.5533 7.51241V2.29427H20.5532ZM28.1536 31.2242C28.1536 32.0137 27.5113 32.6561 26.7218 32.6561H7.27773C6.48823 32.6561 5.84588 32.0137 5.84588 31.2242V2.77578C5.84588 1.98628 6.48823 1.34393 7.27773 1.34393H19.2092V7.51254C19.2092 9.04314 20.4543 10.2883 21.9849 10.2883H28.1536V31.2242Z" />
<path d="M22.3752 17.0671H11.6241C11.253 17.0671 10.9521 17.368 10.9521 17.7391C10.9521 18.1102 11.253 18.4111 11.6241 18.4111H22.3752C22.7464 18.4111 23.0471 18.1102 23.0471 17.7391C23.0471 17.368 22.7464 17.0671 22.3752 17.0671ZM22.3752 20.0684H11.6241C11.253 20.0684 10.9521 20.3693 10.9521 20.7404C10.9521 21.1115 11.253 21.4124 11.6241 21.4124H22.3752C22.7464 21.4124 23.0471 21.1115 23.0471 20.7404C23.0471 20.3693 22.7464 20.0684 22.3752 20.0684ZM22.3752 23.0697H11.6241C11.253 23.0697 10.9521 23.3706 10.9521 23.7417C10.9521 24.1128 11.253 24.4137 11.6241 24.4137H22.3752C22.7464 24.4137 23.0471 24.1128 23.0471 23.7417C23.0471 23.3706 22.7464 23.0697 22.3752 23.0697ZM18.8811 26.0711H11.6241C11.253 26.0711 10.9521 26.372 10.9521 26.7431C10.9521 27.1141 11.253 27.415 11.6241 27.415H18.8811C19.2523 27.415 19.553 27.1141 19.553 26.7431C19.553 26.372 19.2523 26.0711 18.8811 26.0711Z" />
</svg>
