<svg width="100" height="100" viewBox="0 0 100 100" fill="none" xmlns="http://www.w3.org/2000/svg">
<g clip-path="url(#clip0_1004_503)">
<path d="M50 68.75C33.6438 68.75 20.8334 60.5146 20.8334 50C20.8334 39.4854 33.6438 31.25 50 31.25C66.3563 31.25 79.1667 39.4854 79.1667 50C79.1667 60.5146 66.3563 68.75 50 68.75ZM50 35.4167C36.448 35.4167 25 42.0958 25 50C25 57.9042 36.448 64.5833 50 64.5833C63.5521 64.5833 75 57.9042 75 50C75 42.0958 63.5521 35.4167 50 35.4167ZM37.5 29.1667C36.9667 29.1667 36.4334 28.9625 36.0271 28.5563L28.3042 20.8333H10.4167C9.26671 20.8333 8.33337 19.9 8.33337 18.75C8.33337 17.6 9.26671 16.6667 10.4167 16.6667H29.1667C29.7188 16.6667 30.25 16.8854 30.6396 17.2771L38.973 25.6104C39.7875 26.425 39.7875 27.7417 38.973 28.5563C38.5667 28.9625 38.0334 29.1667 37.5 29.1667ZM29.1667 83.3333H10.4167C9.26671 83.3333 8.33337 82.4021 8.33337 81.25C8.33337 80.0979 9.26671 79.1667 10.4167 79.1667H28.3042L36.0271 71.4438C36.8417 70.6292 38.1584 70.6292 38.973 71.4438C39.7875 72.2583 39.7875 73.575 38.973 74.3896L30.6396 82.7229C30.25 83.1146 29.7188 83.3333 29.1667 83.3333ZM58.3334 27.0833H45.8334C44.6834 27.0833 43.75 26.15 43.75 25C43.75 23.85 44.6834 22.9167 45.8334 22.9167H58.3334C59.4834 22.9167 60.4167 23.85 60.4167 25C60.4167 26.15 59.4834 27.0833 58.3334 27.0833ZM58.3334 18.75H45.8334C44.6834 18.75 43.75 17.8167 43.75 16.6667C43.75 15.5167 44.6834 14.5833 45.8334 14.5833H58.3334C59.4834 14.5833 60.4167 15.5167 60.4167 16.6667C60.4167 17.8167 59.4834 18.75 58.3334 18.75ZM58.3334 10.4167H45.8334C44.6834 10.4167 43.75 9.48333 43.75 8.33333C43.75 7.18333 44.6834 6.25 45.8334 6.25H58.3334C59.4834 6.25 60.4167 7.18333 60.4167 8.33333C60.4167 9.48333 59.4834 10.4167 58.3334 10.4167Z" fill="#5831C8"/>
<path d="M50 68.75C56.9036 68.75 62.5 60.3553 62.5 50C62.5 39.6447 56.9036 31.25 50 31.25C43.0964 31.25 37.5 39.6447 37.5 50C37.5 60.3553 43.0964 68.75 50 68.75Z" fill="#5831C8"/>
<path d="M22.9166 12.5C26.3684 12.5 29.1666 9.70178 29.1666 6.25C29.1666 2.79822 26.3684 0 22.9166 0C19.4648 0 16.6666 2.79822 16.6666 6.25C16.6666 9.70178 19.4648 12.5 22.9166 12.5Z" fill="#5831C8"/>
<path d="M31.25 100C34.7018 100 37.5 97.2018 37.5 93.75C37.5 90.2982 34.7018 87.5 31.25 87.5C27.7982 87.5 25 90.2982 25 93.75C25 97.2018 27.7982 100 31.25 100Z" fill="#5831C8"/>
<path d="M14.5834 100C18.0352 100 20.8334 97.2018 20.8334 93.75C20.8334 90.2982 18.0352 87.5 14.5834 87.5C11.1316 87.5 8.33337 90.2982 8.33337 93.75C8.33337 97.2018 11.1316 100 14.5834 100Z" fill="#5831C8"/>
<path d="M68.0225 75.1894C71.0582 78.0244 75.0444 79.3894 79.1732 80.3756C78.9763 89.34 75.0538 96.8175 67.9925 99.2794C64.3157 98.0888 61.5388 95.5856 59.6619 92.1788C57.8319 88.86 56.9244 84.7125 56.8269 80.4C61.1675 79.7419 65.0432 78.1875 68.0207 75.1894H68.0225ZM73.0063 83.2163L66.1682 89.2013L63.0369 86.0738L61.7113 87.3994L66.08 91.7681L74.2438 84.6263L73.0063 83.2163Z" fill="#5831C8"/>
</g>
<defs>
<clipPath id="clip0_1004_503">
<rect width="100" height="100" fill="white"/>
</clipPath>
</defs>
</svg>
