<svg width="35" height="36" viewBox="0 0 35 36" fill="none" xmlns="http://www.w3.org/2000/svg">
<path d="M35 17.9186C35 26.7572 28.4483 34.0642 19.9371 35.25C19.1413 35.3603 18.3271 35.418 17.5006 35.418C16.5466 35.418 15.6098 35.3419 14.6975 35.1948C6.36408 33.8533 0 26.6284 0 17.9186C0 8.25352 7.83555 0.417969 17.4994 0.417969C27.1632 0.417969 35 8.25352 35 17.9186Z" fill="#1877F2"/>
<path d="M19.9372 14.47V18.2824H24.6532L23.9065 23.4178H19.9372V35.2496C19.1414 35.3599 18.3272 35.4176 17.5007 35.4176C16.5467 35.4176 15.6099 35.3415 14.6975 35.1944L14.6975 23.4178H10.3481V18.2824H14.6975V13.6178C14.6975 10.7239 17.0433 8.37695 19.9384 8.37695V8.37941C19.947 8.37941 19.9544 8.37695 19.9629 8.37695H24.6545V12.8183H21.5889C20.6778 12.8183 19.9384 13.5577 19.9384 14.4688L19.9372 14.47Z" fill="white"/>
</svg>
