<svg width="55" height="55" viewBox="0 0 55 55" fill="none" xmlns="http://www.w3.org/2000/svg">
<circle cx="27.5" cy="27.5" r="27.5" fill="url(#paint0_linear_1032_5647)"/>
<path d="M31.7079 10.6495C34.5504 11.533 36.1072 12.3528 38.7842 14.3827C41.9868 17.422 43.4405 19.1366 44.5232 21.9604C44.5266 21.9673 44.5302 21.9722 44.5333 21.9756C44.5426 21.9857 44.548 21.9819 44.5333 21.9756C44.5185 21.9693 44.4835 21.9604 44.4118 21.9604C44.2446 21.9605 42.1513 20.9454 40.6786 20.066C37.6893 18.7406 36.6844 18.271 33.9923 17.4472C31.815 16.7913 30.5705 16.4724 28.1976 16.2214C27.3805 16.1538 26.9037 16.1847 25.9688 16.5557C25.2662 16.837 24.886 17.0549 24.2972 17.8372C23.7207 18.4282 23.508 18.8541 23.4615 19.8988C23.5564 20.9784 23.6696 21.4973 24.0744 22.1276C24.6483 22.8729 25.0295 23.1671 25.7459 23.632C27.5044 24.5511 28.8007 24.9654 31.3178 25.6379C32.9397 26.0949 33.8409 26.5922 35.441 27.6995C36.6169 28.6115 37.1247 29.2751 37.8927 30.5969C38.4052 31.4348 38.5886 31.9322 38.6727 32.8814C38.9284 34.0791 39.0053 34.7367 38.7842 35.8345C38.7442 36.704 38.6388 37.1518 38.3384 37.8961C37.9261 38.9673 37.6733 39.4801 37.1683 40.1805C36.6033 40.9125 36.2769 41.4149 35.4967 42.1864C34.8193 42.8542 34.2815 43.2127 32.8222 43.8023C31.8287 44.3038 31.1367 44.4909 29.702 44.6938C27.8273 44.8665 26.8864 44.8852 25.5231 44.6938C24.4596 44.5925 23.9281 44.4908 23.0714 44.248C21.4997 43.8029 20.6481 43.4647 19.2268 42.7436C17.5069 41.8711 16.5573 41.1597 14.8807 39.6234C13.6523 38.4134 13.0023 37.7041 12.0391 36.2802C11.402 35.4501 11.0678 34.8841 10.5347 33.6057C10.4166 33.1606 10.427 32.9881 10.5347 32.7699C10.848 32.9356 11.089 33.1081 11.5376 33.4386C14.091 34.786 15.5368 35.419 18.391 36.5588C20.5131 37.3429 21.8353 37.731 24.4087 38.3418C26.0979 38.7259 27.0629 38.758 28.8105 38.5647C29.5239 38.4069 29.9155 38.2159 30.5935 37.6175C31.0764 37.1645 31.3094 36.8546 31.5964 36.1131C31.8036 35.4835 31.8341 35.0274 31.7079 33.9957C31.6592 33.551 31.5746 33.2737 30.9278 32.3799C30.5153 31.855 30.1665 31.5541 28.9776 30.9312L23.2386 29.0368C21.5088 28.3926 20.5228 27.7896 18.7253 26.1951C17.8775 25.2303 17.4562 24.5611 16.8309 23.0748C16.4114 21.4908 16.3264 20.6011 16.4966 19.0073C16.5876 17.8442 16.7267 17.1414 17.5552 15.5528C18.1885 14.3165 18.6914 13.6613 20.0069 12.5997C21.3334 11.5362 22.3872 11.0259 24.7987 10.2595C27.9362 10.0145 29.4603 10.0877 31.7079 10.6495Z" fill="white"/>
<defs>
<linearGradient id="paint0_linear_1032_5647" x1="27.5" y1="0" x2="27.5" y2="55" gradientUnits="userSpaceOnUse">
<stop stop-color="#5831C8"/>
<stop offset="1" stop-color="#2E62E8"/>
</linearGradient>
</defs>
</svg>
