<svg width="34" height="34" viewBox="0 0 34 34" fill="none" xmlns="http://www.w3.org/2000/svg">
<g clip-path="url(#clip0_1186_490)">
<path d="M14.4102 24.3047C14.7767 24.3047 15.0742 24.0072 15.0742 23.6406C15.0742 23.2741 14.7767 22.9766 14.4102 22.9766C14.0436 22.9766 13.7461 23.2741 13.7461 23.6406C13.7461 24.0072 14.0436 24.3047 14.4102 24.3047Z"  />
<path d="M0.260945 25.8367L8.22969 33.8054C8.29134 33.8671 8.36453 33.916 8.44509 33.9494C8.52564 33.9828 8.61199 34 8.69919 34C8.78639 34 8.87273 33.9828 8.95329 33.9494C9.03384 33.916 9.10704 33.8671 9.16868 33.8054L13.5515 29.4226C13.6132 29.361 13.6621 29.2878 13.6955 29.2072C13.7289 29.1267 13.746 29.0403 13.746 28.9531C13.746 28.8659 13.7289 28.7796 13.6955 28.699C13.6621 28.6185 13.6132 28.5453 13.5515 28.4836L13.3569 28.2891H22.9294C23.7701 28.2891 24.5723 27.9739 25.191 27.3995L33.2472 19.8492C34.0184 19.133 34.2739 17.9953 33.8827 17.0184C33.7438 16.6699 33.5299 16.3562 33.2562 16.0996C32.9825 15.8431 32.6556 15.6499 32.2988 15.5339C31.9424 15.4168 31.5645 15.3797 31.192 15.4251C30.8196 15.4705 30.4617 15.5974 30.1438 15.7967C30.1396 15.7992 28.3552 16.9702 28.3552 16.9702C28.343 13.3705 26.1674 9.53189 23.1726 7.8038C23.3476 7.60253 23.4805 7.36828 23.5636 7.11483C23.9062 6.07225 23.3366 4.94388 22.2925 4.59916C22.2598 4.58827 22.2271 4.57864 22.1945 4.56855L23.9039 1.49779C23.9525 1.41063 23.9808 1.31362 23.9866 1.21401C23.9925 1.11439 23.9759 1.01473 23.9379 0.922449C23.9 0.830106 23.8418 0.747503 23.7676 0.680802C23.6933 0.6141 23.605 0.565022 23.5091 0.537226C22.2834 0.180824 21.0095 0 19.7226 0C18.436 0 17.1619 0.180824 15.9361 0.536961C15.8403 0.564788 15.7519 0.613878 15.6776 0.680579C15.6034 0.74728 15.5451 0.829873 15.5071 0.922212C15.4692 1.01455 15.4526 1.11426 15.4585 1.21391C15.4644 1.31357 15.4927 1.4106 15.5414 1.49779L17.2508 4.56855C17.2176 4.57891 17.1844 4.5888 17.1512 4.59969C16.1087 4.94388 15.5393 6.07199 15.882 7.1153C15.9655 7.36854 16.0989 7.60247 16.2744 7.80327C13.235 9.55705 11.0898 13.435 11.0898 17C11.0898 17.0973 11.0921 17.1932 11.0953 17.2885C9.90592 17.6129 8.80012 18.2041 7.87017 19.0184L5.85202 20.7841L5.58274 20.5149C5.5211 20.4532 5.44791 20.4043 5.36735 20.3709C5.28679 20.3375 5.20045 20.3203 5.11325 20.3203C5.02605 20.3203 4.93971 20.3375 4.85915 20.3709C4.77859 20.4043 4.7054 20.4532 4.64376 20.5149L0.260945 24.8977C0.199271 24.9593 0.150346 25.0325 0.116966 25.1131C0.0835868 25.1936 0.0664063 25.28 0.0664062 25.3672C0.0664062 25.4544 0.0835868 25.5407 0.116966 25.6213C0.150346 25.7018 0.199271 25.775 0.260945 25.8367ZM17.1216 1.60597C17.9725 1.42123 18.8441 1.32812 19.7226 1.32812C20.6012 1.32812 21.4728 1.42123 22.3239 1.60597L20.844 4.26394C20.1001 4.15992 19.3454 4.15992 18.6015 4.26394L17.1216 1.60597ZM17.5657 5.86141C18.9284 5.4155 20.4139 5.38176 21.8777 5.86088C22.2261 5.97577 22.4163 6.35242 22.3018 6.70006C22.2608 6.82656 22.1825 6.9377 22.0772 7.01893C21.9719 7.10016 21.8445 7.14768 21.7117 7.15527C20.4022 6.73891 19.0422 6.73818 17.7333 7.15394H17.733C17.4601 7.13688 17.2285 6.95838 17.1434 6.70026C17.029 6.35216 17.2191 5.9755 17.5657 5.86141ZM17.933 8.48778C19.0845 8.07301 20.2774 8.06318 21.4318 8.45982C24.5172 9.52066 27.0273 13.3518 27.0273 17C27.0273 17.3092 27.0079 17.6039 26.9695 17.8794L23.7775 19.9735C23.2835 19.3614 22.5345 18.9922 21.7148 18.9922H20.3867V18.214C21.1597 17.9398 21.7148 17.2015 21.7148 16.3359C21.7148 15.2374 20.8212 14.3437 19.7226 14.3437C19.3566 14.3437 19.0586 14.046 19.0586 13.6797C19.0586 13.3134 19.3566 13.0156 19.7226 13.0156C19.9579 13.0156 20.2061 13.1358 20.4409 13.3627C20.7045 13.6177 21.1249 13.6107 21.3799 13.3475C21.6349 13.0838 21.6279 12.6633 21.3644 12.4083C21.0274 12.082 20.6902 11.8977 20.3867 11.7969V11.0234C20.3867 10.6567 20.0894 10.3594 19.7226 10.3594C19.3559 10.3594 19.0586 10.6567 19.0586 11.0234V11.8017C18.2858 12.0758 17.7304 12.8141 17.7304 13.6797C17.7304 14.7782 18.6241 15.6719 19.7226 15.6719C20.0889 15.6719 20.3867 15.9696 20.3867 16.3359C20.3867 16.7022 20.0889 17 19.7226 17C19.4389 17 19.1327 16.8215 18.8604 16.4976C18.6243 16.2169 18.2054 16.1805 17.9247 16.4166C17.644 16.6527 17.6077 17.0716 17.8438 17.3522C18.1987 17.7746 18.6163 18.0687 19.0586 18.2171V18.9922H18.8376C18.5112 18.9922 18.3647 18.7795 18.1348 18.6309C16.7317 17.5793 14.9938 17 13.2407 17C12.9666 17 12.6919 17.0143 12.4185 17.042C12.4185 17.028 12.4179 17.0143 12.4179 17C12.4179 13.4029 14.8921 9.58455 17.933 8.48778ZM8.74494 20.0176C9.99258 18.925 11.5958 18.3281 13.2407 18.3281C14.7084 18.3281 16.1633 18.8129 17.3374 19.6931C17.5067 19.7922 17.9783 20.3203 18.8372 20.3203H21.7148C22.4707 20.3203 23.0429 20.9348 23.0429 21.6484C23.0429 22.3807 22.4471 22.9766 21.7148 22.9766H17.0664C16.6996 22.9766 16.4023 23.2739 16.4023 23.6406C16.4023 24.0074 16.6996 24.3047 17.0664 24.3047H21.7148C23.1794 24.3047 24.3711 23.113 24.3711 21.6484C24.3711 21.4962 24.3576 21.346 24.3321 21.1981L30.8532 16.9196C31.0061 16.825 31.1777 16.7649 31.3562 16.7435C31.5346 16.7222 31.7156 16.7401 31.8864 16.7961C32.0583 16.8521 32.2158 16.9453 32.3477 17.0689C32.4795 17.1926 32.5826 17.3438 32.6495 17.5118C32.8412 17.9901 32.7208 18.5258 32.3411 18.8783L24.2852 26.4284C23.917 26.7712 23.4324 26.9615 22.9293 26.9609H12.0289L6.79339 21.7252L8.74494 20.0176ZM5.11332 21.9234L12.143 28.9531L8.69919 32.3969L1.66942 25.3672L5.11332 21.9234Z" />
</g>
<defs>
<clipPath id="clip0_1186_490">
<rect width="34" height="34" fill="white"/>
</clipPath>
</defs>
</svg>
