<svg width="34" height="34" viewBox="0 0 34 34" fill="none" xmlns="http://www.w3.org/2000/svg">
<path d="M11.3953 2.98273L9.45394 2.70163C9.40424 2.69427 9.35706 2.67501 9.31641 2.64548C9.27577 2.61595 9.24287 2.57702 9.22052 2.53203L8.35252 0.769608C7.85063 -0.249994 6.39713 -0.251322 5.8939 0.767549L5.02179 2.53249C4.99957 2.57733 4.96679 2.6161 4.92627 2.64546C4.88574 2.67482 4.83869 2.69389 4.78917 2.70103L2.84678 2.98266C1.72246 3.14509 1.27242 4.52827 2.08617 5.32076L3.49378 6.69311C3.52967 6.72804 3.55654 6.77117 3.57207 6.81878C3.58761 6.86639 3.59135 6.91706 3.58296 6.96644L3.251 8.89893C3.05849 10.0236 4.24098 10.8715 5.24106 10.3439L6.98011 9.42852C7.02443 9.40513 7.07379 9.3929 7.12391 9.3929C7.17403 9.3929 7.22339 9.40513 7.26771 9.42852L8.99952 10.3419C10.0086 10.8726 11.1822 10.0155 10.9904 8.8974L10.6589 6.96644C10.6505 6.91706 10.6542 6.86637 10.6697 6.81875C10.6853 6.77113 10.7122 6.728 10.7481 6.69311L12.1555 5.32076C12.9698 4.52847 12.5195 3.14516 11.3953 2.98273ZM11.4142 4.56048L10.0068 5.9323C9.84757 6.08742 9.72842 6.27896 9.65966 6.49039C9.59089 6.70182 9.57458 6.9268 9.61212 7.14594H9.61238L9.94355 9.0769C9.98731 9.3303 9.72176 9.52169 9.49518 9.40209L7.76337 8.48874C7.5663 8.38501 7.34694 8.33081 7.12424 8.33081C6.90154 8.33081 6.68218 8.38501 6.48511 8.48874L4.74633 9.40415C4.51796 9.52355 4.25513 9.32997 4.29796 9.07843L4.62992 7.14594C4.66738 6.9269 4.65106 6.70205 4.58234 6.49072C4.51363 6.2794 4.39459 6.08794 4.23547 5.93283L2.82759 4.56048C2.64411 4.38085 2.74492 4.07033 2.99899 4.03354L4.9411 3.75244C5.16112 3.7206 5.3701 3.63575 5.55004 3.50519C5.72997 3.37462 5.87547 3.20227 5.97399 3.00298L6.8461 1.23797C6.95952 1.00887 7.28617 1.00907 7.39979 1.2385L8.26779 3.00139C8.36618 3.20108 8.51171 3.3738 8.69181 3.50465C8.8719 3.63549 9.08115 3.72052 9.30147 3.75238L11.2433 4.03347C11.4978 4.07046 11.5973 4.38158 11.4142 4.56048Z" />
<path d="M7.91405 4.42768L6.60963 5.73209L6.328 5.45047C6.12055 5.24301 5.78446 5.24301 5.57701 5.45047C5.36956 5.65792 5.36956 5.994 5.57701 6.20145L6.23417 6.85861C6.28347 6.90793 6.34201 6.94706 6.40644 6.97375C6.47087 7.00045 6.53992 7.01419 6.60966 7.01419C6.6794 7.01419 6.74846 7.00045 6.81289 6.97375C6.87732 6.94706 6.93585 6.90793 6.98516 6.85861L8.6651 5.17866C8.71443 5.12936 8.75355 5.07082 8.78025 5.00639C8.80694 4.94197 8.82068 4.87291 8.82068 4.80317C8.82068 4.73343 8.80694 4.66437 8.78025 4.59995C8.75355 4.53552 8.71443 4.47698 8.6651 4.42768C8.61579 4.37835 8.55725 4.33922 8.49282 4.31253C8.42838 4.28583 8.35932 4.27209 8.28957 4.27209C8.21983 4.27209 8.15077 4.28583 8.08633 4.31253C8.0219 4.33922 7.96336 4.37835 7.91405 4.42768ZM15.2001 2.3054H31.7979C32.0912 2.3054 32.329 2.06786 32.329 1.77428C32.329 1.4807 32.0912 1.24316 31.7979 1.24316H15.2001C14.9068 1.24316 14.669 1.4807 14.669 1.77428C14.669 2.06786 14.9068 2.3054 15.2001 2.3054ZM31.7978 4.72285H15.2001C14.9068 4.72285 14.669 4.96039 14.669 5.25397C14.669 5.54755 14.9068 5.78509 15.2001 5.78509H31.7979C31.8677 5.7851 31.9367 5.77138 32.0012 5.74469C32.0656 5.71801 32.1242 5.67889 32.1735 5.62956C32.2228 5.58024 32.262 5.52169 32.2886 5.45724C32.3153 5.39279 32.3291 5.32372 32.329 5.25397C32.329 5.18421 32.3153 5.11514 32.2886 5.05069C32.2619 4.98625 32.2228 4.92769 32.1735 4.87837C32.1241 4.82905 32.0656 4.78993 32.0011 4.76324C31.9367 4.73656 31.8676 4.72283 31.7978 4.72285ZM15.2001 9.26471H27.0089C27.3022 9.26471 27.54 9.02717 27.54 8.73359C27.54 8.44001 27.3022 8.20247 27.0089 8.20247H15.2001C14.9068 8.20247 14.669 8.44001 14.669 8.73359C14.669 9.02717 14.9068 9.26471 15.2001 9.26471ZM11.3953 14.7282L9.45394 14.4471C9.40424 14.4398 9.35706 14.4205 9.31642 14.391C9.27577 14.3614 9.24287 14.3225 9.22052 14.2775L8.35253 12.5151C7.85096 11.4952 6.397 11.4944 5.89384 12.513L5.02172 14.278C4.99951 14.3229 4.96673 14.3617 4.9262 14.391C4.88568 14.4204 4.83863 14.4394 4.7891 14.4466L2.84672 14.7282C1.72246 14.8906 1.27243 16.2738 2.08617 17.0663L3.49378 18.4387C3.52967 18.4736 3.55654 18.5167 3.57208 18.5643C3.58761 18.6119 3.59135 18.6626 3.58296 18.712L3.251 20.6445C3.05816 21.7709 4.24271 22.6161 5.24106 22.0895L6.98011 21.1741C7.02443 21.1507 7.07379 21.1385 7.12391 21.1385C7.17403 21.1385 7.22339 21.1507 7.26771 21.1741L8.99952 22.0874C10.0086 22.6181 11.1822 21.7611 10.9904 20.643L10.6589 18.712C10.6505 18.6626 10.6542 18.6119 10.6697 18.5643C10.6853 18.5167 10.7122 18.4736 10.7481 18.4387L12.1556 17.0663C12.9698 16.274 12.5195 14.8906 11.3953 14.7282ZM11.4142 16.306L10.0068 17.6778C9.84757 17.8329 9.72842 18.0244 9.65966 18.2359C9.59089 18.4473 9.57458 18.6723 9.61212 18.8914H9.61239L9.94355 20.8224C9.98712 21.0747 9.72322 21.2672 9.49518 21.1476L7.76337 20.2342C7.5663 20.1305 7.34695 20.0763 7.12424 20.0763C6.90154 20.0763 6.68219 20.1305 6.48512 20.2342L4.74634 21.1496C4.51876 21.2686 4.255 21.0772 4.29796 20.8239L4.62993 18.8914C4.66739 18.6724 4.65106 18.4475 4.58235 18.2362C4.51363 18.0249 4.39459 17.8334 4.23547 17.6783L2.82759 16.306C2.64411 16.1263 2.74492 15.8158 2.99899 15.779L4.94111 15.4979C5.16113 15.4661 5.37011 15.3812 5.55004 15.2507C5.72998 15.1201 5.87547 14.9478 5.97399 14.7485L6.8461 12.984C6.95919 12.7548 7.28631 12.754 7.3998 12.984L8.26779 14.7469C8.36618 14.9466 8.51171 15.1193 8.69181 15.2501C8.87191 15.381 9.08115 15.466 9.30147 15.4979L11.2433 15.779C11.4978 15.8159 11.5973 16.1271 11.4142 16.306Z" />
<path d="M7.91411 16.1736L6.60996 17.478L6.32833 17.1958C6.2287 17.0962 6.09359 17.0403 5.9527 17.0403C5.81182 17.0403 5.6767 17.0962 5.57708 17.1958C5.36962 17.4027 5.36962 17.7394 5.57681 17.9468L6.23397 18.6045C6.44062 18.8112 6.77704 18.8127 6.98522 18.6045L8.66516 16.9246C8.71449 16.8753 8.75362 16.8167 8.78031 16.7523C8.80701 16.6879 8.82075 16.6188 8.82075 16.5491C8.82075 16.4793 8.80701 16.4103 8.78031 16.3458C8.75362 16.2814 8.71449 16.2229 8.66516 16.1736C8.61586 16.1242 8.55731 16.0851 8.49288 16.0584C8.42844 16.0317 8.35938 16.018 8.28964 16.018C8.21989 16.018 8.15083 16.0317 8.0864 16.0584C8.02196 16.0851 7.96342 16.1242 7.91411 16.1736ZM31.7979 12.9885H15.2002C14.9069 12.9885 14.6691 13.2261 14.6691 13.5196C14.6691 13.8132 14.9069 14.0508 15.2002 14.0508H31.798C32.0913 14.0508 32.3291 13.8132 32.3291 13.5196C32.3291 13.2261 32.0912 12.9885 31.7979 12.9885ZM31.7979 16.4682H15.2002C14.9069 16.4682 14.6691 16.7057 14.6691 16.9993C14.6691 17.2929 14.9069 17.5304 15.2002 17.5304H31.798C32.0913 17.5304 32.3291 17.2929 32.3291 16.9993C32.3291 16.7057 32.0912 16.4682 31.7979 16.4682ZM15.2002 21.0101H27.009C27.3023 21.0101 27.5401 20.7725 27.5401 20.479C27.5401 20.1854 27.3023 19.9478 27.009 19.9478H15.2002C14.9069 19.9478 14.6691 20.1854 14.6691 20.479C14.6691 20.7725 14.9069 21.0101 15.2002 21.0101ZM11.3953 26.4736L9.454 26.1925C9.40436 26.1852 9.35722 26.166 9.31659 26.1365C9.27595 26.1071 9.24302 26.0683 9.22059 26.0234L8.35259 24.2605C7.85102 23.2407 6.39706 23.2399 5.8939 24.2585L5.02179 26.0235C4.99947 26.0682 4.96671 26.107 4.92626 26.1364C4.88582 26.1658 4.83889 26.1851 4.78943 26.1925L2.84678 26.4736C1.72246 26.6361 1.27242 28.0192 2.08617 28.8117L3.49378 30.1841C3.52967 30.219 3.55654 30.2621 3.57207 30.3098C3.58761 30.3574 3.59135 30.408 3.58296 30.4574L3.251 32.3899C3.05849 33.5146 4.24045 34.3628 5.24106 33.8349L6.98011 32.9195C7.02444 32.8961 7.07383 32.8839 7.12398 32.884C7.17412 32.8841 7.22347 32.8964 7.26771 32.92L8.99979 33.8334C10.0042 34.3636 11.1824 33.5093 10.9906 32.3889L10.6592 30.4574H10.6589C10.6505 30.408 10.6542 30.3574 10.6697 30.3097C10.6853 30.2621 10.7122 30.219 10.7481 30.1841L12.1555 28.8117C12.9699 28.0193 12.5196 26.636 11.3953 26.4736ZM11.4143 28.0513L10.0069 29.4231C9.84764 29.5783 9.72849 29.7698 9.65972 29.9812C9.59096 30.1927 9.57464 30.4176 9.61218 30.6368L9.94388 32.5683C9.98718 32.8225 9.7197 33.0126 9.49524 32.8935L7.76343 31.9801C7.56649 31.8761 7.34712 31.8216 7.12437 31.8215C6.90162 31.8214 6.68221 31.8757 6.48518 31.9796L4.7464 32.895C4.52055 33.0131 4.25479 32.8241 4.29802 32.5693L4.62999 30.6368C4.66745 30.4178 4.65112 30.1929 4.58241 29.9816C4.5137 29.7702 4.39466 29.5788 4.23554 29.4237L2.82766 28.0513C2.64451 27.872 2.74478 27.5612 2.99879 27.5244L4.94216 27.2433C5.16202 27.2113 5.37081 27.1264 5.55056 26.9959C5.73032 26.8653 5.87565 26.693 5.97405 26.4938L6.84617 24.7294C6.95925 24.5001 7.28637 24.4994 7.39986 24.7294L8.26812 26.4928C8.36651 26.6924 8.51202 26.865 8.69207 26.9958C8.87212 27.1265 9.0813 27.2115 9.30154 27.2433L11.2434 27.5244C11.4979 27.5613 11.5974 27.8724 11.4143 28.0513Z" />
<path d="M7.91453 27.9192L6.61038 29.2236L6.32875 28.9414C6.22912 28.8418 6.09401 28.7859 5.95313 28.7859C5.81224 28.7859 5.67712 28.8418 5.5775 28.9414C5.37004 29.1484 5.37005 29.485 5.57723 29.6924L6.23439 30.3501C6.44104 30.5568 6.77746 30.5583 6.98564 30.3501L8.66559 28.6702C8.71491 28.6209 8.75404 28.5623 8.78073 28.4979C8.80743 28.4335 8.82117 28.3644 8.82117 28.2947C8.82117 28.2249 8.80743 28.1559 8.78073 28.0914C8.75404 28.027 8.71491 27.9685 8.66559 27.9192C8.61628 27.8698 8.55774 27.8307 8.4933 27.804C8.42887 27.7773 8.35981 27.7636 8.29006 27.7636C8.22032 27.7636 8.15125 27.7773 8.08682 27.804C8.02239 27.8307 7.96384 27.8698 7.91453 27.9192ZM31.7983 24.7341H15.2006C14.9073 24.7341 14.6695 24.9717 14.6695 25.2652C14.6695 25.5588 14.9073 25.7964 15.2006 25.7964H31.7984C32.0917 25.7964 32.3295 25.5588 32.3295 25.2652C32.3295 24.9717 32.0917 24.7341 31.7983 24.7341ZM31.7983 28.2138H15.2006C14.9073 28.2138 14.6695 28.4514 14.6695 28.7449C14.6695 29.0385 14.9073 29.2761 15.2006 29.2761H31.7984C32.0917 29.2761 32.3295 29.0385 32.3295 28.7449C32.3295 28.4514 32.0917 28.2138 31.7983 28.2138ZM27.0094 31.6934H15.2006C14.9073 31.6934 14.6695 31.931 14.6695 32.2246C14.6695 32.5181 14.9073 32.7557 15.2006 32.7557H27.0094C27.3027 32.7557 27.5405 32.5181 27.5405 32.2246C27.5405 31.931 27.3026 31.6934 27.0094 31.6934Z" />
</svg>
