<svg width="34" height="34" viewBox="0 0 34 34" fill="none" xmlns="http://www.w3.org/2000/svg">
<path d="M7.79136 9.91695H23.3747C23.4678 9.91702 23.5599 9.89874 23.6459 9.86316C23.7318 9.82758 23.8099 9.77541 23.8757 9.70962C23.9415 9.64383 23.9937 9.56572 24.0293 9.47975C24.0649 9.39378 24.0831 9.30164 24.0831 9.2086C24.0831 9.11556 24.0649 9.02342 24.0293 8.93745C23.9937 8.85148 23.9415 8.77337 23.8757 8.70758C23.8099 8.64179 23.7318 8.58962 23.6459 8.55404C23.5599 8.51846 23.4678 8.50018 23.3747 8.50024H7.79136C7.69832 8.50018 7.60618 8.51846 7.52022 8.55404C7.43425 8.58962 7.35613 8.64179 7.29034 8.70758C7.22456 8.77337 7.17238 8.85148 7.1368 8.93745C7.10123 9.02342 7.08295 9.11556 7.08301 9.2086C7.08296 9.30163 7.10126 9.39377 7.13684 9.47973C7.17242 9.56569 7.2246 9.64379 7.29038 9.70958C7.35617 9.77537 7.43427 9.82754 7.52024 9.86312C7.6062 9.89871 7.69833 9.917 7.79136 9.91695ZM16.2914 17.0003H7.79136C7.69832 17.0002 7.60618 17.0185 7.52022 17.0541C7.43425 17.0897 7.35613 17.1419 7.29034 17.2076C7.22456 17.2734 7.17238 17.3515 7.1368 17.4375C7.10123 17.5235 7.08295 17.6156 7.08301 17.7087C7.08295 17.8017 7.10123 17.8938 7.1368 17.9798C7.17238 18.0658 7.22456 18.1439 7.29034 18.2097C7.35613 18.2755 7.43425 18.3276 7.52022 18.3632C7.60618 18.3988 7.69832 18.4171 7.79136 18.417H16.2914C16.3844 18.4171 16.4765 18.3988 16.5625 18.3632C16.6485 18.3276 16.7266 18.2755 16.7924 18.2097C16.8582 18.1439 16.9103 18.0658 16.9459 17.9798C16.9815 17.8938 16.9998 17.8017 16.9997 17.7087C16.9998 17.6156 16.9815 17.5235 16.9459 17.4375C16.9103 17.3515 16.8582 17.2734 16.7924 17.2076C16.7266 17.1419 16.6485 17.0897 16.5625 17.0541C16.4765 17.0185 16.3844 17.0002 16.2914 17.0003Z" />
<path d="M31.2884 4.2501C31.2474 4.2501 31.2076 4.2604 31.1667 4.26232V4.2501C31.1667 2.6875 29.8953 1.41675 28.3334 1.41675H2.83336C1.27141 1.41675 0 2.6875 0 4.2501V31.8751C2.93157e-05 32.0152 0.0415717 32.1521 0.119379 32.2686C0.197186 32.385 0.307767 32.4758 0.437152 32.5295C0.524344 32.5661 0.61698 32.5835 0.708289 32.5835C0.892301 32.5835 1.07352 32.5115 1.20913 32.3759L8.08496 25.5001H28.3334C29.8953 25.5001 31.1667 24.2294 31.1667 22.6667V10.918L33.2059 8.87915V8.87849C33.7109 8.37353 34 7.67487 34 6.96167C34 5.4662 32.784 4.2501 31.2884 4.2501ZM29.75 22.6667C29.75 23.4477 29.115 24.0834 28.3334 24.0834H7.79164C7.69862 24.0834 7.60651 24.1017 7.52057 24.1373C7.43464 24.1729 7.35656 24.2251 7.29081 24.2909L1.41664 30.1651V4.2501C1.41664 3.46917 2.05169 2.83346 2.83329 2.83346H28.3333C29.115 2.83346 29.75 3.46917 29.75 4.2501V4.73394C29.6155 4.82638 29.4869 4.92805 29.371 5.04419L21.6638 12.7501H7.79164C7.6986 12.75 7.60647 12.7683 7.5205 12.8039C7.43453 12.8395 7.35641 12.8917 7.29063 12.9574C7.22484 13.0232 7.17266 13.1013 7.13708 13.1873C7.10151 13.2733 7.08323 13.3654 7.08329 13.4585C7.08323 13.5515 7.10151 13.6436 7.13708 13.7296C7.17266 13.8156 7.22484 13.8937 7.29063 13.9595C7.35641 14.0253 7.43453 14.0774 7.5205 14.113C7.60647 14.1486 7.6986 14.1669 7.79164 14.1668H20.5274L19.8472 17.5695C19.8002 17.8019 19.8735 18.042 20.0409 18.2093C20.1738 18.3421 20.3539 18.4167 20.5417 18.4168C20.5874 18.4168 20.6344 18.412 20.68 18.403L24.2204 17.6946C24.3577 17.6676 24.4839 17.6001 24.5828 17.5009L29.75 12.3345V22.6667ZM23.7333 16.3478L21.4451 16.8057L21.903 14.5147L28.333 8.08473L30.165 9.91668L23.7333 16.3478ZM32.2042 7.87754L31.1666 8.91514L29.3346 7.08306L30.3725 6.04513C30.6162 5.80355 30.9452 5.66762 31.2884 5.66675C32.0022 5.66675 32.5833 6.2478 32.5833 6.96167C32.5834 7.302 32.445 7.63616 32.2042 7.87754Z" />
</svg>
