<svg width="32" height="32" viewBox="0 0 32 32" fill="none" xmlns="http://www.w3.org/2000/svg">
<path d="M16 0C7.16375 0 0 7.16375 0 16C0 24.8363 7.16375 32 16 32C24.8363 32 32 24.8363 32 16C32 7.16375 24.8363 0 16 0Z" fill="url(#paint0_linear_32_14)"/>
<rect width="14" height="14" transform="translate(9.00012 9)" fill="url(#paint1_linear_32_14)"/>
<path d="M13.5997 9.9502L13.6144 9.97168L16.6749 14.3311L20.5128 9.9668L20.5275 9.9502H21.7198L21.6466 10.0332L17.2042 15.084L22.0411 21.9717L22.0968 22.0498H18.4005L18.3859 22.0283L15.1505 17.4209L11.0968 22.0332L11.0812 22.0498H9.88977L9.96301 21.9668L14.6212 16.668L9.95911 10.0283L9.90344 9.9502H13.5997ZM18.9513 21.2061H20.4532L13.0411 10.8301H11.5372L18.9513 21.2061Z" fill="white" stroke="white" stroke-width="0.1"/>
<defs>
<linearGradient id="paint0_linear_32_14" x1="-15.5152" y1="3.63636" x2="42.434" y2="26.3993" gradientUnits="userSpaceOnUse">
<stop stop-color="#5465F7"/>
<stop offset="1" stop-color="#8E24AA"/>
</linearGradient>
<linearGradient id="paint1_linear_32_14" x1="-6.78788" y1="1.59091" x2="18.5649" y2="11.5497" gradientUnits="userSpaceOnUse">
<stop stop-color="#5465F7"/>
<stop offset="1" stop-color="#8E24AA"/>
</linearGradient>
</defs>
</svg>
