<svg width="32" height="32" viewBox="0 0 32 32" fill="none" xmlns="http://www.w3.org/2000/svg">
<path d="M16 32C24.8366 32 32 24.8366 32 16C32 7.16344 24.8366 0 16 0C7.16344 0 0 7.16344 0 16C0 24.8366 7.16344 32 16 32Z" fill="url(#paint0_linear_381_2243)"/>
<path d="M14.4934 17.8552L14.2618 21.1125C14.5931 21.1125 14.7366 20.9702 14.9087 20.7993L16.4621 19.3147L19.6809 21.6719C20.2713 22.0009 20.6872 21.8277 20.8464 21.1288L22.9593 11.2285L22.9599 11.2279C23.1471 10.3553 22.6443 10.014 22.0691 10.2281L9.64994 14.9828C8.80235 15.3118 8.81519 15.7843 9.50585 15.9984L12.6809 16.986L20.056 12.3713C20.4031 12.1414 20.7187 12.2686 20.4591 12.4984L14.4934 17.8552Z" fill="white"/>
<defs>
<linearGradient id="paint0_linear_381_2243" x1="-15.5152" y1="3.63636" x2="42.434" y2="26.3993" gradientUnits="userSpaceOnUse">
<stop stop-color="#3B4EF4"/>
<stop offset="0.5" stop-color="#5868F8"/>
<stop offset="1" stop-color="#978FFD"/>
</linearGradient>
</defs>
</svg>
