<svg width="32" height="32" viewBox="0 0 32 32" fill="none" xmlns="http://www.w3.org/2000/svg">
<path d="M16 0C7.16375 0 0 7.16375 0 16C0 24.8363 7.16375 32 16 32C24.8363 32 32 24.8363 32 16C32 7.16375 24.8363 0 16 0Z" fill="url(#paint0_linear_381_2248)"/>
<path d="M16.7382 14.618L21.1797 9.56622L21.2526 9.4832H21.1421H20.0835H20.0609L20.046 9.50019L16.209 13.8644L13.1474 9.50447L13.1325 9.4832H13.1065H9.5332H9.437L9.49228 9.56194L14.1546 16.2013L9.49565 21.5002L9.42266 21.5832H9.5332H10.5919H10.6145L10.6294 21.5662L14.6837 16.9548L17.919 21.5619L17.9339 21.5832H17.9599H21.5332H21.6294L21.5741 21.5045L16.7382 14.618ZM18.4837 20.7389L11.0705 10.363H12.5736L19.9868 20.7389H18.4837Z" fill="white" stroke="white" stroke-width="0.1"/>
<defs>
<linearGradient id="paint0_linear_381_2248" x1="-15.5152" y1="3.63636" x2="42.434" y2="26.3993" gradientUnits="userSpaceOnUse">
<stop stop-color="#3B4EF4"/>
<stop offset="0.5" stop-color="#5868F8"/>
<stop offset="1" stop-color="#978FFD"/>
</linearGradient>
</defs>
</svg>
