<svg width="32" height="32" viewBox="0 0 32 32" fill="none" xmlns="http://www.w3.org/2000/svg">
<path d="M16 0C7.16375 0 0 7.16375 0 16C0 24.8363 7.16375 32 16 32C24.8363 32 32 24.8363 32 16C32 7.16375 24.8363 0 16 0Z" fill="url(#paint0_linear_381_2252)"/>
<path d="M22.8767 11.7814L18.6308 16L22.8767 20.2186C22.9534 20.0581 23 19.8808 23 19.6914V12.3086C23 12.1192 22.9534 11.9419 22.8767 11.7814ZM21.7695 11.0781H10.2305C10.0411 11.0781 9.86373 11.1247 9.70331 11.2014L15.13 16.6008C15.6099 17.0807 16.3901 17.0807 16.87 16.6008L22.2967 11.2014C22.1363 11.1247 21.9589 11.0781 21.7695 11.0781ZM9.12332 11.7814C9.04657 11.9419 9 12.1192 9 12.3086V19.6914C9 19.8808 9.04657 20.0582 9.12332 20.2186L13.3692 16L9.12332 11.7814Z" fill="white"/>
<path d="M18.0508 16.5801L17.45 17.1809C16.6505 17.9804 15.3496 17.9804 14.5501 17.1809L13.9493 16.5801L9.70337 20.7986C9.86379 20.8754 10.0411 20.922 10.2305 20.922H21.7696C21.959 20.922 22.1363 20.8754 22.2968 20.7986L18.0508 16.5801Z" fill="white"/>
<defs>
<linearGradient id="paint0_linear_381_2252" x1="-15.5152" y1="3.63636" x2="42.434" y2="26.3993" gradientUnits="userSpaceOnUse">
<stop stop-color="#3B4EF4"/>
<stop offset="0.5" stop-color="#5868F8"/>
<stop offset="1" stop-color="#978FFD"/>
</linearGradient>
</defs>
</svg>
