<svg width="34" height="34" viewBox="0 0 34 34" fill="none" xmlns="http://www.w3.org/2000/svg">
<path d="M29.2339 21.1912C29.2193 21.1882 29.2061 21.1803 29.1967 21.1686C29.1873 21.157 29.1822 21.1425 29.1823 21.1275V12.8731C29.1822 12.8581 29.1873 12.8436 29.1967 12.8319C29.2061 12.8203 29.2193 12.8123 29.2339 12.8093C30.4193 12.5593 31.3116 11.5066 31.3116 10.248C31.3116 8.80544 30.1371 7.6308 28.6937 7.6308C27.922 7.6308 27.2271 7.96713 26.7477 8.50134C26.7377 8.51255 26.7242 8.51997 26.7095 8.52233C26.6947 8.52468 26.6795 8.52183 26.6666 8.51426L19.5161 4.38578C19.5031 4.37836 19.493 4.36664 19.4877 4.35261C19.4824 4.33859 19.4821 4.32315 19.4869 4.30894C20.0358 2.64783 18.7968 0.87915 16.9992 0.87915C15.2107 0.87915 13.9624 2.6343 14.5116 4.309C14.5164 4.3232 14.5161 4.33861 14.5107 4.3526C14.5054 4.36659 14.4954 4.37829 14.4824 4.38571L7.33176 8.51433C7.31885 8.5219 7.3037 8.52475 7.28892 8.5224C7.27414 8.52004 7.26063 8.51262 7.25071 8.50141C6.77158 7.9672 6.07676 7.63087 5.30468 7.63087C3.86172 7.63087 2.6875 8.80544 2.6875 10.2481C2.6875 11.5067 3.57986 12.5593 4.76483 12.8094C4.7953 12.8158 4.81651 12.842 4.81651 12.8731V21.1276C4.81661 21.1425 4.81151 21.1571 4.80208 21.1687C4.79266 21.1803 4.77949 21.1883 4.76483 21.1913C3.57986 21.441 2.68757 22.494 2.68757 23.7518C2.68757 25.1952 3.86179 26.3694 5.30475 26.3694C6.07682 26.3694 6.77172 26.0326 7.25078 25.4992C7.2607 25.488 7.2742 25.4806 7.28897 25.4782C7.30374 25.4759 7.31886 25.4788 7.33176 25.4863L14.4824 29.6149C14.4954 29.6223 14.5054 29.634 14.5108 29.648C14.5161 29.662 14.5164 29.6774 14.5116 29.6916C13.9623 31.3687 15.212 33.121 16.9991 33.121C18.7953 33.121 20.0358 31.3552 19.4868 29.6916C19.482 29.6774 19.4823 29.662 19.4877 29.648C19.493 29.634 19.503 29.6223 19.5161 29.6149L26.6666 25.4863C26.6795 25.4788 26.6946 25.4759 26.7094 25.4782C26.7242 25.4806 26.7377 25.488 26.7476 25.4992C27.2271 26.0326 27.9219 26.3694 28.6936 26.3694C30.137 26.3694 31.3116 25.1952 31.3116 23.7518C31.3116 22.494 30.4193 21.4409 29.2339 21.1912ZM17.4878 6.12107C17.4877 6.1061 17.4928 6.09156 17.5022 6.07993C17.5117 6.06831 17.5248 6.06033 17.5395 6.05735C18.0924 5.94107 18.5813 5.6499 18.9453 5.24448C18.9552 5.23328 18.9687 5.22588 18.9835 5.22352C18.9982 5.22116 19.0134 5.224 19.0263 5.23156L26.1768 9.35977C26.1898 9.36717 26.1999 9.37887 26.2052 9.39286C26.2106 9.40686 26.2109 9.42228 26.2061 9.43648C26.0333 9.96427 26.0333 10.5334 26.2062 11.0612C26.2109 11.0754 26.2106 11.0908 26.2052 11.1048C26.1999 11.1188 26.1898 11.1304 26.1768 11.1378L22.8484 13.059C22.8386 13.0649 22.8273 13.0679 22.8158 13.0677H17.5528C17.5356 13.0677 17.519 13.0608 17.5068 13.0486C17.4946 13.0364 17.4877 13.0199 17.4877 13.0026L17.4878 6.12107ZM7.79267 9.43648C7.78792 9.42228 7.78825 9.40688 7.79359 9.39291C7.79894 9.37893 7.80897 9.36724 7.82198 9.35984L14.9725 5.23163C14.9854 5.22406 15.0005 5.22121 15.0153 5.22356C15.0301 5.2259 15.0436 5.23329 15.0535 5.24448C15.4178 5.64983 15.9061 5.941 16.4589 6.05735C16.4893 6.06374 16.5105 6.08992 16.5105 6.12107V13.0027C16.5105 13.0199 16.5036 13.0365 16.4914 13.0487C16.4792 13.0609 16.4627 13.0678 16.4454 13.0678H11.1824C11.1709 13.068 11.1597 13.0649 11.1498 13.0591L7.82177 11.1379C7.80877 11.1305 7.79873 11.1188 7.79339 11.1048C7.78804 11.0909 7.78772 11.0755 7.79246 11.0613C7.96498 10.5334 7.96505 9.96437 7.79267 9.43648ZM7.25078 22.0048C6.88677 21.599 6.39819 21.3075 5.84501 21.1912C5.83034 21.1882 5.81716 21.1802 5.80772 21.1686C5.79828 21.157 5.79317 21.1424 5.79326 21.1274V12.8731C5.79317 12.8581 5.79827 12.8436 5.80769 12.8319C5.81712 12.8203 5.83028 12.8123 5.84494 12.8093C6.38807 12.6941 6.88044 12.409 7.25084 11.9954C7.26076 11.9842 7.27425 11.9768 7.28902 11.9744C7.30379 11.9721 7.31892 11.9749 7.33183 11.9825L10.6748 13.9122C10.6848 13.9178 10.693 13.9261 10.6986 13.9361L13.3231 18.4834C13.3317 18.4984 13.334 18.5161 13.3296 18.5328C13.3251 18.5495 13.3142 18.5637 13.2992 18.5723L7.33183 22.0176C7.31893 22.0252 7.30379 22.0281 7.28899 22.0258C7.2742 22.0234 7.26069 22.016 7.25078 22.0048ZM16.5106 27.8796C16.5107 27.8945 16.5056 27.9091 16.4962 27.9207C16.4868 27.9323 16.4736 27.9403 16.4589 27.9433C15.9061 28.0596 15.4178 28.3508 15.0536 28.7565C15.0436 28.7677 15.0301 28.7751 15.0154 28.7774C15.0006 28.7798 14.9855 28.7769 14.9726 28.7694L7.82198 24.6411C7.80897 24.6337 7.79894 24.6221 7.79359 24.6081C7.78825 24.5941 7.78792 24.5787 7.79267 24.5645C7.96508 24.0365 7.96508 23.4674 7.79267 22.9394C7.78792 22.9252 7.78825 22.9098 7.79359 22.8958C7.79894 22.8818 7.80897 22.8701 7.82198 22.8627L13.7878 19.4186C13.8027 19.41 13.8205 19.4077 13.8371 19.4122C13.8538 19.4166 13.868 19.4275 13.8767 19.4424L16.5019 23.9889C16.5077 23.9987 16.5108 24.01 16.5106 24.0215V27.8796ZM16.9428 22.7985L11.9451 14.1426C11.9393 14.1327 11.9363 14.1214 11.9363 14.11C11.9362 14.0985 11.9392 14.0873 11.945 14.0774C11.9507 14.0674 11.9589 14.0592 11.9688 14.0535C11.9788 14.0478 11.99 14.0448 12.0015 14.0448H21.9969C22.0084 14.0448 22.0196 14.0478 22.0295 14.0535C22.0395 14.0592 22.0477 14.0674 22.0534 14.0774C22.0591 14.0873 22.0621 14.0985 22.0621 14.11C22.0621 14.1214 22.059 14.1327 22.0533 14.1426L17.0556 22.7985C17.0499 22.8084 17.0417 22.8166 17.0318 22.8224C17.0219 22.8281 17.0106 22.8311 16.9992 22.8311C16.9878 22.8311 16.9765 22.8281 16.9666 22.8224C16.9567 22.8166 16.9485 22.8084 16.9428 22.7985ZM26.1769 24.6412L19.0263 28.7694C19.0134 28.777 18.9983 28.7799 18.9835 28.7775C18.9687 28.7751 18.9552 28.7677 18.9453 28.7565C18.5813 28.3507 18.0924 28.0596 17.5396 27.9433C17.5249 27.9403 17.5117 27.9323 17.5023 27.9207C17.4928 27.9091 17.4877 27.8945 17.4878 27.8796V24.0215C17.4878 24.0096 17.4906 23.9993 17.4965 23.989L20.1217 19.4425C20.1304 19.4275 20.1446 19.4167 20.1613 19.4122C20.178 19.4077 20.1957 19.4101 20.2107 19.4187L26.1769 22.8628C26.1899 22.8702 26.1999 22.8819 26.2053 22.8959C26.2107 22.9098 26.211 22.9252 26.2063 22.9394C26.0333 23.4674 26.0333 24.0367 26.2063 24.5646C26.211 24.5788 26.2106 24.5942 26.2053 24.6081C26.1999 24.6221 26.1899 24.6338 26.1769 24.6412ZM28.2051 21.1275C28.2052 21.1425 28.2001 21.157 28.1907 21.1686C28.1812 21.1803 28.168 21.1883 28.1534 21.1912C27.6005 21.3076 27.1123 21.5991 26.7476 22.0049C26.7377 22.016 26.7242 22.0234 26.7094 22.0258C26.6946 22.0281 26.6795 22.0253 26.6666 22.0177L20.6992 18.5724C20.6843 18.5638 20.6734 18.5495 20.6689 18.5329C20.6644 18.5162 20.6667 18.4984 20.6753 18.4835L23.3001 13.9362C23.3058 13.9262 23.314 13.9179 23.324 13.9123L26.6665 11.9825C26.6794 11.9749 26.6946 11.972 26.7093 11.9744C26.7241 11.9767 26.7376 11.9841 26.7475 11.9953C27.1122 12.4011 27.6005 12.6923 28.1534 12.8093C28.168 12.8123 28.1812 12.8203 28.1906 12.8319C28.2 12.8436 28.2051 12.8581 28.205 12.8731L28.2051 21.1275ZM20.0293 15.2461C20.0722 15.3202 20.0948 15.4044 20.0948 15.4901C20.0948 15.5759 20.0722 15.66 20.0293 15.7342L17.4227 20.2496C17.2353 20.5741 16.7634 20.5747 16.5764 20.2496L13.9691 15.7342C13.7819 15.4097 14.0166 15.0016 14.3926 15.0016H19.6062C19.6919 15.0016 19.7762 15.0242 19.8505 15.0671C19.9248 15.11 19.9864 15.1717 20.0293 15.2461Z" />
</svg>
