<svg xmlns="http://www.w3.org/2000/svg" xmlns:xlink="http://www.w3.org/1999/xlink" enable-background="new 0 0 3000 3000" viewBox="0 0 3000 3000" id="ancient-style-wooden-wall"><switch><g><g><g><g opacity=".1"><g><polygon points="2199.231 2788.118 2141.916 2817.169 817.697 2068.566 875.013 2039.516"></polygon></g><g><ellipse cx="2155.503" cy="2736.079" rx="113.92" ry="196.676" transform="rotate(-89.84 2155.418 2736.059)"></ellipse></g><g><ellipse cx="844.497" cy="2042.625" rx="113.92" ry="196.677" transform="rotate(-89.84 844.448 2042.598)"></ellipse></g></g><g><g><g><path fill="#916a40" d="M716.695,434.844c0.332-2.29,0.999-5.319,1.705-7.523c0.943-2.942,2.318-6.843,3.648-9.632
								c0.992-2.079,2.49-5.221,5.664-9.893c1.78-2.62,4.383-5.966,6.521-8.304c2.581-2.822,6.301-6.328,9.172-8.856
								c2.456-2.161,6.009-4.714,8.706-6.564c2.477-1.699,5.919-3.757,8.523-5.254c4.291-2.236,10.04-5.197,14.52-7.027
								c6.011-2.457,11.047-4.197,17.381-6.008c15.974-4.567,29.819-5.782,35.732-6.301c1.368-0.12,8.67-0.714,18.051-0.622
								c7.585,0.075,13.932,0.573,17.92,0.977c2.295,0.233,9.277,0.941,17.668,2.584c9.263,1.814,15.952,3.854,17.199,4.244
								c4.796,1.502,11.138,3.709,15.759,5.685c6.976,2.985,12.016,5.714,15.014,7.479c2.256,1.328,7.54,4.437,13.239,8.938
								c1.612,1.273,3.727,3.021,5.235,4.416c1.883,1.74,4.301,4.16,6.06,6.026c4.383,4.65,10.349,12.756,13.952,21.56
								c0.692,1.69,2.528,6.178,3.767,12.329c0.292,1.451,0.626,3.4,0.769,4.873c0.216,2.23,0.388,5.215,0.427,7.455
								c-0.055,19.395-13.095,38.737-39.003,53.275c-50.978,28.605-132.472,27.782-182.023-1.839
								c-24.368-14.567-36.472-33.386-36.419-52.154C716.007,441.741,716.269,437.782,716.695,434.844z"></path><g><path fill="#ab7d4b" d="M774.249,380.396c40.01-22.451,103.972-21.805,142.863,1.444
									c38.89,23.249,37.983,60.296-2.028,82.746c-40.01,22.451-103.972,21.805-142.863-1.443
									C733.331,439.894,734.239,402.847,774.249,380.396z"></path></g><path fill="#785835" d="M715.768,2035.647l0.113-1590.94c-0.053,18.768,12.052,37.586,36.419,52.153
								c49.551,29.621,131.045,30.445,182.022,1.84c25.908-14.538,38.948-33.879,39.003-53.275l-0.113,1590.94
								c-0.055,19.396-13.094,38.737-39.003,53.275c-50.977,28.605-132.472,27.782-182.023-1.84
								C727.819,2073.233,715.714,2054.415,715.768,2035.647z"></path><path fill="#1a1a1a" d="M729.426,478.152c0.004-1.263,0.007-2.449,0.01-3.502
								c0.033-11.723,10.694-23.965,23.818-27.351c4.42,5.715,10.608,11.09,18.571,15.85c8.871,5.303,19.129,9.355,30.117,12.15
								c-5.751,7.626-10.439,23.304-10.472,35.026c-0.003,0.781-0.005,1.647-0.007,2.547
								c-0.028,9.898-0.075,1577.418-0.099,1586.003c-0.006,1.915,0.125,3.579,0.353,5.033c-14.401-3.773-27.858-9.132-39.531-16.11
								c-8.31-4.968-15.159-10.438-20.62-16.224c-1.419-2.358-2.245-5.166-2.236-8.375
								C729.354,2054.888,729.398,488.124,729.426,478.152z"></path></g><g><g><g><g><g><g><path fill="#785835" d="M747.14,410.902c0.131-3.747,0.155-4.422,0.527-6.865
													c0.556-3.649,1.461-6.532,1.562-6.849c1.449-4.527,3.285-8.849,6.779-13.992c8.527-12.549,20.777-19.551,24.803-21.852
													c1.321-0.741,2.907-1.041,4.696-0.829c-16.93,9.5-25.451,22.138-25.486,34.813c-0.035,12.264,7.875,24.561,23.798,34.08
													c32.379,19.356,85.632,19.894,118.943,1.202c16.93-9.5,25.45-22.138,25.486-34.812
													c0.035-12.264-7.875-24.561-23.798-34.08c-32.379-19.356-85.632-19.894-118.943-1.202
													c-1.79-0.212-3.375,0.087-4.696,0.829l0,0c1.656-0.473,3.561-1.863,5.087-2.661c2.845-1.488,10.412-4.721,18.606-7.061
													c6.48-1.85,11.808-2.796,13.559-3.106c7.299-1.295,13.722-1.74,13.786-1.744c5.956-0.405,10.509-0.56,13.533-0.463
													c4.051,0.13,9.45,0.424,13.491,0.735c2.002,0.154,4.65,0.565,6.642,0.812c0.503,0.063,12.466,1.583,25.5,6.263
													c5.664,2.034,9.432,3.826,11.774,4.998c5.33,2.667,7.804,4.298,10.937,6.364c2.245,1.481,5.126,3.643,7.127,5.439
													c4.202,3.772,4.42,4.022,8.06,8.193c0.734,0.841,2.715,3.255,5.242,7.486c1.432,2.397,2.836,5.398,3.483,7.124
													c0.446,1.189,1.051,2.776,1.392,4c0.491,1.759,1.035,4.137,1.379,5.931c0.141,0.734,0.603,3.466,0.632,7.789
													c-0.041,14.608-9.862,29.176-29.376,40.125c-38.395,21.545-99.776,20.924-137.096-1.385
													C756.217,439.211,747.1,425.037,747.14,410.902z"></path><path fill="#916a40" d="M921.832,392.387c1.461,1.14,3.137,2.115,4.993,2.878
													c0.463,0.191,0.939,0.368,1.424,0.532c0.035-12.264-7.875-24.561-23.798-34.08
													c-32.379-19.356-85.632-19.894-118.943-1.202c-16.93,9.5-25.451,22.138-25.486,34.813l0,0l0,0l0,0l0,0
													c-0.035,12.264,7.875,24.561,23.798,34.08c32.379,19.356,85.632,19.894,118.943,1.202
													c16.93-9.5,25.45-22.138,25.486-34.812c-0.486-0.164-0.961-0.341-1.424-0.532
													C924.97,394.501,923.293,393.527,921.832,392.387z"></path><path fill="#1a1a1a" d="M749.303,483.4c-10.429-6.234-18.533-13.275-24.322-20.759
													c-0.077,0.02-0.152,0.049-0.229,0.069c-0.006-0.008-0.013-0.016-0.019-0.025l30.672-17.644l49.863,28.87l-16.548,25.393
													C774.341,495.645,760.914,490.341,749.303,483.4z"></path><path fill="#594129" d="M747.108,422.112l0.032-11.21c-0.04,14.135,9.077,28.309,27.43,39.281
													c37.32,22.31,98.7,22.93,137.096,1.385c19.513-10.95,29.335-25.517,29.376-40.125l-0.032,11.21
													c-0.042,14.609-9.863,29.176-29.376,40.125c-38.395,21.545-99.775,20.925-137.096-1.385
													C756.185,450.421,747.068,436.248,747.108,422.112z"></path><path fill="#785835" d="M772.919,379.754l0.187-66.056c-0.029,10.39,6.672,20.808,20.162,28.872
													c27.431,16.398,72.547,16.854,100.768,1.018c14.343-8.049,21.562-18.756,21.592-29.493l-0.187,66.056
													c-0.03,10.737-7.249,21.445-21.592,29.493c-28.221,15.836-73.337,15.38-100.768-1.018
													C779.591,400.562,772.889,390.143,772.919,379.754z"></path><path fill="#664b2d" d="M931.673,322.141c-7.294,4.093-15.244,7.549-23.63,10.404
													c5.021-5.78,7.568-12.107,7.586-18.45c-0.064,2.443-1.416,5.12-4.134,8.183c-3.968,4.472-9.592,7.841-12.591,9.452
													c-6.894,3.701-12.601,5.689-19.048,7.536c-0.976,0.279-2.031,0.55-3.109,0.816c-21.266,3.235-43.703,3.168-64.921-0.185
													c-4.53-1.086-11.979-3.568-16.065-5.485c-1.243-0.583-2.914-1.336-4.128-1.977c-1.524-0.804-3.539-1.913-4.993-2.836
													c-4.119-2.614-5.893-4.236-7.608-5.805c-1.113-1.018-3.152-3.255-4.199-5.04c-1.208-2.06-1.659-3.383-1.723-5.057
													c-0.018,6.334,2.48,12.675,7.478,18.49c-9.241-3.203-17.931-7.139-25.784-11.834
													c-23.678-14.155-35.441-32.441-35.389-50.678c0.058,4.991,0.245,6.2,1.03,11.29c0.347,2.247,1.172,5.18,1.845,7.351
													c2.567,8.283,6.743,14.715,8.116,16.829c1.784,2.747,4.524,6.169,6.671,8.641c1.852,2.133,4.556,4.767,6.635,6.679
													c6.47,5.949,13.554,10.3,16.579,12.158c1.058,0.65,6.763,4.078,15.191,7.741c6.901,3,13.084,4.92,16.055,5.842
													c1.742,0.541,8.097,2.437,16.712,4.124c2.657,0.52,5.108,0.932,7.342,1.271c18.193,4.682,39.076,4.759,57.338,0.169
													c1.562-0.229,3.205-0.489,4.91-0.79c9.744-1.719,16.512-3.697,17.252-3.917c5.552-1.652,9.564-2.845,16.889-5.838
													c4.353-1.779,9.973-4.591,14.109-6.828c2.567-1.389,5.847-3.496,8.281-5.105c1.745-1.153,3.956-2.861,5.643-4.098
													c2.396-1.755,5.414-4.352,7.483-6.483c1.278-1.316,3.059-3.004,4.246-4.403c1.992-2.347,4.525-5.581,6.337-8.069
													c0.03-0.041,3.289-4.767,5.503-9.613c0.626-1.372,1.457-3.208,1.962-4.629c0.77-2.17,1.767-5.083,2.279-7.328
													c0.642-2.81,1.196-6.622,1.547-9.484c0.176-1.434,0.144-3.369,0.205-4.812
													C969.519,289.221,956.848,308.015,931.673,322.141z"></path><g><ellipse cx="844.664" cy="211.841" fill="#ab7d4b" rx="56.863" ry="98.171" transform="rotate(-89.84 844.644 211.85)"></ellipse></g><path fill="#785835" d="M719.411,272.154l0.11-38.726c-0.052,18.237,11.71,36.523,35.389,50.678
													c48.149,28.783,127.337,29.583,176.872,1.787c25.175-14.127,37.846-32.92,37.899-51.767l-0.11,38.726
													c-0.053,18.847-12.724,37.641-37.899,51.767c-49.535,27.796-128.724,26.996-176.873-1.787
													C731.122,308.677,719.359,290.391,719.411,272.154z"></path><path fill="#916a40" d="M719.521,233.428c0.123-2.882,0.378-6.728,0.791-9.583
													c0.322-2.226,0.97-5.169,1.656-7.311c0.917-2.859,2.253-6.649,3.545-9.359c0.963-2.02,2.42-5.074,5.503-9.614
													c1.729-2.546,4.259-5.798,6.336-8.069c2.508-2.743,6.123-6.149,8.913-8.605c2.386-2.1,5.838-4.581,8.459-6.378
													c2.407-1.651,5.751-3.651,8.282-5.105c3.401-1.909,8.076-1.548,13.231,1.533c-38.878,21.816-39.761,57.815-1.97,80.405
													c37.79,22.591,99.942,23.219,138.82,1.403c38.878-21.816,39.76-57.815,1.97-80.405
													c-37.79-22.59-99.942-23.219-138.82-1.403c-5.155-3.082-9.83-3.442-13.231-1.533c4.17-2.174,9.756-5.05,14.109-6.829
													c5.841-2.387,10.734-4.078,16.889-5.838c15.522-4.438,28.976-5.619,34.721-6.123c1.33-0.117,8.425-0.694,17.54-0.604
													c7.371,0.073,13.538,0.556,17.413,0.949c2.229,0.226,9.014,0.914,17.168,2.511c9,1.762,15.5,3.745,16.712,4.124
													c4.66,1.46,10.823,3.603,15.313,5.524c6.779,2.9,11.675,5.553,14.589,7.267c2.193,1.29,7.327,4.312,12.865,8.685
													c1.567,1.238,3.621,2.935,5.088,4.29c1.829,1.691,4.179,4.043,5.888,5.856c4.258,4.519,10.056,12.396,13.557,20.95
													c0.672,1.642,2.457,6.003,3.66,11.98c0.284,1.41,0.609,3.304,0.748,4.735c0.21,2.166,0.377,5.067,0.415,7.243
													c-0.054,18.847-12.724,37.641-37.899,51.767c-49.535,27.796-128.724,26.996-176.872-1.787
													C731.232,269.951,719.469,251.664,719.521,233.428z"></path></g><g><defs><ellipse id="a" cx="844.664" cy="211.841" rx="56.863" ry="98.171" transform="rotate(-89.84 844.644 211.85)"></ellipse></defs><clipPath id="b"><use overflow="visible" xlink:href="#a"></use></clipPath><rect width="378.767" height="15.627" x="638.391" y="176.818" fill="#292929" clip-path="url(#b)"></rect><rect width="378.768" height="46.137" x="646.576" y="231.14" fill="#292929" clip-path="url(#b)"></rect></g><path fill="#1a1a1a" d="M943.337,248.483c3.843,7.849-6.162,20.641-22.351,28.57
												c-16.189,7.929-32.429,7.998-36.272,0.148c-3.843-7.849,12.073-8.578,28.263-16.507
												C929.165,252.766,939.494,240.634,943.337,248.483z"></path><g><g><path fill="#1a1a1a" d="M805.276,473.791c-11.219-2.853-21.693-6.99-30.75-12.405
														c-8.13-4.86-14.448-10.349-18.961-16.184c0.001-0.42,0.024-8.401,0.032-11.198c0.02-6.848,4.67-14.208,11.774-18.636
														c3.914,5.062,9.395,9.823,16.447,14.039c7.857,4.697,16.943,8.285,26.674,10.76
														c-3.117,6.721-5.165,15.578-5.185,22.425C805.3,465.389,805.277,473.371,805.276,473.791L805.276,473.791z"></path></g><g><path fill="#1a1a1a" d="M810.492,440.167c-9.731-2.475-18.818-6.064-26.674-10.76
														c-7.052-4.216-12.533-8.977-16.447-14.039c7.089-4.425,11.74-11.785,11.76-18.632
														c3.317,4.289,7.961,8.324,13.937,11.896c6.658,3.98,14.357,7.021,22.603,9.118
														C815.651,424.598,813.603,433.454,810.492,440.167L810.492,440.167z"></path></g><g><path fill="#1a1a1a" d="M779.317 330.68c.251.324.562.636.828.957.151.183.283.369.438.551-.43-.149-.842-.32-1.269-.473C779.315 331.37 779.316 331.025 779.317 330.68zM791.533 346.208c1.742.541 8.097 2.437 16.712 4.124 2.619.513 5.033.919 7.241 1.255.126.032.245.075.371.107-.047 16.517-.14 49.539-.187 66.056-8.247-2.098-15.946-5.138-22.603-9.118-5.976-3.572-10.62-7.607-13.937-11.896.052-18.266.104-36.53.155-54.796C784.589 344.044 789.124 345.46 791.533 346.208z"></path></g><path fill="#1a1a1a" d="M741.648,318.52c-0.274-0.264-0.549-0.534-0.826-0.806
													c-2.133-2.251-4.708-5.13-6.745-7.55c-0.238-0.301-0.469-0.592-0.704-0.896c-1.932-2.639-3.045-5.949-3.034-9.791
													c0.028-9.681,0.082-29.045,0.11-38.726c0.033-11.675,10.273-23.824,23.154-27.828
													c4.625,6.665,11.497,12.938,20.665,18.419c8.784,5.251,18.916,9.263,29.734,12.135c-5.288,8.403-9.397,23-9.429,34.152
													c-0.028,9.682-0.082,29.045-0.11,38.726c-0.02,7.023,1.582,11.124,4.088,11.8c-0.055-0.014-0.11-0.028-0.165-0.042
													l-6.853-1.905h-0.001c-0.002-0.001-0.005-0.001-0.007-0.002c-4.444-1.469-7.022-2.322-8.974-3.012
													c-2.188-0.806-4.581-1.744-7.075-2.828c-0.01-0.005-0.019-0.009-0.03-0.014c-3.985-1.854-6.349-2.955-8.219-3.884
													c-1.87-0.957-3.371-1.78-4.54-2.441c-0.699-0.403-1.464-0.849-2.36-1.378c-0.01-0.006-0.033-0.02-0.042-0.025
													c-0.01-0.006-0.023-0.015-0.033-0.021C752.845,327.862,748.999,325.383,741.648,318.52z"></path></g></g></g></g></g></g></g><g><g><g><polygon fill="#e6e6e6" points="1093.918 1057.627 934.307 967.305 934.307 838.627 1093.918 928.949"></polygon><polygon fill="#e6e6e6" points="981.602 869.451 1023.834 844.123 1136.521 906.249 1094.289 931.576"></polygon></g><g><polygon fill="#e6e6e6" points="1093.918 1931.995 934.307 1841.673 934.307 1712.994 1093.918 1803.317"></polygon><polygon fill="#e6e6e6" points="981.602 1743.818 1023.834 1718.491 1136.521 1780.617 1094.289 1805.944"></polygon></g><g><g><g><g><polygon fill="#818181" points="905.963 664.381 947.984 639.962 1011.718 605.301 969.698 629.721"></polygon></g><g><polygon fill="#a37235" points="1034.493 738.588 1076.513 714.168 1072.807 2021.464 1030.786 2045.883"></polygon></g><g><polygon fill="#f0b25b" points="969.698 629.721 1011.718 605.301 1076.513 714.168 1034.493 738.588"></polygon></g><g><polygon fill="#c5985c" points="969.698 629.721 1034.493 738.588 1030.786 2045.883 902.257 1971.677 905.963 664.381"></polygon></g></g></g><g><path fill="#676767" d="M941.174,896.638c6.899,3.983,12.471,13.639,12.448,21.562
										c-0.022,7.928-5.63,11.123-12.53,7.14c-6.894-3.981-12.471-13.634-12.448-21.562
										C928.667,895.856,934.279,892.657,941.174,896.638z"></path></g><g><path fill="#676767" d="M1005.49,934.269c6.899,3.983,12.471,13.639,12.448,21.561
										c-0.022,7.928-5.63,11.124-12.53,7.14c-6.894-3.981-12.471-13.634-12.448-21.561
										C992.982,933.486,998.595,930.288,1005.49,934.269z"></path></g><g><path fill="#676767" d="M941.174,1771.006c6.899,3.983,12.471,13.639,12.448,21.562
										c-0.022,7.928-5.63,11.124-12.53,7.14c-6.894-3.981-12.471-13.634-12.448-21.562
										C928.667,1770.223,934.279,1767.025,941.174,1771.006z"></path></g><g><path fill="#676767" d="M1005.49,1808.636c6.899,3.984,12.471,13.639,12.448,21.562
										c-0.022,7.928-5.63,11.123-12.53,7.14c-6.894-3.981-12.471-13.634-12.448-21.562
										C992.982,1807.854,998.595,1804.656,1005.49,1808.636z"></path></g></g></g><g><g><polygon fill="#e6e6e6" points="1235.794 1141.297 1076.183 1050.975 1076.183 922.297 1235.794 1012.619"></polygon><polygon fill="#e6e6e6" points="1123.477 953.121 1165.709 927.794 1278.397 989.919 1236.165 1015.247"></polygon></g><g><polygon fill="#e6e6e6" points="1235.794 2015.665 1076.183 1925.343 1076.183 1796.665 1235.794 1886.987"></polygon><polygon fill="#e6e6e6" points="1123.477 1827.489 1165.709 1802.161 1278.397 1864.287 1236.165 1889.614"></polygon></g><g><g><g><g><polygon fill="#818181" points="1047.839 582.408 1089.859 557.988 1153.593 523.327 1111.573 547.747"></polygon></g><g><polygon fill="#a37235" points="1176.368 656.614 1218.389 632.195 1214.682 2105.134 1172.662 2129.553"></polygon></g><g><polygon fill="#f0b25b" points="1111.573 547.747 1153.593 523.327 1218.389 632.195 1176.368 656.614"></polygon></g><g><polygon fill="#c5985c" points="1111.573 547.747 1176.368 656.614 1172.662 2129.553 1044.133 2055.347 1047.839 582.408"></polygon></g></g></g><g><path fill="#676767" d="M1083.05,980.308c6.9,3.983,12.471,13.639,12.448,21.562
										c-0.022,7.928-5.63,11.124-12.53,7.14c-6.895-3.98-12.471-13.634-12.448-21.562
										C1070.542,979.526,1076.155,976.328,1083.05,980.308z"></path></g><g><path fill="#676767" d="M1147.365,1017.939c6.9,3.983,12.471,13.639,12.448,21.562
										c-0.022,7.928-5.63,11.124-12.53,7.14c-6.895-3.981-12.471-13.634-12.448-21.562
										C1134.858,1017.157,1140.47,1013.958,1147.365,1017.939z"></path></g><g><path fill="#676767" d="M1083.05,1854.676c6.9,3.983,12.471,13.639,12.448,21.561
										c-0.022,7.928-5.63,11.124-12.53,7.14c-6.895-3.98-12.471-13.634-12.448-21.561
										C1070.542,1853.894,1076.155,1850.695,1083.05,1854.676z"></path></g><g><path fill="#676767" d="M1147.365,1892.307c6.9,3.983,12.471,13.639,12.448,21.562
										c-0.022,7.928-5.63,11.124-12.53,7.14c-6.895-3.98-12.471-13.634-12.448-21.561
										C1134.858,1891.524,1140.47,1888.326,1147.365,1892.307z"></path></g></g></g><g><g><polygon fill="#e6e6e6" points="1375.545 1223.25 1215.934 1132.928 1215.934 1004.25 1375.545 1094.572"></polygon><polygon fill="#e6e6e6" points="1263.229 1035.074 1305.461 1009.746 1418.148 1071.872 1375.917 1097.2"></polygon></g><g><polygon fill="#e6e6e6" points="1375.545 2097.618 1215.934 2007.296 1215.934 1878.618 1375.545 1968.94"></polygon><polygon fill="#e6e6e6" points="1263.229 1909.441 1305.461 1884.114 1418.148 1946.24 1375.917 1971.567"></polygon></g><g><g><g><g><polygon fill="#818181" points="1187.59 509.168 1229.611 484.749 1293.345 450.088 1251.324 474.508"></polygon></g><g><polygon fill="#a37235" points="1316.12 583.375 1358.14 558.955 1354.434 2187.087 1312.413 2211.506"></polygon></g><g><polygon fill="#f0b25b" points="1251.324 474.508 1293.345 450.088 1358.14 558.955 1316.12 583.375"></polygon></g><g><polygon fill="#c5985c" points="1251.324 474.508 1316.12 583.375 1312.413 2211.506 1183.884 2137.3 1187.59 509.168"></polygon></g></g></g><g><path fill="#676767" d="M1222.801,1062.261c6.9,3.983,12.471,13.639,12.449,21.561
										c-0.023,7.928-5.631,11.124-12.53,7.14c-6.895-3.98-12.471-13.634-12.448-21.561
										C1210.294,1061.479,1215.906,1058.281,1222.801,1062.261z"></path></g><g><path fill="#676767" d="M1287.117,1099.892c6.899,3.983,12.471,13.639,12.448,21.562
										c-0.022,7.928-5.63,11.124-12.53,7.14c-6.895-3.981-12.471-13.634-12.448-21.562
										C1274.609,1099.11,1280.222,1095.911,1287.117,1099.892z"></path></g><g><path fill="#676767" d="M1222.801,1936.629c6.9,3.984,12.471,13.639,12.449,21.562
										c-0.023,7.928-5.631,11.123-12.53,7.14c-6.895-3.981-12.471-13.634-12.448-21.562
										C1210.294,1935.847,1215.906,1932.648,1222.801,1936.629z"></path></g><g><path fill="#676767" d="M1287.117,1974.26c6.899,3.983,12.471,13.639,12.448,21.561
										c-0.022,7.928-5.63,11.124-12.53,7.141c-6.895-3.981-12.471-13.634-12.448-21.562
										C1274.609,1973.478,1280.222,1970.279,1287.117,1974.26z"></path></g></g></g><g><g><polygon fill="#e6e6e6" points="1514.035 1303.486 1354.424 1213.164 1354.424 1084.486 1514.035 1174.808"></polygon><polygon fill="#e6e6e6" points="1401.719 1115.31 1443.951 1089.982 1556.638 1152.108 1514.406 1177.435"></polygon></g><g><polygon fill="#e6e6e6" points="1514.035 2177.854 1354.424 2087.531 1354.424 1958.853 1514.035 2049.176"></polygon><polygon fill="#e6e6e6" points="1401.719 1989.677 1443.951 1964.35 1556.638 2026.476 1514.406 2051.803"></polygon></g><g><g><g><g><polygon fill="#818181" points="1326.08 429.574 1368.101 405.155 1431.835 370.494 1389.815 394.913"></polygon></g><g><polygon fill="#a37235" points="1454.61 503.781 1496.63 479.361 1492.924 2267.323 1450.903 2291.742"></polygon></g><g><polygon fill="#f0b25b" points="1389.815 394.913 1431.835 370.494 1496.63 479.361 1454.61 503.781"></polygon></g><g><polygon fill="#c5985c" points="1389.815 394.913 1454.61 503.781 1450.903 2291.742 1322.374 2217.536 1326.08 429.574"></polygon></g></g></g><g><path fill="#676767" d="M1361.291,1142.497c6.899,3.983,12.471,13.639,12.448,21.562
										c-0.022,7.928-5.63,11.123-12.53,7.14c-6.894-3.981-12.471-13.634-12.448-21.562
										C1348.783,1141.715,1354.396,1138.516,1361.291,1142.497z"></path></g><g><ellipse cx="1425.566" cy="1194.479" fill="#676767" rx="10.197" ry="17.605" transform="rotate(-30.163 1425.493 1194.367)"></ellipse></g><g><path fill="#676767" d="M1361.291,2016.865c6.899,3.983,12.471,13.639,12.448,21.562
										c-0.022,7.928-5.63,11.124-12.53,7.14c-6.894-3.98-12.471-13.634-12.448-21.562
										C1348.783,2016.082,1354.396,2012.884,1361.291,2016.865z"></path></g><g><path fill="#676767" d="M1425.607,2054.495c6.899,3.983,12.471,13.639,12.448,21.562
										c-0.022,7.927-5.63,11.124-12.53,7.14c-6.894-3.981-12.471-13.634-12.448-21.562
										C1413.099,2053.713,1418.712,2050.515,1425.607,2054.495z"></path></g></g></g><g><g><polygon fill="#e6e6e6" points="1655.911 1387.156 1496.3 1296.834 1496.3 1168.156 1655.911 1258.478"></polygon><polygon fill="#e6e6e6" points="1543.594 1198.98 1585.826 1173.652 1698.514 1235.778 1656.282 1261.106"></polygon></g><g><polygon fill="#e6e6e6" points="1655.911 2261.524 1496.3 2171.202 1496.3 2042.524 1655.911 2132.846"></polygon><polygon fill="#e6e6e6" points="1543.594 2073.347 1585.826 2048.02 1698.514 2110.146 1656.282 2135.473"></polygon></g><g><g><g><g><polygon fill="#818181" points="1467.956 616.376 1509.976 591.956 1573.71 557.295 1531.69 581.715"></polygon></g><g><polygon fill="#a37235" points="1596.485 690.582 1638.505 666.162 1634.799 2350.992 1592.779 2375.412"></polygon></g><g><polygon fill="#f0b25b" points="1531.69 581.715 1573.71 557.295 1638.505 666.162 1596.485 690.582"></polygon></g><g><polygon fill="#c5985c" points="1531.69 581.715 1596.485 690.582 1592.779 2375.412 1464.25 2301.206 1467.956 616.376"></polygon></g></g></g><g><path fill="#676767" d="M1503.167,1226.167c6.9,3.984,12.471,13.639,12.448,21.562
										c-0.022,7.928-5.63,11.124-12.53,7.14c-6.895-3.981-12.471-13.634-12.448-21.562
										C1490.659,1225.385,1496.272,1222.187,1503.167,1226.167z"></path></g><g><path fill="#676767" d="M1567.482,1263.798c6.9,3.984,12.471,13.639,12.448,21.562
										c-0.022,7.928-5.63,11.123-12.53,7.14c-6.895-3.981-12.471-13.634-12.448-21.562
										C1554.975,1263.016,1560.587,1259.817,1567.482,1263.798z"></path></g><g><path fill="#676767" d="M1503.167,2100.535c6.9,3.983,12.471,13.639,12.448,21.561
										c-0.022,7.928-5.63,11.124-12.53,7.141c-6.895-3.981-12.471-13.634-12.448-21.562
										C1490.659,2099.753,1496.272,2096.554,1503.167,2100.535z"></path></g><g><path fill="#676767" d="M1567.482,2138.165c6.9,3.983,12.471,13.639,12.448,21.562
										c-0.022,7.928-5.63,11.124-12.53,7.14c-6.895-3.98-12.471-13.634-12.448-21.561
										C1554.975,2137.383,1560.587,2134.185,1567.482,2138.165z"></path></g></g></g><g><g><polygon fill="#e6e6e6" points="1795.662 1469.109 1636.051 1378.787 1636.051 1250.109 1795.662 1340.431"></polygon><polygon fill="#e6e6e6" points="1683.346 1280.933 1725.578 1255.606 1838.265 1317.731 1796.033 1343.058"></polygon></g><g><polygon fill="#e6e6e6" points="1795.662 2343.477 1636.051 2253.155 1636.051 2124.477 1795.662 2214.799"></polygon><polygon fill="#e6e6e6" points="1683.346 2155.3 1725.578 2129.973 1838.265 2192.099 1796.033 2217.426"></polygon></g><g><g><g><g><polygon fill="#818181" points="1607.707 841.496 1649.728 817.077 1713.462 782.416 1671.441 806.836"></polygon></g><g><polygon fill="#a37235" points="1736.237 915.703 1778.257 891.283 1774.551 2432.946 1732.53 2457.365"></polygon></g><g><polygon fill="#f0b25b" points="1671.441 806.836 1713.462 782.416 1778.257 891.283 1736.237 915.703"></polygon></g><g><polygon fill="#c5985c" points="1671.441 806.836 1736.237 915.703 1732.53 2457.365 1604.001 2383.159 1607.707 841.496"></polygon></g></g></g><g><path fill="#676767" d="M1642.918,1308.12c6.899,3.983,12.471,13.639,12.448,21.561
										c-0.023,7.928-5.63,11.124-12.53,7.14c-6.895-3.98-12.471-13.634-12.448-21.561
										C1630.411,1307.338,1636.023,1304.139,1642.918,1308.12z"></path></g><g><path fill="#676767" d="M1707.234,1345.751c6.899,3.984,12.471,13.639,12.448,21.562
										c-0.022,7.928-5.63,11.124-12.53,7.14c-6.895-3.98-12.471-13.634-12.448-21.561
										C1694.726,1344.969,1700.339,1341.77,1707.234,1345.751z"></path></g><g><path fill="#676767" d="M1642.918,2182.488c6.899,3.983,12.471,13.639,12.448,21.562
										c-0.023,7.927-5.63,11.124-12.53,7.14c-6.895-3.981-12.471-13.634-12.448-21.562
										C1630.411,2181.706,1636.023,2178.507,1642.918,2182.488z"></path></g><g><path fill="#676767" d="M1707.234,2220.119c6.899,3.983,12.471,13.639,12.448,21.561
										c-0.022,7.928-5.63,11.124-12.53,7.141c-6.895-3.981-12.471-13.634-12.448-21.562
										C1694.726,2219.336,1700.339,2216.138,1707.234,2220.119z"></path></g></g></g><g><g><polygon fill="#e6e6e6" points="1934.551 1548.474 1774.94 1458.152 1774.94 1329.474 1934.551 1419.796"></polygon><polygon fill="#e6e6e6" points="1822.234 1360.298 1864.466 1334.971 1977.154 1397.096 1934.922 1422.423"></polygon></g><g><polygon fill="#e6e6e6" points="1934.551 2422.842 1774.94 2332.52 1774.94 2203.842 1934.551 2294.164"></polygon><polygon fill="#e6e6e6" points="1822.234 2234.665 1864.466 2209.338 1977.154 2271.464 1934.922 2296.791"></polygon></g><g><g><g><g><polygon fill="#818181" points="1746.596 1046.917 1788.616 1022.497 1852.351 987.837 1810.33 1012.256"></polygon></g><g><polygon fill="#a37235" points="1875.125 1121.123 1917.146 1096.704 1913.439 2512.311 1871.419 2536.73"></polygon></g><g><polygon fill="#f0b25b" points="1810.33 1012.256 1852.351 987.837 1917.146 1096.704 1875.125 1121.123"></polygon></g><g><polygon fill="#c5985c" points="1810.33 1012.256 1875.125 1121.123 1871.419 2536.73 1742.89 2462.524 1746.596 1046.917"></polygon></g></g></g><g><path fill="#676767" d="M1781.807,1387.485c6.899,3.983,12.471,13.639,12.448,21.561
										c-0.022,7.928-5.63,11.124-12.53,7.141c-6.894-3.981-12.471-13.634-12.448-21.562
										C1769.299,1386.703,1774.912,1383.504,1781.807,1387.485z"></path></g><g><path fill="#676767" d="M1846.122,1425.116c6.899,3.983,12.471,13.639,12.448,21.562
										c-0.022,7.928-5.63,11.124-12.53,7.14c-6.894-3.981-12.471-13.634-12.448-21.561
										C1833.615,1424.333,1839.227,1421.135,1846.122,1425.116z"></path></g><g><path fill="#676767" d="M1781.807,2261.853c6.899,3.983,12.471,13.639,12.448,21.562
										c-0.022,7.928-5.63,11.124-12.53,7.14c-6.894-3.98-12.471-13.634-12.448-21.562
										C1769.299,2261.071,1774.912,2257.872,1781.807,2261.853z"></path></g><g><path fill="#676767" d="M1846.122,2299.484c6.899,3.983,12.471,13.639,12.448,21.562
										c-0.022,7.928-5.63,11.124-12.53,7.14c-6.894-3.981-12.471-13.634-12.448-21.562
										C1833.615,2298.701,1839.227,2295.503,1846.122,2299.484z"></path></g></g></g><g><g><polygon fill="#e6e6e6" points="2074.302 1630.427 1914.691 1540.105 1914.691 1411.427 2074.302 1501.749"></polygon><polygon fill="#e6e6e6" points="1961.986 1442.251 2004.218 1416.923 2116.906 1479.049 2074.673 1504.377"></polygon></g><g><polygon fill="#e6e6e6" points="2074.302 2504.795 1914.691 2414.473 1914.691 2285.794 2074.302 2376.116"></polygon><polygon fill="#e6e6e6" points="1961.986 2316.619 2004.218 2291.291 2116.906 2353.417 2074.673 2378.744"></polygon></g><g><g><g><g><polygon fill="#818181" points="1886.348 1237.182 1928.368 1212.762 1992.102 1178.101 1950.082 1202.521"></polygon></g><g><polygon fill="#a37235" points="2014.877 1311.388 2056.897 1286.968 2053.191 2594.264 2011.171 2618.683"></polygon></g><g><polygon fill="#f0b25b" points="1950.082 1202.521 1992.102 1178.101 2056.897 1286.968 2014.877 1311.388"></polygon></g><g><polygon fill="#c5985c" points="1950.082 1202.521 2014.877 1311.388 2011.171 2618.683 1882.641 2544.477 1886.348 1237.182"></polygon></g></g></g><g><path fill="#676767" d="M1921.558,1469.438c6.899,3.984,12.471,13.639,12.448,21.562
										c-0.022,7.927-5.63,11.124-12.53,7.14c-6.895-3.981-12.471-13.634-12.448-21.562
										C1909.051,1468.656,1914.663,1465.458,1921.558,1469.438z"></path></g><g><path fill="#676767" d="M1985.874,1507.069c6.9,3.983,12.471,13.639,12.448,21.561
										c-0.022,7.928-5.63,11.124-12.53,7.141c-6.895-3.981-12.471-13.634-12.448-21.562
										C1973.366,1506.287,1978.979,1503.088,1985.874,1507.069z"></path></g><g><path fill="#676767" d="M1921.558,2343.806c6.899,3.983,12.471,13.639,12.448,21.562
										c-0.022,7.928-5.63,11.124-12.53,7.14c-6.895-3.98-12.471-13.634-12.448-21.561
										C1909.051,2343.023,1914.663,2339.825,1921.558,2343.806z"></path></g><g><path fill="#676767" d="M1985.874,2381.436c6.9,3.984,12.471,13.639,12.448,21.562
										c-0.022,7.928-5.63,11.124-12.53,7.14c-6.895-3.98-12.471-13.634-12.448-21.562
										C1973.366,2380.654,1978.979,2377.456,1985.874,2381.436z"></path></g></g></g></g><g><polygon points="1012.677 1448.082 998.341 1448.082 998.341 1301.508 1012.677 1306.886" opacity=".1"></polygon><path d="M1105.988,1507.568c-0.05-2.605-0.257-6.075-0.47-8.672c-0.237-2.874-0.694-6.695-1.108-9.55
							c-0.394-2.715-1.05-6.314-1.582-9.005c-0.559-2.829-1.45-6.573-2.174-9.365c-0.715-2.756-1.771-6.405-2.622-9.122
							c-2.38-7.594-4.624-13.171-6.705-18.212c-1.119-2.71-2.744-6.268-4.005-8.914c-1.272-2.668-3.048-6.188-4.438-8.797
							c-1.317-2.474-4.991-9.276-10.033-16.978c-1.542-2.355-5.712-8.695-11.503-16.006c-2.864-3.615-7.234-8.917-12.891-14.789
							c-1.96-2.035-4.635-4.69-6.699-6.619c-2.21-2.064-5.27-4.692-7.544-6.686c-2.424-2.125-5.823-4.774-8.471-6.614
							c-4.231-2.939-9.95-6.772-14.456-9.27c-6.851-3.799-11.222-5.556-15.078-7.107c-2.88-1.158-6.852-2.357-9.835-3.217
							c-1.924-0.554-4.553-1.05-6.506-1.49c-2.978-0.672-7.055-1.008-10.098-1.255c-3.12-0.253-7.319-0.145-10.434,0.164
							c-3.267,0.323-7.589,1.122-10.769,1.936c-2.887,0.739-6.642,2.123-9.33,3.409c-5.852,2.8-9.005,5.186-9.578,5.636
							c-1.241,0.975-2.962,2.201-4.112,3.282c-2.103,1.977-4.794,4.737-6.712,6.893c-2.223,2.499-4.625,6.296-6.366,9.152
							c-1.545,2.533-3.329,6.095-4.367,8.875c-0.984,2.635-2.261,6.163-3.082,8.852c-0.599,1.961-1.186,4.634-1.646,6.631
							c-0.634,2.753-1.254,6.481-1.512,9.294c-0.436,4.745-0.709,11.1-0.797,15.864c-0.01,3.071,0.16,7.173,0.498,10.226
							c0.318,2.866,0.695,6.695,1.109,9.549c0.393,2.714,1.051,6.314,1.581,9.005c0.557,2.83,1.379,6.592,2.174,9.365
							c0.784,2.738,1.768,6.406,2.622,9.122c0.872,2.772,2.087,6.456,3.131,9.168c2.098,5.458,5.064,12.678,7.58,17.958
							c1.271,2.668,3.048,6.188,4.438,8.797c1.39,2.61,3.377,6.016,4.826,8.595c1.45,2.581,3.589,5.903,5.207,8.383
							c1.611,2.469,3.885,5.676,5.551,8.107c1.677,2.448,4.118,5.567,5.952,7.899c1.795,2.282,4.27,5.262,6.178,7.451
							c1.961,2.249,4.693,5.142,6.713,7.338c2.105,2.288,5.11,5.151,7.391,7.264c3.997,3.703,9.648,8.285,13.943,11.638
							c2.447,1.911,5.872,4.252,8.508,5.894c2.175,1.355,5.085,3.151,7.327,4.391c2.375,1.314,5.621,2.916,8.054,4.119
							c2.979,1.474,7.134,3.054,10.264,4.173c3.832,1.37,9.115,2.701,13.101,3.522c2.99,0.616,7.05,1.08,10.098,1.255
							c1.773,0.102,4.147,0.2,5.92,0.1c3.004-0.171,6.999-0.596,9.981-1.003c3.006-0.411,6.933-1.537,9.773-2.606
							c1.476-0.555,3.435-1.326,4.861-1.999c1.594-0.752,3.717-1.784,5.193-2.746c1.319-0.86,3.152-1.907,4.383-2.89
							c2.473-1.973,5.757-4.652,7.941-6.942c2.04-2.139,4.637-5.143,6.232-7.633c1.53-2.389,3.498-5.624,4.85-8.118
							c0.867-1.6,1.887-3.809,2.535-5.508c1.001-2.628,2.261-6.163,3.082-8.852c0.598-1.96,1.222-4.626,1.646-6.631
							c0.585-2.764,1.157-6.492,1.512-9.295c0.293-2.318,0.523-5.429,0.646-7.763
							C1106.019,1514.331,1106.043,1510.465,1105.988,1507.568z M1044.415,1566.878c-13.964,8.115-33.198,7.191-54.54-4.702
							c-43.398-24.184-79.078-84.567-79.694-134.868c-0.313-25.565,8.491-43.606,22.922-51.992
							c13.965-8.115,33.199-7.192,54.54,4.701c43.398,24.184,79.078,84.567,79.694,134.869
							C1067.651,1540.451,1058.847,1558.491,1044.415,1566.878z" opacity=".1"></path><g><g><path fill="#454545" d="M1030.457,1539.408c-0.88,0.326-2.089,0.681-3.014,0.841c-1.151,0.2-2.705,0.379-3.873,0.412
									c-1.192,0.035-2.787-0.027-3.969-0.183c-1.221-0.161-2.852-0.391-4.044-0.697c-1.951-0.5-4.514-1.314-6.414-1.984
									c-1.339-0.472-3.06-1.268-4.343-1.875c-1.22-0.577-2.808-1.426-3.995-2.068c-1.634-0.885-3.738-2.201-5.292-3.22
									c-1.497-0.982-3.471-2.331-4.873-3.444c-2.815-2.236-6.474-5.337-9.151-7.734c-1.515-1.356-3.407-3.302-4.815-4.769
									c-1.396-1.455-3.242-3.413-4.528-4.967c-2.647-3.197-6.077-7.542-8.573-10.859c-0.034-0.046-3.765-5.122-7.781-11.928
									c-6.135-10.399-10.978-21.195-14.394-32.09c-0.589-1.879-1.312-4.404-1.802-6.311c-0.503-1.963-1.163-4.587-1.506-6.584
									c-0.357-2.076-0.918-4.833-1.148-6.926c-0.354-3.216-0.655-7.522-0.796-10.754c-0.005-1.802,0.058-4.205,0.164-6.004
									c0.074-1.265,0.246-2.948,0.435-4.201c0.229-1.521,0.586-3.544,0.955-5.037c0.355-1.436,0.92-3.33,1.453-4.71
									c0.534-1.383,1.388-3.173,2.107-4.469c0.52-0.939,1.353-2.112,2.012-2.959c1.043-1.341,2.205-2.358,2.587-2.692
									c0.724-0.634,1.805-1.339,2.614-1.861c-10.983,6.383-17.683,20.113-17.445,39.569
									c0.469,38.282,27.624,84.236,60.651,102.642c16.243,9.051,30.88,9.754,41.508,3.578
									C1032.386,1538.547,1031.306,1539.094,1030.457,1539.408z"></path><path fill="#646464" d="M1054.625,1517.61c-0.616-50.302-36.296-110.685-79.694-134.869
									c-21.342-11.893-40.576-12.817-54.541-4.701c-14.432,8.387-23.236,26.428-22.922,51.992
									c0.616,50.302,36.296,110.685,79.694,134.868c21.342,11.893,40.576,12.817,54.541,4.702
									C1046.135,1561.215,1054.939,1543.174,1054.625,1517.61z M1045.347,1512.197c-0.089,1.264-0.247,2.948-0.435,4.201
									c-0.229,1.521-0.602,3.54-0.954,5.037c-0.22,0.932-0.559,2.166-0.874,3.072c-0.422,1.215-1.029,2.822-1.575,3.986
									c-0.305,0.65-0.734,1.51-1.111,2.121c-0.562,0.915-1.31,2.147-2.011,2.959c-0.365,0.423-0.839,1-1.226,1.403
									c-0.39,0.406-0.938,0.919-1.361,1.289c-0.724,0.634-1.804,1.339-2.613,1.86c-10.628,6.176-25.266,5.473-41.508-3.578
									c-33.028-18.405-60.182-64.359-60.651-102.642c-0.238-19.456,6.462-33.186,17.445-39.569c0.8-0.422,1.88-0.969,2.729-1.283
									c0.88-0.326,2.088-0.681,3.013-0.841c1.151-0.2,2.705-0.379,3.872-0.413c1.192-0.035,2.787,0.028,3.969,0.183
									c1.221,0.161,2.851,0.392,4.044,0.698c1.951,0.5,4.514,1.314,6.414,1.983c1.339,0.472,3.06,1.268,4.343,1.875
									c1.219,0.577,2.807,1.426,3.994,2.068c1.634,0.885,3.77,2.154,5.292,3.22c1.466,1.027,3.442,2.368,4.873,3.444
									c1.417,1.065,3.292,2.511,4.616,3.69c1.428,1.272,3.361,2.936,4.752,4.248c1.414,1.333,3.254,3.161,4.598,4.565
									c2.041,2.132,5.218,5.582,8.912,10.262c1.787,2.264,4.802,6.212,8.204,11.429c1.168,1.792,2.674,4.215,3.761,6.056
									c1.091,1.846,2.45,4.362,3.499,6.232c1.057,1.885,2.358,4.462,3.243,6.434c1.713,3.813,3.963,8.919,5.413,12.84
									c1.077,2.912,2.653,7.514,4.044,12.901c0.506,1.962,1.106,4.598,1.506,6.585c0.356,1.769,0.71,4.151,1.012,5.93
									c0.326,1.918,0.546,4.507,0.7,6.447c0.126,1.587,0.164,3.712,0.232,5.303
									C1045.589,1507.993,1045.472,1510.4,1045.347,1512.197z"></path><path fill="#454545" d="M1093.276,1510.293c-0.05-2.605-0.257-6.075-0.47-8.672c-0.237-2.874-0.694-6.695-1.108-9.55
									c-0.394-2.714-1.05-6.314-1.582-9.005c-0.559-2.829-1.449-6.573-2.174-9.365c-0.715-2.756-1.77-6.405-2.622-9.122
									c-2.38-7.594-4.624-13.17-6.705-18.212c-1.119-2.71-2.744-6.267-4.005-8.914c-1.272-2.668-3.048-6.188-4.438-8.797
									c-1.317-2.474-4.991-9.276-10.033-16.978c-1.542-2.355-5.712-8.695-11.503-16.006c-2.864-3.615-7.234-8.917-12.891-14.789
									c-1.96-2.034-4.635-4.69-6.699-6.618c-2.21-2.064-5.27-4.692-7.544-6.686c-2.424-2.126-5.823-4.774-8.471-6.614
									c-4.231-2.939-9.95-6.772-14.456-9.27c-6.851-3.799-11.222-5.556-15.078-7.107c-2.88-1.158-6.852-2.357-9.835-3.217
									c-1.924-0.554-4.553-1.05-6.506-1.49c-2.978-0.672-7.055-1.008-10.097-1.255c-3.12-0.253-7.319-0.145-10.434,0.163
									c-3.267,0.324-7.589,1.122-10.769,1.936c-2.887,0.739-6.642,2.123-9.33,3.409c-5.852,2.8-9.005,5.186-9.578,5.636
									c-1.241,0.975-2.962,2.201-4.112,3.282c-2.103,1.977-4.794,4.737-6.713,6.893c-2.223,2.499-4.625,6.296-6.366,9.152
									c-1.545,2.533-3.329,6.096-4.367,8.876c-0.984,2.634-2.261,6.162-3.082,8.852c-0.599,1.961-1.186,4.634-1.646,6.631
									c-0.634,2.753-1.254,6.481-1.512,9.294c-0.436,4.745-0.709,11.1-0.797,15.864c-0.01,3.071,0.16,7.173,0.498,10.226
									c0.318,2.866,0.695,6.695,1.109,9.55c0.393,2.715,1.051,6.314,1.581,9.005c0.557,2.83,1.379,6.592,2.174,9.365
									c0.784,2.738,1.768,6.406,2.622,9.122c0.872,2.773,2.087,6.456,3.131,9.168c2.098,5.458,5.064,12.678,7.58,17.958
									c1.271,2.668,3.048,6.188,4.438,8.797c1.39,2.61,3.377,6.017,4.826,8.595c1.45,2.581,3.589,5.903,5.207,8.383
									c1.611,2.469,3.885,5.676,5.551,8.107c1.677,2.447,4.118,5.566,5.952,7.898c1.795,2.282,4.271,5.262,6.178,7.451
									c1.96,2.249,4.693,5.142,6.712,7.338c2.105,2.288,5.11,5.151,7.391,7.264c3.997,3.703,9.648,8.285,13.943,11.638
									c2.447,1.911,5.872,4.252,8.508,5.894c2.175,1.355,5.085,3.151,7.327,4.392c2.375,1.314,5.621,2.916,8.054,4.119
									c2.979,1.473,7.134,3.054,10.264,4.172c3.833,1.37,9.115,2.701,13.102,3.522c2.99,0.616,7.05,1.08,10.098,1.255
									c1.773,0.102,4.147,0.201,5.92,0.1c3.004-0.171,6.999-0.596,9.981-1.003c3.006-0.411,6.933-1.537,9.773-2.606
									c1.476-0.555,3.435-1.326,4.861-1.999c1.594-0.752,3.717-1.784,5.193-2.746c1.319-0.859,3.152-1.907,4.383-2.889
									c2.473-1.974,5.756-4.652,7.94-6.942c2.04-2.14,4.637-5.144,6.232-7.633c1.53-2.389,3.498-5.624,4.85-8.118
									c0.867-1.599,1.887-3.809,2.535-5.508c1.001-2.628,2.261-6.163,3.082-8.852c0.599-1.96,1.222-4.626,1.646-6.631
									c0.585-2.764,1.157-6.492,1.512-9.295c0.293-2.318,0.523-5.429,0.647-7.763
									C1093.307,1517.055,1093.331,1513.189,1093.276,1510.293z M1031.703,1569.602c-13.965,8.115-33.199,7.192-54.541-4.702
									c-43.398-24.184-79.078-84.566-79.694-134.868c-0.314-25.565,8.491-43.606,22.922-51.992
									c13.965-8.115,33.199-7.191,54.541,4.701c43.398,24.184,79.078,84.567,79.694,134.869
									C1054.939,1543.174,1046.135,1561.215,1031.703,1569.602z"></path></g></g><path d="M1011.801,1361.268c0,0-15.404,6.431-16.002,24.676c-0.598,18.245,4.935,25.872,4.935,25.872
							l-13.31-12.562c0,0-7.926-6.879-5.832-22.133c2.094-15.254,16.749-24.825,16.749-24.825L1011.801,1361.268z" opacity=".1"></path><g><defs><path id="c" d="M993.4,1297.428l19.242,7.912l-1.26,18.33l-6.63,1.407l-7.102,99.332l15.022,7.279l0.33,22.492
									l-33.509,4.569c0,0-29.253-22.244-29.278-23.232s5.007-113.124,5.007-113.124L993.4,1297.428z"></path></defs><clipPath id="d"><use overflow="visible" xlink:href="#c"></use></clipPath><g clip-path="url(#d)"><path fill="#454545" d="M1008.268,1324.467c0.549,1.96,0.802,4.262,0.687,6.81l-3.404,76.175
									c-0.4,9.24-5.524,18.273-11.39,20.076l-10.811,3.401c-1.247,0.386-2.429,0.42-3.513,0.147l16.707,4.22
									c1.084,0.274,2.266,0.24,3.513-0.147l10.811-3.401c5.866-1.803,10.99-10.836,11.39-20.076l3.404-76.175
									c0.116-2.548-0.137-4.85-0.687-6.81c-1.026-3.66-3.086-6.13-5.713-6.793l-16.708-4.221
									C1005.182,1318.337,1007.242,1320.807,1008.268,1324.467z"></path><g><path fill="#515151" d="M982.489,1348.954c0.833-18.861,11.273-37.238,23.256-40.945l10.789-3.379
										c8.694-2.724,15.849,2.988,18.8,13.516c1.121,3.999,1.636,8.69,1.399,13.879l-3.395,76.206
										c-0.841,18.831-11.281,37.208-23.256,40.945l-10.797,3.349c-8.702,2.727-15.858-2.983-18.814-13.524
										c-1.118-3.989-1.635-8.671-1.406-13.849L982.489,1348.954z M1004.949,1325.406c-5.857,1.833-10.982,10.866-11.39,20.076
										l-3.416,76.227c-0.11,2.537,0.144,4.833,0.693,6.789c1.449,5.169,4.951,7.976,9.222,6.653l10.811-3.401
										c5.866-1.803,10.99-10.836,11.39-20.076l3.403-76.175c0.116-2.548-0.137-4.85-0.686-6.81
										c-1.448-5.165-4.956-7.96-9.208-6.653L1004.949,1325.406L1004.949,1325.406z"></path></g><path fill="#909090" d="M965.781,1344.733l-3.425,76.197c-0.229,5.178,0.288,9.859,1.406,13.848
									c2.089,7.45,6.276,12.487,11.623,13.838l16.708,4.221c-5.348-1.351-9.534-6.387-11.623-13.837
									c-1.118-3.989-1.635-8.671-1.406-13.849l3.425-76.198c0.833-18.861,11.273-37.238,23.256-40.945l10.789-3.379
									c2.549-0.798,4.964-0.872,7.181-0.312l-16.708-4.221c-2.217-0.56-4.633-0.486-7.181,0.312l-10.789,3.379
									C977.054,1307.495,966.614,1325.873,965.781,1344.733z"></path></g></g></g><g opacity=".1"><polygon points="886.065 524.147 928.085 499.727 924.379 2081.428 882.359 2105.848"></polygon></g><g><g><path fill="#616161" d="M2065.223,1452.447c-14.868,8.64-39.073,8.64-54.038,0
								c-7.534-4.349-11.296-10.059-11.279-15.759l-0.057,257.474c-0.016,5.7,3.745,11.409,11.279,15.759
								c14.965,8.64,39.171,8.64,54.038,0c7.39-4.294,11.087-9.914,11.103-15.541l0.057-257.474
								C2076.31,1442.533,2072.613,1448.152,2065.223,1452.447z"></path><g><path fill="#b0b0b0" d="M2065.047,1421.146c14.965,8.64,15.054,22.655,0.177,31.301
									c-14.868,8.64-39.073,8.64-54.038,0c-14.975-8.645-15.044-22.66-0.177-31.301
									C2025.886,1412.5,2050.073,1412.5,2065.047,1421.146z"></path></g></g></g><g><g><path fill="#616161" d="M2065.223,2266.802c-14.868,8.64-39.073,8.64-54.038,0
								c-7.534-4.35-11.296-10.059-11.279-15.759l-0.057,257.474c-0.016,5.7,3.745,11.409,11.279,15.759
								c14.965,8.64,39.171,8.64,54.038,0c7.39-4.294,11.087-9.914,11.103-15.541l0.057-257.474
								C2076.31,2256.889,2072.613,2262.508,2065.223,2266.802z"></path><g><path fill="#b0b0b0" d="M2065.047,2235.501c14.965,8.64,15.054,22.656,0.177,31.301
									c-14.868,8.64-39.073,8.641-54.038,0c-14.975-8.645-15.044-22.661-0.177-31.301
									C2025.886,2226.856,2050.073,2226.856,2065.047,2235.501z"></path></g></g></g><g><g><path fill="#916a40" d="M2028.91,1105.152c0.332-2.29,0.999-5.319,1.705-7.523c0.943-2.943,2.318-6.843,3.648-9.632
								c0.992-2.08,2.49-5.221,5.663-9.894c1.78-2.62,4.383-5.966,6.521-8.304c2.581-2.822,6.301-6.329,9.172-8.856
								c2.456-2.162,6.009-4.714,8.706-6.564c2.477-1.699,5.919-3.757,8.523-5.254c4.291-2.236,10.04-5.197,14.52-7.027
								c6.011-2.456,11.047-4.197,17.381-6.008c15.974-4.567,29.819-5.782,35.732-6.301c1.368-0.12,8.67-0.714,18.051-0.622
								c7.585,0.075,13.932,0.573,17.92,0.977c2.294,0.233,9.277,0.941,17.667,2.584c9.262,1.814,15.952,3.854,17.199,4.244
								c4.796,1.502,11.138,3.709,15.759,5.685c6.976,2.984,12.015,5.714,15.014,7.479c2.256,1.328,7.54,4.437,13.239,8.938
								c1.612,1.274,3.727,3.021,5.235,4.415c1.883,1.74,4.302,4.161,6.06,6.026c4.383,4.651,10.349,12.756,13.952,21.56
								c0.692,1.69,2.529,6.178,3.767,12.328c0.292,1.451,0.626,3.4,0.769,4.873c0.217,2.23,0.388,5.214,0.427,7.454
								c-0.055,19.395-13.095,38.737-39.003,53.275c-50.978,28.605-132.472,27.782-182.023-1.839
								c-24.368-14.567-36.472-33.386-36.419-52.154C2028.222,1112.048,2028.484,1108.09,2028.91,1105.152z"></path><g><ellipse cx="2156.881" cy="1092.799" fill="#ab7d4b" rx="58.519" ry="101.029" transform="rotate(-89.84 2156.822 1092.811)"></ellipse></g><path fill="#785835" d="M2027.982,2705.954l0.113-1590.94c-0.053,18.768,12.051,37.587,36.419,52.154
								c49.551,29.621,131.045,30.444,182.022,1.839c25.908-14.538,38.948-33.879,39.003-53.275l-0.113,1590.94
								c-0.055,19.396-13.094,38.737-39.002,53.275c-50.978,28.605-132.472,27.782-182.023-1.839
								C2040.034,2743.541,2027.929,2724.722,2027.982,2705.954z"></path><path fill="#1a1a1a" d="M2041.641,1148.46c0.004-1.263,0.007-2.449,0.01-3.502
								c0.033-11.723,10.694-23.964,23.818-27.351c4.42,5.715,10.608,11.09,18.571,15.85c8.871,5.303,19.13,9.355,30.117,12.15
								c-5.751,7.626-10.439,23.303-10.472,35.026c-0.002,0.781-0.005,1.647-0.008,2.547
								c-0.028,9.898-0.074,1577.418-0.099,1586.003c-0.005,1.915,0.125,3.579,0.353,5.033c-14.401-3.773-27.858-9.132-39.531-16.11
								c-8.31-4.968-15.159-10.438-20.62-16.224c-1.419-2.359-2.245-5.166-2.236-8.375
								C2041.568,2725.195,2041.613,1158.432,2041.641,1148.46z"></path></g><g><g><g><g><g><g><path fill="#785835" d="M2059.355,1081.209c0.131-3.747,0.155-4.422,0.527-6.865
													c0.556-3.649,1.461-6.532,1.562-6.849c1.449-4.527,3.285-8.849,6.779-13.992c8.527-12.549,20.778-19.551,24.803-21.852
													c1.321-0.742,2.906-1.041,4.696-0.829c-16.93,9.5-25.451,22.138-25.486,34.812c-0.035,12.264,7.875,24.561,23.798,34.08
													c32.379,19.356,85.632,19.894,118.943,1.202c16.929-9.5,25.45-22.138,25.486-34.812
													c0.035-12.264-7.875-24.561-23.798-34.08c-32.379-19.356-85.632-19.894-118.943-1.202
													c-1.79-0.212-3.375,0.087-4.696,0.829l0,0c1.656-0.473,3.561-1.863,5.087-2.661c2.845-1.488,10.411-4.721,18.605-7.061
													c6.48-1.85,11.809-2.796,13.559-3.106c7.3-1.295,13.722-1.74,13.786-1.745c5.956-0.404,10.509-0.56,13.533-0.463
													c4.051,0.13,9.449,0.424,13.491,0.734c2.002,0.154,4.65,0.565,6.642,0.813c0.503,0.062,12.466,1.583,25.5,6.263
													c5.664,2.033,9.432,3.826,11.774,4.998c5.33,2.667,7.804,4.298,10.937,6.364c2.245,1.481,5.126,3.643,7.127,5.44
													c4.202,3.772,4.42,4.021,8.06,8.193c0.734,0.841,2.715,3.255,5.242,7.486c1.431,2.397,2.836,5.398,3.483,7.124
													c0.446,1.19,1.051,2.776,1.392,4c0.491,1.76,1.035,4.137,1.38,5.931c0.141,0.734,0.603,3.466,0.632,7.789
													c-0.041,14.608-9.862,29.176-29.376,40.125c-38.395,21.545-99.775,20.925-137.096-1.385
													C2068.432,1109.519,2059.315,1095.345,2059.355,1081.209z"></path><path fill="#916a40" d="M2234.047,1062.694c1.461,1.141,3.137,2.115,4.993,2.878
													c0.463,0.191,0.938,0.368,1.424,0.532c0.035-12.264-7.875-24.561-23.798-34.08
													c-32.379-19.356-85.632-19.894-118.943-1.202c-16.93,9.5-25.451,22.138-25.486,34.812l0,0l0,0l0,0l0,0
													c-0.035,12.264,7.875,24.561,23.798,34.08c32.379,19.356,85.632,19.894,118.943,1.202
													c16.929-9.5,25.45-22.138,25.486-34.812c-0.486-0.163-0.961-0.341-1.424-0.532
													C2237.184,1064.809,2235.508,1063.835,2234.047,1062.694z"></path><path fill="#1a1a1a" d="M2061.518,1153.708c-10.429-6.234-18.533-13.275-24.322-20.759
													c-0.077,0.02-0.152,0.049-0.229,0.069c-0.006-0.008-0.013-0.016-0.019-0.025l30.672-17.643l49.863,28.87l-16.548,25.392
													C2086.555,1165.953,2073.129,1160.649,2061.518,1153.708z"></path><path fill="#594129" d="M2059.323,1092.42l0.032-11.21c-0.04,14.135,9.077,28.309,27.43,39.281
													c37.321,22.31,98.7,22.93,137.096,1.385c19.513-10.95,29.335-25.517,29.376-40.125l-0.032,11.21
													c-0.042,14.608-9.863,29.176-29.376,40.125c-38.396,21.545-99.775,20.924-137.096-1.386
													C2068.4,1120.729,2059.283,1106.555,2059.323,1092.42z"></path><path fill="#785835" d="M2085.134,1050.061l0.187-66.056c-0.03,10.39,6.672,20.808,20.162,28.872
													c27.431,16.399,72.547,16.855,100.768,1.018c14.343-8.048,21.562-18.755,21.592-29.493l-0.187,66.056
													c-0.031,10.737-7.25,21.445-21.592,29.493c-28.221,15.836-73.337,15.38-100.768-1.018
													C2091.805,1070.869,2085.104,1060.451,2085.134,1050.061z"></path><path fill="#664b2d" d="M2243.887,992.449c-7.294,4.093-15.244,7.549-23.63,10.404
													c5.021-5.78,7.568-12.107,7.586-18.45c-0.064,2.443-1.417,5.12-4.135,8.183c-3.968,4.472-9.592,7.841-12.592,9.451
													c-6.894,3.702-12.601,5.69-19.048,7.536c-0.976,0.28-2.031,0.551-3.109,0.816c-21.266,3.235-43.703,3.168-64.921-0.185
													c-4.531-1.086-11.979-3.567-16.065-5.485c-1.243-0.583-2.914-1.336-4.128-1.976c-1.524-0.804-3.539-1.913-4.993-2.837
													c-4.119-2.614-5.893-4.236-7.608-5.805c-1.113-1.018-3.152-3.255-4.199-5.039c-1.208-2.06-1.659-3.384-1.723-5.057
													c-0.018,6.334,2.48,12.675,7.478,18.49c-9.241-3.203-17.931-7.139-25.784-11.834
													c-23.678-14.155-35.441-32.441-35.389-50.678c0.058,4.991,0.245,6.201,1.03,11.29c0.347,2.247,1.172,5.179,1.845,7.351
													c2.567,8.283,6.743,14.715,8.116,16.829c1.784,2.747,4.524,6.169,6.671,8.641c1.852,2.132,4.556,4.767,6.635,6.679
													c6.47,5.949,13.554,10.3,16.579,12.158c1.058,0.65,6.763,4.078,15.191,7.741c6.901,3,13.084,4.92,16.055,5.842
													c1.742,0.541,8.097,2.437,16.712,4.124c2.657,0.52,5.108,0.932,7.343,1.271c18.193,4.682,39.076,4.758,57.338,0.169
													c1.562-0.229,3.205-0.49,4.91-0.79c9.745-1.718,16.512-3.697,17.252-3.917c5.552-1.651,9.564-2.845,16.889-5.838
													c4.353-1.779,9.973-4.591,14.109-6.829c2.567-1.389,5.846-3.496,8.281-5.105c1.746-1.154,3.956-2.862,5.643-4.098
													c2.396-1.756,5.414-4.352,7.483-6.483c1.278-1.316,3.059-3.004,4.246-4.403c1.992-2.347,4.525-5.581,6.337-8.069
													c0.03-0.041,3.289-4.767,5.503-9.613c0.626-1.372,1.458-3.208,1.962-4.629c0.77-2.17,1.767-5.083,2.279-7.328
													c0.642-2.811,1.196-6.623,1.547-9.484c0.176-1.434,0.144-3.369,0.206-4.812
													C2281.733,959.528,2269.062,978.322,2243.887,992.449z"></path><g><path fill="#ab7d4b" d="M2088.453,841.244c38.878-21.816,101.03-21.188,138.82,1.403
														c37.79,22.59,36.908,58.589-1.97,80.405c-38.878,21.816-101.03,21.188-138.82-1.403
														C2048.692,899.059,2049.575,863.06,2088.453,841.244z"></path></g><path fill="#785835" d="M2031.626,942.462l0.11-38.727c-0.052,18.237,11.71,36.523,35.389,50.678
													c48.149,28.783,127.337,29.583,176.873,1.787c25.175-14.127,37.846-32.921,37.899-51.767l-0.11,38.726
													c-0.053,18.847-12.724,37.641-37.899,51.767c-49.535,27.796-128.724,26.996-176.873-1.787
													C2043.336,978.985,2031.574,960.698,2031.626,942.462z"></path><path fill="#916a40" d="M2031.736,903.735c0.123-2.882,0.377-6.728,0.791-9.583
													c0.322-2.225,0.97-5.169,1.656-7.31c0.917-2.859,2.253-6.649,3.545-9.36c0.963-2.02,2.42-5.073,5.503-9.613
													c1.729-2.546,4.26-5.798,6.336-8.069c2.508-2.743,6.123-6.15,8.913-8.605c2.385-2.1,5.838-4.581,8.459-6.379
													c2.407-1.651,5.751-3.651,8.281-5.105c3.401-1.908,8.076-1.548,13.231,1.533c-38.878,21.816-39.761,57.815-1.97,80.406
													c37.79,22.591,99.942,23.219,138.82,1.403c38.878-21.816,39.76-57.815,1.97-80.405
													c-37.79-22.591-99.942-23.219-138.82-1.403c-5.155-3.081-9.83-3.442-13.231-1.533c4.17-2.173,9.756-5.05,14.109-6.829
													c5.841-2.387,10.734-4.078,16.889-5.838c15.522-4.438,28.976-5.619,34.721-6.123c1.33-0.117,8.425-0.694,17.54-0.605
													c7.371,0.073,13.538,0.556,17.413,0.949c2.23,0.226,9.015,0.914,17.168,2.511c9,1.762,15.501,3.745,16.712,4.124
													c4.66,1.459,10.823,3.604,15.313,5.525c6.779,2.9,11.675,5.553,14.589,7.267c2.193,1.29,7.327,4.311,12.865,8.685
													c1.567,1.237,3.621,2.935,5.087,4.29c1.829,1.691,4.179,4.043,5.888,5.856c4.258,4.519,10.056,12.395,13.557,20.95
													c0.672,1.641,2.457,6.003,3.66,11.98c0.284,1.41,0.609,3.304,0.748,4.735c0.21,2.166,0.377,5.067,0.415,7.244
													c-0.054,18.847-12.724,37.641-37.899,51.767c-49.535,27.796-128.724,26.996-176.873-1.787
													C2043.446,940.258,2031.684,921.972,2031.736,903.735z"></path></g><g><defs><path id="e" d="M2088.453,841.244c38.878-21.816,101.03-21.188,138.82,1.403
														c37.79,22.59,36.908,58.589-1.97,80.405c-38.878,21.816-101.03,21.188-138.82-1.403
														C2048.692,899.059,2049.575,863.06,2088.453,841.244z"></path></defs><clipPath id="f"><use overflow="visible" xlink:href="#e"></use></clipPath><rect width="378.767" height="15.627" x="1950.605" y="847.126" fill="#292929" clip-path="url(#f)"></rect><rect width="378.768" height="46.137" x="1958.791" y="901.448" fill="#292929" clip-path="url(#f)"></rect></g><path fill="#1a1a1a" d="M2255.551,918.79c3.843,7.849-6.162,20.641-22.351,28.57
												c-16.189,7.929-32.429,7.998-36.272,0.148c-3.843-7.849,12.073-8.578,28.263-16.507
												C2241.38,923.073,2251.708,910.941,2255.551,918.79z"></path><g><g><path fill="#1a1a1a" d="M2117.49,1144.098c-11.219-2.853-21.693-6.99-30.75-12.405
														c-8.13-4.86-14.448-10.348-18.961-16.183c0.001-0.42,0.024-8.401,0.032-11.198c0.02-6.848,4.67-14.208,11.774-18.636
														c3.914,5.061,9.395,9.823,16.447,14.038c7.857,4.697,16.943,8.286,26.674,10.76
														c-3.117,6.721-5.165,15.578-5.185,22.426C2117.514,1135.697,2117.491,1143.678,2117.49,1144.098L2117.49,1144.098z"></path></g><g><path fill="#1a1a1a" d="M2122.707,1110.474c-9.731-2.475-18.818-6.063-26.674-10.76
														c-7.052-4.216-12.533-8.977-16.447-14.038c7.089-4.425,11.74-11.785,11.76-18.633
														c3.317,4.289,7.961,8.323,13.938,11.896c6.658,3.98,14.357,7.021,22.603,9.118
														C2127.866,1094.905,2125.818,1103.762,2122.707,1110.474L2122.707,1110.474z"></path></g><g><path fill="#1a1a1a" d="M2091.532 1000.987c.251.325.562.637.828.958.151.183.283.369.438.55-.429-.149-.842-.32-1.269-.473C2091.53 1001.677 2091.531 1001.332 2091.532 1000.987zM2103.747 1016.515c1.743.541 8.097 2.437 16.712 4.124 2.619.513 5.033.919 7.241 1.255.126.033.245.075.371.107-.047 16.517-.14 49.539-.187 66.056-8.247-2.097-15.946-5.138-22.603-9.119-5.976-3.572-10.62-7.606-13.938-11.896.052-18.266.104-36.53.155-54.796C2096.803 1014.351 2101.338 1015.767 2103.747 1016.515z"></path></g><path fill="#1a1a1a" d="M2053.863,988.828c-0.274-0.265-0.549-0.534-0.826-0.806
													c-2.133-2.251-4.708-5.129-6.745-7.55c-0.238-0.301-0.469-0.592-0.704-0.896c-1.932-2.639-3.045-5.95-3.034-9.791
													c0.028-9.682,0.082-29.045,0.11-38.726c0.033-11.675,10.273-23.824,23.154-27.828
													c4.625,6.665,11.497,12.938,20.665,18.418c8.784,5.251,18.916,9.263,29.734,12.135c-5.288,8.403-9.397,23-9.429,34.152
													c-0.028,9.682-0.083,29.045-0.11,38.726c-0.02,7.023,1.582,11.124,4.088,11.8c-0.055-0.014-0.11-0.028-0.165-0.042
													l-6.853-1.905l-0.001,0c-0.002,0-0.005-0.001-0.007-0.002c-4.444-1.469-7.022-2.322-8.974-3.012
													c-2.188-0.806-4.581-1.744-7.074-2.828c-0.01-0.004-0.02-0.009-0.03-0.013c-3.985-1.854-6.349-2.956-8.219-3.884
													c-1.87-0.957-3.371-1.78-4.54-2.441c-0.699-0.402-1.464-0.849-2.36-1.377c-0.01-0.006-0.033-0.02-0.042-0.026
													c-0.01-0.006-0.023-0.014-0.033-0.02C2065.059,998.17,2061.214,995.69,2053.863,988.828z"></path></g></g></g></g></g></g></g></g></g></g></g></switch></svg>