<svg width="140" height="140" viewBox="0 0 140 140" fill="none" xmlns="http://www.w3.org/2000/svg">
<g clip-path="url(#clip0_1075_259)">
<g clip-path="url(#clip1_1075_259)">
<path d="M64.5933 91.4934C60.1603 92.5987 56.1545 94.9937 53.0826 98.3755C50.0108 101.757 48.0107 105.974 47.3354 110.493C46.6601 115.011 47.3399 119.629 49.2888 123.761C51.2377 127.893 54.3681 131.355 58.2843 133.708C62.2005 136.061 66.7265 137.2 71.29 136.981C75.8535 136.761 80.2495 135.194 83.9221 132.476C87.5947 129.759 90.379 126.013 91.9228 121.713C93.4667 117.413 93.7008 112.752 92.5955 108.319C91.1071 102.378 87.323 97.2703 82.0734 94.116C76.8238 90.9617 70.5374 90.0186 64.5933 91.4934ZM75.2379 134.186C71.227 135.186 67.0097 134.975 63.1192 133.578C59.2287 132.181 55.8399 129.662 53.3811 126.339C50.9223 123.016 49.5041 119.039 49.3057 114.91C49.1074 110.781 50.1379 106.686 52.2669 103.143C54.3959 99.5997 57.5277 96.7674 61.2664 95.0041C65.0051 93.2408 69.1827 92.6258 73.2709 93.2368C77.3591 93.8478 81.1744 95.6573 84.2341 98.4367C87.2939 101.216 89.4608 104.84 90.4609 108.851C91.7951 114.229 90.9418 119.917 88.0879 124.666C85.234 129.416 80.6128 132.84 75.2379 134.186Z" fill="#5831C8"/>
<path d="M59.5346 101.296C59.6454 101.203 59.7367 101.088 59.8033 100.96C59.8699 100.831 59.9105 100.691 59.9229 100.547C59.9353 100.402 59.9191 100.257 59.8753 100.119C59.8315 99.9811 59.761 99.8531 59.6677 99.7424C59.5744 99.6316 59.4603 99.5403 59.3317 99.4737C59.2032 99.4071 59.0628 99.3665 58.9185 99.3541C58.7743 99.3418 58.629 99.3579 58.491 99.4017C58.353 99.4455 58.225 99.516 58.1143 99.6093C55.0026 102.249 52.8316 105.827 51.9274 109.806C51.8634 110.091 51.9151 110.389 52.0709 110.635C52.2267 110.882 52.474 111.056 52.7584 111.121C52.9252 111.16 53.0991 111.159 53.2653 111.117C53.4666 111.069 53.6505 110.966 53.7959 110.819C53.9413 110.673 54.0424 110.488 54.0875 110.286C54.8848 106.78 56.7958 103.626 59.5346 101.296ZM74.4999 102.126L74.78 98.8392C74.8046 98.5484 74.7126 98.2596 74.5244 98.0366C74.3361 97.8135 74.0669 97.6744 73.776 97.6498C73.4852 97.6252 73.1964 97.7171 72.9734 97.9054C72.7503 98.0937 72.6112 98.3629 72.5866 98.6538L72.3001 101.943L70.1003 101.759L70.3782 98.472C70.3947 98.3259 70.3817 98.178 70.34 98.0371C70.2983 97.8961 70.2288 97.7649 70.1356 97.6513C70.0424 97.5376 69.9273 97.4438 69.7972 97.3754C69.6671 97.3069 69.5246 97.2653 69.3782 97.2528C69.2317 97.2404 69.0842 97.2575 68.9444 97.303C68.8047 97.3485 68.6755 97.4216 68.5644 97.5179C68.4534 97.6142 68.3627 97.7318 68.2979 97.8637C68.2331 97.9957 68.1953 98.1392 68.1869 98.286L67.9154 101.571L64.6287 101.293L62.4337 101.101C62.2876 101.085 62.1397 101.098 61.9988 101.139C61.8578 101.181 61.7266 101.251 61.613 101.344C61.4993 101.437 61.4055 101.552 61.3371 101.682C61.2686 101.812 61.227 101.955 61.2145 102.101C61.2021 102.248 61.2191 102.395 61.2647 102.535C61.3102 102.675 61.3833 102.804 61.4796 102.915C61.5759 103.026 61.6935 103.117 61.8254 103.182C61.9574 103.246 62.1009 103.284 62.2477 103.293L63.3436 103.387L62.5098 113.256L61.6728 123.121L60.5774 123.029C60.4313 123.013 60.2834 123.026 60.1425 123.067C60.0015 123.109 59.8703 123.178 59.7566 123.272C59.643 123.365 59.5492 123.48 59.4807 123.61C59.4123 123.74 59.3706 123.883 59.3582 124.029C59.3458 124.176 59.3628 124.323 59.4084 124.463C59.4539 124.603 59.527 124.732 59.6233 124.843C59.7196 124.954 59.8372 125.045 59.9691 125.109C60.101 125.174 60.2446 125.212 60.3914 125.22L62.5827 125.406L65.872 125.686L65.5919 128.973C65.5797 129.117 65.5959 129.262 65.6398 129.4C65.6836 129.538 65.7541 129.665 65.8474 129.776C65.9406 129.886 66.0547 129.977 66.1832 130.044C66.3116 130.11 66.4519 130.15 66.5959 130.163C66.716 130.173 66.8369 130.163 66.954 130.135C67.1772 130.079 67.3774 129.955 67.5265 129.78C67.6757 129.605 67.7662 129.388 67.7854 129.159L68.0633 125.872L70.2546 126.058L69.9766 129.345C69.9517 129.635 70.0433 129.924 70.2311 130.147C70.419 130.37 70.6878 130.51 70.9785 130.535C71.0993 130.545 71.2209 130.535 71.3387 130.506C71.5614 130.45 71.7611 130.326 71.9098 130.151C72.0585 129.976 72.1488 129.759 72.1679 129.531L72.448 126.243C73.8607 126.36 75.2733 126.018 76.4768 125.269C77.6803 124.52 78.6107 123.404 79.1304 122.085C79.65 120.766 79.7312 119.315 79.362 117.947C78.9929 116.578 78.1929 115.365 77.0805 114.486C78.3292 113.812 79.3267 112.753 79.9247 111.466C80.5226 110.179 80.6889 108.733 80.3989 107.344C80.1089 105.955 79.378 104.697 78.3151 103.757C77.2522 102.816 75.914 102.245 74.4999 102.126ZM77.3918 120.045C77.2929 121.208 76.7361 122.284 75.8441 123.036C74.9521 123.788 73.7977 124.155 72.6351 124.056L67.1534 123.587L63.8641 123.307L64.6075 114.54L73.377 115.283C73.9535 115.331 74.5148 115.493 75.0288 115.759C75.5428 116.024 75.9993 116.389 76.3722 116.831C76.7451 117.274 77.0271 117.785 77.2021 118.337C77.3771 118.888 77.4415 119.469 77.3918 120.045ZM78.3208 109.085C78.2218 110.247 77.6651 111.323 76.7731 112.075C75.881 112.827 74.7267 113.194 73.564 113.096L64.8037 112.344L65.5472 103.576L73.21 104.228L74.3011 104.321C74.8775 104.369 75.4387 104.53 75.9526 104.796C76.4666 105.061 76.9232 105.425 77.2964 105.867C77.6696 106.308 77.952 106.819 78.1275 107.371C78.303 107.922 78.3681 108.502 78.3192 109.078L78.3208 109.085Z" fill="#5831C8"/>
</g>
<path d="M126.005 57.5477C126.123 58.0789 126.446 58.5418 126.904 58.8346C127.363 59.1274 127.919 59.2261 128.45 59.109C128.981 58.9919 129.444 58.6685 129.737 58.2101C130.03 57.7516 130.128 57.1957 130.011 56.6645L128.004 57.0801L130.009 56.6535C129.958 56.3849 129.854 56.1292 129.704 55.9012C129.553 55.6733 129.358 55.4778 129.131 55.3262C128.903 55.1746 128.648 55.07 128.38 55.0185C128.111 54.967 127.835 54.9697 127.568 55.0264C127.3 55.0831 127.047 55.1926 126.823 55.3485C126.598 55.5045 126.407 55.7038 126.261 55.9346C126.115 56.1654 126.016 56.4231 125.971 56.6926C125.925 56.9621 125.934 57.2379 125.997 57.5039L126.005 57.5477ZM10.6641 119.448C10.1202 119.448 9.59854 119.665 9.21394 120.049C8.82934 120.434 8.61328 120.955 8.61328 121.499V121.527C8.61364 121.795 8.66703 122.061 8.77038 122.309C8.87374 122.557 9.02503 122.782 9.21557 122.971C9.40611 123.16 9.63215 123.31 9.88072 123.412C10.1293 123.514 10.3955 123.565 10.6641 123.564C11.1968 123.544 11.7012 123.319 12.0712 122.935C12.4413 122.551 12.648 122.039 12.648 121.506C12.648 120.973 12.4413 120.461 12.0712 120.077C11.7012 119.693 11.1968 119.468 10.6641 119.448ZM113.143 28.9215L114.636 27.516C114.263 27.1197 113.748 26.8877 113.204 26.871C112.661 26.8543 112.132 27.0544 111.736 27.4271C111.34 27.7999 111.108 28.3148 111.091 28.8586C111.074 29.4025 111.275 29.9306 111.647 30.327L111.68 30.3598C111.866 30.5539 112.088 30.7096 112.334 30.8179C112.58 30.9261 112.845 30.9849 113.114 30.9907C113.382 30.9965 113.649 30.9494 113.9 30.8519C114.15 30.7544 114.379 30.6086 114.573 30.4227C114.965 30.0469 115.193 29.5312 115.206 28.9881C115.22 28.445 115.018 27.9188 114.644 27.5242L113.143 28.9215ZM129.336 119.429C128.792 119.429 128.27 119.645 127.886 120.03C127.501 120.415 127.285 120.936 127.285 121.48V121.507C127.285 122.051 127.501 122.573 127.886 122.958C128.27 123.342 128.792 123.558 129.336 123.558C129.88 123.558 130.401 123.342 130.786 122.958C131.171 122.573 131.387 122.051 131.387 121.507V121.48C131.389 121.21 131.337 120.941 131.235 120.691C131.132 120.441 130.982 120.213 130.791 120.021C130.6 119.829 130.374 119.677 130.124 119.573C129.874 119.469 129.606 119.416 129.336 119.416V119.429ZM86.4664 10.4727H86.4309C86.1721 10.402 85.902 10.3831 85.6359 10.4172C85.3699 10.4513 85.1132 10.5377 84.8807 10.6714C84.6482 10.805 84.4444 10.9834 84.281 11.1961C84.1177 11.4088 83.998 11.6518 83.9289 11.9109C83.7872 12.4367 83.8591 12.9971 84.1291 13.4699C84.3991 13.9428 84.8451 14.2896 85.3699 14.4348C85.5482 14.483 85.7321 14.5079 85.9168 14.5086C86.4132 14.509 86.8928 14.3293 87.2668 14.0029C87.6408 13.6765 87.8837 13.2256 87.9505 12.7337C88.0173 12.2419 87.9034 11.7425 87.63 11.3282C87.3566 10.9139 86.9422 10.6128 86.4637 10.4809L86.4664 10.4727ZM101.719 17.0734C101.256 16.7877 100.698 16.6976 100.169 16.823C99.6392 16.9484 99.1812 17.279 98.8955 17.742C98.6098 18.205 98.5197 18.7626 98.6451 19.2921C98.7705 19.8215 99.101 20.2795 99.5641 20.5652L99.6434 20.6117C99.8757 20.748 100.133 20.8372 100.399 20.8742C100.666 20.9112 100.938 20.8952 101.198 20.8273C101.459 20.7594 101.704 20.6408 101.918 20.4783C102.133 20.3158 102.314 20.1126 102.45 19.8803C102.586 19.6479 102.676 19.3911 102.713 19.1243C102.75 18.8575 102.734 18.586 102.666 18.3254C102.598 18.0647 102.479 17.82 102.317 17.6052C102.154 17.3904 101.951 17.2097 101.719 17.0734ZM129.336 87.1719C128.792 87.1719 128.27 87.3879 127.886 87.7725C127.501 88.1571 127.285 88.6787 127.285 89.2226V89.25C127.285 89.7939 127.501 90.3155 127.886 90.7001C128.27 91.0847 128.792 91.3008 129.336 91.3008C129.88 91.3008 130.401 91.0847 130.786 90.7001C131.171 90.3155 131.387 89.7939 131.387 89.25V89.2226C131.387 88.6787 131.171 88.1571 130.786 87.7725C130.401 87.3879 129.88 87.1719 129.336 87.1719ZM122.514 44.059C122.865 44.0588 123.211 43.9681 123.518 43.7957C123.824 43.6233 124.081 43.375 124.264 43.0746C124.447 42.7742 124.55 42.4318 124.562 42.0803C124.574 41.7288 124.496 41.3801 124.335 41.0676C124.325 41.0517 124.317 41.0353 124.31 41.0184C124.136 40.7016 123.88 40.4366 123.57 40.2503C123.26 40.064 122.906 39.9631 122.545 39.9576C122.183 39.9522 121.826 40.0426 121.511 40.2195C121.196 40.3964 120.932 40.6536 120.748 40.965C120.564 41.2764 120.466 41.631 120.463 41.9926C120.461 42.3543 120.554 42.7103 120.733 43.0245C120.912 43.3386 121.171 43.5998 121.484 43.7815C121.797 43.9632 122.152 44.0589 122.514 44.059ZM70 0.0273438C31.6285 0.0273438 0.410156 31.2457 0.410156 69.6172V137.908C0.410156 138.452 0.62622 138.974 1.01082 139.358C1.39541 139.743 1.91704 139.959 2.46094 139.959H121.037C121.192 139.977 121.348 139.977 121.502 139.959H137.539C138.083 139.959 138.605 139.743 138.989 139.358C139.374 138.974 139.59 138.452 139.59 137.908V69.6172C139.59 31.2457 108.371 0.0273438 70 0.0273438ZM119.219 135.857H21.0547V74.6074H37.4609V79.8027H35.0602C34.7203 79.8016 34.3856 79.885 34.0859 80.0453C33.7863 80.2056 33.5312 80.4379 33.3436 80.7212C33.1559 81.0046 33.0417 81.3301 33.011 81.6685C32.9804 82.007 33.0343 82.3477 33.168 82.6601L37.6824 93.1902C37.84 93.5594 38.1025 93.8742 38.4375 94.0954C38.7724 94.3165 39.165 94.4344 39.5664 94.4344C39.9693 94.4329 40.3628 94.3129 40.6978 94.0892C41.0329 93.8655 41.2946 93.5481 41.4504 93.1766L45.8555 82.6848C45.9852 82.3736 46.0363 82.0352 46.0044 81.6996C45.9724 81.364 45.8582 81.0414 45.672 80.7604C45.4858 80.4793 45.2333 80.2484 44.9367 80.0881C44.6401 79.9277 44.3086 79.8429 43.9715 79.841H41.5543V74.6074H57.7773V79.8027H55.3766C55.0371 79.8028 54.7029 79.8871 54.4041 80.0481C54.1052 80.2092 53.851 80.4419 53.6643 80.7254C53.4775 81.0089 53.3641 81.3343 53.3341 81.6725C53.3041 82.0107 53.3586 82.351 53.4926 82.6629L58.0098 93.193C58.168 93.5614 58.4308 93.8754 58.7657 94.096C59.1005 94.3167 59.4927 94.4343 59.8937 94.4344C60.2966 94.4329 60.6901 94.3129 61.0252 94.0892C61.3602 93.8655 61.622 93.5481 61.7777 93.1766L66.1801 82.6848C66.3098 82.3736 66.361 82.0352 66.329 81.6996C66.297 81.364 66.1828 81.0414 65.9966 80.7604C65.8104 80.4793 65.5579 80.2484 65.2613 80.0881C64.9647 79.9277 64.6332 79.8429 64.2961 79.841H61.8789V74.6074H78.1047V79.8027H75.7039C75.3658 79.8045 75.0334 79.8899 74.7363 80.0512C74.4392 80.2125 74.1865 80.4448 74.0009 80.7273C73.8152 81.0099 73.7023 81.3339 73.6721 81.6707C73.642 82.0074 73.6956 82.3464 73.8281 82.6574L78.3426 93.1875C78.5001 93.5567 78.7627 93.8714 79.0977 94.0926C79.4326 94.3138 79.8252 94.4317 80.2266 94.4316C80.6294 94.4302 81.0229 94.3102 81.358 94.0865C81.693 93.8628 81.9548 93.5453 82.1105 93.1738L86.5156 82.682C86.6454 82.3708 86.6965 82.0325 86.6645 81.6969C86.6325 81.3613 86.5184 81.0387 86.3322 80.7576C86.146 80.4766 85.8934 80.2457 85.5969 80.0853C85.3003 79.925 84.9688 79.8401 84.6316 79.8383H82.2145V74.6074H98.4375V79.8027H96.0367C95.6969 79.8016 95.3621 79.885 95.0625 80.0453C94.7629 80.2056 94.5078 80.4379 94.3201 80.7212C94.1325 81.0046 94.0182 81.3301 93.9876 81.6685C93.9569 82.007 94.0109 82.3477 94.1445 82.6601L98.659 93.1902C98.8165 93.5594 99.0791 93.8742 99.4141 94.0954C99.749 94.3165 100.142 94.4344 100.543 94.4344C100.946 94.4329 101.339 94.3129 101.674 94.0892C102.009 93.8655 102.271 93.5481 102.427 93.1766L106.832 82.6848C106.962 82.3736 107.013 82.0352 106.981 81.6996C106.949 81.364 106.835 81.0414 106.649 80.7604C106.462 80.4793 106.21 80.2484 105.913 80.0881C105.617 79.9277 105.285 79.8429 104.948 79.841H102.531V74.6074H119.211L119.219 135.857ZM37.4609 41.248V48.084H25.4926C26.5844 45.707 27.8645 43.421 29.3207 41.248H37.4609ZM32.3777 37.1465C33.9404 35.2676 35.6394 33.5065 37.4609 31.8773V37.1465H32.3777ZM37.4609 52.1855V59.2949H21.9188C22.3748 56.8799 23.0147 54.5032 23.8328 52.1855H37.4609ZM37.4609 63.3965V70.5059H21.0547V68.4688C21.0601 66.7745 21.1514 65.0815 21.3281 63.3965H37.4609ZM38.1691 83.9043H40.9035L39.5582 87.109L38.1691 83.9043ZM57.7855 30.0371V37.1465H41.5625V30.0371H57.7855ZM45.6641 25.9355C49.4625 23.74 53.5398 22.067 57.7855 20.9617V25.9355H45.6641ZM57.7855 41.248V48.084H41.5625V41.248H57.7855ZM57.7855 52.1855V59.2949H41.5625V52.1855H57.7855ZM57.7855 63.3965V70.5059H41.5625V63.3965H57.7855ZM58.4937 83.9043H59.4891C59.6037 83.9248 59.7199 83.9358 59.8363 83.9371C59.9462 83.9364 60.0559 83.9272 60.1645 83.9098H61.2172L59.8828 87.1309L58.4937 83.9043ZM78.1129 30.0371V37.1465H61.8871V30.0371H78.1129ZM61.8871 25.9355V20.084C67.2558 19.1702 72.739 19.1545 78.1129 20.0375V25.9355H61.8871ZM78.1129 41.248V48.084H61.8871V41.248H78.1129ZM78.1129 52.1855V59.2949H61.8871V52.1855H78.1129ZM78.1129 63.3965V70.5059H61.8871V63.3965H78.1129ZM78.8211 83.9043H81.5555L80.2102 87.109L78.8211 83.9043ZM98.4375 30.0371V37.1465H82.2145V30.0371H98.4375ZM82.2145 25.9355V20.8934C86.5581 21.9967 90.729 23.6934 94.6094 25.9355H82.2145ZM98.4375 41.248V48.084H82.2145V41.248H98.4375ZM98.4375 52.1855V59.2949H82.2145V52.1855H98.4375ZM98.4375 63.3965V70.5059H82.2145V63.3965H98.4375ZM99.1457 83.9043H101.88L100.535 87.109L99.1457 83.9043ZM119.219 70.5059H102.539V63.3965H118.959C119.131 65.0818 119.218 66.7747 119.219 68.4688V70.5059ZM110.958 41.248C112.414 43.421 113.695 45.707 114.786 48.084H102.539V41.248H110.958ZM102.539 37.1465V31.6367C104.465 33.3317 106.256 35.1738 107.896 37.1465H102.539ZM116.438 52.1855C117.256 54.5032 117.896 56.8799 118.352 59.2949H102.539V52.1855H116.438ZM135.488 135.857H123.32V68.4688C123.32 39.1426 99.4629 15.2852 70.1367 15.2852C40.8105 15.2852 16.9531 39.1426 16.9531 68.4688V135.857H4.51172V69.6172C4.51172 33.507 33.8898 4.12891 70 4.12891C106.11 4.12891 135.488 33.507 135.488 69.6172V135.857ZM127.285 73.1281C127.285 73.672 127.501 74.1936 127.886 74.5782C128.27 74.9628 128.792 75.1789 129.336 75.1789C129.88 75.1789 130.401 74.9628 130.786 74.5782C131.171 74.1936 131.387 73.672 131.387 73.1281V73.1008C131.386 72.8322 131.333 72.5664 131.23 72.3185C131.126 72.0706 130.975 71.8456 130.784 71.6563C130.594 71.467 130.368 71.3172 130.119 71.2155C129.871 71.1138 129.605 71.0622 129.336 71.0637C128.791 71.0673 128.269 71.2864 127.885 71.6731C127.501 72.0599 127.285 72.583 127.285 73.1281ZM129.336 103.294C128.792 103.294 128.27 103.51 127.886 103.894C127.501 104.279 127.285 104.801 127.285 105.345V105.372C127.285 105.916 127.501 106.437 127.886 106.822C128.27 107.207 128.792 107.423 129.336 107.423C129.88 107.423 130.401 107.207 130.786 106.822C131.171 106.437 131.387 105.916 131.387 105.372V105.345C131.387 104.801 131.171 104.279 130.786 103.894C130.401 103.51 129.88 103.294 129.336 103.294ZM10.6641 87.2047C10.1202 87.2047 9.59854 87.4208 9.21394 87.8053C8.82934 88.1899 8.61328 88.7116 8.61328 89.2555V89.2828C8.61256 89.5521 8.66514 89.8188 8.76802 90.0676C8.87089 90.3165 9.02201 90.5425 9.21266 90.7326C9.40331 90.9228 9.62971 91.0733 9.87882 91.1755C10.1279 91.2777 10.3948 91.3296 10.6641 91.3281C11.1968 91.3087 11.7012 91.0834 12.0712 90.6997C12.4413 90.3159 12.648 89.8036 12.648 89.2705C12.648 88.7374 12.4413 88.2251 12.0712 87.8414C11.7012 87.4576 11.1968 87.2323 10.6641 87.2129V87.2047ZM10.6641 71.0719C10.1202 71.0719 9.59854 71.2879 9.21394 71.6725C8.82934 72.0571 8.61328 72.5788 8.61328 73.1227V73.15C8.61328 73.6939 8.82934 74.2155 9.21394 74.6001C9.59854 74.9847 10.1202 75.2008 10.6641 75.2008C11.208 75.2008 11.7296 74.9847 12.1142 74.6001C12.4988 74.2155 12.7148 73.6939 12.7148 73.15V73.1227C12.7091 72.5826 12.4905 72.0665 12.1065 71.6867C11.7225 71.3068 11.2042 71.0937 10.6641 71.0938V71.0719ZM10.6641 103.316C10.1202 103.316 9.59854 103.532 9.21394 103.916C8.82934 104.301 8.61328 104.823 8.61328 105.366V105.394C8.61364 105.662 8.66703 105.928 8.77038 106.176C8.87374 106.424 9.02503 106.649 9.21557 106.838C9.40611 107.028 9.63215 107.177 9.88072 107.279C10.1293 107.381 10.3955 107.432 10.6641 107.431C11.1968 107.411 11.7012 107.186 12.0712 106.802C12.4413 106.419 12.648 105.906 12.648 105.373C12.648 104.84 12.4413 104.328 12.0712 103.944C11.7012 103.56 11.1968 103.335 10.6641 103.316ZM12.4332 55.0977C12.1702 55.0393 11.8982 55.0333 11.6328 55.0802C11.3675 55.1271 11.114 55.226 10.8869 55.371C10.6598 55.516 10.4636 55.7045 10.3094 55.9255C10.1553 56.1465 10.0463 56.3958 9.98867 56.659V56.7C9.87769 57.2293 9.98118 57.7811 10.2764 58.2342C10.5717 58.6873 11.0346 59.0049 11.5637 59.1172C11.7057 59.1474 11.8505 59.1629 11.9957 59.1637C12.5008 59.161 12.9873 58.9727 13.3626 58.6347C13.7379 58.2967 13.9759 57.8325 14.0312 57.3304C14.0866 56.8284 13.9555 56.3235 13.6629 55.9118C13.3702 55.5001 12.9365 55.2104 12.4441 55.0977H12.4332ZM25.334 27.5488L26.8215 28.9598L25.3258 27.5543C24.953 27.9506 24.753 28.4788 24.7696 29.0226C24.7779 29.2919 24.8391 29.5569 24.9498 29.8025C25.0604 30.0481 25.2184 30.2695 25.4146 30.4541C25.6109 30.6387 25.8416 30.7828 26.0935 30.8782C26.3454 30.9736 26.6137 31.0185 26.883 31.0102C27.4268 30.9936 27.9417 30.7616 28.3145 30.3652L28.35 30.3297C28.6872 29.926 28.8563 29.4081 28.8225 28.8832C28.7886 28.3582 28.5544 27.8664 28.1682 27.5093C27.7819 27.1522 27.2732 26.9572 26.7473 26.9645C26.2213 26.9719 25.7183 27.1811 25.3422 27.5488H25.334ZM18.4352 40.1953C17.9532 39.9454 17.392 39.896 16.8737 40.0578C16.3555 40.2196 15.9221 40.5796 15.668 41.0594L17.4754 42.0301L15.6652 41.0648C15.5309 41.3029 15.4456 41.5655 15.4142 41.837C15.3828 42.1086 15.406 42.3836 15.4825 42.6461C15.5589 42.9085 15.6871 43.153 15.8594 43.3652C16.0317 43.5774 16.2447 43.7531 16.4859 43.8818C16.7271 44.0104 16.9915 44.0896 17.2637 44.1146C17.5359 44.1397 17.8104 44.11 18.071 44.0274C18.3316 43.9448 18.573 43.811 18.7811 43.6337C18.9892 43.4565 19.1598 43.2394 19.2828 42.9953L19.3102 42.9461C19.5578 42.4651 19.6047 41.9056 19.4407 41.39C19.2767 40.8745 18.9152 40.4449 18.4352 40.1953ZM38.3113 17.057L38.2293 17.1063C37.7706 17.3962 37.4446 17.8552 37.3222 18.3839C37.1998 18.9126 37.2907 19.4682 37.5753 19.9303C37.8599 20.3923 38.3151 20.7235 38.8423 20.8521C39.3696 20.9807 39.9262 20.8962 40.3915 20.617C40.8568 20.3378 41.1933 19.8864 41.328 19.3607C41.4627 18.835 41.3846 18.2774 41.1109 17.8089C40.8371 17.3404 40.3896 16.9987 39.8655 16.8579C39.3415 16.7172 38.783 16.7887 38.3113 17.057ZM53.5062 10.4781C53.2465 10.5499 53.0033 10.6722 52.7908 10.838C52.5783 11.0038 52.4005 11.2098 52.2675 11.4443C51.9991 11.9178 51.9298 12.4786 52.0748 13.0033C52.2198 13.528 52.5674 13.9736 53.0409 14.242C53.5145 14.5105 54.0753 14.5798 54.6 14.4348L54.6902 14.4074C55.2075 14.2483 55.6409 13.8912 55.896 13.4139C56.1511 12.9366 56.2072 12.3778 56.0521 11.8594C55.8969 11.3409 55.5431 10.9047 55.0678 10.646C54.5924 10.3873 54.0341 10.3269 53.5145 10.4781H53.5062ZM70 8.23047H69.9727C69.4288 8.23047 68.9071 8.44653 68.5225 8.83113C68.1379 9.21572 67.9219 9.73735 67.9219 10.2812C67.9219 10.8252 68.1379 11.3468 68.5225 11.7314C68.9071 12.116 69.4288 12.332 69.9727 12.332H70C70.5439 12.332 71.0655 12.116 71.4501 11.7314C71.8347 11.3468 72.0508 10.8252 72.0508 10.2812C72.0508 9.73735 71.8347 9.21572 71.4501 8.83113C71.0655 8.44653 70.5439 8.23047 70 8.23047Z" fill="#5831C8"/>
</g>
<defs>
<clipPath id="clip0_1075_259">
<rect width="140" height="140" fill="white"/>
</clipPath>
<clipPath id="clip1_1075_259">
<rect width="55" height="55" fill="white" transform="translate(36.8457 93.877) rotate(-14)"/>
</clipPath>
</defs>
</svg>
