<svg width="40" height="40" viewBox="0 0 40 40" fill="none" xmlns="http://www.w3.org/2000/svg">
<path d="M9.00625 29.65H18.0188C17.9208 29.8504 17.8574 30.066 17.8313 30.2875H24.7125C25.7326 30.2849 26.7389 30.5226 27.65 30.9813C29.2538 30.0112 30.5957 28.6633 31.5588 27.0553C32.5219 25.4473 33.0767 23.628 33.175 21.7563C33.6263 15.4781 28.2844 9.6625 22.0125 9.5625C22.5321 10.1805 22.8165 10.9624 22.8154 11.7699C22.8143 12.5774 22.5276 13.3584 22.0062 13.975C23.7449 14.1089 25.3797 14.8549 26.6202 16.0805C27.8607 17.3061 28.6264 18.9318 28.7813 20.6688C28.842 21.6562 28.7009 22.6458 28.3666 23.5769C28.0324 24.5081 27.5119 25.3615 26.837 26.0849C26.1621 26.8083 25.347 27.3867 24.4412 27.7847C23.5354 28.1828 22.5581 28.3921 21.5687 28.4H9.00625C8.84049 28.4 8.68152 28.4658 8.56431 28.5831C8.4471 28.7003 8.38125 28.8592 8.38125 29.025C8.38125 29.1908 8.4471 29.3497 8.56431 29.4669C8.68152 29.5842 8.84049 29.65 9.00625 29.65ZM27.9875 32.675C27.0559 31.9364 25.9014 31.5354 24.7125 31.5375H12.15C10.7364 31.5441 9.38264 32.1085 8.38308 33.1081C7.38353 34.1076 6.81907 35.4614 6.8125 36.875C6.81299 37.0406 6.879 37.1993 6.9961 37.3164C7.11321 37.4335 7.27189 37.4995 7.4375 37.5H29.425C29.5906 37.4995 29.7493 37.4335 29.8664 37.3164C29.9835 37.1993 30.0495 37.0406 30.05 36.875C30.0552 36.063 29.8715 35.2609 29.5136 34.532C29.1556 33.8031 28.6332 33.1674 27.9875 32.675Z" fill="url(#paint0_linear_74_63)"/>
<path d="M12.3813 24.1375H15.0563C15.3879 24.1375 15.7058 24.0058 15.9402 23.7714C16.1747 23.537 16.3063 23.219 16.3063 22.8875V21.4625H11.1313V22.8875C11.1313 23.219 11.263 23.537 11.4975 23.7714C11.7319 24.0058 12.0498 24.1375 12.3813 24.1375ZM9.63135 20.2125H17.8063C18.1379 20.2125 18.4558 20.0808 18.6902 19.8464C18.9247 19.612 19.0563 19.294 19.0563 18.9625V13.95C19.3596 13.9922 19.6683 13.9709 19.9629 13.8874C20.2574 13.8039 20.5314 13.66 20.7674 13.465C21.0034 13.27 21.1963 13.028 21.3337 12.7544C21.4712 12.4808 21.5503 12.1816 21.5659 11.8759C21.5816 11.5701 21.5335 11.2644 21.4247 10.9782C21.3159 10.6921 21.1488 10.4316 20.9339 10.2135C20.7191 9.99537 20.4612 9.82429 20.1767 9.71114C19.8922 9.598 19.5873 9.54525 19.2813 9.55625H19.0563V7.675C19.0554 7.34378 18.9233 7.02642 18.6891 6.79221C18.4549 6.558 18.1376 6.42599 17.8063 6.425H14.8813C14.7156 6.425 14.5566 6.35915 14.4394 6.24194C14.3222 6.12473 14.2563 5.96576 14.2563 5.8C14.2563 5.63424 14.3222 5.47527 14.4394 5.35806C14.5566 5.24085 14.7156 5.175 14.8813 5.175H16.3063V3.75H17.2501C17.4159 3.75 17.5748 3.68415 17.692 3.56694C17.8092 3.44973 17.8751 3.29076 17.8751 3.125C17.8751 2.95924 17.8092 2.80027 17.692 2.68306C17.5748 2.56585 17.4159 2.5 17.2501 2.5H10.1876C10.0218 2.5 9.86287 2.56585 9.74566 2.68306C9.62845 2.80027 9.5626 2.95924 9.5626 3.125C9.5626 3.29076 9.62845 3.44973 9.74566 3.56694C9.86287 3.68415 10.0218 3.75 10.1876 3.75H11.1313V6.425H9.63135C9.30013 6.42599 8.98276 6.558 8.74856 6.79221C8.51435 7.02642 8.38234 7.34378 8.38135 7.675V18.9625C8.38135 19.1267 8.41368 19.2892 8.4765 19.4409C8.53932 19.5925 8.63139 19.7303 8.74746 19.8464C8.86354 19.9625 9.00134 20.0545 9.15299 20.1173C9.30465 20.1802 9.4672 20.2125 9.63135 20.2125Z" fill="#8B97FF"/>
<defs>
<linearGradient id="paint0_linear_74_63" x1="7" y1="19.5" x2="33" y2="20" gradientUnits="userSpaceOnUse">
<stop stop-color="#5465F7"/>
<stop offset="1" stop-color="#9333EA"/>
</linearGradient>
</defs>
</svg>
