<svg width="34" height="34" viewBox="0 0 34 34" fill="none" xmlns="http://www.w3.org/2000/svg">
<g clip-path="url(#clip0_1186_58)">
<path d="M23.4762 34H4.04762C2.97452 33.9987 1.94574 33.5719 1.18694 32.8131C0.428143 32.0543 0.00128541 31.0255 0 29.9524V4.04762C0.00128541 2.97452 0.428143 1.94574 1.18694 1.18694C1.94574 0.428143 2.97452 0.00128541 4.04762 0H16.5629C17.1019 0.000361038 17.6355 0.1079 18.1326 0.316363C18.6297 0.524826 19.0804 0.830051 19.4585 1.21429L26.3702 8.28871C27.1116 9.04556 27.5259 10.0634 27.5238 11.1229V17.1538C27.5238 17.3685 27.4385 17.5744 27.2867 17.7262C27.1349 17.878 26.929 17.9633 26.7143 17.9633C26.4996 17.9633 26.2937 17.878 26.1419 17.7262C25.9901 17.5744 25.9048 17.3685 25.9048 17.1538V11.1229C25.9051 10.4874 25.6563 9.87703 25.2118 9.42286L18.2993 2.34762C18.0728 2.11691 17.8025 1.93366 17.5044 1.80856C17.2063 1.68347 16.8862 1.61904 16.5629 1.61905H4.04762C3.40352 1.61905 2.78581 1.87491 2.33036 2.33036C1.87491 2.78581 1.61905 3.40352 1.61905 4.04762V29.9524C1.61905 30.5965 1.87491 31.2142 2.33036 31.6696C2.78581 32.1251 3.40352 32.381 4.04762 32.381H23.4762C23.7816 32.3821 24.0842 32.323 24.3667 32.2069C24.5653 32.1252 24.7882 32.1258 24.9864 32.2084C25.1846 32.2911 25.3418 32.4491 25.4235 32.6477C25.5052 32.8463 25.5047 33.0692 25.422 33.2674C25.3393 33.4656 25.1813 33.6228 24.9827 33.7045C24.5048 33.9008 23.9929 34.0012 23.4762 34Z"  />
<path d="M26.3823 10.5238H21.0476C19.9745 10.5225 18.9457 10.0957 18.1869 9.33689C17.4281 8.5781 17.0012 7.54932 17 6.47622V1.0605C17 0.845801 17.0852 0.639896 17.2371 0.488081C17.3889 0.336265 17.5948 0.250977 17.8095 0.250977C18.0242 0.250977 18.2301 0.336265 18.3819 0.488081C18.5337 0.639896 18.619 0.845801 18.619 1.0605V6.47622C18.619 7.12031 18.8749 7.73803 19.3303 8.19348C19.7858 8.64892 20.4035 8.90479 21.0476 8.90479H26.3823C26.597 8.90479 26.8029 8.99008 26.9548 9.14189C27.1066 9.29371 27.1919 9.49961 27.1919 9.71431C27.1919 9.92901 27.1066 10.1349 26.9548 10.2867C26.8029 10.4385 26.597 10.5238 26.3823 10.5238ZM25.0952 33.8818C24.776 33.8822 24.4638 33.7878 24.1982 33.6106L21.5981 31.8766C19.9334 30.7698 18.5685 29.2683 17.625 27.506C16.6814 25.7436 16.1886 23.7752 16.1904 21.7762V20.3903C16.192 20.0261 16.3158 19.6729 16.542 19.3874C16.7682 19.1019 17.0837 18.9006 17.4379 18.8158C19.8421 18.1512 22.1293 17.1193 24.2185 15.7566C24.4799 15.5882 24.7843 15.4987 25.0952 15.4987C25.4061 15.4987 25.7105 15.5882 25.9719 15.7566C28.061 17.1195 30.3482 18.1514 32.7525 18.8158C33.1067 18.9006 33.4222 19.1019 33.6484 19.3874C33.8746 19.6729 33.9984 20.0261 34 20.3903V21.7762C34.0023 23.7758 33.5097 25.7448 32.5662 27.5078C31.6226 29.2707 30.2574 30.7728 28.5923 31.8799L25.993 33.6131C25.7269 33.7895 25.4145 33.883 25.0952 33.8818ZM25.0952 17.1166C22.857 18.5767 20.4057 19.6805 17.8289 20.3887L17.8095 21.7762C17.8075 23.5091 18.2344 25.2156 19.0521 26.7435C19.8698 28.2714 21.0529 29.5732 22.4958 30.5328L25.0952 32.2628L27.6946 30.5296C29.1371 29.5703 30.3199 28.269 31.1375 26.7417C31.9552 25.2144 32.3823 23.5086 32.3809 21.7762V20.3903C29.7977 19.6826 27.34 18.5785 25.0952 17.1174V17.1166Z"  />
<path d="M24.286 26.7142C24.0713 26.7141 23.8654 26.6288 23.7137 26.477L22.0946 24.8579C21.9471 24.7053 21.8656 24.5008 21.8674 24.2885C21.8692 24.0763 21.9544 23.8732 22.1045 23.7231C22.2546 23.573 22.4576 23.4879 22.6699 23.4861C22.8821 23.4842 23.0866 23.5658 23.2393 23.7133L24.286 24.76L26.9518 22.0942C27.1044 21.9468 27.3089 21.8652 27.5212 21.867C27.7334 21.8688 27.9365 21.954 28.0866 22.1041C28.2367 22.2542 28.3218 22.4572 28.3236 22.6695C28.3255 22.8817 28.2439 23.0862 28.0964 23.2389L24.8583 26.477C24.7065 26.6288 24.5007 26.7141 24.286 26.7142ZM12.1431 8.09512H5.66695C5.45225 8.09512 5.24634 8.00983 5.09453 7.85802C4.94271 7.7062 4.85742 7.5003 4.85742 7.2856C4.85742 7.0709 4.94271 6.86499 5.09453 6.71318C5.24634 6.56136 5.45225 6.47607 5.66695 6.47607H12.1431C12.3578 6.47607 12.5637 6.56136 12.7156 6.71318C12.8674 6.86499 12.9527 7.0709 12.9527 7.2856C12.9527 7.5003 12.8674 7.7062 12.7156 7.85802C12.5637 8.00983 12.3578 8.09512 12.1431 8.09512ZM17.0003 12.9523H5.66695C5.45225 12.9523 5.24634 12.867 5.09453 12.7152C4.94271 12.5633 4.85742 12.3574 4.85742 12.1427C4.85742 11.928 4.94271 11.7221 5.09453 11.5703C5.24634 11.4185 5.45225 11.3332 5.66695 11.3332H17.0003C17.215 11.3332 17.4209 11.4185 17.5727 11.5703C17.7245 11.7221 17.8098 11.928 17.8098 12.1427C17.8098 12.3574 17.7245 12.5633 17.5727 12.7152C17.4209 12.867 17.215 12.9523 17.0003 12.9523ZM18.6193 17.8094H5.66695C5.45225 17.8094 5.24634 17.7241 5.09453 17.5723C4.94271 17.4205 4.85742 17.2146 4.85742 16.9999C4.85742 16.7852 4.94271 16.5793 5.09453 16.4275C5.24634 16.2756 5.45225 16.1904 5.66695 16.1904H18.6193C18.834 16.1904 19.0399 16.2756 19.1917 16.4275C19.3436 16.5793 19.4288 16.7852 19.4288 16.9999C19.4288 17.2146 19.3436 17.4205 19.1917 17.5723C19.0399 17.7241 18.834 17.8094 18.6193 17.8094ZM13.7622 22.6666H5.66695C5.45225 22.6666 5.24634 22.5813 5.09453 22.4294C4.94271 22.2776 4.85742 22.0717 4.85742 21.857C4.85742 21.6423 4.94271 21.4364 5.09453 21.2846C5.24634 21.1328 5.45225 21.0475 5.66695 21.0475H13.7622C13.9769 21.0475 14.1828 21.1328 14.3346 21.2846C14.4864 21.4364 14.5717 21.6423 14.5717 21.857C14.5717 22.0717 14.4864 22.2776 14.3346 22.4294C14.1828 22.5813 13.9769 22.6666 13.7622 22.6666ZM13.7622 27.5237H5.66695C5.45225 27.5237 5.24634 27.4384 5.09453 27.2866C4.94271 27.1348 4.85742 26.9289 4.85742 26.7142C4.85742 26.4995 4.94271 26.2936 5.09453 26.1418C5.24634 25.9899 5.45225 25.9046 5.66695 25.9046H13.7622C13.9769 25.9046 14.1828 25.9899 14.3346 26.1418C14.4864 26.2936 14.5717 26.4995 14.5717 26.7142C14.5717 26.9289 14.4864 27.1348 14.3346 27.2866C14.1828 27.4384 13.9769 27.5237 13.7622 27.5237Z" />
</g>
<defs>
<clipPath id="clip0_1186_58">
<rect width="34" height="34" fill="white"/>
</clipPath>
</defs>
</svg>
