<svg width="34" height="34" viewBox="0 0 34 34" fill="none" xmlns="http://www.w3.org/2000/svg">
<path d="M10.0938 24.4375C8.62909 24.4375 7.4375 25.6291 7.4375 27.0938C7.4375 28.5584 8.62909 29.75 10.0938 29.75C11.5584 29.75 12.75 28.5584 12.75 27.0938C12.75 25.6291 11.5584 24.4375 10.0938 24.4375ZM10.0938 28.6875C9.21506 28.6875 8.5 27.9724 8.5 27.0938C8.5 26.2151 9.21506 25.5 10.0938 25.5C10.9724 25.5 11.6875 26.2151 11.6875 27.0938C11.6875 27.9724 10.9724 28.6875 10.0938 28.6875Z"/>
<path d="M15.4062 28.6875C15.5471 28.6875 15.6823 28.6315 15.7819 28.5319C15.8815 28.4323 15.9375 28.2971 15.9375 28.1562V26.0312C15.9375 25.8904 15.8815 25.7552 15.7819 25.6556C15.6823 25.556 15.5471 25.5 15.4062 25.5L14.5892 25.4766C14.5351 25.327 14.4736 25.1802 14.4048 25.0367L14.977 24.4646C15.0264 24.4153 15.0656 24.3568 15.0923 24.2923C15.119 24.2279 15.1328 24.1588 15.1328 24.089C15.1328 24.0192 15.119 23.9501 15.0923 23.8857C15.0656 23.8212 15.0264 23.7627 14.977 23.7134L13.4741 22.2105C13.4248 22.1611 13.3663 22.122 13.3018 22.0952C13.2374 22.0685 13.1683 22.0547 13.0985 22.0547C13.0287 22.0547 12.9596 22.0685 12.8952 22.0952C12.8307 22.122 12.7722 22.1611 12.7229 22.2105L12.1279 22.7715C11.9841 22.704 11.8369 22.6439 11.687 22.5914V21.7812C11.687 21.6404 11.631 21.5052 11.5314 21.4056C11.4317 21.306 11.2966 21.25 11.1557 21.25H9.03072C8.88982 21.25 8.7547 21.306 8.65507 21.4056C8.55544 21.5052 8.49947 21.6404 8.49947 21.7812L8.47609 22.5983C8.33372 22.6498 8.19453 22.7072 8.03622 22.7827L7.46406 22.2105C7.41477 22.1611 7.35622 22.122 7.29177 22.0952C7.22733 22.0685 7.15824 22.0547 7.08847 22.0547C7.0187 22.0547 6.94961 22.0685 6.88516 22.0952C6.82071 22.122 6.76217 22.1611 6.71287 22.2105L5.20997 23.7134C5.16059 23.7627 5.12142 23.8212 5.09469 23.8857C5.06796 23.9501 5.05421 24.0192 5.05421 24.089C5.05421 24.1588 5.06796 24.2279 5.09469 24.2923C5.12142 24.3568 5.16059 24.4153 5.20997 24.4646L5.77097 25.0596C5.70722 25.1956 5.64931 25.3348 5.59088 25.5005H4.78125C4.64035 25.5005 4.50523 25.5565 4.4056 25.6561C4.30597 25.7558 4.25 25.8909 4.25 26.0318V28.1568C4.25 28.2977 4.30597 28.4328 4.4056 28.5324C4.50523 28.6321 4.64035 28.688 4.78125 28.688L5.59831 28.7114C5.64984 28.8538 5.70722 28.993 5.78266 29.1513L5.2105 29.7234C5.16112 29.7727 5.12195 29.8313 5.09522 29.8957C5.06849 29.9602 5.05474 30.0293 5.05474 30.099C5.05474 30.1688 5.06849 30.2379 5.09522 30.3023C5.12195 30.3668 5.16112 30.4253 5.2105 30.4746L6.71341 31.9775C6.7627 32.0269 6.82125 32.0661 6.88569 32.0928C6.95014 32.1195 7.01923 32.1333 7.089 32.1333C7.15877 32.1333 7.22786 32.1195 7.29231 32.0928C7.35675 32.0661 7.4153 32.0269 7.46459 31.9775L8.05959 31.4165C8.19559 31.4803 8.33478 31.5382 8.50053 31.5966V32.4062C8.50053 32.5471 8.5565 32.6823 8.65613 32.7819C8.75576 32.8815 8.89088 32.9375 9.03178 32.9375H11.1568C11.2977 32.9375 11.4328 32.8815 11.5324 32.7819C11.6321 32.6823 11.688 32.5471 11.688 32.4062L11.7114 31.5892C11.8538 31.5377 11.993 31.4803 12.1513 31.4048L12.7234 31.977C12.7727 32.0264 12.8313 32.0655 12.8957 32.0923C12.9602 32.119 13.0293 32.1328 13.099 32.1328C13.1688 32.1328 13.2379 32.119 13.3023 32.0923C13.3668 32.0655 13.4253 32.0264 13.4746 31.977L14.9775 30.4741C15.0269 30.4248 15.0661 30.3663 15.0928 30.3018C15.1195 30.2374 15.1333 30.1683 15.1333 30.0985C15.1333 30.0287 15.1195 29.9596 15.0928 29.8952C15.0661 29.8307 15.0269 29.7722 14.9775 29.7229L14.4165 29.1279C14.4803 28.9919 14.5382 28.8527 14.5966 28.687L15.4062 28.6875ZM13.6537 29.9025L13.8502 30.099L13.0985 30.8507L12.9019 30.6542C12.5821 30.3333 12.1003 30.2557 11.6758 30.455C11.5699 30.5051 11.4616 30.55 11.3512 30.5894C10.9103 30.7472 10.625 31.1429 10.625 31.5966V31.875H9.5625V31.5966C9.5625 31.1429 9.27722 30.7472 8.83628 30.5894C8.72585 30.5497 8.61736 30.5049 8.51116 30.455C8.08669 30.2552 7.60484 30.3333 7.28503 30.6542L7.08847 30.8507L6.33675 30.099L6.53331 29.9025C6.85419 29.5821 6.93228 29.1008 6.73253 28.6763C6.68238 28.5704 6.63752 28.4621 6.59812 28.3517C6.44034 27.9103 6.04456 27.625 5.59088 27.625H5.3125V26.5625H5.59088C6.04456 26.5625 6.44034 26.2772 6.59812 25.8363C6.63779 25.7259 6.68264 25.6174 6.73253 25.5112C6.93228 25.0867 6.85419 24.6054 6.53331 24.285L6.33675 24.0885L7.08847 23.3368L7.28503 23.5333C7.60538 23.8542 8.08722 23.9323 8.51116 23.7325C8.61688 23.6826 8.72525 23.6374 8.83575 23.5981C9.27722 23.4403 9.5625 23.0446 9.5625 22.5909V22.3125H10.625V22.5909C10.625 23.0446 10.9103 23.4403 11.3512 23.5981C11.4623 23.638 11.5712 23.6831 11.6763 23.7325C12.1013 23.9328 12.5827 23.8542 12.9025 23.5333L13.099 23.3368L13.8507 24.0885L13.6542 24.285C13.3333 24.6054 13.2552 25.0867 13.455 25.5112C13.5049 25.6169 13.5501 25.7252 13.5894 25.8358C13.7472 26.2772 14.1429 26.5625 14.5966 26.5625H14.875V27.625H14.5966C14.1429 27.625 13.7472 27.9103 13.5894 28.3512C13.5497 28.4616 13.5049 28.5701 13.455 28.6763C13.2552 29.1008 13.3333 29.5821 13.6537 29.9025ZM24.9688 20.7188C22.6254 20.7188 20.7188 22.6254 20.7188 24.9688C20.7188 27.3121 22.6254 29.2188 24.9688 29.2188C27.3121 29.2188 29.2188 27.3121 29.2188 24.9688C29.2188 22.6254 27.3121 20.7188 24.9688 20.7188ZM24.9688 28.1562C23.2108 28.1562 21.7812 26.7267 21.7812 24.9688C21.7812 23.2108 23.2108 21.7812 24.9688 21.7812C26.7267 21.7812 28.1562 23.2108 28.1562 24.9688C28.1562 26.7267 26.7267 28.1562 24.9688 28.1562Z"/>
<path d="M32.4064 22.8437L31.5293 22.8293C31.4173 22.4857 31.278 22.1515 31.1128 21.8301L31.7312 21.2122C31.8308 21.1126 31.8867 20.9775 31.8867 20.8366C31.8867 20.6958 31.8308 20.5606 31.7312 20.461L29.4771 18.2069C29.3755 18.1111 29.2411 18.0577 29.1015 18.0577C28.9618 18.0577 28.8275 18.1111 28.7259 18.2069L28.0953 18.8168C27.7732 18.6533 27.4385 18.5158 27.0944 18.4056V17.5312C27.0944 17.3903 27.0385 17.2552 26.9388 17.1555C26.8392 17.0559 26.7041 16.9999 26.5632 16.9999H23.3757C23.2348 16.9999 23.0997 17.0559 23 17.1555C22.9004 17.2552 22.8444 17.3903 22.8444 17.5312L22.8301 18.4083C22.4917 18.5188 22.1596 18.6558 21.8308 18.8248L21.213 18.2064C21.1133 18.1068 20.9782 18.0509 20.8374 18.0509C20.6965 18.0509 20.5614 18.1068 20.4618 18.2064L18.2077 20.4605C18.1081 20.5601 18.0521 20.6952 18.0521 20.8361C18.0521 20.977 18.1081 21.1121 18.2077 21.2117L18.8175 21.8423C18.6571 22.1584 18.5195 22.4904 18.4064 22.8432H17.5314C17.3905 22.8432 17.2554 22.8991 17.1557 22.9988C17.0561 23.0984 17.0001 23.2335 17.0001 23.3744V26.5619C17.0001 26.7028 17.0561 26.8379 17.1557 26.9376C17.2554 27.0372 17.3905 27.0932 17.5314 27.0932L18.4085 27.1075C18.519 27.4459 18.656 27.7779 18.825 28.1062L18.2066 28.7246C18.1572 28.7739 18.1181 28.8325 18.0913 28.8969C18.0646 28.9614 18.0508 29.0304 18.0508 29.1002C18.0508 29.17 18.0646 29.2391 18.0913 29.3035C18.1181 29.368 18.1572 29.4265 18.2066 29.4758L20.4607 31.7299C20.51 31.7793 20.5685 31.8185 20.633 31.8452C20.6974 31.8719 20.7665 31.8857 20.8363 31.8857C20.9061 31.8857 20.9752 31.8719 21.0396 31.8452C21.1041 31.8185 21.1626 31.7793 21.2119 31.7299L21.8425 31.12C22.1586 31.2805 22.4906 31.4181 22.8434 31.5312V32.4062C22.8434 32.5471 22.8993 32.6822 22.999 32.7818C23.0986 32.8815 23.2337 32.9374 23.3746 32.9374H26.5621C26.703 32.9374 26.8381 32.8815 26.9378 32.7818C27.0374 32.6822 27.0934 32.5471 27.0934 32.4062L27.1077 31.5291C27.4512 31.4172 27.7852 31.2779 28.1065 31.1126L28.7248 31.731C28.7741 31.7803 28.8327 31.8195 28.8971 31.8462C28.9616 31.873 29.0307 31.8867 29.1004 31.8867C29.1702 31.8867 29.2393 31.873 29.3037 31.8462C29.3682 31.8195 29.4267 31.7803 29.476 31.731L31.7301 29.4769C31.7795 29.4276 31.8187 29.369 31.8454 29.3046C31.8721 29.2401 31.8859 29.171 31.8859 29.1013C31.8859 29.0315 31.8721 28.9624 31.8454 28.898C31.8187 28.8335 31.7795 28.775 31.7301 28.7257L31.1202 28.0951C31.2807 27.779 31.4183 27.447 31.5314 27.0942H32.4064C32.5473 27.0942 32.6824 27.0382 32.782 26.9386C32.8817 26.839 32.9376 26.7039 32.9376 26.563V23.3755C32.9377 23.3057 32.924 23.2365 32.8974 23.172C32.8707 23.1075 32.8316 23.0489 32.7822 22.9995C32.7329 22.9501 32.6743 22.9109 32.6098 22.8842C32.5453 22.8574 32.4762 22.8437 32.4064 22.8437ZM31.8751 26.0312H31.532C31.0714 26.0312 30.6644 26.3319 30.5183 26.7792C30.4251 27.0657 30.3098 27.3445 30.1735 27.6132C30.0691 27.814 30.031 28.0427 30.0648 28.2665C30.0986 28.4903 30.2025 28.6975 30.3616 28.8585L30.6044 29.1013L29.1015 30.6042L28.8587 30.3614C28.6978 30.2023 28.4905 30.0983 28.2667 30.0645C28.0429 30.0307 27.8142 30.0688 27.6135 30.1733C27.3462 30.3093 27.0657 30.4257 26.7794 30.5187C26.5635 30.5866 26.3748 30.7213 26.2404 30.9033C26.1059 31.0854 26.0328 31.3054 26.0314 31.5317V31.8749H23.9064V31.5317C23.9064 31.0712 23.6057 30.6642 23.1584 30.5181C22.8719 30.4249 22.593 30.3096 22.3243 30.1733C22.1236 30.0687 21.8949 30.0305 21.671 30.0643C21.4472 30.0981 21.2399 30.2021 21.0791 30.3614L20.8363 30.6042L19.3334 29.1013L19.5762 28.8585C19.735 28.6974 19.8388 28.4901 19.8726 28.2664C19.9064 28.0427 19.8684 27.8141 19.7642 27.6132C19.6276 27.3447 19.5121 27.0658 19.4189 26.7792C19.351 26.5633 19.2163 26.3746 19.0342 26.2401C18.8522 26.1057 18.6321 26.0326 18.4058 26.0312H18.0626V23.9062H18.4058C18.8664 23.9062 19.2734 23.6055 19.4195 23.1582C19.5124 22.8718 19.6288 22.5913 19.7642 22.3241C19.8687 22.1234 19.9067 21.8946 19.8729 21.6709C19.8392 21.4471 19.7352 21.2398 19.5762 21.0789L19.3339 20.8366L20.8363 19.3342L21.0785 19.5765C21.2395 19.7356 21.4468 19.8395 21.6706 19.8733C21.8943 19.9071 22.123 19.869 22.3238 19.7646C22.5924 19.6279 22.8713 19.5124 23.1579 19.4192C23.3738 19.3512 23.5627 19.2165 23.6972 19.0343C23.8317 18.8522 23.9049 18.632 23.9064 18.4056V18.0624H26.0314V18.4056C26.0314 18.8662 26.3321 19.2732 26.7794 19.4192C27.0657 19.5122 27.3462 19.6286 27.6135 19.764C27.8143 19.8681 28.0429 19.906 28.2666 19.8722C28.4903 19.8385 28.6976 19.7347 28.8587 19.576L29.101 19.3337L30.6033 20.8361L30.3611 21.0783C30.2022 21.2394 30.0983 21.4467 30.0646 21.6704C30.0308 21.8941 30.0687 22.1228 30.173 22.3236C30.309 22.5908 30.4254 22.8713 30.5183 23.1577C30.5863 23.3736 30.7211 23.5624 30.9033 23.697C31.0854 23.8315 31.3055 23.9047 31.532 23.9062H31.8751V26.0312ZM7.43764 14.3437V20.1874H8.50014V14.8749H10.0939C10.1963 14.8749 10.2964 14.8452 10.3823 14.7896C10.4682 14.7339 10.5362 14.6546 10.5782 14.5613C10.6201 14.4679 10.6341 14.3644 10.6186 14.2632C10.6031 14.162 10.5587 14.0675 10.4907 13.9909L6.24074 9.20968C6.03886 8.98284 5.64839 8.98284 5.44652 9.20968L1.19652 13.9909C1.12852 14.0675 1.0841 14.1621 1.06861 14.2633C1.05312 14.3645 1.06722 14.4681 1.1092 14.5615C1.15119 14.6549 1.21928 14.7342 1.30527 14.7898C1.39126 14.8454 1.49149 14.875 1.59389 14.8749H3.18764V22.8437H4.25014V14.3437C4.25014 14.2028 4.19417 14.0677 4.09454 13.968C3.99491 13.8684 3.85979 13.8124 3.71889 13.8124H2.77699L5.84389 10.362L8.9108 13.8124H7.96889C7.828 13.8124 7.69287 13.8684 7.59324 13.968C7.49361 14.0677 7.43764 14.2028 7.43764 14.3437ZM18.5939 10.0937V17.5312H19.6564V10.6249H21.2501C21.3525 10.6249 21.4527 10.5952 21.5386 10.5396C21.6245 10.4839 21.6925 10.4046 21.7344 10.3113C21.7763 10.2179 21.7904 10.1144 21.7749 10.0132C21.7594 9.91201 21.715 9.81747 21.647 9.74093L17.397 4.95968C17.1951 4.73284 16.8046 4.73284 16.6028 4.95968L12.3528 9.74093C12.2852 9.81766 12.2412 9.9122 12.226 10.0133C12.2108 10.1143 12.2249 10.2177 12.2668 10.3109C12.3087 10.4041 12.3766 10.4833 12.4623 10.539C12.548 10.5947 12.6479 10.6245 12.7501 10.6249H14.3439V21.2499H15.4064V10.0937C15.4064 9.95279 15.3504 9.81766 15.2508 9.71803C15.1512 9.6184 15.016 9.56243 14.8751 9.56243H13.9332L17.0001 6.11197L20.067 9.56243H19.1251C18.9842 9.56243 18.8491 9.6184 18.7495 9.71803C18.6499 9.81766 18.5939 9.95279 18.5939 10.0937ZM29.7501 6.37493V14.8749H30.8126V6.90618H32.4064C32.5088 6.90611 32.6089 6.87646 32.6948 6.82082C32.7807 6.76517 32.8487 6.68589 32.8907 6.5925C32.9326 6.49912 32.9466 6.39562 32.9311 6.29444C32.9156 6.19326 32.8712 6.09872 32.8032 6.02218L28.5532 1.24093C28.3514 1.01409 27.9609 1.01409 27.759 1.24093L23.509 6.02218C23.4415 6.09891 23.3975 6.19345 23.3822 6.29452C23.367 6.39558 23.3812 6.4989 23.4231 6.59212C23.465 6.68535 23.5329 6.76453 23.6186 6.82023C23.7043 6.87592 23.8042 6.90576 23.9064 6.90618H25.5001V15.9374H26.5626V6.37493C26.5626 6.23404 26.5067 6.09891 26.407 5.99928C26.3074 5.89965 26.1723 5.84368 26.0314 5.84368H25.0895L28.1564 2.39321L31.2233 5.84368H30.2814C30.1405 5.84368 30.0054 5.89965 29.9057 5.99928C29.8061 6.09891 29.7501 6.23404 29.7501 6.37493Z"/>
</svg>
