<svg width="34" height="34" viewBox="0 0 34 34" fill="none" xmlns="http://www.w3.org/2000/svg">
<g clip-path="url(#clip0_1186_155)">
<path d="M17 0C15.1222 0 13.6 1.52221 13.6 3.4C13.6 5.27779 15.1222 6.8 17 6.8C18.877 6.79816 20.3982 5.27701 20.4 3.4C20.4 1.52221 18.8778 0 17 0ZM17 5.66667C15.7482 5.66667 14.7333 4.65184 14.7333 3.4C14.7333 2.14816 15.7482 1.13333 17 1.13333C18.2518 1.13333 19.2667 2.14816 19.2667 3.4C19.2667 4.65184 18.2518 5.66667 17 5.66667ZM19.2667 7.36667H19.1329L19.0134 7.42617C18.3879 7.73759 17.6987 7.89967 17 7.89967C16.3013 7.89967 15.6121 7.73759 14.9866 7.42617L14.8671 7.36667H14.7333C13.1693 7.36851 11.9018 8.636 11.9 10.2V13.6C11.9 14.5389 12.6611 15.3 13.6 15.3H20.4C21.3389 15.3 22.1 14.5389 22.1 13.6V10.2C22.0982 8.636 20.8307 7.36851 19.2667 7.36667ZM20.9667 13.6C20.9667 13.7503 20.907 13.8944 20.8007 14.0007C20.6944 14.107 20.5503 14.1667 20.4 14.1667H13.6C13.4497 14.1667 13.3056 14.107 13.1993 14.0007C13.093 13.8944 13.0333 13.7503 13.0333 13.6V10.2C13.0335 9.30807 13.7229 8.56786 14.6126 8.50453C15.3606 8.85169 16.1754 9.03154 17 9.03154C17.8246 9.03154 18.6394 8.85169 19.3874 8.50453C20.277 8.56786 20.9665 9.30807 20.9667 10.2V13.6ZM28.9 18.7C27.0222 18.7 25.5 20.2222 25.5 22.1C25.5 23.9778 27.0222 25.5 28.9 25.5C30.7778 25.5 32.3 23.9778 32.3 22.1C32.2982 20.223 30.777 18.7018 28.9 18.7ZM28.9 24.3667C27.6482 24.3667 26.6333 23.3518 26.6333 22.1C26.6333 20.8482 27.6482 19.8333 28.9 19.8333C30.1518 19.8333 31.1667 20.8482 31.1667 22.1C31.1667 23.3518 30.1518 24.3667 28.9 24.3667ZM31.1667 26.0667H31.0329L30.9134 26.1233C30.2879 26.4347 29.5987 26.5968 28.9 26.5968C28.2013 26.5968 27.5121 26.4347 26.8866 26.1233L26.7671 26.0667H26.6333C25.0693 26.0685 23.8018 27.336 23.8 28.9V32.3C23.8 33.2389 24.5611 34 25.5 34H32.3C33.2389 34 34 33.2389 34 32.3V28.9C33.9982 27.336 32.7307 26.0685 31.1667 26.0667ZM32.8667 32.3C32.8667 32.4503 32.807 32.5944 32.7007 32.7007C32.5944 32.807 32.4503 32.8667 32.3 32.8667H25.5C25.3497 32.8667 25.2056 32.807 25.0993 32.7007C24.993 32.5944 24.9333 32.4503 24.9333 32.3V28.9C24.9335 28.0081 25.6229 27.2679 26.5126 27.2045C27.2606 27.5517 28.0754 27.7315 28.9 27.7315C29.7246 27.7315 30.5394 27.5517 31.2874 27.2045C32.1771 27.2679 32.8665 28.0081 32.8667 28.9V32.3ZM5.1 18.7C3.22221 18.7 1.7 20.2222 1.7 22.1C1.7 23.9778 3.22221 25.5 5.1 25.5C6.97779 25.5 8.5 23.9778 8.5 22.1C8.49816 20.223 6.97701 18.7018 5.1 18.7ZM5.1 24.3667C3.84816 24.3667 2.83333 23.3518 2.83333 22.1C2.83333 20.8482 3.84816 19.8333 5.1 19.8333C6.35184 19.8333 7.36667 20.8482 7.36667 22.1C7.36667 23.3518 6.35184 24.3667 5.1 24.3667ZM7.36667 26.0667H7.23293L7.11337 26.1233C6.48788 26.4347 5.7987 26.5968 5.1 26.5968C4.4013 26.5968 3.71212 26.4347 3.08663 26.1233L2.96707 26.0667H2.83333C1.26933 26.0685 0.00184167 27.336 0 28.9V32.3C0 33.2389 0.761104 34 1.7 34H8.5C9.4389 34 10.2 33.2389 10.2 32.3V28.9C10.1982 27.336 8.93067 26.0685 7.36667 26.0667ZM9.06667 32.3C9.06667 32.4503 9.00696 32.5944 8.90069 32.7007C8.79442 32.807 8.65029 32.8667 8.5 32.8667H1.7C1.54971 32.8667 1.40558 32.807 1.29931 32.7007C1.19304 32.5944 1.13333 32.4503 1.13333 32.3V28.9C1.13347 28.0081 1.8229 27.2679 2.71263 27.2045C3.46064 27.5517 4.27536 27.7315 5.1 27.7315C5.92464 27.7315 6.73936 27.5517 7.48737 27.2045C8.3771 27.2679 9.06652 28.0081 9.06667 28.9V32.3ZM22.6222 28.7779L22.6213 28.7759C22.5624 28.6376 22.451 28.5285 22.3116 28.4723C22.1722 28.4162 22.0162 28.4178 21.8779 28.4767C19.3191 29.5491 16.4773 29.7448 13.7956 29.0332L14.326 28.8773C14.6264 28.7894 14.7987 28.4746 14.7107 28.1741C14.6228 27.8736 14.308 27.7014 14.0075 27.7893L11.7408 28.454C11.7323 28.454 11.7261 28.4637 11.7182 28.4665C11.6657 28.4861 11.6164 28.5134 11.572 28.5475C11.5523 28.5582 11.5334 28.5701 11.5153 28.5832C11.4555 28.6366 11.4081 28.7023 11.3765 28.7759C11.3457 28.85 11.3311 28.9298 11.3334 29.0099C11.3472 29.0866 11.3661 29.1624 11.3901 29.2366C11.3935 29.2445 11.3901 29.2536 11.3963 29.2615L12.5296 31.4302C12.5641 31.4962 12.6112 31.5547 12.6683 31.6025C12.7254 31.6503 12.7913 31.6864 12.8624 31.7087C12.9334 31.731 13.0081 31.7391 13.0823 31.7326C13.1565 31.726 13.2286 31.7049 13.2946 31.6704C13.3606 31.636 13.4192 31.5889 13.467 31.5318C13.5148 31.4747 13.5509 31.4087 13.5732 31.3377C13.5955 31.2667 13.6036 31.1919 13.597 31.1178C13.5905 31.0436 13.5694 30.9714 13.5349 30.9054L13.0736 30.0237C16.1205 30.9396 19.3916 30.7616 22.3211 29.5205C22.4595 29.4619 22.5689 29.3508 22.6254 29.2115C22.6819 29.0723 22.6807 28.9163 22.6222 28.7779ZM32.134 14.8994C32.0277 14.7931 31.8836 14.7335 31.7333 14.7335C31.5831 14.7335 31.439 14.7931 31.3327 14.8994L30.5309 15.7012C30.0617 10.7379 26.9105 6.43082 22.3221 4.4812C22.1839 4.42229 22.0279 4.42071 21.8884 4.47682C21.749 4.53293 21.6376 4.64213 21.5787 4.7804C21.5198 4.91867 21.5182 5.07467 21.5743 5.2141C21.6304 5.35353 21.7396 5.46495 21.8779 5.52387C25.994 7.27324 28.8552 11.0963 29.3732 15.5386L28.734 14.8994C28.6271 14.7961 28.4839 14.739 28.3354 14.7403C28.1868 14.7416 28.0447 14.8012 27.9396 14.9063C27.8345 15.0113 27.7749 15.1535 27.7737 15.302C27.7724 15.4506 27.8295 15.5938 27.9327 15.7006L29.6327 17.4006C29.6853 17.4533 29.7477 17.4951 29.8164 17.5237C29.8851 17.5523 29.9588 17.567 30.0332 17.5671C30.1076 17.5672 30.1813 17.5526 30.2501 17.5242C30.3189 17.4958 30.3814 17.4542 30.4341 17.4016L30.4351 17.4006L32.1351 15.7006C32.2412 15.5942 32.3007 15.45 32.3004 15.2998C32.3002 15.1495 32.2404 15.0055 32.134 14.8994ZM12.4502 4.90677C12.4484 4.8737 12.4435 4.84088 12.4355 4.80873C12.4355 4.80363 12.4293 4.80023 12.427 4.79457C12.4247 4.7889 12.427 4.78493 12.427 4.7804C12.4116 4.75283 12.3937 4.72667 12.3737 4.7022C12.3554 4.66897 12.3337 4.63765 12.3091 4.6087C12.2756 4.57903 12.2385 4.55371 12.1986 4.53333C12.1787 4.51639 12.1575 4.50104 12.1352 4.48743L9.8685 3.45213C9.73298 3.39649 9.58118 3.39549 9.44494 3.44934C9.3087 3.5032 9.19861 3.60772 9.13777 3.74099C9.07693 3.87425 9.07006 4.0259 9.11861 4.16412C9.16716 4.30234 9.26735 4.41639 9.39817 4.48233L10.5717 5.01897C6.15365 7.38345 3.39681 11.989 3.4 17C3.4 17.1503 3.4597 17.2944 3.56597 17.4007C3.67224 17.507 3.81638 17.5667 3.96667 17.5667C4.11696 17.5667 4.26109 17.507 4.36736 17.4007C4.47363 17.2944 4.53333 17.1503 4.53333 17C4.5305 12.5876 6.86382 8.5034 10.6664 6.26507L10.2567 7.1213C10.1918 7.25659 10.1832 7.41209 10.2328 7.55369C10.2824 7.6953 10.3862 7.81145 10.5213 7.87667C10.5977 7.91401 10.6816 7.93339 10.7667 7.93333C10.8733 7.93318 10.9777 7.90296 11.0679 7.84612C11.1581 7.78928 11.2305 7.70815 11.2767 7.61203L12.41 5.24733C12.41 5.24167 12.41 5.23543 12.4145 5.22977C12.4293 5.19102 12.4395 5.15071 12.4451 5.10963C12.4548 5.0791 12.4621 5.04787 12.4667 5.01613C12.4648 4.97923 12.4593 4.9426 12.4502 4.90677Z" />
</g>
<defs>
<clipPath id="clip0_1186_155">
<rect width="34" height="34" fill="white"/>
</clipPath>
</defs>
</svg>
