<svg width="35" height="36" viewBox="0 0 35 36" fill="none" xmlns="http://www.w3.org/2000/svg">
<path d="M17.5399 0.417969H17.4601C7.81718 0.417969 0 8.23514 0 17.8781L0 17.9578C0 27.6008 7.81718 35.418 17.4601 35.418H17.5399C27.1828 35.418 35 27.6008 35 17.9578V17.8781C35 8.23514 27.1828 0.417969 17.5399 0.417969Z" fill="url(#paint0_linear_787_16971)"/>
<path d="M22.9158 7.53906H12.0858C9.09384 7.53906 6.65979 9.97311 6.65979 12.9651L6.65979 22.8729C6.65979 25.8649 9.09384 28.299 12.0858 28.299H22.9158C25.9078 28.299 28.3418 25.8649 28.3418 22.8729V12.9651C28.3418 9.97311 25.9078 7.53906 22.9158 7.53906ZM8.57392 12.9651C8.57392 11.0289 10.1496 9.45319 12.0858 9.45319H22.9158C24.852 9.45319 26.4277 11.0289 26.4277 12.9651V22.8729C26.4277 24.8091 24.852 26.3848 22.9158 26.3848H12.0858C10.1496 26.3848 8.57392 24.8091 8.57392 22.8729V12.9651Z" fill="white"/>
<path d="M17.5007 22.9653C20.283 22.9653 22.5479 20.7017 22.5479 17.9182C22.5479 15.1347 20.2843 12.8711 17.5007 12.8711C14.7172 12.8711 12.4536 15.1347 12.4536 17.9182C12.4536 20.7017 14.7172 22.9653 17.5007 22.9653ZM17.5007 14.7864C19.2285 14.7864 20.6337 16.1917 20.6337 17.9194C20.6337 19.6472 19.2285 21.0524 17.5007 21.0524C15.773 21.0524 14.3677 19.6472 14.3677 17.9194C14.3677 16.1917 15.773 14.7864 17.5007 14.7864Z" fill="white"/>
<path d="M23.0153 13.6851C23.7645 13.6851 24.3752 13.0757 24.3752 12.3252C24.3752 11.5748 23.7657 10.9653 23.0153 10.9653C22.2648 10.9653 21.6554 11.5748 21.6554 12.3252C21.6554 13.0757 22.2648 13.6851 23.0153 13.6851Z" fill="white"/>
<defs>
<linearGradient id="paint0_linear_787_16971" x1="5.11334" y1="30.3046" x2="29.8867" y2="5.53253" gradientUnits="userSpaceOnUse">
<stop stop-color="#FAAD4F"/>
<stop offset="0.35" stop-color="#DD2A7B"/>
<stop offset="0.62" stop-color="#9537B0"/>
<stop offset="1" stop-color="#515BD4"/>
</linearGradient>
</defs>
</svg>
