<svg width="34" height="34" viewBox="0 0 34 34" fill="none" xmlns="http://www.w3.org/2000/svg">
<g clip-path="url(#clip0_1382_938)">
<path d="M33.9213 18.4894C33.8639 18.3822 33.7786 18.2925 33.6743 18.2301C33.57 18.1676 33.4507 18.1346 33.3291 18.1346H32.627V17.0286C32.6246 14.337 31.0153 11.9069 28.5381 10.8543C30.6501 9.40942 31.1911 6.52601 29.7464 4.41385C28.3015 2.30178 25.4181 1.7608 23.306 3.20556C21.1939 4.6504 20.6529 7.53382 22.0977 9.64597C22.4221 10.1201 22.8318 10.5299 23.306 10.8543C20.8288 11.907 19.2194 14.337 19.217 17.0286V18.1335H18.0217C17.8437 18.1335 17.673 18.2042 17.5471 18.33C17.4213 18.4559 17.3506 18.6266 17.3506 18.8046C17.3506 18.9826 17.4213 19.1533 17.5471 19.2791C17.673 19.405 17.8437 19.4757 18.0217 19.4757H32.0736L23.8977 31.7095H19.334V30.0661C19.3301 26.4958 17.1077 23.3038 13.7606 22.0613C16.5378 20.4267 17.4642 16.8502 15.8296 14.0729C14.195 11.2957 10.6184 10.3693 7.84119 12.0039C5.06394 13.6385 4.13758 17.215 5.77219 19.9923C6.27494 20.8465 6.98699 21.5585 7.84119 22.0613C4.49348 23.3035 2.27046 26.4955 2.26618 30.0661V31.7095H0.671106C0.493118 31.7095 0.322419 31.7802 0.196562 31.906C0.0707056 32.0319 0 32.2026 0 32.3806C0 32.5586 0.0707056 32.7292 0.196562 32.8551C0.322419 32.981 0.493118 33.0517 0.671106 33.0517H24.2566C24.367 33.0516 24.4756 33.0244 24.5729 32.9723C24.6703 32.9203 24.7533 32.8451 24.8146 32.7533L33.8872 19.1774C33.9545 19.0765 33.9932 18.9592 33.9992 18.8381C34.0052 18.7169 33.9783 18.5964 33.9213 18.4894ZM22.6309 7.04713C22.6227 5.22942 24.0895 3.74925 25.9071 3.74101C27.7248 3.73278 29.205 5.19961 29.2132 7.01723C29.2215 8.83485 27.7546 10.3151 25.937 10.3233H25.9221C24.1094 10.3256 22.6371 8.85989 22.6309 7.04713ZM31.2847 18.1335H20.5593V17.0286C20.5341 14.0669 22.9148 11.6455 25.8765 11.6204C28.8383 11.5953 31.2596 13.976 31.2848 16.9377C31.285 16.968 31.285 16.9983 31.2848 17.0286L31.2847 18.1335ZM6.30822 17.0597C6.2966 14.5785 8.29856 12.5576 10.7798 12.5459C13.261 12.5342 15.2819 14.5362 15.2936 17.0174C15.3052 19.4987 13.3033 21.5196 10.822 21.5313L10.7991 21.5313C8.32549 21.5334 6.3167 19.5333 6.30822 17.0597ZM17.9932 31.7095H3.60839V30.0661C3.57948 26.0938 6.77613 22.8502 10.7484 22.8213C14.7207 22.7923 17.9643 25.989 17.9933 29.9613C17.9935 29.9962 17.9935 30.0312 17.9933 30.0661V31.7095H17.9932Z"/>
<path d="M14.6148 7.22541L17.2034 8.55963C17.3057 8.61209 17.4198 8.6374 17.5347 8.63315C17.6496 8.62889 17.7615 8.5952 17.8596 8.53531C17.9578 8.47543 18.0389 8.39134 18.0952 8.29111C18.1515 8.19089 18.1812 8.07787 18.1813 7.9629V3.63275C18.1813 2.15011 16.9795 0.948242 15.4968 0.948242H9.64837C8.16573 0.948242 6.96387 2.15011 6.96387 3.63275V4.54205C6.96494 6.0242 8.16622 7.22549 9.64837 7.22656L14.6148 7.22541ZM8.30616 4.54205V3.63275C8.30616 2.89147 8.90709 2.29045 9.64846 2.29045H15.4981C16.2393 2.29045 16.8404 2.89139 16.8404 3.63275V6.86185L15.0866 5.95757C14.9916 5.90887 14.8865 5.88338 14.7798 5.8832H9.64846C8.90759 5.8832 8.30682 5.28292 8.30616 4.54205Z"/>
</g>
<defs>
<clipPath id="clip0_1382_938">
<rect width="34" height="34" fill="white"/>
</clipPath>
</defs>
</svg>
