<svg width="34" height="34" viewBox="0 0 34 34" fill="none" xmlns="http://www.w3.org/2000/svg">
<path d="M32.3066 30.2812H31.9746V15.2402C31.9746 15.1081 31.9221 14.9815 31.8287 14.8881C31.7353 14.7947 31.6087 14.7422 31.4766 14.7422C31.3445 14.7422 31.2178 14.7947 31.1244 14.8881C31.031 14.9815 30.9785 15.1081 30.9785 15.2402V30.2812H25.998V11.5215C25.998 11.4775 26.0155 11.4352 26.0467 11.4041C26.0778 11.373 26.12 11.3555 26.1641 11.3555H30.8125C30.8565 11.3555 30.8988 11.373 30.9299 11.4041C30.961 11.4352 30.9785 11.4775 30.9785 11.5215V13.248C30.9785 13.3801 31.031 13.5068 31.1244 13.6002C31.2178 13.6936 31.3445 13.7461 31.4766 13.7461C31.6087 13.7461 31.7353 13.6936 31.8287 13.6002C31.9221 13.5068 31.9746 13.3801 31.9746 13.248V11.5215C31.9743 11.2134 31.8517 10.918 31.6338 10.7001C31.416 10.4823 31.1206 10.3597 30.8125 10.3594H26.1641C25.856 10.3597 25.5606 10.4823 25.3427 10.7001C25.1249 10.918 25.0023 11.2134 25.002 11.5215V30.2812H24.3158V17.498C24.3154 17.1899 24.1929 16.8946 23.975 16.6767C23.7572 16.4588 23.4618 16.3363 23.1537 16.3359H18.5052C18.1971 16.3363 17.9017 16.4588 17.6839 16.6767C17.466 16.8945 17.3435 17.1899 17.3431 17.498V30.2812H16.6569V14.1777C16.6565 13.8696 16.534 13.5742 16.3161 13.3564C16.0983 13.1385 15.8029 13.016 15.4948 13.0156H10.8463C10.5382 13.016 10.2428 13.1385 10.025 13.3564C9.80712 13.5742 9.68457 13.8696 9.68422 14.1777V30.2812H8.99805V22.8105C8.99768 22.5024 8.87512 22.2071 8.65726 21.9892C8.43941 21.7714 8.14403 21.6488 7.83594 21.6484H3.1875C2.8794 21.6488 2.58403 21.7714 2.36617 21.9892C2.14831 22.2071 2.02576 22.5024 2.02539 22.8105V29.252C2.02539 29.384 2.07786 29.5107 2.17127 29.6041C2.26467 29.6975 2.39135 29.75 2.52344 29.75C2.65553 29.75 2.78221 29.6975 2.87561 29.6041C2.96901 29.5107 3.02148 29.384 3.02148 29.252V22.8105C3.02148 22.7665 3.03898 22.7243 3.07011 22.6932C3.10124 22.662 3.14347 22.6445 3.1875 22.6445H7.83594C7.87997 22.6445 7.92219 22.662 7.95333 22.6932C7.98446 22.7243 8.00195 22.7665 8.00195 22.8105V30.2812H1.69336C1.56127 30.2812 1.43459 30.3337 1.34119 30.4271C1.24779 30.5205 1.19531 30.6472 1.19531 30.7793C1.19531 30.9114 1.24779 31.0381 1.34119 31.1315C1.43459 31.2249 1.56127 31.2773 1.69336 31.2773H32.3066C32.4387 31.2773 32.5654 31.2249 32.6588 31.1315C32.7522 31.0381 32.8047 30.9114 32.8047 30.7793C32.8047 30.6472 32.7522 30.5205 32.6588 30.4271C32.5654 30.3337 32.4387 30.2812 32.3066 30.2812ZM10.6803 30.2812V14.1777C10.6803 14.1337 10.6978 14.0915 10.7289 14.0603C10.7601 14.0292 10.8023 14.0117 10.8463 14.0117H15.4948C15.5388 14.0117 15.581 14.0292 15.6122 14.0603C15.6433 14.0915 15.6608 14.1337 15.6608 14.1777V30.2812H10.6803ZM18.3392 30.2812V17.498C18.3392 17.454 18.3567 17.4118 18.3878 17.3807C18.419 17.3495 18.4612 17.332 18.5052 17.332H23.1537C23.1977 17.332 23.2399 17.3495 23.2711 17.3807C23.3022 17.4118 23.3197 17.454 23.3197 17.498V30.2812H18.3392Z"/>
<path d="M28.4881 2.72266C28.1717 2.72259 27.8607 2.80475 27.5857 2.96107C27.3106 3.11739 27.0809 3.34251 26.919 3.61436C26.7572 3.88621 26.6687 4.19545 26.6624 4.51178C26.656 4.8281 26.732 5.14063 26.8828 5.41875L22.1517 9.26786C21.9747 9.08103 21.76 8.93384 21.522 8.83595C21.2839 8.73807 21.0278 8.69172 20.7706 8.69996C20.5133 8.70819 20.2607 8.77083 20.0294 8.88374C19.7981 8.99665 19.5933 9.15728 19.4285 9.35505L14.9959 7.22859C14.9959 7.22068 14.9965 7.21285 14.9965 7.20488C14.9968 6.92503 14.9327 6.64885 14.8093 6.39769C14.6859 6.14652 14.5064 5.92709 14.2847 5.75632C14.063 5.58555 13.805 5.46803 13.5306 5.41282C13.2563 5.35761 12.9729 5.36619 12.7024 5.43791C12.4319 5.50962 12.1815 5.64255 11.9705 5.82642C11.7595 6.0103 11.5936 6.2402 11.4856 6.49837C11.3776 6.75655 11.3304 7.03609 11.3476 7.31541C11.3649 7.59474 11.446 7.86637 11.5849 8.10933L6.18933 14.1427C5.77964 13.9784 5.32435 13.9678 4.90748 14.1129C4.4906 14.258 4.14026 14.549 3.92109 14.9321C3.70191 15.3153 3.6287 15.7647 3.71495 16.1976C3.8012 16.6305 4.04109 17.0176 4.39037 17.2875C4.73966 17.5574 5.17476 17.6919 5.61541 17.6661C6.05606 17.6403 6.47253 17.4561 6.78798 17.1473C7.10342 16.8386 7.29657 16.4261 7.33178 15.9862C7.367 15.5462 7.2419 15.1083 6.97957 14.7533L12.2964 8.80813C12.7011 9.02914 13.1745 9.08864 13.6213 8.97466C14.0681 8.86068 14.4551 8.58167 14.7045 8.1938L19.0219 10.2649C18.9838 10.5281 19.0037 10.7965 19.0801 11.0512C19.1566 11.3059 19.2877 11.5408 19.4644 11.7396C19.6411 11.9383 19.859 12.0961 20.103 12.2018C20.347 12.3076 20.6111 12.3588 20.877 12.3518C21.1428 12.3449 21.4039 12.28 21.6421 12.1616C21.8802 12.0432 22.0896 11.8743 22.2557 11.6666C22.4217 11.4589 22.5404 11.2174 22.6034 10.959C22.6664 10.7007 22.6723 10.4317 22.6205 10.1708L27.5826 6.13375C27.8255 6.27249 28.097 6.35358 28.3762 6.37076C28.6554 6.38793 28.9348 6.34073 29.1928 6.2328C29.4509 6.12487 29.6807 5.95909 29.8645 5.74827C30.0483 5.53744 30.1812 5.28719 30.253 5.01685C30.3247 4.7465 30.3334 4.46328 30.2784 4.18905C30.2233 3.91481 30.106 3.65689 29.9354 3.43519C29.7649 3.21349 29.5457 3.03394 29.2947 2.9104C29.0438 2.78686 28.7678 2.72262 28.4881 2.72266ZM5.51152 16.668C5.34735 16.668 5.18686 16.6193 5.05036 16.5281C4.91385 16.4369 4.80746 16.3072 4.74463 16.1555C4.6818 16.0039 4.66537 15.837 4.69739 15.676C4.72942 15.5149 4.80848 15.367 4.92457 15.2509C5.04066 15.1348 5.18856 15.0558 5.34958 15.0238C5.5106 14.9917 5.6775 15.0082 5.82918 15.071C5.98086 15.1338 6.1105 15.2402 6.20171 15.3767C6.29292 15.5132 6.3416 15.6737 6.3416 15.8379C6.34136 16.058 6.25382 16.269 6.09821 16.4246C5.94259 16.5802 5.7316 16.6677 5.51152 16.668ZM13.1704 8.03516C13.0062 8.03516 12.8457 7.98647 12.7092 7.89526C12.5727 7.80405 12.4663 7.67441 12.4035 7.52274C12.3406 7.37106 12.3242 7.20416 12.3562 7.04314C12.3883 6.88212 12.4673 6.73421 12.5834 6.61812C12.6995 6.50204 12.8474 6.42298 13.0084 6.39095C13.1694 6.35892 13.3363 6.37536 13.488 6.43819C13.6397 6.50101 13.7693 6.60741 13.8605 6.74391C13.9517 6.88042 14.0004 7.0409 14.0004 7.20508C14.0002 7.42515 13.9127 7.63614 13.757 7.79176C13.6014 7.94738 13.3904 8.03491 13.1704 8.03516ZM20.8293 11.3555C20.6651 11.3555 20.5046 11.3068 20.3681 11.2156C20.2316 11.1244 20.1252 10.9947 20.0624 10.843C19.9995 10.6914 19.9831 10.5245 20.0151 10.3635C20.0472 10.2024 20.1262 10.0545 20.2423 9.93844C20.3584 9.82235 20.5063 9.74329 20.6673 9.71126C20.8283 9.67923 20.9952 9.69567 21.1469 9.7585C21.2986 9.82133 21.4282 9.92772 21.5194 10.0642C21.6106 10.2007 21.6593 10.3612 21.6593 10.5254C21.6591 10.7455 21.5716 10.9565 21.4159 11.1121C21.2603 11.2677 21.0493 11.3552 20.8293 11.3555ZM28.4881 5.37891C28.3239 5.37891 28.1634 5.33022 28.0269 5.23901C27.8904 5.1478 27.784 5.01816 27.7212 4.86649C27.6584 4.71481 27.6419 4.54791 27.674 4.38689C27.706 4.22587 27.785 4.07796 27.9011 3.96187C28.0172 3.84579 28.1651 3.76673 28.3261 3.7347C28.4872 3.70267 28.6541 3.71911 28.8057 3.78194C28.9574 3.84476 29.0871 3.95116 29.1783 4.08766C29.2695 4.22417 29.3182 4.38465 29.3182 4.54883C29.3179 4.7689 29.2304 4.97989 29.0748 5.13551C28.9192 5.29113 28.7082 5.37866 28.4881 5.37891Z"/>
</svg>
