<svg width="35" height="36" viewBox="0 0 35 36" fill="none" xmlns="http://www.w3.org/2000/svg">
<path d="M17.5398 0.417969H17.4602C7.81719 0.417969 0 8.23515 0 17.8781L0 17.9578C0 27.6008 7.81719 35.418 17.4602 35.418H17.5398C27.1828 35.418 35 27.6008 35 17.9578V17.8781C35 8.23515 27.1828 0.417969 17.5398 0.417969Z" fill="#007EBB"/>
<path d="M8.34684 12.0524C7.88578 11.6245 7.65649 11.0948 7.65649 10.4645C7.65649 9.83421 7.88701 9.28119 8.34684 8.85201C8.8079 8.42406 9.40139 8.20947 10.1285 8.20947C10.8557 8.20947 11.4259 8.42406 11.8857 8.85201C12.3468 9.27996 12.5761 9.81827 12.5761 10.4645C12.5761 11.1107 12.3456 11.6245 11.8857 12.0524C11.4247 12.4804 10.8397 12.695 10.1285 12.695C9.41733 12.695 8.8079 12.4804 8.34684 12.0524ZM12.1886 14.5073V27.6279H8.04274L8.04274 14.5073H12.1886Z" fill="#FEFFFC"/>
<path d="M25.9899 15.8025C26.8937 16.7835 27.3449 18.1299 27.3449 19.8441V27.3952H23.4075V20.3763C23.4075 19.5118 23.1831 18.8399 22.7356 18.3616C22.288 17.8834 21.6847 17.6431 20.9294 17.6431C20.174 17.6431 19.5707 17.8822 19.1231 18.3616C18.6755 18.8399 18.4511 19.5118 18.4511 20.3763V27.3952H14.4905L14.4905 14.4696H18.4511V16.1839C18.8521 15.6125 19.3929 15.1612 20.0722 14.8289C20.7516 14.4966 21.5155 14.3311 22.3653 14.3311C23.8784 14.3311 25.0874 14.8215 25.9899 15.8025Z" fill="#FEFFFC"/>
</svg>
