<svg width="274" height="73" viewBox="0 0 274 73" fill="none" xmlns="http://www.w3.org/2000/svg">
<path d="M89.88 29.408C89.1547 29.216 88.3973 29.12 87.608 29.12C86.8187 29.12 86.1787 29.3227 85.688 29.728C85.2187 30.112 84.984 30.6667 84.984 31.392C84.984 32.096 85.1653 32.6507 85.528 33.056C85.8907 33.4613 86.6053 33.8133 87.672 34.112L90.52 34.944C92.056 35.392 93.272 36.096 94.168 37.056C95.0853 37.9947 95.544 39.3813 95.544 41.216C95.544 43.392 94.7547 45.1093 93.176 46.368C91.6187 47.6267 89.6773 48.256 87.352 48.256C86.072 48.256 84.7493 48.096 83.384 47.776C82.04 47.4347 80.92 46.9653 80.024 46.368C80.024 46.24 80.024 45.9947 80.024 45.632C80.024 45.2693 80.0987 44.6507 80.248 43.776C80.3973 42.9013 80.6107 42.1867 80.888 41.632H83.928C84.2693 42.2933 84.472 43.1787 84.536 44.288C85.2827 44.608 86.1467 44.768 87.128 44.768C88.1307 44.768 88.952 44.5333 89.592 44.064C90.232 43.5947 90.552 42.9227 90.552 42.048C90.552 41.6427 90.52 41.312 90.456 41.056C90.392 40.7787 90.1893 40.4907 89.848 40.192C89.528 39.872 89.0587 39.616 88.44 39.424L85.144 38.464C81.7947 37.504 80.12 35.3707 80.12 32.064C80.12 30.1227 80.824 28.576 82.232 27.424C83.64 26.2507 85.4747 25.664 87.736 25.664C90.0187 25.664 92.248 26.176 94.424 27.2C94.424 27.328 94.424 27.5733 94.424 27.936C94.424 28.2987 94.3493 28.9173 94.2 29.792C94.0507 30.6667 93.8373 31.3813 93.56 31.936H90.52C90.1573 31.424 89.944 30.5813 89.88 29.408ZM115.235 40C115.235 42.7947 114.595 44.8747 113.315 46.24C112.056 47.584 110.008 48.256 107.171 48.256C104.333 48.256 102.339 47.5947 101.187 46.272C100.056 44.928 99.4908 42.8373 99.4908 40V29.664C98.6801 29.3653 98.0934 29.0027 97.7308 28.576L98.0508 25.92H105.539L105.859 28.576C105.517 28.9813 104.931 29.344 104.099 29.664V40.128C104.099 41.664 104.344 42.8053 104.835 43.552C105.347 44.2773 106.253 44.64 107.555 44.64C108.856 44.64 109.773 44.2667 110.307 43.52C110.84 42.752 111.107 41.6213 111.107 40.128V29.664C110.232 29.344 109.645 28.9813 109.347 28.576L109.667 25.92H116.675L116.995 28.576C116.653 28.9813 116.067 29.344 115.235 29.664V40ZM136.836 32.384C136.836 33.8347 136.377 35.0507 135.46 36.032C134.564 37.0133 133.433 37.76 132.068 38.272C133.135 38.72 133.839 39.264 134.18 39.904L136.516 44.352C137.519 44.6933 138.201 45.088 138.564 45.536L138.244 48H132.836L129.156 40.16C128.815 39.3707 128.42 38.976 127.972 38.976H125.892V44.096C127.449 44.4373 128.42 44.8533 128.804 45.344L128.484 48H119.844L119.524 45.344C119.801 44.9813 120.388 44.6293 121.284 44.288V29.664C120.409 29.344 119.823 28.9813 119.524 28.576L119.844 25.92H128.004C130.991 25.9627 133.209 26.4427 134.66 27.36C136.111 28.2773 136.836 29.952 136.836 32.384ZM127.78 29.408H125.892V35.488H127.716C129.167 35.488 130.244 35.2747 130.948 34.848C131.673 34.4 132.036 33.6107 132.036 32.48C132.036 31.3493 131.673 30.56 130.948 30.112C130.223 29.6427 129.167 29.408 127.78 29.408ZM146.685 48.16L140.605 29.664C139.687 29.3227 139.09 28.96 138.812 28.576L139.133 25.92H146.621L146.941 28.576C146.642 28.9813 146.098 29.3227 145.309 29.6L148.029 39.072C148.477 40.544 148.754 41.8987 148.861 43.136L148.893 43.68H149.341C149.362 42.3787 149.629 40.864 150.141 39.136L152.989 29.632C152.178 29.3547 151.613 29.0027 151.293 28.576L151.613 25.92H158.909L159.229 28.576C158.845 29.0453 158.13 29.4507 157.085 29.792L151.069 48.16H146.685ZM176.161 48H161.313L160.993 45.344C161.27 44.9813 161.857 44.6293 162.753 44.288V29.664C161.878 29.344 161.291 28.9813 160.993 28.576L161.313 25.92H175.905V31.488L173.537 31.776C173.046 31.3493 172.651 30.56 172.353 29.408H167.361V34.912H171.809C172.065 34.272 172.331 33.824 172.609 33.568L174.625 33.792V39.488L172.609 39.744C172.331 39.5307 172.065 39.0827 171.809 38.4H167.361V44.512H172.609C172.886 43.4027 173.281 42.6133 173.793 42.144L176.161 42.432V48ZM191.403 48H183.915L183.595 45.344C183.872 44.9813 184.459 44.6293 185.355 44.288V40.608L180.139 29.76C179.136 29.4187 178.453 29.024 178.091 28.576L178.379 26.08V26.048L178.411 25.92H185.899L186.219 28.576C185.963 28.9387 185.472 29.2587 184.747 29.536L185.835 32C186.453 33.408 186.987 34.8053 187.435 36.192L187.659 36.832H188.139C188.587 35.2747 189.173 33.664 189.899 32L190.923 29.664C190.069 29.3227 189.493 28.96 189.195 28.576L189.515 25.92H196.811L197.131 28.576C196.704 29.0667 196 29.472 195.019 29.792L189.963 40.608V44.288C190.816 44.6293 191.403 44.9813 191.723 45.344L191.403 48ZM206.639 25.92C209.157 25.92 210.981 26.08 212.111 26.4C213.263 26.6987 214.085 27.0613 214.575 27.488C215.663 28.4267 216.207 29.8667 216.207 31.808C216.207 33.2587 215.429 34.6347 213.871 35.936C215.855 36.9387 216.847 38.8053 216.847 41.536C216.847 43.6693 216.143 45.2587 214.735 46.304C213.349 47.328 211.269 47.8933 208.495 48H199.375L199.055 45.344C199.333 44.9813 199.919 44.6293 200.815 44.288V29.664C199.941 29.344 199.354 28.9813 199.055 28.576L199.375 25.92H206.639ZM208.271 38.432H205.423V44.512H207.631C209.082 44.512 210.181 44.2987 210.927 43.872C211.674 43.4453 212.047 42.6773 212.047 41.568C212.047 40.4587 211.749 39.6587 211.151 39.168C210.575 38.6773 209.615 38.432 208.271 38.432ZM207.087 29.408H205.423V34.944H208.047C209.135 34.944 209.967 34.6667 210.543 34.112C211.119 33.5573 211.407 32.8853 211.407 32.096C211.407 31.2853 211.205 30.6773 210.799 30.272C210.394 29.8667 209.925 29.6213 209.391 29.536C208.858 29.4507 208.09 29.408 207.087 29.408ZM236.797 40C236.797 42.7947 236.157 44.8747 234.877 46.24C233.619 47.584 231.571 48.256 228.733 48.256C225.896 48.256 223.901 47.5947 222.749 46.272C221.619 44.928 221.053 42.8373 221.053 40V29.664C220.243 29.3653 219.656 29.0027 219.293 28.576L219.613 25.92H227.101L227.421 28.576C227.08 28.9813 226.493 29.344 225.661 29.664V40.128C225.661 41.664 225.907 42.8053 226.397 43.552C226.909 44.2773 227.816 44.64 229.117 44.64C230.419 44.64 231.336 44.2667 231.869 43.52C232.403 42.752 232.669 41.6213 232.669 40.128V29.664C231.795 29.344 231.208 28.9813 230.909 28.576L231.229 25.92H238.237L238.557 28.576C238.216 28.9813 237.629 29.344 236.797 29.664V40ZM256.062 48H241.407L241.087 45.344C241.364 44.9813 241.951 44.6293 242.847 44.288V29.664C241.972 29.344 241.385 28.9813 241.087 28.576L241.407 25.92H248.895L249.215 28.576C248.873 28.9813 248.287 29.344 247.455 29.664V44.512H252.511C252.788 43.4027 253.183 42.6133 253.695 42.144L256.062 42.432V48ZM273.125 48H258.469L258.149 45.344C258.426 44.9813 259.013 44.6293 259.909 44.288V29.664C259.034 29.344 258.448 28.9813 258.149 28.576L258.469 25.92H265.957L266.277 28.576C265.936 28.9813 265.349 29.344 264.517 29.664V44.512H269.573C269.85 43.4027 270.245 42.6133 270.757 42.144L273.125 42.432V48Z" fill="#140346"/>
<g filter="url(#filter0_d_968_7166)">
<circle cx="36.5" cy="36.5" r="27.5" fill="url(#paint0_linear_968_7166)"/>
</g>
<path d="M40.7079 19.6495C43.5504 20.533 45.1072 21.3528 47.7842 23.3827C50.9868 26.422 52.4405 28.1366 53.5232 30.9604C53.5266 30.9673 53.5302 30.9722 53.5333 30.9756C53.5426 30.9857 53.548 30.9819 53.5333 30.9756C53.5185 30.9693 53.4835 30.9604 53.4118 30.9604C53.2446 30.9605 51.1513 29.9454 49.6786 29.066C46.6893 27.7406 45.6844 27.271 42.9923 26.4472C40.815 25.7913 39.5705 25.4724 37.1976 25.2214C36.3805 25.1538 35.9037 25.1847 34.9688 25.5557C34.2662 25.837 33.886 26.0549 33.2972 26.8372C32.7207 27.4282 32.508 27.8541 32.4615 28.8988C32.5564 29.9784 32.6696 30.4973 33.0744 31.1276C33.6483 31.8729 34.0295 32.1671 34.7459 32.632C36.5044 33.5511 37.8007 33.9654 40.3178 34.6379C41.9397 35.0949 42.8409 35.5922 44.441 36.6995C45.6169 37.6115 46.1247 38.2751 46.8927 39.5969C47.4052 40.4348 47.5886 40.9322 47.6727 41.8814C47.9284 43.0791 48.0053 43.7367 47.7842 44.8345C47.7442 45.704 47.6388 46.1518 47.3384 46.8961C46.9261 47.9673 46.6733 48.4801 46.1683 49.1805C45.6033 49.9125 45.2769 50.4149 44.4967 51.1864C43.8193 51.8542 43.2815 52.2127 41.8222 52.8023C40.8287 53.3038 40.1367 53.4909 38.702 53.6938C36.8273 53.8665 35.8864 53.8852 34.5231 53.6938C33.4596 53.5925 32.9281 53.4908 32.0714 53.248C30.4997 52.8029 29.6481 52.4647 28.2268 51.7436C26.5069 50.8711 25.5573 50.1597 23.8807 48.6234C22.6523 47.4134 22.0023 46.7041 21.0391 45.2802C20.402 44.4501 20.0678 43.8841 19.5347 42.6057C19.4166 42.1606 19.427 41.9881 19.5347 41.7699C19.848 41.9356 20.089 42.1081 20.5376 42.4386C23.091 43.786 24.5368 44.419 27.391 45.5588C29.5131 46.3429 30.8353 46.731 33.4087 47.3418C35.0979 47.7259 36.0629 47.758 37.8105 47.5647C38.5239 47.4069 38.9155 47.2159 39.5935 46.6175C40.0764 46.1645 40.3094 45.8546 40.5964 45.1131C40.8036 44.4835 40.8341 44.0274 40.7079 42.9957C40.6592 42.551 40.5746 42.2737 39.9278 41.3799C39.5153 40.855 39.1665 40.5541 37.9776 39.9312L32.2386 38.0368C30.5088 37.3926 29.5228 36.7896 27.7253 35.1951C26.8775 34.2303 26.4562 33.5611 25.8309 32.0748C25.4114 30.4908 25.3264 29.6011 25.4966 28.0073C25.5876 26.8442 25.7267 26.1414 26.5552 24.5528C27.1885 23.3165 27.6914 22.6613 29.0069 21.5997C30.3334 20.5362 31.3872 20.0259 33.7987 19.2595C36.9362 19.0145 38.4603 19.0877 40.7079 19.6495Z" fill="white"/>
<defs>
<filter id="filter0_d_968_7166" x="0.4" y="0.4" width="72.2" height="72.2" filterUnits="userSpaceOnUse" color-interpolation-filters="sRGB">
<feFlood flood-opacity="0" result="BackgroundImageFix"/>
<feColorMatrix in="SourceAlpha" type="matrix" values="0 0 0 0 0 0 0 0 0 0 0 0 0 0 0 0 0 0 127 0" result="hardAlpha"/>
<feOffset/>
<feGaussianBlur stdDeviation="4.3"/>
<feComposite in2="hardAlpha" operator="out"/>
<feColorMatrix type="matrix" values="0 0 0 0 0 0 0 0 0 0 0 0 0 0 0 0 0 0 0.25 0"/>
<feBlend mode="normal" in2="BackgroundImageFix" result="effect1_dropShadow_968_7166"/>
<feBlend mode="normal" in="SourceGraphic" in2="effect1_dropShadow_968_7166" result="shape"/>
</filter>
<linearGradient id="paint0_linear_968_7166" x1="36.5" y1="9" x2="36.5" y2="64" gradientUnits="userSpaceOnUse">
<stop stop-color="#5831C8"/>
<stop offset="1" stop-color="#2E62E8"/>
</linearGradient>
</defs>
</svg>
