<svg width="16" height="12" viewBox="0 0 16 12" fill="none" xmlns="http://www.w3.org/2000/svg">
<path d="M15.8591 1.17878L11.0066 6L15.8591 10.8212C15.9468 10.6379 16 10.4352 16 10.2187V1.78125C16 1.56478 15.9468 1.36212 15.8591 1.17878ZM14.5938 0.375H1.40625C1.18978 0.375 0.987125 0.428219 0.803781 0.515938L7.00575 6.68666C7.55413 7.23503 8.44588 7.23503 8.99425 6.68666L15.1962 0.515938C15.0129 0.428219 14.8102 0.375 14.5938 0.375ZM0.140938 1.17878C0.0532188 1.36212 0 1.56478 0 1.78125V10.2187C0 10.4352 0.0532188 10.6379 0.140938 10.8212L4.99341 6L0.140938 1.17878Z" fill="url(#paint0_linear_849_1510)"/>
<path d="M10.3437 6.66284L9.65702 7.3495C8.7433 8.26322 7.25652 8.26322 6.3428 7.3495L5.65618 6.66284L0.803711 11.4841C0.987055 11.5718 1.18971 11.625 1.40618 11.625H14.5937C14.8101 11.625 15.0128 11.5718 15.1961 11.4841L10.3437 6.66284Z" fill="url(#paint1_linear_849_1510)"/>
<defs>
<linearGradient id="paint0_linear_849_1510" x1="-7.75758" y1="1.56207" x2="16.7989" y2="16.3364" gradientUnits="userSpaceOnUse">
<stop stop-color="#3B4EF4"/>
<stop offset="0.5" stop-color="#5868F8"/>
<stop offset="1" stop-color="#978FFD"/>
</linearGradient>
<linearGradient id="paint1_linear_849_1510" x1="-6.17444" y1="7.22672" x2="6.91713" y2="22.1422" gradientUnits="userSpaceOnUse">
<stop stop-color="#3B4EF4"/>
<stop offset="0.5" stop-color="#5868F8"/>
<stop offset="1" stop-color="#978FFD"/>
</linearGradient>
</defs>
</svg>
