<svg width="34" height="34" viewBox="0 0 34 34" fill="none" xmlns="http://www.w3.org/2000/svg">
<path d="M8.44105 11.7421C8.37947 11.7432 8.31828 11.7321 8.26098 11.7096C8.20368 11.687 8.15138 11.6534 8.10708 11.6106C8.0176 11.5242 7.96612 11.4058 7.96394 11.2814C7.96176 11.1571 8.00908 11.0369 8.09548 10.9475C8.18187 10.858 8.30028 10.8065 8.42464 10.8043C10.7254 10.7786 13.0212 10.5843 15.2936 10.2229C15.334 10.2145 15.3753 10.2116 15.4165 10.2144C15.986 10.2446 16.5386 10.4188 17.0225 10.7209C17.1023 10.7789 17.1619 10.8607 17.1926 10.9545C17.2232 11.0484 17.2235 11.1496 17.1933 11.2436C17.1631 11.3376 17.104 11.4197 17.0244 11.4781C16.9448 11.5366 16.8488 11.5684 16.75 11.5691C16.6396 11.5691 16.5325 11.5312 16.4466 11.4617C16.1305 11.2805 15.7765 11.1757 15.4127 11.1555C13.1099 11.5173 10.7841 11.7134 8.45324 11.7421H8.44105Z" />
<path d="M25.5931 22.8972C25.193 22.8977 24.8031 22.7713 24.4794 22.5362L24.3786 22.4663C24.3588 22.4522 24.3401 22.4365 24.3228 22.4194L18.8033 18.4445C18.7518 18.4093 18.7078 18.3642 18.6739 18.3118C18.6401 18.2594 18.617 18.2008 18.606 18.1394C18.5951 18.078 18.5965 18.015 18.6102 17.9541C18.624 17.8933 18.6497 17.8357 18.6859 17.7849C18.7221 17.7342 18.7681 17.6911 18.8212 17.6583C18.8743 17.6255 18.9334 17.6036 18.995 17.594C19.0566 17.5843 19.1196 17.587 19.1802 17.602C19.2407 17.617 19.2977 17.6439 19.3477 17.6811L19.7229 17.9484L24.8878 21.6729C24.9033 21.684 24.918 21.696 24.9319 21.709L25.0215 21.7714C25.2249 21.9171 25.4764 21.9793 25.7243 21.945C25.9722 21.9107 26.1975 21.7826 26.3536 21.5871C26.4494 21.4662 26.5147 21.324 26.544 21.1725C26.5733 21.021 26.5658 20.8647 26.522 20.7168C26.4693 20.5305 26.3604 20.3649 26.2101 20.2427L18.8277 14.2281C16.0007 15.7286 13.998 14.9568 13.0419 14.3458C12.8839 14.243 12.7556 14.1005 12.6699 13.9326C12.5841 13.7647 12.5438 13.5773 12.5531 13.389C12.5623 13.2007 12.6208 13.0181 12.7226 12.8595C12.8244 12.7008 12.966 12.5716 13.1334 12.4847L17.3591 10.2406C17.6288 10.0995 17.9238 10.0131 18.2271 9.98658C18.5303 9.96002 18.8358 9.99375 19.1259 10.0858L21.6257 10.897C22.3616 11.1391 23.1598 11.1103 23.8764 10.8159L24.9652 10.37C25.0222 10.3466 25.0832 10.3347 25.1448 10.3349C25.2064 10.3351 25.2674 10.3475 25.3242 10.3713C25.381 10.395 25.4326 10.4298 25.476 10.4735C25.5194 10.5172 25.5538 10.569 25.5771 10.626C25.6005 10.683 25.6124 10.744 25.6122 10.8056C25.612 10.8672 25.5996 10.9282 25.5758 10.985C25.5521 11.0418 25.5173 11.0934 25.4736 11.1368C25.4299 11.1802 25.3781 11.2145 25.3211 11.2379L24.2332 11.6834C23.3105 12.0632 22.2823 12.1005 21.3345 11.7884L18.8371 10.9777C18.666 10.9239 18.4861 10.9046 18.3075 10.9207C18.1289 10.9368 17.9553 10.988 17.7966 11.0715L13.5699 13.3161C13.5464 13.3272 13.5264 13.3446 13.5121 13.3664C13.4979 13.3881 13.49 13.4134 13.4893 13.4394C13.4873 13.4629 13.4919 13.4865 13.5025 13.5076C13.5131 13.5287 13.5293 13.5465 13.5493 13.559C14.534 14.1883 16.2244 14.6497 18.6444 13.2594C18.7267 13.2121 18.8214 13.1909 18.916 13.1986C19.0106 13.2063 19.1007 13.2425 19.1742 13.3025L26.7986 19.5155C27.0976 19.7567 27.315 20.0841 27.4213 20.4533C27.5055 20.7438 27.5197 21.0502 27.4626 21.3473C27.4056 21.6444 27.2789 21.9237 27.0931 22.1624C26.916 22.3916 26.6887 22.5771 26.4286 22.7045C26.1685 22.8319 25.8827 22.8978 25.5931 22.8972Z"/>
<path d="M23.653 25.0706C23.2557 25.071 22.8681 24.9476 22.5441 24.7175L17.4752 21.121C17.3762 21.0482 17.3097 20.9393 17.2902 20.8179C17.2706 20.6965 17.2995 20.5723 17.3706 20.472C17.4418 20.3717 17.5495 20.3034 17.6705 20.2818C17.7915 20.2601 17.9162 20.2869 18.0177 20.3563L23.0866 23.9523C23.2993 24.0912 23.5574 24.1425 23.807 24.0956C24.0567 24.0487 24.2785 23.9071 24.4262 23.7004C24.5739 23.4938 24.636 23.238 24.5996 22.9867C24.5632 22.7353 24.431 22.5077 24.2307 22.3515L19.1788 18.7104C19.0856 18.6351 19.0249 18.527 19.0089 18.4083C18.993 18.2896 19.0231 18.1693 19.093 18.072C19.1629 17.9748 19.2674 17.908 19.385 17.8854C19.5027 17.8628 19.6245 17.886 19.7255 17.9503L24.7789 21.5918C25.1078 21.83 25.3529 22.1662 25.479 22.5522C25.605 22.9382 25.6056 23.3543 25.4807 23.7406C25.3557 24.127 25.1116 24.4639 24.7834 24.703C24.4551 24.9421 24.0596 25.0711 23.6535 25.0716L23.653 25.0706Z" />
<path d="M21.4649 26.9499C21.0874 26.9498 20.7191 26.8341 20.4094 26.6184L15.8671 23.472C15.7648 23.4012 15.6949 23.2926 15.6726 23.1702C15.6504 23.0478 15.6776 22.9216 15.7485 22.8193C15.8193 22.717 15.9278 22.6471 16.0503 22.6248C16.1727 22.6026 16.2989 22.6298 16.4012 22.7007L20.9435 25.847C21.0432 25.916 21.1556 25.9647 21.2741 25.9902C21.3927 26.0158 21.5151 26.0177 21.6344 25.996C21.7537 25.9742 21.8676 25.9291 21.9695 25.8633C22.0714 25.7976 22.1593 25.7123 22.2282 25.6126C22.3655 25.4125 22.4188 25.1666 22.3767 24.9277C22.3346 24.6888 22.2005 24.4759 22.0032 24.3348L17.4829 21.1284C17.4316 21.0933 17.3877 21.0483 17.3539 20.996C17.3201 20.9437 17.297 20.8852 17.286 20.8239C17.2751 20.7627 17.2764 20.6998 17.29 20.639C17.3036 20.5783 17.3291 20.5208 17.3652 20.4701C17.4012 20.4193 17.447 20.3762 17.4998 20.3433C17.5527 20.3104 17.6115 20.2883 17.673 20.2784C17.7345 20.2685 17.7973 20.271 17.8578 20.2856C17.9183 20.3002 17.9753 20.3268 18.0255 20.3637L22.5457 23.57C22.9436 23.8544 23.214 24.2834 23.299 24.765C23.384 25.2467 23.2766 25.7424 23.0001 26.1457C22.8619 26.3473 22.6851 26.5194 22.4799 26.6523C22.2748 26.7851 22.0453 26.8759 21.8048 26.9194C21.6927 26.9399 21.5789 26.9501 21.4649 26.9499Z"/>
<path d="M18.7853 28.4913C18.4572 28.4897 18.1353 28.4021 17.8517 28.2371L15.3304 26.7835C15.2236 26.7209 15.1459 26.6186 15.1142 26.4989C15.0826 26.3792 15.0995 26.2518 15.1615 26.1446C15.2234 26.0373 15.3252 25.9589 15.4447 25.9265C15.5642 25.8941 15.6917 25.9102 15.7993 25.9714L18.3201 27.425C18.5332 27.5453 18.7849 27.5775 19.0215 27.5148C19.258 27.4521 19.4607 27.2994 19.5862 27.0893C19.7054 26.8879 19.7433 26.6486 19.6921 26.4202C19.641 26.1918 19.5047 25.9916 19.3109 25.8603L16.0895 23.6288C16.0389 23.5937 15.9957 23.549 15.9624 23.4972C15.929 23.4455 15.9062 23.3876 15.8952 23.327C15.8842 23.2665 15.8853 23.2043 15.8983 23.1441C15.9113 23.0839 15.9361 23.0269 15.9711 22.9763C16.0062 22.9257 16.0509 22.8824 16.1027 22.8491C16.1544 22.8158 16.2123 22.7929 16.2729 22.7819C16.3335 22.771 16.3956 22.772 16.4558 22.785C16.516 22.7981 16.573 22.8228 16.6236 22.8579L19.8445 25.0889C20.1715 25.3153 20.4177 25.6401 20.5472 26.0161C20.6766 26.3921 20.6827 26.7997 20.5644 27.1794C20.4462 27.5591 20.2098 27.8911 19.8897 28.1271C19.5696 28.363 19.183 28.4906 18.7853 28.4913Z" />
<path d="M13.4758 28.2112C13.0921 28.2118 12.7175 28.0953 12.4018 27.8773C12.0861 27.6593 11.8445 27.3502 11.7091 26.9913C11.5738 26.6324 11.5512 26.2407 11.6443 25.8685C11.7374 25.4964 11.9419 25.1615 12.2303 24.9087L13.4828 23.8114C13.6689 23.6481 13.8854 23.5229 14.1199 23.4432C14.3543 23.3634 14.6022 23.3307 14.8494 23.3467C15.0965 23.3628 15.3381 23.4274 15.5603 23.5368C15.7824 23.6462 15.9809 23.7984 16.1443 23.9845C16.3077 24.1706 16.4328 24.3871 16.5125 24.6216C16.5921 24.8561 16.6249 25.104 16.6088 25.3512C16.5927 25.5983 16.528 25.8399 16.4186 26.062C16.3091 26.2842 16.1569 26.4826 15.9708 26.646L14.7184 27.7456C14.3746 28.0468 13.9328 28.2123 13.4758 28.2112ZM14.7263 24.2804C14.4964 24.2798 14.2741 24.3631 14.1013 24.5148L12.8484 25.6134C12.7548 25.6956 12.6783 25.7953 12.6232 25.907C12.5682 26.0187 12.5356 26.1401 12.5275 26.2643C12.5194 26.3886 12.5358 26.5132 12.5759 26.6311C12.6159 26.749 12.6788 26.8579 12.7609 26.9515C12.843 27.0451 12.9428 27.1216 13.0545 27.1766C13.1661 27.2317 13.2876 27.2642 13.4118 27.2723C13.5361 27.2804 13.6607 27.264 13.7786 27.2239C13.8965 27.1839 14.0053 27.121 14.0989 27.0389L15.3514 25.9393C15.4958 25.8122 15.5982 25.644 15.6447 25.4573C15.6913 25.2705 15.6799 25.074 15.612 24.8939C15.5442 24.7138 15.4231 24.5586 15.2648 24.449C15.1066 24.3394 14.9188 24.2806 14.7263 24.2804Z"/>
<path d="M10.6372 26.9341C10.5954 26.9341 10.5537 26.9341 10.512 26.9304C10.2647 26.9149 10.0229 26.8505 9.80061 26.7411C9.57832 26.6316 9.37991 26.4792 9.21686 26.2926C9.05124 26.1065 8.924 25.8894 8.84247 25.654C8.76093 25.4185 8.7267 25.1693 8.74173 24.9206C8.75676 24.6718 8.82076 24.4285 8.93006 24.2046C9.03935 23.9807 9.1918 23.7805 9.37863 23.6157L11.4709 21.779C11.657 21.6156 11.8735 21.4904 12.108 21.4107C12.3424 21.331 12.5903 21.2982 12.8375 21.3143C13.0846 21.3303 13.3262 21.3949 13.5483 21.5044C13.7705 21.6138 13.969 21.7659 14.1324 21.952L13.7934 22.277L14.1455 21.9675C14.309 22.1536 14.4342 22.37 14.5139 22.6045C14.5937 22.839 14.6265 23.0869 14.6104 23.3341C14.5943 23.5812 14.5297 23.8228 14.4203 24.045C14.3108 24.2672 14.1587 24.4656 13.9725 24.629L11.8784 26.4657C11.5357 26.7682 11.0942 26.9348 10.6372 26.9341ZM12.7121 22.2479C12.4824 22.2473 12.2604 22.3306 12.088 22.4823L9.99571 24.319C9.85564 24.4455 9.75584 24.6104 9.70875 24.7931C9.66167 24.9759 9.66936 25.1684 9.73088 25.3469C9.7924 25.5253 9.90503 25.6817 10.0548 25.7965C10.2045 25.9114 10.3847 25.9798 10.5729 25.993C10.6973 26.0015 10.8221 25.9852 10.94 25.9449C11.058 25.9047 11.1667 25.8413 11.2599 25.7586L13.3521 23.9219C13.4457 23.8397 13.5223 23.74 13.5773 23.6283C13.6324 23.5165 13.6649 23.3951 13.673 23.2708C13.6811 23.1465 13.6646 23.0219 13.6245 22.904C13.5844 22.7861 13.5215 22.6772 13.4393 22.5836L13.4257 22.5681C13.3439 22.4749 13.2444 22.3988 13.1331 22.3441C13.0217 22.2895 12.9006 22.2574 12.7768 22.2498C12.7551 22.2488 12.7333 22.2484 12.7116 22.2484L12.7121 22.2479Z"/>
<path d="M8.27126 25.2128C8.22999 25.2128 8.18826 25.2128 8.14606 25.2091C7.89877 25.1936 7.65699 25.1293 7.43469 25.0198C7.2124 24.9104 7.014 24.758 6.85095 24.5714L6.79984 24.5104C6.47025 24.1345 6.30343 23.643 6.33605 23.1441C6.36867 22.6452 6.59807 22.1797 6.9738 21.8499L9.39944 19.7206C9.58553 19.5571 9.802 19.4319 10.0365 19.3522C10.271 19.2724 10.5189 19.2396 10.766 19.2557C11.0132 19.2717 11.2548 19.3364 11.477 19.4458C11.6991 19.5553 11.8976 19.7074 12.0609 19.8936L12.1139 19.9541C12.4436 20.33 12.6105 20.8215 12.5779 21.3204C12.5453 21.8193 12.3158 22.2849 11.94 22.6147L9.51432 24.7439C9.17124 25.047 8.72901 25.2138 8.27126 25.2128ZM10.6406 20.19C10.411 20.1894 10.189 20.2727 10.0165 20.4244L7.59088 22.5537C7.40168 22.7197 7.28616 22.954 7.26972 23.2051C7.25327 23.4563 7.33726 23.7037 7.50319 23.8929L7.55618 23.9534C7.72224 24.1421 7.95639 24.2571 8.20722 24.2733C8.45805 24.2895 8.70504 24.2054 8.89396 24.0396L11.3196 21.9104C11.4132 21.8282 11.4897 21.7285 11.5448 21.6167C11.5998 21.505 11.6323 21.3836 11.6404 21.2593C11.6485 21.135 11.6321 21.0104 11.592 20.8925C11.5519 20.7746 11.489 20.6657 11.4068 20.5721L11.3548 20.5126C11.2729 20.4189 11.1732 20.3424 11.0616 20.2875C10.95 20.2327 10.8286 20.2004 10.7044 20.1928C10.6832 20.1909 10.6619 20.19 10.6406 20.19Z"/>
<path d="M6.23205 23.1256C6.19079 23.1256 6.14859 23.1256 6.10686 23.1214C5.73229 23.0978 5.37313 22.9637 5.07477 22.736C4.77641 22.5083 4.55224 22.1973 4.43059 21.8423C4.30895 21.4872 4.29529 21.1041 4.39134 20.7413C4.48739 20.3785 4.68884 20.0523 4.97023 19.8039L6.48901 18.4708C6.6751 18.3074 6.89157 18.1822 7.12606 18.1024C7.36054 18.0226 7.60845 17.9899 7.85561 18.0059C8.10277 18.022 8.34434 18.0866 8.56653 18.1961C8.78871 18.3055 8.98715 18.4577 9.15051 18.6438L9.16692 18.6626C9.33038 18.8487 9.45556 19.0652 9.53533 19.2996C9.6151 19.5341 9.64789 19.782 9.63182 20.0292C9.61575 20.2764 9.55114 20.5179 9.44169 20.7401C9.33223 20.9623 9.18007 21.1607 8.9939 21.3241L7.47512 22.6572C7.13199 22.9601 6.68975 23.1268 6.23205 23.1256ZM7.73255 18.9397C7.50288 18.9391 7.28092 19.0225 7.10844 19.1742L5.58966 20.5073C5.49604 20.5894 5.41952 20.6892 5.36447 20.8009C5.30942 20.9126 5.27692 21.0341 5.26882 21.1583C5.26072 21.2826 5.27718 21.4073 5.31727 21.5252C5.35735 21.6431 5.42027 21.7519 5.50244 21.8455C5.58395 21.9421 5.68382 22.0215 5.79625 22.0791C5.90868 22.1368 6.03143 22.1715 6.1574 22.1814C6.28337 22.1912 6.41003 22.176 6.53006 22.1365C6.65009 22.0971 6.76109 22.0342 6.85663 21.9515L8.37541 20.6184C8.46903 20.5363 8.54555 20.4365 8.6006 20.3248C8.65565 20.2131 8.68815 20.0916 8.69625 19.9673C8.70435 19.8431 8.68789 19.7184 8.6478 19.6005C8.60772 19.4826 8.54479 19.3737 8.46263 19.2802L8.44622 19.2614C8.36431 19.1676 8.26461 19.091 8.15289 19.036C8.04117 18.9811 7.91966 18.9488 7.79538 18.9411L7.7302 18.9397H7.73255Z"/>
<path d="M5.3821 20.5352C5.28061 20.5354 5.18183 20.5025 5.10076 20.4414L3.49852 19.2222C3.4495 19.185 3.40831 19.1384 3.37729 19.0852C3.34628 19.032 3.32604 18.9732 3.31775 18.9122C3.30945 18.8511 3.31326 18.7891 3.32895 18.7295C3.34464 18.67 3.37191 18.6141 3.40919 18.5651C3.48449 18.4661 3.59603 18.4011 3.71928 18.3843C3.7803 18.376 3.84236 18.3798 3.90191 18.3955C3.96146 18.4112 4.01734 18.4385 4.06636 18.4758L5.6686 19.6949C5.74753 19.7541 5.80578 19.8367 5.83505 19.9309C5.86433 20.0251 5.86315 20.1261 5.83167 20.2196C5.80019 20.3131 5.74002 20.3943 5.65973 20.4517C5.57943 20.509 5.4831 20.5395 5.38445 20.5389L5.3821 20.5352ZM26.9714 21.0547C26.8786 21.0547 26.788 21.0272 26.7109 20.9757C26.6338 20.9241 26.5737 20.8509 26.5383 20.7652C26.5028 20.6796 26.4935 20.5853 26.5116 20.4944C26.5297 20.4034 26.5743 20.3199 26.6399 20.2543L29.2709 17.6223C29.3593 17.5369 29.4778 17.4897 29.6007 17.4907C29.7236 17.4918 29.8413 17.5411 29.9282 17.6281C30.0151 17.715 30.0644 17.8326 30.0655 17.9556C30.0666 18.0785 30.0193 18.1969 29.9339 18.2854L27.3029 20.9164C27.2594 20.9601 27.2078 20.9948 27.1509 21.0186C27.094 21.0423 27.033 21.0546 26.9714 21.0547Z"/>
<path d="M30.559 20.0816C30.4788 20.0817 30.4 20.0613 30.3299 20.0222C30.2599 19.9831 30.2011 19.9267 30.1591 19.8584L24.4337 10.546C24.3733 10.4475 24.3513 10.3301 24.3721 10.2164C24.3928 10.1027 24.4549 10.0006 24.5463 9.92988L30.2167 5.53813C30.279 5.48992 30.3524 5.45816 30.4301 5.44578C30.5079 5.43339 30.5875 5.44079 30.6616 5.46728C30.7358 5.49377 30.802 5.5385 30.8543 5.59734C30.9066 5.65619 30.9433 5.72726 30.9609 5.80399L33.7495 17.9706C33.7726 18.0696 33.7629 18.1735 33.7219 18.2665C33.6809 18.3596 33.6107 18.4367 33.522 18.4864L30.7879 20.023C30.7179 20.0619 30.6391 20.0821 30.559 20.0816ZM25.4531 10.4128L30.7217 18.9821L32.7573 17.8379L30.2111 6.72867L25.4531 10.4128ZM3.20319 20.2481C3.12288 20.2481 3.04393 20.2274 2.9739 20.1881L0.239723 18.6538C0.15102 18.6041 0.0808726 18.527 0.0398533 18.4339C-0.001166 18.3409 -0.0108346 18.237 0.0123047 18.138L2.80134 5.9728C2.81895 5.89606 2.85559 5.82499 2.90789 5.76615C2.9602 5.7073 3.02647 5.66257 3.10061 5.63608C3.17475 5.60959 3.25437 5.6022 3.33212 5.61458C3.40987 5.62696 3.48325 5.65872 3.54549 5.70693L9.21642 10.0982C9.30782 10.169 9.36987 10.271 9.39064 10.3847C9.41141 10.4985 9.38944 10.6158 9.32895 10.7144L3.60317 20.0268C3.56092 20.0947 3.50199 20.1507 3.43198 20.1895C3.36197 20.2282 3.28321 20.2484 3.20319 20.2481ZM1.00497 18.0077L3.04048 19.1513L8.30909 10.5817L3.55112 6.89748L1.00497 18.0077Z"/>
</svg>
