<svg width="30" height="30" viewBox="0 0 30 30" fill="none" xmlns="http://www.w3.org/2000/svg">
<path d="M15 14.6875C17.585 14.6875 19.6875 12.5837 19.6875 10C19.6875 7.41625 17.585 5.3125 15 5.3125C12.415 5.3125 10.3125 7.41625 10.3125 10C10.3125 12.5837 12.415 14.6875 15 14.6875Z" fill="url(#paint0_linear_1018_1386)"/>
<path d="M23.125 16.6663C25.0488 16.6663 26.615 15.1012 26.615 13.1775C26.615 11.2537 25.0488 9.6875 23.125 9.6875C21.2013 9.6875 19.635 11.2537 19.635 13.1775C19.635 15.1012 21.2013 16.6663 23.125 16.6663ZM6.87501 16.6663C8.79876 16.6663 10.365 15.1012 10.365 13.1775C10.365 11.2537 8.79876 9.6875 6.87501 9.6875C4.95126 9.6875 3.38501 11.2537 3.38501 13.1775C3.38501 15.1012 4.95126 16.6663 6.87501 16.6663Z" fill="url(#paint1_linear_1018_1386)"/>
<path fill-rule="evenodd" clip-rule="evenodd" d="M15 15.3125C13.0938 15.3125 11.2656 16.0698 9.91767 17.4177C8.56975 18.7656 7.8125 20.5938 7.8125 22.5V23.75C7.8125 24.2675 8.2325 24.6875 8.75 24.6875H21.25C21.4986 24.6875 21.7371 24.5887 21.9129 24.4129C22.0887 24.2371 22.1875 23.9986 22.1875 23.75V22.5C22.1875 20.5938 21.4302 18.7656 20.0823 17.4177C18.7344 16.0698 16.9062 15.3125 15 15.3125Z" fill="url(#paint2_linear_1018_1386)"/>
<path d="M6.875 17.8125C5.46655 17.8142 4.11625 18.3744 3.12032 19.3703C2.12439 20.3663 1.56415 21.7165 1.5625 23.125C1.5625 23.9862 2.26375 24.6875 3.125 24.6875H6.5875C6.16421 24.0364 5.93845 23.2766 5.9375 22.5C5.9375 20.7925 6.42125 19.1987 7.245 17.835C7.1225 17.8262 7 17.8125 6.875 17.8125ZM23.125 17.8125C23 17.8125 22.8775 17.8262 22.755 17.835C23.6093 19.2412 24.0615 20.8547 24.0625 22.5C24.0625 23.3075 23.82 24.055 23.4125 24.6875H26.875C27.7362 24.6875 28.4375 23.9862 28.4375 23.125C28.4358 21.7165 27.8756 20.3663 26.8797 19.3703C25.8837 18.3744 24.5335 17.8142 23.125 17.8125Z" fill="url(#paint3_linear_1018_1386)"/>
<defs>
<linearGradient id="paint0_linear_1018_1386" x1="5.90909" y1="6.30682" x2="19.3411" y2="2.94482" gradientUnits="userSpaceOnUse">
<stop stop-color="#8B97FF"/>
<stop offset="1" stop-color="#EDEFFF"/>
</linearGradient>
<linearGradient id="paint1_linear_1018_1386" x1="-7.52605" y1="10.4277" x2="13.3505" y2="-6.96573" gradientUnits="userSpaceOnUse">
<stop stop-color="#8B97FF"/>
<stop offset="1" stop-color="#EDEFFF"/>
</linearGradient>
<linearGradient id="paint2_linear_1018_1386" x1="1.06061" y1="16.3068" x2="20.1369" y2="8.98556" gradientUnits="userSpaceOnUse">
<stop stop-color="#8B97FF"/>
<stop offset="1" stop-color="#EDEFFF"/>
</linearGradient>
<linearGradient id="paint3_linear_1018_1386" x1="-11.0606" y1="18.5417" x2="9.84416" y2="-1.91222" gradientUnits="userSpaceOnUse">
<stop stop-color="#8B97FF"/>
<stop offset="1" stop-color="#EDEFFF"/>
</linearGradient>
</defs>
</svg>
