<svg width="24" height="24" viewBox="0 0 24 24" fill="none" xmlns="http://www.w3.org/2000/svg">
<g clip-path="url(#clip0_477_465)">
<path d="M11.1564 15.9216C11.2369 15.8409 11.2822 15.7316 11.2822 15.6176C11.2822 15.5036 11.2369 15.3943 11.1564 15.3136C10.9885 15.1461 10.7166 15.1461 10.5486 15.3136C10.3811 15.4816 10.3811 15.7535 10.5486 15.9216C10.7166 16.0891 10.9885 16.0891 11.1564 15.9216ZM9.12211 5.72523C9.12211 8.33068 11.2418 10.4506 13.8473 10.4506C16.4528 10.4506 18.5725 8.33068 18.5725 5.72523C18.5725 3.11978 16.4528 1 13.8473 1C11.2418 1 9.12211 3.11973 9.12211 5.72523ZM17.7135 5.72523C17.7135 7.85704 15.9791 9.59139 13.8473 9.59139C11.7155 9.59139 9.9811 7.85704 9.9811 5.72523C9.9811 3.59355 11.7155 1.8592 13.8473 1.8592C15.9791 1.8592 17.7135 3.59355 17.7135 5.72523Z" fill="white" stroke="white" stroke-width="0.2"/>
<path d="M5.99476 22.873C6.16127 23.0408 6.43236 23.0427 6.60105 22.8765L8.68366 20.8247C9.03751 20.4709 9.1451 19.9471 8.98951 19.4917L9.43746 19.0597C9.67715 18.8273 9.99809 18.6976 10.3319 18.6983H16.0426C17.0557 18.6983 18.0133 18.3092 18.7392 17.6028C18.7691 17.5737 18.5125 17.876 22.6351 12.9487C23.2465 12.2253 23.1551 11.139 22.431 10.5268C21.7114 9.92042 20.6335 10.0075 20.0204 10.7185L17.4856 13.3238C17.1655 12.9299 16.6774 12.6843 16.15 12.6843H11.3598C10.6782 12.3992 9.95494 12.2548 9.2087 12.2548C7.14018 12.2548 5.33395 13.2102 4.36466 15.0015C3.95628 14.9241 3.52557 15.0476 3.21576 15.3575L1.17221 17.407C1.00536 17.5744 1.00506 17.8451 1.17152 18.013L5.99476 22.873ZM9.20853 13.1139C9.86651 13.1139 10.5027 13.2463 11.0997 13.5075C11.154 13.5313 11.2126 13.5436 11.2719 13.5435H16.15C16.6158 13.5435 17.0092 13.9234 17.0092 14.4026C17.0092 14.8764 16.6239 15.2618 16.15 15.2618H12.6452C12.408 15.2618 12.2157 15.4542 12.2157 15.6913C12.2157 15.9287 12.408 16.1208 12.6452 16.1208H16.15C17.0975 16.1208 17.8682 15.3501 17.8682 14.4026C17.8682 14.327 17.8629 14.2522 17.8531 14.178C20.3052 11.6574 20.651 11.3033 20.6658 11.2857C20.9719 10.9243 21.5154 10.8785 21.8769 11.1833C22.2388 11.4893 22.2846 12.0324 21.9776 12.3958L18.1248 17.0018C17.5621 17.542 16.8234 17.8393 16.0426 17.8393H10.3319C9.77232 17.8393 9.2426 18.0532 8.8408 18.4415L8.47574 18.7938L5.11042 15.4286C5.89692 13.9531 7.37282 13.1139 9.20853 13.1139ZM3.82368 15.9646C3.96535 15.8229 4.1829 15.7974 4.35559 15.9041C4.42993 15.9495 4.21646 15.7551 8.07626 19.6095C8.24796 19.7812 8.23872 20.0548 8.07858 20.215L6.30311 21.9641L2.08229 17.711L3.82368 15.9646ZM13.3325 3.14795V3.65133C12.8325 3.82857 12.4733 4.30609 12.4733 4.86623C12.4733 5.57671 13.0514 6.15495 13.7621 6.15495C13.9989 6.15495 14.1916 6.34762 14.1916 6.58446C14.1916 6.8213 13.9989 7.01398 13.7621 7.01398C13.5786 7.01398 13.3804 6.89865 13.2043 6.689C13.0516 6.50742 12.7806 6.48404 12.5991 6.63667C12.4174 6.78938 12.3939 7.06034 12.5466 7.24193C12.7763 7.51499 13.0464 7.70534 13.3325 7.80138V8.30269C13.3325 8.54005 13.5249 8.73221 13.7621 8.73221C13.9992 8.73221 14.1916 8.54005 14.1916 8.30269V7.79932C14.6916 7.6219 15.0508 7.14439 15.0508 6.58446C15.0508 5.87376 14.4727 5.29574 13.7621 5.29574C13.5252 5.29574 13.3325 5.10303 13.3325 4.86623C13.3325 4.62938 13.5252 4.43654 13.7621 4.43654C13.9143 4.43654 14.0749 4.51423 14.2266 4.66109C14.3972 4.82609 14.6691 4.82154 14.8341 4.65121C14.9991 4.48062 14.9946 4.20876 14.8242 4.04376C14.6061 3.83279 14.3879 3.71342 14.1916 3.64832V3.14795C14.1916 2.91063 13.9992 2.71826 13.7621 2.71826C13.5249 2.71826 13.3325 2.91063 13.3325 3.14795Z" fill="white" stroke="white" stroke-width="0.2"/>
</g>
<defs>
<clipPath id="clip0_477_465">
<rect width="24" height="24" fill="white"/>
</clipPath>
</defs>
</svg>
