<svg width="70" height="70" viewBox="0 0 70 70" fill="none" xmlns="http://www.w3.org/2000/svg">
<circle cx="35" cy="35" r="35" fill="#7BE279"/>
<circle cx="35" cy="35" r="28" fill="white" fill-opacity="0.75"/>
<path d="M19.3261 19.456H22.8301C23.7061 19.456 24.4021 19.66 24.9181 20.056C25.4221 20.452 25.6861 21.076 25.6861 21.916C25.6861 23.644 24.7141 24.496 22.7701 24.496H20.4541V28H19.3261V19.456ZM20.4421 20.428V23.548H22.6141C23.2261 23.548 23.7061 23.44 24.0421 23.212C24.3781 22.984 24.5461 22.576 24.5461 21.988C24.5461 21.664 24.4981 21.388 24.3901 21.172C24.2821 20.956 24.1261 20.8 23.9101 20.692C23.7061 20.596 23.4901 20.524 23.2621 20.488C23.0461 20.452 22.7701 20.428 22.4581 20.428H20.4421ZM27.8993 19.456V22.684C28.3553 22 29.0273 21.652 29.9273 21.652C31.3193 21.652 32.0153 22.36 32.0153 23.764V28H30.9953V24.004C30.9953 23.536 30.8873 23.176 30.6953 22.924C30.5033 22.672 30.1433 22.54 29.6393 22.54C29.0153 22.54 28.5593 22.744 28.2953 23.14C28.0313 23.548 27.8993 24.112 27.8993 24.856V28H26.8793V19.456H27.8993ZM39.0313 27.184V27.988C38.8153 28.06 38.5873 28.108 38.3353 28.108C37.7473 28.108 37.4473 27.796 37.4353 27.196C36.8473 27.844 36.1033 28.18 35.1913 28.18C34.5793 28.18 34.0993 28.024 33.7393 27.712C33.3793 27.4 33.2113 26.968 33.2113 26.428C33.2113 25.324 33.9433 24.676 35.4073 24.496C35.5033 24.472 35.6353 24.46 35.8273 24.448C36.5233 24.364 36.9433 24.268 37.1113 24.172C37.2913 24.04 37.3873 23.824 37.3873 23.512C37.3873 22.828 36.9193 22.492 35.9833 22.492C35.5033 22.492 35.1313 22.588 34.8913 22.78C34.6393 22.972 34.4953 23.296 34.4473 23.752H33.4513C33.4633 23.08 33.7033 22.564 34.1593 22.204C34.6153 21.832 35.2393 21.652 36.0433 21.652C36.9073 21.652 37.5553 21.844 37.9873 22.252C38.1193 22.372 38.2153 22.54 38.2873 22.756C38.3473 22.96 38.3833 23.128 38.3953 23.26C38.3953 23.392 38.4073 23.596 38.4073 23.86C38.4073 24.16 38.3953 24.616 38.3833 25.228C38.3593 25.852 38.3593 26.308 38.3593 26.608C38.3593 26.836 38.3833 26.992 38.4433 27.088C38.5033 27.184 38.6113 27.22 38.7793 27.22C38.8393 27.22 38.9233 27.208 39.0313 27.184ZM37.3873 24.796C37.3153 24.844 37.2313 24.892 37.1593 24.94C37.0753 24.976 36.9673 25.012 36.8473 25.036C36.7273 25.06 36.6433 25.072 36.5953 25.084C36.5473 25.096 36.4513 25.108 36.2833 25.132C36.1153 25.156 36.0193 25.168 36.0193 25.168C35.7673 25.192 35.5993 25.216 35.5273 25.228C35.4553 25.24 35.3113 25.276 35.0953 25.336C34.8793 25.384 34.7353 25.456 34.6513 25.528C34.5553 25.6 34.4713 25.696 34.3873 25.84C34.3033 25.984 34.2673 26.152 34.2673 26.344C34.2673 26.656 34.3753 26.908 34.5913 27.1C34.8073 27.28 35.1193 27.376 35.5033 27.376C35.9833 27.376 36.4273 27.232 36.8113 26.944C37.1953 26.656 37.3873 26.308 37.3873 25.924V24.796ZM44.5886 23.608H43.5686C43.4966 22.864 42.9926 22.48 42.0566 22.48C41.6606 22.48 41.3486 22.564 41.1326 22.708C40.9046 22.864 40.7966 23.068 40.7966 23.32C40.7966 23.392 40.7966 23.464 40.8206 23.536C40.8326 23.608 40.8566 23.668 40.9046 23.716C40.9526 23.764 40.9886 23.812 41.0246 23.848C41.0606 23.896 41.1206 23.932 41.2046 23.968C41.2886 24.004 41.3486 24.028 41.3966 24.052C41.4446 24.076 41.5166 24.112 41.6366 24.136C41.7566 24.16 41.8406 24.184 41.8886 24.196C41.9366 24.208 42.0206 24.232 42.1646 24.256C42.3086 24.292 42.3926 24.316 42.4406 24.316C42.7286 24.388 42.9566 24.436 43.1006 24.472C43.2446 24.52 43.4486 24.592 43.7126 24.7C43.9766 24.808 44.1686 24.916 44.3126 25.036C44.4446 25.156 44.5646 25.312 44.6726 25.516C44.7806 25.72 44.8406 25.948 44.8406 26.2C44.8406 26.8 44.6006 27.292 44.1326 27.652C43.6646 28.012 43.0406 28.192 42.2726 28.192C41.4326 28.192 40.7846 28.012 40.3286 27.64C39.8726 27.28 39.6326 26.74 39.6086 26.044H40.6166C40.6646 26.92 41.2286 27.352 42.2966 27.352C42.7526 27.352 43.1126 27.268 43.3886 27.076C43.6646 26.884 43.8086 26.632 43.8086 26.32C43.8086 26.116 43.7366 25.948 43.5926 25.804C43.4486 25.672 43.2806 25.576 43.1126 25.516C42.9326 25.456 42.6806 25.384 42.3566 25.3C42.3086 25.3 42.2726 25.288 42.2486 25.276C42.1766 25.264 42.0206 25.228 41.7806 25.18C41.5406 25.132 41.3726 25.084 41.2766 25.048C41.1686 25.024 41.0126 24.976 40.8206 24.904C40.6286 24.832 40.4846 24.76 40.3886 24.688C40.2926 24.616 40.1846 24.52 40.0646 24.4C39.9446 24.28 39.8726 24.148 39.8246 23.992C39.7766 23.836 39.7526 23.656 39.7526 23.452C39.7526 22.9 39.9566 22.456 40.3886 22.12C40.8206 21.796 41.3966 21.628 42.1166 21.628C42.8366 21.628 43.4366 21.808 43.8926 22.144C44.3486 22.492 44.5886 22.984 44.5886 23.608ZM51.2846 26.044C50.9726 27.484 50.0726 28.204 48.5846 28.204C47.6726 28.204 46.9526 27.928 46.4366 27.352C45.9206 26.788 45.6686 25.996 45.6686 24.988C45.6686 23.992 45.9326 23.188 46.4606 22.564C46.9886 21.94 47.6846 21.628 48.5486 21.628C49.4966 21.628 50.2046 21.952 50.6606 22.6C51.1166 23.248 51.3566 24.052 51.3566 25.036V25.18H46.7006L46.6886 25.252C46.6886 25.912 46.8566 26.428 47.2046 26.8C47.5406 27.184 48.0206 27.364 48.6206 27.364C49.0646 27.364 49.4126 27.268 49.6766 27.052C49.9406 26.848 50.1446 26.512 50.2886 26.044H51.2846ZM50.3006 24.352C50.2526 23.764 50.0726 23.308 49.7606 22.972C49.4486 22.636 49.0286 22.468 48.5246 22.468C48.0206 22.468 47.6126 22.636 47.2886 22.972C46.9526 23.308 46.7606 23.776 46.7006 24.352H50.3006Z" fill="#61795F"/>
<path d="M40.5684 35.956L40.5424 39.102H33.0804L32.3784 43.054C33.2364 42.222 34.3544 41.78 35.7324 41.78C37.5004 41.78 38.9044 42.326 39.9444 43.418C41.0104 44.51 41.5304 45.966 41.5304 47.734C41.5304 49.658 40.9064 51.218 39.6064 52.44C38.3324 53.688 36.6944 54.286 34.6664 54.286C32.7684 54.286 31.2084 53.818 30.0124 52.83C28.8164 51.842 28.1664 50.438 28.0624 48.618H31.7024C31.7804 49.424 32.0924 50.074 32.6384 50.568C33.1844 51.062 33.8604 51.296 34.6924 51.296C35.6024 51.296 36.3564 50.984 36.9544 50.334C37.5264 49.684 37.8384 48.852 37.8384 47.812C37.8384 46.798 37.5524 45.992 36.9804 45.368C36.4084 44.77 35.6284 44.458 34.6664 44.458C33.4964 44.458 32.5864 44.978 31.9364 45.966H28.6344L30.4024 35.956H40.5684Z" fill="#193F16"/>
</svg>
