<svg width="40" height="40" viewBox="0 0 40 40" fill="none" xmlns="http://www.w3.org/2000/svg">
<g clip-path="url(#clip0_1191_88)">
<path fill-rule="evenodd" clip-rule="evenodd" d="M10.9801 39.0345C11.0814 39.5999 11.5741 39.9966 12.1291 39.996L27.8669 40.0004C28.4777 40.0004 28.9794 39.533 29.0338 38.9364C29.6848 35.3747 30.4369 31.8335 31.1369 28.2818H8.86096C9.56495 31.8666 10.3245 35.44 10.9801 39.0345ZM7.81251 12.2772L10.1032 10.7441C10.6391 10.3851 10.7826 9.65958 10.4236 9.12364C10.0646 8.5877 9.33909 8.44427 8.80314 8.80325L6.07118 10.6316C5.71188 10.8319 5.46875 11.2155 5.46875 11.656V15.1566H7.81251V12.2772ZM29.897 10.7441L32.1877 12.2772V15.1566H34.5314V11.656C34.5314 11.2155 34.2883 10.8319 33.929 10.6316L31.197 8.80317C30.6611 8.44419 29.9355 8.58763 29.5765 9.12357C29.2176 9.65958 29.361 10.3851 29.897 10.7441Z" fill="#3B4EF4"/>
<path d="M20.0001 8.50797C22.3495 8.50797 24.2541 6.60339 24.2541 4.25398C24.2541 1.90457 22.3495 0 20.0001 0C17.6507 0 15.7461 1.90457 15.7461 4.25398C15.7461 6.60339 17.6507 8.50797 20.0001 8.50797Z" fill="#8B97FF"/>
<path fill-rule="evenodd" clip-rule="evenodd" d="M35.2346 17.5004H4.76563C4.11844 17.5004 3.59375 18.025 3.59375 18.6722V24.766C3.59375 25.4132 4.11844 25.9379 4.76563 25.9379H35.2346C35.8818 25.9379 36.4064 25.4132 36.4064 24.766V18.6722C36.4064 18.025 35.8818 17.5004 35.2346 17.5004ZM21.1677 21.8035C21.1242 22.4112 20.6188 22.891 20 22.891C19.3756 22.891 18.8667 22.4023 18.8316 21.7866C18.8302 21.7641 18.8281 21.7419 18.8281 21.7191C18.8281 21.6962 18.8302 21.6737 18.8316 21.6512C18.866 21.0528 19.3484 20.5758 19.949 20.5498C19.966 20.5491 19.9828 20.5473 20 20.5473C20.0171 20.5473 20.0338 20.5491 20.0506 20.5498C20.6458 20.5753 21.1251 21.0436 21.1676 21.6341C21.1696 21.6623 21.1719 21.6905 21.1719 21.7191C21.172 21.7476 21.1697 21.7755 21.1677 21.8035ZM28.9845 12.5801C28.9845 12.0674 28.6553 11.6317 28.1968 11.4727C26.874 10.9353 25.5389 10.4774 24.1817 10.1473C23.1831 9.90445 22.1803 9.73492 21.172 9.65906V11.7617C21.172 12.4088 20.6473 12.9335 20.0001 12.9335C19.3529 12.9335 18.8282 12.4088 18.8282 11.7617V9.6582C16.387 9.84031 14.0451 10.5629 11.7481 11.4998C11.2955 11.6839 11.0212 12.1199 11.0211 12.5801L11.0157 15.1565H28.9845V12.5801Z" fill="#8B97FF"/>
</g>
<defs>
<clipPath id="clip0_1191_88">
<rect width="40" height="40" fill="white"/>
</clipPath>
</defs>
</svg>
