<svg width="40" height="40" viewBox="0 0 40 40" fill="none" xmlns="http://www.w3.org/2000/svg">
<g clip-path="url(#clip0_74_49)">
<path fill-rule="evenodd" clip-rule="evenodd" d="M10.9801 39.0342C11.0814 39.5996 11.5741 39.9963 12.1291 39.9956L27.8669 40C28.4777 40 28.9794 39.5327 29.0338 38.936C29.6848 35.3743 30.4369 31.8332 31.1369 28.2814H8.86096C9.56495 31.8662 10.3245 35.4396 10.9801 39.0342ZM7.81251 12.2768L10.1032 10.7438C10.6391 10.3848 10.7826 9.65922 10.4236 9.12328C10.0646 8.58734 9.33909 8.4439 8.80314 8.80289L6.07118 10.6313C5.71188 10.8315 5.46875 11.2151 5.46875 11.6556V15.1563H7.81251V12.2768ZM29.897 10.7438L32.1877 12.2768V15.1563H34.5314V11.6556C34.5314 11.2152 34.2883 10.8315 33.929 10.6313L31.197 8.80281C30.6611 8.44382 29.9355 8.58726 29.5765 9.1232C29.2176 9.65922 29.361 10.3848 29.897 10.7438Z" fill="url(#paint0_linear_74_49)"/>
<path d="M20.0001 8.50797C22.3495 8.50797 24.2541 6.60339 24.2541 4.25398C24.2541 1.90457 22.3495 0 20.0001 0C17.6507 0 15.7461 1.90457 15.7461 4.25398C15.7461 6.60339 17.6507 8.50797 20.0001 8.50797Z" fill="#8B97FF"/>
<path fill-rule="evenodd" clip-rule="evenodd" d="M35.2346 17.5001H4.76563C4.11844 17.5001 3.59375 18.0248 3.59375 18.672V24.7658C3.59375 25.413 4.11844 25.9377 4.76563 25.9377H35.2346C35.8818 25.9377 36.4064 25.413 36.4064 24.7658V18.672C36.4064 18.0248 35.8818 17.5001 35.2346 17.5001ZM21.1677 21.8033C21.1242 22.4109 20.6188 22.8908 20 22.8908C19.3756 22.8908 18.8667 22.402 18.8316 21.7864C18.8302 21.7639 18.8281 21.7416 18.8281 21.7189C18.8281 21.6959 18.8302 21.6735 18.8316 21.6509C18.866 21.0526 19.3484 20.5755 19.949 20.5496C19.966 20.5489 19.9828 20.547 20 20.547C20.0171 20.547 20.0338 20.5489 20.0506 20.5496C20.6458 20.5751 21.1251 21.0433 21.1676 21.6339C21.1696 21.6621 21.1719 21.6902 21.1719 21.7189C21.172 21.7474 21.1697 21.7753 21.1677 21.8033ZM28.9845 12.5799C28.9845 12.0672 28.6553 11.6315 28.1968 11.4724C26.874 10.9351 25.5389 10.4772 24.1817 10.1471C23.1831 9.90421 22.1803 9.73468 21.172 9.65882V11.7614C21.172 12.4086 20.6473 12.9333 20.0001 12.9333C19.3529 12.9333 18.8282 12.4086 18.8282 11.7614V9.65796C16.387 9.84007 14.0451 10.5627 11.7481 11.4995C11.2955 11.6837 11.0212 12.1196 11.0211 12.5799L11.0157 15.1563H28.9845V12.5799Z" fill="url(#paint1_linear_74_49)"/>
</g>
<defs>
<linearGradient id="paint0_linear_74_49" x1="5" y1="24" x2="35" y2="24" gradientUnits="userSpaceOnUse">
<stop stop-color="#5465F7"/>
<stop offset="1" stop-color="#9333EA"/>
</linearGradient>
<linearGradient id="paint1_linear_74_49" x1="4" y1="20.5" x2="36" y2="21" gradientUnits="userSpaceOnUse">
<stop stop-color="#5465F7"/>
<stop offset="1" stop-color="#9333EA"/>
</linearGradient>
<clipPath id="clip0_74_49">
<rect width="40" height="40" fill="white"/>
</clipPath>
</defs>
</svg>
