<svg width="500" height="556" viewBox="0 0 500 556" fill="none" xmlns="http://www.w3.org/2000/svg">
<path d="M244.593 543.328C234.785 544.256 226.561 539.796 218.215 536.469C201.873 529.955 186.631 521.256 172.215 511.115C150.25 495.664 153.54 466.402 167.448 455.024C170.631 459.529 171.192 464.998 174.023 469.557C174.927 471.015 173.454 472.275 172.513 473.511C169.628 477.303 166.513 480.942 164.28 485.216C164.447 485.484 164.496 485.244 164.817 484.703C173.639 469.818 173.626 469.95 186.543 481.132C210.021 501.458 236.997 514.533 267.793 519.348C277.995 520.943 287.632 519.208 296.497 513.757C285.896 520.351 274.234 520.697 262.611 518.358C231.037 512.004 203.488 497.72 180.234 475.255C174.255 469.48 170 463.004 168.712 454.268C172.184 448.932 178.034 448.18 183.43 447.435C203.206 444.703 222.293 448.258 240.382 456.137C260.625 464.955 278.8 477.156 294.264 493.062C310.045 509.293 304.149 538.721 283.15 547.29C274.96 550.632 266.114 549.521 257.506 547.8C253.941 547.088 250.276 546.85 246.737 544.886C245.863 540.336 248.678 536.744 248.17 533.16C247.647 536.268 247.53 540.047 244.593 543.328Z" fill="#C1CDF7"/>
<path d="M161.118 424.545C149.419 442.089 134.019 455.806 117.217 468.74C116.325 471.637 113.939 472.397 111.857 474.062C109.88 475.437 108.173 476.453 106.263 477.93C103.743 479.606 101.511 480.912 98.6255 481.895C97.1248 482.433 95.9982 482.721 94.5023 483.31C93.8062 483.581 93.5238 483.686 92.809 483.937C90.8872 484.538 89.3878 484.952 87.3764 485.29C84.962 485.518 83.0181 485.442 80.5889 485.495C79.4538 485.489 78.8074 485.464 77.6819 485.384C75.0066 485.054 72.9309 484.254 70.3218 483.706C68.4494 483.091 67.139 482.344 65.3811 481.521C63.9508 480.819 62.94 480.262 61.5449 479.516C59.3126 477.998 57.8579 476.252 55.8956 474.432C54.4359 472.896 53.173 471.737 52.4595 469.704C51.0305 466.581 49.6324 463.884 48.2739 460.718C53.8617 460.364 59.376 462.634 65.4287 460.62C70.293 465.817 71.8902 472.741 77.2369 477.431C74.2054 472.244 69.5704 468.116 68.536 461.589C69.6525 458.605 72.1616 458.188 74.2771 457.168C104.032 442.824 128.809 422.701 146.457 394.462C151.996 385.597 155.094 375.99 153.025 364.949C152.89 370.238 153.515 375.211 152.477 380.078C151.424 385.019 148.835 389.348 146.644 393.828C144.34 398.537 141.231 402.777 137.988 406.798C120.27 428.764 98.6613 445.843 72.8991 457.518C65.2352 460.992 57.3594 462.838 48.6213 459.475C45.3851 452.811 47.4316 446.486 49.3675 440.382C59.7571 407.625 83.2245 386.191 111.74 369.329C120.495 364.153 129.585 359.578 139.583 357.111C146.628 355.373 153.326 355.639 160.009 359.904C161.469 360.297 162.009 360.98 162.053 362.412C160.314 364.578 159.636 366.399 161.119 368.581C163.371 371.895 166.573 371.274 170.23 370.756C170.991 370.825 171.289 370.903 171.949 371.27C181.397 383.815 180.067 396.224 172.641 408.573C169.515 413.77 165.973 418.716 162.197 423.958C158.665 421.283 155.966 417.87 151.413 416.637C154.629 419.272 158.528 420.765 161.118 424.545Z" fill="#C2CFF8"/>
<path d="M51.9151 469.346C53.6596 470.506 54.8908 471.734 56.3666 473.325C56.0093 477.344 52.8586 477.591 50.2185 478.189C43.5837 479.691 37.5176 482.503 31.5479 485.639C28.9958 486.979 26.7963 488.705 25.0516 490.95C21.4726 495.554 22.242 499.828 27.1189 503.028C33.899 507.477 41.7123 508.767 49.4559 509.179C70.5274 510.3 91.5267 509.838 111.843 502.959C117.423 501.07 122.837 498.861 127.072 494.587C131.812 489.804 130.817 483.57 125.194 479.824C120.956 477 115.455 477.58 111.304 473.803C112.808 472.006 114.494 470.685 116.566 469.233C122.402 470.498 127.937 471.628 133.287 473.34C148.742 478.286 156.398 492.138 154.865 508.35C153.405 523.788 144.654 531.932 131.261 536.955C97.1953 549.731 62.1452 553.064 26.5121 546.284C6.80362 542.534 -5.26882 518.438 2.26413 499.609C5.7138 505.915 12.6215 508.374 17.1146 513.541C13.6432 518.941 14.3425 524.684 13.7382 530.182C14.5778 524.798 13.6616 519.095 17.0738 513.757C19.0308 512.284 20.6899 512.783 22.4066 513.195C48.0739 519.353 73.8755 520.572 99.8248 515.107C108.104 513.364 116.268 511.174 123.976 507.589C131.921 503.895 138.896 499.001 143.086 491.743C133.563 506.818 117.237 511.263 100.912 514.793C75.7667 520.231 50.4751 519.524 25.3684 513.781C16.4859 511.749 8.30442 508.54 2.99863 499.762C3.74555 492.465 9.33998 489.01 14.254 485.452C25.3872 477.391 38.1561 472.767 51.9151 469.346Z" fill="#F9D775"/>
<path d="M175.112 362.874C172.267 340.288 179.4 321.299 193.984 304.192C194.51 302.738 195.165 301.969 196.35 300.977C211.014 287.883 228.027 282.181 246.87 281.228C249.023 281.119 251.161 280.914 253.815 280.677C262.201 283.676 271.023 284.136 278.412 289.829C285.256 295.583 292.78 299.764 297.691 306.955C311.718 327.497 313.009 348.875 301.666 370.891C284.691 403.841 241.797 419.199 209.271 403.766C192.026 396.208 181.778 383.221 176.191 365.608C175.505 364.62 175.133 364.003 175.112 362.874Z" fill="#FBDA76"/>
<path d="M78.9166 153.84C60.421 124.615 78.2011 87.1548 112.48 81.9936C126.364 79.9032 134.403 80.9864 149.253 87.1617C149.446 76.1267 150.871 65.4669 155.267 55.5389C164.842 33.913 179.699 17.6038 203.14 11.1222C230.001 3.69494 256.867 13.4179 273.44 35.8008C274.825 37.6721 276.162 39.5797 277.673 41.6815C300.309 11.8683 327.803 -9.10646 366.607 4.22932C400.575 15.9035 411.826 45.8615 415.556 79.4983C430.275 73.8805 442.154 79.9411 452.892 89.3055C476.28 109.702 487.833 136.272 491.896 166.424C494.527 185.948 494.98 205.498 486.806 224.043C482.268 234.341 475.824 242.953 462.851 242.733C460.335 242.69 458.922 244.448 457.31 245.754C412.958 281.67 367.09 315.848 328.209 358.055C327.939 358.348 327.451 358.441 326.631 358.767C325.001 359.007 324.463 358.293 324.177 356.791C325.139 353.491 327.548 351.846 329.48 349.833C361.539 316.42 397.472 287.433 433.658 258.737C435.865 256.986 438.235 255.436 440.57 253.075C442.093 251.775 443.279 250.811 444.535 249.974C450.904 245.728 456.548 241.439 451.406 232.447C450.098 230.158 450.912 226.899 451.362 224.1C452.646 216.118 452.689 208.135 451.453 200.146C451.119 197.987 450.895 195.837 452.111 193.336C456.831 192.526 457.228 196.178 457.698 198.889C458.879 205.688 460.45 212.501 458.802 219.524C457.957 223.119 458.116 226.882 458.52 230.547C459.257 237.237 463.502 239.608 469.52 236.528C478.043 232.165 482.696 224.412 484.98 215.685C488.279 203.083 489.375 190.204 488.167 177.034C486.728 161.343 483.749 146.137 477.626 131.613C471.027 115.961 461.353 102.459 448.295 91.5849C438.557 83.4749 427.58 79.9237 414.49 84.4885C413.637 84.4119 413.302 84.3354 412.518 84.0096C409.769 78.9458 410.1 73.6426 409.214 68.5629C405.682 48.301 397.876 30.1591 381.148 17.3097C360.465 1.42215 338.214 1.69177 315.684 13.0583C302.441 19.7396 292.239 30.0492 283.909 42.2426C282.809 43.8532 281.796 45.5333 279.89 47.1331C278.821 47.6749 278.153 47.7774 276.969 47.593C271.373 42.4372 268.298 35.7977 262.924 30.9358C238.352 8.70568 203.278 7.12996 178.765 30.3102C162.786 45.4206 154.076 63.5033 154.369 85.6729C154.389 87.1926 154.281 88.7095 153.664 90.6623C152.891 92.0544 152.071 92.6539 150.538 93.0432C146.996 92.4494 144.495 90.6078 141.693 89.4472C120.952 80.8562 95.7817 87.3295 83.9079 104.663C75.7886 116.516 73.9694 129.428 78.6309 143.145C79.5319 145.796 81.0149 148.298 80.7909 151.749C80.4528 152.933 80.0334 153.469 78.9166 153.84Z" fill="#1E1668"/>
<path d="M208.812 403.963C211.293 403.081 213.405 404.253 215.633 405.027C257.044 419.402 304.536 388.666 307.558 345.031C308.999 324.232 300.222 307.671 283.276 295.493C281.541 294.246 279.831 292.963 278.025 291.264C285.756 290.888 286.944 285.239 288.632 279.275C294.858 257.272 302.268 235.629 309.298 213.344C309.742 212.622 309.954 212.352 310.579 211.771C311.929 210.956 312.919 210.699 314.421 211.098C316.467 214.557 314.561 217.315 313.689 220.695C306.599 243.284 299.505 265.349 292.762 287.524C291.58 291.411 290.777 295.15 294.561 298.7C295.089 299.274 295.291 299.506 296.051 300.451C296.791 301.395 296.973 301.628 297.72 302.536C298.475 303.435 298.665 303.659 299.132 304.229C299.585 304.814 299.761 305.054 300.19 305.663C303.007 310.297 305.92 314.385 307.55 319.137C308.761 322.67 311.558 324.669 314.551 327.156C314.688 328.208 314.43 328.769 313.683 329.595C311.33 331.26 311.671 333.26 311.896 335.19C312.781 342.801 312.245 350.337 310.15 357.672C308.9 362.052 310.189 364.976 313.5 367.884C316.259 370.307 320.115 372.526 318.601 377.775C318.319 378.168 318.367 378.162 318.368 378.138C314.59 380.087 313.629 376.477 311.851 374.714C307.45 370.352 305.538 370.319 302.54 375.676C297.499 384.688 289.922 391.343 282.165 398.096C284.848 401.219 288.597 403.181 289.047 407.903C288.599 409.165 288.057 409.731 286.638 409.44C284.62 409.335 283.154 408.726 282.212 407.539C278.009 402.245 273.506 402.837 268.033 405.795C254.997 412.838 240.995 413.944 226.119 411.067C220.074 408.6 213.441 409.124 208.812 403.963Z" fill="#211667"/>
<path d="M78.4697 154.258C78.784 153.47 79.1742 153.13 79.7271 152.431C83.8631 152.659 85.1623 156.361 87.4522 158.799C92.8857 164.583 98.6518 169.758 106.536 171.861C119.481 175.314 130.532 168.611 133.598 155.524C133.994 153.835 134.166 152.086 135.203 150.089C136.068 149.321 136.696 149.154 137.855 149.335C138.843 149.92 139.223 150.446 139.602 151.53C140.202 165.414 134.752 172.601 118.521 179.379C131.288 192.193 144.383 204.386 155.466 219.025C155.936 219.623 156.117 219.867 156.551 220.489C161.735 227.336 165.621 234.545 171.093 241.171C171.309 242.201 171.105 242.711 171.004 243.252C171.64 243.631 171.864 243.838 172.38 244.407C182.495 260.872 190.317 277.903 196.293 295.787C196.907 297.624 197.622 299.463 196.961 301.904C196.1 302.837 195.447 303.338 194.48 303.787C178.463 254.154 150.559 212.75 110.791 179.286C109.103 177.865 107.294 176.837 105.163 176.189C93.4122 172.619 84.8931 164.996 78.4697 154.258Z" fill="#1F136A"/>
<path d="M289.403 408.222C286.586 404.443 282.854 401.769 279.409 398.133C289.539 390.371 298.414 381.517 303.861 369.778C305.315 366.644 307.362 368.858 308.5 369.753C311.68 372.254 314.523 375.183 317.934 378.028C315.615 388.202 308.236 394.803 300.648 401.107C297.367 403.833 293.444 405.785 289.403 408.222Z" fill="#F8D775"/>
<path d="M318.771 378.028C318.03 372.364 313.308 369.973 309.509 366.969C307.745 365.574 306.044 364.729 307.023 361.865C310.381 352.044 311.184 341.966 309.464 331.699C309.223 330.257 308.768 328.436 311.897 328.89C316.124 328.92 318.794 331.41 322.272 333.355C326.23 340.745 328.147 347.961 325.144 356.303C325.222 357.473 325.387 358.075 325.874 358.792C322.624 364.776 323.259 372.191 318.771 378.028Z" fill="#F8D775"/>
<path d="M168.291 454.184C170.274 454.155 170.797 455.396 170.969 457.094C171.618 463.497 175.07 468.532 179.479 472.802C204.146 496.689 233.221 512.06 267.241 517.711C278.448 519.573 288.837 517.668 298.154 510.91C298.84 510.413 299.518 509.778 300.855 510.94C300.053 513.898 297.338 515.118 294.868 516.453C282.109 523.346 268.73 521.965 255.536 518.58C225.977 510.997 199.939 496.793 178.044 475.411C175.202 472.635 174.271 472.992 172.374 476.087C169.273 481.146 165.667 485.897 161.496 490.334C162.694 483.644 166.283 477.906 171.206 473.692C174.298 471.044 173.21 469.881 171.785 467.676C169.507 464.149 168.108 460.315 167.993 455.512C167.882 454.97 168.179 454.458 168.291 454.184Z" fill="#1E1668"/>
<path d="M48.1598 459.559C82.8055 460.614 104.45 437.578 127.23 416.865C132.005 412.523 135.962 407.268 139.781 401.962C148.805 389.428 155.09 376.251 150.66 360.377C153.578 359.508 153.683 361.334 154.05 362.698C156.543 371.955 154.998 380.843 150.832 389.194C139.907 411.095 122.755 427.5 103.378 441.8C92.6979 449.681 81.1011 456.004 68.3981 461.407C61.7152 461.952 55.2771 464.537 48.7647 460.484C48.3135 460.25 48.1475 459.799 48.1598 459.559Z" fill="#1E1668"/>
<path d="M226.016 411.139C242.343 412.189 258.406 410.158 273.08 401.516C276.325 399.605 278.307 400.897 280.408 402.942C282.261 404.745 284.024 406.64 286.026 408.921C266.578 418.653 246.592 418.325 226.016 411.139Z" fill="#F5D475"/>
<path d="M9.56775 70.3267C27.9884 64.8212 48.6643 70.7485 60.2616 84.7858C57.2916 85.9078 55.912 83.5805 54.2341 82.3414C42.4741 73.6571 29.862 68.109 14.8434 71.8094C10.0051 73.0015 4.51496 74.1719 5.05725 80.8936C5.44024 85.641 12.4453 88.6995 18.8104 87.6063C23.0088 86.8852 26.5832 85.0168 29.8589 82.4109C30.9678 81.5289 31.8703 79.8848 33.6964 81.1818C28.5015 89.774 15.3972 93.2658 7.25357 88.2367C-0.339357 83.5477 0.441205 76.034 9.56775 70.3267Z" fill="#28206B"/>
<path d="M482.88 277.411C477.372 282.485 468.781 294.953 465.911 302.461C461.479 314.054 448.384 321.514 438.449 317.996C439.584 315.584 441.833 316.765 443.494 316.503C454.895 314.7 463.155 306.616 464.927 295.224C465.648 290.589 465.814 286.314 458.982 286.945C455.953 287.224 455.086 284.612 454.125 282.501C453.467 281.054 453.657 279.367 455.077 278.401C457.202 276.956 460.356 276.734 461.649 278.348C468.975 287.489 474.37 280.136 480.681 276.433C481.881 275.969 482.503 276.167 482.88 277.411Z" fill="#1E1668"/>
<path d="M66.8148 26.2549C72.8686 19.9282 76.4238 19.1643 80.1447 23.0484C84.8814 27.993 85.029 34.4386 80.1104 39.1075C79.0658 35.7782 82.6742 32.9726 80.7257 29.963C79.2665 27.7093 79.3045 24.054 75.8711 23.6695C72.7305 23.3178 70.8836 25.6809 69.2155 28.095C63.0581 37.0064 64.5975 48.2346 73.3062 56.1714C75.9118 58.5461 78.8335 60.5738 82.3497 63.3427C66.4531 62.2015 58.345 41.8898 66.8148 26.2549Z" fill="#1E1668"/>
<path d="M157.588 298.171C155.599 301.618 157.726 304.122 158.432 306.725C160.749 315.274 158.749 324.916 152.329 330.213C154.664 323.48 157.273 317.997 156.399 311.967C155.819 307.967 156.641 302.838 149.677 303.93C147.595 304.257 146.448 302.217 146.761 300.449C147.122 298.409 148.982 296.811 151.074 297.326C156.454 298.649 156.05 294.794 156.286 291.758C156.785 285.329 153.299 279.839 151.028 273.529C157.516 276.789 160.539 288.652 157.588 298.171Z" fill="#1E1668"/>
<path d="M335.829 374.11C327.32 368.159 326.698 364.515 332.562 359.306C335.401 356.784 338.613 356.414 341.533 358.109C344.966 360.102 346.449 363.699 345.497 367.663C344.382 372.303 341.07 374.372 335.829 374.11Z" fill="#EEECF4"/>
<path d="M312.587 418.027C321.724 408.399 331.829 401.011 344.438 397.13C327.694 406.528 313.214 418.413 302.345 434.478C303.8 427.726 308.169 423.13 312.587 418.027Z" fill="#211667"/>
<path d="M483.187 277.746C482.472 277.521 482.149 277.089 481.462 276.465C492.066 265.459 496.488 251.505 500 237.065C499.194 252.467 494.933 266.433 483.187 277.746Z" fill="#28206B"/>
<path d="M174.757 362.279C175.486 363.143 175.794 363.775 176.074 364.778C174.918 367.029 173.789 368.909 172.485 371.174C172.31 371.559 171.857 371.483 171.63 371.454C167.757 369.413 165.394 366.048 162.492 362.697C161.846 361.748 161.327 361.218 160.643 360.35C165.51 355.449 169.695 356.064 174.757 362.279Z" fill="#EEECF4"/>
<path d="M167.912 537.574C163.356 537.599 159.396 537.599 155.435 537.599C155.423 537.071 155.411 536.544 155.399 536.016C164.543 535.037 173.696 534.231 183.015 535.508C178.454 538.287 173.342 536.954 167.912 537.574Z" fill="#28206B"/>
<path d="M161.535 424.829C157.252 422.266 153.123 419.624 148.983 417C148.005 416.381 147.175 415.574 147.83 414.427C148.506 413.246 149.637 413.618 150.619 414.195C154.793 416.647 159.696 418.189 161.818 423.648C161.888 424.365 161.858 424.572 161.535 424.829Z" fill="#D8F5EB"/>
<path d="M162.967 548.086C157.004 549.132 151.932 546.438 146.788 543.859C152.51 543.598 157.854 545.053 162.967 548.086Z" fill="#28206B"/>
<path d="M244.66 543.839C245.484 538.538 246.679 533.407 247.873 528.277C250.473 533.604 248.963 538.565 246.777 543.972C246.056 544.306 245.543 544.158 244.66 543.839Z" fill="#211667"/>
<path d="M58.6333 62.4757C61.5445 65.1577 65.0785 66.561 66.2104 70.4079C60.7446 68.5576 56.9746 64.5842 52.5515 60.6831C55.9103 58.8101 56.7344 61.3562 58.6333 62.4757Z" fill="#1F0F68"/>
<path d="M134.636 556.007C136.206 552.903 134.685 549.086 137.857 546.937C139.318 553.408 138.389 556.083 134.636 556.007Z" fill="#28206B"/>
<path d="M213.742 455.115C240.009 460.766 262.731 472.197 282.234 489.938C286.68 493.982 290.045 498.955 287.825 504.79C285.384 511.207 279.227 512.679 272.706 512.509C260.138 512.182 248.514 508.171 237.111 503.424C220.466 496.494 204.3 488.731 191.67 475.277C188.039 471.409 184.129 467.232 185.702 461.66C187.353 455.814 193.356 455.203 198.382 454.066C203.358 452.94 208.26 454.495 213.742 455.115Z" fill="#F8FAFE"/>
<path d="M195.704 501.848C192.61 506.625 191.307 511.785 188.787 517.5C187.275 509.549 190.922 502.051 195.704 501.848Z" fill="#1E1668"/>
<path d="M280.896 537.575C279.608 539.949 280.078 542.877 277.132 543.656C276.961 538.741 279.254 532.194 282.74 527.99C284.066 531.572 281.778 534.202 280.896 537.575Z" fill="#28206B"/>
<path d="M224.73 529.64C224.123 531.04 223.83 532.274 223.067 532.742C222.074 533.351 221.546 532.24 221.717 531.415C222.618 527.07 222.895 522.481 226.413 517.397C227.077 522.549 225.749 525.814 224.73 529.64Z" fill="#1E1668"/>
<path d="M97.676 481.486C100.229 479.708 102.599 478.379 105.418 476.921C113.088 474.495 119.656 476.527 125.612 480.413C131.576 484.305 131.805 490.047 126.893 495.238C123.95 498.348 120.163 500.156 116.342 501.445C89.9723 510.343 63.0973 512.533 35.729 506.782C34.8827 506.604 34.0115 506.49 33.2154 506.132C28.8473 504.17 24.0444 502.428 23.5758 496.723C23.1392 491.408 26.8778 488.359 30.94 486.158C37.9294 482.372 44.8442 478.066 53.8252 479.068C55.9903 483.692 52.5121 484.793 49.7921 486.288C45.3994 488.703 44.6943 491.405 47.5742 495.477C48.4455 496.709 50.0723 497.436 50.5527 498.854C52.0715 503.334 54.5408 503.195 57.8465 500.766C60.0364 499.157 62.6903 498.895 65.2957 499.063C74.6891 499.67 84.2474 497.389 93.4936 501.142C96.6347 502.416 104.929 495.423 105.145 491.923C105.295 489.493 104.311 487.749 101.989 486.843C99.6877 485.944 97.6464 484.804 97.676 481.486Z" fill="#FDDC78"/>
<path d="M119.073 417.538C107.049 429.318 94.3121 439.369 79.3052 446.158C73.5526 448.76 66.9607 451.467 61.6752 446.236C56.0415 440.66 59.2822 433.908 62.025 428.049C70.4273 410.1 83.929 396.405 99.5217 384.634C107.832 378.36 116.211 372.118 126.101 368.398C131.588 366.334 137.306 364.893 141.874 369.785C146.493 374.732 145.458 380.499 142.797 386.199C137.192 398.207 128.587 407.922 119.073 417.538Z" fill="#DFF7EE"/>
<path d="M55.6244 480.09C44.8767 480.313 35.9282 483.925 28.2222 490.187C22.7445 494.637 23.4163 498.776 29.3563 502.55C33.8918 505.432 39.1005 506.3 44.1574 506.976C68.0949 510.178 91.634 508.037 114.619 500.542C118.518 499.271 122.354 497.608 125.432 494.747C130.626 489.92 130.015 484.543 123.843 481.007C118.633 478.022 112.865 477.155 106.413 476.88C107.349 475.707 108.83 474.623 110.717 473.434C115.041 474.495 119.023 475.49 122.865 476.872C127.563 478.563 131.297 481.256 131.915 486.843C132.572 492.794 128.874 496.243 124.654 498.965C117.467 503.602 109.272 505.887 100.971 507.618C79.3466 512.128 57.6083 513.165 35.9019 508.507C29.648 507.165 22.2696 505.35 21.26 497.66C20.2055 489.626 27.1374 486.486 32.9653 482.956C40.1287 478.616 48.4913 477.75 56.2998 474.068C58.2763 474.991 59.9411 476.295 61.8859 477.917C61.586 479.833 60.1361 480.187 58.3249 480.673C57.3546 480.683 56.8231 480.564 55.6244 480.09Z" fill="#FEFAEC"/>
<path d="M55.8825 479.657C57.8673 479.407 59.5074 478.933 61.6567 478.347C63.0444 478.709 63.923 479.183 65.0904 479.901C65.423 481.128 64.8844 481.733 64.0523 482.108C54.2379 486.521 54.237 486.519 54.4416 497.768C57.9719 496.843 61.5046 496.324 65.5536 496.41C75.2744 496.779 84.5838 495.506 93.7926 497.321C94.7643 497.513 95.4034 496.955 95.9362 495.707C96.3654 492.815 96.6749 490.35 95.7575 487.548C95.4223 486.975 95.2793 486.751 94.9114 486.198C94.5332 485.651 94.3799 485.432 93.8637 484.5C93.5027 483.518 93.5045 483.25 93.8477 482.772C95.139 482.076 96.0888 481.591 97.4489 481.071C98.8928 482.601 99.2032 484.998 101.587 485.119C104.724 485.279 107.283 485.833 107.095 489.772C106.923 493.363 107.695 497.516 102.263 498.07C101.865 498.11 101.27 498.31 101.143 498.6C98.1043 505.559 93.6145 501.648 88.6001 501.423C77.9576 500.946 66.801 497.873 56.3759 503.653C53.6449 505.167 51.1614 504.868 49.2861 500.83C47.5868 497.172 43.466 494.802 43.4751 489.886C43.4799 487.34 43.7512 485.137 46.4813 485.291C50.4147 485.512 52.2772 482.959 54.7128 480.245C54.9324 479.839 54.8835 479.86 54.8761 479.885C55.0917 479.751 55.3147 479.592 55.8825 479.657Z" fill="#FEFCF5"/>
<path d="M87.3533 484.629C88.7637 483.749 90.2263 483.318 92.1462 482.889C92.8915 482.973 93.1794 483.054 93.7613 483.474C94.0552 483.812 94.0077 483.8 94.0036 483.775C94.289 484.065 94.587 484.371 95.1281 484.886C95.3629 485.104 95.3172 485.1 95.3195 485.077C97.0195 487.558 96.5702 490.388 96.4777 493.742C95.9318 495.846 94.9692 497.37 93.4516 497.301C87.2074 497.018 80.8271 498.84 74.3679 495.77C73.0298 493.644 72.8791 491.813 73.0936 489.402C73.6387 487.161 74.3736 485.621 76.3458 484.326C77.5741 484.073 78.3695 484.089 79.7464 484.246C81.567 486.888 78.0727 490.863 82.4567 492.227C84.9237 492.995 87.9995 492.706 89.6317 490.532C91.3836 488.2 88.0161 486.996 87.3533 484.629Z" fill="#FEFAEC"/>
<path d="M86.7942 484.125C88.8377 485.303 90.8756 486.119 91.7956 487.62C93.2189 489.942 93.743 492.653 89.5919 493.148C88.534 493.275 87.5115 493.679 86.455 493.838C78.2546 495.074 76.8186 493.226 80.0415 484.82C82.3143 484.281 84.3009 484.175 86.7942 484.125Z" fill="#FDDC78"/>
<path d="M161.835 362.343C166.058 364.225 168.32 367.667 171.232 371.015C164.034 374.181 160.195 372.934 158.417 367.249C157.563 364.516 157.918 362.578 161.835 362.343Z" fill="#C2CFF8"/>
<path d="M65.4422 497.304C61.9645 498.59 58.1312 496.802 55.1112 500.177C53.8901 501.542 52.6864 500.09 52.3096 498.229C50.0875 487.256 53.5917 482.202 65.0002 480.43C66.587 480.604 67.7949 481.063 69.2863 481.796C69.4388 482.35 69.3078 482.63 68.7938 483.167C66.6251 484.209 64.6167 483.923 62.8117 484.549C59.0287 485.86 56.4166 488.418 56.8999 492.557C57.4254 497.058 61.8488 494.279 64.5142 495.961C65.1346 496.397 65.3428 496.625 65.4422 497.304Z" fill="#FDDC78"/>
<path d="M67.6455 462.201C68.0084 461.824 68.097 461.847 68.1034 461.825C72.7032 466.669 74.8359 473.285 79.6425 478.013C80.3622 478.721 81.087 479.821 79.8479 480.744C79.08 481.315 78.1364 481.1 77.5505 480.38C73.1749 475 67.9963 470.072 67.6455 462.201Z" fill="#D8F5EB"/>
<path d="M114.216 465.344C110.004 465.517 101.028 457.904 101.002 454.558C100.998 454.006 101.339 453.187 101.772 452.947C102.921 452.312 103.687 453.089 104.451 453.953C107.712 457.643 111.03 461.281 114.216 465.344Z" fill="#D8F5EB"/>
<path d="M168.394 387.276C170.153 389.795 174.998 391.718 172.97 393.728C170.349 396.326 168.759 391.243 166.421 389.982C166.234 389.881 166.04 389.755 165.912 389.591C164.209 387.414 158.931 386.114 161.182 383.337C163.163 380.894 165.417 386.051 168.394 387.276Z" fill="#D8F5EB"/>
<path d="M130.882 434.011C129.666 432.231 130.142 430.844 131.81 431.414C135.717 432.749 138.675 435.712 141.726 438.395C142.188 438.8 142.367 440.14 142.053 440.693C141.306 442.008 140.179 441.22 139.368 440.61C136.626 438.543 133.946 436.393 130.882 434.011Z" fill="#D8F5EB"/>
<path d="M76.3301 483.941C76.2354 485.145 75.6927 486.234 74.8175 487.476C72.0267 487.082 70.3171 485.556 69.1094 483.024C69.1763 482.586 69.3737 482.329 69.4717 482.199C71.6738 482.655 73.7779 483.24 76.3301 483.941Z" fill="#FDDC78"/>
<path d="M94.1281 483.504C93.6483 483.772 93.2884 483.621 92.7893 483.125C92.8608 482.807 93.1183 482.721 93.7825 482.598C94.1891 482.561 94.2012 483.195 94.1281 483.504Z" fill="#FDDC78"/>
<path d="M17.518 513.627C12.2615 509.379 4.43984 508.018 2.64551 499.815C2.69441 499.33 2.69814 499.396 2.66477 499.396C7.21959 500.77 8.78353 505.734 12.9369 507.846C19.451 511.157 26.3827 512.71 33.4337 513.937C60.3064 518.616 86.9865 518.277 113.231 510.146C127.028 505.871 139.314 499.412 145.242 484.035C147.539 487.415 145.913 489.371 144.86 491.259C138.386 502.868 127.562 508.715 115.531 512.455C87.3727 521.208 58.7687 521.917 29.9408 516.178C25.914 515.377 21.9448 514.285 17.518 513.627Z" fill="#211667"/>
<path d="M16.9845 513.835C16.2153 521.124 14.8042 528.367 14.2005 535.736C13.0243 528.272 10.6626 520.734 16.5806 513.887C17.0873 513.927 17.0118 513.872 16.9845 513.835Z" fill="#28206B"/>
<path d="M141.046 514.133C141.469 518.188 143.404 521.634 141.243 526.879C138.781 520.457 138.204 515.078 137.866 508.957C140.881 509.856 140.33 512.111 141.046 514.133Z" fill="#211667"/>
<path d="M112.568 530.611C113.626 534.371 115.751 537.486 113.078 541.398C111.451 536.377 109.824 531.356 108.003 525.735C111.421 526.014 111.258 528.713 112.568 530.611Z" fill="#211667"/>
<path d="M47.1108 536.829C47.0424 533.429 46.1746 530.442 49.0716 526.584C50.22 533.508 49.5966 539.171 51.5236 545.503C47.016 543.359 48.1665 539.888 47.1108 536.829Z" fill="#1F0F68"/>
<path d="M86.3545 541.139C85.8284 536.643 83.1848 533.059 84.4395 528.686C87.5446 532.56 88.7539 537.122 88.5651 542.031C88.5328 542.87 87.1977 542.142 86.3545 541.139Z" fill="#28206B"/>
<path d="M197.181 302.213C190.053 282.291 181.689 262.995 170.802 244.357C173.69 241.4 176.684 243.128 179.31 244.181C193.074 249.7 218.323 240.352 224.353 222.183C225.079 220.137 225.445 218.49 226.474 216.552C227.346 215.726 227.977 215.465 229.186 215.332C235.783 217.483 241.465 220.754 248.404 222.107C251.875 225.637 251.032 230.035 252.269 234.402C253.101 248.939 255.246 262.824 255.193 277.426C255.392 278.763 255.332 279.522 254.779 280.739C249.547 285.066 243.599 282.958 238.219 283.723C222.748 285.921 209.337 291.966 197.181 302.213Z" fill="#FDFCFD"/>
<path d="M254.887 281.438C254.448 280.743 254.451 280.276 254.462 279.46C254.286 278.815 254.103 278.521 254.046 277.723C254.674 274.459 254.367 271.671 254.451 268.362C254.242 256.909 253.156 246.059 251.757 234.706C251.066 230.812 249.788 227.504 250.87 223.533C251.717 222.173 252.565 221.404 253.605 221.138C266.51 217.832 273.528 208.139 279.905 197.02C282.675 196.064 283.514 198.447 285.573 199.536C292.283 207.772 300.815 211.193 310.973 212.315C303.217 238.466 295.061 264.2 287.189 290.021C286.069 293.694 284.844 293.462 282.425 291.624C281.404 290.849 280.347 290.016 278.42 290.666C272.59 287.68 266.792 285.69 260.733 284.536C258.544 284.12 256.655 283.527 254.887 281.438Z" fill="#FCFCFD"/>
<path d="M278.156 311.435C305.381 343.985 282.48 387.153 245.686 393.856C226.759 397.305 209.916 392.992 197.399 378.227C178.906 356.412 183.029 325.477 206.054 307.515C227.334 290.914 259.082 291.012 278.156 311.435Z" fill="#FFFAEF"/>
<path d="M139.255 152.476C138.885 151.542 138.727 151.092 138.514 150.288C137.209 148.018 136.548 145.774 134.829 143.592C135.655 145.72 137.058 147.287 136.087 149.685C136.958 170.531 116.627 181.053 98.7279 170.638C91.0794 166.188 85.1227 160.165 80.2338 152.361C73.3618 137.804 71.5921 123.279 78.991 108.885C91.6465 84.2653 124.694 76.1584 149.78 91.5026C153.164 93.9135 155.005 97.0412 157.294 100.809C155.856 97.1922 153.14 95.0902 152.508 91.4419C150.988 63.1701 161.456 40.7793 183.446 23.8259C213.497 0.658814 258.477 11.8014 276.575 46.0601C279.251 51.5748 277.133 57.0797 277.949 61.5797C278.388 57.2447 277.03 52.101 278.918 46.6773C292.982 23.1925 312.039 7.21805 339.489 3.66121C362.492 0.680591 380.488 10.2053 394.328 28.0559C406.575 43.8524 411.829 62.1711 412.475 82.5253C411.876 89.9698 407.726 95.3311 404.776 101.225C408.241 95.934 411.36 90.467 413.265 83.9193C426.888 76.7659 438.391 81.1636 448.906 89.7232C472.901 109.255 484.55 135.581 488.923 165.396C491.478 182.81 491.937 200.395 486.436 217.533C484.223 224.426 480.929 230.739 475.263 235.505C470.916 239.162 465.92 241.942 460.435 238.992C455.053 236.099 454.962 230.374 455.901 225.122C457.607 215.588 457.539 206.177 455.433 196.74C455.134 195.399 454.695 194.274 453.164 193.278C449.511 191.721 449.108 188.396 447.8 185.76C439.631 169.294 426.959 159.302 408.159 158.537C401.255 158.257 394.369 159.928 387.403 159.505C383.944 159.295 380.456 159.703 376.515 158.932C373.739 157.517 371.257 156.79 368.775 156.013C357.761 152.568 349.605 146.124 346.482 134.475C345.726 131.654 344.761 129.438 340.962 129.361C324.267 129.025 314.255 119.838 309.091 104.552C308.466 102.704 307.84 100.856 307.086 98.548C306.116 92.4898 307.973 87.3023 309.609 81.8176C307.414 86.8442 306.549 91.8579 306.488 97.4992C299.87 108.865 284.857 111.67 272.289 104.521C270.405 103.45 269.133 100.699 265.898 102.142C260.97 107.889 255.375 111.756 247.939 113.612C236.685 114.001 225.905 114.57 215.613 110.306C214.043 109.656 212.245 109.269 210.723 111.471C210.388 112.187 210.256 112.472 209.894 113.166C206.522 118.036 203.213 122.301 198.181 124.875C190.03 129.042 181.773 130.211 173.114 126.396C171.836 125.832 170.543 123.7 168.717 126.112C168.578 136.738 164.169 144.897 156.666 151.431C151.279 156.121 145.591 156.465 139.255 152.476Z" fill="#C2CFF8"/>
<path d="M325.465 356.64C324.989 349.225 324.506 341.64 321.408 334.022C320.155 333.029 319.451 332.196 318.654 330.887C318.305 330.278 318.169 330.03 317.836 329.401C317.519 328.758 317.397 328.496 317.111 327.831C312.96 318.691 307.299 311.309 299.063 305.45C298.722 305.167 298.772 305.101 298.757 305.138C298.511 304.819 298.236 304.501 297.676 304.016C297.436 303.811 297.488 303.798 297.481 303.824C297.211 303.517 296.925 303.205 296.388 302.694C296.161 302.472 296.207 302.482 296.21 302.506C295.829 302.15 295.469 301.75 294.89 301.005C289.292 298.06 288.416 294.575 290.395 288.67C297.886 266.318 304.683 243.733 311.978 220.793C314.973 218.086 318.29 218.396 321.51 218.381C333.392 218.324 345.274 218.309 357.155 218.384C361.759 218.414 364.631 216.827 365.248 211.455C367.846 207.203 372.335 207.733 375.73 205.994C378.632 204.507 381.478 202.959 384.24 201.232C385.517 200.434 386.969 199.625 388.46 200.705C389.937 201.774 389.656 203.433 389.368 204.894C388.401 209.8 387.464 214.646 388.5 219.714C391.236 233.089 401.826 238.128 413.911 231.67C415.631 230.751 417.119 229.432 419.461 228.577C420.668 228.376 421.356 228.444 422.483 228.904C424.133 230.563 424.407 232.314 424.507 234.027C425.132 244.707 430.407 251.362 441.433 253.803C419.834 272.804 396.81 290.14 375.149 309.157C358.018 324.198 341.488 339.814 325.465 356.64Z" fill="#FEFDFE"/>
<path d="M442.171 254.054C428.58 253.982 423.035 247.15 422.617 230.038C422.013 226.465 424.329 224.746 425.811 222.781C430.108 217.085 433.959 211.113 437.362 204.829C431.825 212.847 426.81 221.231 420.43 229.185C409.807 236.939 401.276 238.319 394.39 233.609C387.452 228.863 384.515 217.834 387.287 206.944C387.761 205.084 388.225 203.22 389.063 199.888C381.898 205.125 375.515 209.338 367.134 210.092C360.01 213.093 354.865 209.319 349.88 206.083C345.893 203.494 342.646 199.894 340.475 194.894C339.307 191.711 338.743 188.96 339.193 185.576C341.787 175.36 341.606 165.495 341.028 154.466C340.273 163.875 342.651 172.35 338.985 180.848C334.367 183.967 330.547 187.816 324.348 187.136C322.981 186.135 322.999 185.101 323.179 183.537C328.868 167.331 333.874 151.415 340.241 135.997C341.126 133.855 341.531 129.623 346.047 133.284C349.878 148.832 361.185 154.692 375.428 157.596C385.867 157.883 395.81 157.249 405.775 156.836C426.496 155.976 443.504 168.578 451.45 189.804C451.753 190.615 452.044 191.431 452.526 192.686C451.513 197.761 454.102 202.001 454.071 206.564C454.03 212.615 454.369 218.628 453.094 224.643C452.238 228.681 451.755 233.366 454.536 236.547C458.878 241.514 455.903 243.628 452.182 246.269C448.839 248.641 445.751 251.372 442.171 254.054Z" fill="#675DFB"/>
<path d="M413.343 83.4109C414.004 92.0535 408.404 97.8208 404.321 104.262C403.678 105.278 402.655 105.791 401.618 105.059C400.348 104.163 401.232 103.142 401.888 102.346C406.459 96.7981 408.789 90.0672 412.176 83.3888C412.547 83.0792 413.112 83.2307 413.343 83.4109Z" fill="#F8FAFE"/>
<path d="M278.717 46.3497C279.144 52.3522 279.219 58.4363 279.164 64.5193C279.149 66.2051 278.997 68.6809 276.745 68.2617C274.398 67.8248 275.529 65.518 275.933 63.9557C277.319 58.593 276.293 53.1406 276.654 47.1102C277.231 46.4632 277.773 46.4471 278.717 46.3497Z" fill="#F8FAFE"/>
<path d="M152.134 91.0697C155.428 93.8176 157.313 97.431 159.402 100.889C159.912 101.733 160.72 102.909 159.489 103.719C158.064 104.656 157.188 103.639 156.462 102.454C154.458 99.1795 152.421 95.9253 150.273 92.187C150.713 91.52 151.278 91.3291 152.134 91.0697Z" fill="#F7F7FA"/>
<path d="M311.471 212.715C300.26 214.201 291.772 209.986 284.954 200.953C283.306 199.231 282.32 197.603 282.301 195.112C286.531 191.039 285.27 187.48 282.02 183.526C279.817 177.383 278.718 171.524 279.441 165.086C295.171 163.688 310.526 160.638 326.045 166.387C328.698 172.45 324.293 176.85 323.426 182.432C323.137 183.194 322.971 183.472 322.416 184.024C319.671 184.824 316.054 184.65 319.946 188.875C320.99 191.576 318.768 193.171 318.647 195.762C317.083 201.59 315.594 206.948 312.196 212.072C311.972 212.509 311.66 212.725 311.471 212.715Z" fill="#675DF5"/>
<path d="M341.314 194.128C346.986 203.606 354.347 209.753 366.087 210.132C366.568 220.33 366.568 220.329 356.214 220.332C341.939 220.335 327.664 220.341 312.803 220.348C313.03 217.699 313.843 215.049 314.75 211.937C314.983 211.202 315.122 210.928 315.611 210.356C324.358 207.127 328.81 199.526 335.418 193.844C337.545 193.668 339.247 193.782 341.314 194.128Z" fill="#F7F7FA"/>
<path d="M298.701 305.631C302.431 304.342 304.077 307.366 305.996 309.402C311.104 314.819 316.188 320.323 318.411 328.17C317.042 329.587 315.925 329.229 314.662 327.78C309.329 326.163 306.846 322.864 305.233 317.89C303.871 313.692 300.925 310.007 298.701 305.631Z" fill="#F5D475"/>
<path d="M315.923 210.911C315.533 211.274 315.221 211.484 315.032 211.48C314.121 211.71 313.397 211.944 312.323 212.344C313.655 207.179 315.339 201.848 317.135 196.036C317.827 195.059 318.491 194.896 319.679 195.37C322.187 201.487 318.932 205.936 315.923 210.911Z" fill="#230E6D"/>
<path d="M314.175 327.712C315.445 327.807 316.461 328.259 317.903 328.683C318.329 328.654 318.354 328.593 318.322 328.602C318.596 328.888 318.896 329.171 319.427 329.658C320.161 330.838 320.658 331.819 321.124 333.223C317.742 333.606 315.849 330.659 312.699 329.25C312.897 328.63 313.409 328.35 314.175 327.712Z" fill="#28206B"/>
<path d="M294.744 301.116C295.108 301.018 295.571 301.353 296.124 302.108C295.756 302.201 295.3 301.875 294.744 301.116Z" fill="#F5D475"/>
<path d="M296.208 302.839C296.595 302.676 297.03 302.881 297.469 303.467C297.067 303.635 296.661 303.42 296.208 302.839Z" fill="#F5D475"/>
<path d="M297.452 304.195C297.89 304.001 298.345 304.191 298.771 304.778C298.317 304.977 297.893 304.778 297.452 304.195Z" fill="#F5D475"/>
<path d="M138.869 152.555C148.861 155.556 155.869 152.935 161.83 143.222C165.023 138.02 167.24 132.431 167.166 125.607C169.609 124.095 171.362 125.82 173.311 126.58C185.846 131.468 198.524 127.945 207.202 116.757C207.963 115.519 208.611 114.786 209.408 113.548C209.915 112.887 210.149 112.645 210.841 112.177C215.221 112.211 215.762 115.732 216.994 118.265C230.723 146.506 240.908 175.977 247.043 206.792C248.04 211.8 250.712 216.691 248.476 222.456C241.542 222.96 235.837 220.539 230.214 216.52C227.556 214.56 227.245 211.917 226.716 209.368C225.013 201.167 221.759 193.666 216.558 187.038C222.854 195.554 225.714 205.401 227.601 216.029C227.234 217.998 226.969 219.524 226.406 221.408C225.721 221.935 225.333 222.102 224.318 222.359C204.027 221.809 184.358 222.359 164.693 222.152C161.696 222.12 158.61 222.584 155.228 220.743C142.559 205.495 129.475 191.431 113.764 178.097C129.301 175.739 137.502 167.672 138.869 152.555Z" fill="#675DFB"/>
<path d="M223.869 221.357C224.724 221.653 225.001 221.669 225.693 221.726C221.873 236.092 211.017 242.643 197.584 246.438C188.416 249.029 180.036 246.689 171.235 243.578C170.769 243.891 170.856 243.813 170.885 243.863C170.791 243.555 170.667 243.196 170.719 242.297C168.343 242.87 168.227 240.376 167.41 239.234C163.446 233.688 159.62 228.043 155.604 222.022C161.857 220.253 168.328 221.102 174.757 221.058C190.934 220.945 207.113 220.908 223.869 221.357Z" fill="#675DFB"/>
<path d="M224.066 221.246C201.852 221.631 179.257 221.625 156.062 221.615C155.3 221.443 155.138 221.276 154.815 220.796C177.665 220.484 200.68 219.749 224.066 221.246Z" fill="#675DFA"/>
<path d="M136.267 149.916C135.853 146.071 132.098 143.972 130.156 138.887C135.74 141.689 138.383 144.628 138.729 149.651C137.874 149.889 137.29 149.844 136.267 149.916Z" fill="#F8FAFE"/>
<path d="M170.432 241.795C171.001 242.114 171.108 242.472 171.065 243.372C169.69 243.635 169.732 242.779 170.432 241.795Z" fill="#FDFCFD"/>
<path d="M460.659 280.135C462.406 281.578 463.734 283.136 462.744 284.747C461.882 286.149 460.331 285.347 458.877 284.577C457.065 283.618 456.454 282.361 456.83 280.606C457.368 278.096 458.978 279.54 460.659 280.135Z" fill="#D8F5EB"/>
<path d="M200.995 479.894C197.483 476.656 194.199 473.797 191.339 470.563C189.073 468 188.265 464.594 189.644 461.413C191.005 458.272 194.222 457.848 197.37 457.671C215.977 456.622 232.693 462.711 248.857 471.073C251.25 472.312 251.309 473.578 250.117 475.624C249.028 477.493 248.301 479.583 247.138 481.398C246.191 482.875 246.344 485.827 243.702 485.334C241.349 484.895 239.526 483.282 238.812 480.647C237.434 475.56 235.499 471.393 229.318 476.109C228.019 477.1 226.855 475.893 225.796 475.33C223.315 474.011 221.053 472.175 218.456 471.206C216.022 470.297 213.203 466.03 210.797 470.222C208.872 473.578 209.569 477.181 213.98 479.318C218.638 481.576 222.973 484.501 227.444 487.142C228.74 487.907 230.309 488.484 230.654 490.154C231.045 492.048 231.701 494.298 230.38 495.791C228.867 497.502 227.197 495.567 225.785 494.889C217.184 490.757 208.843 486.173 200.995 479.894Z" fill="#C4D1F9"/>
<path d="M252.346 505.536C245.459 503.109 239.069 500.869 232.678 498.63C238.503 496.958 243.848 494.538 249.034 499.013C251.01 500.717 253.361 499.026 254.466 496.26C256.472 491.236 258.876 486.371 260.897 481.352C261.527 479.788 261.68 478.164 263.802 479.604C270.429 484.102 277.576 488.054 282.448 494.612C284.54 497.427 286.969 500.652 284.432 504.719C281.599 509.262 277.132 510.257 272.53 509.641C265.911 508.755 259.399 507.069 252.346 505.536Z" fill="#C4D1F9"/>
<path d="M237.35 491.276C235.853 493.468 233.98 494.446 233.903 491.448C233.776 486.436 230.271 485.01 226.93 483.113C223.348 481.079 219.719 479.125 216.177 477.025C214.802 476.209 212.106 475.664 213.163 473.562C214.524 470.853 216.007 473.706 217.254 474.334C220.348 475.891 223.276 477.772 226.327 479.418C227.996 480.319 229.875 482.047 231.702 480.633C234.226 478.679 234.847 479.683 235.416 482.113C236.474 486.637 241.123 487.082 244.086 489.431C245.684 490.698 247.002 489.421 247.715 487.979C248.865 485.653 249.698 483.168 250.875 480.858C251.572 479.489 251.725 477.09 254.307 477.952C256.83 478.793 257.582 480.599 256.717 483.093C256.361 484.117 256.006 485.141 255.628 486.157C251.768 496.513 251.656 496.545 241.917 491.85C240.612 491.221 239.34 490.055 237.35 491.276Z" fill="#C4D1F9"/>
<path d="M85.2003 403.215C90.6461 394.539 99.014 389.033 107.023 383.256C113.312 378.72 119.568 373.945 127.092 371.398C131.322 369.967 135.833 368.731 139.348 372.165C143.193 375.921 141.783 380.714 139.782 384.906C131.941 401.332 119.311 413.846 105.62 425.286C95.9905 433.333 85.9024 440.859 73.682 444.834C70.1883 445.97 66.6802 446.738 63.9832 443.857C61.3253 441.017 62.1479 437.176 63.2715 433.98C67.5251 421.881 74.9559 411.817 84.5213 402.868C87.3711 407.45 90.5798 406.5 94.0185 404.145C98.1334 401.326 101.669 397.4 107.253 397.36C102.631 396.701 99.6175 399.554 96.3838 402.023C93.0878 404.538 89.7156 407.188 85.2003 403.215Z" fill="#C2CFF8"/>
<path d="M56.1434 479.583C56.0005 479.877 55.7739 479.874 55.2079 479.891C54.9423 479.086 55.2973 478.798 56.1434 479.583Z" fill="#FDDC78"/>
<path d="M65.9358 497.87C65.3335 497.754 65.3365 497.473 65.3367 497.332C67.3679 494.262 70.8732 495.539 74.0048 494.333C81.1881 498.804 88.0909 497.352 95.3294 494.66C96.0023 493.772 96.4799 493.596 97.3523 493.943C97.5736 498.512 97.8503 500.648 91.3956 498.833C83.6429 496.654 74.8695 498.106 65.9358 497.87Z" fill="#FDDB76"/>
<path d="M97.6871 493.695C97.2022 494.224 96.7538 494.223 95.9702 494.224C95.5189 491.551 95.4028 488.876 95.304 485.627C99.1458 486.862 97.5537 490.274 97.6871 493.695Z" fill="#FDDC78"/>
<path d="M95.3343 484.727C94.9663 484.884 94.57 484.665 94.0864 484.098C94.4348 483.951 94.8703 484.15 95.3343 484.727Z" fill="#FDDC78"/>
<path d="M74.4833 493.778C72.7571 498.187 69.1862 496.402 65.8569 497.08C64.6897 497.127 64.003 497.182 63.4023 496.981C60.461 495.995 55.3542 499.646 54.9942 493.1C54.6974 487.702 58.172 483.375 63.5472 482.613C65.035 482.402 66.5779 482.581 68.6359 482.583C70.8402 484.008 72.504 485.429 74.3264 487.24C74.4778 489.491 74.4705 491.354 74.4833 493.778Z" fill="#FEFCF5"/>
<path d="M248.447 223.246C246.574 206.802 242.249 191.352 237.806 175.946C231.9 155.465 224.152 135.683 214.369 116.734C213.699 115.436 214.202 112.375 210.704 113.38C209.826 113.502 209.43 113.224 208.986 112.395C209.433 107.126 211.597 106.319 216.145 108.557C225.798 113.308 236.245 112.821 247.209 112.32C248.453 117.579 244.196 117.014 241.548 117.447C234.472 118.606 227.55 117.106 220.263 114.995C219.27 114.424 218.853 113.91 218.339 113.563C217.626 113.081 218.62 113.549 217.761 113.681C216.902 113.813 217.269 114.55 217.731 113.814C217.762 113.764 217.974 113.784 218.696 114.227C232.575 142.492 243.473 171.332 249.47 201.874C250.012 204.636 250.731 207.344 251.513 210.564C252.082 212.696 252.164 214.388 252.395 216.571C252.841 218.743 253.202 220.413 252.094 222.462C251.792 225.966 251.824 229.083 251.891 232.709C252.366 233.875 252.25 234.41 251.093 234.752C249.99 231 249.371 227.321 248.447 223.246Z" fill="#230E6D"/>
<path d="M227.03 258.6C223.203 259.603 219.656 260.532 216.868 257.61C213.627 254.214 213.241 250.773 216.363 246.651C219.475 242.543 223.436 242.953 226.683 244.7C230.51 246.759 232.308 250.695 229.773 255.215C229.15 256.326 228.236 257.274 227.03 258.6Z" fill="#EEECF4"/>
<path d="M227.881 216.466C223.634 208.287 222.961 198.875 217.629 191.219C216.052 188.955 213.373 186.874 214.35 182.147C223.742 192.107 227.382 203.382 229.669 215.854C229.281 216.393 228.772 216.426 227.881 216.466Z" fill="#E9E8FE"/>
<path d="M250.525 235.252C250.952 234.397 251.297 234.114 251.784 233.526C254.686 238.046 254.166 243.445 254.566 248.668C255.043 254.913 255.372 261.17 255.673 268.022C254.491 271.382 255.423 274.286 254.787 277.593C254.594 278.093 254.544 278.603 254.507 278.856C253.462 278.905 253.069 278.215 253.096 277.267C253.484 263.371 252.047 249.592 250.525 235.252Z" fill="#211667"/>
<path d="M252.257 222.85C251.449 221.401 251.137 219.952 250.841 218.059C251.786 201.59 250.688 185.519 251.379 169.489C250.86 183.324 251.474 197.184 250.568 211.451C245.356 191.204 240.526 170.523 232.625 150.76C227.801 138.695 222.402 126.859 217.241 114.441C217.352 113.709 217.485 113.456 218.014 113.038C226.134 114.225 233.735 116.872 241.74 115.343C243.711 114.966 246.121 115.618 247.634 112.948C254.328 110.384 259.816 106.639 264.896 101.406C266.995 100.581 268.203 101.407 269.441 102.383C279.472 110.292 290.07 110.046 300.969 104.434C306.652 101.507 307.548 101.772 310.126 107.653C315.656 120.269 324.698 128.284 339.268 129.911C340.431 131.365 340.864 132.716 340.451 133.942C336.533 145.56 332.836 157.268 326.792 168.336C320.582 163.666 313.195 164.543 307.113 164.88C298.268 165.37 289.425 165.027 280.004 165.553C276.399 163.939 275.957 160.787 274.648 158.06C280.175 170.176 281.417 182.997 280.9 196.492C275.607 210.1 267.409 219.956 252.257 222.85Z" fill="#675DFA"/>
<path d="M281.022 197.158C278.361 191.999 279.971 186.734 279.392 181.652C278.482 173.662 276.341 166.076 273.226 158.707C272.435 156.836 270.576 155.173 271.956 152.33C276.67 155.268 276.716 160.647 279.189 165.123C280.506 171.308 281.607 177.063 282.87 183.316C284.877 186.839 285.327 189.976 283.407 193.764C282.282 196.377 283.497 198.036 284.458 200.255C282.786 200.32 282.187 198.736 281.022 197.158Z" fill="#F2F1FA"/>
<path d="M255.072 277.805C254.69 275.196 254.786 272.299 255.231 269.012C255.972 271.588 256.251 274.554 255.072 277.805Z" fill="#1F0F68"/>
<path d="M274.438 312.513C295.903 335.078 287.976 372.546 259.229 385.941C240.182 394.816 221.425 394.491 204.804 381.054C185.626 365.55 183.875 339.561 199.372 318.621C216.751 295.136 253.149 292 274.438 312.513Z" fill="#FDDB76"/>
<path d="M339.146 130.761C323.133 130.069 314.202 120.715 308.64 107.506C306.903 103.38 306.041 102.804 302.093 105.275C290.226 112.7 277.813 111.176 265.743 101.383C265.12 100.201 264.255 98.9708 265.268 98.2203C266.761 97.1141 267.478 98.7914 268.314 99.5914C276.317 107.251 285.616 108.713 295.846 105.224C299.343 104.031 302.307 101.808 305.208 98.9269C305.447 97.6769 305.912 97.1993 307.335 97.2888C310.936 103.775 312.009 110.919 316.92 116.511C323.961 124.528 332.234 129.094 343.093 128.052C345.176 127.852 346.851 127.481 347.248 130.444C349.238 145.254 359.049 152.264 372.562 155.512C373.589 155.759 374.543 156.31 375.71 157.162C364.127 159.937 349.466 149.406 345.534 135.317C345.721 130.278 341.794 131.975 339.146 130.761Z" fill="#1F0F68"/>
<path d="M345.805 29.0511C342.928 29.0321 340.625 29.0321 337.63 29.0321C346.321 21.3898 374.819 32.915 378.617 51.4389C371.038 39.1808 360.97 30.6963 345.805 29.0511Z" fill="#1E1668"/>
<path d="M209.071 115.852C199.677 130.626 184.515 134.019 167.648 125.198C166.626 123.986 164.851 123.075 165.816 121.788C166.883 120.366 168.123 121.901 169.151 122.458C184.713 130.901 197.774 127.875 207.984 113.237C208.599 113.013 208.869 113.058 209.258 113.492C209.416 114.424 209.38 114.962 209.071 115.852Z" fill="#1F0F68"/>
<path d="M455.812 136.345C464.549 146.319 471.112 156.915 472.942 170.025C467.147 155.539 459.02 142.557 448.264 131.122C451.913 131.438 453.441 134.069 455.812 136.345Z" fill="#1E1668"/>
<path d="M90.0614 130.682C91.2486 125.504 92.3938 120.856 97.6846 118.667C92.4041 125.962 91.2573 133.586 95.4923 142.488C90.699 139.252 90.2357 138.144 90.0614 130.682Z" fill="#1F0F68"/>
<path d="M307.894 96.9321C307.331 97.7017 306.782 97.9502 305.814 98.3778C304.807 90.6726 305.635 83.2225 312.15 77.4629C310.563 83.7608 308.441 89.9199 307.894 96.9321Z" fill="#F8FAFE"/>
<path d="M210.74 101.901C211.207 103.223 212.542 104.131 211.456 105.079C210.527 105.891 209.357 105.397 208.663 104.52C206.227 101.44 205.034 97.8218 204.297 94.0123C204.089 92.9329 203.7 91.8269 205.183 91.4941C206.486 91.2019 207.111 92.0849 207.363 93.2297C208.005 96.1438 208.612 99.0659 210.74 101.901Z" fill="#F8FAFE"/>
<path d="M208.594 112.267C209.164 112.366 209.563 112.658 210.165 113.267C210.368 113.584 210.345 113.544 210.329 113.551C210.044 113.718 209.775 113.878 209.161 113.721C208.815 113.404 208.574 113.184 208.452 113.076C208.331 112.968 208.422 112.46 208.594 112.267Z" fill="#1F0F68"/>
<path d="M420.486 229.462C425.511 220.68 430.941 211.897 436.411 203.138C437.166 201.929 437.876 199.888 439.683 200.844C441.785 201.955 439.934 203.51 439.288 204.613C434.38 212.991 429.245 221.223 422.782 229.086C422.015 229.476 421.459 229.472 420.486 229.462Z" fill="#E9E8FE"/>
<path d="M319.592 329.497C319.235 329.675 318.806 329.494 318.334 328.961C318.701 328.786 319.111 328.962 319.592 329.497Z" fill="#F5D475"/>
<path d="M316.02 211.239C316.986 206.398 318.44 201.522 319.924 196.13C319.94 192.319 320.918 189.367 323.443 186.605C329.199 187.016 332.309 182.038 337.554 181.209C338.76 181.878 339.035 182.743 339.134 184.139C338.338 187.402 338.791 190.507 336.728 193.328C330.766 200.596 325.759 208.286 316.02 211.239Z" fill="#675DF2"/>
<path d="M338.921 131.004C341.246 131.012 345.267 128.295 345.592 134.267C343.576 130.838 342.798 132.975 341.896 135.495C336.235 151.309 330.527 167.106 324.61 183.352C323.925 184.235 323.383 184.426 322.405 184.024C322.349 178.615 325.065 174.208 326.233 168.872C330.954 156.217 336.382 144.298 338.921 131.004Z" fill="#230E6D"/>
<path d="M338.414 185.405C338.039 184.126 338.064 183.152 338.069 181.691C340.364 172.861 339.443 164.394 339.02 155.945C338.92 153.943 337.331 150.731 340.228 150.492C342.916 150.269 342.201 153.893 342.418 155.791C343.51 165.346 343.003 174.874 340.94 184.775C340.141 185.66 339.514 185.822 338.414 185.405Z" fill="#E9E8FE"/>
<path d="M412.932 168.805C405.811 180.006 399.197 191.006 389.361 199.619C397.048 187.256 406.018 175.776 413.043 162.749C416.198 165.458 413.439 166.781 412.932 168.805Z" fill="#FEFDFE"/>
<path d="M352.095 192.419C350.142 194.471 347.898 196.138 345.764 194.423C343.523 192.621 344.199 189.784 345.081 187.176C348.503 187.564 345.956 191.092 348.069 192.209C351.071 191.75 348.574 188.251 350.742 187.139C353.339 187.994 351.867 190.274 352.095 192.419Z" fill="#675DFA"/>
<path d="M321.816 183.781C322.579 183.745 323.096 183.769 323.999 183.794C324.222 184.442 324.059 185.089 323.891 186.075C322.772 189.263 321.658 192.113 320.249 195.289C319.352 195.595 318.749 195.575 317.696 195.555C316.329 193.071 318.537 191.776 319.403 189.514C318.76 187.374 319.403 185.936 320.694 184.261C321.081 183.973 321.57 183.843 321.816 183.781Z" fill="#28206B"/>
<path d="M337.855 185.452C338.61 185.141 339.206 185.183 340.25 185.225C340.416 187.984 340.134 190.743 341.606 193.835C340.046 194.897 338.419 196.279 336.555 193.97C336.797 190.97 337.247 188.387 337.855 185.452Z" fill="#C4D1F9"/>
<path d="M357.761 188.585C356.274 191.201 360.022 192.587 358.538 194.712C358.296 195.059 357.228 195.209 356.792 194.979C353.845 193.419 355.28 190.289 354.469 187.941C353.966 186.485 354.37 184.466 356.276 184.585C357.997 184.693 358.266 186.531 357.761 188.585Z" fill="#675DFA"/>
<path d="M292.353 195.287C291.505 195.238 291.113 195.106 290.721 194.975C294.73 193.093 294.436 187.79 298.075 185.671C299.898 184.61 301.331 185.724 302.576 187.03C304.069 188.599 304.459 190.456 303.463 192.34C302.547 194.075 301.181 195.72 298.954 195.268C296.865 194.845 294.881 193.833 292.353 195.287Z" fill="#675DFA"/>
<path d="M308.102 186.482C314.756 187.37 314.892 187.574 313.305 193.542C310.593 193.012 312.975 188.227 309.547 188.738C307.191 189.089 308.631 192.331 306.502 193.795C305.072 190.969 303.937 188.518 308.102 186.482Z" fill="#675DFA"/>
<path d="M283.478 194.211C282.981 191.159 282.943 188.064 282.968 184.392C288.613 188.417 288.826 190.854 283.478 194.211Z" fill="#675DFA"/>
<path d="M320.793 183.602C320.689 185.411 320.297 186.849 319.669 188.677C317.21 189.093 315.389 188.509 315.887 185.789C316.352 183.254 317.76 181.903 320.793 183.602Z" fill="#675DFA"/>
<path d="M290.441 187.131C290.044 185.819 290.619 185.372 291.523 185.648C291.978 185.787 292.653 186.535 292.575 186.84C292.322 187.831 291.454 187.604 290.441 187.131Z" fill="#675DFA"/>
<path d="M208.814 113.872C209.065 113.419 209.315 113.434 209.939 113.503C210.031 114.269 209.75 114.981 209.177 115.952C208.862 115.588 208.838 114.964 208.814 113.872Z" fill="#230E6D"/>
<path d="M106.239 405.892C108.246 407.277 111.386 408.095 109.759 410.638C108.228 413.03 107.204 409.526 105.689 409.281C102.537 408.772 100.252 410.306 98.2324 412.332C95.7587 414.814 92.9988 416.763 89.7005 417.998C87.1193 418.964 85.0227 418.296 83.3542 416.291C82.8735 415.714 82.5263 414.619 82.7441 413.973C82.9941 413.231 84.0359 412.752 84.8927 413.382C89.3798 416.681 92.0437 412.871 94.9661 410.689C98.2542 408.233 101.237 405.327 106.239 405.892Z" fill="#D8F5EB"/>
<path d="M97.4597 421.722C93.4722 424.402 89.9412 426.879 86.3092 429.197C84.2395 430.518 81.9014 431.112 79.5852 429.857C78.9947 429.537 78.6223 428.511 78.5057 427.755C78.4518 427.404 79.3601 426.491 79.6492 426.563C86.8487 428.366 90.293 422.115 95.225 419.226C101.959 415.282 104.644 415.31 108.298 420.803C104.619 420.69 100.966 418.492 97.4597 421.722Z" fill="#DFF7EE"/>
<path d="M84.9072 402.882C88.8969 405.857 92.0984 403.812 95.2488 401.244C98.572 398.535 101.718 395.408 106.325 395.1C108.506 394.955 111.284 395.156 110.831 398.172C110.323 401.557 108.27 398.436 106.935 398.501C103.948 398.646 101.76 400.277 99.4802 401.92C96.698 403.923 93.9672 406.18 90.8625 407.502C87.9693 408.733 84.6092 408.89 85.0714 403.336C84.9726 402.813 84.9351 402.866 84.9072 402.882Z" fill="#DFF7EE"/>
<path d="M64.2954 485.351C66.8232 485.207 68.5996 485.947 70.2245 487.027C72.1858 488.332 71.947 490.359 71.6205 492.27C71.2828 494.246 69.6097 494.182 68.0992 494.227C67.241 494.253 66.3494 494.387 65.529 494.211C63.2302 493.718 59.7916 495.743 58.8416 492.359C57.7905 488.615 60.1564 486.336 64.2954 485.351Z" fill="#FDDC78"/>
<path d="M250.128 212.354C250.135 197.445 250.135 183.007 250.135 168.57C250.588 168.567 251.041 168.565 251.494 168.562C251.494 184.632 251.494 200.702 251.175 217.193C250.611 216.018 250.366 214.422 250.128 212.354Z" fill="#675DFA"/>
<path d="M217.529 113.704C216.457 113.056 216.247 112.381 218.129 112.669C218.22 113.064 218.03 113.255 217.529 113.704Z" fill="#675DFA"/>
<path d="M277.927 191.612C277.348 197.038 275.263 201.067 270.085 201.931C266.08 202.599 262.121 202.567 259.382 197.992C257.127 194.226 256.61 191.174 258.552 187.168C261.136 181.837 265.619 182.535 270.142 182.456C274.482 182.381 276.213 185.167 277.531 188.544C277.836 189.325 277.803 190.238 277.927 191.612Z" fill="#675DFA"/>
<path d="M258.847 351.164C265.189 358.138 264.815 364.252 258.151 369.882C252.502 374.654 243.928 374.253 239.377 369.064C235.459 364.597 235.812 360.002 238.967 355.403C240.171 353.648 242.313 352.221 239.92 349.943C238.56 348.648 237.465 346.49 235.166 347.239C232.866 347.988 231.405 349.376 230.852 352.257C228.693 363.511 216.984 368.613 208.919 362.094C204.227 358.302 203.273 351.456 206.718 346.318C210.676 340.417 219.734 338.565 225.871 342.059C227.849 343.185 228.996 346.617 232.435 344.654C237.082 342.002 237.496 339.044 233.608 335.405C229.52 331.578 228.422 326.947 230.842 321.821C233.533 316.119 240.686 312.222 246.319 313.19C252.151 314.192 255.553 317.842 256.665 323.464C257.565 328.012 253.147 335.058 247.976 336.763C243.944 338.093 238.646 339.254 239.497 343.861C240.43 348.907 245.52 350.414 250.904 349.356C253.438 348.858 256.108 349.386 258.847 351.164Z" fill="#FFFAEF"/>
<path d="M253.158 323.51C252.717 329.393 249.84 332.615 244.709 334.289C240.035 335.814 236.179 334.594 234.151 330.522C232.205 326.615 232.964 322.493 236.712 319.388C242.552 314.55 249.462 316.029 253.158 323.51Z" fill="#FDDB76"/>
<path d="M218.259 343.483C226.113 345.085 229.149 348.456 227.691 353.317C225.987 358.994 218.699 362.834 213.035 361.04C207.407 359.257 205.983 351.922 210.339 347.234C212.362 345.058 215.023 344.233 218.259 343.483Z" fill="#FDDC78"/>
<path d="M240.142 363.435C240.015 361.183 240.05 359.477 241.248 358.005C244.568 353.928 248.395 350.795 254.054 352.5C257.611 353.571 260.028 355.839 259.811 360.089C259.516 365.88 255.907 368.362 250.864 369.676C245.485 371.077 242.082 368.969 240.142 363.435Z" fill="#FDDC78"/>
</svg>
