<svg width="34" height="34" viewBox="0 0 34 34" fill="none" xmlns="http://www.w3.org/2000/svg">
<path d="M10.794 25.6275V28.8618C10.794 30.084 11.759 31.0854 12.968 31.1463V31.418C12.968 32.4668 13.8225 33.3199 14.8728 33.3199H17.3549C18.4052 33.3199 19.2597 32.4667 19.2597 31.418V31.1463C20.4687 31.0854 21.4336 30.084 21.4336 28.8618V25.6275C21.4336 23.7407 22.341 22.4764 23.3916 21.0125C24.3709 19.648 25.4809 18.1012 25.9154 15.8462C25.9334 15.7529 25.9305 15.6569 25.907 15.5648C25.8835 15.4728 25.8398 15.3871 25.7793 15.3139C25.7187 15.2406 25.6426 15.1817 25.5566 15.1412C25.4705 15.1007 25.3765 15.0798 25.2814 15.0798H16.7595V11.7504C16.7595 11.3321 16.5458 10.9527 16.1878 10.7352C16.0135 10.6285 15.8146 10.5688 15.6103 10.5618C15.4061 10.5548 15.2035 10.6007 15.0223 10.6952C14.9055 10.7557 14.7758 10.787 14.6443 10.7866C14.19 10.7866 13.8204 10.4175 13.8204 9.96387C13.8204 9.51022 14.19 9.14119 14.6443 9.14119C14.7779 9.14119 14.905 9.17186 15.0223 9.23255C15.3942 9.42475 15.8299 9.40983 16.188 9.19249C16.3631 9.0871 16.5077 8.93816 16.6079 8.76023C16.7081 8.58229 16.7603 8.38145 16.7595 8.17734V5.39793C16.7595 5.22695 16.6914 5.06298 16.5704 4.94208C16.4493 4.82119 16.2851 4.75327 16.1138 4.75327C13.5193 4.75327 11.0939 5.54555 9.2846 6.98416C7.2142 8.63044 6.11988 10.9735 6.11988 13.7601C6.11988 17.2294 7.56292 19.2395 8.83589 21.0131C9.88668 22.4767 10.794 23.7408 10.794 25.6275ZM9.88539 20.262C9.06444 19.1183 8.22523 17.9479 7.76602 16.369H9.38716C9.27726 16.6294 9.22056 16.9091 9.2204 17.1917C9.2204 18.3563 10.1692 19.3037 11.3355 19.3037C12.5019 19.3037 13.4507 18.3563 13.4507 17.1917C13.4507 16.9094 13.3934 16.6282 13.2838 16.369H15.4683V19.6984C15.4683 20.1167 15.682 20.4962 16.0396 20.7134C16.2138 20.8203 16.4129 20.8802 16.6173 20.8873C16.8217 20.8943 17.0244 20.8482 17.2056 20.7536C17.3223 20.6931 17.452 20.6618 17.5834 20.6623C18.0378 20.6623 18.4073 21.0313 18.4073 21.485C18.4073 21.9386 18.0378 22.3077 17.5834 22.3077C17.452 22.3082 17.3224 22.2769 17.2058 22.2166C16.8336 22.024 16.3976 22.0389 16.04 22.2564C15.8648 22.3617 15.7201 22.5106 15.6199 22.6886C15.5197 22.8665 15.4675 23.0674 15.4683 23.2715V25.1348H12.0671C11.9212 23.0994 10.8878 21.6584 9.88539 20.262ZM12.0853 26.424H20.1425V27.4974H12.0853V26.424ZM17.355 32.0306H14.8729C14.7102 32.0304 14.5543 31.9658 14.4393 31.851C14.3242 31.7361 14.2595 31.5804 14.2594 31.418V31.1493H17.9686V31.418C17.9684 31.5804 17.9037 31.7361 17.7887 31.851C17.6737 31.9658 17.5176 32.0304 17.355 32.0306ZM19.143 29.8599H13.0849C12.5337 29.8599 12.0853 29.4122 12.0853 28.8618V28.7868H20.1425V28.8618C20.1425 29.4122 19.6942 29.8599 19.143 29.8599ZM24.4628 16.3691C24.0037 17.9462 23.1609 19.1206 22.3422 20.2616C21.3399 21.6582 20.3067 23.0993 20.1607 25.1348H16.7595V23.4305C17.0203 23.5402 17.3004 23.5969 17.5834 23.5971C18.7498 23.5971 19.6986 22.6496 19.6986 21.485C19.6986 20.3203 18.7498 19.373 17.5834 19.373C17.3008 19.373 17.019 19.4302 16.7595 19.5396V16.3691H24.4628ZM15.4683 6.06174V8.01847C15.2075 7.90866 14.9274 7.85202 14.6444 7.85187C13.4781 7.85187 12.5293 8.79925 12.5293 9.96387C12.5293 11.1285 13.4781 12.0759 14.6444 12.0759C14.927 12.0759 15.2089 12.0186 15.4683 11.9093V15.0798H13.1247C12.7057 15.0798 12.3256 15.2932 12.1081 15.6504C12.0011 15.8244 11.9412 16.0231 11.9342 16.2271C11.9272 16.4311 11.9733 16.6334 12.0679 16.8143C12.1285 16.9309 12.1599 17.0604 12.1594 17.1918C12.1594 17.6455 11.7899 18.0145 11.3355 18.0145C10.8812 18.0145 10.5116 17.6455 10.5116 17.1918C10.5116 17.0584 10.5423 16.9315 10.603 16.8144C10.7957 16.443 10.7808 16.0078 10.5631 15.6508C10.3456 15.2933 9.96545 15.0798 9.54635 15.0798H7.49559C7.4409 14.6676 7.41102 14.2294 7.41102 13.7602C7.41102 8.72926 11.4724 6.2976 15.4683 6.06174ZM2.04004 12.6687C2.03989 12.584 2.05645 12.5002 2.08876 12.4219C2.12107 12.3436 2.16851 12.2725 2.22835 12.2125C2.2882 12.1526 2.35929 12.1049 2.43757 12.0724C2.51584 12.0399 2.59977 12.0231 2.68455 12.0229L4.56246 12.0199H4.56357C4.7348 12.0197 4.89907 12.0875 5.02025 12.2083C5.14143 12.3291 5.20959 12.493 5.20974 12.664C5.20989 12.835 5.14201 12.999 5.02104 13.12C4.90006 13.241 4.73591 13.3091 4.56468 13.3092L2.68676 13.3122H2.68566C2.51462 13.3122 2.35057 13.2445 2.22953 13.1238C2.10848 13.0032 2.04033 12.8395 2.04004 12.6687ZM15.4512 2.96387V1.32459C15.4512 1.15362 15.5192 0.989646 15.6403 0.868748C15.7613 0.747851 15.9255 0.679932 16.0968 0.679932C16.268 0.679932 16.4322 0.747851 16.5533 0.868748C16.6744 0.989646 16.7424 1.15362 16.7424 1.32459V2.96387C16.7424 3.13485 16.6744 3.29882 16.5533 3.41972C16.4322 3.54061 16.268 3.60853 16.0968 3.60853C15.9255 3.60853 15.7613 3.54061 15.6403 3.41972C15.5192 3.29882 15.4512 3.13485 15.4512 2.96387ZM6.86888 4.59486C6.75408 4.46801 6.69443 4.30082 6.70308 4.13006C6.70737 4.04551 6.72828 3.96263 6.76465 3.88615C6.80101 3.80967 6.8521 3.74109 6.915 3.68433C6.9779 3.62756 7.05139 3.58373 7.13126 3.55532C7.21113 3.52692 7.29582 3.5145 7.38049 3.51877C7.55151 3.52741 7.71208 3.60352 7.82689 3.73037L8.93578 4.9556C9.04881 5.08271 9.10699 5.24926 9.09765 5.41899C9.08831 5.58873 9.01221 5.74791 8.88591 5.86189C8.75961 5.97587 8.59333 6.03543 8.42327 6.0276C8.25321 6.01977 8.09313 5.94519 7.97787 5.82009L6.86888 4.59486ZM31.3144 1.24189H20.4195C20.2483 1.24189 20.0841 1.30981 19.963 1.43071C19.842 1.55161 19.7739 1.71558 19.7739 1.88655V12.7653C19.7739 12.9363 19.842 13.1002 19.963 13.2211C20.0841 13.342 20.2483 13.41 20.4195 13.41H31.3144C31.4857 13.41 31.6499 13.342 31.7709 13.2211C31.892 13.1002 31.96 12.9363 31.96 12.7653V1.88655C31.96 1.71558 31.892 1.55161 31.7709 1.43071C31.6499 1.30981 31.4857 1.24189 31.3144 1.24189ZM25.0427 2.53121H26.6913V4.55729H25.0427V2.53121ZM30.6688 12.1206H21.0652V2.53121H23.7515V5.20195C23.7515 5.37292 23.8195 5.5369 23.9406 5.65779C24.0617 5.77869 24.2259 5.84661 24.3971 5.84661H27.3369C27.5081 5.84661 27.6723 5.77869 27.7934 5.65779C27.9145 5.5369 27.9825 5.37292 27.9825 5.20195V2.53121H30.6688V12.1206ZM29.9438 21.8956C29.998 21.9607 30.0388 22.0359 30.0639 22.1167C30.0889 22.1976 30.0978 22.2826 30.09 22.3669C30.0822 22.4512 30.0578 22.5331 30.0183 22.608C29.9787 22.6829 29.9248 22.7492 29.8596 22.8033C29.7944 22.8574 29.7191 22.8982 29.6382 22.9232C29.5572 22.9483 29.472 22.9572 29.3876 22.9494C29.3032 22.9416 29.2212 22.9172 29.1462 22.8778C29.0712 22.8383 29.0047 22.7845 28.9505 22.7193L28.5191 22.2005V27.0607C28.5191 27.2317 28.4511 27.3957 28.33 27.5166C28.2089 27.6375 28.0447 27.7054 27.8735 27.7054C27.7022 27.7054 27.538 27.6375 27.4169 27.5166C27.2959 27.3957 27.2279 27.2317 27.2279 27.0607V22.2005L26.7964 22.7193C26.7422 22.7844 26.6758 22.8383 26.6008 22.8777C26.5258 22.9172 26.4437 22.9415 26.3593 22.9493C26.2749 22.9571 26.1898 22.9483 26.1088 22.9232C26.0278 22.8981 25.9526 22.8574 25.8874 22.8033C25.8221 22.7492 25.7682 22.6829 25.7287 22.608C25.6891 22.5331 25.6647 22.4512 25.6569 22.3669C25.6491 22.2826 25.658 22.1976 25.6831 22.1167C25.7082 22.0359 25.749 21.9607 25.8032 21.8956L27.3768 20.0035C27.4374 19.9306 27.5133 19.8719 27.5991 19.8316C27.6849 19.7913 27.7786 19.7705 27.8735 19.7705C27.9683 19.7705 28.062 19.7913 28.1478 19.8316C28.2337 19.8719 28.3096 19.9306 28.3701 20.0035L29.9438 21.8956ZM3.70896 27.0608V22.2006L3.2775 22.7194C3.22335 22.7845 3.15687 22.8384 3.08187 22.8778C3.00688 22.9173 2.92483 22.9416 2.84041 22.9494C2.756 22.9572 2.67087 22.9483 2.5899 22.9233C2.50892 22.8982 2.43368 22.8575 2.36847 22.8034C2.30324 22.7493 2.24931 22.683 2.20976 22.6081C2.17022 22.5332 2.14585 22.4513 2.13803 22.367C2.13021 22.2827 2.1391 22.1977 2.16419 22.1168C2.18928 22.036 2.23009 21.9608 2.28427 21.8957L3.85791 20.0035C3.91846 19.9306 3.99436 19.872 4.0802 19.8317C4.16605 19.7914 4.25973 19.7705 4.35458 19.7705C4.44942 19.7705 4.5431 19.7914 4.62895 19.8317C4.71479 19.872 4.79069 19.9306 4.85124 20.0035L6.42488 21.8957C6.47907 21.9608 6.51987 22.036 6.54496 22.1168C6.57006 22.1977 6.57895 22.2827 6.57113 22.367C6.56331 22.4513 6.53893 22.5332 6.49939 22.6081C6.45985 22.683 6.40592 22.7493 6.34068 22.8034C6.27548 22.8575 6.20024 22.8983 6.11926 22.9233C6.03828 22.9484 5.95315 22.9573 5.86873 22.9495C5.78432 22.9417 5.70227 22.9173 5.62727 22.8779C5.55227 22.8384 5.4858 22.7845 5.43165 22.7194L5.00019 22.2006V27.0608C5.00019 27.2318 4.93217 27.3958 4.8111 27.5167C4.69002 27.6376 4.5258 27.7055 4.35458 27.7055C4.18335 27.7055 4.01913 27.6376 3.89806 27.5167C3.77698 27.3958 3.70896 27.2318 3.70896 27.0608Z" />
</svg>
