<svg width="180" height="138" viewBox="0 0 180 138" fill="none" xmlns="http://www.w3.org/2000/svg">
<path d="M128.357 6.96255C131.48 6.68205 134.36 6.77998 137.231 6.67113C138.822 6.61084 139.679 7.07407 140.433 8.58142C146.116 19.9546 151.918 31.2681 157.776 42.7686C156.868 44.5518 155.199 45.5002 153.945 46.8731C152.089 48.9044 151.139 51.066 151.867 53.8825C152.394 55.9187 151.628 56.5974 149.535 56.2743C144.819 55.5464 139.94 58.9215 138.887 63.64C138.443 65.6299 137.202 66.268 135.263 65.5029C130.753 63.723 124.868 66.8217 123.62 71.6334C122.793 74.8231 122.496 74.9566 119.603 73.3949C117.824 72.4344 115.996 72.6898 114.157 73.1475C113.033 73.4273 111.986 74.0333 110.607 73.8983C109.761 73.5138 109.297 72.7681 108.249 72.787C107.573 72.7846 107.074 72.7707 106.378 72.6729C105.91 72.5484 105.667 72.4143 105.331 72.0525C104.771 68.9321 104.976 68.6583 107.716 68.6593C111.205 68.6604 114.695 68.6287 118.184 68.6608C114.659 68.6421 111.133 68.6505 107.607 68.6389C105.152 68.6308 104.99 68.4917 104.944 65.9693C104.889 62.9406 104.915 59.9106 104.933 56.8813C104.952 53.6419 105.117 53.4763 108.291 53.2258C108.602 53.2012 108.908 53.1563 109.411 53.0017C111.38 52.6233 113.159 52.7463 114.932 52.7399C119.875 52.7219 119.819 52.7304 119.896 47.6856C119.925 45.7576 119.382 43.8541 119.838 41.7356C123.308 40.5698 123.203 37.9558 123.151 35.1602C123.033 28.8798 123.107 22.5956 123.12 16.3129C123.122 15.1571 123.009 13.9756 123.724 12.7393C127.485 12.5701 128.371 10.3699 128.357 6.96255Z" fill="#0199DA"/>
<path d="M57.1683 6.96507C66.6579 6.7821 76.0432 6.74368 85.4285 6.70431C86.5147 6.69975 87.6009 6.68995 88.9004 6.66309C90.1466 7.55691 89.8137 8.79755 89.8377 9.91944C89.8649 11.186 90.2205 11.8985 91.6493 12.0776C94.2844 12.408 94.4454 12.6878 94.5296 15.2878C94.5346 15.443 94.5565 15.602 94.5317 15.753C93.3923 22.6909 95.9388 28.4563 100.087 33.7954C101.136 35.1452 102.539 36.4698 102.223 38.6117C99.2771 39.5415 96.4401 39.0934 93.4216 39.0317C90.5876 38.4624 90.3371 38.6412 90.3167 41.2156C90.2895 44.6317 90.3524 48.0484 90.285 51.464C90.2609 52.6825 90.1037 53.8885 88.4119 53.5649C91.5834 54.3082 89.8671 56.9071 90.2578 58.8907C90.2077 59.1892 90.1774 59.3059 90.0709 59.5846C88.5212 60.6629 88.2927 59.2172 87.8231 58.5054C84.4302 53.3618 81.2123 48.1058 77.9109 42.9032C71.6005 32.9587 65.2817 23.0196 58.9133 12.9053C58.1235 10.9084 56.8132 9.25245 57.1683 6.96507Z" fill="#0299DA"/>
<path d="M75.8338 120.79C75.3267 121.896 76.6062 123.02 75.3045 123.978C72.7145 125.412 70.0727 124.592 67.2927 124.608C66.9518 124.481 66.8187 124.421 66.4782 124.293C64.4574 123.91 65.097 122.228 64.4896 121.044C64.236 120.714 64.0852 120.52 63.8701 120.149C63.2336 118 62.9793 115.958 62.5506 113.767C62.4878 113.475 62.466 113.358 62.42 113.066C62.3575 111.847 62.0311 110.843 61.9655 109.638C61.9774 109.027 62.1293 108.601 62.1836 108.165C62.2969 107.253 61.8376 107.995 61.4874 108.06C61.0162 108.237 60.6805 108.291 60.164 108.344C59.1456 108.361 58.3043 108.381 57.2956 108.232C54.2051 107.216 51.2307 106.415 48.2913 105.501C46.6077 104.977 45.3992 105.249 44.9757 107.351C44.9075 107.619 44.8861 107.728 44.826 107.997C44.7548 108.263 44.7224 108.367 44.6316 108.624C43.9403 109.997 43.3385 111.231 42.9606 112.728C42.8875 112.98 42.8561 113.08 42.7725 113.328C42.2715 114.637 41.8365 115.805 41.0517 116.975C40.9008 117.181 40.8379 117.26 40.5823 117.572C40.2687 117.964 40.1532 118.129 39.9665 118.43C39.8363 118.653 39.7826 118.742 39.6425 118.963C38.1685 121.36 36.3867 123.145 33.6152 123.979C33.3067 124.138 33.1186 124.189 32.7843 124.218C31.9474 124.111 31.2592 124.077 30.4079 124.329C28.6346 124.371 27.0379 124.32 25.28 124.47C21.5277 124.529 17.9372 124.5 14.1345 124.45C13.8141 124.346 13.7061 124.261 13.496 123.998C12.8945 121.435 12.3631 119.052 13.0626 116.429C13.9058 115.455 14.9399 115.315 15.9217 115.171C19.8362 114.597 23.6938 113.687 27.6186 113.188C29.1835 112.989 30.0612 112.256 30.4862 110.673C31.4297 107.159 31.8891 103.506 33.5406 100.008C34.0416 99.4827 34.515 99.3451 35.2205 99.344C35.7678 99.4188 36.108 99.5505 36.6091 99.7634C36.8815 99.8833 36.9893 99.9335 37.2561 100.063C42.4253 103.82 47.5638 102.697 52.6844 100.478C55.1831 99.3942 57.5895 98.1042 60.1019 96.6414C62.1395 96.0928 63.8867 96.8288 65.8499 97.1626C66.5968 97.2872 67.176 97.3318 67.9261 97.4151C68.2126 97.4615 68.3265 97.4855 68.6086 97.557C69.0015 97.6746 69.2256 97.7462 69.6222 97.869C71.4329 98.2825 72.2041 99.4329 72.7014 100.938C73.4362 103.162 73.8833 105.445 74.3466 107.917C74.5545 109.547 74.846 110.976 75.1463 112.593C75.2128 112.896 75.2362 113.018 75.2885 113.326C75.5896 115.638 76.015 117.744 76.1133 120.078C76.0284 120.386 75.977 120.503 75.8338 120.79Z" fill="#125480"/>
<path d="M159.364 72.0872C159.507 82.2314 159.492 92.1977 159.442 102.382C159.284 102.694 159.161 102.789 158.828 102.987C157.634 103.413 156.613 103.34 155.604 103.341C141.73 103.35 127.856 103.348 113.982 103.343C112.894 103.342 111.795 103.412 110.538 102.939C109.624 102.203 109.617 101.34 109.631 100.504C109.677 97.8366 109.409 95.1618 109.886 92.3221C110.23 91.8132 110.647 91.5521 110.924 91.9055C112.663 94.1265 113.985 92.9413 115.48 91.3621C116.976 90.9878 118.307 91.0856 119.63 91.0842C129.148 91.0744 138.666 91.0936 148.185 91.071C151.119 91.064 151.226 90.93 151.233 88.0516C151.242 83.7607 151.231 79.4697 151.239 75.1788C151.24 74.2461 151.164 73.3 151.708 72.2253C154.279 71.045 156.738 71.1725 159.364 72.0872Z" fill="#55BFFA"/>
<path d="M179.338 113.005C180.534 115.466 179.747 118.114 179.731 120.778C178.726 120.401 177.851 120.62 177.011 120.619C153.237 120.605 129.463 120.609 105.46 120.605C105.077 120.586 104.925 120.568 104.597 120.401C103.648 118 103.715 115.745 104.54 113.313C105.388 112.683 106.18 112.707 106.955 112.707C126.274 112.726 145.593 112.624 165.135 112.797C169.942 113.474 174.545 112.993 179.338 113.005Z" fill="#30070A"/>
<path d="M110.12 73.5458C111.503 73.621 112.544 73.0311 113.639 72.6549C116.21 71.7727 118.586 71.7415 120.903 73.5594C122.501 74.8134 122.73 73.4755 122.881 72.1656C123.284 68.6754 128.521 63.9936 131.995 63.9791C133.348 63.9734 134.554 64.4242 135.744 65.0998C137.17 65.9095 138.092 65.3512 138.27 63.7154C138.787 58.9468 144.757 54.6362 149.447 55.6599C151.606 56.1311 151.918 55.8122 151.236 53.7031C150.67 51.9545 150.784 50.2285 151.822 48.7795C153.403 46.574 155.057 44.3792 157.717 43.0082C161.25 42.3619 163.733 43.328 165.062 45.7356C166.437 48.2271 165.937 50.7935 163.452 53.66C162.419 56.5477 159.944 58.1968 156.716 58.2278C154.204 58.252 154.183 58.2536 154.36 60.6844C154.551 63.313 153.703 65.4529 151.458 66.9154C149.371 68.2746 147.309 69.7209 144.702 69.9209C143.263 70.0313 141.921 69.7145 140.644 69.0434C139.554 68.4708 138.865 68.671 138.787 70.059C138.721 71.2492 138.227 72.3201 137.61 73.5211C137.286 74.0809 136.967 74.4216 136.483 74.8449C134.47 76.4191 132.942 78.3866 130.33 79.0929C128.301 79.573 126.637 79.0784 124.943 77.9697C123.477 77.1284 123.392 78.2639 123.197 79.0111C122.693 80.9418 121.803 82.5678 119.867 83.6671C118.909 84.141 118.073 84.4648 116.998 84.5964C116.476 84.5869 116.133 84.5163 115.604 84.5059C113.726 84.4726 112.026 84.5179 110.149 84.4619C109.854 84.4358 109.738 84.4195 109.455 84.3611C109.184 84.2789 109.079 84.2387 108.831 84.121C108.601 83.9849 108.513 83.9262 108.302 83.7805C107.821 83.44 107.452 83.4786 106.924 83.6891C106.665 83.7497 106.557 83.763 106.283 83.7617C105 83.3876 105.016 82.4022 104.892 81.3338C105.506 80.1437 106.228 79.1768 106.39 77.7805C106.771 76.2726 107.525 75.1566 108.526 73.9945C109.049 73.6249 109.484 73.5165 110.12 73.5458Z" fill="#5F0B15"/>
<path d="M57.0742 6.75004C57.4613 8.82102 58.5726 10.4988 59.2283 12.5143C59.2616 13.7642 58.6396 14.5805 58.1039 15.4337C51.1256 26.5465 44.0462 37.5955 37.1175 48.7396C36.7084 49.3977 36.3246 50.0788 35.5623 50.6649C34.668 50.8091 34.3338 50.2458 33.9861 49.7615C32.2279 47.313 30.13 45.2432 27.3932 43.6393C34.8162 31.621 42.3133 19.763 49.7816 7.88691C50.3258 7.02155 50.8812 6.52119 51.9872 6.59928C53.6106 6.7139 55.2458 6.66085 57.0742 6.75004Z" fill="#2457C6"/>
<path d="M102.326 38.6541C99.9383 34.7352 97.5956 30.9892 95.1285 27.3271C94.2185 25.9764 93.7779 24.6409 93.839 23.0044C93.9459 20.1357 93.8345 17.2594 93.8845 14.3875C93.9046 13.2349 93.5726 12.7509 92.316 12.7026C89.1813 12.5821 89.1848 12.5152 89.1818 9.39552C89.1811 8.61915 89.1722 7.84278 89.1404 6.85487C89.1274 4.93664 89.2293 3.22461 89.1259 1.52505C89.0481 0.244517 89.5492 -0.0141655 90.7129 0.000582687C95.213 0.0576105 99.7143 0.0245582 104.431 0.0651211C104.743 0.224036 104.84 0.342894 105.038 0.666818C105.376 1.54753 105.382 2.25191 105.383 2.95318C105.397 14.884 105.406 26.8148 105.379 38.7456C105.378 39.2137 105.343 39.6806 105.216 40.354C104.856 41.4865 104.292 41.5384 103.622 40.9654C102.972 40.4094 102.513 39.7115 102.326 38.6541Z" fill="#13537F"/>
<path d="M27.134 43.5024C31.1054 44.4478 32.93 47.5512 35.0153 50.5808C36.0597 51.88 36.1959 51.9984 35.71 54.1106C35.3394 55.7219 35.8105 56.0681 37.3023 55.7831C39.1497 55.4302 40.8014 56.0268 42.4209 56.9109C43.541 57.5224 44.5382 58.5683 46.1585 58.2008C46.3932 58.056 46.4847 57.9912 46.8562 57.7188C48.7468 56.4669 50.4261 56.327 52.211 57.0496C54.0798 57.8062 55.8326 56.9218 57.612 56.5592C58.2096 56.4374 58.751 56.0898 59.3204 55.8512C62.0439 54.7101 62.9144 55.1244 63.9635 58.207C64.0596 58.7592 64.081 59.1391 64.1703 59.507C64.8661 62.375 64.5563 62.9602 61.5901 64.0215C61.306 63.9749 61.1974 63.9372 60.9541 63.7974C59.8242 62.5983 58.3837 63.1163 57.0497 62.6379C56.8051 62.5222 56.7121 62.4664 56.488 62.3159C55.5131 61.4886 54.4846 61.2895 53.5465 61.7653C51.8371 62.6325 51.3497 61.6159 50.8315 60.2018C48.6461 59.2402 47.2358 60.0632 47.8479 61.9968C48.6093 64.4018 47.8702 66.339 46.7579 68.4772C46.0681 69.0235 45.3901 69.1879 44.5446 69.3996C42.9266 69.44 41.821 70.5816 40.2143 70.6116C38.6322 70.1406 37.4346 69.2777 36.1373 68.6081C32.9598 66.968 31.428 64.4823 32.038 60.8821C32.3158 59.2429 31.7003 58.7373 29.9858 59.1534C25.6603 59.1125 23.2028 56.6858 21.4276 53.0522C19.3167 47.5289 21.6079 43.6801 27.134 43.5024Z" fill="#600A14"/>
<path d="M137.177 73.709C137.633 72.2954 138.216 71.0278 138.072 69.5558C138.015 68.9761 137.755 68.3498 138.588 67.9663C139.321 67.6288 139.782 67.7576 140.459 68.198C144.614 70.8979 152.638 67.6376 153.752 62.8261C154.037 61.597 153.914 60.3694 153.469 59.1512C153.074 58.0727 153.443 57.0693 154.712 57.4465C158.53 58.5818 160.968 56.698 163.239 53.8862C166.428 59.8016 169.497 65.8026 172.775 72.2124C168.252 72.2124 164.098 72.2124 159.733 72.2386C157.115 72.2469 154.708 72.2289 152.08 72.238C151.556 72.5391 151.186 72.6569 150.601 72.7471C150.276 72.7788 150.146 72.7875 149.82 72.8099C147.222 72.8453 144.818 72.8115 142.416 72.8453C141.583 72.8571 140.675 72.6833 139.943 73.69C138.97 74.2003 138.154 74.2398 137.177 73.709Z" fill="#0298D8"/>
<path d="M109.02 107.926C127.438 108.074 145.672 108.124 163.905 108.082C165.631 108.078 166.088 108.647 165.88 110.208C165.789 110.896 165.88 111.608 165.89 112.513C165.798 112.835 165.703 112.955 165.381 113.094C145.358 113.124 125.563 113.115 105.542 113.117C105.164 113.107 105.014 113.097 104.672 112.968C103.729 111.423 103.862 109.959 104.408 108.294C105.914 107.274 107.367 107.427 109.02 107.926Z" fill="#F50105"/>
<path d="M29.7471 58.8066C33.011 57.7744 33.1046 57.856 32.5174 60.972C32.0265 63.5776 33.016 65.9594 35.2809 67.3797C36.8581 68.3687 38.4242 69.3964 40.3543 70.1208C40.2809 71.4816 39.3543 72.087 38.114 72.6463C36.2205 72.9795 34.5111 72.834 32.8093 72.879C31.573 72.9117 30.9487 73.4695 30.9434 74.7167C30.9163 81.0695 30.8663 87.4221 30.9442 93.7751C30.9587 94.9631 31.7704 95.7403 32.3165 96.886C32.6867 97.8448 32.7233 98.6708 32.9499 99.6684C33.0492 101.044 32.8218 102.105 31.6536 102.974C29.8919 103.339 28.3287 103.529 26.6331 102.719C26.4478 92.6094 26.4354 82.6291 26.426 72.4329C24.6433 67.9719 25.9379 62.4771 29.7471 58.8066Z" fill="#8FD6FB"/>
<path d="M29.7246 58.684C29.8028 58.9989 29.7415 59.3396 29.5446 59.5576C26.3568 63.0861 26.0064 67.3268 26.4355 71.9939C26.4289 72.2173 26.1991 72.2089 26.0923 72.1664C21.45 71.6702 16.9015 72.0585 12.3621 71.903C11.5593 71.8755 10.6529 72.268 9.99194 71.2774C13.7439 65.0892 17.4667 59.1245 21.2802 53.02C22.626 54.2278 23.8468 55.6093 25.146 56.9128C26.3359 58.1065 27.8202 58.6839 29.7246 58.684Z" fill="#2457C6"/>
<path d="M109.296 108.05C107.834 108.093 106.462 108.137 104.879 108.197C103.496 109.097 102.221 108.981 100.735 108.492C100.18 108.026 100.102 107.57 100.208 107.1C101.159 102.879 100.454 98.5968 100.708 94.3526C100.841 92.1267 99.5366 90.5765 98.5009 88.6802C99.4712 87.7024 100.61 87.9309 101.893 87.8779C102.752 87.9018 103.409 87.9169 104.26 87.9124C104.967 87.913 105.481 87.9261 106.183 88.011C107.143 88.2059 107.83 88.5643 108.665 89.0743C109.037 89.3649 109.222 89.563 109.498 89.9569C109.894 90.6008 110.087 91.099 110.073 91.6557C109.958 96.3369 109.923 101.016 110.414 105.893C110.33 106.684 110.135 107.198 109.591 107.757C109.542 107.96 109.386 108.051 109.296 108.05Z" fill="#FD7B03"/>
<path d="M13.7318 124.122C13.804 124.277 13.8848 124.337 13.9035 124.384C13.7562 125.252 13.1045 125.97 13.3986 127.073C13.7239 128.186 13.0713 128.524 12.4093 128.749C11.581 129.03 10.9129 129.5 10.3586 130.183C11.4602 128.964 12.8368 128.481 14.5678 128.716C17.9116 128.768 18.5863 129.616 18.7952 134.163C15.2918 137.721 12.1537 137.568 7.56535 133.668C7.38284 133.429 7.31591 133.329 7.16466 133.072C7.03726 132.805 6.99416 132.695 6.91201 132.415C6.88737 131.455 6.83113 130.739 6.03032 130.245C5.12066 129.684 4.82232 128.681 4.49267 127.726C3.96809 126.207 3.557 124.668 5.15968 123.536C6.66812 122.47 8.26491 122.185 9.96392 123.56C10.1774 123.768 10.2888 123.861 10.3795 123.97C10.579 124.21 10.3078 123.895 10.4814 124.148C10.586 124.3 10.5313 124.312 10.4018 123.965C9.66391 123.3 9.32001 122.602 9.41495 121.569C9.50913 121.319 9.57283 121.229 9.78059 121.054C10.4827 120.766 11.0442 120.781 11.7671 121.01C12.8439 121.838 13.46 122.777 13.7318 124.122Z" fill="#FE2E33"/>
<path d="M75.5066 125.371C76.0108 125.477 76.3583 125.496 76.8743 125.559C78.7707 127.208 79.0133 128.877 77.6918 130.5C79.7069 129.81 81.4881 128.516 83.8657 128.839C85.7332 129.773 85.4346 131.535 85.7725 133.2C83.8629 135.913 80.9531 136.003 78.003 136.478C75.3618 136.569 72.995 136.137 70.685 135.376C69.7177 135.057 68.7975 134.612 68.0486 133.902C67.0946 132.997 66.4415 131.918 66.8688 130.567C67.2693 129.3 68.4202 129.178 69.5433 129.116C69.9325 129.094 70.3227 129.081 70.8766 128.908C72.049 128.544 72.5135 127.797 72.8813 126.875C73.3062 125.81 73.9688 124.945 75.5066 125.371Z" fill="#FE2E33"/>
<path d="M10.5473 123.975C10.2281 124.059 9.93137 123.975 9.66158 123.838C7.74604 122.865 5.53121 123.225 4.74633 124.649C4.1779 125.68 5.30509 129.819 6.48592 129.98C8.678 130.279 7.12547 131.488 7.28198 132.421C6.75692 132.746 6.28292 132.569 6.00936 132.211C3.72977 129.234 1.64837 126.148 1.01636 122.18C2.49986 119.775 4.83995 118.643 7.17721 117.2C7.98074 118.301 7.89571 119.622 8.8856 120.663C9.05222 120.851 9.11779 120.927 9.26177 121.132C9.36868 121.356 9.39718 121.452 9.51766 121.667C9.93388 122.451 10.2581 123.117 10.5473 123.975Z" fill="#FA8E62"/>
<path d="M20.4911 112.886C20.3825 111.488 20.3848 110.278 20.4178 108.865C23.3348 108.249 26.2832 108.627 29.3618 107.957C29.7124 107.958 29.8523 107.98 30.1703 108.119C30.8362 111.5 29.7445 113.041 26.6878 113.348C26.0698 113.41 25.4663 113.6 24.6235 113.554C23.1343 113.441 21.7992 113.805 20.4911 112.886Z" fill="#F82E34"/>
<path d="M0.918572 122.04C2.3318 125.901 4.35155 129.371 7.10013 132.557C7.25935 132.59 7.27217 132.564 7.25813 132.561C7.38332 132.678 7.50967 132.811 7.68331 133.081C8.82063 133.937 9.94127 134.614 10.9644 135.415C12.3555 136.504 13.7578 136.47 15.2785 135.764C16.324 135.28 17.41 134.882 18.6337 134.397C19.0831 134.766 19.2096 135.455 18.8603 135.616C16.7931 136.563 14.7101 138.056 12.3495 137.306C9.21496 136.309 6.37062 134.662 4.63691 131.673C3.19959 129.194 1.83262 126.673 0.497404 124.138C0.144126 123.467 -0.602521 122.587 0.918572 122.04Z" fill="#600A14"/>
<path d="M104.599 120.495C128.947 120.389 153.187 120.384 177.427 120.389C178.042 120.389 178.656 120.498 179.402 120.699C179.071 120.878 178.608 120.947 178.146 120.947C153.794 120.948 129.443 120.943 104.879 120.887C104.608 120.755 104.549 120.676 104.599 120.495Z" fill="black"/>
<path d="M77.8423 135.988C80.7125 135.724 83.1848 134.898 85.6242 133.447C86.562 134.842 85.412 135.237 84.4663 135.797C80.0587 138.407 75.3469 137.753 70.6335 137.128C69.5545 136.985 68.4546 136.932 67.4026 136.679C66.7971 136.533 65.5974 136.747 66.167 135.251C68.2283 134.311 70.0607 135.282 71.9197 135.57C73.8266 135.865 75.7116 136.192 77.8423 135.988Z" fill="#5F0B15"/>
<path d="M75.6304 125.332C74.318 125.571 73.1774 125.966 73.2943 127.618C73.3797 128.824 72.5623 128.983 71.5537 129.247C69.7921 129.674 68.2588 129.673 66.7929 128.44C66.6818 127.2 66.6654 126.136 66.646 124.872C69.3582 124.479 72.0891 124.739 74.9784 124.493C75.3043 124.798 75.4508 125.002 75.6304 125.332Z" fill="#F6B590"/>
<path d="M30.4474 108.172C30.1549 108.15 30.0617 108.124 29.8307 108.143C28.7502 108.649 27.7587 108.389 26.6799 108.2C26.5211 106.348 26.4669 104.681 26.4365 102.802C28.0404 102.59 29.6205 102.59 31.4162 102.597C32.6264 104.693 31.3685 106.383 30.4474 108.172Z" fill="#57BCF4"/>
<path d="M109.74 107.936C109.121 107.392 109.705 106.977 109.836 106.297C110.053 106.104 110.199 106.095 110.561 106.129C112.059 106.593 113.387 106.538 114.708 106.538C127.699 106.54 140.69 106.54 153.682 106.539C157.578 106.539 157.578 106.537 158.822 102.758C158.952 102.582 159.181 102.566 159.294 102.583C159.606 107.899 159.606 107.898 154.372 107.9C139.561 107.903 124.75 107.907 109.74 107.936Z" fill="#009CF9"/>
<path d="M66.5826 128.415C68.0601 128.907 69.4523 129.416 71.1906 129.278C70.7569 129.992 69.9265 129.686 69.1785 129.741C67.2378 129.885 66.7475 130.758 67.6221 132.496C68.0319 133.31 68.6916 133.799 69.4792 134.187C72.0458 135.453 74.7877 135.85 77.8238 135.894C74.1842 136.701 70.4437 135.635 66.4689 135.169C65.7985 132.914 66.0413 130.737 66.5826 128.415Z" fill="#F90609"/>
<path d="M83.8906 128.737C81.9886 129.445 79.9277 129.975 78.054 131.044C77.7877 131.196 77.3289 131.01 76.9592 130.981C77.0339 130.629 76.9858 130.113 77.2024 129.951C79.1118 128.524 77.5486 127.237 77.0689 125.755C77.1202 125.607 77.2459 125.582 77.2681 125.619C78.7473 128.097 81.5439 127.727 83.8906 128.737Z" fill="#F90609"/>
<path d="M104.832 0.647555C104.664 0.516427 104.629 0.311772 104.638 0.208412C112.106 0.0834574 119.564 0.0897636 127.022 0.0125415C128.251 -0.000188385 128.642 0.347458 128.563 1.56659C128.463 3.11407 128.541 4.67315 128.573 6.44878C128.604 6.67033 128.522 6.59201 128.473 6.62117C128.28 6.64101 128.135 6.63169 127.854 6.45248C127.465 5.78752 127.412 5.24961 127.367 4.70683C127.082 1.26571 127.081 1.25953 123.514 1.25448C118.401 1.24724 113.288 1.26234 108.175 1.24517C107.1 1.24156 105.994 1.36896 104.832 0.647555Z" fill="black"/>
<path d="M104.682 120.39C104.708 120.393 104.672 120.613 104.669 120.724C95.1646 120.871 85.6626 120.907 75.9513 120.951C75.7229 120.863 75.7037 120.766 75.6862 120.521C76.4215 119.645 77.3737 119.648 78.2981 119.644C86.1962 119.612 94.0943 119.615 101.992 119.641C102.767 119.644 103.545 119.68 104.427 120.23C104.607 120.377 104.657 120.387 104.682 120.39Z" fill="#510407"/>
<path d="M64.1124 119.838C64.3485 120.144 64.3792 120.358 64.405 120.734C56.1035 120.905 47.8069 120.914 39.2903 120.893C39.0498 120.714 39.0291 120.564 39.1704 120.255C39.888 119.776 40.5031 119.681 41.1256 119.681C48.7195 119.671 56.3138 119.537 64.1124 119.838Z" fill="#510407"/>
<path d="M20.1615 112.742C21.6852 112.751 22.9904 112.804 24.5161 112.881C23.8115 114.495 22.1089 113.869 20.5761 114.284C16.9397 113.712 13.4845 114.122 10.0378 114.089C8.3685 114.073 8.50608 115.501 8.10266 116.727C7.92364 117.003 7.83034 117.098 7.53722 117.182C7.33739 117.17 7.30553 117.064 7.25037 117.06C7.33231 112.795 7.33231 112.796 11.5872 112.795C14.3725 112.794 17.1577 112.788 20.1615 112.742Z" fill="#510407"/>
<path d="M9.88464 71.1465C10.5864 71.9947 11.5221 71.6636 12.3221 71.6778C16.7829 71.7573 21.2443 71.7991 25.8456 71.9885C20.8836 72.1472 15.7816 72.1847 10.6797 72.1714C10.2243 72.1702 8.9095 72.6785 9.88464 71.1465Z" fill="#0046C3"/>
<path d="M39.3184 120.258C39.154 120.45 39.1307 120.531 39.0889 120.738C37.9122 122.875 36.0799 123.81 33.6778 124.107C33.5713 123.874 33.601 123.512 33.7313 123.471C36.3 122.668 37.8887 120.746 39.4792 118.604C40.043 119.145 40.0026 119.674 39.3184 120.258Z" fill="#092A3F"/>
<path d="M75.1788 124.467C72.4532 124.874 69.7566 125.525 66.8365 124.719C66.6429 124.673 66.6533 124.658 66.6489 124.652C66.6169 124.573 66.5893 124.5 66.6475 124.347C69.4075 124.394 72.0785 124.357 74.9682 124.096C75.194 124.17 75.197 124.256 75.1788 124.467Z" fill="#FA8E62"/>
<path d="M14.5894 128.715C13.2428 129.337 11.4398 129.118 10.559 130.842C10.416 131.122 10.0782 131.564 9.68593 131.131C9.3709 130.782 9.34233 130.392 9.71052 129.92C10.6471 128.717 12.2611 128.614 13.343 127.424C13.761 127.709 14.123 128.161 14.5894 128.715Z" fill="#F50105"/>
<path d="M165.402 113.021C165.525 112.92 165.712 112.823 165.802 112.769C170.299 112.748 174.705 112.781 179.324 112.861C178.277 113.842 176.838 113.293 175.492 113.33C172.313 113.418 169.13 113.355 165.73 113.347C165.434 113.268 165.357 113.195 165.402 113.021Z" fill="black"/>
<path d="M26.3525 108.061C27.4862 108.049 28.3972 108.082 29.5005 108.152C26.8041 109.246 23.8107 108.419 20.6631 108.671C22.2407 107.441 24.2543 108.477 26.3525 108.061Z" fill="#F90609"/>
<path d="M25.3247 124.601C26.7676 123.708 28.5602 124.327 30.4806 124.048C30.7423 124.127 30.7898 124.215 30.7406 124.418C28.9398 124.57 27.2356 124.607 25.3247 124.601Z" fill="#00070A"/>
<path d="M30.8165 124.564C30.65 124.451 30.656 124.369 30.6784 124.163C31.2472 123.49 31.8413 123.562 32.5464 124.058C32.1764 124.691 31.5424 124.477 30.8165 124.564Z" fill="#092A3F"/>
<path d="M66.6202 124.228C66.7332 124.268 66.7109 124.461 66.6776 124.554C66.5011 124.622 66.3969 124.546 66.3011 124.32C66.3494 124.213 66.4283 124.2 66.6202 124.228Z" fill="#F6B590"/>
<path d="M104.654 0.737301C111.563 0.521605 118.464 0.601364 125.361 0.485581C127.435 0.45077 128.399 0.939292 128.081 3.15578C127.939 4.14254 128.065 5.16774 128.083 6.39253C128.444 7.35051 128.269 8.13798 128.274 8.90242C128.3 12.4262 128.288 12.4263 124.54 12.5745C123.526 13.3264 123.873 14.2493 123.87 15.0567C123.843 22.5949 123.854 30.1332 123.854 37.6714C123.854 41.2446 123.854 41.2446 120.265 41.5048C119.175 42.1387 118.15 42.0367 117.162 41.9868C113.102 41.7821 109.011 42.4722 104.81 41.4155C104.644 27.8287 104.645 14.3933 104.654 0.737301Z" fill="#092A3F"/>
<path d="M104.499 41.2066C109.67 41.3256 114.697 41.3871 119.905 41.5051C120.714 44.6169 120.519 47.714 120.577 50.8005C120.613 52.6733 119.772 53.484 117.912 53.4462C115.355 53.3943 112.797 53.4334 110.02 53.4333C105.357 54.1442 105.357 54.1442 105.356 49.2192C105.274 47.8226 106.189 47.8244 107.014 47.6841C105.537 47.82 105.025 47.0819 105.228 45.7351C105.287 45.3413 105.606 44.8287 105.97 45.0778C108.656 46.9144 111.682 45.4859 114.466 46.0646C115.826 46.3474 116.768 45.9369 117.899 45.2668C117.175 44.6035 117.01 45.2457 116.772 45.5234C116.395 45.963 115.844 46.5046 115.444 45.943C114.372 44.4389 112.963 45.1113 111.623 45.073C107.908 44.967 104.182 44.2877 100.175 45.4461C101.531 46.1056 102.764 45.7861 103.891 46.0218C104.536 46.1568 105.214 46.3777 105.107 47.1458C105.016 47.8006 104.311 47.7857 103.766 47.7975C102.832 47.8176 101.898 47.8358 100.988 47.7903C100.839 47.7288 100.887 47.7482 101.118 47.8152C102.504 48.2187 104.257 46.9313 105.345 48.9243C105.343 49.4312 105.343 49.743 105.343 50.0548C105.341 54.1094 104.981 54.5639 100.968 53.994C98.1642 53.5959 95.3769 53.7083 92.581 53.6144C90.1037 53.5312 89.9166 53.3454 89.9103 50.9352C89.9016 47.5833 89.9064 44.2313 89.9087 40.8793C89.9104 38.2261 89.9126 38.2261 92.737 38.3521C95.9234 38.4515 98.9054 38.4513 102.109 38.4496C103.005 39.3483 103.68 40.2487 104.499 41.2066Z" fill="#0295D5"/>
<path d="M92.8123 38.3168C90.7128 38.0657 89.9534 38.946 90.0849 41.2257C90.2774 44.5623 90.1614 47.9184 90.1256 51.2656C90.1136 52.3921 90.4066 53.0164 91.6889 52.9802C95.2585 52.8793 98.8305 52.9078 102.372 53.4411C104.69 53.7901 105.463 52.7774 105.13 50.5867C105.038 49.9779 105.116 49.3432 105.114 48.5045C105.192 48.2472 105.271 48.2057 105.469 48.2261C105.586 48.7468 105.579 49.2057 105.585 49.6645C105.641 53.9824 105.055 53.3749 109.587 53.4337C109.538 53.58 109.288 53.8227 109.011 53.8588C105.587 54.3051 105.586 54.2973 105.586 57.6876C105.587 60.6446 105.645 63.6032 105.563 66.558C105.524 67.9882 106.034 68.4648 107.451 68.437C111.169 68.3639 114.89 68.4123 118.614 68.8855C115.189 68.8855 111.755 69.0286 108.341 68.8355C106.039 68.7053 105.203 69.5004 105.593 71.9163C105.469 72.168 105.342 72.2133 105.058 72.135C104.503 69.9193 103.145 69.4531 101.186 69.5193C99.2848 69.5835 97.3212 69.9186 95.3313 68.9678C95.5848 67.6215 96.6491 67.8027 97.5306 67.7431C99.1635 67.6326 100.804 67.707 102.441 67.6917C103.808 67.6788 104.404 67.034 104.4 65.6761C104.392 62.6354 104.412 59.5945 104.391 56.5537C104.382 55.3488 103.909 54.6419 102.603 54.632C99.328 54.6073 96.0536 54.6165 92.7789 54.6278C91.3756 54.6326 90.8693 55.3576 90.8398 56.673C90.8176 57.6648 90.9316 58.7306 89.8697 59.5257C89.6654 58.7639 89.5883 57.9793 89.6773 57.2142C89.9327 55.0202 89.6876 53.295 86.5515 53.9043C86.8645 53.4753 87.0376 53.1416 87.1034 53.1616C90.0827 54.0645 89.6761 52.0088 89.6691 50.2683C89.6563 47.0881 89.6647 43.9077 89.6691 40.7274C89.6731 37.7858 89.6758 37.7858 92.8123 38.3168Z" fill="#159DDB"/>
<path d="M104.938 71.9971C105.187 72.1242 105.268 72.1285 105.473 72.1277C105.821 72.1529 106.047 72.1833 106.44 72.2451C107.665 73.9359 107.024 75.6478 106.802 77.5448C106.517 78.8856 107.163 80.4487 105.284 81.0749C104.788 81.2754 104.499 81.1476 104.117 80.83C103.9 80.532 103.813 80.3418 103.715 79.9942C103.578 79.2767 103.427 78.7222 103.069 78.0884C102.868 77.7108 102.741 77.4551 102.495 77.1C102.286 76.8256 102.166 76.6663 101.955 76.3809C100.987 74.55 98.996 73.9902 97.9915 72.2762C98.1225 72.0163 98.2179 71.9344 98.4895 71.7712C100.71 71.4232 102.754 71.1827 104.938 71.9971Z" fill="#57BCF4"/>
<path d="M106.904 77.5904C106.242 76.0816 106.675 74.3681 106.593 72.4793C107.044 72.2512 107.48 72.226 108.081 72.2192C108.907 72.578 108.958 73.1742 108.891 73.9972C108.241 75.2668 107.604 76.353 106.904 77.5904Z" fill="#B5E2F8"/>
<path d="M124.555 12.6812C125.313 11.4948 127.573 13.3622 128.002 11.2275C128.272 9.88256 128.067 8.44199 128.086 6.82694C128.096 6.60956 128.261 6.6226 128.343 6.63666C128.455 7.42452 128.51 8.19823 128.513 8.97213C128.526 12.7276 128.521 12.7276 124.555 12.6812Z" fill="#00070A"/>
<path d="M109.034 74.1356C108.129 73.8627 108.336 73.1783 108.258 72.4182C109.114 72.1483 109.947 72.1298 110.262 73.3917C110.089 74.0869 109.582 73.969 109.034 74.1356Z" fill="#2457C6"/>
<path d="M46.7056 58.4732C46.3423 59.0903 46.414 60.1057 45.2844 59.305C44.2168 58.5484 43.0488 57.9251 41.8922 57.3043C40.2126 56.4027 38.4868 55.8964 36.5444 56.5493C34.7735 57.1445 34.2097 56.5344 34.944 54.7461C35.4217 53.583 35.6108 52.3531 35.1059 50.9159C43.0628 38.1104 51.04 25.5052 59.1353 12.792C64.5774 20.9988 69.9127 29.3065 75.222 37.6307C79.9496 45.0427 84.6486 52.473 89.5055 59.9643C89.7383 60.0815 89.8259 60.1298 90.0217 60.2824C90.2643 60.5398 90.3952 60.6957 90.6218 60.9756C92.4771 63.4413 93.492 66.1964 95.0135 68.867C95.5495 69.6263 95.8087 70.2766 95.4467 71.2048C95.2415 71.4351 95.1368 71.5058 94.8542 71.6445C93.6766 71.937 92.6567 71.8229 91.4579 71.8963C90.1082 71.9775 89.0739 72.5643 87.7372 72.7466C86.4616 72.7993 85.3834 72.8813 84.0967 72.8299C79.1596 73.0156 74.4244 72.6793 69.5147 73.0384C68.5129 73.4611 67.7103 73.866 66.6152 73.8437C65.6616 73.2014 64.8632 72.6326 63.6657 72.5193C62.2895 71.5705 61.7972 70.1443 60.897 68.8267C60.6577 68.4327 61.1464 68.1565 60.72 68.0226C60.2535 68.2823 59.8906 68.2173 59.3129 67.8286C59.0486 67.5269 59.0078 67.4331 58.9475 67.1881C58.9405 66.9374 58.9531 66.8378 59.0177 66.599C59.207 66.205 59.3454 65.9507 59.4343 65.5194C59.4956 65.2815 59.5299 65.1882 59.6544 64.9749C60.1164 64.5145 60.4792 64.1647 60.9884 63.7572C62.3606 63.4481 63.3493 62.8807 64.0822 61.7952C64.8815 60.6113 62.6481 60.1178 63.5175 58.8011C63.5022 55.4378 61.9297 54.0878 58.9789 55.0793C56.2051 56.0114 53.4328 56.5413 50.5149 56.4233C49.2161 56.3709 48.0615 56.7915 47.0636 57.943C46.915 58.0369 46.984 58.0532 46.9765 58.0186C46.9923 58.1568 46.9321 58.2926 46.7056 58.4732Z" fill="#90D6FB"/>
<path d="M94.8666 69.0047C93.2259 66.3589 91.7253 63.8002 90.1788 61.0866C90.0663 60.8639 89.9998 60.7961 89.8717 60.5999C89.7749 60.4015 89.7398 60.3315 89.6777 60.1475C89.6544 59.951 89.658 59.8687 89.6641 59.663C90.6103 58.3599 90.0646 56.9838 90.102 55.7081C90.1385 54.4613 90.4406 53.8598 91.823 53.8825C95.7223 53.9464 99.6238 53.9358 103.524 53.8867C104.773 53.8709 105.141 54.4022 105.128 55.5696C105.087 59.3136 105.08 63.0586 105.129 66.8024C105.145 68.0331 104.651 68.4132 103.466 68.4331C100.825 68.4775 98.1732 68.1671 95.4008 68.7423C95.1765 68.9521 95.0916 69.022 94.8666 69.0047Z" fill="#0199DA"/>
<path d="M44.0428 69.0494C44.8123 68.7569 45.4096 68.5489 46.1673 68.3599C49.582 67.1514 51.7733 69.0497 54.0727 71.1054C55.4363 72.9073 57.125 74.1956 58.3754 76.0808C58.988 76.9281 59.3765 77.7228 59.9556 78.5953C60.122 78.9453 60.1954 79.1536 60.2995 79.5239C60.6557 80.8004 60.7461 81.9517 60.8362 83.467C62.2978 82.6362 63.8421 82.9369 65.4834 82.5578C67.7764 82.7682 69.9063 82.746 72.2257 82.84C72.5488 82.8817 72.6781 82.9038 73 82.9709C74.8728 83.5501 76.7058 82.7962 78.5051 83.7691C79.4205 86.8011 79.8219 89.7252 79.4144 92.9245C78.4764 94.798 76.8514 94.701 75.1202 94.824C73.6275 94.7412 72.3744 95.1497 70.9015 95.1049C70.023 94.9004 69.3126 94.7864 68.4702 94.5096C67.552 93.4973 68.6506 93.1255 68.9265 92.5217C69.2593 91.7932 69.2156 91.1933 68.6108 90.6708C68.1194 90.2462 67.5451 90.0269 66.921 90.3263C66.1877 90.6781 66.0473 91.3264 66.1879 92.0695C66.3133 92.7328 66.711 93.3602 66.3542 94.2082C62.3412 95.5262 58.7965 94.1703 56.0839 91.7302C52.2264 88.2602 49.1402 83.9916 45.9784 79.7792C45.5768 80.7405 44.5061 80.585 43.2877 80.809C46.3138 82.2191 47.4648 84.9793 49.1998 87.2164C50.1995 88.5055 50.9352 90.002 51.9603 91.2658C54.3427 94.2029 54.0648 97.1081 51.9927 100.218C47.7943 102.597 43.5686 102.566 39.2784 101.127C38.545 100.88 37.8359 100.57 36.9203 100.307C36.7726 100.176 36.7742 100.222 36.7964 100.216C36.5871 100.075 36.3337 100.008 35.9581 99.9019C35.3424 99.7995 34.8394 99.7662 33.987 99.6571C33.0679 98.9715 32.927 98.2055 32.8917 97.4193C32.613 91.2268 33.0014 85.1013 35.0912 79.2073C36.6818 74.7214 39.2769 71.038 44.0428 69.0494Z" fill="#FE2F34"/>
<path d="M104.623 120.16C95.1102 120.377 85.6132 120.378 75.902 120.376C75.3674 118.161 75.0471 115.949 74.7399 113.541C74.8765 113.059 75.0574 112.817 75.5013 112.514C77.0756 112.014 78.4812 112.154 79.8723 112.151C86.9333 112.137 93.9944 112.138 101.055 112.151C102.135 112.153 103.234 112.032 104.484 112.551C104.691 112.645 104.709 112.778 104.684 112.84C104.737 112.971 104.814 113.039 104.785 113.22C104.666 115.536 104.652 117.739 104.623 120.16Z" fill="#600814"/>
<path d="M39.3898 120.373C39.3296 119.872 39.482 119.376 39.6343 118.723C39.6343 118.567 39.6216 118.549 39.6138 118.542C39.7845 118.317 39.8092 118.04 39.9945 117.698C40.0977 117.61 40.0781 117.567 40.0816 117.59C40.1587 117.478 40.2488 117.355 40.4224 117.15C41.0347 115.894 41.58 114.73 42.2367 113.453C42.6802 113.062 42.9494 112.708 43.5661 112.456C49.5671 111.975 55.3662 112.149 61.3799 112.33C62.0256 112.499 62.4017 112.71 62.8476 113.212C63.4417 115.429 63.8789 117.494 64.317 119.745C63.4775 120.485 62.5282 120.38 61.5964 120.38C54.265 120.379 46.9337 120.378 39.3898 120.373Z" fill="#600814"/>
<path d="M104.676 112.452C97.7081 112.701 90.7256 112.761 83.743 112.811C81.0254 112.83 78.3076 112.824 75.3722 112.859C75.0769 112.95 74.9995 113.011 74.8241 112.961C74.4263 111.397 74.1266 109.944 73.8479 108.3C73.9528 108.081 74.0368 108.052 74.2535 108.033C74.7558 108.091 75.1167 108.019 75.6307 107.946C76.1102 107.881 76.4293 107.798 76.9313 107.667C84.166 107.361 91.2184 107.513 98.4569 107.557C98.9897 107.619 99.3201 107.714 99.7348 107.989C99.9389 108.108 100.032 108.129 100.257 108.092C101.672 108.083 102.955 108.133 104.453 108.198C104.666 109.561 104.664 110.91 104.676 112.452Z" fill="#F82E34"/>
<path d="M62.2045 112.995C55.9498 112.872 49.8496 112.852 43.5315 112.862C43.136 113.052 42.9275 113.112 42.6001 112.942C42.9601 111.466 43.4125 110.134 43.9531 108.665C46.6723 107.46 49.4644 108.398 52.3422 107.811C54.942 107.205 57.2866 108.274 59.8846 107.95C60.4481 107.92 60.8029 107.916 61.335 107.899C62.2684 107.914 62.2227 108.54 62.4078 109.179C62.6096 110.356 62.7677 111.379 62.9139 112.576C62.8255 113.028 62.6445 113.144 62.2045 112.995Z" fill="#F82E34"/>
<path d="M74.7342 108.43C74.5049 108.529 74.3819 108.439 74.064 108.229C73.3086 105.766 72.7339 103.425 72.1931 101.076C71.842 99.5516 70.9671 98.6058 69.224 98.3112C68.9663 98.2056 68.8774 98.1513 68.6368 98.0603C68.485 98.0235 68.555 98.0394 68.5197 98.0457C67.9797 97.1255 67.8611 96.021 67.1376 94.9975C67.9966 93.9236 69.0869 94.6149 70.2483 94.4915C71.7563 94.4415 73.0783 94.326 74.6 94.2417C75.4563 95.0509 75.3667 96.0017 75.3904 96.9164C75.4703 99.9948 75.2565 103.079 75.5695 106.153C75.6522 106.966 75.4715 107.681 74.7342 108.43Z" fill="#CCE9F7"/>
<path d="M20.1956 113.7C21.7202 113.557 23.0689 113.336 24.5772 113.01C29.0105 112.743 29.0105 112.743 30.2205 108.36C30.7072 106.444 31.1665 104.712 31.6287 102.792C32.184 101.873 32.3203 100.994 32.5346 99.9656C32.8234 99.4994 33.1629 99.4226 33.7069 99.5553C33.8697 99.6375 33.9149 99.716 33.9386 99.7547C32.9902 103.53 31.9606 107.253 31.0726 111.01C30.6849 112.65 29.8386 113.515 28.1759 113.776C23.3779 114.53 18.5905 115.351 13.5313 115.98C13.4332 114.252 14.7046 114.054 15.8377 113.94C17.2249 113.8 18.6162 113.591 20.1956 113.7Z" fill="#1E8FCD"/>
<path d="M36.8489 100.321C37.8149 100.025 38.7874 100.367 39.7351 100.687C43.7614 102.046 47.6853 101.599 51.6953 100.009C53.4365 98.3408 55.3806 97.2639 57.4393 96.0462C58.5105 95.8824 59.3961 95.8185 60.291 96.5573C55.0868 100.606 49.3921 103.401 42.56 103.084C40.2873 102.978 38.7713 101.403 36.8489 100.321Z" fill="#092A3F"/>
<path d="M44.4949 107.84C45.2074 104.049 45.2227 103.999 48.7733 104.999C51.4482 105.752 54.082 106.651 56.8591 107.606C52.8878 108.119 48.7915 108.507 44.4949 107.84Z" fill="#092A3F"/>
<path d="M60.5832 96.7578C59.5768 96.5924 58.7513 96.4709 57.747 96.3413C57.467 96.2794 57.3657 96.2254 57.3473 96.0201C58.106 95.4332 58.7237 94.9241 59.4846 94.304C61.7614 94.1986 63.8136 94.8209 66.1069 94.8493C66.9047 95.688 66.9028 96.4989 66.4285 97.513C64.4488 97.3857 62.6065 97.0937 60.5832 96.7578Z" fill="#8DCCEF"/>
<path d="M13.799 124.058C13.2052 123.459 12.6063 122.642 11.9696 121.682C10.9027 119.956 11.9925 118.446 12.1391 116.719C12.348 116.161 12.6298 115.962 13.2003 116.084C13.3515 116.193 13.388 116.194 13.4014 116.182C12.9383 118.756 13.5268 121.289 13.799 124.058Z" fill="#FA8E62"/>
<path d="M44.2657 107.839C48.385 107.729 52.4568 107.759 56.7562 107.758C57.8948 107.762 58.8057 107.796 59.905 107.877C57.7572 108.423 55.3804 107.984 52.8127 108.271C49.9267 108.575 47.2552 108.386 44.3764 108.345C44.1834 108.174 44.2008 108.077 44.2657 107.839Z" fill="#CF8E74"/>
<path d="M66.4664 97.7442C66.2766 96.9315 66.262 96.1851 66.2373 95.2509C66.3944 94.9369 66.5827 94.8789 66.9255 94.963C69.0826 95.0221 68.5375 96.4884 68.5196 97.8413C67.8701 97.9716 67.2559 97.891 66.4664 97.7442Z" fill="#B5E2F8"/>
<path d="M44.118 108.327C46.8344 108.276 49.5025 108.279 52.3814 108.297C49.921 109.078 47.1981 108.518 44.2713 108.577C44.0414 108.528 44.0698 108.383 44.118 108.327Z" fill="#F90609"/>
<path d="M62.4834 109.152C62.2102 108.919 61.9688 108.505 61.62 107.989C61.713 107.285 62.136 106.907 62.6835 106.576C63.3201 107.51 62.5866 108.212 62.4834 109.152Z" fill="#092A3F"/>
<path d="M35.9323 99.9412C36.1163 99.8812 36.3871 99.9297 36.7382 100.095C36.552 100.157 36.2855 100.103 35.9323 99.9412Z" fill="#092A3F"/>
<path d="M42.448 112.928C42.6878 112.813 42.8678 112.826 43.1807 112.866C43.0871 113.04 42.8606 113.188 42.4911 113.337C42.3614 113.244 42.3748 113.151 42.448 112.928Z" fill="#510407"/>
<path d="M39.9652 117.67C40.018 117.875 39.9383 118.141 39.7323 118.47C39.6815 118.266 39.7572 117.998 39.9652 117.67Z" fill="#092A3F"/>
<path d="M62.1293 113.009C62.2396 112.863 62.4291 112.833 62.7603 112.776C62.9327 112.849 62.9635 112.949 62.9994 113.206C62.7392 113.284 62.4739 113.205 62.1293 113.009Z" fill="#510407"/>
<path d="M68.5476 98.1197C68.6388 97.9712 68.7808 97.9937 68.9831 98.1751C69.0552 98.2596 68.8274 98.2922 68.8274 98.2922C68.8274 98.2922 68.6102 98.2163 68.5476 98.1197Z" fill="#B5E2F8"/>
<path d="M40.3846 117.119C40.4293 117.207 40.3693 117.358 40.1972 117.561C40.1501 117.469 40.215 117.325 40.3846 117.119Z" fill="#092A3F"/>
<path d="M74.7141 112.975C74.7262 112.85 74.9426 112.844 75.0486 112.866C75.1179 113.029 75.0446 113.146 74.8438 113.293C74.736 113.263 74.719 113.181 74.7141 112.975Z" fill="#510407"/>
<path d="M158.733 102.582C158.965 107.273 158.965 107.273 154.323 107.273C140.539 107.273 126.755 107.284 112.971 107.248C112.053 107.246 110.895 107.777 110.211 106.335C109.924 105.058 110.074 103.967 110.129 102.69C126.304 102.525 142.409 102.553 158.733 102.582Z" fill="#229AF6"/>
<path d="M110.195 102.287C110.175 103.582 110.151 104.667 110.142 105.944C110.156 106.138 110.028 106.153 109.967 106.133C109.876 101.908 109.829 97.7045 109.827 93.5006C109.826 92.3946 109.785 91.3237 109.119 90.1957C110.273 88.8301 111.833 89.3161 113.267 89.2469C114.589 89.1832 115.918 89.1859 117.462 89.2723C119.28 89.205 120.878 89.2195 122.694 89.2733C125.087 89.2 127.262 89.212 129.655 89.2731C131.463 89.205 133.053 89.2206 134.86 89.2736C137.237 89.1895 139.398 89.2427 141.772 89.2596C143.532 89.2221 145.079 89.2591 146.832 89.2678C147.579 89.2893 148.117 89.2245 148.852 89.1759C150.15 88.5965 149.852 87.5577 149.86 86.6746C149.895 82.8703 149.863 79.0656 149.882 75.2611C149.886 74.3392 149.758 73.3878 150.397 72.3694C150.862 72.2039 151.196 72.2013 151.694 72.2319C151.876 78.1067 151.833 83.9496 151.951 89.7891C151.986 91.5497 151.254 91.8171 149.742 91.8111C138.291 91.7659 126.841 91.7884 115.171 91.8009C113.723 92.721 112.429 92.6925 110.912 91.9439C109.645 93.1828 110.329 94.7757 110.23 96.2602C110.1 98.1914 110.193 100.137 110.195 102.287Z" fill="#B5E2F8"/>
<path d="M110.748 91.9743C111.998 91.8007 113.264 91.7936 114.742 91.799C115.107 93.0655 114.379 93.7457 113.312 93.9936C111.842 94.3353 111.321 93.1683 110.748 91.9743Z" fill="#57BCF4"/>
<path d="M104.896 113.341C104.679 113.333 104.657 113.118 104.658 113.011C117.725 112.876 130.79 112.842 143.855 112.825C150.933 112.815 158.011 112.834 165.307 112.88C165.525 112.92 165.514 113.13 165.512 113.236C145.378 113.344 125.245 113.347 104.896 113.341Z" fill="#00070A"/>
<path d="M142.242 89.7822C139.935 89.956 137.726 89.9792 135.3 89.9747C132.875 86.5215 131.086 82.9096 130.272 78.7522C132.483 77.7614 134.074 76.1986 135.861 74.6548C138.055 77.9814 139.336 81.7268 140.942 85.319C141.553 86.6869 142.739 87.9195 142.242 89.7822Z" fill="#0199DA"/>
<path d="M142.352 89.9684C141.036 86.0456 138.983 82.557 137.461 78.8444C136.933 77.5586 136.229 76.3447 136.011 74.7693C136.261 74.3076 136.522 74.0192 136.903 73.6462C137.841 73.5414 138.661 73.521 139.682 73.4625C140.116 73.3217 140.354 73.3061 140.748 73.4825C143.012 78.2657 145.088 82.9618 147.204 87.6396C147.494 88.2793 147.788 88.9284 147.374 89.8001C145.701 89.9654 144.13 89.9848 142.352 89.9684Z" fill="#00C6E8"/>
<path d="M130.056 89.78C127.752 89.9532 125.545 89.9756 123.12 89.9693C121.196 88.1784 120.667 85.7977 119.608 83.5185C121.46 82.036 122.615 80.3473 122.709 77.9708C122.76 76.6849 123.432 76.1577 124.723 77.1341C126.932 81.2409 129.184 85.156 130.056 89.78Z" fill="#0298D8"/>
<path d="M130.168 89.9664C128.673 85.6515 126.165 81.884 124.796 77.4575C126.387 78.2066 128.016 79.0427 130.168 78.6027C131.926 82.2668 133.486 85.9356 135.065 89.7756C133.515 89.9653 131.946 89.9837 130.168 89.9664Z" fill="#00C6E8"/>
<path d="M161.896 50.4644C160.499 52.337 159.418 54.3904 156.649 54.9076C156.846 53.7481 158.202 52.8958 157.041 51.8754C155.928 50.8965 155.075 51.8822 153.756 52.4075C154.656 49.2067 156.616 47.3341 159.239 45.8237C160.91 46.9266 161.492 48.5658 161.896 50.4644Z" fill="#0894D3"/>
<path d="M144.148 60.1264C145.538 59.5101 146.549 58.3704 148.254 58.5209C148.039 59.7088 146.438 60.5796 147.775 61.8714C148.811 62.8724 149.557 61.7572 150.443 61.6536C150.281 63.9249 146.538 66.4511 143.301 66.3979C143.846 65.5151 145.084 64.8912 144.344 63.689C143.586 62.4563 142.401 63.2605 141.308 63.3036C141.497 61.4626 142.855 60.9331 144.148 60.1264Z" fill="#0894D3"/>
<path d="M128.731 73.712C128.304 72.2211 127.233 72.0799 125.809 72.0545C127.397 69.4416 129.481 67.8635 132.546 66.645C132.136 67.7536 131.439 68.4094 131.894 69.1988C132.436 70.1416 133.285 70.0347 134.136 69.7931C135.539 69.3942 135.099 70.358 134.932 70.9383C134.509 72.4047 132.934 72.802 131.922 73.9262C130.797 74.0687 129.812 74.3417 128.731 73.712Z" fill="#0E88CF"/>
<path d="M119.431 83.3779C121.444 85.0374 121.647 87.5875 122.886 89.7727C121.332 89.9625 119.761 89.9841 117.979 89.9696C116.514 88.6077 115.653 87.0935 115.565 85.059C115.793 84.5436 116.085 84.3476 116.625 84.2442C117.627 83.9697 118.448 83.6881 119.431 83.3779Z" fill="#00C6E8"/>
<path d="M112.032 76.6342C113.999 75.993 115.674 74.5084 117.995 75.3659C117.125 76.3546 115.086 76.4342 115.79 78.1858C116.618 80.246 118.175 78.4828 119.541 78.6252C118.701 81.2607 116.211 81.1153 114.191 81.9582C113.429 81.6039 113.22 81.0603 113.201 80.2559C112.999 79.7626 112.847 79.4132 112.632 78.9324C112.117 78.2066 111.549 77.6491 112.032 76.6342Z" fill="#09B8DD"/>
<path d="M108.466 89.1889C107.796 89.1169 107.282 88.9059 106.647 88.6259C105.547 87.2685 105.829 85.8146 106.047 84.1729C106.202 83.8503 106.287 83.7331 106.577 83.548C106.783 83.4802 106.907 83.5104 106.947 83.4601C107.309 83.1495 107.666 83.0704 108.206 83.3311C108.348 83.4622 108.373 83.4239 108.35 83.428C108.415 83.54 108.503 83.6479 108.683 83.9432C109.18 85.7846 109.301 87.4297 108.466 89.1889Z" fill="#B5E2F8"/>
<path d="M162.014 50.5438C161.08 49.1378 160.291 47.6369 159.455 45.9691C162.486 45.9407 163.455 47.578 162.014 50.5438Z" fill="#FEFEFF"/>
<path d="M128.507 73.7084C129.571 73.6324 130.544 73.6843 131.645 73.8576C130.562 75.4074 129.146 76.1295 127.173 75.2351C127.603 74.7514 128.009 74.2939 128.507 73.7084Z" fill="#0298D8"/>
<path d="M116.721 84.151C116.558 84.3724 116.31 84.4937 115.966 84.7154C113.805 86.5295 111.669 86.1063 109.391 84.8644C109.266 84.5698 109.261 84.4363 109.436 84.2165C111.594 84.0613 113.574 84.1517 115.718 83.9733C116.134 83.9272 116.385 83.9891 116.721 84.151Z" fill="#600814"/>
<path d="M111.981 76.4927C112.277 77.1395 112.416 77.7993 112.563 78.6302C111.685 78.4068 110.795 78.8678 109.863 78.8512C109.926 77.5048 110.858 76.9911 111.981 76.4927Z" fill="#0E88CF"/>
<path d="M113.092 80.2622C113.426 80.63 113.702 81.1479 113.996 81.8143C113.219 82.6569 112.379 82.4185 111.59 82.2616C112.104 81.6032 112.569 81.0077 113.092 80.2622Z" fill="#0E88CF"/>
<path d="M106.607 83.4485C106.748 83.5535 106.714 83.6264 106.609 83.7975C106.167 84.2162 105.793 84.5311 105.098 84.3694C104.79 82.9555 102.917 82.1202 104.061 80.5264C104.44 80.7535 104.647 80.9438 104.994 81.1506C105.805 81.7793 105.187 83.1342 106.607 83.4485Z" fill="#600A14"/>
<path d="M115.666 83.8648C113.925 84.8818 111.833 84.0894 109.604 84.2969C109.323 84.2183 109.254 84.1581 109.257 83.9813C111.369 83.8646 113.409 83.8645 115.666 83.8648Z" fill="#610C16"/>
<path d="M108.346 83.3142C108.01 83.4377 107.673 83.4133 107.161 83.3993C107.374 82.9614 107.645 81.8708 108.346 83.3142Z" fill="#600A14"/>
<path d="M109.216 83.8616C109.33 83.865 109.344 84.0745 109.368 84.1766C109.392 84.2787 109.365 84.3032 109.35 84.3138C109.226 84.3506 109.117 84.3768 108.941 84.1233C108.874 83.8437 109.102 83.8582 109.216 83.8616Z" fill="#600A14"/>
<path d="M108.503 83.9856C108.41 83.8667 108.351 83.6529 108.339 83.5427C108.467 83.5027 108.606 83.573 108.81 83.7435C108.874 83.8436 108.85 83.8769 108.837 83.8927C108.747 83.9739 108.671 84.0392 108.503 83.9856Z" fill="#600A14"/>
<path d="M54.259 71.598C51.9995 69.7559 49.725 68.279 46.5424 68.3773C46.677 67.5201 46.9792 66.638 47.3878 65.8082C47.8859 64.7965 48.1072 63.9379 47.3731 62.8396C46.6478 61.7545 46.6652 60.4504 47.7911 59.4828C48.7729 58.639 49.8337 58.4269 51.0326 59.472C51.316 59.6251 51.4312 59.7332 51.4491 59.8795C51.734 62.211 51.7498 62.2548 53.8043 61.4503C54.8487 61.0413 55.7347 61.4243 56.7709 61.8391C56.872 61.9651 56.8731 62.1493 56.883 62.2409C57.6714 63.1202 57.4316 64.1782 57.6057 65.1188C57.7876 66.1018 57.3245 67.3673 58.951 67.8014C59.2084 68.7041 58.8318 69.2531 58.2302 69.8739C57.2589 70.6574 56.1405 70.653 55.086 71.2168C54.7848 71.412 54.6036 71.507 54.259 71.598Z" fill="#F6B590"/>
<path d="M33.8585 99.4534C33.5417 99.6718 33.2138 99.7062 32.7209 99.7684C31.7844 99.263 32.1958 98.4088 31.9436 97.5382C31.4721 95.2713 31.2597 93.1701 31.3707 90.8345C31.5424 89.0207 31.2953 87.39 31.7045 85.6088C31.9398 84.7035 32.1009 83.9783 32.3428 83.0909C32.4725 82.1049 32.708 81.3278 33.0048 80.3924C33.337 79.516 33.5838 78.7873 33.9563 77.9349C34.4791 76.9624 34.9099 76.1232 35.3958 75.1368C35.6872 74.6487 35.9558 74.334 36.2643 73.859C36.7354 73.0902 37.2714 72.6241 38.105 72.276C38.9176 71.6314 39.5913 71.0542 40.3854 70.3508C41.6654 69.8745 42.5688 68.8674 44.0479 68.9365C35.551 74.2092 33.9638 82.7992 33.5122 91.8565C33.3896 94.3149 33.1324 96.8275 33.8585 99.4534Z" fill="#FA8E62"/>
<path d="M27.3848 54.8798C26.3674 53.8 25.4562 52.8469 24.5973 51.8487C23.2994 50.3405 23.2483 48.1907 24.6309 47.1313C26.2043 45.9258 27.6403 46.4844 28.9622 47.7895C31.5512 50.3457 32.0853 51.1476 32.2111 53.189C31.2054 52.683 30.232 51.664 29.1561 52.8554C28.2872 53.8175 29.2123 54.5534 29.645 55.3343C28.7232 56.0103 28.1683 55.2288 27.3848 54.8798Z" fill="#2457C6"/>
<path d="M43.2224 63.795C40.6726 64.7522 42.0179 65.9592 42.8931 67.1217C39.9486 67.5489 35.8137 64.7391 35.4402 61.8101C36.4877 62.6143 37.4784 63.7165 38.6187 62.5713C39.9816 61.2026 37.9899 60.4815 37.7856 59.0649C40.4668 59.6488 42.5218 61.0636 44.4876 62.611C44.8452 62.8925 45.2832 63.5608 44.9009 64.0074C44.4776 64.5021 43.9163 63.8693 43.2224 63.795Z" fill="#8DCCEF"/>
<path d="M47.0963 57.9999C47.6743 56.1634 49.306 55.6419 51.0539 55.6933C53.7915 55.7737 56.3572 55.4491 58.9679 54.4448C61.9154 53.3111 63.8202 55.0708 63.5761 58.4706C62.4707 55.2849 62.3015 55.1211 59.2527 56.6836C57.411 57.6274 55.2797 57.2658 53.5145 58.3087C53.203 58.4928 52.9432 58.3325 52.6925 58.1129C50.9321 56.5707 49.1087 57.0802 47.0963 57.9999Z" fill="#A1061F"/>
<path d="M58.9759 67.9651C55.7557 67.1168 57.3966 64.521 56.8793 62.5349C58.2665 62.2117 59.5808 62.4256 60.8749 63.1459C60.6259 63.8063 60.4601 64.4259 59.9139 65.0078C59.7918 65.2104 59.7608 65.2865 59.7069 65.4836C59.6764 65.8244 59.638 66.0386 59.4992 66.3958C59.4068 66.6573 59.3839 66.7702 59.3176 67.0335C59.2742 67.1839 59.309 67.311 59.2987 67.376C59.3763 67.6592 59.3251 67.8375 58.9759 67.9651Z" fill="#CF8E74"/>
<path d="M56.7896 61.8087C55.5033 61.2353 54.2429 61.628 52.9863 62.3012C52.3987 62.6161 51.7266 63.2248 51.099 62.7623C50.4972 62.3188 51.3167 61.6718 51.2422 61.0788C51.1947 60.7004 51.2286 60.3118 51.1978 59.7373C51.7503 60.8497 52.243 62.0867 54.1402 61.0061C54.9004 60.5731 55.962 60.9702 56.7896 61.8087Z" fill="#510407"/>
<path d="M59.9749 65.1136C59.7707 64.3892 60.0676 63.8042 60.7831 63.3042C60.9705 63.3267 61.0171 63.3917 61.0944 63.5728C61.0909 64.3691 60.8409 64.896 59.9749 65.1136Z" fill="#8DCCEF"/>
<path d="M46.7238 58.4913C46.6611 58.3989 46.6991 58.2427 46.8531 58.0352C46.9209 58.1317 46.8727 58.2796 46.7238 58.4913Z" fill="#A1061F"/>
<path d="M140.82 73.7873C140.466 73.6264 140.297 73.5749 140.006 73.4741C139.638 72.0011 140.653 72.1847 141.49 72.1844C144.206 72.1837 146.921 72.2001 149.856 72.2351C150.542 77.7807 150.18 83.3108 150.269 88.8356C150.276 89.281 150.041 89.5554 149.397 89.6449C148.268 88.7683 148.424 87.6356 148.41 86.5757C148.366 83.332 148.342 80.0863 148.412 76.8441C148.453 74.9507 147.702 74.2124 145.813 74.2669C144.213 74.3131 142.564 74.5593 140.82 73.7873Z" fill="#2457C6"/>
<path d="M149.061 89.591C150.454 89.2286 150.038 88.1853 150.044 87.4146C150.077 82.5026 150.064 77.5902 150.07 72.4692C150.075 72.2605 150.299 72.2143 150.414 72.2104C150.521 77.5396 150.533 82.8727 150.482 88.2053C150.475 88.8944 151.039 90.0664 149.312 89.9806C149.058 89.854 149.009 89.7728 149.061 89.591Z" fill="#0046C3"/>
<path d="M38.0195 72.1931C37.7935 72.7456 37.3433 73.2825 36.7815 73.9216C35.7716 74.7235 34.6937 74.6145 33.5024 74.7244C32.6901 75.097 32.6844 75.7075 32.703 76.4907C32.7096 77.3457 32.7128 78.0359 32.7207 78.9032C32.8602 80.2569 32.4038 81.4366 32.8375 82.7604C32.8142 83.5784 32.6925 84.2479 32.5293 85.0842C31.2313 86.6712 32.096 88.3834 31.8513 90.1174C31.8946 92.5091 31.9286 94.725 31.9283 97.148C29.6876 95.531 30.2254 93.0113 30.2171 90.6448C30.198 85.2098 30.2789 79.7733 30.1724 74.3403C30.1376 72.5634 30.7232 72.0039 32.4403 72.133C34.2164 72.2664 36.0096 72.1722 38.0195 72.1931Z" fill="#C6E6F6"/>
<path d="M74.7084 108.62C74.4748 108.007 75.3668 107.884 75.2286 107.224C74.3601 103.074 75.0542 98.8661 74.802 94.4821C76.1702 94.1104 77.5967 94.2041 78.9201 93.2276C81.0995 92.5654 82.9979 93.7373 85.1973 93.8041C87.2733 95.6634 87.8204 97.7514 86.8458 100.227C86.5046 101.094 86.322 102.023 86.1368 102.938C85.9731 103.747 85.3848 104.724 86.1907 105.347C87.094 106.045 88.2918 105.749 89.3656 105.623C90.0822 105.539 90.1488 104.96 90.0378 104.373C89.8495 103.378 89.5576 102.406 89.3207 101.421C88.7855 99.1962 87.717 96.9687 89.5895 94.8094C89.9273 94.4199 89.7113 93.7497 89.683 93.0265C89.7985 91.1259 89.67 89.3063 91.6898 88.194C93.6036 87.7043 95.3619 87.8955 97.3195 87.9449C97.8013 88.0328 98.0583 88.1374 98.435 88.4462C100.639 89.9694 101.458 91.8876 101.379 94.3525C101.279 97.4611 101.31 100.576 101.375 103.687C101.404 105.126 101.217 106.468 100.434 107.873C100.388 108.033 100.379 108.108 100.4 108.139C100.345 108.236 100.271 108.302 100.078 108.276C92.1505 108.174 84.3414 108.164 76.3138 108.171C76.0246 108.252 75.9539 108.316 75.7599 108.308C75.354 108.364 75.0715 108.493 74.7084 108.62Z" fill="#FCB01E"/>
<path d="M98.7773 88.5746C98.3688 88.5688 98.1641 88.533 97.8071 88.4624C97.2115 88.0453 97.0063 87.5276 96.9975 86.9762C96.9389 83.32 96.6329 79.6583 97.2798 75.83C99.0465 74.3933 99.8249 75.7863 100.837 76.9303C101.063 77.2552 101.184 77.4419 101.386 77.7615C101.524 77.9798 101.576 78.0675 101.698 78.2885C101.854 78.5989 101.937 78.7777 102.075 79.0904C102.203 79.4028 102.265 79.585 102.37 79.9058C102.483 80.2265 102.546 80.4115 102.648 80.7416C102.789 81.4006 102.759 81.8983 102.406 82.4873C102.17 82.7464 102.018 82.8758 101.748 83.0877C101.568 83.2461 101.5 83.3125 101.348 83.4921C100.691 84.793 101.744 85.071 102.475 85.7139C102.792 86.2598 102.841 86.7111 102.825 87.3511C102.761 87.7686 102.667 87.9878 102.4 88.315C101.175 88.4764 100.078 88.5106 98.7773 88.5746Z" fill="#57BCF4"/>
<path d="M108.384 84.0788C108.41 83.8663 108.617 83.8887 108.72 83.8984C108.87 84.066 108.966 84.1851 109.222 84.2946C111.28 85.7691 113.365 85.5343 115.679 84.8259C115.893 86.6398 117.257 87.9452 117.745 89.7657C114.996 89.9593 112.225 89.9857 109.25 90.0265C108.882 89.8836 108.717 89.7263 108.431 89.4484C108.325 87.6489 108.341 85.9701 108.384 84.0788Z" fill="#0298D8"/>
<path d="M104.913 84.2717C105.491 84.1303 105.867 84.0179 106.391 83.9004C106.544 85.3077 106.549 86.7202 106.54 88.3447C106.03 88.5418 105.535 88.5268 104.859 88.4722C104.585 88.3325 104.493 88.2326 104.305 87.9527C103.986 86.5589 103.743 85.342 104.913 84.2717Z" fill="#57BCF4"/>
<path d="M104.475 87.9635C104.607 88.0774 104.676 88.2483 104.676 88.3403C104.007 88.4605 103.338 88.4886 102.47 88.4794C102.276 88.257 102.28 88.0721 102.317 87.7523C103.063 87.2845 103.712 87.4836 104.475 87.9635Z" fill="#600A14"/>
<path d="M12.3028 116.513C13.1035 118.215 11.7206 119.577 11.9397 121.332C11.2871 121.483 10.6424 121.424 9.80379 121.348C9.52977 121.385 9.44974 121.44 9.26273 121.396C9.15575 121.297 9.14132 121.317 9.15117 121.31C8.36495 120.269 7.54907 119.242 7.98898 117.627C9.35835 116.795 10.6685 116.285 12.3028 116.513Z" fill="#F6B793"/>
<path d="M11.9213 124.987C11.8874 124.986 11.8122 124.923 11.7371 124.86C11.7847 124.882 11.8323 124.904 11.9213 124.987Z" fill="#FA8E62"/>
<path d="M11.9443 125.068C11.9927 125.1 12.0481 125.127 12.1035 125.154C12.0665 125.166 12.0295 125.178 11.9776 125.12C11.9626 125.049 11.9513 125.062 11.9443 125.068Z" fill="#FA8E62"/>
<path d="M7.71006 133.059C7.59144 133.085 7.43941 132.965 7.26575 132.701C7.38829 132.676 7.53247 132.795 7.71006 133.059Z" fill="#FA8E62"/>
<path d="M10.5887 124.089C10.7025 124.139 10.7899 124.214 10.8774 124.288C10.7848 124.301 10.6921 124.313 10.5559 124.247C10.5123 124.167 10.5622 124.114 10.5887 124.089Z" fill="#FA8E62"/>
<path d="M9.15356 121.43C9.23267 121.283 9.30972 121.269 9.49822 121.293C9.60966 121.33 9.60982 121.558 9.60966 121.672C9.45684 121.711 9.30418 121.637 9.15356 121.43Z" fill="#F82E34"/>
<path d="M8.37283 117.636C7.92035 119.037 8.65757 119.971 9.15506 121.134C7.3875 120.618 7.28932 119.09 7.29861 117.349C7.33742 117.17 7.52457 117.204 7.6195 117.211C7.95811 117.22 8.17203 117.301 8.37283 117.636Z" fill="#F82E34"/>
<path d="M8.55788 117.775C8.2267 117.691 8.06446 117.571 7.80831 117.335C7.78059 113.36 7.78072 113.34 11.7514 113.367C14.5275 113.386 17.3031 113.469 20.2252 113.651C18.581 114.107 16.7988 114.497 14.9966 114.738C14.2002 114.844 13.7449 115.165 13.4227 116.034C13.108 116.269 12.8646 116.344 12.5423 116.52C11.2179 116.994 9.97234 117.367 8.55788 117.775Z" fill="#600814"/>
<path d="M105.751 48.2707C105.508 48.2872 105.429 48.2868 105.232 48.2873C103.037 48.2883 100.961 48.2883 98.8854 48.2883C98.8697 48.0595 98.8541 47.8307 98.8384 47.6018C100.716 46.9748 102.781 47.6437 104.716 47.0024C103.63 46.3647 102.373 46.3844 101.243 46.6342C100.499 46.7988 100.052 46.7931 99.689 46.1877C99.3883 45.6869 99.419 45.119 99.7511 44.641C100.097 44.1433 100.623 44.3057 101.152 44.2398C103.315 43.9708 105.588 44.9067 107.664 43.6644C107.895 43.5261 108.433 43.4974 108.558 43.6456C109.982 45.3423 111.652 44.1721 113.239 44.1526C114.298 44.1395 115.686 43.9043 115.604 45.9986C116.585 45.1282 116.491 43.3738 117.931 43.8111C119.43 44.2665 117.584 45.7165 118.966 46.4766C114.235 46.2706 109.868 47.3377 105.571 46.0328C105.186 48.6434 108.237 46.5363 109.093 47.8438C108.146 48.8702 106.884 47.6645 105.751 48.2707Z" fill="#1E8FCD"/>
<path d="M93.6505 48.6057C92.3009 47.7264 91.1806 46.8258 91.7312 45.1743C92.0774 44.1361 92.6558 43.2379 93.9768 43.1236C95.8938 42.9576 96.8949 44.0907 97.3928 45.6428C97.8102 46.944 95.9002 48.468 93.6505 48.6057Z" fill="#1E8FCD"/>
<path d="M98.5792 43.8735C99.183 44.6376 99.1829 45.387 98.6229 46.311C97.8543 45.4593 98.0158 44.6799 98.5792 43.8735Z" fill="#1E8FCD"/>
<path d="M94.7526 69.0951C94.8157 68.9096 94.9048 68.9019 95.1277 68.8881C97.6473 68.8837 100.048 69.0489 102.415 68.8406C104.756 68.6346 105.471 69.5715 105.108 71.9154C102.931 72.1442 100.757 72.1686 98.3686 72.2001C98.005 72.3318 97.8354 72.4171 97.5037 72.4705C97.264 72.4527 97.1692 72.4338 96.9367 72.3699C96.3569 72.1377 95.8763 72.0132 95.5532 71.4381C95.2733 70.6222 95.0259 69.9475 94.7526 69.0951Z" fill="#0298D8"/>
<path d="M104.64 87.8783C103.94 88.0644 103.256 88.1637 102.502 87.6878C102.326 87.1299 102.302 86.642 102.283 85.9706C101.481 85.153 100.255 84.7901 100.804 83.1896C100.903 83.0383 101.016 82.899 101.105 82.8847C101.365 82.8432 101.516 82.7718 101.743 82.5742C102.332 82.1397 102.187 81.6294 102.209 81.0101C102.247 80.6715 102.192 80.4958 101.976 80.2341C101.837 79.9765 101.791 79.8277 101.761 79.5625C101.777 79.2477 101.71 79.0734 101.483 78.818C101.38 78.7162 101.286 78.6069 101.298 78.5357C101.294 78.2743 101.221 78.1085 100.986 77.8765C100.079 77 99.2781 76.2142 98.327 75.3903C98.0989 75.3228 98.0212 75.2932 97.8342 75.2016C97.5828 75.0432 97.441 74.9462 97.1846 74.7764C96.9925 74.6515 96.9156 74.5989 96.7236 74.4629C96.0084 73.9543 95.3529 73.8172 94.4724 74.0322C93.3565 74.191 92.4062 74.2297 91.2872 73.9231C90.2119 73.1974 90.0615 72.439 90.9349 71.4219C92.1828 71.2593 93.2945 71.2345 94.6116 71.2469C95.4018 71.8658 96.151 71.9491 97.0661 72.0457C97.2138 72.1141 97.1771 72.132 97.1778 72.1116C97.3592 72.4015 97.6796 72.3967 98.1176 72.507C99.9558 73.2334 101.299 74.3313 102.33 76.0055C102.384 76.3483 102.46 76.5172 102.713 76.7418C102.975 77.0187 103.119 77.2134 103.276 77.5332C103.533 78.2315 103.489 78.9098 104.03 79.5317C104.176 79.8518 104.219 80.053 104.248 80.4085C103.532 81.0712 103.874 81.537 104.382 81.829C105.252 82.3292 105.098 83.1205 105.115 84.0633C104.292 85.3013 104.86 86.5386 104.64 87.8783Z" fill="#5F0B15"/>
<path d="M104.136 79.4907C103.091 79.5092 103.265 78.7194 103.277 77.8403C103.572 78.2158 103.855 78.7731 104.136 79.4907Z" fill="#600A14"/>
<path d="M98.227 72.4803C97.9545 72.5014 97.6502 72.4337 97.2622 72.2286C97.3947 72.1163 97.6108 72.1414 97.9906 72.1869C98.1543 72.2073 98.1952 72.3915 98.227 72.4803Z" fill="#600A14"/>
<path d="M102.803 76.6826C102.694 76.6952 102.557 76.5667 102.393 76.2953C102.502 76.2822 102.638 76.4118 102.803 76.6826Z" fill="#600A14"/>
<path d="M58.804 68.1087C58.9408 67.8583 59.065 67.7623 59.2388 67.5537C59.6411 67.5949 59.9937 67.7487 60.4905 67.9356C60.8176 68.0092 60.9374 68.1163 61.0106 68.4292C62.0468 69.4977 62.8656 70.5612 63.3145 72.0561C64.1262 72.9253 64.1869 74.8185 66.1491 73.6601C66.994 73.4398 67.678 73.2199 68.5038 72.9397C70.881 71.9003 72.8522 72.9947 75.0441 73.7351C77.0405 74.3748 78.4639 75.4854 79.3961 77.1529C79.8771 78.0134 80.5419 78.5546 81.598 78.936C81.8755 79.2168 81.9589 79.4219 81.9508 79.8134C81.7518 80.6021 79.8394 80.5925 81.3353 81.9463C80.9711 84.6684 80.3362 85.1822 78.5528 84.1859C76.6501 83.9095 74.8582 83.7669 72.937 83.4804C73.1961 82.9005 74.3822 82.7304 73.2657 81.8027C72.9055 81.5034 72.8759 80.9834 72.9551 80.3511C73.1566 79.7795 73.4514 79.4663 73.9201 79.0971C74.243 78.9277 74.4397 78.8705 74.7838 78.846C75.0943 78.8886 75.2289 78.8381 75.2607 78.5906C73.6442 77.4096 71.8219 77.0836 69.9666 76.5085C71.5512 79.2898 71.0792 80.304 68.1559 80.726C69.5163 81.8961 71.6002 81.6162 72.8439 83.1946C70.4098 83.5147 67.9973 83.46 65.3997 83.0303C65.0898 83.0266 64.9809 83.0346 64.7344 82.9549C64.0592 82.2804 63.7857 81.5499 63.5053 80.8272C62.5489 78.3627 62.5525 78.3613 59.8932 79.0055C59.2337 78.2281 58.725 77.4999 58.1802 76.6084C57.8719 75.1671 56.6269 73.7861 58.6703 72.6637C59.5174 72.1671 59.1363 71.7778 58.7725 71.3822C58.3823 70.9579 57.8512 70.6513 57.6993 69.9089C58.0889 69.2602 58.4401 68.7617 58.804 68.1087Z" fill="#610C16"/>
<path d="M58.2863 42.1958C58.2858 44.1451 58.2391 45.8623 58.3004 47.5757C58.3434 48.7766 57.8941 49.2615 56.6719 49.226C54.5682 49.165 52.4614 49.2127 50.3559 49.2094C49.7243 49.2084 48.9144 49.2661 49.431 48.2529C52.1715 42.8788 54.9475 37.5229 57.7112 32.1606C57.9029 32.2066 58.0946 32.2525 58.2864 32.2985C58.2864 35.5197 58.2864 38.7409 58.2863 42.1958Z" fill="#CCEDFB"/>
<path d="M68.6278 47.8431C68.8494 48.3591 69.0966 48.7825 68.657 49.0272C68.3439 49.2015 67.9107 49.1814 67.5284 49.2069C60.1688 49.6968 60.1688 49.6955 60.1691 42.3449C60.1692 39.0261 60.1691 35.7073 60.604 32.2456C63.255 37.3902 65.906 42.5348 68.6278 47.8431Z" fill="#CCEDFB"/>
<path d="M81.8699 79.341C80.3208 79.555 79.4351 79.1569 78.9747 77.6653C78.4641 76.0115 77.0438 75.1291 75.3385 74.4322C75.9329 72.9016 77.3187 73.5163 78.4573 73.3728C80.2503 73.1468 82.2054 73.901 83.931 72.3306C85.1814 72.1963 86.295 72.1987 87.6174 72.2144C87.8553 72.4624 87.8412 72.7412 87.6592 72.8599C85.1702 74.4834 83.5716 76.8749 81.8699 79.341Z" fill="#CCE9F7"/>
<path d="M81.7043 79.4901C82.9836 76.4581 84.6829 73.9207 87.7378 72.3531C88.7946 71.9094 89.7631 71.5914 90.9014 71.2788C91.0688 71.9732 90.387 72.6319 91.0357 73.4926C91.0513 74.5509 90.2114 74.5391 89.5134 74.9356C86.5222 76.1176 85.4043 78.6874 84.0148 81.2551C83.2692 81.6257 82.6618 81.6205 81.8834 81.3076C81.5464 81.0005 81.4713 80.762 81.5867 80.3243C81.6898 79.978 81.6981 79.8006 81.7043 79.4901Z" fill="#600A14"/>
<path d="M83.8468 72.182C84.2185 73.5823 83.6419 74.1064 82.212 74.0605C79.9785 73.989 77.7389 74.1086 75.3444 74.254C73.1312 73.8583 71.2331 72.6865 68.8267 72.8922C69.1045 71.7718 70.0904 72.1867 70.8647 72.1802C75.1181 72.1447 79.372 72.1676 83.8468 72.182Z" fill="#B5E2F8"/>
<path d="M84.1629 62.8515C83.1679 63.9106 82.1703 64.0074 81.1353 63.3257C80.421 62.8551 80.1499 62.1306 80.4021 61.2998C80.7787 60.0595 81.5205 59.1782 82.9399 59.5896C84.5519 60.0569 84.8027 61.2477 84.1629 62.8515Z" fill="#8DCCEF"/>
<path d="M66.2934 73.4663C65.6547 74.1914 65.271 75.2914 64.1072 74.7809C63.0564 74.32 63.6589 73.2985 63.4072 72.3754C64.3879 72.4839 65.9033 71.3684 66.2934 73.4663Z" fill="#57BCF4"/>
<path d="M97.1182 72.0072C96.4257 72.0252 95.5065 72.5568 94.8568 71.4543C94.9338 71.2709 95.0505 71.2577 95.3439 71.2707C96.0212 71.498 96.5218 71.6991 97.1182 72.0072Z" fill="#600A14"/>
<path d="M61.0985 68.4151C60.9228 68.4434 60.8083 68.3288 60.6643 68.0914C60.6684 67.337 60.871 66.831 61.5877 66.6475C61.9184 67.352 61.3338 67.7574 61.0985 68.4151Z" fill="#8DCCEF"/>
<path d="M59.5499 66.519C59.4324 66.2793 59.4351 66.0139 59.5609 65.6768C60.1397 65.9083 60.2008 66.2054 59.5499 66.519Z" fill="#8DCCEF"/>
<path d="M59.266 67.1928C59.2741 67.1836 59.1128 67.2474 59.1128 67.2474C59.1128 67.2474 59.1571 67.1763 59.2168 67.1971C59.2765 67.2179 59.2579 67.202 59.266 67.1928Z" fill="#8DCCEF"/>
<path d="M89.8221 60.5706C89.9298 60.5322 90.0188 60.6232 90.1051 60.8378C90.0045 60.8771 89.9048 60.79 89.8221 60.5706Z" fill="#159DDB"/>
<path d="M81.4962 81.2785C82.2654 81.1696 82.8962 81.1349 83.7181 81.1182C84.5535 81.5066 84.2371 82.0971 84.2336 82.7731C84.2038 83.9417 83.9648 85.1046 85.7728 84.9105C87.1237 84.6337 88.0495 83.8804 89.1928 83.1789C91.4321 83.9069 92.0382 85.1829 91.6622 88.3436C90.3913 89.5696 90.575 91.1341 90.0652 92.6306C88.8495 94.0056 87.3886 94.3911 85.6311 94.2802C83.3558 94.3566 81.3304 93.9294 79.1904 93.1028C78.8448 90.189 78.6746 87.315 78.4733 84.2467C80.5723 85.3252 80.5477 83.2747 81.205 82.0966C81.1663 81.7123 81.2194 81.5217 81.4962 81.2785Z" fill="#F6B793"/>
<path d="M67.2234 94.9417C66.8724 95.0135 66.6856 94.9901 66.363 95.0148C64.0507 94.9086 61.848 95.0897 59.5041 94.5511C58.6641 94.698 58.108 94.3866 57.3814 94.1641C56.8407 94.1142 56.5413 93.4789 56.1111 94.0588C56.4958 94.7585 57.177 95.0521 57.4443 95.8455C57.4367 95.9956 57.4857 96.1711 57.527 96.2522C55.9729 97.8281 54.159 98.9841 51.9832 99.8595C53.7381 96.5186 53.355 93.5129 50.7877 90.5282C48.9759 88.4218 47.4894 86.0109 46.0434 83.6234C45.1153 82.091 43.1291 81.9222 42.1888 80.4621C43.3409 79.4134 45.7128 81.4821 45.7733 78.4517C49.0062 83.121 52.4271 87.2533 56.12 91.0801C58.5997 93.6496 62.1803 94.44 66.0494 94.1661C66.7256 93.7769 67.2422 93.6645 67.9819 93.9978C68.8282 94.1913 69.511 94.2553 70.3141 94.4381C69.4188 94.6534 68.4032 94.7501 67.2234 94.9417Z" fill="#F90609"/>
<path d="M59.777 79.0486C59.9619 78.8799 60.2062 78.8425 60.397 78.721C63.1218 76.9865 63.1421 76.9792 63.814 80.2116C64.0108 81.1583 64.4549 81.9375 65.1373 82.8295C61.6823 83.4024 61.6823 83.4024 59.8377 79.7122C59.8127 79.4042 59.8291 79.2746 59.777 79.0486Z" fill="#8DCCEF"/>
<path d="M68.2414 94.004C67.6425 94.1429 67.1396 94.1584 66.4484 94.1678C66.1858 93.8647 66.1786 93.5266 66.0258 93.2779C65.1895 91.9161 65.0501 90.5576 66.5518 89.6855C67.7271 89.0031 68.8426 89.651 69.5307 90.7041C70.5223 92.222 69.4566 93.0896 68.2414 94.004Z" fill="#F82E34"/>
<path d="M59.3062 72.753C56.5008 73.524 58.7076 75.1854 58.3178 76.3846C56.8209 74.9454 55.4976 73.4456 54.1401 71.7798C54.17 71.5004 54.247 71.3966 54.4197 71.251C56.0747 71.8583 58.147 70.7469 59.3062 72.753Z" fill="#B5E2F8"/>
<path d="M59.7588 79.7266C60.0506 79.8842 60.4396 80.1963 60.6099 80.6006C61.4044 82.4865 62.7491 83.331 65.0176 82.9831C65.2401 82.9875 65.2165 82.9996 65.2076 83.0092C63.7595 83.9503 61.6705 82.6095 60.3842 85.047C60.0567 82.9166 60.4221 81.3373 59.7588 79.7266Z" fill="#F90609"/>
<path d="M75.6803 108.311C75.6366 108.235 75.8624 108.178 75.9788 108.183C75.9715 108.255 75.8478 108.321 75.6803 108.311Z" fill="#FE2E33"/>
<path d="M100.002 108.267C99.9596 108.185 100.189 108.156 100.305 108.163C100.348 108.342 100.287 108.538 100.002 108.267Z" fill="#FE2E33"/>
<path d="M57.2296 93.8335C57.9817 93.9833 58.5436 94.1543 59.2062 94.4371C59.3289 95.577 58.8984 96.1287 57.6191 95.9869C56.7247 95.4018 56.0127 94.808 55.2399 94.0428C55.7961 93.524 56.4175 93.6623 57.2296 93.8335Z" fill="#C6E6F6"/>
<path d="M149.146 89.2706C149.161 89.4904 149.129 89.7123 149.118 89.8238C148.616 89.9577 148.125 89.9802 147.453 89.9746C146.223 86.0666 144.148 82.6169 142.642 78.928C141.976 77.295 141.009 75.784 140.655 73.8472C142.808 73.6417 144.985 73.6751 147.153 73.5454C148.682 73.4539 149.177 74.001 149.15 75.5314C149.07 80.0366 149.127 84.5442 149.146 89.2706Z" fill="#0199DA"/>
<path d="M59.3957 72.9662C58.876 71.7049 57.8571 72.2981 57.1131 72.1459C56.2721 71.9739 55.2479 72.5869 54.5541 71.3807C55.0135 69.7746 56.5724 70.5845 57.5701 69.7993C58.4559 70.4273 59.2367 71.0434 59.8625 71.7894C60.1281 72.1061 60.8617 72.9031 59.3957 72.9662Z" fill="#8DCCEF"/>
<path d="M57.1809 68.7457C56.1548 69.4519 55.4196 69.3303 54.7957 68.1155C55.8115 67.7783 56.5543 68.1069 57.1809 68.7457Z" fill="#610C16"/>
<path d="M56.6443 66.2719C56.6172 66.2904 56.6714 66.2535 56.6443 66.2719V66.2719Z" fill="#CF8E74"/>
<path d="M32.1943 76.5047C32.1054 75.6519 32.1133 74.9381 32.2695 74.124C33.5039 74.6938 34.8553 73.8014 35.9398 74.8203C35.5396 75.8871 35.1161 76.7516 34.5727 77.7201C33.3481 78.134 32.7627 77.4932 32.1943 76.5047Z" fill="#09B8DD"/>
<path d="M32.0665 76.5645C32.7894 76.8067 33.4813 77.2476 34.3129 77.7563C34.2336 78.5337 34.0146 79.2433 33.68 80.0644C33.0034 80.1437 32.6457 79.7861 32.2102 79.2784C32.0851 78.3639 32.0603 77.5635 32.0665 76.5645Z" fill="#0299DA"/>
<path d="M32.0745 79.3668C32.6695 79.1904 33.0965 79.4464 33.484 80.0431C33.3882 80.9742 33.2119 81.7724 32.9859 82.7397C31.1644 82.1912 32.3652 80.6752 32.0745 79.3668Z" fill="#00C6E8"/>
<path d="M31.9168 90.1014C31.6238 88.6257 31.1961 86.9477 32.3104 85.2979C31.9183 86.7598 32.199 88.3628 31.9168 90.1014Z" fill="#8DCCEF"/>
<path d="M36.0701 74.9611C35.0182 74.1094 33.6955 74.9305 32.5524 74.1667C33.6986 74.0084 34.9794 73.9929 36.4651 74.0006C36.5058 74.3157 36.3415 74.6075 36.0701 74.9611Z" fill="#0046C3"/>
<path d="M91.7742 88.4931C91.136 86.7048 91.5394 84.5943 89.3827 83.4241C87.8813 80.634 88.3761 77.7847 89.0238 74.7526C89.6 74.0243 90.2857 74.0644 90.9772 73.7427C92.1909 73.6386 93.2898 73.6395 94.5942 73.6264C95.5798 73.5863 96.2659 73.8629 97.0349 74.3711C97.1573 74.4753 97.2828 74.5776 97.3634 74.57C97.6227 74.596 97.778 74.6753 97.9911 74.9067C98.0722 75.0131 98.1354 75.1798 98.1561 75.2659C97.3198 76.0901 97.6686 77.0896 97.6587 77.9799C97.6219 81.321 97.647 84.6627 97.6518 88.2158C95.7662 88.4516 93.8778 88.4758 91.7742 88.4931Z" fill="#90D6FB"/>
<path d="M85.4903 94.3502C86.8796 93.7238 88.2753 93.2709 89.8321 92.8008C90.3145 93.6697 90.8111 94.7855 90.0431 95.4237C88.3839 96.8024 89.0606 98.2527 89.5127 99.7781C89.733 100.521 89.9142 101.276 90.1053 102.028C91.1838 106.272 90.3883 107.032 85.9081 106.215C84.8556 106.023 84.8904 105.49 85.0825 104.742C85.3912 103.54 85.6076 102.303 86.0377 101.145C86.8987 98.828 87.3849 96.5934 85.4903 94.3502Z" fill="#610C16"/>
<path d="M100.748 83.124C100.462 84.3402 101.723 84.6912 102.271 85.6192C100.737 85.5776 99.6847 85.0394 100.748 83.124Z" fill="#600A14"/>
<path d="M100.897 77.9277C101.008 77.9184 101.136 78.051 101.288 78.3241C101.179 78.3329 101.047 78.2013 100.897 77.9277Z" fill="#600A14"/>
<path d="M101.387 78.8643C101.501 78.8622 101.621 79.0085 101.76 79.3003C101.65 79.3015 101.521 79.157 101.387 78.8643Z" fill="#600A14"/>
<path d="M101.879 80.2734C101.995 80.276 102.105 80.4268 102.229 80.7221C102.12 80.7184 101.997 80.57 101.879 80.2734Z" fill="#600A14"/>
<path d="M101.699 82.4893C101.708 82.6003 101.581 82.7148 101.324 82.8498C101.317 82.7444 101.44 82.6186 101.699 82.4893Z" fill="#600A14"/>
<path d="M97.1313 74.3191C96.4526 74.2549 95.748 74.0345 94.9216 73.7132C95.8033 72.8114 96.4432 73.5336 97.1313 74.3191Z" fill="#600A14"/>
<path d="M98.0048 74.8938C97.9064 74.9445 97.7406 74.8757 97.5094 74.6848C97.6084 74.6333 97.773 74.7038 98.0048 74.8938Z" fill="#600A14"/>
<path d="M73.1814 80.0075C73.0102 81.4223 73.7598 82.1116 74.9116 82.612C74.3803 83.121 73.8213 83.3596 72.9721 83.3116C72.8076 83.3363 72.7999 83.3705 72.8158 83.3639C71.5772 82.3877 69.9909 82.223 68.5724 81.6574C67.6837 81.3032 67.1334 80.8394 66.8234 79.7787C68.1466 79.8484 69.8231 80.8672 70.5009 79.0595C71.1369 77.3631 69.3032 77.0681 68.4094 76.1678C71.3448 76.0589 74.0003 76.6046 76.2636 78.8633C76.1288 79.2628 75.8391 79.4046 75.3207 79.3763C74.9523 79.3389 74.7492 79.3231 74.3947 79.3318C73.8379 79.4186 73.4501 79.5538 73.0599 79.6701C72.7639 79.7584 72.6624 79.9813 72.9228 79.8097C72.9469 79.7939 73.0345 79.8746 73.1814 80.0075Z" fill="#C6E6F6"/>
<path d="M81.6102 81.0291C81.5124 81.3766 81.3901 81.5494 81.2398 81.8248C80.5667 81.5989 79.469 81.6266 79.6229 80.579C79.771 79.5707 80.7065 80.0376 81.5131 80.0813C81.6497 80.3882 81.6178 80.6213 81.6102 81.0291Z" fill="#C6E6F6"/>
<path d="M73.3816 80.0512C72.5396 79.9197 71.7341 80.2811 70.8864 79.7139C71.8356 78.886 72.8961 79.3678 74.043 79.3075C73.9933 79.5701 73.7432 79.7841 73.3816 80.0512Z" fill="#13537F"/>
<path d="M75.2556 79.4347C75.4625 79.2768 75.7695 79.199 76.2253 79.0693C76.4447 80.0226 75.8083 79.5806 75.2556 79.4347Z" fill="#13537F"/>
<path d="M89.0054 74.5776C89.1746 77.3708 89.1858 80.1711 89.2064 83.1916C88.5343 84.4152 87.6738 85.1489 86.2487 85.2875C85.191 84.7041 84.4771 83.911 83.6786 82.9838C83.7288 82.3636 83.8547 81.887 83.9449 81.2731C84.4589 78.1258 86.2031 76.016 89.0054 74.5776Z" fill="#CCE9F7"/>
<path d="M83.5781 83.042C84.5043 83.4455 85.8984 83.4744 86.0753 85.1215C83.6656 85.9074 83.517 85.7868 83.5781 83.042Z" fill="#610C16"/>
<path d="M57.2776 93.7394C56.8577 94.3743 56.179 94.0307 55.3632 93.9619C55.5988 91.577 56.4648 93.5578 57.2776 93.7394Z" fill="#1E8FCD"/>
</svg>
