<svg width="35" height="35" viewBox="0 0 35 35" fill="none" xmlns="http://www.w3.org/2000/svg">
<path d="M17.4601 0L17.5398 0C27.1767 0 35 7.82329 35 17.4601V17.5399C35 27.1767 27.1767 35 17.5398 35H17.4601C7.82328 35 0 27.1767 0 17.5399L0 17.4601C0 7.82329 7.82328 0 17.4601 0Z" fill="#FF4500"/>
<path d="M28.3427 17.0615C28.0521 15.7433 26.848 14.8887 25.6536 15.1523C25.2465 15.2418 24.8958 15.4515 24.6187 15.7384C23.0111 14.5711 20.8162 13.7998 18.3649 13.6539L19.5385 8.7686L23.0197 9.6012C23.0773 10.5528 23.8658 11.3069 24.832 11.3069C25.7983 11.3069 26.6493 10.4927 26.6493 9.48962C26.6493 8.48657 25.8351 7.67236 24.832 7.67236C24.1049 7.67236 23.4783 8.10031 23.1889 8.71833L19.4121 7.81461C19.1154 7.74348 18.8174 7.92619 18.7451 8.22293L17.4465 13.6293C14.712 13.6441 12.2449 14.435 10.4742 15.7016C10.3872 15.6207 10.294 15.5459 10.1922 15.4797C9.16095 14.8212 7.73607 15.2099 7.01015 16.3466C6.28423 17.4833 6.5307 18.9401 7.56195 19.5986C7.62326 19.6378 7.6858 19.6722 7.74957 19.704C7.70788 19.9579 7.6858 20.2166 7.6858 20.4778C7.6858 24.2607 12.0892 27.3274 17.5213 27.3274C22.9535 27.3274 27.3568 24.2607 27.3568 20.4778C27.3568 20.2129 27.3335 19.9517 27.2906 19.6954C28.1281 19.2086 28.5843 18.148 28.3452 17.0615H28.3427ZM12.4779 18.891C12.4779 18.029 13.1768 17.3301 14.0389 17.3301C14.9009 17.3301 15.5998 18.029 15.5998 18.891C15.5998 19.7531 14.9009 20.452 14.0389 20.452C13.1768 20.452 12.4779 19.7531 12.4779 18.891ZM21.1473 23.8192C20.6678 24.2545 19.3435 25.2698 17.4048 25.2882C17.3877 25.2882 17.3693 25.2882 17.3521 25.2882C15.3877 25.2882 14.0462 24.2631 13.5569 23.8192C13.4 23.677 13.389 23.4342 13.5312 23.2785C13.6734 23.1215 13.9162 23.1105 14.072 23.2527C14.4975 23.6402 15.6734 24.539 17.3975 24.5231C19.0737 24.5071 20.2178 23.6304 20.6322 23.2539C20.7892 23.1117 21.0308 23.1227 21.173 23.2797C21.3153 23.4366 21.3042 23.6782 21.1473 23.8205V23.8192ZM20.9584 20.452C20.0964 20.452 19.3974 19.7531 19.3974 18.891C19.3974 18.029 20.0964 17.3301 20.9584 17.3301C21.8205 17.3301 22.5194 18.029 22.5194 18.891C22.5194 19.7531 21.8205 20.452 20.9584 20.452Z" fill="white"/>
</svg>
