<svg width="500" height="500" viewBox="0 0 500 500" fill="none" xmlns="http://www.w3.org/2000/svg">
<path d="M415.723 428.226H419.136L426.584 417.847V411.035C426.584 411.035 431.859 410.711 431.238 419.63C430.617 428.55 431.289 426.279 431.289 426.279C431.289 426.279 442.49 426.322 443.42 427.295C444.097 428.002 444.403 439.128 444.52 445.162C444.579 448.199 442.716 451.024 439.891 451.742C439.49 451.845 439.084 451.904 438.686 451.904C435.892 451.904 421.619 449.633 421.619 449.633H415.724V428.226H415.723Z" fill="#5831C8" fill-opacity="0.8"/>
<path d="M405.954 426.355L408.053 449.697H413.897V426.825L405.954 426.355Z" fill="#5831C8" fill-opacity="0.8"/>
<path d="M278.489 88.8739H237.228C230.842 88.8739 225.664 83.6969 225.664 77.3099V53.6119C225.664 47.2259 230.841 42.0479 237.228 42.0479H278.489C284.875 42.0479 290.053 47.2249 290.053 53.6119V77.3099C290.053 83.6969 284.875 88.8739 278.489 88.8739Z" fill="#5831C8" fill-opacity="0.8"/>
<path d="M270.467 61.1579C268.403 57.3859 264.981 56.7999 262.68 57.6589C260.179 58.5929 258.881 61.1579 258.881 61.1579C258.881 61.1579 257.583 58.5929 255.082 57.6589C252.781 56.7999 249.359 57.3859 247.295 61.1579C242.988 69.0299 258.88 79.2789 258.88 79.2789C258.88 79.2789 274.774 69.0299 270.467 61.1579Z" fill="white"/>
<path d="M79.805 404.913H113.712C121.252 404.913 127.364 411.025 127.364 418.565V435.776C127.364 443.316 121.252 449.428 113.712 449.428H104.852L98.609 458.354C97.078 460.543 93.819 460.489 92.361 458.25L86.619 449.428H79.805C72.265 449.428 66.153 443.316 66.153 435.776V418.565C66.153 411.025 72.265 404.913 79.805 404.913Z" fill="#5831C8" fill-opacity="0.8"/>
<path d="M95.55 418.585V436.146L82.98 427.366L95.55 418.585Z" fill="white"/>
<path d="M112.371 437.533C112.371 437.533 111.539 425.056 101.558 424.871H95.1799V430.232L101.465 430.324C101.465 430.324 108.045 430.171 112.371 437.533Z" fill="white"/>
<path d="M100.232 221.088C101.377 216.257 98.3884 211.412 93.5574 210.268C88.7264 209.123 83.882 212.111 82.737 216.942C81.5921 221.773 84.5802 226.617 89.4112 227.762C94.2422 228.907 99.0866 225.919 100.232 221.088Z" fill="#5831C8" fill-opacity="0.8"/>
<path d="M91.496 226.917C83.008 226.917 76.127 233.798 76.127 242.286H106.866C106.866 233.798 99.985 226.917 91.496 226.917Z" fill="#5831C8" fill-opacity="0.8"/>
<path d="M343.254 50.1226C343.254 53.5756 340.455 56.3746 337.002 56.3746C333.549 56.3746 330.75 53.5756 330.75 50.1226C330.75 46.6696 333.549 43.8706 337.002 43.8706C340.455 43.8706 343.254 46.6696 343.254 50.1226Z" fill="#5831C8" fill-opacity="0.8"/>
<path d="M360.595 64.7505C360.595 68.2035 357.796 71.0025 354.343 71.0025C350.89 71.0025 348.091 68.2035 348.091 64.7505C348.091 61.2975 350.89 58.4985 354.343 58.4985C357.796 58.4985 360.595 61.2975 360.595 64.7505Z" fill="#5831C8" fill-opacity="0.8"/>
<path d="M343.351 79.6685C343.351 83.1215 340.552 85.9205 337.099 85.9205C333.646 85.9205 330.847 83.1215 330.847 79.6685C330.847 76.2155 333.646 73.4165 337.099 73.4165C340.552 73.4165 343.351 76.2165 343.351 79.6685Z" fill="#5831C8" fill-opacity="0.8"/>
<path d="M337.003 50.1226L354.343 64.7506L337.099 79.6686" stroke="#5831C8" stroke-opacity="0.8" stroke-miterlimit="10"/>
<path d="M451.099 196.747C448.4 191.814 443.924 191.047 440.915 192.171C437.645 193.393 435.947 196.747 435.947 196.747C435.947 196.747 434.249 193.393 430.979 192.171C427.97 191.047 423.495 191.814 420.795 196.747C415.162 207.042 435.947 220.446 435.947 220.446C435.947 220.446 456.733 207.042 451.099 196.747Z" fill="#5831C8" fill-opacity="0.8"/>
<path d="M426.518 244.747C424.595 241.232 421.406 240.686 419.263 241.487C416.933 242.357 415.723 244.747 415.723 244.747C415.723 244.747 414.513 242.357 412.183 241.487C410.04 240.686 406.851 241.232 404.928 244.747C400.915 252.082 415.723 261.631 415.723 261.631C415.723 261.631 430.531 252.082 426.518 244.747Z" fill="#5831C8" fill-opacity="0.8"/>
<path d="M442.75 74.3481H376.067C367.891 74.3481 361.263 80.9761 361.263 89.1521V129.57C361.263 137.746 367.891 144.374 376.067 144.374H396.677L408.231 160.895C409.81 163.153 413.173 163.097 414.676 160.788L425.359 144.375H442.75C450.926 144.375 457.554 137.747 457.554 129.571V89.1521C457.555 80.9761 450.927 74.3481 442.75 74.3481Z" fill="white"/>
<path d="M442.75 74.349C442.75 74.349 442.918 74.344 443.249 74.354C443.578 74.384 444.078 74.336 444.719 74.454C446.001 74.597 447.947 74.99 450.134 76.242C452.294 77.473 454.764 79.597 456.291 82.919C457.054 84.562 457.57 86.478 457.656 88.553C457.722 90.62 457.684 92.797 457.702 95.102C457.718 104.319 457.736 115.443 457.758 128.088C457.782 129.657 457.744 131.31 457.376 132.919C457.033 134.535 456.367 136.102 455.467 137.537C453.669 140.404 450.824 142.765 447.409 143.856C445.714 144.421 443.882 144.617 442.077 144.606C440.277 144.607 438.457 144.609 436.618 144.61C432.94 144.613 429.185 144.615 425.359 144.618L425.562 144.508C423.569 147.574 421.529 150.711 419.448 153.913C418.407 155.514 417.356 157.13 416.295 158.761C415.751 159.579 415.263 160.391 414.666 161.224C414.032 162.057 413.05 162.612 412.008 162.765C410.966 162.908 409.859 162.662 408.999 162.027C408.559 161.731 408.204 161.3 407.912 160.886L407.049 159.653C405.896 158.005 404.734 156.346 403.565 154.675C401.227 151.333 398.857 147.946 396.463 144.524L396.676 144.635C393.095 144.635 389.265 144.635 385.404 144.636C382.591 144.636 379.796 144.636 377.018 144.636C375.638 144.666 374.203 144.566 372.836 144.28C371.462 143.981 370.152 143.466 368.912 142.83C366.472 141.482 364.409 139.5 363.043 137.115C361.649 134.751 360.988 132 361.007 129.318C361.012 118.711 361.017 108.479 361.022 98.732C361.024 96.295 361.026 93.889 361.027 91.514C361.035 90.325 361.002 89.155 361.09 87.96C361.112 87.365 361.251 86.784 361.325 86.2C361.466 85.628 361.596 85.052 361.778 84.495C362.518 82.269 363.763 80.258 365.348 78.63C366.938 77.003 368.888 75.797 370.951 75.047C371.461 74.839 371.992 74.704 372.521 74.575C373.044 74.416 373.587 74.366 374.119 74.279C375.19 74.139 376.267 74.138 377.305 74.143C379.396 74.146 381.448 74.148 383.46 74.151C387.483 74.157 391.344 74.162 395.03 74.168C409.763 74.203 421.687 74.231 429.945 74.251C434.057 74.272 437.253 74.289 439.438 74.3C440.513 74.311 441.336 74.32 441.907 74.326C442.466 74.331 442.75 74.349 442.75 74.349C442.75 74.349 442.465 74.367 441.909 74.376C441.338 74.382 440.515 74.391 439.44 74.402C437.255 74.413 434.059 74.43 429.947 74.451C421.689 74.471 409.765 74.499 395.032 74.534C391.346 74.539 387.485 74.545 383.462 74.551C381.45 74.554 379.398 74.556 377.307 74.559C376.257 74.557 375.214 74.561 374.175 74.699C373.658 74.786 373.13 74.834 372.623 74.99C372.109 75.116 371.594 75.248 371.099 75.452C369.098 76.184 367.207 77.359 365.667 78.941C364.132 80.524 362.928 82.477 362.214 84.635C362.039 85.175 361.914 85.733 361.778 86.288C361.708 86.855 361.572 87.418 361.553 87.995C361.47 89.138 361.502 90.328 361.497 91.513C361.499 93.888 361.5 96.294 361.502 98.731C361.507 108.478 361.512 118.71 361.517 129.317C361.501 131.927 362.14 134.57 363.488 136.856C364.808 139.159 366.803 141.073 369.158 142.374C370.355 142.987 371.62 143.484 372.946 143.773C374.28 144.048 375.62 144.145 377.018 144.117C379.795 144.117 382.591 144.117 385.404 144.117C389.265 144.117 393.095 144.118 396.676 144.118H396.811L396.889 144.229C399.282 147.652 401.651 151.04 403.988 154.383C405.156 156.055 406.317 157.715 407.469 159.363L408.331 160.597C408.615 160.998 408.906 161.352 409.298 161.618C410.049 162.174 411.02 162.39 411.937 162.266C412.852 162.13 413.71 161.648 414.268 160.916C414.814 160.155 415.34 159.292 415.873 158.49C416.935 156.86 417.988 155.244 419.03 153.645C421.115 150.446 423.158 147.31 425.155 144.247L425.227 144.136H425.359C429.185 144.139 432.94 144.141 436.618 144.144C438.457 144.145 440.277 144.147 442.077 144.148C443.868 144.16 445.615 143.975 447.269 143.43C450.583 142.379 453.349 140.092 455.102 137.311C455.98 135.919 456.63 134.399 456.967 132.829C457.327 131.259 457.37 129.681 457.35 128.091C457.371 115.446 457.39 104.322 457.406 95.105C457.398 92.805 457.446 90.612 457.392 88.567C457.319 86.528 456.823 84.641 456.082 83.019C454.6 79.739 452.18 77.623 450.055 76.383C447.905 75.122 445.98 74.705 444.708 74.538C444.072 74.407 443.574 74.442 443.247 74.398C442.919 74.371 442.75 74.349 442.75 74.349Z" fill="#263238"/>
<path d="M411.309 95.8579V123.483L431.083 109.671L411.309 95.8579Z" fill="#5831C8"/>
<path d="M384.848 125.664C384.848 125.664 386.157 106.036 401.859 105.745H411.891V114.178L402.004 114.323C402.004 114.323 391.654 114.082 384.848 125.664Z" fill="#5831C8"/>
<path d="M48.236 171.715H185.81C193.545 171.715 199.815 165.445 199.815 157.71V51.275C199.815 43.54 193.545 37.27 185.81 37.27H48.236C40.501 37.27 34.23 43.54 34.23 51.275V157.71C34.23 165.445 40.501 171.715 48.236 171.715Z" fill="white"/>
<path d="M110.37 167.599C108.671 171.715 75.8269 202.582 75.8269 202.582V167.599H110.37Z" fill="#455A64"/>
<path d="M150.538 96.2721C150.622 89.2591 151.727 82.2701 151.458 75.2611C151.189 68.2531 149.344 60.9531 144.455 55.9261C139.565 50.8991 131.074 48.9801 125.353 53.0371L124.179 59.0051C126.431 86.0471 128.683 113.088 130.935 140.129C131.231 143.681 131.555 147.336 133.17 150.513C134.785 153.69 138.027 156.313 141.585 156.094C146.24 155.808 149.295 151.089 150.742 146.655C155.99 130.584 150.335 113.177 150.538 96.2721Z" fill="#263238"/>
<path d="M133.672 59.9109C132.653 58.1779 131.605 56.4179 130.107 55.0779C128.608 53.7379 126.561 52.8589 124.586 53.2339C123.656 53.4109 122.711 53.9389 122.398 54.8319C122.086 55.7249 122.753 56.9179 123.697 56.8409L123.898 57.0129C125.998 58.8709 128.134 60.6859 130.306 62.4589C130.853 62.9049 131.42 63.3589 132.095 63.5659C132.77 63.7729 133.586 63.6769 134.055 63.1489C134.829 62.2759 134.263 60.9169 133.672 59.9109Z" fill="#5831C8"/>
<path d="M137.634 66.7953C130.645 58.2533 121.259 53.3353 110.224 53.1523C103.998 53.0493 101.421 54.3433 96.938 55.5533C92.454 56.7633 88.409 59.1683 85.734 62.9653C82.557 67.4743 79.888 72.5243 79.288 78.0073C78.671 83.6393 78.053 89.3103 78.478 94.9603C78.903 100.61 80.437 106.3 83.764 110.887L98.14 113.385C106.08 113.656 114.129 113.916 121.864 112.105C129.599 110.294 137.115 106.132 141.257 99.3533C147.013 89.9343 144.623 75.3383 137.634 66.7953Z" fill="#263238"/>
<path d="M98.084 138.903C98.18 133.858 98.35 127.534 98.35 127.557C98.35 127.557 86.627 126.266 83.389 111.241C81.778 103.769 81.479 91.39 81.561 81.253C81.635 72.128 89.405 59.704 100.671 59.664L105.678 59.082L124.844 66.7C127.612 66.84 129.813 69.075 129.91 71.846L130.634 137.915L118.353 158.426L96.38 141.403L98.084 138.903Z" fill="#B56760"/>
<path d="M105.925 107.725C105.821 106.933 105.381 106.233 104.819 105.752C103.696 104.79 102.055 104.697 100.854 105.526C99.652 106.355 98.964 108.056 99.191 109.636C99.865 110.563 100.897 111.189 102.039 111.288C102.217 111.304 102.395 111.31 102.574 111.305C103.44 111.283 104.321 110.99 104.983 110.351C105.644 109.713 106.054 108.702 105.925 107.725Z" fill="#8A4A43"/>
<path d="M87.6059 92.9651C87.6259 93.9941 88.5139 94.8251 89.5879 94.8231C90.6599 94.8221 91.5149 93.9891 91.4959 92.9611C91.4759 91.9331 90.5879 91.1001 89.5159 91.1021C88.4409 91.1031 87.5859 91.9371 87.6059 92.9651Z" fill="#263238"/>
<path d="M84.994 86.3214C85.249 86.5614 86.662 85.3914 88.754 85.2814C90.842 85.1424 92.436 86.1344 92.649 85.8654C92.754 85.7464 92.483 85.3024 91.789 84.8514C91.104 84.4034 89.956 83.9934 88.653 84.0704C87.351 84.1494 86.281 84.6894 85.678 85.2144C85.062 85.7444 84.87 86.2144 84.994 86.3214Z" fill="#263238"/>
<path d="M98.436 102.726C98.439 102.607 97.127 102.454 95.005 102.3C94.468 102.274 93.957 102.196 93.846 101.836C93.699 101.457 93.891 100.869 94.116 100.233C94.547 98.9135 94.999 97.5295 95.472 96.0795C97.347 90.1685 98.674 85.3195 98.436 85.2465C98.197 85.1725 96.483 89.9045 94.607 95.8155C94.158 97.2725 93.727 98.6615 93.319 99.9895C93.15 100.607 92.84 101.315 93.157 102.101C93.323 102.492 93.731 102.76 94.078 102.834C94.426 102.92 94.727 102.909 94.992 102.91C97.119 102.908 98.435 102.845 98.436 102.726Z" fill="#263238"/>
<path d="M98.3499 127.557C98.3499 127.557 108.582 127.655 118.351 121.028C118.351 121.028 113.52 131.831 98.2729 131.245L98.3499 127.557Z" fill="#8A4A43"/>
<path d="M104.671 103.835C104.33 103.834 104.45 106.104 102.595 107.823C100.745 109.546 98.3099 109.424 98.3099 109.742C98.2859 109.886 98.8729 110.154 99.8959 110.125C100.9 110.104 102.346 109.702 103.48 108.651C104.612 107.598 105.049 106.251 105.075 105.315C105.11 104.362 104.826 103.813 104.671 103.835Z" fill="#263238"/>
<path d="M85.7069 78.9963C86.0869 79.4873 87.6699 79.0583 89.5489 79.1113C91.4299 79.1043 93.0069 79.5713 93.3929 79.0893C93.5639 78.8543 93.3319 78.3683 92.6549 77.8893C91.9879 77.4133 90.8569 77.0003 89.5639 76.9833C88.2719 76.9693 87.1349 77.3533 86.4619 77.8143C85.7779 78.2763 85.5399 78.7573 85.7069 78.9963Z" fill="#263238"/>
<path d="M111.409 92.4573C111.463 93.4853 110.638 94.3773 109.566 94.4533C108.497 94.5293 107.583 93.7613 107.529 92.7333C107.475 91.7063 108.3 90.8123 109.369 90.7363C110.441 90.6593 111.355 91.4303 111.409 92.4573Z" fill="#263238"/>
<path d="M113.302 85.5121C113.065 85.7701 111.572 84.7051 109.477 84.7461C107.384 84.7581 105.866 85.8631 105.634 85.6101C105.52 85.4981 105.759 85.0361 106.419 84.5371C107.07 84.0411 108.185 83.5491 109.49 83.5311C110.795 83.5161 111.901 83.9771 112.54 84.4571C113.192 84.9411 113.419 85.3961 113.302 85.5121Z" fill="#263238"/>
<path d="M112.044 78.8102C111.64 79.2922 110.015 78.8282 108.072 78.8382C106.129 78.7882 104.489 79.2202 104.102 78.7292C103.931 78.4902 104.183 78.0092 104.894 77.5462C105.595 77.0852 106.773 76.6982 108.109 76.7102C109.445 76.7252 110.609 77.1352 111.293 77.6112C111.988 78.0882 112.222 78.5752 112.044 78.8102Z" fill="#263238"/>
<path d="M127.305 97.3162C127.246 96.1872 128.404 93.4542 129.509 93.2192C132.46 92.5922 137.839 92.5362 138.304 100.093C138.939 110.423 128.437 108.93 128.4 108.635C128.372 108.405 127.51 101.214 127.305 97.3162Z" fill="#B56760"/>
<path d="M131.018 104.687C131.061 104.651 131.206 104.802 131.518 104.923C131.823 105.04 132.339 105.103 132.865 104.868C133.932 104.4 134.744 102.611 134.679 100.746C134.648 99.8043 134.396 98.9213 134.017 98.2003C133.655 97.4643 133.134 96.9663 132.578 96.9033C132.024 96.8103 131.655 97.1633 131.546 97.4613C131.425 97.7593 131.504 97.9613 131.45 97.9823C131.423 98.0103 131.218 97.8233 131.275 97.3923C131.305 97.1843 131.411 96.9323 131.642 96.7193C131.877 96.5033 132.235 96.3773 132.621 96.3953C133.421 96.4023 134.183 97.0903 134.599 97.8813C135.059 98.6733 135.364 99.6643 135.4 100.722C135.462 102.808 134.516 104.821 133.049 105.345C132.334 105.579 131.714 105.397 131.386 105.173C131.052 104.936 130.984 104.707 131.018 104.687Z" fill="#8A4A43"/>
<path d="M129.931 93.249L127.306 95.971C115.972 85.122 93.8219 57.959 95.0579 59.577C95.0579 59.577 102.823 56.384 111.25 57.819C119.678 59.255 135.663 63.473 135.418 73.413C135.173 83.354 129.931 93.249 129.931 93.249Z" fill="#263238"/>
<path d="M144.941 90.9681C144.958 90.9621 144.904 90.7581 144.783 90.3701C144.659 89.9841 144.438 89.4251 144.078 88.7411C143.36 87.3811 141.986 85.5401 139.761 83.8831C137.569 82.1811 134.53 80.7921 131.069 79.7021C127.614 78.5761 123.718 77.7031 119.895 76.0611C116.046 74.4811 112.615 72.4431 109.689 70.3451C106.772 68.2251 104.364 66.0261 102.486 64.0481C100.607 62.0681 99.241 60.3241 98.32 59.1051C97.897 58.5241 97.554 58.0521 97.284 57.6811C97.044 57.3571 96.911 57.1911 96.895 57.2011C96.88 57.2111 96.983 57.3961 97.195 57.7401C97.411 58.0811 97.716 58.5941 98.153 59.2251C99.026 60.4871 100.355 62.2761 102.213 64.3041C104.07 66.3291 106.473 68.5781 109.403 70.7401C112.341 72.8801 115.802 74.9531 119.693 76.5511C123.566 78.2131 127.489 79.0761 130.923 80.1681C134.37 81.2271 137.361 82.5541 139.54 84.1851C141.751 85.7731 143.138 87.5361 143.9 88.8431C144.657 90.1621 144.888 90.9881 144.941 90.9681Z" fill="#455A64"/>
<path d="M141.935 92.594C141.935 92.594 142.039 91.748 141.534 90.336C141.052 88.935 139.83 87.032 137.652 85.472C135.495 83.861 132.416 82.866 129.032 82.093C125.634 81.343 121.946 80.384 118.32 78.694C114.7 77.017 111.451 74.986 108.77 72.799C106.074 70.628 103.899 68.375 102.223 66.364C100.525 64.365 99.388 62.566 98.573 61.346C98.218 60.758 97.928 60.28 97.697 59.899C97.492 59.571 97.376 59.402 97.36 59.411C97.344 59.419 97.428 59.605 97.604 59.951C97.812 60.346 98.075 60.843 98.397 61.453C99.162 62.711 100.259 64.554 101.934 66.601C103.587 68.659 105.756 70.963 108.464 73.178C111.157 75.409 114.437 77.479 118.101 79.176C121.763 80.885 125.533 81.849 128.923 82.569C132.302 83.313 135.317 84.254 137.437 85.778C139.583 87.258 140.815 89.068 141.343 90.41C141.893 91.762 141.865 92.606 141.935 92.594Z" fill="#455A64"/>
<path d="M129.59 110.739C129.58 110.669 130.465 110.555 131.995 110.155C133.515 109.731 135.668 108.801 137.776 106.924C139.909 105.075 141.806 102.196 143.146 98.7069C144.48 95.2149 145.283 91.1119 145.386 86.7889C145.43 84.6299 145.264 82.5239 144.887 80.5239C144.484 78.5299 143.888 76.6539 143.174 74.9259C141.697 71.4839 139.734 68.6849 137.822 66.5919C133.977 62.3869 130.773 60.6919 130.888 60.5479C130.9 60.5279 131.097 60.6309 131.46 60.8449C131.817 61.0689 132.369 61.3649 133.02 61.8339C134.347 62.7339 136.195 64.1719 138.176 66.2659C140.162 68.3489 142.208 71.1719 143.75 74.6779C144.496 76.4379 145.12 78.3539 145.541 80.3948C145.936 82.4398 146.111 84.6009 146.066 86.8049C145.96 91.2039 145.125 95.3769 143.73 98.9338C142.329 102.487 140.334 105.424 138.093 107.285C135.877 109.175 133.628 110.059 132.062 110.411C131.285 110.626 130.647 110.632 130.233 110.702C129.813 110.749 129.592 110.762 129.59 110.739Z" fill="#455A64"/>
<path d="M65.1389 155.482L65.3979 155.154C76.7789 143.111 97.7269 139.078 97.7269 139.078C97.7269 139.078 99.0079 146.963 110.751 147.843C122.494 148.724 131.12 136.762 131.12 136.762L146.787 138.956C146.787 138.956 154.673 139.886 159.583 142.774C170.641 149.279 176.51 171.714 176.51 171.714L55.6929 172.2L65.1389 155.482Z" fill="#455A64"/>
<path d="M54.091 37.2699C54.091 37.2699 53.806 37.2979 53.247 37.3319C52.965 37.3489 52.617 37.3699 52.204 37.3939C51.79 37.4319 51.314 37.5279 50.771 37.6079C48.64 38.0029 45.36 38.8589 42.005 41.4909C40.342 42.7919 38.6739 44.5139 37.3089 46.7229C35.9459 48.9239 34.8969 51.6189 34.5139 54.6499C34.3269 56.1629 34.3389 57.7519 34.3499 59.4009C34.3529 61.0479 34.355 62.7499 34.358 64.5059C34.363 68.0179 34.3679 71.7469 34.3739 75.6829C34.3889 91.4269 34.408 110.475 34.429 132.199C34.433 137.631 34.436 143.229 34.441 148.985C34.449 150.422 34.412 151.88 34.518 153.314C34.609 154.755 34.907 156.183 35.303 157.59C36.153 160.389 37.6849 163.009 39.7179 165.207C40.7189 166.325 41.904 167.271 43.136 168.153C44.419 168.958 45.754 169.716 47.204 170.223L48.287 170.616L49.406 170.903C50.146 171.129 50.92 171.199 51.685 171.326C52.451 171.446 53.235 171.426 54.012 171.483C54.801 171.484 55.592 171.485 56.385 171.486C62.732 171.483 69.217 171.481 75.83 171.478H76.067V171.715C76.07 181.468 76.074 191.894 76.077 202.582L75.66 202.402C80.768 197.584 85.974 192.603 91.232 187.48C96.47 182.341 101.833 177.117 106.944 171.542L107.022 171.457H107.135C123.553 171.456 140.693 171.455 158.177 171.453C163.437 171.453 168.667 171.453 173.861 171.453C175.16 171.453 176.456 171.453 177.751 171.453C179.048 171.463 180.339 171.458 181.604 171.37C184.141 171.158 186.624 170.448 188.873 169.294C193.385 167.002 196.896 162.92 198.49 158.201C199.319 155.84 199.584 153.361 199.563 150.87C199.563 148.368 199.564 145.877 199.564 143.397C199.569 123.557 199.574 104.42 199.579 86.1889C199.583 77.0739 199.586 68.1849 199.59 59.5489C199.598 57.3829 199.611 55.2589 199.197 53.1899C198.754 51.1329 198.002 49.1649 196.981 47.3639C195.976 45.5509 194.634 43.9559 193.13 42.5879C191.621 41.2249 189.932 40.0639 188.093 39.2619C186.264 38.4589 184.346 37.8499 182.382 37.6439C180.432 37.4209 178.451 37.4849 176.495 37.4749C172.584 37.4719 168.746 37.4699 164.983 37.4669C157.458 37.4609 150.236 37.4559 143.343 37.4499C115.775 37.4149 93.466 37.3869 78.039 37.3669C70.335 37.3459 64.351 37.3289 60.284 37.3179C58.26 37.3069 56.715 37.2979 55.667 37.2919C54.624 37.2879 54.091 37.2699 54.091 37.2699C54.091 37.2699 54.624 37.2519 55.664 37.2429C56.712 37.2369 58.257 37.2279 60.281 37.2169C64.348 37.2059 70.331 37.1889 78.036 37.1679C93.463 37.1479 115.772 37.1199 143.34 37.0849C150.233 37.0799 157.455 37.0739 164.98 37.0679C168.743 37.0649 172.581 37.0629 176.492 37.0599C178.444 37.0679 180.423 36.9979 182.431 37.2239C184.437 37.4329 186.398 38.0509 188.269 38.8709C190.149 39.6899 191.878 40.8729 193.422 42.2649C194.961 43.6619 196.334 45.2909 197.364 47.1439C198.41 48.9839 199.182 50.9969 199.636 53.1019C200.062 55.2179 200.05 57.4049 200.044 59.5509C200.048 68.1869 200.051 77.0759 200.055 86.1909C200.06 104.422 200.065 123.559 200.07 143.399C200.07 145.879 200.071 148.37 200.071 150.872C200.096 153.377 199.823 155.958 198.973 158.37C197.338 163.214 193.736 167.403 189.105 169.757C186.797 170.941 184.247 171.671 181.643 171.889C180.332 171.98 179.039 171.984 177.747 171.974C176.453 171.974 175.156 171.974 173.857 171.974C168.662 171.974 163.433 171.974 158.173 171.974C140.689 171.973 123.549 171.971 107.131 171.97L107.321 171.885C102.188 177.48 96.826 182.699 91.581 187.84C86.318 192.963 81.109 197.942 75.995 202.76L75.578 203.153V202.58C75.582 191.892 75.585 181.466 75.588 171.713L75.825 171.95C69.212 171.947 62.727 171.944 56.38 171.942C55.586 171.94 54.795 171.938 54.005 171.937C53.21 171.879 52.409 171.897 51.625 171.774C50.843 171.644 50.051 171.57 49.294 171.339L48.149 171.044L47.041 170.642C45.558 170.121 44.193 169.346 42.883 168.52C41.624 167.617 40.4139 166.649 39.3919 165.505C37.3159 163.256 35.7539 160.576 34.8879 157.715C34.4849 156.277 34.1829 154.817 34.0909 153.345C33.9849 151.867 34.025 150.425 34.019 148.985C34.023 143.229 34.0269 137.63 34.0299 132.199C34.0509 110.475 34.0699 91.4269 34.0849 75.6829C34.0909 71.7479 34.096 68.0189 34.101 64.5059C34.104 62.7499 34.106 61.0479 34.109 59.4009C34.104 57.7589 34.0959 56.1549 34.2909 54.6219C34.6889 51.5579 35.7599 48.8389 37.1459 46.6229C38.5329 44.3989 40.225 42.6709 41.908 41.3689C45.304 38.7369 48.611 37.9019 50.754 37.5299C51.301 37.4559 51.779 37.3659 52.195 37.3339C52.61 37.3169 52.959 37.3019 53.242 37.2909C53.806 37.2709 54.091 37.2699 54.091 37.2699Z" fill="#263238"/>
<path d="M309.013 466.092L184.244 466.022C169.238 466.015 157.078 454.418 157.081 440.118L157.142 142.036C157.145 127.728 169.322 116.133 184.336 116.141L309.106 116.211C324.112 116.22 336.271 127.816 336.268 142.116L336.207 440.199C336.204 454.505 324.027 466.1 309.013 466.092Z" fill="#263238"/>
<path d="M308.974 126.753L284.783 126.74C281.539 126.738 278.908 129.357 278.908 132.588L278.906 136.77C278.906 140.002 276.275 142.62 273.031 142.619L225.878 142.592C222.634 142.591 220.005 139.969 220.005 136.737L220.006 132.555C220.006 129.323 217.377 126.702 214.133 126.7L205.625 126.695L184.452 126.683C173.937 126.677 165.409 134.798 165.407 144.818L165.347 435.767C165.345 445.783 173.861 453.904 184.37 453.91L308.89 453.979C319.404 453.985 327.933 445.865 327.935 435.844L327.995 144.894C327.998 134.88 319.483 126.759 308.974 126.753Z" fill="white"/>
<path d="M242.527 199.279C245.996 199.016 249.002 195.855 249.09 192.377C249.178 188.898 246.335 185.59 242.883 185.153C244.581 182.584 244.43 178.934 242.527 176.514C240.624 174.094 237.112 173.087 234.215 174.131C233.52 171.172 231.189 168.652 228.293 167.729C225.397 166.806 222.039 167.512 219.759 169.523C215.921 167.327 210.583 168.238 207.692 171.584C204.69 171.603 201.824 173.753 200.964 176.629C200.104 179.505 201.32 182.875 203.818 184.539" fill="#263238"/>
<path d="M243.727 200.064C239.561 184.925 224.467 175.526 209.042 178.463L207.509 178.755C191.167 182.867 185.528 199.043 190.09 215.265L201.528 274.167L235.196 300.153L243.911 278.459L240.48 258.856C240.48 258.856 255.897 253.361 253.069 237.439C251.703 229.75 247.602 214.144 243.727 200.064Z" fill="#C17560"/>
<path d="M240.607 258.808C240.607 258.808 230.579 261.349 218.634 256.679C218.634 256.679 225.518 267.529 241.096 263.081L240.607 258.808Z" fill="#7C4236"/>
<path d="M242.31 215.304C242.581 216.494 241.796 217.704 240.559 218.009C239.324 218.313 238.101 217.599 237.831 216.409C237.561 215.219 238.345 214.008 239.58 213.703C240.817 213.398 242.04 214.115 242.31 215.304Z" fill="#263238"/>
<path d="M241.792 208.486C241.567 208.835 239.607 207.89 237.167 208.362C234.723 208.798 233.171 210.395 232.85 210.146C232.694 210.038 232.879 209.449 233.551 208.733C234.211 208.021 235.416 207.222 236.938 206.939C238.46 206.659 239.846 206.974 240.69 207.407C241.55 207.84 241.905 208.327 241.792 208.486Z" fill="#263238"/>
<path d="M220.165 219.99C220.435 221.18 219.651 222.389 218.413 222.694C217.178 222.999 215.956 222.284 215.685 221.094C215.415 219.905 216.2 218.693 217.434 218.388C218.672 218.083 219.895 218.8 220.165 219.99Z" fill="#263238"/>
<path d="M217.885 213.508C217.66 213.857 215.697 212.914 213.259 213.385C210.816 213.821 209.263 215.417 208.941 215.169C208.786 215.062 208.968 214.474 209.643 213.757C210.303 213.045 211.507 212.246 213.029 211.963C214.551 211.682 215.937 211.998 216.781 212.431C217.639 212.863 217.997 213.35 217.885 213.508Z" fill="#263238"/>
<path d="M230.19 229.925C230.152 229.788 231.619 229.237 234.018 228.455C234.629 228.272 235.195 228.036 235.22 227.59C235.281 227.112 234.893 226.49 234.452 225.821C233.579 224.425 232.665 222.96 231.705 221.425C227.858 215.155 224.948 209.951 225.201 209.798C225.455 209.646 228.779 214.604 232.625 220.875C233.558 222.424 234.45 223.9 235.3 225.313C235.67 225.977 236.229 226.703 236.089 227.698C236.01 228.196 235.617 228.621 235.238 228.805C234.861 229.003 234.512 229.076 234.207 229.153C231.758 229.758 230.226 230.061 230.19 229.925Z" fill="#263238"/>
<path d="M217.043 205.058C216.839 205.738 214.619 205.466 212.028 205.873C209.428 206.222 207.35 207.12 206.992 206.521C206.832 206.234 207.184 205.591 208.017 204.919C208.843 204.248 210.17 203.599 211.727 203.371C213.283 203.146 214.719 203.393 215.675 203.805C216.638 204.215 217.13 204.735 217.043 205.058Z" fill="#263238"/>
<path d="M240.443 199.788C240.034 200.44 237.91 200.248 235.482 200.682C233.042 201.045 231.079 201.906 230.497 201.416C230.236 201.174 230.453 200.557 231.25 199.861C232.033 199.17 233.43 198.461 235.103 198.186C236.776 197.913 238.314 198.141 239.265 198.548C240.229 198.957 240.619 199.474 240.443 199.788Z" fill="#263238"/>
<path d="M195.586 230.24C195.019 227.807 192.538 226.274 190.14 226.971C187.231 227.816 184.255 230.126 185.616 236.211C188.03 247.005 198.369 242.354 198.318 242.04C198.284 241.827 196.637 234.747 195.586 230.24Z" fill="#C17560"/>
<path d="M195.061 238.504C195.006 238.48 194.902 238.678 194.617 238.895C194.339 239.106 193.828 239.323 193.218 239.238C191.984 239.075 190.619 237.479 190.132 235.545C189.885 234.569 189.881 233.588 190.056 232.735C190.209 231.871 190.596 231.206 191.147 230.976C191.689 230.716 192.172 230.968 192.372 231.243C192.584 231.513 192.564 231.743 192.625 231.749C192.661 231.769 192.816 231.516 192.63 231.09C192.537 230.886 192.354 230.659 192.054 230.509C191.748 230.356 191.343 230.334 190.953 230.467C190.133 230.71 189.556 231.644 189.363 232.579C189.125 233.529 189.106 234.637 189.384 235.733C189.94 237.893 191.508 239.679 193.17 239.781C193.974 239.809 194.556 239.439 194.826 239.111C195.1 238.77 195.103 238.516 195.061 238.504Z" fill="#7C4236"/>
<path d="M230.4 179.191C230.25 178.939 230.071 178.7 229.873 178.489C228.366 176.884 226.057 176.179 223.881 176.438C222.453 176.021 221.065 175.732 219.77 175.564C217.76 173.28 214.677 171.929 211.633 172.183C208.178 172.47 205.007 174.796 203.585 177.945C203.152 178.093 202.721 178.253 202.29 178.417C199.748 177.222 196.689 177.147 194.112 178.274C191.221 179.538 189.021 182.272 188.402 185.366C185.628 185.174 182.811 186.769 181.549 189.246C180.287 191.723 180.652 194.94 182.437 197.071C180.697 198.558 179.395 200.816 179.783 203.071C180.148 205.193 182.48 206.901 184.469 206.263C185.076 211.539 186.803 217.562 188.104 222.913C189.021 226.681 194.293 228.018 195.116 230.537C199.317 243.392 202.238 235.288 198.7 207.696C198.934 207.433 199.167 207.154 199.402 206.846C199.874 206.224 199.885 205.545 200.271 204.866C200.731 204.056 201.867 204.066 202.795 203.99C206.016 203.724 208.824 200.875 209.044 197.651C210.079 198.703 211.948 198.293 213.017 197.276C214.086 196.258 214.626 194.823 215.372 193.549C216.118 192.275 217.27 191.044 218.745 190.975C219.569 190.936 220.412 191.271 221.206 191.046C222.608 190.648 222.986 188.845 222.933 187.389C222.888 186.162 222.786 184.779 223.386 183.775C224.181 183.205 225.026 182.726 225.996 182.462C226.548 182.42 227.116 182.426 227.657 182.403C227.909 182.393 228.17 182.355 228.43 182.303C228.769 182.347 229.12 182.413 229.492 182.512C234.73 183.92 240.814 193.07 240.814 193.07C239.948 186.704 235.522 182.103 230.4 179.191Z" fill="#263238"/>
<path d="M181.138 197.911C181.13 197.907 181.154 197.847 181.209 197.734C181.268 197.623 181.342 197.449 181.474 197.242C181.74 196.832 182.189 196.248 182.935 195.687C183.678 195.14 184.714 194.587 186.019 194.384C187.305 194.16 188.891 194.288 190.337 195.124L190.061 195.271C190.144 193.049 191.402 190.645 193.517 188.982C194.567 188.146 195.812 187.466 197.186 187.052C198.562 186.639 200.039 186.485 201.532 186.54C204.446 186.66 207.136 187.555 209.456 188.575L209.156 188.733C209.677 186.079 211.272 183.945 213.078 182.665C214.9 181.358 216.915 180.935 218.522 180.931C220.149 180.927 221.403 181.322 222.207 181.657C222.611 181.828 222.912 181.984 223.105 182.104C223.3 182.221 223.398 182.288 223.392 182.298C223.375 182.329 222.966 182.09 222.154 181.791C221.346 181.503 220.107 181.159 218.525 181.201C216.96 181.243 215.027 181.686 213.293 182.964C211.571 184.216 210.062 186.283 209.581 188.813L209.53 189.079L209.281 188.971C206.986 187.978 204.343 187.112 201.513 186.996C200.065 186.942 198.634 187.091 197.315 187.483C195.998 187.876 194.797 188.524 193.785 189.321C191.743 190.91 190.532 193.185 190.424 195.291L190.408 195.593L190.147 195.438C188.805 194.639 187.301 194.486 186.062 194.676C184.805 194.844 183.793 195.351 183.055 195.856C181.573 196.917 181.201 197.964 181.138 197.911Z" fill="#455A64"/>
<path d="M223.359 183.052C223.373 183.057 223.329 183.213 223.253 183.508C223.192 183.808 223.115 184.254 223.082 184.841C223.044 185.428 223.043 186.151 223.015 187C222.962 187.84 222.975 188.854 222.459 189.875C222.192 190.376 221.692 190.81 221.087 190.978C220.488 191.165 219.85 191.166 219.219 191.21C218.592 191.255 217.936 191.341 217.399 191.695C216.861 192.052 216.434 192.618 216.051 193.221C215.668 193.828 215.328 194.501 214.956 195.175C214.596 195.835 214.283 196.613 213.659 197.218C213.052 197.815 212.27 198.233 211.431 198.469C211.009 198.586 210.564 198.66 210.1 198.634C209.643 198.616 209.138 198.445 208.788 198.065L209.174 197.925C209.138 198.582 209.034 199.251 208.798 199.894C208.554 200.531 208.208 201.138 207.768 201.682C206.871 202.754 205.636 203.564 204.267 204.006C203.705 204.206 203.12 204.311 202.54 204.399C201.933 204.459 201.406 204.435 200.963 204.701C200.502 204.949 200.2 205.335 199.972 205.846C199.717 206.352 199.419 206.828 199.097 207.281C197.817 209.071 196.058 210.549 194.005 210.961C191.953 211.304 189.995 210.69 188.494 209.746C186.984 208.782 185.91 207.435 185.333 206.064L185.538 206.145C184.205 206.702 182.82 206.493 181.845 205.971C180.846 205.443 180.272 204.602 179.983 203.895C179.687 203.176 179.651 202.565 179.665 202.166C179.676 201.965 179.693 201.813 179.716 201.713C179.736 201.613 179.75 201.562 179.757 201.563C179.827 201.55 179.541 202.438 180.139 203.827C180.441 204.498 181.009 205.278 181.958 205.752C182.885 206.225 184.193 206.391 185.413 205.859L185.556 205.797L185.619 205.941C186.191 207.246 187.237 208.523 188.691 209.431C190.13 210.323 192.026 210.884 193.923 210.552C195.815 210.165 197.506 208.754 198.732 207.023C199.04 206.587 199.326 206.127 199.57 205.641C199.785 205.139 200.195 204.583 200.746 204.303C201.019 204.154 201.321 204.06 201.631 204.021L202.484 203.948C203.035 203.864 203.59 203.764 204.123 203.575C205.421 203.157 206.581 202.392 207.419 201.396C207.828 200.89 208.15 200.33 208.378 199.741C208.598 199.147 208.696 198.527 208.733 197.915L208.765 197.391L209.119 197.775C209.627 198.327 210.565 198.265 211.317 198.057C212.097 197.841 212.817 197.46 213.369 196.923C213.924 196.397 214.229 195.671 214.605 194.987C214.983 194.314 215.327 193.645 215.73 193.018C216.134 192.398 216.584 191.799 217.204 191.395C217.836 190.991 218.559 190.916 219.198 190.877C219.843 190.842 220.458 190.845 220.997 190.684C221.542 190.539 221.965 190.179 222.215 189.739C222.701 188.828 222.727 187.82 222.796 186.991C222.845 186.149 222.87 185.421 222.931 184.83C222.989 184.238 223.091 183.788 223.178 183.49C223.279 183.193 223.348 183.048 223.359 183.052Z" fill="#455A64"/>
<path d="M223.392 235.638C222.942 238.606 224.233 241.514 227.054 242.541C228.032 242.897 229.182 242.824 230.115 242.363C231.257 241.8 232.25 240.976 232.52 239.647C232.773 238.399 232.94 237.119 232.587 235.896C230 235.746 225.98 235.788 223.392 235.638Z" fill="#7C4236"/>
<path d="M232.008 240.855C232.022 240.866 231.985 240.937 231.898 241.066C231.817 241.199 231.676 241.38 231.463 241.587C231.049 242.005 230.295 242.513 229.225 242.695C228.171 242.859 226.821 242.729 225.588 241.959C224.376 241.187 223.409 239.788 223.142 238.15C223.078 237.741 223.057 237.331 223.08 236.927C223.119 236.532 223.144 236.113 223.395 235.714C223.517 235.519 223.727 235.347 223.951 235.276C224.173 235.202 224.382 235.198 224.568 235.197C224.928 235.208 225.282 235.218 225.628 235.229C227.004 235.296 228.231 235.434 229.259 235.537C231.313 235.761 232.587 235.821 232.587 235.895C232.589 235.965 231.299 236.034 229.229 235.904C228.195 235.847 226.968 235.748 225.609 235.708C225.269 235.703 224.922 235.699 224.569 235.694C224.216 235.694 223.964 235.751 223.822 235.99C223.666 236.228 223.625 236.595 223.596 236.958C223.577 237.322 223.597 237.694 223.655 238.065C223.897 239.553 224.77 240.84 225.849 241.556C226.938 242.27 228.195 242.438 229.171 242.329C230.164 242.205 230.892 241.787 231.327 241.433C231.777 241.087 231.965 240.82 232.008 240.855Z" fill="#263238"/>
<path d="M292.397 206.346C292.397 206.346 305.066 204.771 324.113 189.622C343.159 174.474 353.467 152.945 355.595 153.255C357.723 153.565 367.465 150.111 381.579 190.401C395.693 230.691 387.855 238.999 384.329 238.594C380.803 238.188 357.447 229.244 342.304 229.535C327.161 229.827 307.168 235.82 307.168 235.82L292.397 206.346Z" fill="#5831C8"/>
<path d="M269.605 236.433L276.375 234.988L272.713 226.084L266.989 228.936L269.605 236.433Z" fill="#455A64"/>
<path d="M270.4 225.839L272.902 233.36L274.459 237.145C276.594 242.336 282.419 244.948 287.715 243.088L315.189 235.365L303.386 200.578L276.093 212.087C270.736 214.324 268.192 220.469 270.4 225.839Z" fill="#263238"/>
<path d="M280.247 237.395L289.449 253.713L293.654 252.354L322.375 273.797L329.506 258.275C329.506 258.275 312.794 251.886 309.514 246.158C306.234 240.43 309.688 238.956 309.688 238.956L301.596 230.497L280.247 237.395Z" fill="#263238"/>
<path d="M380.077 190.969C387.554 212.778 389.73 231.79 384.938 233.433C380.146 235.076 370.2 218.727 362.723 196.918C355.247 175.109 353.07 156.097 357.862 154.455C362.655 152.812 372.6 169.16 380.077 190.969Z" fill="#263238"/>
<path d="M361.254 184.502C361.254 184.502 372.671 178.83 377.199 193.959C381.727 209.088 370.152 210.415 370.152 210.415C366.187 202.776 363.192 194.167 361.254 184.502Z" fill="#FAFAFA"/>
<path d="M351.418 166.053C351.354 166.058 351.414 167.062 351.578 168.877C351.751 170.69 351.99 173.32 352.383 176.559C352.692 178.165 353.03 179.919 353.391 181.799C353.575 182.742 353.766 183.716 353.962 184.718C354.061 185.22 354.161 185.729 354.262 186.245C354.376 186.758 354.54 187.266 354.681 187.787C355.269 189.865 355.886 192.045 356.525 194.304C356.686 194.869 356.848 195.439 357.012 196.013C357.169 196.59 357.416 197.142 357.616 197.714C358.041 198.851 358.472 200.004 358.908 201.171C359.346 202.338 359.779 203.49 360.205 204.627C360.429 205.19 360.607 205.769 360.865 206.308C361.119 206.849 361.371 207.386 361.621 207.917C362.623 210.041 363.59 212.091 364.511 214.045C364.748 214.53 364.958 215.021 365.209 215.483C365.472 215.94 365.731 216.39 365.986 216.834C366.498 217.721 366.995 218.582 367.475 219.415C368.438 221.072 369.337 222.618 370.16 224.034C371.987 226.728 373.531 228.862 374.59 230.342C375.657 231.817 376.272 232.615 376.325 232.579C376.378 232.543 375.864 231.676 374.889 230.139C373.876 228.571 372.453 226.37 370.705 223.666C369.919 222.243 369.06 220.69 368.14 219.024C367.677 218.191 367.198 217.33 366.705 216.444C366.458 216.001 366.207 215.552 365.953 215.097C365.71 214.636 365.507 214.144 365.277 213.66C364.377 211.712 363.433 209.668 362.455 207.55C362.21 207.02 361.962 206.487 361.712 205.949C361.457 205.414 361.283 204.838 361.061 204.278C360.639 203.149 360.211 202.004 359.778 200.845C359.344 199.687 358.914 198.542 358.491 197.414C358.29 196.847 358.043 196.299 357.885 195.727C357.72 195.157 357.556 194.592 357.394 194.032C356.741 191.794 356.111 189.633 355.51 187.573C355.365 187.057 355.196 186.554 355.076 186.046C354.969 185.535 354.863 185.031 354.758 184.534C354.548 183.541 354.344 182.575 354.146 181.642C353.746 179.779 353.373 178.042 353.031 176.451C352.574 173.271 352.203 170.682 351.938 168.838C351.664 167.041 351.482 166.048 351.418 166.053Z" fill="#263238"/>
<path d="M315.189 235.364C315.197 235.399 314.757 235.537 313.953 235.755C313.047 235.992 311.905 236.292 310.546 236.648C307.667 237.392 303.697 238.443 299.324 239.649C294.95 240.857 290.989 241.961 288.098 242.676C286.654 243.036 285.479 243.306 284.664 243.475C283.848 243.643 283.394 243.719 283.385 243.684C283.377 243.649 283.815 243.506 284.615 243.278C285.516 243.023 286.651 242.702 288.003 242.319C290.969 241.477 294.87 240.37 299.185 239.146C303.563 237.938 307.554 236.942 310.458 236.289C311.91 235.962 313.088 235.711 313.907 235.556C314.726 235.4 315.181 235.329 315.189 235.364Z" fill="#455A64"/>
<path d="M299.043 229.684C299.067 229.749 298.046 230.196 296.359 230.827C294.673 231.458 292.319 232.264 289.688 233.05C287.055 233.835 284.644 234.452 282.889 234.849C281.133 235.246 280.034 235.432 280.018 235.365C280.001 235.293 281.069 234.98 282.798 234.493C284.527 234.006 286.914 233.335 289.539 232.552C292.163 231.768 294.527 231.02 296.24 230.479C297.952 229.938 299.017 229.614 299.043 229.684Z" fill="#455A64"/>
<path d="M294.68 221.74C294.722 221.878 290.927 223.146 286.206 224.573C281.483 226.001 277.622 227.046 277.581 226.908C277.539 226.77 281.333 225.502 286.056 224.074C290.776 222.647 294.638 221.602 294.68 221.74Z" fill="#455A64"/>
<path d="M290.42 214.086C290.478 214.218 287.246 215.759 283.204 217.529C279.16 219.299 275.836 220.627 275.778 220.495C275.72 220.363 278.951 218.822 282.995 217.052C287.038 215.283 290.362 213.955 290.42 214.086Z" fill="#455A64"/>
<path d="M259.514 300.153L242.827 272.012L199.7 270.231L199.745 274.153C199.745 274.153 187.898 286.067 184.082 302.299C181.193 314.587 193.349 361.488 196.769 377.744C200.975 397.732 206.808 423.031 206.808 423.031C205.942 427.51 200.191 431.136 200.588 437.117L296.449 436.067L291.524 416.639L259.514 300.153Z" fill="#5831C8"/>
<path d="M292.766 424.086C292.766 424.23 273.69 424.346 250.165 424.346C226.631 424.346 207.56 424.229 207.56 424.086C207.56 423.943 226.631 423.826 250.165 423.826C273.69 423.825 292.766 423.942 292.766 424.086Z" fill="white"/>
<path d="M286.142 400.035C286.142 400.179 267.239 400.295 243.927 400.295C220.607 400.295 201.708 400.178 201.708 400.035C201.708 399.892 220.606 399.775 243.927 399.775C267.239 399.775 286.142 399.891 286.142 400.035Z" fill="white"/>
<path d="M279.637 373.888C279.637 374.032 261.138 374.148 238.323 374.148C215.501 374.148 197.005 374.031 197.005 373.888C197.005 373.745 215.5 373.628 238.323 373.628C261.138 373.627 279.637 373.744 279.637 373.888Z" fill="white"/>
<path d="M275.088 347.577C275.088 347.721 256.033 347.837 232.533 347.837C209.025 347.837 189.974 347.72 189.974 347.577C189.974 347.433 209.025 347.317 232.533 347.317C256.034 347.317 275.088 347.434 275.088 347.577Z" fill="white"/>
<path d="M265.021 314.935C265.021 315.079 246.991 315.195 224.754 315.195C202.51 315.195 184.483 315.078 184.483 314.935C184.483 314.791 202.509 314.675 224.754 314.675C246.991 314.675 265.021 314.792 265.021 314.935Z" fill="white"/>
<path d="M251.293 285.039C251.293 285.183 237.975 285.299 221.551 285.299C205.121 285.299 191.806 285.182 191.806 285.039C191.806 284.896 205.121 284.779 221.551 284.779C237.975 284.778 251.293 284.895 251.293 285.039Z" fill="white"/>
<path opacity="0.3" d="M196.306 317.506C196.306 317.506 202.408 328.272 212.04 336.264C221.672 344.256 250.976 358.601 250.976 358.601L253.416 353.541L275.279 358.645L271.229 345.192L196.306 317.506Z" fill="black"/>
<path d="M299.146 282.004L291.524 323.441L226.16 292.369L215.628 329.225C241.315 341.788 293.321 362.701 300.015 362.096C309.532 361.236 316.108 355.552 319.071 341.609C320.905 332.981 320.038 275.107 320.038 275.107L299.146 282.004Z" fill="#C17560"/>
<path d="M230.435 286.8C230.435 286.8 205.988 271.698 195.326 290.728C187.706 309.286 196.139 324.109 214.958 333.313C224.032 337.751 236.39 343.231 248.875 348.436L267.063 308.073L230.435 286.8Z" fill="#5831C8"/>
<path d="M230.435 286.8C230.435 286.8 230.669 286.912 231.108 287.155C231.563 287.411 232.21 287.775 233.047 288.246C234.76 289.226 237.248 290.649 240.428 292.468C246.819 296.155 255.986 301.444 267.166 307.894L267.327 307.987L267.25 308.157C262.069 319.69 255.867 333.495 249.107 348.54L249.005 348.766L248.776 348.671C242.377 346.006 235.777 343.174 229.064 340.168C226.09 338.836 223.157 337.496 220.273 336.143C217.389 334.791 214.553 333.437 211.817 331.95C210.47 331.177 209.146 330.379 207.869 329.538C206.628 328.641 205.347 327.818 204.217 326.817C201.842 324.959 199.822 322.762 198.028 320.487C197.612 319.892 197.197 319.301 196.785 318.712C196.346 318.141 196.063 317.475 195.698 316.866C194.947 315.653 194.478 314.319 193.924 313.046C193.685 312.395 193.521 311.721 193.319 311.066L193.03 310.082C192.949 309.751 192.907 309.413 192.844 309.08C192.729 308.413 192.614 307.75 192.501 307.091C192.441 306.427 192.418 305.762 192.376 305.105C192.234 303.789 192.411 302.493 192.451 301.216C192.552 299.943 192.823 298.708 192.996 297.483C193.312 296.287 193.606 295.105 193.936 293.957C194.344 292.834 194.746 291.731 195.139 290.648L195.142 290.639L195.149 290.626C196.664 287.947 198.65 285.685 200.933 284.079C203.228 282.483 205.782 281.612 208.2 281.217C213.094 280.521 217.347 281.455 220.636 282.428C223.944 283.443 226.389 284.592 228.014 285.416C228.826 285.833 229.433 286.175 229.837 286.413C230.24 286.657 230.435 286.8 230.435 286.8C230.435 286.8 230.22 286.692 229.809 286.469C229.396 286.249 228.781 285.925 227.963 285.525C226.325 284.737 223.872 283.625 220.573 282.648C217.294 281.712 213.064 280.823 208.252 281.538C205.875 281.942 203.38 282.809 201.143 284.381C198.918 285.963 196.982 288.184 195.502 290.825L195.512 290.803C195.126 291.877 194.733 292.971 194.333 294.084C194.011 295.221 193.725 296.39 193.416 297.573C193.25 298.783 192.985 300.002 192.89 301.257C192.855 302.515 192.683 303.793 192.827 305.086C192.871 305.732 192.895 306.385 192.955 307.039C193.069 307.686 193.183 308.337 193.298 308.993C193.361 309.32 193.401 309.652 193.482 309.977L193.769 310.943C193.97 311.586 194.132 312.247 194.368 312.886C194.917 314.135 195.377 315.445 196.12 316.635C196.481 317.233 196.759 317.886 197.192 318.448C197.599 319.026 198.008 319.608 198.419 320.193C200.191 322.43 202.185 324.594 204.536 326.429C205.653 327.417 206.923 328.23 208.152 329.117C209.418 329.948 210.731 330.738 212.067 331.504C214.775 332.973 217.613 334.326 220.494 335.675C223.375 337.025 226.306 338.363 229.277 339.694C235.984 342.697 242.58 345.531 248.972 348.201L248.641 348.332C255.434 333.302 261.666 319.511 266.873 307.989L266.958 308.252C255.815 301.737 246.678 296.395 240.308 292.67C237.152 290.809 234.683 289.354 232.983 288.351C232.159 287.858 231.523 287.477 231.075 287.208C230.647 286.948 230.435 286.8 230.435 286.8Z" fill="#263238"/>
<path d="M298.169 289.097L299.643 273.658C299.643 273.658 293.744 261.776 293.858 260.587C293.972 259.397 294.319 252.852 294.319 252.852L309.069 239.575C309.069 239.575 313.846 239.575 313.967 244.302C313.967 244.302 318.565 243.334 318.626 248.84C318.626 248.84 323.601 249.023 323.731 253.048C323.731 253.048 326.73 252.652 326.626 256.857C326.551 259.881 325.231 271.472 325.231 271.472L319.062 282.201L318.554 292.931L298.169 289.097Z" fill="#C17560"/>
<path d="M299.697 338.585C299.528 338.642 298.441 334.894 296.206 330.688C293.974 326.475 291.389 323.55 291.524 323.441C291.572 323.399 292.273 324.079 293.269 325.302C294.264 326.524 295.529 328.314 296.665 330.443C297.797 332.573 298.586 334.614 299.071 336.112C299.555 337.612 299.759 338.566 299.697 338.585Z" fill="#7C4236"/>
<path d="M215.628 281.674C215.66 281.691 215.427 282.19 214.978 283.077C214.531 283.965 213.861 285.237 213.016 286.801C211.329 289.929 208.923 294.208 206.225 298.909C203.544 303.568 201.12 307.781 199.303 310.939C198.45 312.414 197.742 313.639 197.197 314.58C196.694 315.437 196.401 315.903 196.37 315.886C196.338 315.869 196.571 315.37 197.019 314.483C197.466 313.595 198.136 312.323 198.981 310.759C200.668 307.631 203.074 303.351 205.773 298.649C208.453 293.992 210.877 289.779 212.694 286.621C213.547 285.146 214.256 283.921 214.8 282.979C215.303 282.123 215.596 281.657 215.628 281.674Z" fill="white"/>
<path d="M235.557 290.403C235.573 290.411 235.518 290.566 235.398 290.854C235.248 291.196 235.067 291.608 234.849 292.104C234.364 293.186 233.635 294.739 232.715 296.648C230.875 300.466 228.237 305.697 225.16 311.387C222.08 317.078 219.146 322.149 216.958 325.779C215.864 327.594 214.963 329.054 214.324 330.052C214.028 330.506 213.782 330.883 213.578 331.195C213.402 331.453 213.303 331.585 213.288 331.575C213.273 331.566 213.342 331.416 213.489 331.14C213.67 330.814 213.888 330.42 214.151 329.946C214.78 328.846 215.621 327.375 216.642 325.591C218.748 321.916 221.627 316.822 224.704 311.138C227.777 305.454 230.463 300.257 232.387 296.483C233.322 294.652 234.092 293.144 234.669 292.015C234.922 291.536 235.132 291.137 235.306 290.808C235.454 290.535 235.541 290.395 235.557 290.403Z" fill="white"/>
<path d="M257.855 302.882C257.888 302.896 257.672 303.484 257.254 304.535C256.839 305.588 256.2 307.096 255.376 308.945C253.731 312.643 251.29 317.682 248.284 323.08C245.272 328.477 242.268 333.203 239.987 336.546C238.847 338.219 237.901 339.555 237.223 340.462C236.549 341.371 236.162 341.863 236.133 341.842C236.104 341.821 236.434 341.289 237.057 340.346C237.723 339.329 238.608 337.978 239.68 336.343C241.879 332.953 244.824 328.21 247.829 322.827C250.828 317.443 253.314 312.444 255.041 308.792C255.869 307.02 256.553 305.557 257.067 304.456C257.544 303.429 257.822 302.868 257.855 302.882Z" fill="white"/>
<path d="M199.746 455.618L201.83 437.105L293.278 436.103L295.61 455.618H199.746Z" fill="#263238"/>
<path d="M312.999 453.98C312.999 454.124 284.827 454.24 250.082 454.24C215.326 454.24 187.159 454.123 187.159 453.98C187.159 453.836 215.325 453.72 250.082 453.72C284.827 453.72 312.999 453.837 312.999 453.98Z" fill="#455A64"/>
<path d="M262.04 136.564H228.019C226.895 136.564 225.983 135.653 225.983 134.529V133.049C225.983 131.925 226.894 131.014 228.019 131.014H262.04C263.164 131.014 264.075 131.925 264.075 133.049V134.529C264.076 135.652 263.165 136.564 262.04 136.564Z" fill="#455A64"/>
<path d="M273.307 133.788C273.307 135.321 272.065 136.563 270.532 136.563C268.999 136.563 267.757 135.32 267.757 133.788C267.757 132.255 269 131.013 270.532 131.013C272.064 131.013 273.307 132.255 273.307 133.788Z" fill="#455A64"/>
<path d="M160.331 220.495H158.077C154.653 220.495 151.877 217.719 151.877 214.295V180.291C151.877 176.867 154.653 174.091 158.077 174.091H160.331V220.495Z" fill="#263238"/>
<path d="M159.772 287.919H157.518C154.094 287.919 151.318 285.143 151.318 281.719V247.715C151.318 244.291 154.094 241.515 157.518 241.515H159.772V287.919Z" fill="#263238"/>
<path d="M157.677 310.283C157.533 310.283 157.417 276.601 157.417 235.062C157.417 193.509 157.534 159.834 157.677 159.834C157.82 159.834 157.937 193.509 157.937 235.062C157.938 276.601 157.821 310.283 157.677 310.283Z" fill="#455A64"/>
<path d="M126.424 364.31H30.0399C23.7389 364.31 18.6309 359.202 18.6309 352.901V278.934C18.6309 272.633 23.7389 267.525 30.0399 267.525H126.424C132.725 267.525 137.833 272.633 137.833 278.934V352.901C137.832 359.203 132.725 364.31 126.424 364.31Z" fill="white"/>
<path d="M83.021 361.348C84.244 364.311 107.888 386.532 107.888 386.532V361.348H83.021Z" fill="#5831C8"/>
<path d="M99.631 289.016C98.482 285.239 95.746 281.974 92.229 280.18C88.365 278.21 83.761 278.042 79.534 279.014C75.307 279.986 71.4 282.024 67.71 284.302C65.639 285.58 63.578 286.979 62.119 288.927C59.456 292.481 56.888 298.267 56.748 302.707C56.635 306.297 58.263 315.229 59.871 318.44C60.443 319.583 61.784 320.594 63.396 321.445C65.131 324.611 67.401 327.482 70.132 329.846C70.894 327.416 71.656 324.986 72.418 322.556L99.631 289.016Z" fill="#263238"/>
<path d="M97.439 284.656L90.34 283.595C94.463 292.679 96.11 313.676 98.596 323.337C101.091 319.485 106.809 307.807 106.355 303.24C105.902 298.673 105.809 283.637 97.439 284.656Z" fill="#263238"/>
<path d="M64.391 300.917C64.618 295.534 67.969 291.029 73.149 289.549L89.295 284.935C96.302 283.975 101.243 292.488 101.905 299.53C102.64 307.354 103.191 315.616 102.442 321.493C100.936 333.311 91.968 335.085 91.968 335.085C91.966 335.068 92.126 340.681 92.218 344.116L89.587 359.51L68.297 341.335L64.353 301.059C64.343 300.86 64.38 301.185 64.391 300.917Z" fill="#FFBF9D"/>
<path d="M98.353 309.316C98.406 310.112 97.776 310.812 96.945 310.883C96.117 310.953 95.401 310.367 95.348 309.571C95.296 308.775 95.926 308.074 96.754 308.004C97.585 307.934 98.3 308.521 98.353 309.316Z" fill="#263238"/>
<path d="M100.271 304.189C100.09 304.392 98.921 303.581 97.299 303.635C95.677 303.666 94.512 304.538 94.329 304.344C94.24 304.259 94.42 303.898 94.927 303.504C95.426 303.112 96.286 302.72 97.297 302.693C98.308 302.667 99.17 303.013 99.67 303.379C100.181 303.747 100.361 304.098 100.271 304.189Z" fill="#263238"/>
<path d="M83.733 309.317C83.786 310.113 83.155 310.813 82.325 310.883C81.497 310.953 80.781 310.367 80.728 309.571C80.675 308.775 81.306 308.074 82.134 308.004C82.965 307.934 83.681 308.521 83.733 309.317Z" fill="#263238"/>
<path d="M84.8569 304.629C84.6749 304.831 83.5049 304.021 81.8829 304.075C80.2609 304.106 79.0959 304.977 78.9139 304.784C78.8249 304.699 79.0029 304.338 79.5119 303.944C80.0109 303.552 80.8699 303.159 81.8809 303.133C82.8919 303.108 83.7539 303.454 84.2549 303.819C84.7639 304.188 84.9449 304.538 84.8569 304.629Z" fill="#263238"/>
<path d="M90.2949 317.232C90.2849 317.14 91.2879 316.935 92.9169 316.675C93.3299 316.619 93.7199 316.525 93.7809 316.24C93.8699 315.938 93.6829 315.496 93.4669 315.02C93.0459 314.029 92.6059 312.99 92.1439 311.902C90.3039 307.461 88.9579 303.804 89.1369 303.732C89.3159 303.659 90.9539 307.2 92.7939 311.641C93.2379 312.736 93.6619 313.78 94.0659 314.779C94.2369 315.245 94.5239 315.771 94.3309 316.399C94.2289 316.712 93.9319 316.946 93.6679 317.026C93.4049 317.115 93.1719 317.127 92.9669 317.145C91.3239 317.286 90.3039 317.324 90.2949 317.232Z" fill="#263238"/>
<path d="M76.2489 331.346C76.2489 331.346 80.3069 339.316 92.0439 337.853L91.9679 335.086C91.9679 335.086 84.2329 335.816 76.2489 331.346Z" fill="#FF9A6C"/>
<path d="M84.1799 298.778C84.0339 299.224 82.4059 299.065 80.5099 299.353C78.6069 299.603 77.0889 300.208 76.8239 299.82C76.7049 299.634 76.9599 299.211 77.5679 298.764C78.1699 298.319 79.1399 297.883 80.2789 297.72C81.4179 297.56 82.4709 297.709 83.1729 297.97C83.8789 298.231 84.2419 298.567 84.1799 298.778Z" fill="#263238"/>
<path d="M99.5999 299.239C99.3259 299.616 98.1959 299.268 96.8509 299.291C95.5049 299.267 94.3749 299.615 94.1019 299.238C93.9809 299.054 94.1489 298.68 94.6359 298.315C95.1159 297.952 95.9269 297.643 96.8509 297.642C97.7759 297.643 98.5859 297.953 99.0659 298.316C99.5529 298.681 99.7209 299.055 99.5999 299.239Z" fill="#263238"/>
<path d="M98.4039 288.88C97.6339 287.131 95.6619 286.123 93.7509 286.081C91.8399 286.039 89.9969 286.814 88.3709 287.818C81.4819 292.067 78.1609 301.949 71.3589 306.336C69.6859 307.415 67.4439 306.534 66.0349 307.94C64.6259 309.346 63.7489 311.554 64.6019 313.352C63.6359 312.103 62.6559 310.831 62.0849 309.359C61.5139 307.887 61.3979 306.159 62.1479 304.769C62.7169 303.714 63.7519 302.892 64.0099 301.721C64.2359 300.691 63.8019 299.633 63.8159 298.579C63.8299 297.506 64.3069 296.497 64.8079 295.548C67.3819 290.676 70.9879 286.233 75.7139 283.399C78.8019 281.547 82.3599 280.415 85.9599 280.435C89.5599 280.455 93.1899 281.674 95.8919 284.053C97.4809 285.451 99.1509 286.898 98.4039 288.88Z" fill="#263238"/>
<path d="M66.2449 309.393C66.1119 309.059 59.9129 307.02 60.0179 313.543C60.1199 319.881 66.4769 318.451 66.4849 318.269C66.4919 318.087 66.2449 309.393 66.2449 309.393Z" fill="#FFBF9D"/>
<path d="M64.483 315.906C64.455 315.887 64.374 315.986 64.189 316.075C64.009 316.162 63.697 316.225 63.364 316.108C62.69 315.875 62.106 314.823 62.053 313.681C62.026 313.105 62.136 312.553 62.332 312.095C62.517 311.628 62.81 311.298 63.146 311.232C63.48 311.148 63.723 311.345 63.803 311.522C63.891 311.698 63.854 311.825 63.887 311.835C63.905 311.851 64.021 311.726 63.965 311.466C63.936 311.34 63.859 311.192 63.708 311.074C63.554 310.953 63.329 310.894 63.095 310.924C62.607 310.967 62.176 311.425 61.96 311.929C61.718 312.435 61.581 313.055 61.611 313.703C61.676 314.979 62.353 316.162 63.274 316.409C63.722 316.517 64.091 316.375 64.281 316.222C64.475 316.059 64.506 315.917 64.483 315.906Z" fill="#FF9A6C"/>
<path d="M63.632 306.209C63.637 306.217 63.767 306.14 64.008 305.985C64.246 305.824 64.614 305.608 65.051 305.279C65.918 304.614 67.117 303.564 68.382 302.068C69.655 300.58 70.978 298.658 72.41 296.515C73.845 294.377 75.42 292.01 77.453 289.855C78.489 288.802 79.583 287.851 80.75 287.093C81.914 286.329 83.14 285.757 84.347 285.335C86.764 284.481 89.102 284.242 91.035 284.319C92.976 284.385 94.52 284.753 95.556 285.072C96.081 285.215 96.471 285.379 96.742 285.473C97.012 285.57 97.156 285.617 97.16 285.608C97.164 285.599 97.028 285.534 96.764 285.419C96.499 285.307 96.114 285.125 95.59 284.964C94.558 284.61 93.006 284.207 91.044 284.114C89.09 284.009 86.718 284.229 84.26 285.082C83.032 285.503 81.783 286.08 80.597 286.853C79.406 287.621 78.294 288.586 77.244 289.653C75.186 291.834 73.612 294.219 72.189 296.365C70.769 298.517 69.471 300.44 68.226 301.934C66.99 303.436 65.823 304.499 64.982 305.187C64.558 305.527 64.202 305.757 63.976 305.933C63.746 306.106 63.627 306.2 63.632 306.209Z" fill="white"/>
<path d="M65.276 307.956C65.226 309.689 65.199 311.519 66.042 313.033C66.885 314.548 68.931 315.536 70.412 314.633C71.619 313.897 71.942 312.314 72.11 310.91C72.596 306.858 72.754 302.771 73.275 298.723L65.276 307.956Z" fill="#263238"/>
<path d="M96.7581 285.91C96.7521 285.947 96.1951 285.82 95.1791 285.817C94.1691 285.819 92.6811 285.995 91.0081 286.703C90.1751 287.055 89.2901 287.517 88.4201 288.13C87.5481 288.742 86.6621 289.471 85.7691 290.276C83.9961 291.898 82.1681 293.841 80.6271 296.146C79.8551 297.299 79.1751 298.481 78.4331 299.579C77.6991 300.68 76.8751 301.679 75.975 302.507C74.1791 304.16 72.3141 305.335 70.7241 306.241C69.1281 307.144 67.79 307.783 66.867 308.224C66.431 308.425 66.076 308.588 65.797 308.716C65.55 308.825 65.4181 308.876 65.4131 308.865C65.4071 308.854 65.5291 308.781 65.7651 308.651C66.0371 308.507 66.3811 308.324 66.8051 308.099C67.7081 307.62 69.0261 306.948 70.5981 306.022C72.1641 305.093 73.9961 303.906 75.7521 302.265C76.6261 301.449 77.423 300.472 78.145 299.382C78.873 298.296 79.5511 297.112 80.3321 295.946C81.8961 293.607 83.7491 291.654 85.5501 290.03C86.4591 289.223 87.3571 288.497 88.2531 287.884C89.1481 287.268 90.0571 286.81 90.9131 286.466C92.6321 285.774 94.1561 285.634 95.1811 285.675C95.6961 285.694 96.0931 285.751 96.3581 285.805C96.6231 285.864 96.7601 285.898 96.7581 285.91Z" fill="#455A64"/>
<path d="M64.9901 304.048C65.0011 304.066 64.8061 304.205 64.4411 304.442C64.0141 304.709 63.4891 305.038 62.8631 305.43C62.6921 305.535 62.5151 305.643 62.3311 305.755C62.1331 305.871 61.9131 305.975 61.6441 306.004C61.5121 306.015 61.3541 306.008 61.2121 305.915C61.0711 305.826 60.9781 305.67 60.9631 305.504C60.9411 305.172 61.1121 304.922 61.2391 304.694C61.7841 303.764 62.3821 302.743 63.0161 301.659L63.2741 301.885C62.6931 302.342 62.0111 302.713 61.2671 302.958C60.5201 303.205 59.7491 303.312 59.0071 303.29C58.8251 303.289 58.6201 303.27 58.4291 303.208C58.2421 303.148 58.0231 303.028 57.9251 302.794C57.8241 302.565 57.9061 302.307 58.0131 302.151C58.1191 301.985 58.2521 301.861 58.3631 301.744C59.2791 300.806 59.9571 299.826 60.4431 298.961C61.4111 297.218 61.6651 295.982 61.7321 296.004C61.7521 296.009 61.7081 296.318 61.5571 296.862C61.4011 297.403 61.1341 298.182 60.6651 299.08C60.1991 299.977 59.5271 300.996 58.6001 301.971C58.3701 302.201 58.1431 302.466 58.2401 302.662C58.3211 302.859 58.6841 302.947 59.0171 302.94C59.7181 302.957 60.4481 302.853 61.1561 302.619C61.8611 302.386 62.5071 302.038 63.0591 301.609L63.8001 301.034L63.3171 301.836C62.6691 302.911 62.0581 303.924 61.5011 304.848C61.3611 305.071 61.2361 305.292 61.2491 305.474C61.2621 305.654 61.4191 305.755 61.6221 305.733C62.0321 305.7 62.3961 305.41 62.7471 305.231C63.3931 304.875 63.9361 304.576 64.3771 304.333C64.7641 304.132 64.9791 304.029 64.9901 304.048Z" fill="white"/>
<path d="M84.206 320.402C84.394 319.43 85.3609 318.661 86.3489 318.731C87.0739 318.783 87.7399 319.254 88.0859 319.893C88.4319 320.532 88.4679 321.317 88.2429 322.009L88.2129 322.162C87.5689 322.915 86.426 323.205 85.515 322.817C84.604 322.429 84.019 321.374 84.206 320.402Z" fill="#FF9A6C"/>
<path d="M89.3909 322.162C89.3859 321.915 87.7469 322.041 86.4739 320.729C85.1969 319.42 85.2439 317.658 85.0139 317.664C84.9089 317.649 84.7259 318.078 84.7639 318.817C84.7959 319.542 85.1109 320.58 85.8899 321.383C86.6709 322.183 87.6519 322.476 88.3279 322.479C89.0179 322.488 89.4099 322.274 89.3909 322.162Z" fill="#263238"/>
<path d="M115.582 352.625L115.396 352.389C107.203 343.719 92.1229 340.816 92.1229 340.816C92.1229 340.816 91.2009 346.492 82.7469 347.126C74.2939 347.76 68.0839 339.149 68.0839 339.149L56.8059 340.728C56.8059 340.728 51.1289 341.397 47.5949 343.476C39.6349 348.159 35.4099 364.31 35.4099 364.31L122.383 364.66L115.582 352.625Z" fill="#5831C8"/>
<path d="M123.535 267.526C123.535 267.526 123.74 267.523 124.144 267.537C124.549 267.541 125.152 267.566 125.937 267.704C127.482 267.968 129.866 268.567 132.316 270.462C133.53 271.399 134.751 272.643 135.753 274.247C136.754 275.844 137.528 277.804 137.817 280.015C137.958 281.122 137.954 282.278 137.951 283.459C137.954 284.644 137.956 285.87 137.959 287.134C137.964 289.663 137.969 292.347 137.975 295.18C137.99 306.515 138.009 320.227 138.03 335.864C138.034 339.774 138.038 343.804 138.041 347.948C138.037 348.985 138.066 350.021 137.99 351.091C137.924 352.155 137.706 353.21 137.415 354.25C136.79 356.319 135.661 358.257 134.16 359.882C132.666 361.518 130.761 362.813 128.63 363.597L127.829 363.888L127.001 364.102C126.453 364.269 125.881 364.323 125.315 364.417C124.17 364.553 123.02 364.545 121.885 364.539C117.316 364.542 112.648 364.544 107.887 364.547L108.124 364.31C108.127 371.331 108.131 378.836 108.134 386.531V387.104L107.717 386.711C104.035 383.242 100.285 379.659 96.495 375.97C92.718 372.269 88.858 368.512 85.16 364.482L85.35 364.567C73.531 364.568 61.192 364.569 48.606 364.571C44.819 364.571 41.055 364.571 37.315 364.571H34.515C33.586 364.578 32.654 364.575 31.704 364.509C29.82 364.352 27.975 363.823 26.305 362.966C22.954 361.263 20.349 358.232 19.166 354.727C18.551 352.983 18.354 351.111 18.372 349.306C18.372 347.505 18.373 345.712 18.373 343.927C18.378 329.645 18.383 315.868 18.388 302.745C18.392 296.183 18.395 289.785 18.399 283.568C18.395 282.026 18.386 280.443 18.695 278.913C19.024 277.391 19.582 275.936 20.339 274.606C21.084 273.266 22.077 272.089 23.19 271.079C24.306 270.073 25.556 269.218 26.916 268.626C28.268 268.034 29.687 267.588 31.137 267.437C32.591 267.274 34.015 267.325 35.42 267.319C38.235 267.322 40.999 267.324 43.707 267.327C49.124 267.333 54.323 267.339 59.285 267.344C79.127 267.379 95.185 267.407 106.296 267.427C111.838 267.448 116.144 267.465 119.077 267.476C120.53 267.487 121.641 267.496 122.401 267.502C123.152 267.508 123.535 267.526 123.535 267.526C123.535 267.526 123.151 267.544 122.403 267.553C121.643 267.559 120.532 267.568 119.079 267.579C116.146 267.59 111.84 267.607 106.298 267.628C95.187 267.648 79.129 267.676 59.287 267.711C54.325 267.716 49.126 267.722 43.709 267.728C41 267.731 38.237 267.733 35.422 267.736C34.013 267.743 32.587 267.698 31.191 267.858C29.784 268.006 28.409 268.443 27.098 269.019C25.78 269.594 24.569 270.427 23.488 271.404C22.41 272.385 21.448 273.528 20.729 274.828C19.997 276.119 19.459 277.529 19.142 279.004C18.846 280.487 18.855 282.007 18.862 283.569C18.865 289.786 18.869 296.185 18.873 302.746C18.878 315.87 18.883 329.646 18.888 343.928C18.888 345.713 18.889 347.506 18.889 349.307C18.874 351.099 19.064 352.869 19.658 354.561C20.799 357.94 23.314 360.864 26.546 362.505C28.156 363.331 29.935 363.84 31.752 363.991C32.656 364.054 33.585 364.058 34.519 364.051H37.319C41.059 364.051 44.823 364.051 48.61 364.051C61.196 364.052 73.535 364.054 85.354 364.055H85.467L85.545 364.14C89.221 368.15 93.082 371.911 96.852 375.61C100.637 379.297 104.384 382.883 108.06 386.352L107.643 386.532C107.647 378.838 107.65 371.333 107.654 364.311V364.074H107.891C112.651 364.077 117.32 364.08 121.889 364.082C123.037 364.09 124.165 364.097 125.264 363.968C125.812 363.877 126.367 363.827 126.897 363.665L127.699 363.46L128.475 363.179C130.54 362.422 132.39 361.17 133.841 359.585C135.299 358.01 136.397 356.132 137.007 354.126C137.291 353.118 137.505 352.094 137.57 351.061C137.646 350.035 137.62 348.983 137.626 347.949C137.63 343.805 137.634 339.775 137.637 335.865C137.658 320.228 137.677 306.516 137.692 295.181C137.698 292.348 137.703 289.664 137.708 287.135C137.711 285.871 137.714 284.646 137.716 283.46C137.724 282.272 137.734 281.13 137.601 280.044C137.328 277.866 136.576 275.93 135.598 274.347C134.619 272.758 133.421 271.52 132.227 270.583C129.817 268.688 127.46 268.069 125.927 267.782C125.149 267.632 124.549 267.595 124.146 267.578C123.74 267.55 123.535 267.526 123.535 267.526Z" fill="#263238"/>
<path d="M352.616 388.845H466.202C472.531 388.845 477.662 383.714 477.662 377.385V289.47C477.662 283.141 472.531 278.01 466.202 278.01H352.616C346.287 278.01 341.156 283.141 341.156 289.47V377.384C341.155 383.714 346.286 388.845 352.616 388.845Z" fill="white"/>
<path d="M403.924 385.452C402.524 388.845 375.447 414.292 375.447 414.292V385.452H403.924Z" fill="#455A64"/>
<path d="M393.445 362.244C393.45 358.743 393.447 355.824 393.424 355.465C393.424 355.465 381.586 354.346 380.737 342.628C380.327 336.966 380.431 325.234 380.649 314.622C380.883 303.225 389.843 293.923 401.222 293.24L402.353 293.172C414.596 293.152 421.452 303.538 421.133 315.777L420.704 361.714L400.897 377.617L399.463 377.489L393.445 362.244Z" fill="#FFBF9D"/>
<path d="M393.424 355.464C393.424 355.464 400.841 355.454 408.421 350.033C408.421 350.033 405.211 358.822 393.447 358.468L393.424 355.464Z" fill="#FF9A6C"/>
<path d="M400.598 319.676C400.827 319.916 402.193 318.845 404.155 318.818C406.114 318.761 407.568 319.772 407.778 319.522C407.881 319.411 407.644 318.975 407.011 318.518C406.387 318.062 405.328 317.627 404.106 317.653C402.884 317.681 401.863 318.158 401.279 318.64C400.683 319.125 400.485 319.569 400.598 319.676Z" fill="#263238"/>
<path d="M402.047 325.037C402.068 325.875 402.794 326.549 403.67 326.543C404.544 326.537 405.237 325.855 405.217 325.017C405.196 324.179 404.47 323.504 403.595 323.51C402.719 323.515 402.026 324.199 402.047 325.037Z" fill="#263238"/>
<path d="M395.509 333.254C395.512 333.151 394.38 333.025 392.551 332.902C392.088 332.882 391.647 332.817 391.551 332.508C391.422 332.182 391.585 331.674 391.776 331.126C392.142 329.987 392.524 328.792 392.926 327.54C394.516 322.438 395.638 318.254 395.432 318.192C395.226 318.13 393.77 322.215 392.18 327.317C391.799 328.574 391.434 329.773 391.088 330.92C390.946 331.453 390.682 332.065 390.958 332.74C391.103 333.076 391.455 333.305 391.755 333.367C392.056 333.439 392.315 333.429 392.543 333.429C394.375 333.416 395.509 333.357 395.509 333.254Z" fill="#263238"/>
<path d="M401.575 313.384C401.759 313.822 403.333 313.514 405.211 313.635C407.092 313.716 408.63 314.19 408.853 313.775C408.952 313.576 408.664 313.172 408.031 312.776C407.402 312.38 406.416 312.028 405.289 311.966C404.162 311.907 403.148 312.152 402.486 312.478C401.818 312.804 401.494 313.176 401.575 313.384Z" fill="#263238"/>
<path d="M383.179 314.499C383.38 314.856 384.915 314.482 386.77 314.449C388.626 314.382 390.161 314.673 390.362 314.305C390.45 314.129 390.148 313.808 389.506 313.518C388.869 313.228 387.882 313 386.769 313.03C385.657 313.061 384.67 313.342 384.034 313.666C383.391 313.99 383.09 314.328 383.179 314.499Z" fill="#263238"/>
<path d="M420.698 324.516C420.893 324.418 428.612 321.649 428.837 329.681C429.062 337.713 420.952 336.283 420.932 336.052C420.911 335.823 420.698 324.516 420.698 324.516Z" fill="#FFBF9D"/>
<path d="M423.299 332.941C423.334 332.914 423.442 333.035 423.681 333.137C423.915 333.236 424.313 333.298 424.728 333.129C425.568 332.794 426.244 331.427 426.243 329.978C426.243 329.247 426.07 328.555 425.795 327.986C425.533 327.405 425.142 327.006 424.712 326.942C424.284 326.856 423.989 327.12 423.897 327.348C423.796 327.576 423.851 327.734 423.809 327.75C423.787 327.771 423.633 327.62 423.688 327.287C423.717 327.127 423.805 326.934 423.99 326.775C424.179 326.613 424.46 326.525 424.758 326.549C425.379 326.574 425.952 327.128 426.255 327.753C426.592 328.38 426.803 329.157 426.803 329.978C426.797 331.598 426.011 333.136 424.859 333.504C424.298 333.667 423.822 333.51 423.574 333.327C423.32 333.135 423.272 332.956 423.299 332.941Z" fill="#FF9A6C"/>
<path d="M398 340.081C397.915 339.877 399.494 339.426 400.618 337.965C401.18 337.246 401.509 336.458 401.756 335.883C401.998 335.303 402.18 334.94 402.266 334.968C402.347 334.994 402.322 335.389 402.185 336.021C402.042 336.646 401.758 337.539 401.121 338.356C400.494 339.181 399.66 339.668 399.05 339.899C398.435 340.139 398.02 340.15 398 340.081Z" fill="#263238"/>
<path d="M431.54 311.657C429.904 308.804 429.557 305.421 428.684 302.25C427.811 299.079 426.093 295.783 423.009 294.639L422.939 294.669C420.172 293.515 416.743 293.454 414.434 295.356C413.922 291.176 410.307 287.825 406.248 286.704C402.19 285.583 395.649 286.136 391.723 287.658C388.688 288.834 385.736 291.286 382.141 294.899C380.626 296.421 379.227 298.062 377.981 299.81L374.299 310.7L377.259 316.473C377.435 316.866 377.618 317.258 377.84 317.647L377.843 317.621L380.422 329.741C380.637 326.448 380.546 314.981 380.761 311.687C385.849 311.534 390.477 309.54 393.937 305.806C395.763 303.836 397.21 301.356 399.633 300.196C402.757 298.7 406.442 299.866 409.699 301.044L409.562 300.917C411.254 301.726 412.788 302.864 414.054 304.248C413.234 310.726 413.825 317.38 415.783 323.61C416.078 324.549 416.891 326.485 417.803 326.851C419.597 327.571 420.106 325.742 421.204 324.78C422.012 324.072 423.198 323.995 424.493 324.015C425.28 322.023 426.108 318.659 426.804 315.713C427.888 316.057 429.047 316.162 430.171 315.982C429.836 315.15 429.502 314.318 429.167 313.487C429.613 313.777 430.075 314.074 430.601 314.158C431.126 314.242 431.734 314.053 431.976 313.58C432.288 312.969 431.882 312.254 431.54 311.657Z" fill="#263238"/>
<path d="M410.733 296.652C410.709 296.682 411.22 296.968 411.894 297.741C412.562 298.511 413.305 299.845 413.641 301.652C413.814 302.55 413.916 303.554 413.902 304.631C413.893 305.71 413.791 306.863 413.693 308.079C413.598 309.295 413.495 310.579 413.556 311.917C413.586 312.585 413.658 313.265 413.794 313.946C413.933 314.615 414.099 315.341 414.595 315.921C414.99 316.394 415.658 316.61 416.24 316.498C416.826 316.402 417.351 316.097 417.737 315.678C418.502 314.808 418.704 313.696 418.904 312.715L418.658 312.742C419.048 313.63 419.449 314.508 420.051 315.213C420.642 315.922 421.468 316.396 422.313 316.483C422.734 316.526 423.159 316.464 423.523 316.287C423.894 316.112 424.166 315.81 424.354 315.49C424.533 315.163 424.63 314.804 424.616 314.455C424.601 314.107 424.469 313.776 424.252 313.54L424.126 313.649C425.016 314.689 425.962 315.254 426.617 315.568C426.948 315.726 427.213 315.821 427.392 315.881C427.573 315.937 427.668 315.961 427.671 315.954C427.673 315.946 427.583 315.908 427.408 315.838C427.235 315.764 426.977 315.656 426.657 315.488C426.022 315.152 425.106 314.573 424.254 313.542L424.128 313.651C424.516 314.073 424.53 314.807 424.183 315.392C424.009 315.68 423.759 315.949 423.432 316.097C423.107 316.251 422.72 316.305 422.336 316.261C421.561 316.174 420.791 315.729 420.237 315.055C419.669 314.382 419.281 313.527 418.896 312.637L418.732 312.259L418.649 312.663C418.449 313.642 418.235 314.71 417.538 315.494C417.192 315.87 416.711 316.146 416.198 316.228C415.684 316.32 415.145 316.144 414.8 315.739C414.366 315.237 414.195 314.549 414.061 313.891C413.928 313.227 413.856 312.561 413.824 311.904C413.761 310.588 413.858 309.312 413.945 308.097C414.036 306.882 414.13 305.723 414.129 304.631C414.134 303.539 414.018 302.522 413.831 301.612C413.465 299.782 412.679 298.43 411.974 297.67C411.262 296.906 410.733 296.652 410.733 296.652Z" fill="#455A64"/>
<path d="M374.365 307.577C374.362 307.581 374.394 307.608 374.458 307.658C374.536 307.717 374.631 307.788 374.748 307.875C374.875 307.972 375.036 308.086 375.24 308.199C375.441 308.318 375.669 308.462 375.947 308.583C377.028 309.114 378.765 309.65 380.947 309.549C383.108 309.455 385.71 308.724 388.047 307.031C390.408 305.379 392.493 302.928 394.208 300.112C395.078 298.705 395.791 297.261 396.573 295.928C397.35 294.595 398.206 293.364 399.235 292.397C400.252 291.425 401.429 290.712 402.635 290.393C403.236 290.222 403.841 290.19 404.417 290.211C404.994 290.249 405.54 290.373 406.042 290.545C407.047 290.896 407.854 291.465 408.464 292.046C409.076 292.633 409.485 293.249 409.763 293.777C410.282 294.86 410.302 295.551 410.345 295.54C410.35 295.539 410.347 295.498 410.337 295.417C410.323 295.32 410.306 295.202 410.286 295.058C410.233 294.744 410.104 294.288 409.859 293.73C409.591 293.186 409.187 292.547 408.571 291.936C407.957 291.331 407.138 290.737 406.107 290.362C405.592 290.179 405.029 290.045 404.431 290C403.835 289.972 403.201 290.001 402.578 290.173C401.325 290.494 400.108 291.223 399.062 292.213C398.003 293.198 397.128 294.45 396.342 295.791C395.55 297.133 394.837 298.574 393.974 299.967C392.272 302.761 390.217 305.185 387.901 306.823C385.607 308.501 383.066 309.235 380.937 309.354C378.791 309.477 377.074 308.979 375.992 308.485C374.902 307.984 374.387 307.544 374.365 307.577Z" fill="#455A64"/>
<path d="M382.711 320.184C382.941 320.424 384.306 319.353 386.268 319.326C388.227 319.269 389.682 320.28 389.891 320.03C389.994 319.919 389.757 319.483 389.124 319.026C388.5 318.571 387.441 318.135 386.219 318.161C384.997 318.188 383.977 318.666 383.393 319.148C382.796 319.633 382.598 320.077 382.711 320.184Z" fill="#263238"/>
<path d="M385.709 325.273C385.73 326.111 386.456 326.785 387.332 326.779C388.206 326.773 388.9 326.091 388.879 325.253C388.858 324.415 388.132 323.74 387.257 323.746C386.382 323.751 385.688 324.435 385.709 325.273Z" fill="#263238"/>
<path d="M378.98 298.474C377.983 299.79 376.449 300.988 374.808 300.812C374.323 300.76 373.062 300.299 373.062 300.299C372.489 300.646 372.623 302.609 373.018 303.151C373.413 303.692 374.248 304.424 374.248 304.424C372.323 305.458 370.57 304.948 368.518 304.196C368.878 307.69 371.256 310.903 374.492 312.269C375.526 312.706 376.782 312.942 377.725 312.333C378.555 311.796 378.896 310.768 379.147 309.813C380.069 306.302 380.555 302.678 380.59 299.048L378.98 298.474Z" fill="#263238"/>
<path d="M366.636 375.463L366.85 375.193C376.233 365.265 393.502 361.94 393.502 361.94C393.502 361.94 394.558 368.44 404.239 369.166C413.92 369.892 421.031 360.031 421.031 360.031L433.946 361.84C433.946 361.84 440.447 362.606 444.495 364.987C453.611 370.349 458.449 388.845 458.449 388.845L358.849 389.246L366.636 375.463Z" fill="#455A64"/>
<path d="M357.528 278.009C357.528 278.009 357.293 278.034 356.832 278.064C356.599 278.078 356.312 278.096 355.972 278.117C355.631 278.149 355.239 278.229 354.791 278.295C353.035 278.623 350.333 279.33 347.571 281.5C346.202 282.573 344.828 283.991 343.705 285.812C342.583 287.626 341.721 289.845 341.407 292.341C341.253 293.586 341.264 294.896 341.273 296.255C341.276 297.613 341.278 299.016 341.281 300.463C341.286 303.359 341.291 306.433 341.297 309.677C341.312 322.657 341.331 338.36 341.352 356.268C341.356 360.746 341.36 365.361 341.364 370.107C341.371 371.292 341.34 372.495 341.428 373.673C341.503 374.859 341.749 376.033 342.074 377.19C342.774 379.492 344.034 381.647 345.706 383.454C347.37 385.273 349.493 386.71 351.863 387.579L352.754 387.902L353.675 388.138C354.284 388.324 354.92 388.381 355.549 388.486C356.811 388.635 358.105 388.626 359.418 388.618C364.65 388.615 369.996 388.612 375.448 388.61H375.685V388.847C375.688 396.887 375.692 405.482 375.695 414.294L375.278 414.114C379.489 410.142 383.78 406.035 388.114 401.813C392.432 397.577 396.853 393.269 401.065 388.676L401.143 388.591H401.256C414.79 388.59 428.921 388.588 443.334 388.587C447.671 388.587 451.982 388.587 456.264 388.587C457.335 388.587 458.403 388.587 459.471 388.587C460.541 388.595 461.605 388.591 462.643 388.519C464.728 388.345 466.77 387.761 468.618 386.813C472.327 384.929 475.214 381.573 476.524 377.694C477.206 375.753 477.424 373.718 477.406 371.665C477.406 369.603 477.407 367.549 477.407 365.505C477.412 349.149 477.417 333.373 477.422 318.344C477.426 310.83 477.429 303.502 477.433 296.382C477.44 294.594 477.45 292.849 477.111 291.147C476.747 289.455 476.129 287.837 475.289 286.356C474.463 284.865 473.359 283.553 472.122 282.428C470.881 281.307 469.492 280.352 467.98 279.692C466.475 279.031 464.898 278.531 463.283 278.361C461.681 278.177 460.047 278.23 458.434 278.222C455.21 278.219 452.045 278.217 448.944 278.214C442.741 278.208 436.787 278.203 431.104 278.197C408.379 278.162 389.989 278.134 377.268 278.114C370.919 278.093 365.987 278.076 362.631 278.065C360.965 278.054 359.692 278.045 358.825 278.039C357.967 278.027 357.528 278.009 357.528 278.009C357.528 278.009 357.967 277.991 358.825 277.982C359.692 277.976 360.965 277.968 362.631 277.956C365.987 277.945 370.919 277.928 377.268 277.907C389.989 277.887 408.379 277.859 431.104 277.824C436.787 277.819 442.741 277.813 448.944 277.807C452.046 277.804 455.21 277.802 458.434 277.799C460.043 277.806 461.674 277.747 463.335 277.934C464.993 278.106 466.613 278.617 468.159 279.294C469.713 279.97 471.141 280.948 472.417 282.098C473.689 283.252 474.824 284.598 475.675 286.129C476.54 287.65 477.178 289.313 477.553 291.052C477.906 292.801 477.896 294.609 477.891 296.377C477.895 303.497 477.898 310.824 477.902 318.339C477.907 333.368 477.912 349.145 477.917 365.5C477.917 367.544 477.918 369.598 477.918 371.66C477.938 373.726 477.713 375.863 477.01 377.856C475.658 381.861 472.681 385.323 468.853 387.269C466.945 388.248 464.837 388.852 462.685 389.031C461.6 389.107 460.534 389.109 459.469 389.102C458.402 389.102 457.333 389.102 456.262 389.102C451.979 389.102 447.668 389.102 443.332 389.102C428.918 389.101 414.788 389.099 401.254 389.098L401.444 389.013C397.211 393.627 392.79 397.929 388.465 402.168C384.126 406.391 379.832 410.495 375.615 414.468L375.198 414.861V414.288C375.202 405.477 375.205 396.882 375.208 388.841L375.445 389.078C369.993 389.075 364.648 389.072 359.415 389.07C358.114 389.077 356.798 389.086 355.491 388.931C354.844 388.824 354.19 388.763 353.564 388.572L352.618 388.328L351.703 387.996C349.268 387.1 347.09 385.62 345.383 383.75C343.668 381.892 342.377 379.677 341.662 377.313C341.329 376.125 341.08 374.919 341.004 373.702C340.917 372.48 340.95 371.292 340.945 370.105C340.949 365.36 340.953 360.744 340.957 356.266C340.978 338.358 340.997 322.655 341.012 309.675C341.017 306.431 341.023 303.357 341.028 300.461C341.031 299.013 341.033 297.61 341.036 296.253C341.032 294.9 341.026 293.577 341.188 292.311C341.517 289.782 342.402 287.539 343.547 285.711C344.693 283.876 346.089 282.452 347.478 281.378C350.281 279.208 353.009 278.521 354.778 278.217C355.229 278.157 355.623 278.083 355.966 278.057C356.307 278.044 356.595 278.032 356.829 278.023C357.293 278.008 357.528 278.009 357.528 278.009Z" fill="#263238"/>
</svg>
