<svg width="30" height="30" viewBox="0 0 30 30" fill="none" xmlns="http://www.w3.org/2000/svg">
<path fill-rule="evenodd" clip-rule="evenodd" d="M1 18.0227L3.22213 18.0669L6.33001 14.9618L8.79388 17.4258C9.43802 16.5975 10.2299 15.9033 11.15 15.3713L11.3117 15.2793L11.4384 15.4125L10.8931 13.1045C10.4477 13.218 9.98486 13.2765 9.51243 13.2765C7.97643 13.2765 6.54359 12.6592 5.47765 11.5419L5.35089 11.4087L5.18922 11.5005C2.93453 12.8042 1.45168 15.0819 1.01605 17.9197L1.00002 18.0227H1ZM9.51242 12.1362C6.71875 12.1362 4.44581 9.86308 4.44581 7.06896C4.44581 4.27293 6.71875 2 9.51242 2C11.9308 2 13.9588 3.70301 14.4601 5.97266C12.341 6.70378 10.5452 9.19267 10.526 12.0339C10.1924 12.102 9.85284 12.1362 9.51242 12.1362Z" fill="url(#paint0_linear_1018_1359)"/>
<path fill-rule="evenodd" clip-rule="evenodd" d="M12.8442 27.8373C13.0138 27.9584 13.2169 28.0235 13.4252 28.0235H27.5499C28.3519 28.0235 29.0219 27.3911 28.9826 26.5901C28.805 22.9746 27.2509 19.9037 23.7533 17.8836L23.5515 17.7668L23.3875 17.9358C22.0351 19.3534 20.2173 20.1366 18.2681 20.1366C16.3194 20.1366 14.5017 19.3534 13.1492 17.9358L12.9883 17.7668L12.7834 17.8836C11.9467 18.3672 11.2214 18.9114 10.599 19.5086L13.2501 22.1596H9.10156C9.28922 24.1741 10.0381 25.834 11.8193 27.1057L12.8442 27.8373ZM18.2681 18.6899C14.7238 18.6899 11.8402 15.8061 11.8402 12.2613C11.8402 8.71404 14.7238 5.83057 18.2681 5.83057C21.8129 5.83057 24.6967 8.71404 24.6967 12.2583C24.6967 15.8031 21.8129 18.6899 18.2681 18.6899Z" fill="url(#paint1_linear_1018_1359)"/>
<path fill-rule="evenodd" clip-rule="evenodd" d="M5.96404 17.0894L1.51392 21.3398H4.05512C4.6915 25.5942 7.86909 27.4152 11.0467 28.0235C8.82161 26.5046 7.80716 24.3775 7.80716 21.3398H10.4103L5.96404 17.0894Z" fill="url(#paint2_linear_1018_1359)"/>
<defs>
<linearGradient id="paint0_linear_1018_1359" x1="-5.32217" y1="3.70407" x2="14.3079" y2="-0.412092" gradientUnits="userSpaceOnUse">
<stop stop-color="#8B97FF"/>
<stop offset="1" stop-color="#EDEFFF"/>
</linearGradient>
<linearGradient id="paint1_linear_1018_1359" x1="-0.244617" y1="8.18436" x2="28.5982" y2="1.71152" gradientUnits="userSpaceOnUse">
<stop stop-color="#8B97FF"/>
<stop offset="1" stop-color="#EDEFFF"/>
</linearGradient>
<linearGradient id="paint2_linear_1018_1359" x1="-2.96359" y1="18.249" x2="10.8904" y2="15.2259" gradientUnits="userSpaceOnUse">
<stop stop-color="#8B97FF"/>
<stop offset="1" stop-color="#EDEFFF"/>
</linearGradient>
</defs>
</svg>
