<svg width="140" height="141" viewBox="0 0 140 141" fill="none" xmlns="http://www.w3.org/2000/svg">
<path d="M39.8071 72.253C41.8348 61.0171 49.8214 55.158 60.1111 53.0641C64.3198 52.2077 68.4938 52.2357 72.6815 52.987C75.0501 53.412 77.261 54.3562 79.341 55.3662C77.4372 52.3147 75.4967 49.2638 73.615 46.1771C68.4227 37.66 63.2456 29.1337 58.0873 20.596C57.288 19.2729 56.6176 17.8718 55.8903 16.5053C55.4633 15.7029 55.6257 15.1142 56.3555 14.4998C58.933 12.3302 61.4821 10.1241 63.9749 7.85814C64.8739 7.04097 65.5481 6.97149 66.5878 7.66203C73.2274 12.072 79.9121 16.4142 86.5848 20.7742C86.8444 20.9439 87.1334 21.0686 87.4834 21.2537C87.8635 20.6384 87.5939 20.0804 87.539 19.5203C87.1841 15.9003 87.7456 12.5087 90.2683 9.70624C94.0287 5.52881 99.9439 5.25733 104.036 9.12055C107.237 12.1428 108.3 15.9525 107.946 20.2862C107.637 24.0759 106 27.3704 104.326 30.655C103.804 31.6798 103.805 32.3085 104.942 32.776C105.825 33.1391 106.336 33.8914 106.803 34.6998C107.364 35.6707 107.773 36.7449 108.628 37.6521C110.299 36.4847 111.765 35.1105 113.514 34.1361C117.667 31.8225 121.981 31.224 126.323 33.3692C133.36 36.8457 133.977 45.5365 127.643 50.608C125.301 52.4834 122.668 53.3878 119.641 53.008C118.881 52.9126 118.11 52.9088 117.356 52.8636C117.111 53.3798 117.429 53.7002 117.618 54.037C120.942 59.9527 124.24 65.8839 127.627 71.7629C128.365 73.0445 128.357 73.8916 127.211 74.9236C124.842 77.0563 122.599 79.3279 120.302 81.5395C120.043 81.789 119.811 82.0871 119.599 82.1172C107.806 74.1678 96.1293 66.2963 84.4521 58.4249C84.3231 58.5735 84.194 58.7221 84.065 58.8707C84.7809 59.4799 85.5428 60.0432 86.205 60.706C89.9658 64.4697 93.0647 68.6297 93.9283 74.0668C94.0705 74.9622 94.1048 75.8754 94.1735 76.7816C94.2476 77.7573 94.6423 78.3025 95.7175 78.4967C101.493 79.54 107.256 80.6555 113.02 81.7605C115.109 82.1609 115.576 83.0668 114.746 85.0756C114.108 86.6194 113.439 88.1502 112.777 89.7026C113.466 90.0087 113.986 89.7358 114.499 89.6276C115.229 89.4738 115.941 89.257 116.513 89.9534C117.122 90.6943 116.772 91.4106 116.429 92.1182C114.899 95.2739 113.367 98.4287 111.834 101.583C111.257 102.771 110.709 103.975 110.081 105.136C109.684 105.87 109.771 106.301 110.47 106.835C114.441 109.866 115.519 114.951 113.202 119.404C112.781 120.212 112.324 121.004 111.958 121.836C110.796 124.48 111.279 126.703 113.433 128.615C113.975 129.095 114.624 129.453 115.184 129.915C115.895 130.501 115.909 131.151 114.989 131.449C113.172 132.036 111.322 132.523 109.472 133.003C108.857 133.162 108.328 132.774 107.822 132.471C104.658 130.576 103.351 125.916 104.978 122.148C105.609 120.687 106.426 119.307 107.079 117.854C107.975 115.861 107.791 114.146 106.591 112.714C106.054 113.112 105.873 113.737 105.603 114.287C103.719 118.131 101.834 121.975 99.9884 125.838C99.5834 126.686 99.028 127.14 98.1035 127.408C87.6094 130.444 77.1249 133.515 66.6521 136.624C65.5551 136.95 64.584 136.709 63.583 136.443C57.6016 134.852 51.6231 133.25 45.6508 131.626C45.0944 131.474 44.5768 131.518 44.0351 131.583C40.3467 132.029 36.95 131.416 34.1164 128.811C33.5799 128.318 32.906 128.197 32.2442 128.048C30.7085 127.703 29.6821 126.79 28.9888 125.386C26.9915 121.343 24.9543 117.32 22.9259 113.293C22.6863 112.817 22.5564 112.261 21.9969 111.917C20.9257 112.851 20.7906 114.09 20.8042 115.379C20.8186 116.746 21.2601 118.077 21.1483 119.456C20.9438 121.981 19.8293 123.989 17.675 125.335C16.0346 126.361 14.9159 126.183 13.5176 124.837C12.861 124.206 12.1775 123.597 11.5664 122.924C10.8666 122.152 11.0461 121.65 12.0366 121.415C15.0383 120.706 16.2035 119.12 16.1223 116.053C16.0805 114.472 15.5637 112.929 15.95 111.303C16.3658 109.554 17.0818 108.017 18.4903 106.899C19.2255 106.315 19.2057 105.804 18.8186 105.042C16.7562 100.981 14.7362 96.8979 12.6999 92.8234C12.3746 92.1724 11.9281 91.5286 12.5242 90.8069C13.0827 90.1306 13.7933 90.2503 14.5328 90.4252C15.4114 90.6331 16.3023 90.7892 17.1469 90.9594C17.5279 90.5993 17.2749 90.308 17.1699 90.0334C16.6496 88.6725 16.119 87.3154 15.582 85.9609C14.3797 82.9284 14.7763 82.1719 17.9427 81.5796C24.5141 80.3503 31.0844 79.1141 37.6646 77.9336C38.8219 77.7261 39.4116 77.2851 39.4833 76.0362C39.5533 74.816 39.4142 73.568 39.8071 72.253ZM56.0473 118.08C53.2204 112.317 50.377 106.563 47.5799 100.786C46.9884 99.565 46.2331 98.7009 44.8393 98.3845C36.1036 96.4013 27.3816 94.3571 18.6424 92.3897C16.9417 92.0069 15.2586 91.4508 13.4058 91.3205C13.4341 91.6475 13.3998 91.8431 13.4709 91.9863C15.6158 96.3077 17.7756 100.622 19.9204 104.943C20.2738 105.655 20.7496 105.451 21.2866 105.228C23.3326 104.376 25.427 104.393 27.3852 105.339C31.9688 107.555 34.9386 111.089 35.6466 116.251C36.0232 118.997 36.1376 121.79 37.3073 124.366C38.5754 127.159 40.3066 129.356 43.5452 130.151C49.9512 131.723 56.3114 133.481 62.6929 135.154C63.1982 135.286 63.7128 135.593 64.3926 135.14C61.6453 129.517 58.8952 123.889 56.0473 118.08ZM90.3468 96.3804C88.799 96.7544 87.2663 97.2198 85.6995 97.4771C84.0897 97.7414 83.1519 98.5755 82.4904 100.054C77.991 110.11 73.4291 120.138 68.893 130.177C68.1151 131.899 67.3642 133.633 66.5938 135.377C67.1279 135.577 67.4622 135.382 67.7979 135.284C73.694 133.561 79.5749 131.783 85.4884 130.122C87.7152 129.497 88.9021 127.998 89.2796 125.921C89.872 122.661 90.3186 119.368 90.6718 116.072C91.3237 109.989 96.0696 105.85 101.821 105.512C103.74 105.399 105.639 105.3 107.534 105.598C108.264 105.712 108.696 105.611 109.046 104.887C111.188 100.461 113.377 96.0578 115.539 91.6419C115.689 91.3357 115.969 90.9892 115.622 90.6431C115.306 90.3275 114.953 90.5279 114.6 90.6121C106.59 92.5199 98.5787 94.4203 90.3468 96.3804ZM40.5364 80.0276C41.0363 85.1009 42.6866 89.7704 45.4665 94.0408C46.7012 95.9376 48.0554 97.5239 50.2915 98.5462C57.8413 101.998 65.3893 102.575 72.957 98.9788C85.1649 93.1782 90.9919 76.8995 80.7609 64.3964C76.1963 58.818 70.1537 55.6449 63.2798 53.891C62.8093 53.771 62.2815 53.778 61.7945 53.8388C60.1226 54.0476 58.4777 54.4083 56.8673 54.9041C49.4335 57.1928 44.161 61.7832 41.5463 69.2399C40.3417 72.6753 40.3946 76.2127 40.5364 80.0276ZM111.727 45.4544C109.695 41.8702 107.664 38.286 105.559 34.5731C102.375 37.2211 99.3784 39.7126 96.2489 42.315C103.88 55.2507 111.472 68.1215 119.002 80.8855C119.745 80.8363 119.981 80.4699 120.267 80.191C122.289 78.2211 124.262 76.1973 126.344 74.294C127.159 73.5492 127.148 72.9937 126.645 72.1018C123.223 66.0366 119.855 59.9411 116.45 53.866C116.173 53.3714 115.958 52.7921 115.422 52.5052C114.938 52.5842 114.708 52.9549 114.407 53.2183C112.353 55.0168 110.314 56.8318 108.248 58.6162C107.915 58.9039 107.495 59.5607 107.026 58.9362C106.676 58.4718 107.265 58.1397 107.589 57.8528C109.734 55.95 111.862 54.0256 114.058 52.1831C114.783 51.5756 114.973 51.1051 114.451 50.2608C113.519 48.7518 112.691 47.1784 111.727 45.4544ZM35.1395 79.46C29.2074 80.6005 23.2742 81.7353 17.344 82.8856C15.9085 83.164 15.7195 83.4887 16.2275 84.8308C16.8714 86.5315 17.6699 88.1816 18.1984 89.9156C18.5807 91.1696 19.3687 91.5981 20.5168 91.855C27.2568 93.3627 33.9822 94.9364 40.7263 96.4254C42.5237 96.8222 44.2964 97.4209 46.1508 97.4747C46.3314 96.9607 46.0057 96.7073 45.8023 96.4307C42.1878 91.516 40.0233 86.0479 39.5248 79.951C39.4427 78.9478 39.0751 78.5735 38.0395 78.8778C37.1716 79.1328 36.2598 79.2383 35.1395 79.46ZM95.8788 26.8436C97.903 28.1508 99.944 29.4329 101.942 30.779C102.626 31.2396 102.996 31.101 103.316 30.4155C104.41 28.0691 105.654 25.791 106.39 23.287C107.545 19.3509 107.371 15.569 105.165 12.0048C102.083 7.02342 95.6621 5.91279 91.7169 9.67203C87.9753 13.2372 87.9891 17.9695 89.0029 21.9369C89.1348 22.453 89.5753 22.7352 90.0002 23.0112C91.9067 24.2497 93.8103 25.4927 95.8788 26.8436ZM97.8321 29.3009C92.3533 25.7259 86.8746 22.151 81.3813 18.5665C78.675 21.488 76.0884 24.2802 73.5171 27.0561C73.8856 27.7195 74.4525 27.9626 74.9339 28.2752C80.7018 32.0206 86.4744 35.7588 92.2674 39.465C93.3354 40.1482 94.3902 41.4508 95.5175 41.2875C96.607 41.1296 97.5539 39.885 98.5317 39.0793C100.558 37.4096 102.563 35.7144 104.738 33.8945C102.369 32.3164 100.184 30.8614 97.8321 29.3009ZM120.301 33.0693C116.191 33.2401 113.036 35.4108 110.026 37.9253C109.286 38.5438 109.232 39.0504 109.706 39.8796C111.694 43.3509 113.621 46.8563 115.545 50.3637C115.876 50.9678 116.327 51.3089 116.965 51.53C121.127 52.9702 124.817 52.0847 127.902 49.0679C130.082 46.9364 131.51 44.2939 130.988 41.1138C130.177 36.1658 125.934 32.971 120.301 33.0693ZM103.368 80.9101C101.039 80.5033 98.7067 80.1156 96.3828 79.6835C94.4976 79.333 94.3054 79.4353 94.1707 81.2908C93.8426 85.8111 92.5236 90.0245 90.3179 93.9734C90.1318 94.3065 89.777 94.62 90.0202 95.088C90.4661 95.3191 90.9178 95.1879 91.3514 95.0858C97.5905 93.6176 103.823 92.121 110.069 90.6834C111.026 90.4632 111.555 89.989 111.904 89.1016C112.486 87.6209 113.169 86.1799 113.799 84.7176C114.404 83.3108 114.258 83.0002 112.706 82.6942C109.673 82.0962 106.632 81.5408 103.368 80.9101ZM78.0511 20.6014C78.7968 19.7663 79.6977 19.0606 80.2704 18.0334C80.1135 17.8623 80.0144 17.6999 79.8707 17.6054C75.2365 14.5574 70.595 11.5205 65.9643 8.46715C65.4346 8.11791 65.0737 8.27029 64.6484 8.64919C62.3067 10.7354 59.9306 12.7832 57.5992 14.8807C56.4344 15.9287 56.4627 16.3135 57.759 17.1578C62.3688 20.1604 67.0053 23.122 71.6102 26.132C72.3109 26.5901 72.6772 26.4238 73.1908 25.8434C74.7269 24.1078 76.3364 22.4371 78.0511 20.6014ZM110.727 122.291C111.438 120.818 112.176 119.357 112.854 117.869C114.532 114.187 112.755 108.818 109.109 107.151C105.962 105.712 102.662 106.337 99.411 107.017C100.507 107.488 101.625 107.803 102.726 108.171C107.777 109.862 109.829 114.813 107.429 119.508C107.056 120.237 106.631 120.938 106.245 121.66C104.694 124.552 105 128.294 107.064 130.612C107.905 131.556 108.867 132.486 110.352 131.78C110.432 131.381 109.552 131.299 110.009 130.933C110.751 130.338 111.648 130.168 112.59 130.377C112.614 131.253 111.734 130.973 111.397 131.597C112.453 131.255 113.354 130.963 114.465 130.604C111.392 128.553 109.709 126.114 110.727 122.291ZM87.3471 91.7128C87.5854 91.8466 87.8348 91.964 88.0593 92.1178C88.4366 92.3763 89.2152 92.5146 88.8213 93.1409C88.4546 93.7238 87.9228 93.1586 87.5234 92.934C86.4923 92.354 85.4882 91.726 84.4699 91.1229C84.081 90.8926 83.6626 90.5615 83.2924 91.124C81.8894 93.2555 80.2574 95.1934 78.2579 96.9241C79.1731 98.046 80.2202 98.7925 81.5015 99.7465C82.3157 96.8512 84.6932 96.6397 86.9238 96.1714C87.5228 96.0456 88.0261 95.7592 88.3675 95.2244C90.8781 91.2921 92.4611 87.0164 93.1115 82.3974C93.213 81.6762 93.0284 81.2127 92.1646 81.0702C90.8658 80.856 89.5749 80.5457 88.3135 80.167C87.3156 79.8675 86.9827 80.2751 86.8788 81.1678C86.662 83.0299 86.1736 84.8239 85.5494 86.5909C85.1888 87.6119 84.2234 88.6258 84.5186 89.6129C84.8375 90.6792 86.3032 90.897 87.3471 91.7128ZM50.4115 101.329C49.7662 100.77 49.1208 100.211 48.4624 99.64C48.3862 99.7713 48.3369 99.8216 48.3473 99.8431C51.1211 105.583 53.8995 111.32 56.6756 117.059C56.8679 117.457 57.1483 117.793 57.6082 117.73C59.8402 117.423 62.0672 117.08 64.4985 116.719C63.1989 113.401 61.9921 110.315 60.7799 107.231C60.5795 106.722 60.1626 106.466 59.6537 106.326C56.2548 105.389 53.3085 103.605 50.4115 101.329ZM93.8398 126.567C93.6143 126.929 93.0891 127.087 93.0973 127.734C94.9254 127.404 96.6339 126.813 98.3447 126.242C98.7523 126.106 98.9179 125.675 99.0989 125.307C101.224 120.978 103.346 116.647 105.476 112.32C105.711 111.842 105.868 111.404 105.412 110.956C104.066 109.634 102.385 108.5 100.606 108.743C98.875 108.98 97.7763 110.6 97.2878 112.392C97.2639 112.48 97.2287 112.565 97.2069 112.653C96.6481 114.905 96.2488 117.178 96.0316 119.495C95.8036 121.926 95.7105 124.431 93.8398 126.567ZM55.5475 103.556C56.711 104.073 57.848 104.663 59.0426 105.094C63.1682 106.581 67.4176 106.704 71.6954 105.992C74.3581 105.549 76.8888 104.65 79.2607 103.337C80.9642 102.394 81.1776 101.039 79.7965 99.8351C78.9775 99.1212 78.139 98.4298 77.2292 97.6607C75.1252 99.1861 72.7883 100.28 70.3388 101.145C69.5872 101.411 69.3829 101.888 69.7411 102.639C70.0933 103.376 70.3856 104.144 70.6802 104.907C70.8022 105.223 70.8056 105.56 70.402 105.694C70.0074 105.824 69.8112 105.558 69.6831 105.244C69.5628 104.95 69.479 104.641 69.3662 104.343C68.4335 101.88 68.4328 101.883 65.8803 102.137C65.5184 102.173 65.1356 102.113 64.7933 102.209C63.8578 102.47 62.8038 102.152 62.0102 102.668C61.7392 103.678 63.0252 104.304 62.3809 105.381C61.48 104.986 61.2548 104.179 60.9854 103.444C60.7652 102.843 60.4925 102.364 59.796 102.299C56.7524 102.015 53.8264 101.244 50.9368 100.188C52.2344 101.544 53.7588 102.56 55.5475 103.556ZM70.8351 107.124C70.0582 107.117 69.7236 107.625 69.4893 108.264C69.145 109.203 68.7871 110.138 68.4403 111.076C67.7374 112.978 67.0381 114.881 66.2861 116.923C68.4385 117.523 70.3986 118.076 72.3638 118.611C72.7779 118.724 73.0429 118.509 73.2167 118.123C75.1919 113.742 77.1741 109.364 79.3018 104.66C76.3757 105.716 73.8394 106.851 70.8351 107.124ZM14.3734 124.239C15.3735 125.288 16.4327 125.04 17.4282 124.291C19.8269 122.487 20.6627 120.046 19.9542 117.175C19.2149 114.178 20.1346 111.815 22.3561 109.839C24.3013 108.11 26.5814 107.485 29.1253 107.931C29.1529 107.786 29.1829 107.728 29.1655 107.702C29.0896 107.591 29.0165 107.468 28.9128 107.387C26.4112 105.434 23.7154 105.113 20.868 106.524C18.2137 107.839 16.8453 109.986 16.9319 112.984C16.9581 113.891 17.0121 114.803 17.1346 115.701C17.5224 118.547 16.2835 120.846 13.7118 122C13.363 122.157 12.874 122.156 12.7836 122.696C13.1034 123.327 13.7519 123.632 14.3734 124.239ZM93.1841 76.5644C93.0682 74.1337 92.5322 71.8017 91.5111 69.5901C91.3295 69.1969 91.2138 68.5825 90.6569 68.6575C88.88 68.8968 87.1151 69.226 85.2126 69.5427C86.0094 71.892 86.6683 74.0536 86.9495 76.3136C87.2699 78.8885 87.3023 78.8845 89.824 79.5208C93.2678 80.3898 93.2678 80.3898 93.1841 76.5644ZM30.5733 126.061C31.0201 126.483 31.4466 126.952 32.3334 126.822C31.5891 125.565 30.8985 124.449 30.4423 123.208C29.5664 120.826 29.3612 118.337 29.1806 115.841C29.0201 113.622 28.4926 111.538 27.118 109.727C26.7217 109.205 26.2837 108.933 25.605 109.085C23.3497 109.592 22.7715 110.747 23.7815 112.77C23.8221 112.852 23.8486 112.94 23.8898 113.021C26.0754 117.318 28.2619 121.615 30.5733 126.061ZM85.5782 61.4988C82.9155 58.9036 81.4582 58.7006 78.9166 60.612C78.9934 60.7572 79.0456 60.9373 79.1599 61.0593C81.0914 63.1214 82.9441 65.2414 84.2562 67.7743C84.4278 68.1055 84.6865 68.4407 85.0869 68.3909C86.8052 68.1774 88.5179 67.9189 90.3967 67.6536C89.0748 65.1983 87.4279 63.3918 85.5782 61.4988ZM74.6595 54.6383C72.1127 53.834 69.544 53.2134 66.5239 53.6734C70.4715 55.1669 73.9384 56.9225 77.0537 59.319C77.3501 59.547 77.6841 59.705 78.0681 59.569C79.2092 59.1651 80.3464 58.7504 81.755 58.2426C79.5307 56.5623 77.3171 55.415 74.6595 54.6383ZM65.781 107.353C64.526 107.417 63.3017 106.907 61.8645 107.117C63.0545 109.962 63.9078 112.841 65.4771 115.842C66.5883 112.851 67.7417 110.289 68.5062 107.552C67.5737 107.25 66.7974 107.421 65.781 107.353Z" fill="#5831C8"/>
<path d="M24.0454 59.1208C27.3581 60.0358 30.5966 60.8191 33.7547 62.1299C33.2643 63.0203 32.7364 62.7937 32.2361 62.6188C25.9566 60.4232 19.5176 58.9178 12.9113 58.1278C12.4804 58.0763 11.969 58.0982 11.8147 57.1902C16.0034 57.2079 19.949 58.2977 24.0454 59.1208Z" fill="#5831C8"/>
<path d="M37.0657 36.7347C37.3271 36.3816 37.5766 36.1659 37.9209 36.3814C38.1373 36.5168 38.1331 36.7807 38.048 36.9995C36.5837 40.7655 38.2351 44.1181 39.4972 47.4955C39.9702 48.7612 40.7179 49.9252 41.3514 51.1297C41.5599 51.526 41.8584 51.8956 41.5719 52.36C40.9144 52.6045 40.7259 52.0951 40.5176 51.7314C38.4942 48.1969 36.9535 44.4851 36.4603 40.4022C36.3102 39.16 36.4626 37.9578 37.0657 36.7347Z" fill="#5831C8"/>
<path d="M30.0553 49.1187C29.9521 48.3816 30.4078 48.2307 30.7386 48.5827C31.8656 49.7821 32.9321 51.0474 33.7725 52.5656C32.6956 52.7354 32.6956 52.7354 30.0553 49.1187Z" fill="#5831C8"/>
<path d="M52.6467 118.065C51.0329 114.878 49.2301 111.891 48.0164 108.629C49.2438 108.987 58.181 125.914 57.889 127.296C55.8083 124.456 54.3501 121.247 52.6467 118.065Z" fill="#5831C8"/>
<path d="M46.9069 118.6C46.6363 117.951 46.0976 117.481 46.3097 116.768C47.4297 117.02 48.9386 119.659 48.7024 120.977C47.6213 120.563 47.5093 119.448 46.9069 118.6Z" fill="#5831C8"/>
<path d="M69.7323 95.5726C58.2435 100.852 45.9872 94.172 43.9279 81.6213C43.0107 76.0315 43.6377 70.7 46.792 65.9029C50.0278 60.9819 54.7088 58.4636 60.5861 57.9634C71.5956 57.0262 79.3066 65.9643 80.663 74.7961C81.9677 83.2907 77.9422 91.7797 69.7323 95.5726Z" fill="#5831C8"/>
<path d="M113.149 63.492C112.256 64.173 111.644 65.1214 110.466 65.3855C110.584 64.1491 116.708 58.6293 118.453 58.3509C116.9 60.5571 114.852 61.7921 113.149 63.492Z" fill="#5831C8"/>
<path d="M82.8205 26.8779C84.2925 25.4538 85.4221 23.7922 87.2185 22.6947C87.3407 24.0326 83.2703 28.2686 82.1356 28.1885C81.9019 27.5555 82.4945 27.3345 82.8205 26.8779Z" fill="#5831C8"/>
<path d="M107.616 109.322C107.01 108.69 106.119 108.466 105.835 107.596C106.966 107.318 108.907 108.775 110.146 110.747C111.296 112.578 111.598 114.797 110.567 116.029C110.41 113.299 109.657 111.042 107.616 109.322Z" fill="#5831C8"/>
<path d="M22.4007 107.519C23.1909 107.582 23.3146 107.9 22.8056 108.357C22.5818 108.559 22.236 108.626 21.9438 108.749C19.3782 109.834 18.7034 110.985 19.0707 113.745C19.2691 115.236 19.1622 116.651 18.4761 118.018C17.7298 117.712 17.821 117.283 17.8847 116.886C18.0811 115.665 18.0128 114.44 17.9815 113.213C17.9058 110.249 18.6776 109.046 21.4019 107.861C21.6928 107.734 21.9988 107.642 22.4007 107.519Z" fill="#5831C8"/>
</svg>
