<svg xmlns="http://www.w3.org/2000/svg" enable-background="new 0 0 1024 1024" viewBox="0 0 1024 1024" id="SoftwareDeveloper"><path d="M411.77 541.1l-83.26-83.26c-3.9-3.91-3.9-10.24 0-14.14l83.26-83.26 14.14 14.14-76.19 76.19 76.19 76.19L411.77 541.1zM612.23 541.1l-14.14-14.14 76.19-76.19-76.19-76.19 14.14-14.14 83.26 83.26c1.88 1.88 2.93 4.42 2.93 7.07s-1.05 5.2-2.93 7.07L612.23 541.1z" fill="#595bd4" class="color000000 svgShape"></path><rect width="184.42" height="20" x="419.79" y="440.77" transform="rotate(-70.427 512.028 450.78)" fill="#595bd4" class="color000000 svgShape"></rect><path d="M830.2,779.33H193.8c-32.82,0-59.52-26.7-59.52-59.52v-440.2c0-32.82,26.7-59.52,59.52-59.52h636.4
			c32.82,0,59.52,26.7,59.52,59.52v440.2C889.72,752.63,863.02,779.33,830.2,779.33z M193.8,240.09
			c-21.79,0-39.52,17.73-39.52,39.52v440.2c0,21.79,17.73,39.52,39.52,39.52h636.4c21.79,0,39.52-17.73,39.52-39.52v-440.2
			c0-21.79-17.73-39.52-39.52-39.52H193.8z" fill="#595bd4" class="color000000 svgShape"></path><path d="M586.68,890.72H437.31c-5.52,0-10-4.48-10-10V769.33c0-5.52,4.48-10,10-10h149.37c5.52,0,10,4.48,10,10v111.39
			C596.68,886.24,592.2,890.72,586.68,890.72z M447.31,870.72h129.37v-91.39H447.31V870.72z" fill="#595bd4" class="color000000 svgShape"></path><rect width="735.44" height="20" x="144.28" y="653.17" fill="#595bd4" class="color000000 svgShape"></rect><rect width="295.82" height="20" x="364.09" y="870.72" fill="#595bd4" class="color000000 svgShape"></rect></svg>