<svg width="34" height="34" viewBox="0 0 34 34" fill="none" xmlns="http://www.w3.org/2000/svg">
<g clip-path="url(#clip0_1186_931)">
<path d="M7.96875 23.9062C6.79681 23.9062 5.84375 24.8593 5.84375 26.0312C5.84375 27.2032 6.79681 28.1562 7.96875 28.1562C9.14069 28.1562 10.0938 27.2032 10.0938 26.0312C10.0938 24.8593 9.14069 23.9062 7.96875 23.9062ZM7.96875 27.0938C7.38278 27.0938 6.90625 26.6172 6.90625 26.0312C6.90625 25.4453 7.38278 24.9688 7.96875 24.9688C8.55472 24.9688 9.03125 25.4453 9.03125 26.0312C9.03125 26.6172 8.55472 27.0938 7.96875 27.0938Z" />
<path d="M7.96875 21.7812C5.62541 21.7812 3.71875 23.6879 3.71875 26.0312C3.71875 28.3746 5.62541 30.2812 7.96875 30.2812C10.3121 30.2812 12.2188 28.3746 12.2188 26.0312C12.2188 23.6879 10.3121 21.7812 7.96875 21.7812ZM7.96875 29.2188C6.21084 29.2188 4.78125 27.7892 4.78125 26.0312C4.78125 24.2733 6.21084 22.8438 7.96875 22.8438C9.72666 22.8438 11.1562 24.2733 11.1562 26.0312C11.1562 27.7892 9.72666 29.2188 7.96875 29.2188Z" />
<path d="M33.7891 24.403L32.4062 23.3888V14.6689L30.7679 15.215C30.3875 15.342 29.9917 15.4062 29.5917 15.4062C28.8001 15.4062 28.1562 14.7624 28.1562 13.9713V12.5912C28.1562 11.8001 28.8001 11.1562 29.5912 11.1562C29.9923 11.1562 30.388 11.2205 30.7684 11.347L32.4062 11.8942V6.375C32.4062 5.49631 31.6912 4.78125 30.8125 4.78125H26.7686L26.9493 4.23884C27.0449 3.95144 27.0938 3.65181 27.0938 3.34741C27.0938 1.79456 25.8304 0.53125 24.2771 0.53125H23.5354C21.9821 0.53125 20.7188 1.79509 20.7188 3.34847C20.7188 3.65181 20.7676 3.95197 20.8632 4.23884L21.0439 4.78125H18.0625C17.6529 4.78125 17.2826 4.94116 17 5.19562C16.7174 4.94116 16.3471 4.78125 15.9375 4.78125H11.8936L12.0743 4.23884C12.1699 3.95144 12.2188 3.65181 12.2188 3.34741C12.2188 1.79456 10.9554 0.53125 9.40206 0.53125H8.66044C7.10706 0.53125 5.84375 1.79509 5.84375 3.34847C5.84375 3.65181 5.89263 3.95197 5.98825 4.23884L6.16888 4.78125H3.1875C2.30881 4.78125 1.59375 5.49631 1.59375 6.375V21.8875L1.207 22.2743L1.93109 22.9994C2.16378 23.2321 2.07825 23.5009 2.04691 23.5785C2.01503 23.655 1.88541 23.9062 1.55603 23.9062H0.53125V28.1562H1.55603C1.88541 28.1562 2.01503 28.4075 2.04744 28.484C2.07931 28.5616 2.16484 28.8299 1.93109 29.0631L1.20753 29.7882L4.21175 32.7925L4.93691 32.0684C5.17066 31.8352 5.43841 31.9217 5.51597 31.9526C5.59247 31.985 5.84375 32.1146 5.84375 32.444V33.4688H10.0938V32.444C10.0938 32.1146 10.345 31.985 10.4215 31.9526C10.4986 31.9212 10.7668 31.8336 11.0006 32.0689L11.7257 32.7925L14.73 29.7882L14.0059 29.0631C13.7732 28.8304 13.8587 28.5616 13.8901 28.484C13.9225 28.4075 14.0521 28.1562 14.3815 28.1562H14.875H15.4062H24.4375V32.5072L33.7891 24.403ZM18.0625 5.84375H22.5186L21.871 3.90256C21.8115 3.72353 21.7812 3.53706 21.7812 3.34847C21.7812 2.38053 22.568 1.59375 23.5354 1.59375H24.2771C25.2445 1.59375 26.0312 2.38053 26.0312 3.34794C26.0312 3.53706 26.001 3.72353 25.9415 3.90256L25.2939 5.84375H30.8125C31.1057 5.84375 31.3438 6.08175 31.3438 6.375V10.4194L31.1047 10.3397C30.6159 10.1761 30.107 10.0938 29.5912 10.0938C28.2142 10.0938 27.0938 11.2142 27.0938 12.5912V13.9713C27.0938 15.3483 28.2142 16.4688 29.5917 16.4688C30.1065 16.4688 30.6149 16.3864 31.1031 16.2238L31.3438 16.1436V22.61L24.4375 17.5456V21.7812H17.5312V16.1436L17.7708 16.2233C18.2596 16.3869 18.7685 16.4693 19.2838 16.4693C20.6614 16.4688 21.7812 15.3483 21.7812 13.9713V12.5917C21.7812 11.9244 21.5215 11.2965 21.0497 10.8253C20.578 10.3541 19.9511 10.0943 19.2844 10.0943C19.2844 10.0943 19.2838 10.0943 19.2833 10.0943C18.7685 10.0943 18.2601 10.1766 17.7714 10.3397L17.5312 10.4194V6.375C17.5312 6.08175 17.7693 5.84375 18.0625 5.84375ZM2.65625 6.375C2.65625 6.08175 2.89425 5.84375 3.1875 5.84375H7.64362L6.99603 3.90256C6.93653 3.72353 6.90625 3.53706 6.90625 3.34847C6.90625 2.38053 7.69303 1.59375 8.66044 1.59375H9.40206C10.3695 1.59375 11.1562 2.38053 11.1562 3.34794C11.1562 3.53706 11.126 3.72353 11.0665 3.90256L10.4189 5.84375H15.9375C16.2308 5.84375 16.4688 6.08175 16.4688 6.375V11.8942L18.1071 11.348C18.4875 11.2216 18.8833 11.1573 19.2833 11.1573C19.2838 11.1573 19.2838 11.1573 19.2844 11.1573C19.6674 11.1573 20.0276 11.3061 20.2985 11.5775C20.5695 11.8485 20.7188 12.2087 20.7188 12.5922V13.9719C20.7188 14.7629 20.0749 15.4068 19.2838 15.4073C18.8833 15.4073 18.4875 15.343 18.1071 15.2161L16.4688 14.6699V21.7812H14.2375L11.7257 19.2695L11.0006 19.9936C10.7674 20.2268 10.4986 20.1397 10.4215 20.1094C10.345 20.0775 10.0938 19.9479 10.0938 19.6185V18.5938H5.84375V19.6185C5.84375 19.9479 5.59247 20.0775 5.51597 20.1099C5.43841 20.1408 5.17119 20.2284 4.93691 19.9936L4.21175 19.27L2.65625 20.825V6.375ZM14.3438 27.0943C13.7031 27.1081 13.1553 27.4821 12.9088 28.0782C12.6623 28.6732 12.7856 29.325 13.2287 29.7877L11.7252 31.2912C11.262 30.8476 10.6112 30.7254 10.0157 30.9713C9.42013 31.2173 9.04559 31.7656 9.03178 32.4062H6.90572C6.89191 31.7656 6.51791 31.2178 5.92184 30.9713C5.32631 30.7254 4.675 30.8486 4.21228 31.2912L2.70937 29.7872C3.15244 29.3245 3.27516 28.6726 3.02919 28.0776C2.78216 27.4821 2.23444 27.1081 1.59375 27.0943V24.9682C2.23444 24.9544 2.78216 24.5804 3.02866 23.9843C3.27516 23.3893 3.15191 22.7375 2.70884 22.2748L4.21228 20.7713C4.67553 21.2144 5.32578 21.3371 5.92184 21.0912C6.51737 20.8447 6.89137 20.2969 6.90572 19.6562H9.03178C9.04559 20.2969 9.41959 20.8447 10.0157 21.0912C10.6123 21.3382 11.2636 21.2139 11.7252 20.7713L13.2287 22.2748C12.7856 22.7375 12.6629 23.3893 12.9088 23.9843C13.1553 24.5799 13.7031 24.9539 14.3438 24.9682V27.0943ZM15.4062 27.0938V23.9062H14.3815C14.0521 23.9062 13.9225 23.655 13.8901 23.5785C13.8582 23.5009 13.7727 23.2326 14.0064 22.9994L14.1621 22.8438H25.5V19.6424L32.0859 24.4726L25.5 30.1803V27.0938H15.4062Z" />
<path d="M6.90625 12.75C6.90625 11.8713 6.19119 11.1562 5.3125 11.1562C4.43381 11.1562 3.71875 11.8713 3.71875 12.75C3.71875 13.6287 4.43381 14.3438 5.3125 14.3438C6.19119 14.3438 6.90625 13.6287 6.90625 12.75ZM4.78125 12.75C4.78125 12.4568 5.01925 12.2188 5.3125 12.2188C5.60575 12.2188 5.84375 12.4568 5.84375 12.75C5.84375 13.0432 5.60575 13.2812 5.3125 13.2812C5.01925 13.2812 4.78125 13.0432 4.78125 12.75Z" />
<path d="M9.5625 14.3438C10.4412 14.3438 11.1562 13.6287 11.1562 12.75C11.1562 11.8713 10.4412 11.1562 9.5625 11.1562C8.68381 11.1562 7.96875 11.8713 7.96875 12.75C7.96875 13.6287 8.68381 14.3438 9.5625 14.3438ZM9.5625 12.2188C9.85575 12.2188 10.0938 12.4568 10.0938 12.75C10.0938 13.0432 9.85575 13.2812 9.5625 13.2812C9.26925 13.2812 9.03125 13.0432 9.03125 12.75C9.03125 12.4568 9.26925 12.2188 9.5625 12.2188Z" />
<path d="M13.8125 14.3438C14.6912 14.3438 15.4062 13.6287 15.4062 12.75C15.4062 11.8713 14.6912 11.1562 13.8125 11.1562C12.9338 11.1562 12.2188 11.8713 12.2188 12.75C12.2188 13.6287 12.9338 14.3438 13.8125 14.3438ZM13.8125 12.2188C14.1057 12.2188 14.3438 12.4568 14.3438 12.75C14.3438 13.0432 14.1057 13.2812 13.8125 13.2812C13.5193 13.2812 13.2812 13.0432 13.2812 12.75C13.2812 12.4568 13.5193 12.2188 13.8125 12.2188Z" />
</g>
<defs>
<clipPath id="clip0_1186_931">
<rect width="34" height="34" fill="white"/>
</clipPath>
</defs>
</svg>
