<svg width="40" height="40" viewBox="0 0 40 40" fill="none" xmlns="http://www.w3.org/2000/svg">
<circle cx="20" cy="20" r="20" fill="url(#paint0_linear_415_7236)"/>
<path d="M26.7496 26.75L22.8519 22.8523M22.8519 22.8523C23.9068 21.7974 24.4994 20.3666 24.4994 18.8747C24.4994 17.3828 23.9068 15.952 22.8519 14.897C21.7969 13.8421 20.3661 13.2495 18.8742 13.2495C17.3823 13.2495 15.9515 13.8421 14.8966 14.897C13.8417 15.952 13.249 17.3828 13.249 18.8747C13.249 20.3666 13.8417 21.7974 14.8966 22.8523C15.9515 23.9072 17.3823 24.4999 18.8742 24.4999C20.3661 24.4999 21.7969 23.9072 22.8519 22.8523Z" stroke="white" stroke-width="1.125" stroke-linecap="round" stroke-linejoin="round"/>
<defs>
<linearGradient id="paint0_linear_415_7236" x1="-19.3939" y1="4.54545" x2="53.0426" y2="32.9991" gradientUnits="userSpaceOnUse">
<stop stop-color="#3B4EF4"/>
<stop offset="0.5" stop-color="#5868F8"/>
<stop offset="1" stop-color="#978FFD"/>
</linearGradient>
</defs>
</svg>
