<svg xmlns="http://www.w3.org/2000/svg" viewBox="0 0 96 96" id="business"><linearGradient id="a" x1="992.081" x2="1016.601" y1="-176.809" y2="-203.452" gradientTransform="matrix(3.0757 0 0 -3.0757 -3039.805 -535.424)" gradientUnits="userSpaceOnUse"><stop offset="0" stop-color="#6fc6a8"></stop><stop offset="1" stop-color="#41c1f0"></stop></linearGradient><path fill="url(#a)" d="M20.288 0h55.424C86.917 0 96 9.083 96 20.288v55.424C96 86.917 86.917 96 75.712 96H20.288C9.083 96 0 86.917 0 75.712V20.288C0 9.083 9.083 0 20.288 0z"></path><path fill="#f1f2f2" d="M55.729 53.599a.496.496 0 0 0 .5 0l11.5-6.639a.499.499 0 0 0 .25-.433V33.249a.499.499 0 0 0-.25-.433l-11.5-6.64a.502.502 0 0 0-.5 0l-11.5 6.64a.499.499 0 0 0-.25.433v13.279c0 .179.095.344.25.433l11.5 6.638zm.25-26.413 10.447 6.032-5.224 3.016a.5.5 0 1 0 .501.866l5.277-3.047v12.185L56.48 52.3v-3.915a.5.5 0 0 0-1 0V52.3l-10.5-6.062V34.176l5.276 3.046a.504.504 0 0 0 .684-.183.5.5 0 0 0-.183-.683l-5.329-3.077 10.551-6.093z"></path><path fill="#f1f2f2" d="M58.703 36.289a.5.5 0 0 0 0-1h-2.224v-1.687a.5.5 0 0 0-1 0v1.687h-.299c-1.343 0-2.437 1.085-2.437 2.418s1.093 2.418 2.437 2.418h.299v2.825h-2.236a.5.5 0 0 0 0 1h2.236v2.247a.5.5 0 0 0 1 0V43.95h.312a2.416 2.416 0 0 0 2.412-2.413 2.41 2.41 0 0 0-2.314-2.403c-.017-.002-.032-.01-.049-.01h-.361v-2.836h2.224zm-1.912 3.836a1.414 1.414 0 0 1 0 2.826h-.312v-2.825h.312zm-1.312-1h-.299a1.43 1.43 0 0 1-1.437-1.418 1.43 1.43 0 0 1 1.437-1.418h.299v2.836zm.5-6.96c.827 0 1.5-.673 1.5-1.5s-.673-1.5-1.5-1.5-1.5.673-1.5 1.5.673 1.5 1.5 1.5zm0-2a.5.5 0 1 1 0 1 .5.5 0 0 1 0-1zM48.23 43.366c-.347-.2-.75-.253-1.139-.15a1.501 1.501 0 0 0 .776 2.897c.387-.104.71-.352.911-.699.2-.347.253-.751.149-1.138a1.482 1.482 0 0 0-.697-.91zm-.317 1.548a.498.498 0 0 1-.682.183h-.001a.502.502 0 0 1 .12-.916.51.51 0 0 1 .38.05c.238.139.32.445.183.683zm16.178 1.199a1.49 1.49 0 0 0 1.138-.15c.347-.2.595-.524.698-.911a1.493 1.493 0 0 0-.149-1.139 1.489 1.489 0 0 0-.911-.698 1.502 1.502 0 0 0-1.687 2.199c.201.347.525.596.911.699zm.139-1.881a.498.498 0 0 1 .683.182.5.5 0 0 1-.183.683h-.001a.502.502 0 0 1-.682-.182.5.5 0 0 1 .183-.683z"></path><circle cx="47.5" cy="41.665" r=".5" fill="#f1f2f2"></circle><circle cx="47.5" cy="39.665" r=".5" fill="#f1f2f2"></circle><circle cx="47.5" cy="37.665" r=".5" fill="#f1f2f2"></circle><circle cx="64.5" cy="41.665" r=".5" fill="#f1f2f2"></circle><circle cx="64.5" cy="39.665" r=".5" fill="#f1f2f2"></circle><circle cx="64.5" cy="37.665" r=".5" fill="#f1f2f2"></circle><circle cx="49.765" cy="33.797" r=".5" fill="#f1f2f2" transform="rotate(-29.939 49.762 33.795)"></circle><circle cx="51.498" cy="32.799" r=".5" fill="#f1f2f2" transform="rotate(-29.942 51.503 32.801)"></circle><circle cx="53.231" cy="31.801" r=".5" fill="#f1f2f2" transform="rotate(-29.942 53.23 31.801)"></circle><circle cx="58.249" cy="48.528" r=".5" fill="#f1f2f2" transform="rotate(-29.939 58.246 48.526)"></circle><circle cx="59.982" cy="47.53" r=".5" fill="#f1f2f2" transform="rotate(-29.939 59.98 47.528)"></circle><circle cx="61.715" cy="46.532" r=".5" fill="#f1f2f2" transform="rotate(-29.939 61.712 46.53)"></circle><circle cx="62.205" cy="33.797" r=".5" fill="#f1f2f2" transform="rotate(-60.058 62.209 33.798)"></circle><circle cx="60.472" cy="32.799" r=".5" fill="#f1f2f2" transform="rotate(-60.058 60.476 32.8)"></circle><circle cx="58.739" cy="31.801" r=".5" fill="#f1f2f2" transform="rotate(-60.058 58.742 31.802)"></circle><circle cx="53.72" cy="48.528" r=".5" fill="#f1f2f2" transform="rotate(-60.061 53.718 48.526)"></circle><circle cx="51.987" cy="47.53" r=".5" fill="#f1f2f2" transform="rotate(-60.058 51.99 47.532)"></circle><circle cx="50.254" cy="46.532" r=".5" fill="#f1f2f2" transform="rotate(-60.061 50.252 46.53)"></circle><path fill="#f1f2f2" d="M72.813 57.738c-.847-1.937-2.601-1.94-3.461-1.649l-9.496 4.447c.085-.278.144-.567.144-.871 0-1.654-1.346-3-3-3h-8.296a6.967 6.967 0 0 0-6.704-5h-9v-1.5a.5.5 0 0 0-.5-.5h-9a.5.5 0 0 0-.5.5v17a.5.5 0 0 0 .5.5h9a.5.5 0 0 0 .5-.5v-1.639l16.494 5.58a6.307 6.307 0 0 0 1.859.277c1.271 0 2.516-.375 3.476-1.077L71.238 61.4l.326-.223c1.2-.6 1.753-2.099 1.249-3.439zM32 66.665h-8v-16h8v16zm39.063-6.352-16.766 9.148c-1.236.899-2.963 1.164-4.495.692L33 64.47V52.665h9a5.973 5.973 0 0 1 5.833 4.615.499.499 0 0 0 .486.385H57c1.103 0 2 .897 2 2s-.897 2-2 2h-9.528a.5.5 0 0 0 0 1H57c.45 0 .872-.106 1.256-.284.014-.005.029-.004.043-.01l11.423-5.354c.059-.021 1.479-.471 2.165 1.098.311.827-.034 1.8-.824 2.198zM26.479 46.665c.827 0 1.5-.673 1.5-1.5 0-.336-.115-.644-.303-.894l2.438-3.656c.118.03.239.05.365.05.29 0 .558-.086.788-.229l2.801 2.241a1.496 1.496 0 0 0-.089.488c0 .827.673 1.5 1.5 1.5s1.5-.673 1.5-1.5c0-.373-.142-.71-.368-.973l2.602-4.554c.087.016.175.027.266.027.827 0 1.5-.673 1.5-1.5s-.673-1.5-1.5-1.5-1.5.673-1.5 1.5c0 .373.142.711.368.973l-2.602 4.554a1.463 1.463 0 0 0-.266-.027c-.29 0-.558.086-.788.229l-2.801-2.241c.054-.154.089-.317.089-.489 0-.827-.673-1.5-1.5-1.5s-1.5.673-1.5 1.5c0 .336.115.644.303.894l-2.438 3.656a1.476 1.476 0 0 0-.366-.05c-.827 0-1.5.673-1.5 1.5s.674 1.501 1.501 1.501zm13-11a.5.5 0 1 1 0 1 .5.5 0 0 1 0-1zm-4 7a.5.5 0 1 1 0 1 .5.5 0 0 1 0-1zm-5-4a.5.5 0 1 1 0 1 .5.5 0 0 1 0-1zm-4 6a.5.5 0 1 1 0 1 .5.5 0 0 1 0-1zm42.928-13.422a.498.498 0 0 0 .708 0l.387-.387.387.387a.498.498 0 0 0 .708 0 .5.5 0 0 0 0-.707l-.387-.387.387-.387a.5.5 0 0 0-.707-.707l-.39.387-.387-.387a.5.5 0 0 0-.707.707l.387.387-.387.387a.5.5 0 0 0 .001.707zm-4.974-4.578h.547v.547a.5.5 0 0 0 1 0v-.547h.547a.5.5 0 0 0 0-1h-.547v-.547a.5.5 0 0 0-1 0v.547h-.547a.5.5 0 0 0 0 1zm-16.955 1.002a.502.502 0 0 0 .354-.146l2-2a.5.5 0 0 0-.707-.707l-2 2a.5.5 0 0 0 .353.853zm-7.045 2.998h2.094a.5.5 0 0 0 0-1h-2.094a.5.5 0 0 0 0 1z"></path><circle cx="49.373" cy="27.029" r=".5" fill="#f1f2f2" transform="rotate(-45.001 49.373 27.03)"></circle><circle cx="47.614" cy="25.27" r=".5" fill="#f1f2f2" transform="rotate(-45.001 47.617 25.27)"></circle></svg>