<svg width="30" height="30" viewBox="0 0 30 30" fill="none" xmlns="http://www.w3.org/2000/svg">
<path fill-rule="evenodd" clip-rule="evenodd" d="M16.7437 1.65496C16.2011 1.38822 15.6045 1.24951 14.9999 1.24951C14.3953 1.24951 13.7988 1.38822 13.2562 1.65496L2.31618 7.04246C0.894932 7.74246 0.894932 9.75871 2.31618 10.4587L13.2562 15.845C13.7987 16.1118 14.3953 16.2505 14.9999 16.2505C15.6046 16.2505 16.2011 16.1118 16.7437 15.845L27.6837 10.4575C29.1049 9.75746 29.1049 7.74121 27.6837 7.04121L16.7437 1.65496Z" fill="url(#paint0_linear_1018_1377)"/>
<path fill-rule="evenodd" clip-rule="evenodd" d="M2.37868 13.2626C2.46461 13.2203 2.55913 13.1982 2.65493 13.1982C2.75073 13.1982 2.84525 13.2203 2.93118 13.2626L13.2562 18.3464C13.7988 18.6131 14.3953 18.7518 14.9999 18.7518C15.6045 18.7518 16.2011 18.6131 16.7437 18.3464L27.0687 13.2626C27.1546 13.2203 27.2491 13.1982 27.3449 13.1982C27.4407 13.1982 27.5352 13.2203 27.6212 13.2626L27.6837 13.2926C29.1049 13.9926 29.1049 16.0101 27.6837 16.7089L16.7437 22.0964C16.2011 22.3631 15.6045 22.5018 14.9999 22.5018C14.3953 22.5018 13.7988 22.3631 13.2562 22.0964L2.31618 16.7089C0.894932 16.0089 0.894932 13.9926 2.31618 13.2926L2.37868 13.2626ZM2.93118 19.5126C2.84525 19.4703 2.75073 19.4482 2.65493 19.4482C2.55913 19.4482 2.46461 19.4703 2.37868 19.5126L2.31618 19.5439C0.894932 20.2439 0.894932 22.2601 2.31618 22.9601L13.2562 28.3464C13.7988 28.6131 14.3953 28.7518 14.9999 28.7518C15.6045 28.7518 16.2011 28.6131 16.7437 28.3464L27.6837 22.9589C29.1049 22.2589 29.1049 20.2426 27.6837 19.5426L27.6212 19.5126C27.5352 19.4703 27.4407 19.4482 27.3449 19.4482C27.2491 19.4482 27.1546 19.4703 27.0687 19.5126L16.7437 24.5964C16.2011 24.8631 15.6045 25.0018 14.9999 25.0018C14.3953 25.0018 13.7988 24.8631 13.2562 24.5964L2.93118 19.5126Z" fill="url(#paint1_linear_1018_1377)"/>
<defs>
<linearGradient id="paint0_linear_1018_1377" x1="-11.6661" y1="2.84053" x2="22.9205" y2="-13.029" gradientUnits="userSpaceOnUse">
<stop stop-color="#8B97FF"/>
<stop offset="1" stop-color="#EDEFFF"/>
</linearGradient>
<linearGradient id="paint1_linear_1018_1377" x1="-11.6661" y1="14.8479" x2="23.3454" y2="-0.645979" gradientUnits="userSpaceOnUse">
<stop stop-color="#8B97FF"/>
<stop offset="1" stop-color="#EDEFFF"/>
</linearGradient>
</defs>
</svg>
