<svg width="40" height="40" viewBox="0 0 40 40" fill="none" xmlns="http://www.w3.org/2000/svg">
<path d="M10.21 0.399414C6.27942 0.399414 3.0813 3.59754 3.0813 7.52816C3.0813 11.4594 6.27942 14.6575 10.21 14.6575C14.1413 14.6575 17.3394 11.4594 17.3394 7.52816C17.3388 3.59754 14.1413 0.399414 10.21 0.399414ZM11.3175 11.4632V11.6794C11.3162 11.9843 11.194 12.2761 10.9777 12.4909C10.7614 12.7057 10.4686 12.8259 10.1638 12.825C9.85907 12.8257 9.56651 12.7055 9.35033 12.4907C9.13415 12.2759 9.012 11.9841 9.01067 11.6794V11.675C8.67026 11.6337 8.33417 11.5624 8.0063 11.4619C7.79332 11.3929 7.61439 11.2458 7.5055 11.0501C7.39661 10.8545 7.36586 10.6249 7.41942 10.4075L7.47005 10.2082C7.52505 9.97004 7.6763 9.76941 7.89255 9.64754C8.00103 9.58688 8.12089 9.54934 8.2446 9.53729C8.3683 9.52524 8.49316 9.53895 8.6113 9.57754C8.81567 9.64754 9.05567 9.70254 9.30755 9.73692C9.47692 9.76379 9.64067 9.77691 9.80942 9.77691C10.1632 9.77691 10.7569 9.70379 10.7569 9.21192C10.7569 8.94004 10.5769 8.71817 9.65817 8.39067C9.49027 8.33221 9.32528 8.26567 9.1638 8.19129C7.9788 7.66566 7.3763 6.89066 7.3763 5.88816C7.3763 4.85691 7.98317 4.01566 9.01005 3.60504V3.37754C9.01121 3.07276 9.13331 2.7809 9.34953 2.56609C9.56574 2.35128 9.85839 2.23108 10.1632 2.23191C10.7988 2.23191 11.3169 2.74566 11.3169 3.37754V3.38691C11.5301 3.41191 11.7357 3.45191 11.9425 3.50691C12.175 3.56941 12.3682 3.71816 12.4869 3.92629C12.6057 4.13316 12.6363 4.37504 12.5738 4.60691L12.5232 4.78066C12.3963 5.24691 11.8988 5.52254 11.4182 5.39191C11.283 5.35439 11.1462 5.32311 11.0082 5.29816C10.8412 5.27162 10.6723 5.25867 10.5032 5.25941C9.98755 5.25941 9.65442 5.44816 9.65442 5.74004C9.65442 6.02879 9.9088 6.19754 10.8913 6.56254L11.1582 6.66629C12.4432 7.21629 13.0425 7.98691 13.0425 9.09254C13.0425 10.1819 12.4025 11.0563 11.3175 11.4632ZM29.7894 0.399414C25.8588 0.399414 22.6607 3.59754 22.6607 7.52816C22.6607 11.4594 25.8588 14.6575 29.7894 14.6575C33.7207 14.6575 36.9188 11.4594 36.9188 7.52816C36.9188 3.59754 33.7207 0.399414 29.7894 0.399414ZM30.8976 11.4632V11.6794C30.8976 12.3113 30.3801 12.825 29.7438 12.825C29.1076 12.825 28.5907 12.3113 28.5907 11.6794V11.675C28.2503 11.6337 27.9142 11.5624 27.5863 11.4619C27.3733 11.3929 27.1944 11.2458 27.0855 11.0501C26.9766 10.8545 26.9459 10.6249 26.9994 10.4075L27.0501 10.2082C27.1051 9.97004 27.2563 9.76941 27.4726 9.64754C27.581 9.58688 27.7009 9.54934 27.8246 9.53729C27.9483 9.52524 28.0732 9.53895 28.1913 9.57754C28.3957 9.64754 28.6357 9.70254 28.8876 9.73692C29.0569 9.76379 29.2207 9.77691 29.3894 9.77691C29.7432 9.77691 30.3369 9.70379 30.3369 9.21192C30.3369 8.94004 30.1569 8.71817 29.2382 8.39067C29.0703 8.33221 28.9053 8.26567 28.7438 8.19129C27.5588 7.66566 26.9563 6.89066 26.9563 5.88816C26.9563 4.85691 27.5632 4.01566 28.5901 3.60504V3.37691C28.5901 2.74504 29.1069 2.23129 29.7432 2.23129C30.3794 2.23129 30.8969 2.74504 30.8969 3.37691V3.38629C31.1101 3.41129 31.3157 3.45129 31.5226 3.50629C31.7551 3.56879 31.9482 3.71754 32.0669 3.92566C32.1857 4.13254 32.2163 4.37441 32.1538 4.60629L32.1032 4.78004C31.9763 5.24629 31.4788 5.52191 30.9982 5.39129C30.863 5.35377 30.7262 5.32248 30.5882 5.29754C30.4212 5.271 30.2523 5.25804 30.0832 5.25879C29.5676 5.25879 29.2344 5.44754 29.2344 5.73941C29.2344 6.02816 29.4888 6.19691 30.4713 6.56191L30.7382 6.66567C32.0232 7.21567 32.6226 7.98629 32.6226 9.09192C32.6226 10.1813 31.9819 11.0563 30.8976 11.4632Z" fill="#8B97FF"/>
<path d="M27.2219 28.9309L24.865 28.1765C24.5787 28.589 24.2644 28.9834 23.9212 29.3584L23.4462 29.8765C23.0538 30.3051 22.5765 30.6473 22.0446 30.8813C21.5127 31.1153 20.9379 31.2361 20.3569 31.2359H19.6394C19.0594 31.2348 18.486 31.1136 17.9552 30.8798C17.4245 30.6461 16.9479 30.3049 16.5556 29.8778L16.5475 29.8684L16.0837 29.3572C15.7427 28.9847 15.4276 28.5894 15.1406 28.174L12.7787 28.9303C11.1319 29.4572 9.78498 31.3028 9.78498 33.0309V38.4215C9.78498 39.0722 10.3131 39.6003 10.9637 39.6003H29.0375C29.1923 39.6003 29.3456 39.5698 29.4886 39.5106C29.6316 39.4513 29.7615 39.3645 29.871 39.255C29.9804 39.1456 30.0673 39.0156 30.1265 38.8726C30.1857 38.7296 30.2162 38.5763 30.2162 38.4215V33.0315C30.2156 31.3028 28.8681 29.4572 27.2219 28.9309ZM26.2519 22.3697C26.3363 23.0679 26.5295 23.7486 26.8244 24.3872C27.1167 25.0258 27.5078 25.6144 27.9831 26.1315L28.325 26.5084C28.4808 26.6781 28.6701 26.8138 28.881 26.9068C29.0918 26.9998 29.3195 27.0483 29.55 27.049H30.0731C30.5406 27.049 30.9875 26.8534 31.3012 26.5084L31.6469 26.1315C32.3174 25.3978 32.8188 24.5258 33.1156 23.5772C33.2381 23.1865 33.3256 22.7815 33.3775 22.3697C33.4094 22.1222 33.4231 21.8709 33.4269 21.6197V20.4334C33.4269 20.0984 33.3775 19.7703 33.2869 19.4634C33.0717 18.708 32.6162 18.0433 31.9894 17.5701C31.3626 17.0968 30.5985 16.8408 29.8131 16.8408C29.0277 16.8408 28.2637 17.0968 27.6368 17.5701C27.01 18.0433 26.5545 18.708 26.3394 19.4634C26.2467 19.7857 26.1998 20.1193 26.2 20.4547V21.5397C26.2 21.5678 26.2 21.5915 26.2037 21.6197C26.2038 21.8704 26.2199 22.1209 26.2519 22.3697ZM6.62561 22.3697C6.71007 23.0679 6.90323 23.7486 7.19811 24.3872C7.49048 25.0258 7.88151 25.6144 8.35686 26.1315L8.69873 26.5084C8.85459 26.6781 9.04388 26.8138 9.2547 26.9068C9.46551 26.9998 9.6933 27.0483 9.92373 27.049H10.4469C10.9144 27.049 11.3612 26.8534 11.675 26.5084L12.0206 26.1315C12.6912 25.3978 13.1925 24.5258 13.4894 23.5772C13.6119 23.1865 13.6994 22.7815 13.7512 22.3697C13.7831 22.1222 13.7969 21.8709 13.8006 21.6197V20.4334C13.8006 20.0984 13.7512 19.7703 13.6606 19.4634C13.4455 18.708 12.99 18.0433 12.3631 17.5701C11.7363 17.0968 10.9723 16.8408 10.1869 16.8408C9.40143 16.8408 8.63741 17.0968 8.01057 17.5701C7.38373 18.0433 6.92823 18.708 6.71311 19.4634C6.6205 19.7857 6.57358 20.1193 6.57373 20.4547V21.5397C6.57373 21.5678 6.57373 21.5915 6.57748 21.6197C6.57753 21.8704 6.59361 22.1209 6.62561 22.3697Z" fill="#3B4EF4"/>
<path d="M15.9618 24.9417C15.563 24.079 15.3019 23.1591 15.188 22.2155C15.1455 21.8811 15.1224 21.5411 15.1237 21.203C15.1187 21.1649 15.1187 21.1324 15.1187 21.0949V19.6286C15.1187 19.1756 15.182 18.7247 15.3068 18.2892C15.5974 17.2684 16.2129 16.3702 17.06 15.7306C17.907 15.0911 18.9395 14.7451 20.0008 14.7451C21.0622 14.7451 22.0947 15.0911 22.9417 15.7306C23.7888 16.3702 24.4043 17.2684 24.6949 18.2892C24.818 18.7042 24.8843 19.1474 24.8843 19.5999V21.2024C24.8817 21.5411 24.8595 21.8793 24.818 22.2155C24.7474 22.7724 24.6299 23.3192 24.4643 23.8474C24.0629 25.1292 23.3853 26.3075 22.4793 27.2992L22.0124 27.8086C21.8018 28.0392 21.5454 28.2233 21.2595 28.3491C20.9737 28.4749 20.6647 28.5397 20.3524 28.5392H19.6449C19.3335 28.5381 19.0257 28.4726 18.7407 28.3469C18.4558 28.2212 18.2 28.0379 17.9893 27.8086L17.5274 27.2992C16.8852 26.6003 16.3569 25.8047 15.9618 24.9417Z" fill="#3B4EF4"/>
<path d="M35.1574 27.3387L33.4131 26.7805C33.2001 27.0874 32.9666 27.3795 32.7143 27.6549L32.3631 28.0387C32.0727 28.3558 31.7194 28.609 31.3258 28.7821C30.9322 28.9553 30.5068 29.0446 30.0768 29.0443H29.5456C29.3743 29.0443 29.2049 29.0262 29.0374 28.998C30.2399 29.9818 31.0543 31.5168 31.0543 33.0318V35.2349H36.4999C36.9818 35.2349 37.3724 34.8443 37.3724 34.363V30.3743C37.3724 29.0937 36.3756 27.728 35.1574 27.3387ZM8.94494 33.0312C8.94494 31.5162 9.75994 29.9805 10.9624 28.9974C10.7936 29.0272 10.6226 29.0428 10.4512 29.0443H9.91994C9.4908 29.0435 9.06648 28.9538 8.67374 28.7808C8.281 28.6078 7.92836 28.3554 7.63807 28.0393L7.63182 28.0324L7.28869 27.6543C7.03641 27.3788 6.80317 27.0865 6.59057 26.7793L4.84307 27.3387C3.62432 27.7287 2.62744 29.0943 2.62744 30.373V34.3618C2.62744 34.8437 3.01807 35.2337 3.49932 35.2337H8.94432L8.94494 33.0312Z" fill="#3B4EF4"/>
</svg>
