<svg width="24" height="24" viewBox="0 0 24 24" fill="none" xmlns="http://www.w3.org/2000/svg">
<path d="M18.443 3.88241H16.4526V2.99201C16.4526 2.70394 16.1384 2.57301 15.8503 2.57301H14.3052C13.9386 1.52547 13.022 1.0017 11.9745 1.0017C10.9385 0.962748 9.99613 1.598 9.64369 2.57301H8.12476C7.83668 2.57301 7.54861 2.70394 7.54861 2.99201V3.88241H5.55824C4.37877 3.89499 3.41384 4.82543 3.3584 6.00365V21.0096C3.3584 22.1619 4.40594 22.9999 5.55824 22.9999H18.443C19.5953 22.9999 20.6428 22.1619 20.6428 21.0096V6.0037C20.5874 4.82543 19.6224 3.89499 18.443 3.88241ZM8.5961 3.62055H10.0365C10.159 3.6056 10.2734 3.55174 10.363 3.46688C10.4526 3.38202 10.5125 3.27065 10.5341 3.14916C10.6892 2.47376 11.2817 1.98893 11.9745 1.97069C12.6608 1.99149 13.2444 2.47782 13.3886 3.14916C13.4115 3.27462 13.4753 3.38895 13.57 3.47426C13.6648 3.55956 13.7852 3.61101 13.9124 3.62055H15.4052V5.71563H8.5961V3.62055ZM19.5953 21.0097C19.5953 21.5858 19.0191 21.9524 18.443 21.9524H5.55824C4.98209 21.9524 4.40594 21.5858 4.40594 21.0097V6.0037C4.45937 5.40399 4.95623 4.94097 5.55824 4.93H7.54856V6.26561C7.57623 6.55905 7.83037 6.77855 8.12471 6.76322H15.8503C15.9948 6.77112 16.1371 6.72432 16.2487 6.63211C16.3603 6.53991 16.4331 6.40906 16.4526 6.26561V4.92995H18.4429C19.0449 4.94097 19.5418 5.40394 19.5952 6.00365V21.0097H19.5953Z" fill="white" stroke="white" stroke-width="0.3"/>
<path d="M9.98432 12.7079C9.78788 12.5009 9.46176 12.4892 9.25103 12.6818L7.57495 14.2793L6.86787 13.546C6.67143 13.3389 6.3453 13.3273 6.13457 13.5198C6.03691 13.6221 5.98242 13.7581 5.98242 13.8995C5.98242 14.041 6.03691 14.1769 6.13457 14.2793L7.20828 15.3792C7.25418 15.4306 7.3108 15.4713 7.37415 15.4984C7.43749 15.5256 7.50602 15.5385 7.5749 15.5363C7.71306 15.5344 7.84484 15.4779 7.94153 15.3792L9.98422 13.4412C10.1867 13.2555 10.2003 12.9407 10.0145 12.7382C10.0049 12.7276 9.99485 12.7175 9.98432 12.7079ZM17.5004 13.834H11.4771C11.1878 13.834 10.9533 14.0685 10.9533 14.3578C10.9533 14.6471 11.1878 14.8816 11.4771 14.8816H17.5004C17.7897 14.8816 18.0242 14.6471 18.0242 14.3578C18.0242 14.0685 17.7897 13.834 17.5004 13.834ZM9.98432 8.51778C9.78788 8.31071 9.46176 8.29903 9.25103 8.49162L7.57495 10.0891L6.86787 9.35579C6.67143 9.14872 6.3453 9.13704 6.13457 9.32963C6.03691 9.43193 5.98242 9.56793 5.98242 9.70936C5.98242 9.85079 6.03691 9.98679 6.13457 10.0891L7.20828 11.189C7.25418 11.2404 7.3108 11.2811 7.37415 11.3083C7.43749 11.3354 7.50602 11.3484 7.5749 11.3462C7.71306 11.3442 7.84484 11.2877 7.94153 11.189L9.98422 9.25108C10.1867 9.06531 10.2003 8.75052 10.0145 8.54806C10.0049 8.53748 9.99485 8.52738 9.98432 8.51778ZM17.5004 9.64387H11.4771C11.1878 9.64387 10.9533 9.87836 10.9533 10.1676C10.9533 10.4569 11.1878 10.6914 11.4771 10.6914H17.5004C17.7897 10.6914 18.0242 10.4569 18.0242 10.1676C18.0242 9.87836 17.7897 9.64387 17.5004 9.64387ZM9.98432 16.8981C9.78788 16.691 9.46176 16.6794 9.25103 16.8719L7.57495 18.4694L6.86787 17.7361C6.67143 17.529 6.3453 17.5174 6.13457 17.7099C6.03691 17.8122 5.98242 17.9482 5.98242 18.0896C5.98242 18.2311 6.03691 18.3671 6.13457 18.4694L7.20828 19.5693C7.25418 19.6207 7.3108 19.6614 7.37415 19.6886C7.43749 19.7157 7.50602 19.7286 7.5749 19.7264C7.71306 19.7245 7.84484 19.668 7.94153 19.5693L9.98422 17.6314C10.1867 17.4456 10.2003 17.1308 10.0145 16.9283C10.0049 16.9178 9.99483 16.9077 9.98432 16.8981ZM17.5004 18.0242H11.4771C11.1878 18.0242 10.9533 18.2587 10.9533 18.548C10.9533 18.8372 11.1878 19.0717 11.4771 19.0717H17.5004C17.7897 19.0717 18.0242 18.8372 18.0242 18.548C18.0242 18.2587 17.7897 18.0242 17.5004 18.0242Z" fill="white" stroke="white" stroke-width="0.3"/>
</svg>
