<svg width="300" height="70" viewBox="0 0 300 70" fill="none" xmlns="http://www.w3.org/2000/svg">
<g filter="url(#filter0_i_2586_258)">
<ellipse cx="34.7887" cy="34.8281" rx="34.7887" ry="34.8281" fill="url(#paint0_linear_2586_258)"/>
</g>
<g filter="url(#filter1_i_2586_258)">
<ellipse cx="34.7888" cy="34.5518" rx="29.03" ry="29.1089" fill="url(#paint1_linear_2586_258)"/>
</g>
<ellipse cx="34.788" cy="34.8285" rx="28.2412" ry="28.2806" fill="#8692FF" fill-opacity="0.67"/>
<g filter="url(#filter2_i_2586_258)">
<ellipse cx="34.5119" cy="35.1041" rx="27.9651" ry="28.0045" fill="url(#paint2_linear_2586_258)"/>
</g>
<path d="M46.037 21.0232C48.0261 20.6226 52.6041 20.5086 55.0077 23.2556C58.0124 26.6896 55.4796 32.9992 48.0966 35.2742C43.6532 36.6433 39.5546 37.2631 36.7567 37.4392C40.2887 38.1515 46.8178 40.2929 56.4179 34.0965C55.287 42.8597 49.3504 49.0789 43.414 50.7752C43.4162 50.7732 43.4176 50.7702 43.4198 50.7683C42.0591 51.2795 40.1556 51.583 37.5712 51.4353C30.975 51.0584 25.509 45.4985 23.7186 41.7293C29.6552 45.8755 35.2928 46.2768 39.079 44.9334C39.1809 44.8972 39.2822 44.8632 39.3827 44.8308C39.2528 44.8336 39.1197 44.8354 38.9843 44.8386C36.6102 44.895 33.2601 43.4531 31.2528 42.5711C31.2545 42.573 31.256 42.575 31.2577 42.5769C27.6097 41.3208 20.9765 38.1343 21.2079 30.1228C21.1276 29.5284 21.185 28.9268 21.3632 28.3484C21.3546 28.4082 21.3476 28.4678 21.3397 28.5271C21.6892 26.9841 22.6271 25.5449 23.4716 24.7156C25.3465 22.8743 28.1504 21.5821 31.9706 21.7966C31.2409 22.3404 29.5678 23.7717 29.4647 25.1453C29.3361 26.8622 30.9674 28.3219 34.3583 28.1931C37.7495 28.0644 44.4883 28.2352 47.4071 26.4754C49.8168 25.0223 49.642 22.9995 47.5829 21.7224C47.1585 21.4684 46.6735 21.2448 46.1376 21.0593C46.103 21.0478 46.0682 21.0354 46.0331 21.0242C46.0629 21.0337 46.0932 21.0444 46.1239 21.0545C46.0949 21.0445 46.0663 21.033 46.037 21.0232ZM21.2079 30.1228C21.2109 30.1447 21.2153 30.1664 21.2186 30.1883C21.2146 30.1486 21.2128 30.1088 21.2099 30.0691C21.2093 30.087 21.2084 30.1049 21.2079 30.1228Z" fill="black" fill-opacity="0.12"/>
<path d="M33.5952 50.1102C26.999 49.7332 21.5336 44.1736 19.7432 40.4043C25.6798 44.5505 31.3168 44.9517 35.1029 43.6082C39.3702 42.094 42.3588 43.9681 42.3588 46.4351C42.3588 47.9428 40.1915 50.4871 33.5952 50.1102Z" fill="url(#paint3_linear_2586_258)"/>
<path d="M39.438 49.4505C45.3746 47.7543 51.3112 41.535 52.442 32.7715C42.0765 39.4619 35.2918 36.4311 31.9937 35.9754C29.6521 35.6518 27.9332 35.2722 26.3449 36.4311C24.8733 37.5049 25.0792 39.7485 25.6802 40.5927C26.5283 40.7812 31.711 43.5924 35.0091 43.5139C38.9669 43.4197 40.5479 43.5139 41.1342 45.0216C41.7205 46.5293 41.3226 47.8486 39.438 49.4505Z" fill="url(#paint4_linear_2586_258)"/>
<path d="M42.0611 19.6986C44.05 19.298 48.6286 19.1835 51.0324 21.9307C54.0372 25.3647 51.5046 31.6747 44.1215 33.9497C38.2151 35.7697 32.9178 36.2669 30.4748 36.1559C28.9606 36.087 26.8958 36.0182 26.3935 37.7692C25.8913 39.5201 26.939 40.8661 27.2824 41.2524C23.6345 39.9963 17.0009 36.81 17.2323 28.7983C17.152 28.2037 17.2098 27.6019 17.3881 27.0234C17.2994 27.6399 17.2487 28.2312 17.2323 28.7983C17.663 31.9879 22.0687 34.971 33.173 33.0491C40.2958 31.8163 43.7585 27.8818 45.3234 23.9482C45.961 22.1003 44.5156 20.5173 42.0611 19.6986Z" fill="url(#paint5_linear_2586_258)"/>
<path d="M25.4886 23.8205C25.5917 22.4469 27.2653 21.0161 27.995 20.4724C24.1747 20.2577 21.3709 21.5499 19.4959 23.3912C17.1314 25.7133 14.0124 32.812 25.2311 33.6074C36.7349 34.423 42.3378 29.7492 44.7619 25.4516C46.9239 21.6187 43.7553 20.2422 42.0576 19.6997C45.4785 20.7928 46.3501 23.3912 43.4312 25.1512C40.5123 26.9111 33.7731 26.7394 30.3821 26.8682C26.991 26.9969 25.3599 25.5375 25.4886 23.8205Z" fill="url(#paint6_linear_2586_258)"/>
<path d="M288.755 45.1784H300V50.5191H282.349V18.6499H288.755V45.1784Z" fill="#132337"/>
<path d="M269.185 45.1784H280.429V50.5191H262.778V18.6499H269.185V45.1784Z" fill="#132337"/>
<path d="M259.705 18.6499V40.7132C259.676 44.0256 258.768 46.5646 256.981 48.3303C255.194 50.0814 252.63 50.9569 249.288 50.9569C245.889 50.9569 243.288 50.0668 241.487 48.2865C239.7 46.5063 238.806 43.9308 238.806 40.56V18.6499H245.257V40.5819C245.257 42.3913 245.547 43.6827 246.128 44.4561C246.709 45.2295 247.763 45.6162 249.288 45.6162C250.814 45.6162 251.86 45.2368 252.426 44.478C252.993 43.7046 253.283 42.4424 253.298 40.6913V18.6499H259.705Z" fill="#132337"/>
<path d="M215.792 50.5191V18.6499H225.598C228.91 18.6499 231.424 19.3941 233.138 20.8825C234.867 22.3563 235.731 24.5232 235.731 27.3833C235.731 29.003 235.375 30.3966 234.663 31.5639C233.951 32.7313 232.978 33.5849 231.743 34.1249C233.167 34.5334 234.264 35.3579 235.034 36.5982C235.804 37.824 236.189 39.3415 236.189 41.151C236.189 44.2445 235.339 46.5792 233.639 48.1552C231.954 49.7311 229.506 50.5191 226.295 50.5191H215.792ZM222.198 36.6639V45.1784H226.295C227.443 45.1784 228.315 44.8209 228.91 44.1059C229.506 43.3909 229.804 42.3767 229.804 41.0634C229.804 38.2034 228.772 36.7368 226.709 36.6639H222.198ZM222.198 31.9798H225.533C228.046 31.9798 229.303 30.6738 229.303 28.0618C229.303 26.6172 229.012 25.5812 228.431 24.9537C227.85 24.3262 226.905 24.0125 225.598 24.0125H222.198V31.9798Z" fill="#132337"/>
<path d="M202.909 32.9648L207.682 18.6499H214.655L206.156 38.9621V50.5191H199.662V38.9621L191.142 18.6499H198.115L202.909 32.9648Z" fill="#132337"/>
<path d="M189.595 36.7296H179.614V45.1784H191.425V50.5191H173.207V18.6499H191.382V24.0125H179.614V31.542H189.595V36.7296Z" fill="#132337"/>
<path d="M159.519 41.7638L164.858 18.6499H172.005L162.853 50.5191H156.184L147.097 18.6499H154.201L159.519 41.7638Z" fill="#132337"/>
<path d="M136.31 38.8746H133.128V50.5191H126.721V18.6499H136.942C140.152 18.6499 142.629 19.489 144.373 21.167C146.131 22.8305 147.009 25.2018 147.009 28.2807C147.009 32.5124 145.477 35.4746 142.411 37.1673L147.968 50.2127V50.5191H141.082L136.31 38.8746ZM133.128 33.512H136.767C138.046 33.512 139.005 33.0888 139.644 32.2425C140.283 31.3815 140.603 30.2361 140.603 28.806C140.603 25.6103 139.361 24.0125 136.876 24.0125H133.128V33.512Z" fill="#132337"/>
<path d="M123.624 18.6499V40.7132C123.595 44.0256 122.687 46.5646 120.9 48.3303C119.113 50.0814 116.549 50.9569 113.208 50.9569C109.808 50.9569 107.207 50.0668 105.406 48.2865C103.619 46.5063 102.726 43.9308 102.726 40.56V18.6499H109.176V40.5819C109.176 42.3913 109.467 43.6827 110.048 44.4561C110.629 45.2295 111.682 45.6162 113.208 45.6162C114.733 45.6162 115.779 45.2368 116.346 44.478C116.912 43.7046 117.203 42.4424 117.217 40.6913V18.6499H123.624Z" fill="#132337"/>
<path d="M94.072 42.1581C94.072 40.8594 93.7379 39.8817 93.0696 39.2251C92.4158 38.5538 91.2173 37.8607 89.4739 37.1457C86.2923 35.9345 84.0041 34.5191 82.6094 32.8994C81.2148 31.2651 80.5174 29.3389 80.5174 27.1209C80.5174 24.4359 81.4617 22.2836 83.3504 20.6639C85.2535 19.0296 87.6652 18.2124 90.5853 18.2124C92.532 18.2124 94.2681 18.6283 95.7936 19.46C97.319 20.2772 98.4885 21.4373 99.3021 22.9403C100.13 24.4432 100.544 26.1505 100.544 28.0621H94.1592C94.1592 26.5737 93.8396 25.4428 93.2003 24.6694C92.5756 23.8814 91.6676 23.4875 90.4763 23.4875C89.3577 23.4875 88.486 23.8231 87.8613 24.4943C87.2366 25.151 86.9242 26.0411 86.9242 27.1647C86.9242 28.0402 87.2729 28.8355 87.9703 29.5505C88.6676 30.2509 89.9025 30.9805 91.6749 31.7393C94.7693 32.8629 97.0139 34.2419 98.4086 35.8762C99.8178 37.5105 100.522 39.5899 100.522 42.1143C100.522 44.8868 99.6435 47.0537 97.8856 48.6151C96.1277 50.1765 93.7379 50.9571 90.716 50.9571C88.6676 50.9571 86.8008 50.534 85.1155 49.6876C83.4303 48.8413 82.1082 47.6301 81.1494 46.0542C80.2051 44.4782 79.7329 42.6177 79.7329 40.4727H86.1615C86.1615 42.3113 86.5175 43.6465 87.2293 44.4782C87.9412 45.31 89.1034 45.7259 90.716 45.7259C92.9533 45.7259 94.072 44.5366 94.072 42.1581Z" fill="#132337"/>
<defs>
<filter id="filter0_i_2586_258" x="-3.47314" y="-3.47314" width="73.0503" height="73.1294" filterUnits="userSpaceOnUse" color-interpolation-filters="sRGB">
<feFlood flood-opacity="0" result="BackgroundImageFix"/>
<feBlend mode="normal" in="SourceGraphic" in2="BackgroundImageFix" result="shape"/>
<feColorMatrix in="SourceAlpha" type="matrix" values="0 0 0 0 0 0 0 0 0 0 0 0 0 0 0 0 0 0 127 0" result="hardAlpha"/>
<feOffset dx="-3.47314" dy="-3.47314"/>
<feGaussianBlur stdDeviation="13.0243"/>
<feComposite in2="hardAlpha" operator="arithmetic" k2="-1" k3="1"/>
<feColorMatrix type="matrix" values="0 0 0 0 1 0 0 0 0 1 0 0 0 0 1 0 0 0 0.2 0"/>
<feBlend mode="normal" in2="shape" result="effect1_innerShadow_2586_258"/>
</filter>
<filter id="filter1_i_2586_258" x="5.75879" y="0.233161" width="61.5332" height="63.4275" filterUnits="userSpaceOnUse" color-interpolation-filters="sRGB">
<feFlood flood-opacity="0" result="BackgroundImageFix"/>
<feBlend mode="normal" in="SourceGraphic" in2="BackgroundImageFix" result="shape"/>
<feColorMatrix in="SourceAlpha" type="matrix" values="0 0 0 0 0 0 0 0 0 0 0 0 0 0 0 0 0 0 127 0" result="hardAlpha"/>
<feOffset dx="3.47314" dy="-5.20971"/>
<feGaussianBlur stdDeviation="8.68285"/>
<feComposite in2="hardAlpha" operator="arithmetic" k2="-1" k3="1"/>
<feColorMatrix type="matrix" values="0 0 0 0 1 0 0 0 0 1 0 0 0 0 1 0 0 0 0.15 0"/>
<feBlend mode="normal" in2="shape" result="effect1_innerShadow_2586_258"/>
</filter>
<filter id="filter2_i_2586_258" x="3.07373" y="3.62647" width="59.4033" height="59.4819" filterUnits="userSpaceOnUse" color-interpolation-filters="sRGB">
<feFlood flood-opacity="0" result="BackgroundImageFix"/>
<feBlend mode="normal" in="SourceGraphic" in2="BackgroundImageFix" result="shape"/>
<feColorMatrix in="SourceAlpha" type="matrix" values="0 0 0 0 0 0 0 0 0 0 0 0 0 0 0 0 0 0 127 0" result="hardAlpha"/>
<feOffset dx="-3.47314" dy="-3.47314"/>
<feGaussianBlur stdDeviation="13.0243"/>
<feComposite in2="hardAlpha" operator="arithmetic" k2="-1" k3="1"/>
<feColorMatrix type="matrix" values="0 0 0 0 1 0 0 0 0 1 0 0 0 0 1 0 0 0 0.2 0"/>
<feBlend mode="normal" in2="shape" result="effect1_innerShadow_2586_258"/>
</filter>
<linearGradient id="paint0_linear_2586_258" x1="-14.217" y1="38.3654" x2="92.8524" y2="38.8415" gradientUnits="userSpaceOnUse">
<stop stop-color="#5465F7"/>
<stop offset="1" stop-color="#7D2FD0"/>
</linearGradient>
<linearGradient id="paint1_linear_2586_258" x1="-3.80933" y1="36.1203" x2="90.9477" y2="36.2564" gradientUnits="userSpaceOnUse">
<stop offset="0.0123726" stop-color="#4E60F6"/>
<stop offset="0.99" stop-color="#7119CF"/>
</linearGradient>
<linearGradient id="paint2_linear_2586_258" x1="-4.88149" y1="37.9483" x2="81.1867" y2="38.331" gradientUnits="userSpaceOnUse">
<stop stop-color="#5465F7"/>
<stop offset="1" stop-color="#7D2FD0"/>
</linearGradient>
<linearGradient id="paint3_linear_2586_258" x1="45.8425" y1="45.3043" x2="16.9585" y2="44.3801" gradientUnits="userSpaceOnUse">
<stop stop-color="#8B97FF"/>
<stop offset="1" stop-color="#EDEFFF"/>
</linearGradient>
<linearGradient id="paint4_linear_2586_258" x1="23.6042" y1="38.9908" x2="56.4873" y2="41.672" gradientUnits="userSpaceOnUse">
<stop stop-color="#8B97FF"/>
<stop offset="1" stop-color="#EDEFFF"/>
</linearGradient>
<linearGradient id="paint5_linear_2586_258" x1="53.0902" y1="37.0411" x2="28.4567" y2="17.4894" gradientUnits="userSpaceOnUse">
<stop stop-color="#8B97FF"/>
<stop offset="1" stop-color="#EDEFFF"/>
</linearGradient>
<linearGradient id="paint6_linear_2586_258" x1="40.6411" y1="35.1956" x2="19.4766" y2="16.1119" gradientUnits="userSpaceOnUse">
<stop stop-color="#8B97FF"/>
<stop offset="1" stop-color="#EDEFFF"/>
</linearGradient>
</defs>
</svg>
