<svg width="237" height="55" viewBox="0 0 237 55" fill="none" xmlns="http://www.w3.org/2000/svg">
<g filter="url(#filter0_i_143_657)">
<ellipse cx="27.4689" cy="27.5" rx="27.4689" ry="27.5" fill="url(#paint0_linear_143_657)"/>
</g>
<g filter="url(#filter1_i_143_657)">
<ellipse cx="27.469" cy="27.282" rx="22.9219" ry="22.9841" fill="url(#paint1_linear_143_657)"/>
</g>
<ellipse cx="27.4687" cy="27.5" rx="22.299" ry="22.3301" fill="url(#paint2_linear_143_657)"/>
<ellipse cx="27.4687" cy="27.5" rx="22.299" ry="22.3301" fill="#5C57F1"/>
<g filter="url(#filter2_i_143_657)">
<ellipse cx="27.2507" cy="27.7181" rx="22.081" ry="22.1121" fill="url(#paint3_linear_143_657)"/>
<ellipse cx="27.2507" cy="27.7181" rx="22.081" ry="22.1121" fill="url(#paint4_linear_143_657)"/>
</g>
<path fill-rule="evenodd" clip-rule="evenodd" d="M36.3507 16.6004C37.921 16.2841 41.5363 16.1937 43.4343 18.3629C45.8068 21.0743 43.8072 26.0566 37.9775 27.853C34.4724 28.933 31.239 29.4231 29.0299 29.5627C29.2485 29.6069 29.4816 29.6579 29.7292 29.7121L29.7293 29.7121C32.6425 30.3501 37.5664 31.4283 44.5471 26.9225C43.6543 33.8422 38.9668 38.7529 34.2793 40.0921L34.282 40.0898C33.2079 40.4927 31.705 40.7295 29.6664 40.613C24.4581 40.3154 20.1427 35.9256 18.729 32.9494C23.4165 36.2232 27.8674 36.5399 30.8569 35.4791C30.9379 35.4504 31.0183 35.4232 31.098 35.3976C30.995 35.3997 30.8897 35.4021 30.7823 35.4047C28.9084 35.4493 26.2639 34.3124 24.6787 33.6159L24.6815 33.6191C21.8011 32.6273 16.5633 30.1114 16.746 23.7854C16.7499 23.8139 16.7541 23.8424 16.7588 23.8709C16.7542 23.8296 16.7503 23.7881 16.7472 23.7466C16.7468 23.7596 16.7464 23.7725 16.746 23.7854C16.6826 23.3159 16.7283 22.8408 16.8691 22.384C16.863 22.4261 16.8572 22.468 16.8516 22.5097C17.1302 21.2971 17.8696 20.1679 18.5336 19.5158C20.0141 18.0619 22.2279 17.0416 25.2444 17.2111C24.6683 17.6404 23.3467 18.7701 23.2654 19.8547C23.1637 21.2104 24.4517 22.3628 27.1292 22.2611C27.5458 22.2453 28.0264 22.2352 28.5497 22.2243C31.3896 22.1647 35.4866 22.0788 37.4327 20.9054C39.3557 19.746 39.1951 18.1256 37.5203 17.1193C37.2045 16.9355 36.8473 16.7735 36.456 16.6364C36.4204 16.6244 36.3845 16.6126 36.3481 16.601C36.3772 16.6103 36.4069 16.6199 36.437 16.6298C36.4084 16.6199 36.3796 16.6101 36.3507 16.6004Z" fill="black" fill-opacity="0.12"/>
<path d="M26.5271 39.5666C21.3188 39.269 17.0033 34.8791 15.5896 31.903C20.2771 35.1768 24.728 35.4935 27.7175 34.4327C31.087 33.2371 33.4467 34.7169 33.4467 36.6648C33.4467 37.8553 31.7354 39.8642 26.5271 39.5666Z" fill="url(#paint5_linear_143_657)"/>
<path d="M31.1402 39.0458C35.8277 37.7065 40.5152 32.7958 41.4081 25.8762C33.2236 31.1589 27.8664 28.7658 25.2623 28.406C23.4133 28.1505 22.0561 27.8507 20.802 28.7658C19.6401 29.6137 19.8027 31.3852 20.2772 32.0518C20.9468 32.2006 25.039 34.4203 27.6432 34.3583C30.7682 34.2839 32.0165 34.3583 32.4795 35.5488C32.9425 36.7393 32.6283 37.781 31.1402 39.0458Z" fill="url(#paint6_linear_143_657)"/>
<path d="M33.2113 15.5539C34.7817 15.2375 38.3969 15.1471 40.295 17.3163C42.6675 20.0278 40.6678 25.0101 34.8382 26.8064C30.1745 28.2435 25.9918 28.636 24.0628 28.5484C22.8672 28.494 21.2369 28.4397 20.8403 29.8222C20.4437 31.2047 21.271 32.2675 21.5422 32.5725C18.6618 31.5807 13.4239 29.0648 13.6066 22.7389C13.5432 22.2694 13.5889 21.7942 13.7297 21.3374C13.6597 21.8242 13.6196 22.2911 13.6066 22.7389C13.9468 25.2574 17.4255 27.6128 26.1933 26.0953C31.8174 25.1219 34.5515 22.0152 35.7872 18.9093C36.2906 17.4502 35.1493 16.2003 33.2113 15.5539Z" fill="url(#paint7_linear_143_657)"/>
<path d="M20.1262 18.8084C20.2075 17.7238 21.529 16.594 22.1052 16.1647C19.0887 15.9952 16.8749 17.0155 15.3944 18.4694C13.5274 20.3029 11.0646 25.908 19.9228 26.536C29.0062 27.18 33.4301 23.4896 35.3442 20.0963C37.0513 17.0699 34.5494 15.983 33.2089 15.5546C35.91 16.4177 36.5982 18.4694 34.2935 19.8591C31.9888 21.2487 26.6676 21.1131 23.99 21.2148C21.3124 21.3165 20.0245 20.1641 20.1262 18.8084Z" fill="url(#paint8_linear_143_657)"/>
<path d="M227.93 35.037H236.814V39.238H222.868V14.1696H227.93V35.037Z" fill="#132337"/>
<path d="M212.467 35.037H221.351V39.238H207.405V14.1696H212.467V35.037Z" fill="#132337"/>
<path d="M204.977 14.1696V31.5247C204.954 34.1302 204.236 36.1274 202.825 37.5163C201.413 38.8937 199.387 39.5824 196.747 39.5824C194.061 39.5824 192.006 38.8822 190.583 37.4819C189.171 36.0815 188.465 34.0556 188.465 31.4041V14.1696H193.562V31.4214C193.562 32.8447 193.791 33.8605 194.25 34.4688C194.71 35.0772 195.542 35.3814 196.747 35.3814C197.952 35.3814 198.779 35.0829 199.226 34.486C199.674 33.8777 199.903 32.8848 199.915 31.5074V14.1696H204.977Z" fill="#132337"/>
<path d="M170.282 39.2381V14.1696H178.03C180.647 14.1696 182.633 14.755 183.987 15.9258C185.353 17.0851 186.036 18.7896 186.036 21.0393C186.036 22.3134 185.755 23.4096 185.192 24.3279C184.63 25.2461 183.861 25.9176 182.885 26.3423C184.01 26.6637 184.877 27.3122 185.485 28.2879C186.093 29.252 186.397 30.4458 186.397 31.8691C186.397 34.3025 185.726 36.139 184.383 37.3786C183.052 38.6183 181.117 39.2381 178.581 39.2381H170.282ZM175.344 28.3395V35.0371H178.581C179.488 35.0371 180.176 34.7558 180.647 34.1934C181.117 33.631 181.353 32.8332 181.353 31.8002C181.353 29.5505 180.538 28.3969 178.908 28.3395H175.344ZM175.344 24.655H177.978C179.964 24.655 180.957 23.6277 180.957 21.5731C180.957 20.4367 180.727 19.6218 180.268 19.1282C179.809 18.6347 179.063 18.3879 178.03 18.3879H175.344V24.655Z" fill="#132337"/>
<path d="M160.105 25.4298L163.876 14.1696H169.385L162.671 30.1473V39.2381H157.54V30.1473L150.808 14.1696H156.317L160.105 25.4298Z" fill="#132337"/>
<path d="M149.584 28.3912H141.699V35.0371H151.031V39.2381H136.637V14.1696H150.996V18.3879H141.699V24.3106H149.584V28.3912Z" fill="#132337"/>
<path d="M125.823 32.3512L130.041 14.1696H135.689L128.457 39.2381H123.189L116.009 14.1696H121.622L125.823 32.3512Z" fill="#132337"/>
<path d="M107.485 30.0785H104.971V39.2381H99.9094V14.1696H107.984C110.521 14.1696 112.478 14.8296 113.855 16.1496C115.244 17.4581 115.939 19.3233 115.939 21.7453C115.939 25.0739 114.728 27.404 112.306 28.7355L116.696 38.9971V39.2381H111.256L107.485 30.0785ZM104.971 25.8602H107.847C108.857 25.8602 109.614 25.5273 110.119 24.8616C110.624 24.1844 110.877 23.2833 110.877 22.1585C110.877 19.6447 109.895 18.3879 107.933 18.3879H104.971V25.8602Z" fill="#132337"/>
<path d="M97.4626 14.1696V31.5247C97.4397 34.1303 96.7223 36.1275 95.3105 37.5164C93.8986 38.8938 91.8727 39.5825 89.2327 39.5825C86.5468 39.5825 84.4922 38.8823 83.0689 37.4819C81.6571 36.0816 80.9512 34.0557 80.9512 31.4042V14.1696H86.0475V31.4214C86.0475 32.8447 86.2771 33.8605 86.7362 34.4689C87.1953 35.0772 88.0275 35.3814 89.2327 35.3814C90.4379 35.3814 91.2644 35.083 91.712 34.4861C92.1597 33.8778 92.3892 32.8849 92.4007 31.5075V14.1696H97.4626Z" fill="#132337"/>
<path d="M74.1147 32.661C74.1147 31.6394 73.8507 30.8704 73.3227 30.3539C72.8062 29.8259 71.8592 29.2807 70.4818 28.7182C67.9681 27.7655 66.1602 26.6521 65.0583 25.378C63.9564 24.0925 63.4055 22.5774 63.4055 20.8327C63.4055 18.7207 64.1516 17.0276 65.6437 15.7535C67.1474 14.468 69.0528 13.8252 71.3599 13.8252C72.898 13.8252 74.2696 14.1523 75.4748 14.8066C76.6801 15.4494 77.6041 16.3619 78.2468 17.5441C78.9011 18.7264 79.2282 20.0694 79.2282 21.573H74.1835C74.1835 20.4022 73.931 19.5127 73.426 18.9043C72.9324 18.2845 72.215 17.9746 71.2738 17.9746C70.39 17.9746 69.7013 18.2386 69.2077 18.7666C68.7142 19.2831 68.4674 19.9833 68.4674 20.8671C68.4674 21.5558 68.7429 22.1814 69.2938 22.7438C69.8448 23.2947 70.8204 23.8687 72.2208 24.4655C74.6656 25.3494 76.439 26.434 77.5409 27.7196C78.6543 29.0052 79.211 30.6408 79.211 32.6266C79.211 34.8074 78.5166 36.5119 77.1277 37.7401C75.7388 38.9683 73.8507 39.5824 71.4632 39.5824C69.8448 39.5824 68.3698 39.2495 67.0383 38.5838C65.7069 37.918 64.6623 36.9653 63.9048 35.7257C63.1587 34.486 62.7856 33.0226 62.7856 31.3353H67.8648C67.8648 32.7815 68.146 33.8318 68.7084 34.486C69.2709 35.1403 70.1891 35.4674 71.4632 35.4674C73.2308 35.4674 74.1147 34.5319 74.1147 32.661Z" fill="#132337"/>
<defs>
<filter id="filter0_i_143_657" x="-2.74236" y="-2.74236" width="57.6801" height="57.7424" filterUnits="userSpaceOnUse" color-interpolation-filters="sRGB">
<feFlood flood-opacity="0" result="BackgroundImageFix"/>
<feBlend mode="normal" in="SourceGraphic" in2="BackgroundImageFix" result="shape"/>
<feColorMatrix in="SourceAlpha" type="matrix" values="0 0 0 0 0 0 0 0 0 0 0 0 0 0 0 0 0 0 127 0" result="hardAlpha"/>
<feOffset dx="-2.74236" dy="-2.74236"/>
<feGaussianBlur stdDeviation="10.2839"/>
<feComposite in2="hardAlpha" operator="arithmetic" k2="-1" k3="1"/>
<feColorMatrix type="matrix" values="0 0 0 0 1 0 0 0 0 1 0 0 0 0 1 0 0 0 0.2 0"/>
<feBlend mode="normal" in2="shape" result="effect1_innerShadow_143_657"/>
</filter>
<filter id="filter1_i_143_657" x="4.54712" y="0.184309" width="48.5861" height="50.0818" filterUnits="userSpaceOnUse" color-interpolation-filters="sRGB">
<feFlood flood-opacity="0" result="BackgroundImageFix"/>
<feBlend mode="normal" in="SourceGraphic" in2="BackgroundImageFix" result="shape"/>
<feColorMatrix in="SourceAlpha" type="matrix" values="0 0 0 0 0 0 0 0 0 0 0 0 0 0 0 0 0 0 127 0" result="hardAlpha"/>
<feOffset dx="2.74236" dy="-4.11354"/>
<feGaussianBlur stdDeviation="6.8559"/>
<feComposite in2="hardAlpha" operator="arithmetic" k2="-1" k3="1"/>
<feColorMatrix type="matrix" values="0 0 0 0 1 0 0 0 0 1 0 0 0 0 1 0 0 0 0.15 0"/>
<feBlend mode="normal" in2="shape" result="effect1_innerShadow_143_657"/>
</filter>
<filter id="filter2_i_143_657" x="3.7985" y="4.23484" width="45.533" height="45.5954" filterUnits="userSpaceOnUse" color-interpolation-filters="sRGB">
<feFlood flood-opacity="0" result="BackgroundImageFix"/>
<feBlend mode="normal" in="SourceGraphic" in2="BackgroundImageFix" result="shape"/>
<feColorMatrix in="SourceAlpha" type="matrix" values="0 0 0 0 0 0 0 0 0 0 0 0 0 0 0 0 0 0 127 0" result="hardAlpha"/>
<feOffset dx="-1.37118" dy="-1.37118"/>
<feGaussianBlur stdDeviation="6.8559"/>
<feComposite in2="hardAlpha" operator="arithmetic" k2="-1" k3="1"/>
<feColorMatrix type="matrix" values="0 0 0 0 1 0 0 0 0 1 0 0 0 0 1 0 0 0 0.1 0"/>
<feBlend mode="normal" in2="shape" result="effect1_innerShadow_143_657"/>
</filter>
<linearGradient id="paint0_linear_143_657" x1="15.2916" y1="76.5204" x2="30.9258" y2="-2.64722" gradientUnits="userSpaceOnUse">
<stop stop-color="#3B4EF4"/>
<stop offset="0.5" stop-color="#5868F8"/>
<stop offset="1" stop-color="#978FFD"/>
</linearGradient>
<linearGradient id="paint1_linear_143_657" x1="38.1513" y1="-4.17327" x2="21.8008" y2="61.5091" gradientUnits="userSpaceOnUse">
<stop offset="0.145" stop-color="#4D46E7"/>
<stop offset="0.67" stop-color="#3940DD"/>
<stop offset="0.99" stop-color="#483AE8"/>
</linearGradient>
<linearGradient id="paint2_linear_143_657" x1="17.5833" y1="67.3048" x2="30.2814" y2="3.02157" gradientUnits="userSpaceOnUse">
<stop stop-color="#9132BB"/>
<stop offset="0.5" stop-color="#C53FB0"/>
<stop offset="1" stop-color="#D35AA7"/>
</linearGradient>
<linearGradient id="paint3_linear_143_657" x1="17.4619" y1="67.1343" x2="30.0362" y2="3.47877" gradientUnits="userSpaceOnUse">
<stop stop-color="#9132BB"/>
<stop offset="0.5" stop-color="#C53FB0"/>
<stop offset="1" stop-color="#D35AA7"/>
</linearGradient>
<linearGradient id="paint4_linear_143_657" x1="17.4619" y1="67.1343" x2="30.0362" y2="3.47877" gradientUnits="userSpaceOnUse">
<stop stop-color="#3B4EF4"/>
<stop offset="0.5" stop-color="#5868F8"/>
<stop offset="1" stop-color="#978FFD"/>
</linearGradient>
<linearGradient id="paint5_linear_143_657" x1="36.1974" y1="35.772" x2="13.3909" y2="35.0422" gradientUnits="userSpaceOnUse">
<stop stop-color="#8B97FF"/>
<stop offset="1" stop-color="#EDEFFF"/>
</linearGradient>
<linearGradient id="paint6_linear_143_657" x1="18.638" y1="30.7869" x2="44.6022" y2="32.904" gradientUnits="userSpaceOnUse">
<stop stop-color="#8B97FF"/>
<stop offset="1" stop-color="#EDEFFF"/>
</linearGradient>
<linearGradient id="paint7_linear_143_657" x1="41.9197" y1="29.2474" x2="22.4693" y2="13.8095" gradientUnits="userSpaceOnUse">
<stop stop-color="#8B97FF"/>
<stop offset="1" stop-color="#EDEFFF"/>
</linearGradient>
<linearGradient id="paint8_linear_143_657" x1="32.0904" y1="27.7901" x2="15.3791" y2="12.7217" gradientUnits="userSpaceOnUse">
<stop stop-color="#8B97FF"/>
<stop offset="1" stop-color="#EDEFFF"/>
</linearGradient>
</defs>
</svg>
