<svg width="194" height="24" viewBox="0 0 194 24" fill="none" xmlns="http://www.w3.org/2000/svg">
<path d="M9.88 4.408C9.15467 4.216 8.39733 4.12 7.608 4.12C6.81867 4.12 6.17867 4.32267 5.688 4.728C5.21867 5.112 4.984 5.66667 4.984 6.392C4.984 7.096 5.16533 7.65067 5.528 8.056C5.89067 8.46133 6.60533 8.81333 7.672 9.112L10.52 9.944C12.056 10.392 13.272 11.096 14.168 12.056C15.0853 12.9947 15.544 14.3813 15.544 16.216C15.544 18.392 14.7547 20.1093 13.176 21.368C11.6187 22.6267 9.67733 23.256 7.352 23.256C6.072 23.256 4.74933 23.096 3.384 22.776C2.04 22.4347 0.92 21.9653 0.024 21.368C0.024 21.24 0.024 20.9947 0.024 20.632C0.024 20.2693 0.0986667 19.6507 0.248 18.776C0.397333 17.9013 0.610667 17.1867 0.888 16.632H3.928C4.26933 17.2933 4.472 18.1787 4.536 19.288C5.28267 19.608 6.14667 19.768 7.128 19.768C8.13067 19.768 8.952 19.5333 9.592 19.064C10.232 18.5947 10.552 17.9227 10.552 17.048C10.552 16.6427 10.52 16.312 10.456 16.056C10.392 15.7787 10.1893 15.4907 9.848 15.192C9.528 14.872 9.05867 14.616 8.44 14.424L5.144 13.464C1.79467 12.504 0.12 10.3707 0.12 7.064C0.12 5.12267 0.824 3.576 2.232 2.424C3.64 1.25067 5.47467 0.664 7.736 0.664C10.0187 0.664 12.248 1.176 14.424 2.2C14.424 2.328 14.424 2.57333 14.424 2.936C14.424 3.29867 14.3493 3.91733 14.2 4.792C14.0507 5.66667 13.8373 6.38133 13.56 6.936H10.52C10.1573 6.424 9.944 5.58133 9.88 4.408ZM35.2348 15C35.2348 17.7947 34.5948 19.8747 33.3148 21.24C32.0561 22.584 30.0081 23.256 27.1708 23.256C24.3334 23.256 22.3388 22.5947 21.1868 21.272C20.0561 19.928 19.4908 17.8373 19.4908 15V4.664C18.6801 4.36533 18.0934 4.00267 17.7308 3.576L18.0508 0.919998H25.5388L25.8588 3.576C25.5174 3.98133 24.9308 4.344 24.0988 4.664V15.128C24.0988 16.664 24.3441 17.8053 24.8348 18.552C25.3468 19.2773 26.2534 19.64 27.5548 19.64C28.8561 19.64 29.7734 19.2667 30.3068 18.52C30.8401 17.752 31.1068 16.6213 31.1068 15.128V4.664C30.2321 4.344 29.6454 3.98133 29.3468 3.576L29.6668 0.919998H36.6748L36.9948 3.576C36.6534 3.98133 36.0668 4.344 35.2348 4.664V15ZM56.836 7.384C56.836 8.83467 56.3773 10.0507 55.46 11.032C54.564 12.0133 53.4333 12.76 52.068 13.272C53.1347 13.72 53.8387 14.264 54.18 14.904L56.516 19.352C57.5187 19.6933 58.2013 20.088 58.564 20.536L58.244 23H52.836L49.156 15.16C48.8147 14.3707 48.42 13.976 47.972 13.976H45.892V19.096C47.4493 19.4373 48.42 19.8533 48.804 20.344L48.484 23H39.844L39.524 20.344C39.8013 19.9813 40.388 19.6293 41.284 19.288V4.664C40.4093 4.344 39.8227 3.98133 39.524 3.576L39.844 0.919998H48.004C50.9907 0.962666 53.2093 1.44267 54.66 2.36C56.1107 3.27733 56.836 4.952 56.836 7.384ZM47.78 4.408H45.892V10.488H47.716C49.1667 10.488 50.244 10.2747 50.948 9.848C51.6733 9.4 52.036 8.61067 52.036 7.48C52.036 6.34933 51.6733 5.56 50.948 5.112C50.2227 4.64267 49.1667 4.408 47.78 4.408ZM66.6845 23.16L60.6045 4.664C59.6872 4.32267 59.0898 3.96 58.8125 3.576L59.1325 0.919998H66.6205L66.9405 3.576C66.6418 3.98133 66.0978 4.32267 65.3085 4.6L68.0285 14.072C68.4765 15.544 68.7538 16.8987 68.8605 18.136L68.8925 18.68H69.3405C69.3618 17.3787 69.6285 15.864 70.1405 14.136L72.9885 4.632C72.1778 4.35467 71.6125 4.00267 71.2925 3.576L71.6125 0.919998H78.9085L79.2285 3.576C78.8445 4.04533 78.1298 4.45067 77.0845 4.792L71.0685 23.16H66.6845ZM96.1608 23H81.3128L80.9928 20.344C81.2701 19.9813 81.8568 19.6293 82.7528 19.288V4.664C81.8781 4.344 81.2914 3.98133 80.9928 3.576L81.3128 0.919998H95.9048V6.488L93.5368 6.776C93.0461 6.34933 92.6514 5.56 92.3528 4.408H87.3608V9.912H91.8088C92.0648 9.272 92.3314 8.824 92.6088 8.568L94.6248 8.792V14.488L92.6088 14.744C92.3314 14.5307 92.0648 14.0827 91.8088 13.4H87.3608V19.512H92.6088C92.8861 18.4027 93.2808 17.6133 93.7928 17.144L96.1608 17.432V23ZM111.403 23H103.915L103.595 20.344C103.872 19.9813 104.459 19.6293 105.355 19.288V15.608L100.139 4.76C99.1361 4.41867 98.4534 4.024 98.0907 3.576L98.3788 1.08V1.048L98.4108 0.919998H105.899L106.219 3.576C105.963 3.93867 105.472 4.25867 104.747 4.536L105.835 7C106.453 8.408 106.987 9.80533 107.435 11.192L107.659 11.832H108.139C108.587 10.2747 109.173 8.664 109.899 7L110.923 4.664C110.069 4.32267 109.493 3.96 109.195 3.576L109.515 0.919998H116.811L117.131 3.576C116.704 4.06667 116 4.472 115.019 4.792L109.963 15.608V19.288C110.816 19.6293 111.403 19.9813 111.723 20.344L111.403 23ZM126.639 0.919998C129.157 0.919998 130.981 1.08 132.111 1.4C133.263 1.69867 134.085 2.06133 134.575 2.488C135.663 3.42667 136.207 4.86667 136.207 6.808C136.207 8.25867 135.429 9.63467 133.871 10.936C135.855 11.9387 136.847 13.8053 136.847 16.536C136.847 18.6693 136.143 20.2587 134.735 21.304C133.349 22.328 131.269 22.8933 128.495 23H119.375L119.055 20.344C119.333 19.9813 119.919 19.6293 120.815 19.288V4.664C119.941 4.344 119.354 3.98133 119.055 3.576L119.375 0.919998H126.639ZM128.271 13.432H125.423V19.512H127.631C129.082 19.512 130.181 19.2987 130.927 18.872C131.674 18.4453 132.047 17.6773 132.047 16.568C132.047 15.4587 131.749 14.6587 131.151 14.168C130.575 13.6773 129.615 13.432 128.271 13.432ZM127.087 4.408H125.423V9.944H128.047C129.135 9.944 129.967 9.66667 130.543 9.112C131.119 8.55733 131.407 7.88533 131.407 7.096C131.407 6.28533 131.205 5.67733 130.799 5.272C130.394 4.86667 129.925 4.62133 129.391 4.536C128.858 4.45067 128.09 4.408 127.087 4.408ZM156.797 15C156.797 17.7947 156.157 19.8747 154.877 21.24C153.619 22.584 151.571 23.256 148.733 23.256C145.896 23.256 143.901 22.5947 142.749 21.272C141.619 19.928 141.053 17.8373 141.053 15V4.664C140.243 4.36533 139.656 4.00267 139.293 3.576L139.613 0.919998H147.101L147.421 3.576C147.08 3.98133 146.493 4.344 145.661 4.664V15.128C145.661 16.664 145.907 17.8053 146.397 18.552C146.909 19.2773 147.816 19.64 149.117 19.64C150.419 19.64 151.336 19.2667 151.869 18.52C152.403 17.752 152.669 16.6213 152.669 15.128V4.664C151.795 4.344 151.208 3.98133 150.909 3.576L151.229 0.919998H158.237L158.557 3.576C158.216 3.98133 157.629 4.344 156.797 4.664V15ZM176.062 23H161.407L161.087 20.344C161.364 19.9813 161.951 19.6293 162.847 19.288V4.664C161.972 4.344 161.385 3.98133 161.087 3.576L161.407 0.919998H168.895L169.215 3.576C168.873 3.98133 168.287 4.344 167.455 4.664V19.512H172.511C172.788 18.4027 173.183 17.6133 173.695 17.144L176.062 17.432V23ZM193.125 23H178.469L178.149 20.344C178.426 19.9813 179.013 19.6293 179.909 19.288V4.664C179.034 4.344 178.448 3.98133 178.149 3.576L178.469 0.919998H185.957L186.277 3.576C185.936 3.98133 185.349 4.344 184.517 4.664V19.512H189.573C189.85 18.4027 190.245 17.6133 190.757 17.144L193.125 17.432V23Z" fill="#140346"/>
</svg>
