<svg width="34" height="34" viewBox="0 0 34 34" fill="none" xmlns="http://www.w3.org/2000/svg">
<g clip-path="url(#clip0_1186_433)">
<path d="M25.936 17.7968H8.8457C5.84414 17.7968 3.40039 15.353 3.40039 12.3514C3.40039 9.34988 5.83883 6.90613 8.8457 6.90613H10.4182C10.8007 3.39457 13.781 0.65332 17.3882 0.65332C21.0007 0.65332 23.981 3.39457 24.3635 6.90613H25.936C28.9376 6.90613 31.3813 9.34988 31.3813 12.3514C31.3813 15.353 28.9376 17.7968 25.936 17.7968ZM8.8457 8.42551C6.68352 8.42551 4.91977 10.1893 4.91977 12.3514C4.91977 14.5136 6.68352 16.2774 8.8457 16.2774H25.9413C28.1088 16.2774 29.8673 14.5136 29.8673 12.3514C29.8673 10.1839 28.1035 8.42551 25.9413 8.42551H22.8866V7.66582C22.8866 4.6377 20.4216 2.1727 17.3935 2.1727C14.3654 2.1727 11.8951 4.6377 11.8951 7.66582V8.42551H8.8457Z" />
<path d="M4.71273 26.7218H3.19336V21.3509H10.9709V17.0371H12.4902V22.8702H4.71273V26.7218ZM30.8077 26.7218H29.2884V22.8702H21.5109V17.0371H23.0302V21.3509H30.8077V26.7218ZM16.2409 16.9043H17.7602V26.1959H16.2409V16.9043Z" />
<path d="M7.51762 33.0861H0.393555V25.962H7.51762V33.0861ZM1.91293 31.5667H5.99824V27.4814H1.91293V31.5667ZM20.5598 33.0861H13.4411V25.962H20.5598V33.0861ZM14.9604 31.5667H19.0457V27.4814H14.9604V31.5667ZM33.6073 33.0861H26.4832V25.962H33.6073V33.0861ZM28.0026 31.5667H32.0879V27.4814H28.0026V31.5667Z" />
</g>
<defs>
<clipPath id="clip0_1186_433">
<rect width="34" height="34" fill="white"/>
</clipPath>
</defs>
</svg>
