<svg width="40" height="40" viewBox="0 0 40 40" fill="none" xmlns="http://www.w3.org/2000/svg">
<path d="M20 2.5C10.35 2.5 2.5 10.35 2.5 20C2.5 29.65 10.35 37.5 20 37.5C29.65 37.5 37.5 29.65 37.5 20C37.5 10.35 29.65 2.5 20 2.5ZM20 32.5C13.1125 32.5 7.5 26.8875 7.5 20C7.5 13.1125 13.1125 7.5 20 7.5C26.8875 7.5 32.5 13.1125 32.5 20C32.5 26.8875 26.8875 32.5 20 32.5Z" fill="#3B4EF4"/>
<path d="M20 10C14.4875 10 10 14.4875 10 20C10 25.5125 14.4875 30 20 30C25.5125 30 30 25.5125 30 20C30 14.4875 25.5125 10 20 10ZM25.3 21.5875L23.8625 22.375C23.2375 22.7125 22.725 23.225 22.375 23.8625L21.5875 25.3C21.2625 25.875 20.6625 26.2375 20 26.2375C19.3375 26.2375 18.7375 25.875 18.4125 25.3L17.625 23.8625C17.275 23.225 16.7625 22.7125 16.1375 22.375L14.7 21.5875C14.1125 21.275 13.75 20.6625 13.75 20C13.75 19.3375 14.1125 18.725 14.7 18.4125L16.1375 17.625C16.7625 17.2875 17.275 16.775 17.625 16.1375L18.4125 14.7C18.7375 14.125 19.3375 13.7625 20 13.7625C20.6625 13.7625 21.2625 14.125 21.5875 14.7L22.375 16.1375C22.725 16.7625 23.2375 17.2875 23.8625 17.625L25.3 18.4125C25.8875 18.725 26.25 19.3375 26.25 20C26.25 20.6625 25.8875 21.275 25.3 21.5875Z" fill="#8B97FF"/>
</svg>
