<svg width="692" height="533" viewBox="0 0 692 533" fill="none" xmlns="http://www.w3.org/2000/svg">
<path d="M339.006 32.0502C338.95 30.5831 340.096 29.3474 341.565 29.3105C387.709 28.1498 433.04 41.7974 470.894 68.2895C508.747 94.782 537.087 132.695 551.789 176.441C552.257 177.832 551.487 179.332 550.089 179.782L472.902 204.658C471.504 205.108 470.008 204.339 469.529 202.952C460.615 177.129 443.756 154.759 421.335 139.067C398.914 123.375 372.12 115.194 344.8 115.657C343.332 115.682 342.098 114.54 342.043 113.073L339.006 32.0502Z" fill="url(#paint0_linear_1032_8233)"/>
<path d="M369.246 457.403C369.398 458.864 368.338 460.173 366.876 460.308C326.457 464.042 285.802 456.317 249.573 438.016C248.262 437.354 247.756 435.747 248.435 434.444L285.894 362.533C286.572 361.231 288.177 360.728 289.493 361.379C310.673 371.859 334.316 376.353 357.865 374.372C359.328 374.249 360.636 375.305 360.79 376.765L369.246 457.403Z" fill="url(#paint1_linear_1032_8233)"/>
<path d="M238.345 428.84C237.597 430.103 235.966 430.522 234.711 429.759C211.244 415.487 190.708 396.866 174.209 374.89C157.711 352.913 145.563 327.998 138.41 301.483C138.027 300.066 138.886 298.617 140.308 298.252L218.863 278.102C220.285 277.737 221.732 278.595 222.126 280.009C226.451 295.534 233.638 310.125 243.325 323.027C253.011 335.929 265.016 346.903 278.719 355.393C279.967 356.166 280.388 357.794 279.64 359.058L238.345 428.84Z" fill="url(#paint2_linear_1032_8233)"/>
<path d="M138.192 289.186C136.755 289.488 135.343 288.568 135.058 287.128C128.753 255.25 129.725 222.359 137.9 190.908C138.27 189.486 139.733 188.652 141.15 189.039L219.385 210.396C220.801 210.783 221.633 212.244 221.276 213.668C216.7 231.882 216.139 250.874 219.631 269.327C219.904 270.769 218.988 272.178 217.551 272.481L138.192 289.186Z" fill="url(#paint3_linear_1032_8233)"/>
<path d="M144.077 179.251C142.68 178.796 141.915 177.296 142.386 175.905C155.727 136.55 180.148 101.858 212.74 76.0116C245.334 50.1654 284.682 34.2885 326.049 30.2596C327.511 30.1173 328.798 31.204 328.923 32.6669L335.792 113.455C335.916 114.918 334.831 116.202 333.37 116.356C308.937 118.939 285.721 128.413 266.443 143.7C247.166 158.987 232.653 179.432 224.576 202.63C224.094 204.017 222.595 204.782 221.199 204.328L144.077 179.251Z" fill="url(#paint4_linear_1032_8233)"/>
<path d="M552.531 187.904C553.946 187.509 555.414 188.336 555.791 189.754C562.847 216.295 564.777 243.946 561.469 271.224C558.162 298.502 549.68 324.891 536.487 348.977C535.781 350.265 534.158 350.716 532.878 349.995L462.232 310.179C460.953 309.458 460.503 307.839 461.198 306.545C468.824 292.346 473.739 276.842 475.68 260.828C477.622 244.813 476.555 228.584 472.542 212.975C472.177 211.553 473.001 210.087 474.415 209.693L552.531 187.904Z" fill="url(#paint5_linear_1032_8233)"/>
<path d="M528.661 357.148C529.911 357.918 530.301 359.556 529.516 360.797C513.138 386.651 491.446 408.739 465.87 425.589C440.294 442.438 411.435 453.652 381.212 458.498C379.762 458.731 378.41 457.726 378.195 456.274L366.338 376.066C366.123 374.613 367.128 373.264 368.575 373.02C386.328 370.024 403.272 363.361 418.321 353.446C433.37 343.532 446.178 330.594 455.936 315.468C456.731 314.234 458.367 313.843 459.617 314.614L528.661 357.148Z" fill="url(#paint6_linear_1032_8233)"/>
<path d="M496.076 24.9487V33.1923C496.076 34.1723 496.33 34.9104 496.839 35.4067C497.36 35.9029 498.08 36.151 498.998 36.151C499.928 36.151 500.648 35.9029 501.157 35.4067C501.678 34.9104 501.939 34.1723 501.939 33.1923V24.9487H504.061V33.155C504.061 34.2096 503.831 35.1028 503.372 35.8347C502.912 36.5666 502.298 37.1125 501.529 37.4722C500.76 37.832 499.91 38.0119 498.979 38.0119C498.049 38.0119 497.198 37.832 496.429 37.4722C495.672 37.1125 495.071 36.5666 494.624 35.8347C494.177 35.1028 493.954 34.2096 493.954 33.155V24.9487H496.076ZM510.546 38.0491C509.739 38.0491 509.014 37.9064 508.368 37.6211C507.735 37.3233 507.233 36.9264 506.86 36.4301C506.488 35.9215 506.289 35.357 506.265 34.7368H508.461C508.498 35.1709 508.703 35.5369 509.075 35.8347C509.46 36.12 509.938 36.2627 510.509 36.2627C511.104 36.2627 511.563 36.151 511.886 35.9277C512.221 35.692 512.388 35.3942 512.388 35.0345C512.388 34.6499 512.202 34.3646 511.83 34.1785C511.47 33.9924 510.893 33.7877 510.099 33.5644C509.33 33.3536 508.703 33.1489 508.219 32.9504C507.735 32.7518 507.313 32.4479 506.953 32.0385C506.606 31.6292 506.432 31.0895 506.432 30.4196C506.432 29.8738 506.594 29.3775 506.916 28.9309C507.239 28.4719 507.698 28.1122 508.294 27.8516C508.902 27.5911 509.597 27.4609 510.378 27.4609C511.545 27.4609 512.482 27.7586 513.189 28.3541C513.909 28.9371 514.293 29.7373 514.343 30.7546H512.221C512.184 30.2955 511.998 29.9296 511.663 29.6567C511.327 29.3837 510.875 29.2473 510.304 29.2473C509.745 29.2473 509.317 29.3527 509.02 29.5636C508.722 29.7745 508.573 30.0536 508.573 30.401C508.573 30.6739 508.672 30.9034 508.871 31.0895C509.069 31.2756 509.311 31.4245 509.597 31.5361C509.882 31.6353 510.304 31.7656 510.862 31.9269C511.607 32.1254 512.215 32.3301 512.686 32.541C513.17 32.7395 513.586 33.0372 513.933 33.4342C514.281 33.8311 514.46 34.3584 514.473 35.0159C514.473 35.5989 514.312 36.12 513.989 36.579C513.667 37.038 513.207 37.3978 512.612 37.6583C512.029 37.9188 511.34 38.0491 510.546 38.0491ZM526.165 32.5038C526.165 32.8884 526.141 33.2357 526.091 33.5458H518.255C518.317 34.3646 518.621 35.0221 519.167 35.5183C519.713 36.0146 520.383 36.2627 521.177 36.2627C522.318 36.2627 523.125 35.785 523.597 34.8298H525.886C525.576 35.7727 525.011 36.548 524.192 37.1559C523.386 37.7513 522.381 38.0491 521.177 38.0491C520.197 38.0491 519.316 37.832 518.534 37.3978C517.765 36.9512 517.157 36.3309 516.71 35.5369C516.276 34.7306 516.059 33.8002 516.059 32.7457C516.059 31.6912 516.269 30.767 516.691 29.973C517.125 29.1667 517.728 28.5463 518.497 28.1122C519.279 27.678 520.172 27.4609 521.177 27.4609C522.145 27.4609 523.007 27.6717 523.764 28.0935C524.521 28.5154 525.11 29.1108 525.532 29.88C525.955 30.6367 526.165 31.5113 526.165 32.5038ZM523.95 31.8338C523.938 31.0523 523.659 30.4258 523.113 29.9544C522.567 29.483 521.89 29.2473 521.084 29.2473C520.352 29.2473 519.725 29.483 519.204 29.9544C518.683 30.4134 518.372 31.0399 518.273 31.8338H523.95ZM530.375 29.117C530.686 28.596 531.095 28.1928 531.604 27.9075C532.125 27.6097 532.739 27.4609 533.446 27.4609V29.6567H532.906C532.076 29.6567 531.443 29.8675 531.008 30.2893C530.587 30.7112 530.375 31.4431 530.375 32.4851V37.8816H528.253V27.6283H530.375V29.117ZM546.951 37.8816L543.973 32.7084H542.354V37.8816H540.232V24.9487H544.699C545.692 24.9487 546.529 25.1224 547.212 25.4697C547.906 25.8171 548.422 26.2823 548.757 26.8654C549.104 27.4484 549.278 28.0997 549.278 28.8193C549.278 29.6628 549.03 30.432 548.533 31.1267C548.049 31.8091 547.299 32.2743 546.281 32.5224L549.483 37.8816H546.951ZM542.354 31.0151H544.699C545.493 31.0151 546.089 30.8166 546.486 30.4196C546.895 30.0226 547.1 29.4892 547.1 28.8193C547.1 28.1494 546.901 27.6283 546.504 27.2562C546.108 26.8716 545.505 26.6793 544.699 26.6793H542.354V31.0151ZM561.391 32.5038C561.391 32.8884 561.367 33.2357 561.317 33.5458H553.481C553.543 34.3646 553.847 35.0221 554.393 35.5183C554.939 36.0146 555.61 36.2627 556.403 36.2627C557.545 36.2627 558.352 35.785 558.823 34.8298H561.112C560.803 35.7727 560.237 36.548 559.419 37.1559C558.612 37.7513 557.607 38.0491 556.403 38.0491C555.423 38.0491 554.542 37.832 553.76 37.3978C552.991 36.9512 552.383 36.3309 551.936 35.5369C551.502 34.7306 551.285 33.8002 551.285 32.7457C551.285 31.6912 551.496 30.767 551.918 29.973C552.352 29.1667 552.954 28.5463 553.723 28.1122C554.505 27.678 555.398 27.4609 556.403 27.4609C557.371 27.4609 558.234 27.6717 558.99 28.0935C559.748 28.5154 560.337 29.1108 560.759 29.88C561.181 30.6367 561.391 31.5113 561.391 32.5038ZM559.177 31.8338C559.165 31.0523 558.885 30.4258 558.339 29.9544C557.793 29.483 557.117 29.2473 556.31 29.2473C555.578 29.2473 554.951 29.483 554.43 29.9544C553.909 30.4134 553.599 31.0399 553.5 31.8338H559.177ZM577.254 27.6283L574.071 37.8816H571.837L569.771 30.308L567.705 37.8816H565.472L562.27 27.6283H564.429L566.57 35.8719L568.748 27.6283H570.962L573.047 35.8347L575.169 27.6283H577.254ZM578.132 32.7084C578.132 31.6788 578.342 30.767 578.765 29.973C579.199 29.179 579.782 28.5649 580.514 28.1308C581.259 27.6842 582.078 27.4609 582.971 27.4609C583.777 27.4609 584.479 27.6222 585.074 27.9447C585.683 28.2548 586.167 28.6456 586.526 29.117V27.6283H588.667V37.8816H586.526V36.3557C586.167 36.8395 585.676 37.2427 585.056 37.5653C584.436 37.8878 583.728 38.0491 582.934 38.0491C582.053 38.0491 581.246 37.8258 580.514 37.3792C579.782 36.9201 579.199 36.2875 578.765 35.4811C578.342 34.6623 578.132 33.7381 578.132 32.7084ZM586.526 32.7457C586.526 32.0385 586.377 31.4245 586.079 30.9034C585.794 30.3824 585.415 29.9854 584.944 29.7125C584.473 29.4395 583.964 29.3031 583.418 29.3031C582.872 29.3031 582.363 29.4395 581.892 29.7125C581.42 29.973 581.035 30.3638 580.738 30.8848C580.452 31.3934 580.309 32.0013 580.309 32.7084C580.309 33.4156 580.452 34.0358 580.738 34.5693C581.035 35.1028 581.42 35.5121 581.892 35.7975C582.375 36.0704 582.884 36.2068 583.418 36.2068C583.964 36.2068 584.473 36.0704 584.944 35.7975C585.415 35.5245 585.794 35.1275 586.079 34.6065C586.377 34.073 586.526 33.4528 586.526 32.7457ZM593.576 29.117C593.886 28.596 594.295 28.1928 594.804 27.9075C595.325 27.6097 595.94 27.4609 596.647 27.4609V29.6567H596.107C595.276 29.6567 594.643 29.8675 594.209 30.2893C593.787 30.7112 593.576 31.4431 593.576 32.4851V37.8816H591.454V27.6283H593.576V29.117ZM597.89 32.7084C597.89 31.6788 598.101 30.767 598.523 29.973C598.957 29.179 599.54 28.5649 600.272 28.1308C601.017 27.6842 601.842 27.4609 602.748 27.4609C603.418 27.4609 604.075 27.6097 604.721 27.9075C605.378 28.1928 605.9 28.5774 606.284 29.0612V24.1113H608.425V37.8816H606.284V36.3371C605.937 36.8333 605.453 37.2427 604.833 37.5653C604.224 37.8878 603.523 38.0491 602.729 38.0491C601.836 38.0491 601.017 37.8258 600.272 37.3792C599.54 36.9201 598.957 36.2875 598.523 35.4811C598.101 34.6623 597.89 33.7381 597.89 32.7084ZM606.284 32.7457C606.284 32.0385 606.135 31.4245 605.838 30.9034C605.552 30.3824 605.174 29.9854 604.702 29.7125C604.23 29.4395 603.722 29.3031 603.176 29.3031C602.63 29.3031 602.121 29.4395 601.65 29.7125C601.178 29.973 600.794 30.3638 600.496 30.8848C600.21 31.3934 600.068 32.0013 600.068 32.7084C600.068 33.4156 600.21 34.0358 600.496 34.5693C600.794 35.1028 601.178 35.5121 601.65 35.7975C602.134 36.0704 602.642 36.2068 603.176 36.2068C603.722 36.2068 604.23 36.0704 604.702 35.7975C605.174 35.5245 605.552 35.1275 605.838 34.6065C606.135 34.073 606.284 33.4528 606.284 32.7457Z" fill="#763DF2"/>
<path d="M542.177 57.189L537.003 69.1171H534.862L540.092 57.4123H533.206V55.6073H542.177V57.189ZM543.993 62.1575C543.993 60.0113 544.353 58.3366 545.073 57.1332C545.804 55.9175 547.058 55.3096 548.832 55.3096C550.607 55.3096 551.854 55.9175 552.574 57.1332C553.305 58.3366 553.672 60.0113 553.672 62.1575C553.672 64.3285 553.305 66.0281 552.574 67.2562C551.854 68.4717 550.607 69.0798 548.832 69.0798C547.058 69.0798 545.804 68.4717 545.073 67.2562C544.353 66.0281 543.993 64.3285 543.993 62.1575ZM551.587 62.1575C551.587 61.1526 551.519 60.3028 551.382 59.6081C551.258 58.9134 550.997 58.3489 550.601 57.9148C550.204 57.4682 549.614 57.2449 548.832 57.2449C548.051 57.2449 547.461 57.4682 547.064 57.9148C546.667 58.3489 546.4 58.9134 546.264 59.6081C546.14 60.3028 546.078 61.1526 546.078 62.1575C546.078 63.1996 546.14 64.0742 546.264 64.7813C546.388 65.4884 546.649 66.0591 547.046 66.4933C547.455 66.9272 548.051 67.1446 548.832 67.1446C549.614 67.1446 550.204 66.9272 550.601 66.4933C551.01 66.0591 551.277 65.4884 551.401 64.7813C551.525 64.0742 551.587 63.1996 551.587 62.1575ZM555.582 58.8266C555.582 57.9209 555.842 57.2138 556.363 56.7052C556.897 56.1842 557.58 55.9237 558.411 55.9237C559.242 55.9237 559.918 56.1842 560.44 56.7052C560.973 57.2138 561.24 57.9209 561.24 58.8266C561.24 59.7322 560.973 60.4455 560.44 60.9665C559.918 61.4876 559.242 61.7481 558.411 61.7481C557.58 61.7481 556.897 61.4876 556.363 60.9665C555.842 60.4455 555.582 59.7322 555.582 58.8266ZM566.935 56.1656L559.509 69.1171H557.424L564.851 56.1656H566.935ZM558.411 57.2076C557.629 57.2076 557.238 57.7473 557.238 58.8266C557.238 59.9183 557.629 60.4641 558.411 60.4641C558.783 60.4641 559.069 60.3339 559.267 60.0733C559.478 59.8004 559.583 59.3848 559.583 58.8266C559.583 57.7473 559.192 57.2076 558.411 57.2076ZM563.157 66.4374C563.157 65.5318 563.418 64.8247 563.939 64.3161C564.473 63.795 565.155 63.5345 565.986 63.5345C566.805 63.5345 567.475 63.795 567.996 64.3161C568.53 64.8247 568.797 65.5318 568.797 66.4374C568.797 67.3433 568.53 68.0564 567.996 68.5774C567.475 69.0985 566.805 69.359 565.986 69.359C565.155 69.359 564.473 69.0985 563.939 68.5774C563.418 68.0564 563.157 67.3433 563.157 66.4374ZM565.968 64.8185C565.186 64.8185 564.795 65.3582 564.795 66.4374C564.795 67.5167 565.186 68.0564 565.968 68.0564C566.749 68.0564 567.14 67.5167 567.14 66.4374C567.14 65.3582 566.749 64.8185 565.968 64.8185Z" fill="#763DF2"/>
<path d="M577.839 263.536V271.779C577.839 272.759 578.094 273.497 578.602 273.994C579.124 274.49 579.843 274.738 580.761 274.738C581.692 274.738 582.412 274.49 582.921 273.994C583.442 273.497 583.702 272.759 583.702 271.779V263.536H585.824V271.742C585.824 272.797 585.595 273.69 585.135 274.422C584.676 275.153 584.062 275.7 583.293 276.059C582.524 276.419 581.674 276.599 580.743 276.599C579.812 276.599 578.962 276.419 578.193 276.059C577.436 275.7 576.834 275.153 576.387 274.422C575.941 273.69 575.717 272.797 575.717 271.742V263.536H577.839ZM592.309 276.636C591.503 276.636 590.777 276.493 590.132 276.208C589.499 275.91 588.996 275.514 588.624 275.017C588.252 274.509 588.053 273.944 588.028 273.324H590.225C590.262 273.758 590.467 274.124 590.839 274.422C591.224 274.707 591.701 274.85 592.272 274.85C592.868 274.85 593.327 274.738 593.65 274.515C593.985 274.279 594.152 273.981 594.152 273.621C594.152 273.237 593.966 272.952 593.594 272.765C593.234 272.579 592.657 272.375 591.863 272.151C591.094 271.941 590.467 271.736 589.983 271.537C589.499 271.339 589.077 271.035 588.717 270.625C588.369 270.216 588.196 269.676 588.196 269.007C588.196 268.461 588.358 267.964 588.68 267.518C589.002 267.059 589.462 266.699 590.057 266.439C590.666 266.178 591.36 266.048 592.142 266.048C593.309 266.048 594.245 266.346 594.952 266.941C595.672 267.524 596.057 268.324 596.106 269.341H593.985C593.947 268.882 593.761 268.517 593.426 268.244C593.091 267.97 592.639 267.834 592.067 267.834C591.509 267.834 591.081 267.94 590.783 268.151C590.485 268.361 590.336 268.64 590.336 268.988C590.336 269.261 590.436 269.49 590.634 269.676C590.833 269.863 591.075 270.011 591.36 270.123C591.645 270.222 592.067 270.352 592.626 270.514C593.37 270.713 593.979 270.917 594.45 271.128C594.934 271.327 595.349 271.624 595.697 272.021C596.045 272.418 596.224 272.946 596.237 273.603C596.237 274.186 596.075 274.707 595.753 275.166C595.43 275.625 594.971 275.985 594.375 276.245C593.792 276.506 593.104 276.636 592.309 276.636ZM607.929 271.091C607.929 271.475 607.904 271.822 607.855 272.133H600.019C600.08 272.952 600.385 273.609 600.931 274.105C601.476 274.602 602.146 274.85 602.941 274.85C604.082 274.85 604.889 274.372 605.36 273.417H607.65C607.339 274.36 606.775 275.135 605.956 275.743C605.15 276.338 604.145 276.636 602.941 276.636C601.96 276.636 601.079 276.419 600.298 275.985C599.529 275.538 598.92 274.918 598.474 274.124C598.04 273.318 597.822 272.387 597.822 271.333C597.822 270.278 598.033 269.354 598.455 268.56C598.889 267.754 599.491 267.133 600.26 266.699C601.042 266.265 601.936 266.048 602.941 266.048C603.909 266.048 604.771 266.258 605.528 266.68C606.285 267.102 606.874 267.698 607.296 268.467C607.718 269.224 607.929 270.098 607.929 271.091ZM605.714 270.421C605.701 269.639 605.422 269.012 604.876 268.541C604.331 268.07 603.654 267.834 602.848 267.834C602.116 267.834 601.489 268.07 600.968 268.541C600.447 269.001 600.136 269.627 600.037 270.421H605.714ZM612.139 267.704C612.449 267.183 612.859 266.779 613.367 266.494C613.888 266.197 614.503 266.048 615.21 266.048V268.244H614.67C613.839 268.244 613.206 268.454 612.772 268.876C612.35 269.298 612.139 270.03 612.139 271.072V276.469H610.017V266.215H612.139V267.704ZM628.715 276.469L625.737 271.295H624.118V276.469H621.996V263.536H626.463C627.455 263.536 628.293 263.709 628.975 264.057C629.67 264.404 630.185 264.869 630.52 265.452C630.868 266.035 631.041 266.686 631.041 267.406C631.041 268.25 630.794 269.019 630.297 269.714C629.813 270.396 629.063 270.861 628.045 271.109L631.246 276.469H628.715ZM624.118 269.602H626.463C627.257 269.602 627.853 269.403 628.25 269.007C628.659 268.61 628.864 268.076 628.864 267.406C628.864 266.736 628.665 266.215 628.268 265.843C627.871 265.458 627.269 265.266 626.463 265.266H624.118V269.602ZM643.155 271.091C643.155 271.475 643.131 271.822 643.081 272.133H635.245C635.307 272.952 635.611 273.609 636.157 274.105C636.703 274.602 637.373 274.85 638.167 274.85C639.309 274.85 640.115 274.372 640.587 273.417H642.876C642.566 274.36 642.001 275.135 641.182 275.743C640.376 276.338 639.371 276.636 638.167 276.636C637.187 276.636 636.306 276.419 635.524 275.985C634.755 275.538 634.147 274.918 633.7 274.124C633.266 273.318 633.048 272.387 633.048 271.333C633.048 270.278 633.26 269.354 633.681 268.56C634.116 267.754 634.718 267.133 635.487 266.699C636.268 266.265 637.162 266.048 638.167 266.048C639.135 266.048 639.998 266.258 640.754 266.68C641.511 267.102 642.101 267.698 642.522 268.467C642.944 269.224 643.155 270.098 643.155 271.091ZM640.94 270.421C640.928 269.639 640.649 269.012 640.103 268.541C639.557 268.07 638.881 267.834 638.074 267.834C637.342 267.834 636.715 268.07 636.194 268.541C635.673 269.001 635.363 269.627 635.263 270.421H640.94ZM659.017 266.215L655.834 276.469H653.601L651.535 268.895L649.469 276.469H647.235L644.034 266.215H646.193L648.334 274.459L650.511 266.215H652.726L654.811 274.422L656.933 266.215H659.017ZM659.895 271.295C659.895 270.266 660.106 269.354 660.528 268.56C660.962 267.766 661.546 267.152 662.278 266.718C663.022 266.271 663.841 266.048 664.735 266.048C665.543 266.048 666.241 266.209 666.839 266.532C667.444 266.842 667.93 267.233 668.289 267.704V266.215H670.429V276.469H668.289V274.943C667.93 275.426 667.438 275.83 666.819 276.152C666.201 276.474 665.49 276.636 664.698 276.636C663.817 276.636 663.01 276.413 662.278 275.966C661.546 275.507 660.962 274.874 660.528 274.068C660.106 273.249 659.895 272.325 659.895 271.295ZM668.289 271.333C668.289 270.625 668.142 270.011 667.843 269.49C667.557 268.969 667.178 268.573 666.706 268.299C666.234 268.026 665.729 267.89 665.184 267.89C664.636 267.89 664.127 268.026 663.655 268.299C663.184 268.56 662.799 268.951 662.501 269.472C662.216 269.98 662.073 270.588 662.073 271.295C662.073 272.002 662.216 272.623 662.501 273.156C662.799 273.69 663.184 274.099 663.655 274.384C664.139 274.658 664.648 274.794 665.184 274.794C665.729 274.794 666.234 274.658 666.706 274.384C667.178 274.111 667.557 273.714 667.843 273.193C668.142 272.66 668.289 272.04 668.289 271.333ZM675.341 267.704C675.647 267.183 676.059 266.779 676.565 266.494C677.09 266.197 677.701 266.048 678.413 266.048V268.244H677.867C677.037 268.244 676.405 268.454 675.973 268.876C675.548 269.298 675.341 270.03 675.341 271.072V276.469H673.214V266.215H675.341V267.704ZM679.656 271.295C679.656 270.266 679.862 269.354 680.287 268.56C680.719 267.766 681.304 267.152 682.035 266.718C682.78 266.271 683.604 266.048 684.508 266.048C685.18 266.048 685.838 266.197 686.483 266.494C687.141 266.779 687.666 267.164 688.045 267.648V262.698H690.185V276.469H688.045V274.924C687.699 275.42 687.214 275.83 686.596 276.152C685.991 276.474 685.286 276.636 684.495 276.636C683.598 276.636 682.78 276.413 682.035 275.966C681.304 275.507 680.719 274.874 680.287 274.068C679.862 273.249 679.656 272.325 679.656 271.295ZM688.045 271.333C688.045 270.625 687.899 270.011 687.599 269.49C687.314 268.969 686.935 268.573 686.463 268.299C685.997 268.026 685.485 267.89 684.94 267.89C684.395 267.89 683.883 268.026 683.411 268.299C682.939 268.56 682.554 268.951 682.261 269.472C681.976 269.98 681.829 270.588 681.829 271.295C681.829 272.002 681.976 272.623 682.261 273.156C682.554 273.69 682.939 274.099 683.411 274.384C683.897 274.658 684.409 274.794 684.94 274.794C685.485 274.794 685.997 274.658 686.463 274.384C686.935 274.111 687.314 273.714 687.599 273.193C687.899 272.66 688.045 272.04 688.045 271.333Z" fill="#502B47"/>
<path d="M623.941 295.777L618.766 307.705H616.626L621.856 296H614.969V294.195H623.941V295.777ZM625.757 300.745C625.757 298.599 626.116 296.925 626.836 295.721C627.568 294.506 628.822 293.897 630.596 293.897C632.37 293.897 633.617 294.506 634.337 295.721C635.069 296.925 635.435 298.599 635.435 300.745C635.435 302.917 635.069 304.616 634.337 305.844C633.617 307.06 632.37 307.668 630.596 307.668C628.822 307.668 627.568 307.06 626.836 305.844C626.116 304.616 625.757 302.917 625.757 300.745ZM633.351 300.745C633.351 299.741 633.282 298.891 633.146 298.196C633.022 297.502 632.761 296.937 632.364 296.503C631.967 296.056 631.378 295.833 630.596 295.833C629.814 295.833 629.225 296.056 628.828 296.503C628.431 296.937 628.164 297.502 628.027 298.196C627.903 298.891 627.841 299.741 627.841 300.745C627.841 301.787 627.903 302.662 628.027 303.369C628.152 304.076 628.412 304.647 628.809 305.081C629.219 305.515 629.814 305.732 630.596 305.732C631.378 305.732 631.967 305.515 632.364 305.081C632.774 304.647 633.04 304.076 633.165 303.369C633.289 302.662 633.351 301.787 633.351 300.745ZM637.345 297.414C637.345 296.509 637.606 295.802 638.127 295.293C638.661 294.772 639.343 294.512 640.174 294.512C641.006 294.512 641.682 294.772 642.203 295.293C642.737 295.802 643.004 296.509 643.004 297.414C643.004 298.32 642.737 299.033 642.203 299.554C641.682 300.075 641.006 300.336 640.174 300.336C639.343 300.336 638.661 300.075 638.127 299.554C637.606 299.033 637.345 298.32 637.345 297.414ZM648.699 294.753L641.273 307.705H639.188L646.614 294.753H648.699ZM640.174 295.796C639.393 295.796 639.002 296.335 639.002 297.414C639.002 298.506 639.393 299.052 640.174 299.052C640.547 299.052 640.832 298.922 641.031 298.661C641.242 298.388 641.347 297.973 641.347 297.414C641.347 296.335 640.956 295.796 640.174 295.796ZM644.921 305.025C644.921 304.119 645.181 303.412 645.702 302.904C646.236 302.383 646.919 302.122 647.75 302.122C648.569 302.122 649.239 302.383 649.76 302.904C650.294 303.412 650.56 304.119 650.56 305.025C650.56 305.931 650.294 306.644 649.76 307.165C649.239 307.686 648.569 307.947 647.75 307.947C646.919 307.947 646.236 307.686 645.702 307.165C645.181 306.644 644.921 305.931 644.921 305.025ZM647.731 303.406C646.949 303.406 646.559 303.946 646.559 305.025C646.559 306.105 646.949 306.644 647.731 306.644C648.513 306.644 648.904 306.105 648.904 305.025C648.904 303.946 648.513 303.406 647.731 303.406Z" fill="#502B47"/>
<path d="M440.764 468.862L441.339 477.085C441.407 478.063 441.713 478.781 442.255 479.241C442.809 479.7 443.544 479.897 444.46 479.833C445.389 479.768 446.089 479.47 446.562 478.94C447.047 478.408 447.256 477.654 447.188 476.677L446.613 468.453L448.729 468.305L449.302 476.491C449.375 477.543 449.208 478.45 448.802 479.213C448.395 479.975 447.82 480.562 447.078 480.974C446.335 481.387 445.5 481.626 444.572 481.691C443.643 481.755 442.783 481.636 441.99 481.33C441.21 481.024 440.571 480.522 440.075 479.823C439.578 479.124 439.293 478.248 439.219 477.196L438.647 469.01L440.764 468.862ZM456.112 480.921C455.308 480.978 454.574 480.886 453.91 480.646C453.258 480.393 452.73 480.032 452.323 479.563C451.917 479.082 451.679 478.533 451.611 477.915L453.802 477.762C453.87 478.193 454.099 478.543 454.491 478.814C454.895 479.072 455.381 479.181 455.951 479.141C456.545 479.1 456.995 478.957 457.302 478.711C457.619 478.453 457.766 478.145 457.74 477.786C457.714 477.402 457.508 477.13 457.124 476.97C456.752 476.81 456.162 476.646 455.354 476.478C454.572 476.322 453.933 476.161 453.436 475.997C452.94 475.833 452.497 475.559 452.11 475.176C451.734 474.792 451.524 474.265 451.477 473.597C451.439 473.053 451.565 472.546 451.855 472.078C452.145 471.598 452.579 471.207 453.154 470.906C453.743 470.604 454.427 470.425 455.206 470.37C456.37 470.289 457.326 470.52 458.073 471.065C458.831 471.597 459.271 472.368 459.392 473.379L457.274 473.528C457.205 473.072 456.995 472.72 456.641 472.471C456.288 472.222 455.827 472.118 455.257 472.158C454.7 472.197 454.28 472.331 453.998 472.563C453.715 472.794 453.586 473.083 453.611 473.429C453.63 473.702 453.745 473.924 453.956 474.095C454.167 474.267 454.419 474.399 454.711 474.49C455.003 474.569 455.433 474.67 456.001 474.792C456.758 474.938 457.378 475.099 457.863 475.277C458.36 475.442 458.795 475.71 459.17 476.081C459.544 476.453 459.761 476.966 459.818 477.622C459.86 478.203 459.735 478.734 459.445 479.215C459.155 479.695 458.722 480.086 458.147 480.388C457.583 480.688 456.905 480.866 456.112 480.921ZM471.307 474.3C471.334 474.683 471.334 475.032 471.306 475.345L463.489 475.891C463.607 476.704 463.957 477.338 464.536 477.795C465.115 478.252 465.801 478.453 466.594 478.398C467.732 478.318 468.503 477.785 468.907 476.799L471.191 476.64C470.948 477.602 470.438 478.415 469.663 479.078C468.901 479.729 467.919 480.096 466.718 480.18C465.74 480.248 464.846 480.093 464.036 479.714C463.237 479.322 462.588 478.746 462.087 477.985C461.597 477.211 461.315 476.298 461.242 475.246C461.169 474.194 461.314 473.258 461.68 472.436C462.057 471.602 462.614 470.94 463.351 470.454C464.101 469.966 464.977 469.688 465.979 469.617C466.945 469.55 467.82 469.7 468.604 470.068C469.389 470.436 470.018 470.989 470.493 471.727C470.966 472.452 471.238 473.31 471.307 474.3ZM469.051 473.786C468.984 473.007 468.662 472.402 468.085 471.97C467.507 471.538 466.816 471.35 466.011 471.406C465.281 471.457 464.672 471.736 464.185 472.242C463.697 472.737 463.431 473.383 463.388 474.182L469.051 473.786ZM475.27 470.628C475.544 470.086 475.924 469.656 476.412 469.335C476.911 469.003 477.513 468.811 478.219 468.762L478.372 470.952L477.834 470.99C477.004 471.047 476.388 471.302 475.984 471.753C475.592 472.203 475.433 472.948 475.506 473.988L475.882 479.371L473.765 479.519L473.05 469.291L475.167 469.143L475.27 470.628ZM492.418 478.215L489.086 473.263L487.471 473.376L487.831 478.536L485.715 478.684L484.812 465.783L489.269 465.471C490.259 465.402 491.107 465.517 491.811 465.815C492.529 466.114 493.075 466.542 493.45 467.1C493.837 467.657 494.056 468.295 494.106 469.012C494.165 469.855 493.971 470.639 493.524 471.366C493.09 472.081 492.373 472.597 491.375 472.916L494.943 478.039L492.418 478.215ZM487.352 471.686L489.692 471.523C490.484 471.467 491.064 471.228 491.433 470.804C491.813 470.38 491.981 469.833 491.934 469.165C491.887 468.496 491.652 467.99 491.23 467.647C490.808 467.291 490.194 467.141 489.389 467.197L487.05 467.361L487.352 471.686ZM506.448 471.844C506.474 472.227 506.474 472.575 506.446 472.888L498.629 473.435C498.748 474.247 499.098 474.881 499.677 475.339C500.256 475.796 500.942 475.997 501.734 475.941C502.873 475.861 503.644 475.329 504.048 474.343L506.331 474.183C506.088 475.145 505.579 475.958 504.804 476.622C504.041 477.272 503.059 477.639 501.858 477.723C500.88 477.792 499.986 477.636 499.177 477.257C498.378 476.866 497.728 476.29 497.227 475.529C496.738 474.755 496.456 473.841 496.382 472.789C496.309 471.737 496.455 470.801 496.82 469.979C497.197 469.145 497.754 468.484 498.491 467.997C499.241 467.51 500.117 467.231 501.12 467.161C502.085 467.093 502.96 467.243 503.745 467.612C504.529 467.979 505.159 468.532 505.633 469.27C506.107 469.995 506.379 470.853 506.448 471.844ZM504.192 471.329C504.124 470.551 503.802 469.946 503.225 469.513C502.647 469.081 501.956 468.893 501.152 468.949C500.421 469.001 499.813 469.279 499.326 469.785C498.838 470.28 498.572 470.926 498.529 471.725L504.192 471.329ZM521.93 465.874L519.471 476.324L517.243 476.48L514.653 469.068L513.121 476.768L510.893 476.924L506.983 466.918L509.137 466.768L511.848 474.842L513.445 466.467L515.655 466.312L518.307 474.353L519.851 466.019L521.93 465.874ZM523.161 470.88C523.09 469.853 523.236 468.929 523.601 468.107C523.98 467.285 524.519 466.632 525.219 466.147C525.93 465.65 526.732 465.37 527.622 465.308C528.427 465.252 529.138 465.363 529.754 465.644C530.382 465.911 530.893 466.267 531.285 466.712L531.181 465.227L533.316 465.077L534.031 475.306L531.896 475.455L531.79 473.933C531.465 474.441 531.004 474.877 530.407 475.242C529.811 475.607 529.117 475.817 528.324 475.873C527.446 475.934 526.625 475.768 525.864 475.373C525.102 474.967 524.476 474.376 523.986 473.602C523.508 472.815 523.233 471.907 523.161 470.88ZM531.538 470.332C531.489 469.627 531.297 469.024 530.963 468.525C530.642 468.026 530.238 467.655 529.748 467.416C529.258 467.177 528.741 467.077 528.197 467.114C527.652 467.152 527.155 467.324 526.703 467.629C526.25 467.922 525.894 468.339 525.634 468.879C525.384 469.407 525.285 470.023 525.334 470.728C525.383 471.434 525.568 472.042 525.891 472.555C526.225 473.066 526.637 473.448 527.127 473.699C527.629 473.938 528.146 474.039 528.679 474.002C529.223 473.963 529.721 473.792 530.172 473.487C530.624 473.181 530.973 472.759 531.222 472.219C531.482 471.666 531.587 471.037 531.538 470.332ZM538.317 466.221C538.59 465.679 538.97 465.248 539.458 464.928C539.957 464.595 540.559 464.404 541.265 464.354L541.418 466.544L540.879 466.582C540.051 466.64 539.434 466.894 539.03 467.346C538.639 467.796 538.479 468.541 538.552 469.58L538.928 474.964L536.812 475.111L536.096 464.883L538.213 464.735L538.317 466.221ZM542.871 469.502C542.799 468.475 542.946 467.55 543.312 466.729C543.689 465.907 544.228 465.254 544.928 464.77C545.64 464.272 546.447 463.992 547.351 463.928C548.02 463.882 548.686 463.984 549.35 464.237C550.026 464.475 550.573 464.822 550.991 465.278L550.645 460.34L552.78 460.191L553.742 473.928L551.606 474.077L551.498 472.537C551.186 473.056 550.732 473.498 550.136 473.863C549.552 474.227 548.864 474.437 548.071 474.492C547.18 474.554 546.348 474.389 545.574 473.996C544.811 473.589 544.185 472.998 543.696 472.224C543.218 471.437 542.943 470.529 542.871 469.502ZM551.248 468.954C551.198 468.248 551.007 467.646 550.674 467.147C550.353 466.647 549.947 466.278 549.458 466.038C548.969 465.799 548.452 465.698 547.907 465.737C547.362 465.775 546.864 465.946 546.413 466.251C545.961 466.544 545.604 466.961 545.343 467.501C545.094 468.029 544.994 468.645 545.043 469.35C545.093 470.056 545.279 470.665 545.601 471.177C545.935 471.688 546.347 472.07 546.838 472.321C547.339 472.56 547.856 472.66 548.388 472.623C548.933 472.585 549.431 472.414 549.882 472.109C550.333 471.804 550.684 471.381 550.932 470.841C551.192 470.288 551.297 469.659 551.248 468.954Z" fill="#E4751F"/>
<path d="M489.003 497.809L484.673 510.068L482.537 510.217L486.939 498.176L480.069 498.657L479.943 496.856L488.892 496.23L489.003 497.809ZM491.16 502.638C491.011 500.497 491.253 498.801 491.887 497.551C492.532 496.287 493.74 495.593 495.511 495.469C497.281 495.346 498.567 495.865 499.37 497.028C500.184 498.177 500.666 499.822 500.816 501.963C500.967 504.129 500.721 505.849 500.076 507.126C499.443 508.389 498.241 509.082 496.471 509.206C494.702 509.33 493.409 508.811 492.594 507.649C491.79 506.474 491.312 504.803 491.16 502.638ZM498.737 502.108C498.666 501.106 498.539 500.263 498.354 499.58C498.182 498.895 497.882 498.35 497.456 497.945C497.029 497.527 496.425 497.345 495.645 497.4C494.866 497.454 494.293 497.718 493.928 498.191C493.563 498.652 493.335 499.234 493.248 499.937C493.173 500.638 493.17 501.49 493.24 502.493C493.313 503.532 493.436 504.4 493.609 505.097C493.782 505.794 494.082 506.345 494.508 506.751C494.947 507.155 495.556 507.33 496.336 507.276C497.116 507.221 497.689 506.963 498.055 506.502C498.433 506.041 498.659 505.453 498.734 504.739C498.808 504.025 498.809 503.148 498.737 502.108ZM502.489 498.507C502.426 497.603 502.637 496.88 503.121 496.337C503.616 495.78 504.279 495.472 505.109 495.414C505.938 495.356 506.631 495.568 507.187 496.052C507.755 496.522 508.07 497.209 508.133 498.112C508.197 499.015 507.981 499.746 507.485 500.303C507.001 500.859 506.345 501.166 505.515 501.224C504.686 501.282 503.987 501.07 503.418 500.587C502.862 500.104 502.552 499.41 502.489 498.507ZM513.63 495.061L507.125 508.499L505.045 508.644L511.55 495.206L513.63 495.061ZM505.199 496.695C504.418 496.749 504.066 497.315 504.142 498.391C504.217 499.481 504.645 499.998 505.425 499.943C505.797 499.917 506.073 499.767 506.252 499.494C506.444 499.207 506.52 498.785 506.481 498.228C506.406 497.151 505.978 496.64 505.199 496.695ZM510.577 505.571C510.514 504.668 510.725 503.944 511.209 503.4C511.704 502.844 512.367 502.536 513.197 502.478C514.014 502.421 514.7 502.634 515.257 503.117C515.825 503.587 516.14 504.274 516.203 505.178C516.266 506.081 516.05 506.811 515.554 507.368C515.07 507.924 514.42 508.231 513.603 508.288C512.774 508.346 512.075 508.134 511.506 507.651C510.95 507.168 510.64 506.474 510.577 505.571ZM513.268 503.76C512.488 503.814 512.136 504.38 512.211 505.457C512.286 506.533 512.713 507.044 513.494 506.99C514.274 506.935 514.626 506.37 514.55 505.293C514.475 504.217 514.048 503.705 513.268 503.76Z" fill="#E4751F"/>
<path d="M224.129 469.878L223.267 478.076C223.164 479.051 223.34 479.811 223.794 480.358C224.261 480.906 224.951 481.228 225.864 481.324C226.789 481.421 227.531 481.25 228.089 480.809C228.659 480.37 228.996 479.664 229.098 478.689L229.959 470.49L232.07 470.712L231.212 478.873C231.101 479.922 230.78 480.787 230.247 481.467C229.713 482.147 229.046 482.625 228.243 482.903C227.44 483.18 226.576 483.27 225.651 483.173C224.725 483.076 223.898 482.808 223.171 482.37C222.456 481.933 221.915 481.327 221.546 480.552C221.179 479.778 221.051 478.866 221.16 477.817L222.018 469.656L224.129 469.878ZM237.15 484.419C236.348 484.334 235.641 484.116 235.029 483.765C234.431 483.403 233.973 482.956 233.654 482.423C233.337 481.879 233.199 481.297 233.239 480.677L235.423 480.906C235.415 481.342 235.58 481.728 235.919 482.063C236.272 482.386 236.732 482.578 237.3 482.638C237.892 482.7 238.361 482.637 238.705 482.449C239.062 482.25 239.26 481.971 239.298 481.613C239.338 481.231 239.183 480.927 238.832 480.703C238.493 480.48 237.941 480.217 237.175 479.911C236.431 479.622 235.83 479.353 235.369 479.105C234.908 478.857 234.521 478.51 234.206 478.065C233.903 477.622 233.786 477.067 233.857 476.401C233.914 475.858 234.126 475.382 234.494 474.971C234.863 474.548 235.357 474.239 235.976 474.041C236.608 473.846 237.313 473.789 238.091 473.871C239.251 473.993 240.151 474.387 240.792 475.053C241.447 475.708 241.746 476.544 241.689 477.561L239.578 477.339C239.59 476.878 239.443 476.495 239.138 476.188C238.833 475.882 238.397 475.699 237.829 475.64C237.274 475.581 236.838 475.642 236.519 475.82C236.201 475.998 236.024 476.261 235.987 476.606C235.959 476.878 236.034 477.116 236.211 477.322C236.39 477.528 236.615 477.701 236.887 477.842C237.161 477.97 237.566 478.144 238.105 478.363C238.824 478.638 239.407 478.905 239.855 479.165C240.315 479.412 240.698 479.752 241.002 480.183C241.305 480.614 241.43 481.157 241.373 481.812C241.312 482.392 241.097 482.894 240.728 483.316C240.359 483.739 239.865 484.049 239.245 484.246C238.638 484.444 237.94 484.501 237.15 484.419ZM253.263 480.536C253.224 480.918 253.162 481.261 253.081 481.564L245.288 480.746C245.264 481.566 245.497 482.252 245.988 482.802C246.48 483.353 247.12 483.67 247.91 483.753C249.045 483.872 249.897 483.482 250.466 482.58L252.743 482.82C252.336 483.725 251.693 484.437 250.815 484.956C249.951 485.464 248.92 485.656 247.723 485.529C246.748 485.427 245.895 485.119 245.163 484.606C244.444 484.081 243.904 483.401 243.543 482.565C243.195 481.717 243.077 480.769 243.187 479.72C243.298 478.671 243.604 477.774 244.107 477.029C244.622 476.272 245.286 475.719 246.096 475.367C246.919 475.017 247.83 474.895 248.83 475C249.793 475.101 250.628 475.4 251.337 475.899C252.046 476.397 252.569 477.051 252.908 477.861C253.249 478.657 253.368 479.549 253.263 480.536ZM251.131 479.638C251.2 478.859 250.988 478.208 250.495 477.681C250.001 477.155 249.353 476.85 248.551 476.766C247.822 476.69 247.175 476.858 246.607 477.273C246.041 477.675 245.667 478.265 245.485 479.045L251.131 479.638ZM257.805 477.607C258.168 477.122 258.617 476.763 259.153 476.533C259.702 476.291 260.329 476.208 261.032 476.282L260.803 478.465L260.266 478.409C259.439 478.322 258.787 478.465 258.312 478.84C257.848 479.215 257.562 479.921 257.453 480.958L256.888 486.324L254.778 486.102L255.85 475.905L257.961 476.127L257.805 477.607ZM273.373 488.057L270.952 482.6L269.342 482.431L268.801 487.576L266.691 487.354L268.043 474.492L272.486 474.959C273.473 475.063 274.288 475.323 274.93 475.74C275.585 476.158 276.048 476.674 276.321 477.289C276.605 477.905 276.71 478.571 276.635 479.287C276.547 480.125 276.219 480.865 275.653 481.504C275.1 482.132 274.305 482.516 273.268 482.656L275.891 488.321L273.373 488.057ZM269.519 480.747L271.852 480.992C272.641 481.075 273.254 480.94 273.691 480.587C274.14 480.234 274.399 479.725 274.469 479.06C274.539 478.393 274.396 477.854 274.04 477.443C273.685 477.019 273.107 476.765 272.305 476.68L269.972 476.435L269.519 480.747ZM288.297 484.217C288.257 484.6 288.196 484.942 288.114 485.245L280.321 484.427C280.297 485.247 280.531 485.933 281.022 486.484C281.513 487.035 282.153 487.351 282.943 487.434C284.078 487.554 284.931 487.163 285.5 486.262L287.776 486.502C287.369 487.407 286.727 488.119 285.849 488.638C284.984 489.145 283.953 489.337 282.756 489.21C281.782 489.108 280.928 488.8 280.196 488.287C279.478 487.762 278.938 487.082 278.576 486.246C278.229 485.398 278.11 484.45 278.221 483.401C278.33 482.353 278.637 481.455 279.139 480.71C279.656 479.953 280.319 479.4 281.13 479.048C281.953 478.698 282.864 478.576 283.864 478.681C284.826 478.782 285.662 479.081 286.37 479.58C287.079 480.079 287.603 480.732 287.942 481.542C288.282 482.338 288.401 483.23 288.297 484.217ZM286.164 483.319C286.233 482.541 286.021 481.889 285.528 481.363C285.034 480.837 284.386 480.532 283.584 480.447C282.856 480.371 282.208 480.54 281.641 480.954C281.074 481.356 280.7 481.947 280.519 482.726L286.164 483.319ZM304.582 481.026L300.344 490.891L298.123 490.657L296.86 482.909L294.014 490.225L291.792 489.992L289.68 479.46L291.827 479.686L293.094 488.108L296.122 480.137L298.325 480.369L299.54 488.748L302.508 480.808L304.582 481.026ZM304.924 486.17C305.032 485.146 305.337 484.261 305.839 483.516C306.355 482.771 306.999 482.222 307.772 481.867C308.559 481.5 309.397 481.364 310.285 481.457C311.088 481.541 311.768 481.775 312.327 482.158C312.899 482.53 313.339 482.969 313.648 483.476L313.804 481.995L315.932 482.219L314.86 492.416L312.732 492.192L312.891 490.675C312.483 491.118 311.953 491.468 311.302 491.724C310.652 491.98 309.931 492.066 309.141 491.983C308.265 491.891 307.487 491.585 306.805 491.064C306.125 490.531 305.611 489.841 305.264 488.994C304.929 488.135 304.816 487.194 304.924 486.17ZM313.269 487.084C313.342 486.381 313.259 485.755 313.017 485.206C312.787 484.657 312.453 484.223 312.012 483.902C311.572 483.582 311.08 483.393 310.537 483.335C309.994 483.279 309.474 483.361 308.976 483.583C308.48 483.793 308.057 484.142 307.706 484.629C307.369 485.105 307.164 485.694 307.09 486.398C307.016 487.101 307.093 487.732 307.321 488.293C307.561 488.855 307.901 489.302 308.34 489.635C308.793 489.957 309.285 490.146 309.815 490.202C310.358 490.258 310.879 490.176 311.376 489.954C311.873 489.732 312.291 489.377 312.63 488.888C312.981 488.389 313.195 487.788 313.269 487.084ZM320.659 484.212C321.022 483.726 321.471 483.368 322.007 483.137C322.556 482.896 323.183 482.812 323.886 482.886L323.657 485.07L323.12 485.014C322.293 484.926 321.642 485.07 321.165 485.444C320.702 485.82 320.415 486.525 320.306 487.562L319.743 492.929L317.632 492.707L318.704 482.51L320.814 482.732L320.659 484.212ZM324.574 488.235C324.682 487.211 324.987 486.326 325.489 485.58C326.004 484.836 326.649 484.287 327.422 483.931C328.209 483.565 329.053 483.429 329.954 483.524C330.621 483.594 331.259 483.811 331.87 484.174C332.494 484.526 332.972 484.964 333.303 485.485L333.821 480.562L335.95 480.786L334.51 494.481L332.381 494.257L332.543 492.721C332.145 493.178 331.622 493.535 330.971 493.791C330.332 494.048 329.618 494.135 328.828 494.052C327.94 493.959 327.149 493.651 326.455 493.129C325.775 492.596 325.261 491.906 324.913 491.059C324.579 490.2 324.466 489.259 324.574 488.235ZM332.919 489.149C332.992 488.446 332.909 487.819 332.667 487.27C332.437 486.722 332.102 486.288 331.662 485.967C331.221 485.646 330.73 485.458 330.187 485.4C329.644 485.344 329.124 485.426 328.626 485.648C328.13 485.858 327.707 486.206 327.356 486.694C327.019 487.169 326.814 487.759 326.74 488.463C326.666 489.166 326.743 489.797 326.971 490.358C327.211 490.92 327.551 491.367 327.99 491.7C328.443 492.022 328.935 492.211 329.465 492.266C330.008 492.323 330.528 492.241 331.026 492.019C331.523 491.797 331.941 491.441 332.28 490.953C332.631 490.454 332.845 489.852 332.919 489.149Z" fill="#B549D1"/>
<path d="M266.607 506.76L260.214 518.082L258.085 517.858L264.51 506.764L257.661 506.044L257.85 504.249L266.772 505.187L266.607 506.76ZM267.894 511.89C268.118 509.756 268.651 508.128 269.493 507.006C270.348 505.874 271.658 505.401 273.422 505.586C275.187 505.772 276.364 506.506 276.952 507.791C277.555 509.064 277.744 510.768 277.519 512.902C277.292 515.061 276.751 516.713 275.894 517.858C275.051 518.992 273.748 519.466 271.983 519.281C270.218 519.095 269.035 518.36 268.434 517.074C267.847 515.778 267.666 514.05 267.894 511.89ZM275.446 512.684C275.551 511.685 275.572 510.832 275.509 510.127C275.458 509.424 275.258 508.835 274.909 508.362C274.561 507.876 273.997 507.593 273.22 507.511C272.443 507.429 271.833 507.589 271.392 507.992C270.951 508.382 270.627 508.916 270.418 509.592C270.222 510.27 270.072 511.109 269.967 512.108C269.858 513.145 269.828 514.021 269.877 514.738C269.927 515.453 270.127 516.048 270.476 516.521C270.838 516.996 271.408 517.274 272.185 517.356C272.962 517.438 273.571 517.284 274.011 516.893C274.464 516.504 274.789 515.964 274.987 515.274C275.184 514.584 275.337 513.721 275.446 512.684ZM279.767 509.789C279.862 508.889 280.195 508.213 280.767 507.761C281.352 507.299 282.058 507.111 282.884 507.198C283.711 507.285 284.356 507.615 284.82 508.187C285.297 508.748 285.489 509.48 285.395 510.381C285.3 511.281 284.96 511.962 284.375 512.425C283.802 512.889 283.103 513.077 282.276 512.99C281.449 512.903 280.797 512.573 280.321 511.999C279.857 511.427 279.672 510.69 279.767 509.789ZM291.337 508.329L282.597 520.434L280.524 520.216L289.264 508.111L291.337 508.329ZM282.75 508.474C281.972 508.393 281.528 508.889 281.415 509.962C281.3 511.048 281.632 511.631 282.41 511.713C282.78 511.752 283.077 511.653 283.302 511.414C283.541 511.165 283.689 510.763 283.747 510.207C283.86 509.134 283.527 508.556 282.75 508.474ZM286.505 518.15C286.6 517.249 286.933 516.573 287.504 516.122C288.09 515.659 288.796 515.472 289.622 515.558C290.437 515.644 291.076 515.973 291.54 516.546C292.017 517.108 292.209 517.839 292.114 518.739C292.019 519.64 291.68 520.321 291.095 520.784C290.522 521.248 289.828 521.437 289.013 521.351C288.186 521.265 287.535 520.934 287.059 520.36C286.595 519.787 286.411 519.051 286.505 518.15ZM289.47 516.834C288.692 516.752 288.247 517.248 288.135 518.321C288.022 519.394 288.354 519.972 289.131 520.054C289.909 520.135 290.354 519.64 290.467 518.566C290.58 517.493 290.247 516.915 289.47 516.834Z" fill="#B549D1"/>
<path d="M34.7422 371.2V379.443C34.7422 380.423 34.9966 381.161 35.5054 381.658C36.0265 382.154 36.7462 382.402 37.6645 382.402C38.5951 382.402 39.3148 382.154 39.8235 381.658C40.3447 381.161 40.6053 380.423 40.6053 379.443V371.2H42.7272V379.406C42.7272 380.461 42.4976 381.354 42.0385 382.086C41.5793 382.817 40.9651 383.364 40.1958 383.723C39.4265 384.083 38.5765 384.263 37.6458 384.263C36.7152 384.263 35.8652 384.083 35.0959 383.723C34.3389 383.364 33.7371 382.817 33.2904 382.086C32.8437 381.354 32.6204 380.461 32.6204 379.406V371.2H34.7422ZM49.2124 384.3C48.4059 384.3 47.68 384.157 47.0347 383.872C46.4019 383.574 45.8993 383.178 45.5271 382.681C45.1548 382.173 44.9563 381.608 44.9314 380.988H47.1278C47.165 381.422 47.3697 381.788 47.742 382.086C48.1267 382.371 48.6044 382.514 49.1752 382.514C49.7708 382.514 50.2299 382.402 50.5525 382.179C50.8876 381.943 51.0551 381.645 51.0551 381.285C51.0551 380.901 50.869 380.616 50.4967 380.429C50.1369 380.243 49.5599 380.039 48.7657 379.815C47.9964 379.605 47.3697 379.4 46.8858 379.201C46.4019 379.003 45.98 378.699 45.6201 378.29C45.2727 377.88 45.099 377.34 45.099 376.671C45.099 376.125 45.2603 375.628 45.5829 375.182C45.9056 374.723 46.3646 374.363 46.9602 374.103C47.5683 373.842 48.2632 373.712 49.0449 373.712C50.2113 373.712 51.1481 374.01 51.8554 374.605C52.5752 375.188 52.9598 375.988 53.0094 377.006H50.8876C50.8503 376.546 50.6642 376.181 50.3292 375.908C49.9941 375.634 49.5413 375.498 48.9704 375.498C48.4121 375.498 47.984 375.604 47.6862 375.815C47.3883 376.025 47.2394 376.304 47.2394 376.652C47.2394 376.925 47.3388 377.154 47.5373 377.34C47.7358 377.527 47.9778 377.675 48.2631 377.787C48.5486 377.886 48.9704 378.016 49.5288 378.178C50.2733 378.377 50.8814 378.581 51.3529 378.792C51.8368 378.991 52.2526 379.288 52.6 379.685C52.9474 380.082 53.1274 380.61 53.1397 381.267C53.1397 381.85 52.9785 382.371 52.6558 382.83C52.3332 383.289 51.874 383.649 51.2784 383.909C50.6953 384.17 50.0066 384.3 49.2124 384.3ZM64.832 378.755C64.832 379.14 64.8071 379.486 64.7575 379.797H56.9215C56.9835 380.616 57.2875 381.273 57.8336 381.769C58.3795 382.266 59.0496 382.514 59.8438 382.514C60.9853 382.514 61.7919 382.036 62.2634 381.081H64.5528C64.2426 382.024 63.678 382.799 62.859 383.407C62.0524 384.002 61.0473 384.3 59.8438 384.3C58.8634 384.3 57.9825 384.083 57.2007 383.649C56.4313 383.202 55.8234 382.582 55.3767 381.788C54.9423 380.982 54.7252 380.051 54.7252 378.997C54.7252 377.942 54.9361 377.018 55.358 376.224C55.7923 375.418 56.3941 374.797 57.1635 374.363C57.9452 373.929 58.8387 373.712 59.8438 373.712C60.8116 373.712 61.674 373.922 62.4309 374.344C63.1878 374.766 63.7772 375.362 64.1992 376.131C64.621 376.888 64.832 377.762 64.832 378.755ZM62.6171 378.085C62.6046 377.303 62.3254 376.677 61.7795 376.205C61.2335 375.734 60.5572 375.498 59.7507 375.498C59.0185 375.498 58.3919 375.734 57.8708 376.205C57.3496 376.665 57.0394 377.291 56.9401 378.085H62.6171ZM69.0418 375.368C69.3522 374.847 69.7617 374.444 70.2702 374.158C70.7914 373.861 71.4056 373.712 72.1129 373.712V375.908H71.5731C70.7422 375.908 70.1093 376.118 69.6746 376.54C69.2532 376.962 69.0418 377.694 69.0418 378.736V384.133H66.9199V373.879H69.0418V375.368ZM85.6179 384.133L82.6398 378.959H81.0205V384.133H78.8986V371.2H83.3657C84.3582 371.2 85.1957 371.373 85.8784 371.721C86.5731 372.068 87.0883 372.534 87.4233 373.116C87.771 373.699 87.9445 374.35 87.9445 375.07C87.9445 375.914 87.6965 376.683 87.1999 377.378C86.716 378.06 85.9655 378.525 84.9478 378.773L88.1492 384.133H85.6179ZM81.0205 377.266H83.3657C84.1601 377.266 84.7557 377.067 85.1525 376.671C85.562 376.274 85.7668 375.74 85.7668 375.07C85.7668 374.4 85.568 373.879 85.1712 373.507C84.7743 373.122 84.172 372.93 83.3657 372.93H81.0205V377.266ZM100.058 378.755C100.058 379.14 100.034 379.486 99.9837 379.797H92.1477C92.2101 380.616 92.5139 381.273 93.0597 381.769C93.6061 382.266 94.2762 382.514 95.0699 382.514C96.2119 382.514 97.0182 382.036 97.4895 381.081H99.7789C99.4692 382.024 98.9041 382.799 98.0852 383.407C97.2788 384.002 96.2737 384.3 95.0699 384.3C94.09 384.3 93.2086 384.083 92.4268 383.649C91.6577 383.202 91.0495 382.582 90.6028 381.788C90.1687 380.982 89.9513 380.051 89.9513 378.997C89.9513 377.942 90.1627 377.018 90.5842 376.224C91.0189 375.418 91.6205 374.797 92.3896 374.363C93.1714 373.929 94.0648 373.712 95.0699 373.712C96.0377 373.712 96.9006 373.922 97.6571 374.344C98.4142 374.766 99.0038 375.362 99.4253 376.131C99.8474 376.888 100.058 377.762 100.058 378.755ZM97.8432 378.085C97.8312 377.303 97.552 376.677 97.0056 376.205C96.4599 375.734 95.7838 375.498 94.9768 375.498C94.2449 375.498 93.6181 375.734 93.0969 376.205C92.5757 376.665 92.266 377.291 92.1663 378.085H97.8432ZM115.92 373.879L112.737 384.133H110.504L108.438 376.559L106.372 384.133H104.138L100.937 373.879H103.096L105.236 382.123L107.414 373.879H109.629L111.714 382.086L113.836 373.879H115.92ZM116.798 378.959C116.798 377.93 117.009 377.018 117.431 376.224C117.865 375.43 118.449 374.816 119.181 374.382C119.925 373.935 120.744 373.712 121.638 373.712C122.444 373.712 123.145 373.873 123.741 374.196C124.349 374.506 124.833 374.897 125.193 375.368V373.879H127.333V384.133H125.193V382.607C124.833 383.09 124.343 383.494 123.722 383.816C123.102 384.139 122.395 384.3 121.601 384.3C120.72 384.3 119.913 384.077 119.181 383.63C118.449 383.171 117.865 382.538 117.431 381.732C117.009 380.913 116.798 379.989 116.798 378.959ZM125.193 378.997C125.193 378.289 125.044 377.675 124.746 377.154C124.461 376.633 124.082 376.237 123.611 375.963C123.139 375.69 122.63 375.554 122.084 375.554C121.539 375.554 121.03 375.69 120.558 375.963C120.087 376.224 119.702 376.615 119.404 377.136C119.119 377.644 118.976 378.252 118.976 378.959C118.976 379.667 119.119 380.287 119.404 380.82C119.702 381.354 120.087 381.763 120.558 382.048C121.042 382.322 121.551 382.458 122.084 382.458C122.63 382.458 123.139 382.322 123.611 382.048C124.082 381.775 124.461 381.379 124.746 380.857C125.044 380.324 125.193 379.704 125.193 378.997ZM132.242 375.368C132.552 374.847 132.962 374.444 133.471 374.158C133.992 373.861 134.606 373.712 135.314 373.712V375.908H134.774C133.942 375.908 133.309 376.118 132.875 376.54C132.453 376.962 132.242 377.694 132.242 378.736V384.133H130.121V373.879H132.242V375.368ZM136.557 378.959C136.557 377.93 136.767 377.018 137.189 376.224C137.624 375.43 138.207 374.816 138.939 374.382C139.684 373.935 140.509 373.712 141.415 373.712C142.085 373.712 142.742 373.861 143.388 374.158C144.045 374.444 144.566 374.828 144.951 375.312V370.362H147.092V384.133H144.951V382.588C144.603 383.085 144.119 383.494 143.499 383.816C142.891 384.139 142.19 384.3 141.396 384.3C140.503 384.3 139.684 384.077 138.939 383.63C138.207 383.171 137.624 382.538 137.189 381.732C136.767 380.913 136.557 379.989 136.557 378.959ZM144.951 378.997C144.951 378.289 144.802 377.675 144.504 377.154C144.218 376.633 143.84 376.237 143.369 375.963C142.897 375.69 142.388 375.554 141.843 375.554C141.296 375.554 140.788 375.69 140.316 375.963C139.844 376.224 139.46 376.615 139.162 377.136C138.877 377.644 138.734 378.252 138.734 378.959C138.734 379.667 138.877 380.287 139.162 380.82C139.46 381.354 139.844 381.763 140.316 382.048C140.8 382.322 141.309 382.458 141.843 382.458C142.388 382.458 142.897 382.322 143.369 382.048C143.84 381.775 144.218 381.379 144.504 380.857C144.802 380.324 144.951 379.704 144.951 378.997Z" fill="#00C1FB"/>
<path d="M80.8437 403.44L75.6693 415.368H73.5289L78.7591 403.663H71.8723V401.858H80.8437V403.44ZM82.6598 408.408C82.6598 406.263 83.0194 404.588 83.7393 403.384C84.4712 402.169 85.7249 401.561 87.4992 401.561C89.2734 401.561 90.5204 402.169 91.2403 403.384C91.9722 404.588 92.3385 406.263 92.3385 408.408C92.3385 410.58 91.9722 412.279 91.2403 413.507C90.5204 414.723 89.2734 415.331 87.4992 415.331C85.7249 415.331 84.4712 414.723 83.7393 413.507C83.0194 412.279 82.6598 410.58 82.6598 408.408ZM90.2539 408.408C90.2539 407.404 90.1854 406.554 90.0491 405.859C89.9248 405.165 89.6642 404.6 89.2674 404.166C88.8705 403.719 88.2809 403.496 87.4992 403.496C86.7174 403.496 86.1278 403.719 85.7309 404.166C85.3341 404.6 85.0668 405.165 84.9306 405.859C84.8063 406.554 84.7444 407.404 84.7444 408.408C84.7444 409.451 84.8063 410.325 84.9306 411.032C85.0549 411.739 85.3155 412.31 85.7123 412.744C86.1218 413.178 86.7174 413.396 87.4992 413.396C88.2809 413.396 88.8705 413.178 89.2674 412.744C89.6768 412.31 89.9434 411.739 90.0677 411.032C90.192 410.325 90.2539 409.451 90.2539 408.408ZM94.2483 405.078C94.2483 404.172 94.5089 403.465 95.03 402.956C95.5638 402.435 96.2465 402.175 97.0775 402.175C97.9091 402.175 98.5851 402.435 99.1063 402.956C99.6401 403.465 99.9066 404.172 99.9066 405.078C99.9066 405.983 99.6401 406.697 99.1063 407.218C98.5851 407.739 97.9091 407.999 97.0775 407.999C96.2465 407.999 95.5638 407.739 95.03 407.218C94.5089 406.697 94.2483 405.983 94.2483 405.078ZM105.602 402.417L98.1756 415.368H96.091L103.518 402.417H105.602ZM97.0775 403.459C96.2957 403.459 95.9049 403.998 95.9049 405.078C95.9049 406.169 96.2957 406.715 97.0775 406.715C97.4497 406.715 97.7356 406.585 97.9337 406.324C98.145 406.051 98.2501 405.636 98.2501 405.078C98.2501 403.998 97.8592 403.459 97.0775 403.459ZM101.824 412.688C101.824 411.783 102.084 411.075 102.605 410.567C103.139 410.046 103.822 409.785 104.653 409.785C105.472 409.785 106.142 410.046 106.663 410.567C107.197 411.075 107.463 411.783 107.463 412.688C107.463 413.594 107.197 414.307 106.663 414.828C106.142 415.349 105.472 415.61 104.653 415.61C103.822 415.61 103.139 415.349 102.605 414.828C102.084 414.307 101.824 413.594 101.824 412.688ZM104.634 411.069C103.853 411.069 103.462 411.609 103.462 412.688C103.462 413.768 103.853 414.307 104.634 414.307C105.416 414.307 105.807 413.768 105.807 412.688C105.807 411.609 105.416 411.069 104.634 411.069Z" fill="#00C1FB"/>
<path d="M3.49931 193.754V201.998C3.49931 202.978 3.75369 203.716 4.26244 204.212C4.7836 204.709 5.5033 204.957 6.42153 204.957C7.35217 204.957 8.07189 204.709 8.58062 204.212C9.10178 203.716 9.36236 202.978 9.36236 201.998V193.754H11.4842V201.961C11.4842 203.015 11.2547 203.909 10.7956 204.64C10.3364 205.372 9.72219 205.918 8.95288 206.278C8.18357 206.637 7.33356 206.818 6.40292 206.818C5.47227 206.818 4.62228 206.637 3.85295 206.278C3.09603 205.918 2.49421 205.372 2.0475 204.64C1.6008 203.909 1.37744 203.015 1.37744 201.961V193.754H3.49931ZM17.9695 206.855C17.163 206.855 16.437 206.712 15.7918 206.427C15.1589 206.129 14.6564 205.732 14.2841 205.236C13.9119 204.727 13.7134 204.162 13.6885 203.542H15.8848C15.9221 203.976 16.1268 204.343 16.4991 204.64C16.8838 204.925 17.3615 205.068 17.9323 205.068C18.5279 205.068 18.987 204.957 19.3096 204.733C19.6446 204.497 19.8122 204.2 19.8122 203.84C19.8122 203.455 19.626 203.17 19.2538 202.984C18.8939 202.798 18.3169 202.593 17.5228 202.37C16.7535 202.159 16.1268 201.955 15.6429 201.756C15.1589 201.557 14.7371 201.254 14.3772 200.844C14.0298 200.435 13.856 199.895 13.856 199.225C13.856 198.68 14.0174 198.183 14.34 197.737C14.6626 197.277 15.1217 196.918 15.7173 196.657C16.3254 196.397 17.0202 196.267 17.802 196.267C18.9684 196.267 19.9052 196.564 20.6125 197.16C21.3322 197.743 21.7169 198.543 21.7665 199.56H19.6446C19.6074 199.101 19.4213 198.735 19.0863 198.462C18.7512 198.189 18.2983 198.053 17.7275 198.053C17.1691 198.053 16.741 198.159 16.4432 198.369C16.1454 198.58 15.9965 198.859 15.9965 199.207C15.9965 199.48 16.0958 199.709 16.2943 199.895C16.4929 200.081 16.7349 200.23 17.0202 200.342C17.3057 200.441 17.7275 200.571 18.2859 200.733C19.0304 200.931 19.6385 201.136 20.11 201.347C20.5939 201.545 21.0096 201.843 21.357 202.24C21.7045 202.637 21.8844 203.164 21.8968 203.822C21.8968 204.404 21.7355 204.925 21.4129 205.385C21.0903 205.844 20.6311 206.203 20.0355 206.464C19.4523 206.724 18.7637 206.855 17.9695 206.855ZM33.5891 201.309C33.5891 201.694 33.5642 202.041 33.5146 202.352H25.6786C25.7406 203.17 26.0446 203.828 26.5906 204.324C27.1366 204.82 27.8067 205.068 28.6008 205.068C29.7424 205.068 30.5489 204.59 31.0205 203.635H33.3099C32.9996 204.579 32.4351 205.353 31.6161 205.962C30.8095 206.557 29.8044 206.855 28.6008 206.855C27.6205 206.855 26.7395 206.637 25.9578 206.203C25.1884 205.757 24.5804 205.137 24.1337 204.343C23.6994 203.536 23.4823 202.606 23.4823 201.551C23.4823 200.497 23.6932 199.573 24.1151 198.779C24.5494 197.973 25.1512 197.352 25.9206 196.918C26.7023 196.484 27.5957 196.267 28.6008 196.267C29.5687 196.267 30.4311 196.477 31.188 196.899C31.9449 197.321 32.5343 197.917 32.9562 198.686C33.3781 199.443 33.5891 200.317 33.5891 201.309ZM31.3741 200.64C31.3617 199.858 31.0825 199.231 30.5366 198.76C29.9905 198.289 29.3143 198.053 28.5078 198.053C27.7756 198.053 27.149 198.289 26.6279 198.76C26.1067 199.219 25.7965 199.845 25.6972 200.64H31.3741ZM37.799 197.923C38.1093 197.402 38.5188 196.998 39.0275 196.713C39.5487 196.415 40.1629 196.267 40.8702 196.267V198.462H40.3304C39.499 198.462 38.8662 198.673 38.4319 199.095C38.01 199.517 37.799 200.249 37.799 201.291V206.687H35.6772V196.434H37.799V197.923ZM54.3748 206.687L51.3967 201.514H49.7774V206.687H47.6556V193.754H52.1226C53.1154 193.754 53.953 193.928 54.6354 194.275C55.3303 194.623 55.8452 195.088 56.1803 195.671C56.5277 196.254 56.7014 196.905 56.7014 197.625C56.7014 198.468 56.4533 199.238 55.9569 199.932C55.473 200.615 54.7223 201.08 53.7047 201.328L56.9062 206.687H54.3748ZM49.7774 199.821H52.1226C52.9168 199.821 53.5124 199.622 53.9095 199.225C54.319 198.829 54.5237 198.295 54.5237 197.625C54.5237 196.955 54.3252 196.434 53.9281 196.062C53.531 195.677 52.9292 195.485 52.1226 195.485H49.7774V199.821ZM68.8152 201.309C68.8152 201.694 68.7906 202.041 68.7408 202.352H60.9049C60.967 203.17 61.2709 203.828 61.817 204.324C62.3629 204.82 63.033 205.068 63.8272 205.068C64.9687 205.068 65.7753 204.59 66.2468 203.635H68.536C68.2262 204.579 67.6612 205.353 66.8422 205.962C66.0358 206.557 65.0307 206.855 63.8272 206.855C62.8469 206.855 61.9659 206.637 61.1841 206.203C60.4147 205.757 59.8068 205.137 59.3601 204.343C58.9257 203.536 58.7086 202.606 58.7086 201.551C58.7086 200.497 58.9195 199.573 59.3415 198.779C59.7757 197.973 60.3775 197.352 61.1469 196.918C61.9286 196.484 62.8221 196.267 63.8272 196.267C64.795 196.267 65.6574 196.477 66.4143 196.899C67.1713 197.321 67.7609 197.917 68.1824 198.686C68.6045 199.443 68.8152 200.317 68.8152 201.309ZM66.6003 200.64C66.5883 199.858 66.3088 199.231 65.7629 198.76C65.2169 198.289 64.5406 198.053 63.7341 198.053C63.0019 198.053 62.3754 198.289 61.8542 198.76C61.333 199.219 61.0228 199.845 60.9235 200.64H66.6003ZM84.6774 196.434L81.4946 206.687H79.261L77.195 199.114L75.129 206.687H72.8954L69.694 196.434H71.8531L73.9936 204.678L76.1713 196.434H78.3862L80.4708 204.64L82.5927 196.434H84.6774ZM85.5555 201.514C85.5555 200.485 85.7662 199.573 86.1883 198.779C86.6224 197.984 87.206 197.37 87.9379 196.936C88.6824 196.49 89.5014 196.267 90.3948 196.267C91.2012 196.267 91.9025 196.428 92.4981 196.75C93.1063 197.061 93.5903 197.451 93.9499 197.923V196.434H96.0904V206.687H93.9499V205.161C93.5903 205.645 93.0997 206.049 92.4795 206.371C91.8593 206.693 91.152 206.855 90.3576 206.855C89.4768 206.855 88.6698 206.631 87.9379 206.185C87.206 205.726 86.6224 205.093 86.1883 204.287C85.7662 203.468 85.5555 202.544 85.5555 201.514ZM93.9499 201.551C93.9499 200.844 93.801 200.23 93.5032 199.709C93.218 199.188 92.8391 198.791 92.3678 198.518C91.8965 198.245 91.3873 198.109 90.8415 198.109C90.2958 198.109 89.7866 198.245 89.3153 198.518C88.844 198.779 88.4591 199.169 88.1613 199.69C87.8761 200.199 87.7332 200.807 87.7332 201.514C87.7332 202.221 87.8761 202.841 88.1613 203.375C88.4591 203.909 88.844 204.318 89.3153 204.603C89.7992 204.876 90.3078 205.013 90.8415 205.013C91.3873 205.013 91.8965 204.876 92.3678 204.603C92.8391 204.33 93.218 203.933 93.5032 203.412C93.801 202.879 93.9499 202.258 93.9499 201.551ZM101 197.923C101.309 197.402 101.719 196.998 102.228 196.713C102.749 196.415 103.363 196.267 104.071 196.267V198.462H103.531C102.699 198.462 102.066 198.673 101.632 199.095C101.21 199.517 101 200.249 101 201.291V206.687H98.8776V196.434H101V197.923ZM105.314 201.514C105.314 200.485 105.524 199.573 105.947 198.779C106.381 197.984 106.964 197.37 107.696 196.936C108.441 196.49 109.266 196.267 110.172 196.267C110.842 196.267 111.499 196.415 112.145 196.713C112.802 196.998 113.323 197.383 113.708 197.867V192.917H115.849V206.687H113.708V205.143C113.36 205.639 112.877 206.049 112.256 206.371C111.648 206.693 110.947 206.855 110.153 206.855C109.26 206.855 108.441 206.631 107.696 206.185C106.964 205.726 106.381 205.093 105.947 204.287C105.524 203.468 105.314 202.544 105.314 201.514ZM113.708 201.551C113.708 200.844 113.559 200.23 113.261 199.709C112.976 199.188 112.597 198.791 112.126 198.518C111.654 198.245 111.146 198.109 110.6 198.109C110.053 198.109 109.545 198.245 109.074 198.518C108.602 198.779 108.217 199.169 107.92 199.69C107.634 200.199 107.491 200.807 107.491 201.514C107.491 202.221 107.634 202.841 107.92 203.375C108.217 203.909 108.602 204.318 109.074 204.603C109.557 204.876 110.066 205.013 110.6 205.013C111.146 205.013 111.654 204.876 112.126 204.603C112.597 204.33 112.976 203.933 113.261 203.412C113.559 202.879 113.708 202.258 113.708 201.551Z" fill="#3B82F6"/>
<path d="M49.6006 225.995L44.4262 237.923H42.2857L47.5159 226.218H40.6292V224.413H49.6006V225.995ZM51.4166 230.963C51.4166 228.817 51.7765 227.142 52.4962 225.939C53.2283 224.723 54.4815 224.115 56.256 224.115C58.0304 224.115 59.2775 224.723 59.9972 225.939C60.7293 227.142 61.0953 228.817 61.0953 230.963C61.0953 233.134 60.7293 234.834 59.9972 236.062C59.2775 237.277 58.0304 237.886 56.256 237.886C54.4815 237.886 53.2283 237.277 52.4962 236.062C51.7765 234.834 51.4166 233.134 51.4166 230.963ZM59.0107 230.963C59.0107 229.958 58.9424 229.108 58.8059 228.414C58.6818 227.719 58.4213 227.154 58.0242 226.72C57.6271 226.274 57.0377 226.051 56.256 226.051C55.4742 226.051 54.8848 226.274 54.4878 226.72C54.0906 227.154 53.8239 227.719 53.6874 228.414C53.5633 229.108 53.5013 229.958 53.5013 230.963C53.5013 232.005 53.5633 232.88 53.6874 233.587C53.8115 234.294 54.072 234.865 54.4692 235.299C54.8786 235.733 55.4742 235.95 56.256 235.95C57.0377 235.95 57.6271 235.733 58.0242 235.299C58.4337 234.865 58.7005 234.294 58.8246 233.587C58.9486 232.88 59.0107 232.005 59.0107 230.963ZM63.0055 227.632C63.0055 226.726 63.2661 226.019 63.7872 225.511C64.3207 224.99 65.0032 224.729 65.8346 224.729C66.6659 224.729 67.3419 224.99 67.8631 225.511C68.3969 226.019 68.6635 226.726 68.6635 227.632C68.6635 228.538 68.3969 229.251 67.8631 229.772C67.3419 230.293 66.6659 230.554 65.8346 230.554C65.0032 230.554 64.3207 230.293 63.7872 229.772C63.2661 229.251 63.0055 228.538 63.0055 227.632ZM74.359 224.971L66.9325 237.923H64.8482L72.2744 224.971H74.359ZM65.8346 226.013C65.0529 226.013 64.662 226.553 64.662 227.632C64.662 228.724 65.0529 229.27 65.8346 229.27C66.2069 229.27 66.4924 229.14 66.6905 228.879C66.9019 228.606 67.0069 228.19 67.0069 227.632C67.0069 226.553 66.616 226.013 65.8346 226.013ZM70.5806 235.243C70.5806 234.337 70.8412 233.63 71.3623 233.122C71.8961 232.601 72.5788 232.34 73.4097 232.34C74.2287 232.34 74.8988 232.601 75.4199 233.122C75.9537 233.63 76.2203 234.337 76.2203 235.243C76.2203 236.149 75.9537 236.862 75.4199 237.383C74.8988 237.904 74.2287 238.165 73.4097 238.165C72.5788 238.165 71.8961 237.904 71.3623 237.383C70.8412 236.862 70.5806 236.149 70.5806 235.243ZM73.3911 233.624C72.6094 233.624 72.2185 234.164 72.2185 235.243C72.2185 236.322 72.6094 236.862 73.3911 236.862C74.1729 236.862 74.5637 236.322 74.5637 235.243C74.5637 234.164 74.1729 233.624 73.3911 233.624Z" fill="#3B82F6"/>
<path d="M139.107 7.66941V15.913C139.107 16.893 139.362 17.6311 139.87 18.1274C140.392 18.6236 141.112 18.8717 142.03 18.8717C142.96 18.8717 143.68 18.6236 144.189 18.1274C144.71 17.6311 144.97 16.893 144.97 15.913V7.66941H147.092V15.8758C147.092 16.9303 146.863 17.8235 146.404 18.5554C145.944 19.2873 145.33 19.8332 144.561 20.1929C143.792 20.5527 142.942 20.7326 142.011 20.7326C141.08 20.7326 140.23 20.5527 139.461 20.1929C138.704 19.8332 138.102 19.2873 137.656 18.5554C137.209 17.8235 136.985 16.9303 136.985 15.8758V7.66941H139.107ZM153.578 20.7698C152.771 20.7698 152.045 20.6271 151.4 20.3418C150.767 20.0441 150.264 19.6471 149.892 19.1508C149.52 18.6422 149.321 18.0777 149.297 17.4575H151.493C151.53 17.8916 151.735 18.2576 152.107 18.5554C152.492 18.8407 152.969 18.9834 153.54 18.9834C154.136 18.9834 154.595 18.8717 154.918 18.6484C155.253 18.4127 155.42 18.115 155.42 17.7552C155.42 17.3706 155.234 17.0853 154.862 16.8992C154.502 16.7131 153.925 16.5084 153.131 16.2851C152.362 16.0743 151.735 15.8696 151.251 15.6711C150.767 15.4725 150.345 15.1686 149.985 14.7592C149.638 14.3499 149.464 13.8102 149.464 13.1403C149.464 12.5945 149.626 12.0982 149.948 11.6516C150.27 11.1926 150.73 10.8329 151.325 10.5723C151.934 10.3118 152.628 10.1816 153.41 10.1816C154.577 10.1816 155.513 10.4793 156.221 11.0748C156.94 11.6578 157.325 12.458 157.375 13.4753H155.253C155.215 13.0162 155.029 12.6503 154.694 12.3774C154.359 12.1044 153.907 11.968 153.336 11.968C152.777 11.968 152.349 12.0734 152.051 12.2843C151.753 12.4952 151.605 12.7743 151.605 13.1217C151.605 13.3946 151.704 13.6241 151.902 13.8102C152.101 13.9963 152.343 14.1452 152.628 14.2568C152.913 14.356 153.336 14.4863 153.894 14.6476C154.638 14.8461 155.247 15.0508 155.718 15.2617C156.202 15.4602 156.617 15.7579 156.965 16.1549C157.313 16.5518 157.492 17.0791 157.505 17.7366C157.505 18.3196 157.343 18.8407 157.021 19.2997C156.698 19.7587 156.239 20.1185 155.644 20.379C155.061 20.6395 154.372 20.7698 153.578 20.7698ZM169.197 15.2245C169.197 15.6091 169.172 15.9564 169.123 16.2665H161.287C161.348 17.0853 161.653 17.7428 162.199 18.239C162.744 18.7353 163.414 18.9834 164.209 18.9834C165.35 18.9834 166.157 18.5057 166.628 17.5505H168.918C168.607 18.4934 168.043 19.2687 167.224 19.8766C166.418 20.472 165.413 20.7698 164.209 20.7698C163.228 20.7698 162.347 20.5527 161.566 20.1185C160.797 19.6719 160.188 19.0516 159.742 18.2576C159.308 17.4513 159.09 16.5209 159.09 15.4664C159.09 14.4119 159.301 13.4877 159.723 12.6937C160.157 11.8874 160.759 11.267 161.529 10.8329C162.31 10.3987 163.204 10.1816 164.209 10.1816C165.177 10.1816 166.039 10.3924 166.796 10.8142C167.553 11.2361 168.142 11.8315 168.564 12.6007C168.986 13.3574 169.197 14.232 169.197 15.2245ZM166.982 14.5545C166.969 13.773 166.69 13.1465 166.145 12.6751C165.599 12.2037 164.922 11.968 164.116 11.968C163.384 11.968 162.757 12.2037 162.236 12.6751C161.715 13.1341 161.404 13.7606 161.305 14.5545H166.982ZM173.407 11.8377C173.717 11.3167 174.127 10.9135 174.635 10.6282C175.156 10.3304 175.771 10.1816 176.478 10.1816V12.3774H175.938C175.107 12.3774 174.474 12.5882 174.04 13.01C173.618 13.4319 173.407 14.1638 173.407 15.2058V20.6023H171.285V10.349H173.407V11.8377ZM189.983 20.6023L187.005 15.4291H185.386V20.6023H183.264V7.66941H187.731C188.723 7.66941 189.561 7.84307 190.244 8.19045C190.938 8.53783 191.453 9.00304 191.788 9.58609C192.136 10.1691 192.31 10.8204 192.31 11.54C192.31 12.3835 192.062 13.1527 191.565 13.8474C191.081 14.5298 190.331 14.995 189.313 15.2431L192.514 20.6023H189.983ZM185.386 13.7358H187.731C188.525 13.7358 189.121 13.5373 189.518 13.1403C189.927 12.7433 190.132 12.2099 190.132 11.54C190.132 10.8701 189.933 10.349 189.536 9.97686C189.139 9.59227 188.537 9.4 187.731 9.4H185.386V13.7358ZM204.423 15.2245C204.423 15.6091 204.399 15.9564 204.349 16.2665H196.513C196.575 17.0853 196.879 17.7428 197.425 18.239C197.971 18.7353 198.641 18.9834 199.435 18.9834C200.577 18.9834 201.383 18.5057 201.855 17.5505H204.144C203.834 18.4934 203.269 19.2687 202.45 19.8766C201.644 20.472 200.639 20.7698 199.435 20.7698C198.455 20.7698 197.574 20.5527 196.792 20.1185C196.023 19.6719 195.415 19.0516 194.968 18.2576C194.534 17.4513 194.316 16.5209 194.316 15.4664C194.316 14.4119 194.528 13.4877 194.949 12.6937C195.384 11.8874 195.986 11.267 196.755 10.8329C197.536 10.3987 198.43 10.1816 199.435 10.1816C200.403 10.1816 201.266 10.3924 202.022 10.8142C202.779 11.2361 203.369 11.8315 203.79 12.6007C204.213 13.3574 204.423 14.232 204.423 15.2245ZM202.208 14.5545C202.196 13.773 201.917 13.1465 201.371 12.6751C200.825 12.2037 200.149 11.968 199.342 11.968C198.61 11.968 197.983 12.2037 197.462 12.6751C196.941 13.1341 196.631 13.7606 196.531 14.5545H202.208ZM220.285 10.349L217.103 20.6023H214.869L212.803 13.0287L210.737 20.6023H208.503L205.302 10.349H207.461L209.602 18.5926L211.779 10.349H213.994L216.079 18.5554L218.201 10.349H220.285ZM221.164 15.4291C221.164 14.3995 221.374 13.4877 221.796 12.6937C222.23 11.8997 222.814 11.2856 223.546 10.8515C224.29 10.4049 225.109 10.1816 226.003 10.1816C226.809 10.1816 227.511 10.3429 228.106 10.6654C228.714 10.9755 229.198 11.3663 229.558 11.8377V10.349H231.698V20.6023H229.558V19.0764C229.198 19.5602 228.708 19.9634 228.088 20.286C227.467 20.6085 226.76 20.7698 225.966 20.7698C225.085 20.7698 224.278 20.5465 223.546 20.0999C222.814 19.6408 222.23 19.0082 221.796 18.2018C221.374 17.383 221.164 16.4588 221.164 15.4291ZM229.558 15.4664C229.558 14.7592 229.409 14.1452 229.111 13.6241C228.826 13.1031 228.447 12.7061 227.976 12.4332C227.505 12.1602 226.995 12.0238 226.45 12.0238C225.904 12.0238 225.395 12.1602 224.923 12.4332C224.452 12.6937 224.067 13.0845 223.769 13.6055C223.484 14.1141 223.341 14.722 223.341 15.4291C223.341 16.1363 223.484 16.7565 223.769 17.29C224.067 17.8235 224.452 18.2328 224.923 18.5182C225.407 18.7911 225.916 18.9275 226.45 18.9275C226.995 18.9275 227.505 18.7911 227.976 18.5182C228.447 18.2452 228.826 17.8483 229.111 17.3272C229.409 16.7937 229.558 16.1735 229.558 15.4664ZM236.608 11.8377C236.917 11.3167 237.327 10.9135 237.836 10.6282C238.357 10.3304 238.971 10.1816 239.679 10.1816V12.3774H239.139C238.307 12.3774 237.674 12.5882 237.24 13.01C236.818 13.4319 236.608 14.1638 236.608 15.2058V20.6023H234.486V10.349H236.608V11.8377ZM240.922 15.4291C240.922 14.3995 241.132 13.4877 241.555 12.6937C241.989 11.8997 242.572 11.2856 243.304 10.8515C244.049 10.4049 244.874 10.1816 245.78 10.1816C246.45 10.1816 247.107 10.3304 247.753 10.6282C248.41 10.9135 248.931 11.2981 249.316 11.7819V6.83203H251.457V20.6023H249.316V19.0578C248.968 19.554 248.485 19.9634 247.864 20.286C247.256 20.6085 246.555 20.7698 245.761 20.7698C244.868 20.7698 244.049 20.5465 243.304 20.0999C242.572 19.6408 241.989 19.0082 241.555 18.2018C241.132 17.383 240.922 16.4588 240.922 15.4291ZM249.316 15.4664C249.316 14.7592 249.167 14.1452 248.869 13.6241C248.584 13.1031 248.205 12.7061 247.734 12.4332C247.262 12.1602 246.754 12.0238 246.208 12.0238C245.661 12.0238 245.153 12.1602 244.682 12.4332C244.21 12.6937 243.825 13.0845 243.528 13.6055C243.242 14.1141 243.099 14.722 243.099 15.4291C243.099 16.1363 243.242 16.7565 243.528 17.29C243.825 17.8235 244.21 18.2328 244.682 18.5182C245.165 18.7911 245.674 18.9275 246.208 18.9275C246.754 18.9275 247.262 18.7911 247.734 18.5182C248.205 18.2452 248.584 17.8483 248.869 17.3272C249.167 16.7937 249.316 16.1735 249.316 15.4664Z" fill="#FE76A2"/>
<path d="M185.209 39.9097L180.034 51.8378H177.894L183.124 40.133H176.237V38.328H185.209V39.9097ZM187.025 44.8782C187.025 42.732 187.384 41.0573 188.104 39.8539C188.836 38.6382 190.09 38.0303 191.864 38.0303C193.638 38.0303 194.885 38.6382 195.605 39.8539C196.337 41.0573 196.703 42.732 196.703 44.8782C196.703 47.0492 196.337 48.7488 195.605 49.9769C194.885 51.1926 193.638 51.8005 191.864 51.8005C190.09 51.8005 188.836 51.1926 188.104 49.9769C187.384 48.7488 187.025 47.0492 187.025 44.8782ZM194.619 44.8782C194.619 43.8733 194.55 43.0235 194.414 42.3288C194.29 41.6341 194.029 41.0696 193.632 40.6355C193.236 40.1889 192.646 39.9656 191.864 39.9656C191.082 39.9656 190.493 40.1889 190.096 40.6355C189.699 41.0696 189.432 41.6341 189.296 42.3288C189.171 43.0235 189.109 43.8733 189.109 44.8782C189.109 45.9203 189.171 46.7949 189.296 47.502C189.42 48.2091 189.68 48.7798 190.077 49.214C190.487 49.6481 191.082 49.8653 191.864 49.8653C192.646 49.8653 193.236 49.6481 193.632 49.214C194.042 48.7798 194.308 48.2091 194.433 47.502C194.557 46.7949 194.619 45.9203 194.619 44.8782ZM198.613 41.5473C198.613 40.6416 198.874 39.9345 199.395 39.4259C199.929 38.9049 200.612 38.6444 201.442 38.6444C202.274 38.6444 202.95 38.9049 203.471 39.4259C204.005 39.9345 204.272 40.6416 204.272 41.5473C204.272 42.4529 204.005 43.1662 203.471 43.6873C202.95 44.2083 202.274 44.4688 201.442 44.4688C200.612 44.4688 199.929 44.2083 199.395 43.6873C198.874 43.1662 198.613 42.4529 198.613 41.5473ZM209.967 38.8863L202.541 51.8378H200.456L207.883 38.8863H209.967ZM201.442 39.9283C200.661 39.9283 200.27 40.468 200.27 41.5473C200.27 42.639 200.661 43.1848 201.442 43.1848C201.815 43.1848 202.101 43.0546 202.299 42.794C202.51 42.5211 202.615 42.1055 202.615 41.5473C202.615 40.468 202.224 39.9283 201.442 39.9283ZM206.189 49.1581C206.189 48.2525 206.449 47.5454 206.97 47.0368C207.504 46.5157 208.187 46.2552 209.018 46.2552C209.837 46.2552 210.507 46.5157 211.028 47.0368C211.562 47.5454 211.828 48.2525 211.828 49.1581C211.828 50.0638 211.562 50.7771 211.028 51.2981C210.507 51.8192 209.837 52.0797 209.018 52.0797C208.187 52.0797 207.504 51.8192 206.97 51.2981C206.449 50.7771 206.189 50.0638 206.189 49.1581ZM208.999 47.5392C208.218 47.5392 207.827 48.0789 207.827 49.1581C207.827 50.2374 208.218 50.7771 208.999 50.7771C209.781 50.7771 210.172 50.2374 210.172 49.1581C210.172 48.0789 209.781 47.5392 208.999 47.5392Z" fill="#FE76A2"/>
<defs>
<linearGradient id="paint0_linear_1032_8233" x1="346.997" y1="29.2422" x2="530.092" y2="207.727" gradientUnits="userSpaceOnUse">
<stop stop-color="#9133EE"/>
<stop offset="1" stop-color="#3250F9"/>
</linearGradient>
<linearGradient id="paint1_linear_1032_8233" x1="246.621" y1="399.75" x2="399.989" y2="461.028" gradientUnits="userSpaceOnUse">
<stop stop-color="#FE6B43"/>
<stop offset="1" stop-color="#845F54"/>
</linearGradient>
<linearGradient id="paint2_linear_1032_8233" x1="164.524" y1="266.5" x2="222.335" y2="395.108" gradientUnits="userSpaceOnUse">
<stop stop-color="#6FE7DB"/>
<stop offset="1" stop-color="#73DFDF"/>
</linearGradient>
<linearGradient id="paint3_linear_1032_8233" x1="181.143" y1="164.818" x2="167.854" y2="256.864" gradientUnits="userSpaceOnUse">
<stop stop-color="#E5D7E3"/>
<stop offset="1" stop-color="#E8DDE8"/>
</linearGradient>
<linearGradient id="paint4_linear_1032_8233" x1="333.37" y1="65.7942" x2="201.108" y2="164.848" gradientUnits="userSpaceOnUse">
<stop stop-color="#56ACF8"/>
<stop offset="1" stop-color="#4D87B9"/>
</linearGradient>
<linearGradient id="paint5_linear_1032_8233" x1="515.178" y1="195.721" x2="500.228" y2="348.909" gradientUnits="userSpaceOnUse">
<stop stop-color="#0060EB"/>
<stop offset="1" stop-color="#006DF2"/>
</linearGradient>
<linearGradient id="paint6_linear_1032_8233" x1="483.602" y1="333.624" x2="347.027" y2="461.257" gradientUnits="userSpaceOnUse">
<stop stop-color="#8549EE"/>
<stop offset="1" stop-color="#EE47A1"/>
</linearGradient>
</defs>
</svg>
