<svg width="695" height="609" viewBox="0 0 695 609" fill="none" xmlns="http://www.w3.org/2000/svg">
<path d="M367.054 80.9579C367.054 79.4423 368.283 78.2115 369.798 78.2307C399.913 78.6012 429.651 85.0689 457.213 97.2543C485.612 109.81 511.077 128.157 531.974 151.124C552.872 174.09 568.743 201.168 578.569 230.623C588.396 260.078 591.963 291.261 589.041 322.174C586.118 353.087 576.772 383.049 561.6 410.141C546.428 437.233 525.764 460.857 500.934 479.5C476.102 498.144 447.651 511.396 417.403 518.407C388.045 525.212 357.622 525.993 327.971 520.714C326.479 520.449 325.503 519.01 325.787 517.521L341.471 435.301C341.755 433.813 343.191 432.839 344.686 433.092C362.134 436.051 380.005 435.52 397.263 431.521C415.412 427.313 432.483 419.362 447.382 408.176C462.28 396.99 474.678 382.816 483.782 366.56C492.885 350.305 498.493 332.328 500.246 313.78C501.999 295.233 499.859 276.522 493.963 258.85C488.067 241.177 478.545 224.93 466.006 211.151C453.467 197.371 438.189 186.362 421.149 178.829C404.947 171.665 387.492 167.795 369.798 167.432C368.283 167.401 367.054 166.175 367.054 164.66V80.9579Z" fill="url(#paint0_linear_1243_198)"/>
<path d="M150.239 262.544C148.747 262.278 147.752 260.851 148.036 259.362C155.622 219.634 173.874 182.716 200.834 152.565C201.844 151.435 203.582 151.36 204.698 152.385L266.404 208.94C267.522 209.964 267.594 211.698 266.593 212.836C251.059 230.499 240.455 251.948 235.853 275.016C235.557 276.502 234.135 277.498 232.643 277.231L150.239 262.544Z" fill="url(#paint1_linear_1243_198)"/>
<path d="M219.799 137.428C218.786 136.301 218.876 134.564 220.016 133.565C236.222 119.348 254.405 107.558 273.996 98.5607C275.373 97.9281 276.996 98.5531 277.612 99.9383L311.605 176.427C312.221 177.811 311.595 179.43 310.223 180.075C299.179 185.257 288.896 191.925 279.659 199.894C278.512 200.884 276.778 200.794 275.765 199.668L219.799 137.428Z" fill="url(#paint2_linear_1243_198)"/>
<path d="M295.017 93.0722C294.521 91.6396 295.28 90.0754 296.718 89.5972C312.725 84.2759 329.284 80.7886 346.078 79.2017C347.588 79.059 348.913 80.1848 349.037 81.6956L355.885 165.117C356.009 166.628 354.884 167.95 353.376 168.105C344.039 169.065 334.827 171.004 325.895 173.892C324.453 174.358 322.891 173.602 322.396 172.17L295.017 93.0722Z" fill="url(#paint3_linear_1243_198)"/>
<path d="M309.578 513.79C309.182 515.252 307.675 516.119 306.217 515.706C277.81 507.65 251.276 494.028 228.162 475.624C205.048 457.22 185.83 434.412 171.616 408.531C170.886 407.203 171.393 405.539 172.73 404.826L246.586 365.438C247.923 364.725 249.583 365.232 250.323 366.555C258.797 381.687 270.138 395.036 283.719 405.85C297.301 416.664 312.85 424.727 329.497 429.596C330.952 430.021 331.818 431.525 331.422 432.988L309.578 513.79Z" fill="url(#paint4_linear_1243_198)"/>
<path d="M165.685 390.368C164.3 390.981 162.677 390.356 162.08 388.963C148.027 356.145 142.059 320.432 144.679 284.827C144.79 283.316 146.121 282.197 147.631 282.327L231.025 289.495C232.535 289.625 233.652 290.955 233.553 292.468C232.205 313.101 235.658 333.768 243.642 352.842C244.227 354.24 243.604 355.861 242.218 356.474L165.685 390.368Z" fill="url(#paint5_linear_1243_198)"/>
<path d="M617.675 302.166H622.189V303.934H615.485V290.582H617.675V302.166ZM625.134 291.946C624.738 291.946 624.404 291.812 624.135 291.543C623.866 291.274 623.732 290.941 623.732 290.544C623.732 290.147 623.866 289.814 624.135 289.545C624.404 289.276 624.738 289.142 625.134 289.142C625.519 289.142 625.845 289.276 626.114 289.545C626.383 289.814 626.517 290.147 626.517 290.544C626.517 290.941 626.383 291.274 626.114 291.543C625.845 291.812 625.519 291.946 625.134 291.946ZM626.21 293.349V303.934H624.02V293.349H626.21ZM628.356 298.593C628.356 297.53 628.574 296.589 629.009 295.769C629.457 294.949 630.059 294.315 630.814 293.867C631.583 293.406 632.435 293.176 633.369 293.176C634.189 293.176 634.913 293.342 635.54 293.675C636.181 294.008 636.674 294.411 637.019 294.885V293.349H639.229V308.967H637.019V302.397C636.674 302.871 636.174 303.274 635.521 303.607C634.868 303.94 634.125 304.106 633.293 304.106C632.383 304.106 631.551 303.876 630.795 303.415C630.053 302.941 629.457 302.288 629.009 301.455C628.574 300.61 628.356 299.656 628.356 298.593ZM637.019 298.631C637.019 297.901 636.866 297.268 636.558 296.73C636.264 296.192 635.874 295.782 635.386 295.5C634.9 295.218 634.375 295.078 633.811 295.078C633.248 295.078 632.723 295.218 632.236 295.5C631.75 295.769 631.352 296.173 631.045 296.71C630.751 297.235 630.603 297.863 630.603 298.593C630.603 299.323 630.751 299.963 631.045 300.514C631.352 301.065 631.75 301.488 632.236 301.782C632.735 302.064 633.261 302.205 633.811 302.205C634.375 302.205 634.9 302.064 635.386 301.782C635.874 301.5 636.264 301.09 636.558 300.552C636.866 300.002 637.019 299.361 637.019 298.631ZM651.691 293.349V303.934H649.501V302.685C649.155 303.12 648.701 303.466 648.137 303.722C647.586 303.966 646.997 304.087 646.37 304.087C645.537 304.087 644.788 303.914 644.122 303.569C643.469 303.223 642.951 302.71 642.566 302.032C642.194 301.353 642.009 300.533 642.009 299.573V293.349H644.18V299.246C644.18 300.194 644.417 300.924 644.891 301.436C645.364 301.936 646.011 302.185 646.831 302.185C647.65 302.185 648.297 301.936 648.771 301.436C649.258 300.924 649.501 300.194 649.501 299.246V293.349H651.691ZM655.694 291.946C655.298 291.946 654.964 291.812 654.696 291.543C654.427 291.274 654.292 290.941 654.292 290.544C654.292 290.147 654.427 289.814 654.696 289.545C654.964 289.276 655.298 289.142 655.694 289.142C656.079 289.142 656.405 289.276 656.674 289.545C656.943 289.814 657.078 290.147 657.078 290.544C657.078 290.941 656.943 291.274 656.674 291.543C656.405 291.812 656.079 291.946 655.694 291.946ZM656.77 293.349V303.934H654.58V293.349H656.77ZM658.916 298.593C658.916 297.53 659.133 296.589 659.569 295.769C660.017 294.949 660.619 294.315 661.375 293.867C662.143 293.406 662.994 293.176 663.93 293.176C664.621 293.176 665.3 293.329 665.966 293.637C666.644 293.931 667.182 294.328 667.579 294.828V289.718H669.789V303.934H667.579V302.339C667.221 302.852 666.721 303.274 666.081 303.607C665.453 303.94 664.73 304.106 663.91 304.106C662.988 304.106 662.143 303.876 661.375 303.415C660.619 302.941 660.017 302.288 659.569 301.455C659.133 300.61 658.916 299.656 658.916 298.593ZM667.579 298.631C667.579 297.901 667.426 297.268 667.118 296.73C666.824 296.192 666.433 295.782 665.947 295.5C665.46 295.218 664.935 295.078 664.371 295.078C663.808 295.078 663.282 295.218 662.796 295.5C662.31 295.769 661.912 296.173 661.605 296.71C661.311 297.235 661.163 297.863 661.163 298.593C661.163 299.323 661.311 299.963 661.605 300.514C661.912 301.065 662.31 301.488 662.796 301.782C663.296 302.064 663.82 302.205 664.371 302.205C664.935 302.205 665.46 302.064 665.947 301.782C666.433 301.5 666.824 301.09 667.118 300.552C667.426 300.002 667.579 299.361 667.579 298.631ZM673.78 291.946C673.382 291.946 673.05 291.812 672.781 291.543C672.512 291.274 672.377 290.941 672.377 290.544C672.377 290.147 672.512 289.814 672.781 289.545C673.05 289.276 673.382 289.142 673.78 289.142C674.164 289.142 674.49 289.276 674.759 289.545C675.028 289.814 675.163 290.147 675.163 290.544C675.163 290.941 675.028 291.274 674.759 291.543C674.49 291.812 674.164 291.946 673.78 291.946ZM674.855 293.349V303.934H672.665V293.349H674.855ZM680.286 295.135V300.994C680.286 301.392 680.375 301.68 680.555 301.859C680.747 302.026 681.066 302.109 681.515 302.109H682.86V303.934H681.131C680.144 303.934 679.389 303.703 678.864 303.242C678.339 302.781 678.076 302.032 678.076 300.994V295.135H676.828V293.349H678.076V290.717H680.286V293.349H682.86V295.135H680.286ZM694.403 293.349L687.913 308.909H685.646L687.796 303.761L683.629 293.349H686.069L689.045 301.417L692.139 293.349H694.403Z" fill="#7E5EF5"/>
<path d="M644.808 321.314H638.372V325.136C638.641 324.778 639.038 324.477 639.563 324.234C640.101 323.99 640.671 323.869 641.273 323.869C642.349 323.869 643.219 324.099 643.886 324.56C644.564 325.021 645.044 325.604 645.326 326.308C645.621 327.013 645.768 327.755 645.768 328.537C645.768 329.484 645.582 330.329 645.211 331.072C644.852 331.802 644.308 332.379 643.578 332.801C642.861 333.224 641.978 333.435 640.927 333.435C639.531 333.435 638.411 333.089 637.565 332.398C636.72 331.706 636.215 330.79 636.048 329.651H638.18C638.321 330.253 638.635 330.733 639.122 331.092C639.608 331.437 640.216 331.61 640.946 331.61C641.856 331.61 642.535 331.335 642.983 330.784C643.444 330.233 643.674 329.503 643.674 328.594C643.674 327.672 643.444 326.968 642.983 326.481C642.522 325.982 641.843 325.732 640.946 325.732C640.319 325.732 639.788 325.892 639.352 326.212C638.929 326.52 638.622 326.942 638.43 327.48H636.355V319.393H644.808V321.314ZM647.779 330.515V328.863L654.234 319.604H656.885V328.613H658.671V330.515H656.885V333.435H654.733V330.515H647.779ZM654.829 321.832L650.296 328.613H654.829V321.832ZM660.14 322.812C660.14 321.877 660.409 321.147 660.947 320.622C661.497 320.084 662.202 319.815 663.06 319.815C663.918 319.815 664.616 320.084 665.154 320.622C665.704 321.147 665.98 321.877 665.98 322.812C665.98 323.747 665.704 324.483 665.154 325.021C664.616 325.559 663.918 325.828 663.06 325.828C662.202 325.828 661.497 325.559 660.947 325.021C660.409 324.483 660.14 323.747 660.14 322.812ZM671.859 320.065L664.194 333.435H662.042L669.707 320.065H671.859ZM663.06 321.141C662.253 321.141 661.85 321.698 661.85 322.812C661.85 323.939 662.253 324.503 663.06 324.503C663.444 324.503 663.739 324.368 663.944 324.099C664.161 323.817 664.271 323.388 664.271 322.812C664.271 321.698 663.867 321.141 663.06 321.141ZM667.959 330.669C667.959 329.734 668.228 329.004 668.766 328.479C669.316 327.941 670.021 327.672 670.879 327.672C671.724 327.672 672.416 327.941 672.954 328.479C673.504 329.004 673.78 329.734 673.78 330.669C673.78 331.604 673.504 332.34 672.954 332.878C672.416 333.416 671.724 333.685 670.879 333.685C670.021 333.685 669.316 333.416 668.766 332.878C668.228 332.34 667.959 331.604 667.959 330.669ZM670.86 328.998C670.053 328.998 669.649 329.555 669.649 330.669C669.649 331.783 670.053 332.34 670.86 332.34C671.666 332.34 672.07 331.783 672.07 330.669C672.07 329.555 671.666 328.998 670.86 328.998Z" fill="#7E5EF5"/>
<path d="M168.469 51.1408V52.9274H162.802V56.8655H167.221V58.652H162.802V64.492H160.612V51.1408H168.469ZM175.09 64.6649C174.091 64.6649 173.188 64.4407 172.381 63.9925C171.574 63.5315 170.94 62.8911 170.479 62.0715C170.018 61.239 169.788 60.2785 169.788 59.1899C169.788 58.1142 170.025 57.16 170.499 56.3276C170.973 55.4952 171.619 54.8548 172.439 54.4066C173.259 53.9584 174.174 53.7342 175.186 53.7342C176.198 53.7342 177.113 53.9584 177.933 54.4066C178.753 54.8548 179.399 55.4952 179.873 56.3276C180.347 57.16 180.584 58.1142 180.584 59.1899C180.584 60.2657 180.34 61.2198 179.854 62.0523C179.368 62.8847 178.701 63.5315 177.856 63.9925C177.024 64.4407 176.102 64.6649 175.09 64.6649ZM175.09 62.763C175.653 62.763 176.179 62.6286 176.665 62.3596C177.165 62.0907 177.568 61.6873 177.875 61.1494C178.183 60.6115 178.336 59.9583 178.336 59.1899C178.336 58.4215 178.189 57.7748 177.895 57.2497C177.6 56.7118 177.209 56.3084 176.723 56.0394C176.236 55.7705 175.711 55.636 175.147 55.636C174.584 55.636 174.059 55.7705 173.572 56.0394C173.098 56.3084 172.721 56.7118 172.439 57.2497C172.157 57.7748 172.016 58.4215 172.016 59.1899C172.016 60.3297 172.304 61.2134 172.881 61.8409C173.47 62.4557 174.206 62.763 175.09 62.763ZM192.335 53.9071V64.492H190.145V63.2433C189.799 63.6788 189.345 64.0245 188.781 64.2807C188.23 64.524 187.641 64.6456 187.014 64.6456C186.181 64.6456 185.432 64.4728 184.766 64.127C184.113 63.7812 183.595 63.2689 183.21 62.5901C182.838 61.9114 182.653 61.0917 182.653 60.1312V53.9071H184.824V59.8047C184.824 60.7523 185.061 61.4823 185.535 61.9946C186.008 62.4941 186.655 62.7438 187.475 62.7438C188.294 62.7438 188.941 62.4941 189.415 61.9946C189.902 61.4823 190.145 60.7523 190.145 59.8047V53.9071H192.335ZM200.565 53.7342C201.398 53.7342 202.14 53.9071 202.793 54.2529C203.459 54.5987 203.978 55.111 204.349 55.7897C204.721 56.4685 204.906 57.2881 204.906 58.2486V64.492H202.735V58.5752C202.735 57.6275 202.499 56.9039 202.025 56.4044C201.551 55.8921 200.904 55.636 200.084 55.636C199.265 55.636 198.612 55.8921 198.125 56.4044C197.652 56.9039 197.414 57.6275 197.414 58.5752V64.492H195.224V53.9071H197.414V55.1174C197.773 54.6819 198.228 54.3426 198.778 54.0992C199.342 53.8559 199.938 53.7342 200.565 53.7342ZM206.97 59.1515C206.97 58.0886 207.187 57.1473 207.623 56.3276C208.071 55.5079 208.673 54.874 209.429 54.4258C210.197 53.9647 211.049 53.7342 211.984 53.7342C212.675 53.7342 213.354 53.8879 214.02 54.1953C214.699 54.4898 215.237 54.8868 215.634 55.3863V50.2764H217.843V64.492H215.634V62.8975C215.275 63.4098 214.776 63.8324 214.135 64.1654C213.508 64.4983 212.784 64.6649 211.965 64.6649C211.043 64.6649 210.197 64.4343 209.429 63.9733C208.673 63.4994 208.071 62.8463 207.623 62.0138C207.187 61.1686 206.97 60.2145 206.97 59.1515ZM215.634 59.1899C215.634 58.4599 215.48 57.826 215.173 57.2881C214.878 56.7502 214.487 56.3404 214.001 56.0587C213.514 55.7769 212.989 55.636 212.426 55.636C211.862 55.636 211.337 55.7769 210.85 56.0587C210.363 56.3276 209.967 56.731 209.659 57.2689C209.364 57.794 209.218 58.4215 209.218 59.1515C209.218 59.8815 209.364 60.5218 209.659 61.0725C209.967 61.6233 210.363 62.0459 210.85 62.3404C211.35 62.6222 211.875 62.763 212.426 62.763C212.989 62.763 213.514 62.6222 214.001 62.3404C214.487 62.0586 214.878 61.6488 215.173 61.111C215.48 60.5602 215.634 59.9199 215.634 59.1899ZM230.42 58.9402C230.42 59.3372 230.395 59.6958 230.343 60.016H222.256C222.32 60.8612 222.634 61.54 223.197 62.0523C223.761 62.5646 224.453 62.8207 225.272 62.8207C226.451 62.8207 227.283 62.3276 227.769 61.3415H230.132C229.812 62.3148 229.229 63.1152 228.384 63.7428C227.552 64.3575 226.514 64.6649 225.272 64.6649C224.261 64.6649 223.351 64.4407 222.544 63.9925C221.75 63.5315 221.122 62.8911 220.661 62.0715C220.213 61.239 219.989 60.2785 219.989 59.1899C219.989 58.1013 220.207 57.1473 220.642 56.3276C221.091 55.4952 221.712 54.8548 222.506 54.4066C223.312 53.9584 224.235 53.7342 225.272 53.7342C226.271 53.7342 227.161 53.9519 227.942 54.3874C228.724 54.8228 229.332 55.4375 229.767 56.2315C230.203 57.0128 230.42 57.9157 230.42 58.9402ZM228.134 58.2486C228.122 57.4418 227.834 56.795 227.27 56.3084C226.706 55.8218 226.009 55.5784 225.176 55.5784C224.42 55.5784 223.773 55.8218 223.236 56.3084C222.698 56.7823 222.378 57.429 222.275 58.2486H228.134ZM234.766 55.4439C235.086 54.906 235.508 54.4898 236.034 54.1953C236.572 53.8879 237.206 53.7342 237.936 53.7342V56.001H237.378C236.52 56.001 235.867 56.2187 235.419 56.6542C234.983 57.0896 234.766 57.8452 234.766 58.921V64.492H232.576V53.9071H234.766V55.4439ZM243.791 64.6649C242.958 64.6649 242.208 64.5176 241.543 64.223C240.89 63.9157 240.371 63.5059 239.987 62.9936C239.603 62.4685 239.398 61.8857 239.372 61.2454H241.639C241.677 61.6936 241.889 62.0715 242.273 62.3788C242.67 62.6734 243.163 62.8207 243.752 62.8207C244.367 62.8207 244.84 62.7054 245.174 62.4749C245.52 62.2315 245.692 61.9242 245.692 61.5528C245.692 61.1558 245.5 60.8612 245.116 60.6691C244.744 60.477 244.149 60.2657 243.33 60.0352C242.535 59.8175 241.889 59.6062 241.389 59.4012C240.89 59.1963 240.454 58.8826 240.083 58.4599C239.724 58.0373 239.545 57.4802 239.545 56.7887C239.545 56.2252 239.711 55.7129 240.045 55.2518C240.377 54.7779 240.851 54.4066 241.466 54.1376C242.093 53.8687 242.811 53.7342 243.618 53.7342C244.821 53.7342 245.788 54.0416 246.518 54.6563C247.261 55.2582 247.658 56.0842 247.709 57.1344H245.52C245.481 56.6606 245.289 56.2828 244.943 56.001C244.597 55.7193 244.13 55.5784 243.541 55.5784C242.965 55.5784 242.523 55.6873 242.215 55.905C241.908 56.1227 241.754 56.4108 241.754 56.7694C241.754 57.0512 241.857 57.2881 242.062 57.4802C242.266 57.6723 242.516 57.826 242.811 57.9413C243.105 58.0437 243.541 58.1782 244.117 58.3447C244.886 58.5496 245.513 58.7609 246 58.9786C246.499 59.1835 246.928 59.4909 247.287 59.9007C247.645 60.3105 247.831 60.8548 247.844 61.5336C247.844 62.1355 247.677 62.6734 247.344 63.1472C247.011 63.6211 246.538 63.9925 245.923 64.2614C245.321 64.5304 244.61 64.6649 243.791 64.6649Z" fill="#27CF71"/>
<path d="M198.728 80.4908C198.588 79.9014 198.331 79.4596 197.96 79.1652C197.589 78.8709 197.07 78.7234 196.404 78.7234C195.392 78.7234 194.636 79.1138 194.137 79.8952C193.637 80.6637 193.375 81.9446 193.349 83.7373C193.682 83.174 194.169 82.7384 194.809 82.431C195.449 82.1236 196.141 81.9699 196.884 81.9699C197.729 81.9699 198.472 82.1559 199.112 82.527C199.766 82.8859 200.271 83.4107 200.63 84.1023C201.001 84.7939 201.187 85.6199 201.187 86.5804C201.187 87.4771 201.008 88.2771 200.649 88.9817C200.303 89.6863 199.785 90.2434 199.093 90.653C198.402 91.0502 197.569 91.2485 196.596 91.2485C195.276 91.2485 194.239 90.9604 193.484 90.384C192.741 89.7947 192.216 88.9687 191.909 87.9059C191.614 86.8432 191.467 85.5177 191.467 83.9294C191.467 79.2421 193.119 76.8984 196.423 76.8984C197.704 76.8984 198.709 77.2442 199.439 77.9358C200.182 78.6274 200.617 79.4788 200.745 80.4908H198.728ZM196.404 83.8141C195.622 83.8141 194.957 84.0508 194.406 84.5249C193.868 84.986 193.599 85.6583 193.599 86.542C193.599 87.4257 193.849 88.1303 194.348 88.6551C194.861 89.1676 195.572 89.4235 196.481 89.4235C197.287 89.4235 197.921 89.1738 198.382 88.6743C198.856 88.1749 199.093 87.5087 199.093 86.6765C199.093 85.8058 198.863 85.1143 198.402 84.6018C197.954 84.0769 197.287 83.8141 196.404 83.8141ZM203.177 80.6252C203.177 79.6901 203.446 78.9601 203.984 78.4353C204.534 77.8974 205.239 77.6284 206.097 77.6284C206.955 77.6284 207.653 77.8974 208.191 78.4353C208.742 78.9601 209.017 79.6901 209.017 80.6252C209.017 81.5604 208.742 82.2965 208.191 82.8344C207.653 83.3723 206.955 83.6412 206.097 83.6412C205.239 83.6412 204.534 83.3723 203.984 82.8344C203.446 82.2965 203.177 81.5604 203.177 80.6252ZM214.896 77.8782L207.231 91.2485H205.079L212.744 77.8782H214.896ZM206.097 78.9539C205.291 78.9539 204.887 79.511 204.887 80.6252C204.887 81.7525 205.291 82.3157 206.097 82.3157C206.482 82.3157 206.776 82.1813 206.981 81.9123C207.199 81.6303 207.308 81.2015 207.308 80.6252C207.308 79.511 206.904 78.9539 206.097 78.9539ZM210.996 88.4822C210.996 87.5471 211.265 86.8171 211.803 86.2923C212.353 85.7544 213.058 85.4854 213.916 85.4854C214.761 85.4854 215.453 85.7544 215.991 86.2923C216.541 86.8171 216.817 87.5471 216.817 88.4822C216.817 89.4174 216.541 90.1535 215.991 90.6914C215.453 91.2293 214.761 91.4982 213.916 91.4982C213.058 91.4982 212.353 91.2293 211.803 90.6914C211.265 90.1535 210.996 89.4174 210.996 88.4822ZM213.897 86.8109C213.09 86.8109 212.686 87.368 212.686 88.4822C212.686 89.5964 213.09 90.1535 213.897 90.1535C214.704 90.1535 215.107 89.5964 215.107 88.4822C215.107 87.368 214.704 86.8109 213.897 86.8109Z" fill="#27CF71"/>
<path d="M16.5524 121.516V125.435H21.1628V127.222H16.5524V131.313H21.7391V133.1H14.3624V119.729H21.7391V121.516H16.5524ZM23.7065 127.798C23.7065 126.709 23.9242 125.755 24.3597 124.935C24.8079 124.103 25.4226 123.462 26.2039 123.014C26.985 122.566 27.8815 122.342 28.8933 122.342C30.174 122.342 31.2306 122.649 32.063 123.264C32.9083 123.866 33.4782 124.73 33.7727 125.858H31.4098C31.2177 125.333 30.9104 124.922 30.4878 124.628C30.0651 124.334 29.5336 124.186 28.8933 124.186C27.9968 124.186 27.2796 124.507 26.7418 125.147C26.2166 125.775 25.9541 126.658 25.9541 127.798C25.9541 128.937 26.2166 129.828 26.7418 130.468C27.2796 131.108 27.9968 131.429 28.8933 131.429C30.1612 131.429 31.0001 130.871 31.4098 129.757H33.7727C33.4653 130.833 32.889 131.691 32.0438 132.331C31.1985 132.959 30.1484 133.273 28.8933 133.273C27.8815 133.273 26.985 133.048 26.2039 132.6C25.4226 132.139 24.8079 131.499 24.3597 130.679C23.9242 129.847 23.7065 128.887 23.7065 127.798ZM40.5464 133.273C39.5475 133.273 38.6446 133.048 37.8377 132.6C37.0309 132.139 36.397 131.499 35.9359 130.679C35.4749 129.847 35.2444 128.887 35.2444 127.798C35.2444 126.722 35.4813 125.768 35.9551 124.935C36.429 124.103 37.0758 123.462 37.8954 123.014C38.715 122.566 39.6307 122.342 40.6424 122.342C41.6542 122.342 42.5699 122.566 43.3895 123.014C44.2092 123.462 44.8559 124.103 45.3297 124.935C45.8036 125.768 46.0405 126.722 46.0405 127.798C46.0405 128.874 45.7972 129.828 45.3105 130.66C44.8239 131.492 44.1579 132.139 43.3127 132.6C42.4802 133.048 41.5582 133.273 40.5464 133.273ZM40.5464 131.371C41.1099 131.371 41.635 131.236 42.1216 130.968C42.6211 130.699 43.0245 130.295 43.3319 129.757C43.6392 129.219 43.7929 128.566 43.7929 127.798C43.7929 127.029 43.6457 126.382 43.3511 125.858C43.0566 125.32 42.666 124.916 42.1793 124.647C41.6926 124.378 41.1676 124.244 40.604 124.244C40.0405 124.244 39.5155 124.378 39.0288 124.647C38.555 124.916 38.1771 125.32 37.8954 125.858C37.6137 126.382 37.4727 127.029 37.4727 127.798C37.4727 128.937 37.7609 129.821 38.3372 130.449C38.9263 131.064 39.6627 131.371 40.5464 131.371ZM52.0475 133.273C51.2151 133.273 50.4659 133.125 49.7999 132.831C49.1468 132.524 48.6281 132.114 48.2439 131.601C47.8597 131.077 47.6548 130.493 47.6291 129.853H49.896C49.9344 130.301 50.1457 130.679 50.5299 130.987C50.9269 131.281 51.42 131.429 52.0091 131.429C52.6238 131.429 53.0977 131.313 53.4306 131.083C53.7764 130.839 53.9493 130.532 53.9493 130.161C53.9493 129.763 53.7572 129.469 53.373 129.277C53.0016 129.085 52.4061 128.874 51.5865 128.643C50.7925 128.426 50.1457 128.214 49.6462 128.009C49.1468 127.804 48.7114 127.49 48.3399 127.068C47.9814 126.645 47.802 126.088 47.802 125.397C47.802 124.833 47.9686 124.321 48.3015 123.86C48.6345 123.386 49.1083 123.014 49.7231 122.746C50.3506 122.477 51.0678 122.342 51.8746 122.342C53.0785 122.342 54.0454 122.649 54.7754 123.264C55.5182 123.866 55.9152 124.692 55.9664 125.742H53.7764C53.738 125.268 53.5459 124.891 53.2001 124.609C52.8543 124.327 52.3869 124.186 51.7978 124.186C51.2215 124.186 50.7796 124.295 50.4723 124.513C50.1649 124.73 50.0112 125.018 50.0112 125.377C50.0112 125.659 50.1137 125.896 50.3186 126.088C50.5235 126.28 50.7733 126.434 51.0678 126.549C51.3624 126.651 51.7978 126.786 52.3741 126.953C53.1425 127.158 53.7701 127.369 54.2567 127.586C54.7562 127.792 55.1852 128.099 55.5438 128.509C55.9024 128.918 56.0881 129.463 56.1009 130.141C56.1009 130.743 55.9344 131.281 55.6014 131.755C55.2685 132.229 54.7946 132.6 54.1798 132.869C53.5779 133.138 52.8672 133.273 52.0475 133.273ZM67.9955 122.515L61.5025 138.075H59.2356L61.3872 132.927L57.2186 122.515H59.6583L62.6359 130.583L65.7287 122.515H67.9955ZM73.4902 133.273C72.658 133.273 71.9088 133.125 71.2426 132.831C70.5895 132.524 70.0708 132.114 69.6866 131.601C69.3024 131.077 69.0972 130.493 69.0719 129.853H71.3387C71.3771 130.301 71.5884 130.679 71.9726 130.987C72.3698 131.281 72.8624 131.429 73.4518 131.429C74.0665 131.429 74.5406 131.313 74.8734 131.083C75.2191 130.839 75.392 130.532 75.392 130.161C75.392 129.763 75.1999 129.469 74.8157 129.277C74.4445 129.085 73.849 128.874 73.0292 128.643C72.2354 128.426 71.5884 128.214 71.0889 128.009C70.5895 127.804 70.1538 127.49 69.7826 127.068C69.4238 126.645 69.2447 126.088 69.2447 125.397C69.2447 124.833 69.4115 124.321 69.7442 123.86C70.077 123.386 70.551 123.014 71.1658 122.746C71.7935 122.477 72.5105 122.342 73.3173 122.342C74.5214 122.342 75.4881 122.649 76.2181 123.264C76.9611 123.866 77.3577 124.692 77.4091 125.742H75.2191C75.1807 125.268 74.9886 124.891 74.6428 124.609C74.297 124.327 73.8298 124.186 73.2405 124.186C72.6642 124.186 72.2223 124.295 71.915 124.513C71.6076 124.73 71.4539 125.018 71.4539 125.377C71.4539 125.659 71.5562 125.896 71.7613 126.088C71.9664 126.28 72.2162 126.434 72.5105 126.549C72.8048 126.651 73.2405 126.786 73.8168 126.953C74.5852 127.158 75.213 127.369 75.6994 127.586C76.1989 127.792 76.6277 128.099 76.9865 128.509C77.3453 128.918 77.5305 129.463 77.5436 130.141C77.5436 130.743 77.3769 131.281 77.0441 131.755C76.7114 132.229 76.2373 132.6 75.6226 132.869C75.0209 133.138 74.3101 133.273 73.4902 133.273ZM82.4648 124.302V130.161C82.4648 130.558 82.5547 130.846 82.7338 131.025C82.9259 131.192 83.2463 131.275 83.6943 131.275H85.039V133.1H83.3101C82.3242 133.1 81.5681 132.869 81.0433 132.408C80.5184 131.947 80.2557 131.198 80.2557 130.161V124.302H79.007V122.515H80.2557V119.883H82.4648V122.515H85.039V124.302H82.4648ZM96.7586 127.548C96.7586 127.945 96.7333 128.303 96.6818 128.624H88.5943C88.6581 129.469 88.9723 130.148 89.5356 130.66C90.0989 131.173 90.7904 131.429 91.6103 131.429C92.7883 131.429 93.6212 130.935 94.1076 129.949H96.4705C96.1501 130.923 95.5676 131.723 94.7224 132.351C93.8901 132.965 92.8528 133.273 91.6103 133.273C90.5983 133.273 89.6893 133.048 88.8824 132.6C88.0886 132.139 87.4609 131.499 86.9998 130.679C86.5518 129.847 86.3275 128.887 86.3275 127.798C86.3275 126.709 86.545 125.755 86.9806 124.935C87.4286 124.103 88.0502 123.462 88.844 123.014C89.6508 122.566 90.5729 122.342 91.6103 122.342C92.6092 122.342 93.4991 122.56 94.2805 122.995C95.062 123.431 95.6698 124.046 96.1055 124.839C96.5412 125.621 96.7586 126.524 96.7586 127.548ZM94.4726 126.857C94.4596 126.05 94.1714 125.403 93.6082 124.916C93.0449 124.43 92.3465 124.186 91.5142 124.186C90.7589 124.186 90.1119 124.43 89.574 124.916C89.0361 125.39 88.7157 126.037 88.6135 126.857H94.4726ZM111.727 122.342C112.56 122.342 113.302 122.515 113.955 122.861C114.621 123.207 115.14 123.719 115.511 124.398C115.896 125.076 116.088 125.896 116.088 126.857V133.1H113.917V127.183C113.917 126.236 113.68 125.512 113.206 125.012C112.733 124.5 112.086 124.244 111.266 124.244C110.447 124.244 109.794 124.5 109.306 125.012C108.833 125.512 108.596 126.236 108.596 127.183V133.1H106.425V127.183C106.425 126.236 106.188 125.512 105.714 125.012C105.241 124.5 104.594 124.244 103.774 124.244C102.955 124.244 102.301 124.5 101.814 125.012C101.341 125.512 101.104 126.236 101.104 127.183V133.1H98.9136V122.515H101.104V123.725C101.462 123.29 101.917 122.951 102.468 122.707C103.018 122.464 103.608 122.342 104.235 122.342C105.08 122.342 105.836 122.521 106.502 122.88C107.168 123.239 107.68 123.757 108.038 124.436C108.359 123.796 108.858 123.29 109.537 122.918C110.216 122.534 110.946 122.342 111.727 122.342ZM69.6276 159.171L67.9752 157.519C67.3349 158.159 66.6369 158.639 65.8813 158.96C65.1257 159.267 64.2805 159.421 63.3455 159.421C62.3979 159.421 61.559 159.254 60.829 158.921C60.099 158.588 59.5355 158.114 59.1385 157.5C58.7415 156.872 58.543 156.149 58.543 155.329C58.543 154.407 58.8055 153.587 59.3306 152.87C59.8557 152.14 60.6369 151.564 61.6743 151.141C61.3029 150.693 61.0403 150.277 60.8866 149.892C60.7329 149.495 60.6561 149.06 60.6561 148.586C60.6561 147.997 60.8034 147.472 61.0979 147.011C61.4053 146.55 61.8408 146.185 62.4042 145.916C62.9678 145.647 63.6209 145.512 64.3637 145.512C65.1193 145.512 65.7597 145.66 66.2847 145.954C66.8226 146.236 67.2196 146.627 67.4758 147.126C67.7447 147.626 67.8536 148.183 67.8023 148.797H65.6124C65.6252 148.323 65.5099 147.958 65.2666 147.702C65.0233 147.433 64.6903 147.299 64.2676 147.299C63.845 147.299 63.4992 147.427 63.2303 147.683C62.9742 147.927 62.8461 148.227 62.8461 148.586C62.8461 148.932 62.9421 149.278 63.1342 149.623C63.3392 149.956 63.6913 150.392 64.1908 150.93L67.7255 154.445L69.0897 152.198H71.4526L69.7236 155.156L69.2434 155.944L72.4899 159.171H69.6276ZM63.3455 157.557C64.5494 157.557 65.6124 157.064 66.5345 156.078L62.9998 152.524C61.4886 153.126 60.7329 154.036 60.7329 155.252C60.7329 155.905 60.9763 156.456 61.4629 156.904C61.9496 157.34 62.5771 157.557 63.3455 157.557ZM5.89125 171.891C7.31284 171.891 8.55505 172.166 9.61807 172.717C10.6938 173.255 11.5199 174.036 12.0962 175.061C12.6853 176.073 12.9799 177.257 12.9799 178.614C12.9799 179.972 12.6853 181.15 12.0962 182.149C11.5199 183.148 10.6938 183.916 9.61807 184.454C8.55505 184.979 7.31284 185.242 5.89125 185.242H1.53052V171.891H5.89125ZM5.89125 183.455C7.45369 183.455 8.6511 183.033 9.4836 182.188C10.316 181.342 10.7323 180.151 10.7323 178.614C10.7323 177.065 10.316 175.854 9.4836 174.984C8.6511 174.113 7.45369 173.677 5.89125 173.677H3.72049V183.455H5.89125ZM24.8515 179.69C24.8515 180.087 24.8259 180.446 24.7746 180.766H16.6871C16.7512 181.611 17.0649 182.29 17.6284 182.802C18.192 183.315 18.8835 183.571 19.7031 183.571C20.8814 183.571 21.7138 183.077 22.2004 182.091H24.5633C24.2432 183.065 23.6604 183.865 22.8152 184.493C21.9828 185.108 20.9454 185.415 19.7031 185.415C18.6914 185.415 17.7821 185.191 16.9753 184.743C16.1813 184.281 15.5537 183.641 15.0926 182.821C14.6444 181.989 14.4203 181.029 14.4203 179.94C14.4203 178.851 14.6381 177.897 15.0734 177.078C15.5217 176.245 16.1428 175.605 16.9368 175.157C17.7437 174.709 18.6658 174.484 19.7031 174.484C20.702 174.484 21.5922 174.702 22.3733 175.137C23.1546 175.573 23.7629 176.188 24.1983 176.982C24.6338 177.763 24.8515 178.666 24.8515 179.69ZM22.5654 178.999C22.5527 178.192 22.2645 177.545 21.701 177.058C21.1375 176.572 20.4396 176.328 19.6071 176.328C18.8515 176.328 18.2047 176.572 17.6668 177.058C17.1289 177.532 16.8088 178.179 16.7063 178.999H22.5654ZM31.0984 183.283L34.0952 174.657H36.4197L32.3855 185.242H29.7729L25.758 174.657H28.1016L31.0984 183.283ZM47.7762 179.69C47.7762 180.087 47.7507 180.446 47.6994 180.766H39.6119C39.6759 181.611 39.9897 182.29 40.5532 182.802C41.1167 183.315 41.8082 183.571 42.6279 183.571C43.8061 183.571 44.6386 183.077 45.1252 182.091H47.4881C47.1679 183.065 46.5852 183.865 45.74 184.493C44.9075 185.108 43.8702 185.415 42.6279 185.415C41.6161 185.415 40.7069 185.191 39.9 184.743C39.106 184.281 38.4785 183.641 38.0174 182.821C37.5692 181.989 37.3451 181.029 37.3451 179.94C37.3451 178.851 37.5628 177.897 37.9982 177.078C38.4464 176.245 39.0676 175.605 39.8616 175.157C40.6684 174.709 41.5905 174.484 42.6279 174.484C43.6268 174.484 44.5169 174.702 45.2981 175.137C46.0794 175.573 46.6876 176.188 47.1231 176.982C47.5586 177.763 47.7762 178.666 47.7762 179.69ZM45.4902 178.999C45.4774 178.192 45.1892 177.545 44.6258 177.058C44.0623 176.572 43.3643 176.328 42.5318 176.328C41.7763 176.328 41.1295 176.572 40.5916 177.058C40.0537 177.532 39.7335 178.179 39.6311 178.999H45.4902ZM52.1213 171.026V185.242H49.9314V171.026H52.1213ZM59.5879 185.415C58.5889 185.415 57.6861 185.191 56.8792 184.743C56.0724 184.281 55.4385 183.641 54.9774 182.821C54.5164 181.989 54.2859 181.029 54.2859 179.94C54.2859 178.864 54.5228 177.91 54.9966 177.078C55.4704 176.245 56.1172 175.605 56.9369 175.157C57.7565 174.709 58.6722 174.484 59.6839 174.484C60.6956 174.484 61.6113 174.709 62.431 175.157C63.2506 175.605 63.8974 176.245 64.3712 177.078C64.845 177.91 65.082 178.864 65.082 179.94C65.082 181.016 64.8387 181.97 64.352 182.802C63.8653 183.634 63.1994 184.281 62.3542 184.743C61.5217 185.191 60.5996 185.415 59.5879 185.415ZM59.5879 183.513C60.1514 183.513 60.6764 183.379 61.1631 183.11C61.6626 182.841 62.066 182.437 62.3734 181.899C62.6807 181.362 62.8344 180.708 62.8344 179.94C62.8344 179.172 62.6871 178.525 62.3926 178C62.098 177.462 61.7074 177.058 61.2208 176.789C60.734 176.521 60.209 176.386 59.6455 176.386C59.082 176.386 58.5569 176.521 58.0703 176.789C57.5964 177.058 57.2186 177.462 56.9369 178C56.6551 178.525 56.5142 179.172 56.5142 179.94C56.5142 181.08 56.8024 181.963 57.3787 182.591C57.9678 183.206 58.7042 183.513 59.5879 183.513ZM69.4369 176.213C69.808 175.727 70.3143 175.316 70.9545 174.984C71.5946 174.651 72.3184 174.484 73.1252 174.484C74.0473 174.484 74.8864 174.715 75.6418 175.176C76.4102 175.624 77.0119 176.258 77.4475 177.078C77.8832 177.897 78.1007 178.839 78.1007 179.902C78.1007 180.964 77.8832 181.919 77.4475 182.764C77.0119 183.596 76.4102 184.249 75.6418 184.723C74.8864 185.184 74.0473 185.415 73.1252 185.415C72.3184 185.415 71.6014 185.255 70.9737 184.935C70.3459 184.602 69.8341 184.192 69.4369 183.705V190.275H67.2469V174.657H69.4369V176.213ZM75.8723 179.902C75.8723 179.172 75.7186 178.544 75.4112 178.019C75.1169 177.481 74.7197 177.078 74.2202 176.809C73.7338 176.527 73.2082 176.386 72.645 176.386C72.094 176.386 71.5692 176.527 71.0697 176.809C70.5833 177.091 70.186 177.5 69.8787 178.038C69.5844 178.576 69.4369 179.21 69.4369 179.94C69.4369 180.67 69.5844 181.31 69.8787 181.861C70.186 182.399 70.5833 182.808 71.0697 183.09C71.5692 183.372 72.094 183.513 72.645 183.513C73.2082 183.513 73.7338 183.372 74.2202 183.09C74.7197 182.796 75.1169 182.373 75.4112 181.823C75.7186 181.272 75.8723 180.632 75.8723 179.902ZM93.0799 174.484C93.9121 174.484 94.6551 174.657 95.3083 175.003C95.9738 175.349 96.4924 175.861 96.8643 176.54C97.2485 177.218 97.4406 178.038 97.4406 178.999V185.242H95.2698V179.325C95.2698 178.378 95.0325 177.654 94.5591 177.154C94.085 176.642 93.438 176.386 92.6188 176.386C91.799 176.386 91.1458 176.642 90.6594 177.154C90.1853 177.654 89.9486 178.378 89.9486 179.325V185.242H87.7778V179.325C87.7778 178.378 87.5405 177.654 87.0671 177.154C86.593 176.642 85.946 176.386 85.1268 176.386C84.307 176.386 83.6538 176.642 83.1674 177.154C82.6933 177.654 82.4566 178.378 82.4566 179.325V185.242H80.2666V174.657H82.4566V175.867C82.8147 175.432 83.2696 175.093 83.8205 174.849C84.3708 174.606 84.9601 174.484 85.5879 174.484C86.4331 174.484 87.1885 174.663 87.8547 175.022C88.5202 175.381 89.0327 175.9 89.3915 176.578C89.7112 175.938 90.2107 175.432 90.8899 175.061C91.5684 174.676 92.2984 174.484 93.0799 174.484ZM109.928 179.69C109.928 180.087 109.903 180.446 109.851 180.766H101.764C101.828 181.611 102.142 182.29 102.705 182.802C103.269 183.315 103.96 183.571 104.78 183.571C105.958 183.571 106.791 183.077 107.277 182.091H109.64C109.32 183.065 108.737 183.865 107.892 184.493C107.059 185.108 106.022 185.415 104.78 185.415C103.768 185.415 102.859 185.191 102.052 184.743C101.258 184.281 100.63 183.641 100.169 182.821C99.7211 181.989 99.4968 181.029 99.4968 179.94C99.4968 178.851 99.715 177.897 100.15 177.078C100.599 176.245 101.22 175.605 102.013 175.157C102.82 174.709 103.742 174.484 104.78 174.484C105.779 174.484 106.669 174.702 107.45 175.137C108.231 175.573 108.84 176.188 109.275 176.982C109.71 177.763 109.928 178.666 109.928 179.69ZM107.642 178.999C107.63 178.192 107.341 177.545 106.777 177.058C106.214 176.572 105.516 176.328 104.684 176.328C103.928 176.328 103.281 176.572 102.743 177.058C102.205 177.532 101.886 178.179 101.783 178.999H107.642ZM117.424 174.484C118.256 174.484 118.999 174.657 119.652 175.003C120.318 175.349 120.837 175.861 121.209 176.54C121.58 177.218 121.766 178.038 121.766 178.999V185.242H119.595V179.325C119.595 178.378 119.357 177.654 118.884 177.154C118.41 176.642 117.763 176.386 116.944 176.386C116.124 176.386 115.471 176.642 114.984 177.154C114.51 177.654 114.274 178.378 114.274 179.325V185.242H112.084V174.657H114.274V175.867C114.632 175.432 115.087 175.093 115.638 174.849C116.201 174.606 116.796 174.484 117.424 174.484ZM127.114 176.444V182.303C127.114 182.7 127.203 182.988 127.383 183.167C127.575 183.334 127.895 183.417 128.343 183.417H129.688V185.242H127.959C126.973 185.242 126.218 185.011 125.692 184.55C125.167 184.089 124.904 183.34 124.904 182.303V176.444H123.656V174.657H124.904V172.025H127.114V174.657H129.688V176.444H127.114Z" fill="#226BDF"/>
<path d="M48.3828 214.52V212.522H52.3786V226.526H50.1694V214.52H48.3828ZM55.3871 219.342C55.3871 217.126 55.7585 215.398 56.5013 214.155C57.2569 212.9 58.5504 212.272 60.3818 212.272C62.2131 212.272 63.5002 212.9 64.243 214.155C64.9986 215.398 65.3764 217.126 65.3764 219.342C65.3764 221.583 64.9986 223.338 64.243 224.605C63.5002 225.861 62.2131 226.488 60.3818 226.488C58.5504 226.488 57.2569 225.861 56.5013 224.605C55.7585 223.338 55.3871 221.583 55.3871 219.342ZM63.2249 219.342C63.2249 218.304 63.1544 217.428 63.0136 216.71C62.8855 215.993 62.6165 215.411 62.2067 214.962C61.7969 214.501 61.1886 214.27 60.3818 214.27C59.5749 214.27 58.9666 214.501 58.5568 214.962C58.147 215.411 57.8716 215.993 57.7307 216.71C57.6026 217.428 57.5386 218.304 57.5386 219.342C57.5386 220.418 57.6026 221.32 57.7307 222.05C57.8588 222.78 58.1278 223.37 58.5376 223.818C58.9602 224.267 59.5749 224.49 60.3818 224.49C61.1886 224.49 61.7969 224.267 62.2067 223.818C62.6294 223.37 62.9047 222.78 63.0328 222.05C63.1609 221.32 63.2249 220.418 63.2249 219.342ZM67.3479 215.903C67.3479 214.969 67.6168 214.239 68.1547 213.713C68.7054 213.175 69.41 212.906 70.2676 212.906C71.1259 212.906 71.8237 213.175 72.3615 213.713C72.9125 214.239 73.1876 214.969 73.1876 215.903C73.1876 216.838 72.9125 217.574 72.3615 218.112C71.8237 218.65 71.1259 218.919 70.2676 218.919C69.41 218.919 68.7054 218.65 68.1547 218.112C67.6168 217.574 67.3479 216.838 67.3479 215.903ZM79.0659 213.156L71.401 226.526H69.2495L76.9144 213.156H79.0659ZM70.2676 214.232C69.4608 214.232 69.0574 214.789 69.0574 215.903C69.0574 217.03 69.4608 217.594 70.2676 217.594C70.6518 217.594 70.9468 217.459 71.1513 217.19C71.3695 216.909 71.4779 216.48 71.4779 215.903C71.4779 214.789 71.0745 214.232 70.2676 214.232ZM75.1662 223.76C75.1662 222.826 75.4352 222.096 75.9731 221.57C76.524 221.032 77.2286 220.763 78.0862 220.763C78.9315 220.763 79.623 221.032 80.1609 221.57C80.7118 222.096 80.987 222.826 80.987 223.76C80.987 224.695 80.7118 225.431 80.1609 225.969C79.623 226.507 78.9315 226.776 78.0862 226.776C77.2286 226.776 76.524 226.507 75.9731 225.969C75.4352 225.431 75.1662 224.695 75.1662 223.76ZM78.067 222.089C77.2602 222.089 76.8568 222.646 76.8568 223.76C76.8568 224.874 77.2602 225.431 78.067 225.431C78.8738 225.431 79.2772 224.874 79.2772 223.76C79.2772 222.646 78.8738 222.089 78.067 222.089Z" fill="#226BDF"/>
<path d="M10.9471 307.595C10.9471 308.274 10.7869 308.914 10.4667 309.516C10.1466 310.118 9.63432 310.611 8.92992 310.995C8.22559 311.366 7.3227 311.552 6.2213 311.552H3.80081V316.97H1.61084V303.619H6.2213C7.24586 303.619 8.11032 303.798 8.81466 304.156C9.53188 304.502 10.0633 304.976 10.4092 305.578C10.7677 306.18 10.9471 306.852 10.9471 307.595ZM6.2213 309.766C7.05376 309.766 7.67487 309.58 8.08467 309.209C8.49453 308.824 8.69939 308.287 8.69939 307.595C8.69939 306.135 7.87335 305.405 6.2213 305.405H3.80081V309.766H6.2213ZM12.3057 311.629C12.3057 310.566 12.5234 309.625 12.9589 308.805C13.4071 307.985 14.009 307.351 14.7646 306.903C15.533 306.442 16.3783 306.212 17.3004 306.212C18.1328 306.212 18.8564 306.379 19.4711 306.711C20.0987 307.032 20.5982 307.435 20.9695 307.922V306.385H23.1787V316.97H20.9695V315.394C20.5982 315.894 20.0922 316.31 19.4519 316.643C18.8116 316.976 18.0816 317.143 17.262 317.143C16.3527 317.143 15.5202 316.912 14.7646 316.451C14.009 315.977 13.4071 315.324 12.9589 314.492C12.5234 313.646 12.3057 312.692 12.3057 311.629ZM20.9695 311.668C20.9695 310.938 20.8159 310.304 20.5085 309.766C20.214 309.228 19.8233 308.818 19.3367 308.536C18.85 308.254 18.3249 308.114 17.7614 308.114C17.1979 308.114 16.6728 308.254 16.1862 308.536C15.6995 308.805 15.3025 309.209 14.9951 309.747C14.7006 310.271 14.5533 310.899 14.5533 311.629C14.5533 312.359 14.7006 312.999 14.9951 313.55C15.3025 314.101 15.6995 314.524 16.1862 314.818C16.6857 315.1 17.2107 315.241 17.7614 315.241C18.3249 315.241 18.85 315.1 19.3367 314.818C19.8233 314.536 20.214 314.127 20.5085 313.589C20.8159 313.038 20.9695 312.398 20.9695 311.668ZM28.2452 307.922C28.5653 307.384 28.9879 306.967 29.513 306.673C30.0509 306.366 30.6849 306.212 31.4149 306.212V308.479H30.8578C29.9997 308.479 29.3465 308.696 28.8983 309.132C28.4628 309.568 28.2452 310.323 28.2452 311.399V316.97H26.0552V306.385H28.2452V307.922ZM35.9828 308.171V314.03C35.9828 314.428 36.0724 314.716 36.2518 314.895C36.4439 315.062 36.764 315.145 37.2123 315.145H38.557V316.97H36.8281C35.8419 316.97 35.0863 316.739 34.5613 316.278C34.0362 315.817 33.7737 315.068 33.7737 314.03V308.171H32.525V306.385H33.7737V303.753H35.9828V306.385H38.557V308.171H35.9828ZM45.9159 306.212C46.7483 306.212 47.4911 306.385 48.1442 306.731C48.8102 307.076 49.3289 307.589 49.7003 308.267C50.0717 308.946 50.2574 309.766 50.2574 310.726V316.97H48.0866V311.053C48.0866 310.105 47.8497 309.382 47.3758 308.882C46.902 308.37 46.2553 308.114 45.4356 308.114C44.616 308.114 43.9629 308.37 43.4762 308.882C43.0023 309.382 42.7654 310.105 42.7654 311.053V316.97H40.5754V306.385H42.7654V307.595C43.124 307.159 43.5787 306.82 44.1293 306.577C44.6928 306.333 45.2884 306.212 45.9159 306.212ZM62.752 311.418C62.752 311.815 62.7264 312.173 62.6752 312.494H54.5876C54.6517 313.339 54.9655 314.017 55.5289 314.53C56.0925 315.042 56.7841 315.298 57.6037 315.298C58.7819 315.298 59.6144 314.805 60.101 313.819H62.4639C62.1437 314.793 61.561 315.593 60.7157 316.22C59.8833 316.835 58.8459 317.143 57.6037 317.143C56.592 317.143 55.6826 316.918 54.8758 316.47C54.0818 316.009 53.4542 315.369 52.9932 314.549C52.545 313.717 52.3208 312.756 52.3208 311.668C52.3208 310.579 52.5386 309.625 52.974 308.805C53.4223 307.973 54.0434 307.332 54.8374 306.884C55.6442 306.436 56.5663 306.212 57.6037 306.212C58.6026 306.212 59.4927 306.429 60.2739 306.865C61.0551 307.301 61.6635 307.915 62.0989 308.709C62.5343 309.491 62.752 310.394 62.752 311.418ZM60.466 310.726C60.4532 309.919 60.1651 309.272 59.6015 308.786C59.038 308.3 58.3401 308.056 57.5076 308.056C56.752 308.056 56.1053 308.3 55.5674 308.786C55.0295 309.26 54.7094 309.906 54.6069 310.726H60.466ZM67.0972 307.922C67.4173 307.384 67.8399 306.967 68.365 306.673C68.903 306.366 69.5369 306.212 70.2669 306.212V308.479H69.7098C68.8515 308.479 68.1985 308.696 67.7503 309.132C67.3149 309.568 67.0972 310.323 67.0972 311.399V316.97H64.9072V306.385H67.0972V307.922ZM76.1219 317.143C75.2897 317.143 74.5405 316.995 73.8743 316.701C73.2212 316.393 72.7025 315.984 72.3183 315.471C71.9341 314.946 71.729 314.363 71.7036 313.723H73.9704C74.0088 314.171 74.2201 314.549 74.6043 314.857C75.0016 315.151 75.4942 315.298 76.0835 315.298C76.6983 315.298 77.1723 315.183 77.5051 314.953C77.8509 314.709 78.0238 314.402 78.0238 314.03C78.0238 313.633 77.8317 313.339 77.4475 313.147C77.0763 312.955 76.4808 312.743 75.6609 312.513C74.8671 312.295 74.2201 312.084 73.7207 311.879C73.2212 311.674 72.7855 311.36 72.4144 310.938C72.0555 310.515 71.8765 309.958 71.8765 309.266C71.8765 308.703 72.0432 308.191 72.3759 307.73C72.7087 307.255 73.1828 306.884 73.7975 306.615C74.4253 306.346 75.1422 306.212 75.9491 306.212C77.1531 306.212 78.1198 306.519 78.8498 307.134C79.5928 307.736 79.9894 308.562 80.0408 309.612H77.8509C77.8124 309.138 77.6203 308.761 77.2746 308.479C76.9288 308.197 76.4616 308.056 75.8722 308.056C75.2959 308.056 74.8541 308.165 74.5467 308.383C74.2393 308.6 74.0857 308.888 74.0857 309.247C74.0857 309.529 74.1879 309.766 74.393 309.958C74.5982 310.15 74.8479 310.304 75.1422 310.419C75.4365 310.521 75.8722 310.656 76.4485 310.822C77.2169 311.027 77.8447 311.239 78.3311 311.456C78.8306 311.661 79.2594 311.969 79.6182 312.378C79.977 312.788 80.1623 313.333 80.1753 314.011C80.1753 314.613 80.0086 315.151 79.6758 315.625C79.3431 316.099 78.869 316.47 78.2543 316.739C77.6526 317.008 76.9418 317.143 76.1219 317.143ZM88.0165 306.212C88.8234 306.212 89.5403 306.385 90.1681 306.731C90.8082 307.076 91.3077 307.589 91.6665 308.267C92.0376 308.946 92.2236 309.766 92.2236 310.726V316.97H90.0528V311.053C90.0528 310.105 89.8161 309.382 89.342 308.882C88.868 308.37 88.2217 308.114 87.4018 308.114C86.5819 308.114 85.9288 308.37 85.4424 308.882C84.9683 309.382 84.7316 310.105 84.7316 311.053V316.97H82.5416V302.754H84.7316V307.614C85.1027 307.166 85.5706 306.82 86.1339 306.577C86.7102 306.333 87.338 306.212 88.0165 306.212ZM96.1315 304.982C95.7343 304.982 95.4015 304.848 95.1326 304.579C94.8636 304.31 94.7291 303.977 94.7291 303.58C94.7291 303.183 94.8636 302.85 95.1326 302.581C95.4015 302.312 95.7343 302.178 96.1315 302.178C96.5157 302.178 96.8423 302.312 97.1112 302.581C97.3802 302.85 97.5146 303.183 97.5146 303.58C97.5146 303.977 97.3802 304.31 97.1112 304.579C96.8423 304.848 96.5157 304.982 96.1315 304.982ZM97.2073 306.385V316.97H95.0173V306.385H97.2073ZM102.272 307.941C102.644 307.454 103.149 307.044 103.79 306.711C104.43 306.379 105.153 306.212 105.96 306.212C106.882 306.212 107.721 306.442 108.477 306.903C109.245 307.351 109.848 307.985 110.283 308.805C110.718 309.625 110.936 310.566 110.936 311.629C110.936 312.692 110.718 313.646 110.283 314.492C109.848 315.324 109.245 315.977 108.477 316.451C107.721 316.912 106.882 317.143 105.96 317.143C105.153 317.143 104.437 316.983 103.809 316.662C103.182 316.33 102.669 315.919 102.272 315.433V322.003H100.082V306.385H102.272V307.941ZM108.707 311.629C108.707 310.899 108.554 310.271 108.246 309.747C107.952 309.209 107.555 308.805 107.055 308.536C106.569 308.254 106.044 308.114 105.48 308.114C104.93 308.114 104.404 308.254 103.905 308.536C103.418 308.818 103.021 309.228 102.714 309.766C102.419 310.304 102.272 310.938 102.272 311.668C102.272 312.398 102.419 313.038 102.714 313.589C103.021 314.127 103.418 314.536 103.905 314.818C104.404 315.1 104.93 315.241 105.48 315.241C106.044 315.241 106.569 315.1 107.055 314.818C107.555 314.524 107.952 314.101 108.246 313.55C108.554 312.999 108.707 312.359 108.707 311.629ZM60.3651 343.041L58.7131 341.389C58.0727 342.029 57.3748 342.509 56.6191 342.829C55.8635 343.137 55.0183 343.29 54.0834 343.29C53.1357 343.29 52.2968 343.124 51.5668 342.791C50.8368 342.458 50.2734 341.984 49.8763 341.369C49.4794 340.742 49.2808 340.019 49.2808 339.199C49.2808 338.277 49.5434 337.457 50.0684 336.74C50.5936 336.01 51.3747 335.433 52.4121 335.011C52.0407 334.563 51.7781 334.146 51.6245 333.762C51.4708 333.365 51.3939 332.93 51.3939 332.456C51.3939 331.867 51.5412 331.342 51.8358 330.881C52.1431 330.42 52.5786 330.055 53.1421 329.786C53.7056 329.517 54.3588 329.382 55.1015 329.382C55.8572 329.382 56.4975 329.53 57.0225 329.824C57.5604 330.106 57.9575 330.496 58.2136 330.996C58.4825 331.495 58.5914 332.052 58.5402 332.667H56.3502C56.363 332.193 56.2478 331.828 56.0044 331.572C55.7611 331.303 55.4281 331.169 55.0055 331.169C54.5828 331.169 54.2371 331.297 53.9681 331.553C53.712 331.797 53.5839 332.097 53.5839 332.456C53.5839 332.802 53.68 333.147 53.8721 333.493C54.077 333.826 54.4292 334.262 54.9286 334.8L58.4633 338.315L59.8272 336.067H62.1901L60.4612 339.026L59.9809 339.813L63.2275 343.041H60.3651ZM54.0834 341.427C55.2872 341.427 56.3502 340.934 57.2723 339.948L53.7376 336.394C52.2264 336.996 51.4708 337.905 51.4708 339.122C51.4708 339.775 51.7141 340.326 52.2008 340.774C52.6875 341.21 53.315 341.427 54.0834 341.427ZM32.041 359.603C31.6952 358.937 31.2149 358.437 30.6002 358.104C29.9855 357.759 29.2747 357.586 28.4679 357.586C27.5842 357.586 26.7966 357.784 26.105 358.181C25.4134 358.578 24.8691 359.142 24.4721 359.872C24.0879 360.602 23.8958 361.447 23.8958 362.407C23.8958 363.368 24.0879 364.219 24.4721 364.962C24.8691 365.692 25.4134 366.256 26.105 366.653C26.7966 367.05 27.5842 367.248 28.4679 367.248C29.6589 367.248 30.6258 366.916 31.3686 366.249C32.1114 365.583 32.566 364.68 32.7325 363.541H27.7187V361.793H35.0762V363.502C34.9353 364.54 34.5639 365.494 33.962 366.365C33.3729 367.235 32.5981 367.934 31.6376 368.459C30.6899 368.971 29.6333 369.227 28.4679 369.227C27.2127 369.227 26.0666 368.939 25.0292 368.363C23.9919 367.773 23.1658 366.96 22.5511 365.923C21.9491 364.886 21.6482 363.714 21.6482 362.407C21.6482 361.101 21.9491 359.929 22.5511 358.892C23.1658 357.855 23.9919 357.048 25.0292 356.471C26.0793 355.882 27.2256 355.588 28.4679 355.588C29.8894 355.588 31.1509 355.94 32.2523 356.644C33.3665 357.336 34.1733 358.322 34.6728 359.603H32.041ZM39.4261 360.064C39.7463 359.526 40.1689 359.109 40.694 358.815C41.2318 358.508 41.8658 358.354 42.5958 358.354V360.621H42.0387C41.1807 360.621 40.5275 360.838 40.0792 361.274C39.6438 361.71 39.4261 362.465 39.4261 363.541V369.112H37.2361V358.527H39.4261V360.064ZM49.2001 369.285C48.2011 369.285 47.2982 369.06 46.4914 368.612C45.6846 368.151 45.0506 367.511 44.5896 366.691C44.1285 365.859 43.898 364.899 43.898 363.81C43.898 362.734 44.135 361.78 44.6088 360.947C45.0827 360.115 45.7294 359.474 46.549 359.026C47.3687 358.578 48.2844 358.354 49.2961 358.354C50.3079 358.354 51.2236 358.578 52.0432 359.026C52.8628 359.474 53.5096 360.115 53.9834 360.947C54.4573 361.78 54.6942 362.734 54.6942 363.81C54.6942 364.886 54.4509 365.84 53.9642 366.672C53.4776 367.504 52.8116 368.151 51.9663 368.612C51.1339 369.06 50.2118 369.285 49.2001 369.285ZM49.2001 367.383C49.7636 367.383 50.2887 367.248 50.7753 366.979C51.2748 366.711 51.6782 366.307 51.9855 365.769C52.2929 365.231 52.4466 364.578 52.4466 363.81C52.4466 363.041 52.2994 362.394 52.0048 361.869C51.7102 361.332 51.3196 360.928 50.8329 360.659C50.3463 360.39 49.8212 360.256 49.2577 360.256C48.6942 360.256 48.1692 360.39 47.6824 360.659C47.2086 360.928 46.8308 361.332 46.549 361.869C46.2673 362.394 46.1264 363.041 46.1264 363.81C46.1264 364.949 46.4146 365.833 46.9909 366.461C47.58 367.075 48.3164 367.383 49.2001 367.383ZM71.0744 358.527L67.7898 369.112H65.4845L63.3522 361.293L61.2199 369.112H58.9146L55.6105 358.527H57.8388L60.048 367.037L62.2956 358.527H64.5816L66.7332 366.999L68.9229 358.527H71.0744ZM75.2664 360.314V366.173C75.2664 366.57 75.3563 366.858 75.5353 367.037C75.7274 367.204 76.0479 367.287 76.4959 367.287H77.8406V369.112H76.1116C75.1258 369.112 74.3697 368.881 73.8448 368.42C73.32 367.959 73.0572 367.21 73.0572 366.173V360.314H71.8086V358.527H73.0572V355.895H75.2664V358.527H77.8406V360.314H75.2664ZM85.334 358.354C86.1408 358.354 86.8577 358.527 87.4855 358.873C88.1256 359.218 88.6251 359.731 88.9839 360.41C89.3551 361.088 89.541 361.908 89.541 362.868V369.112H87.3702V363.195C87.3702 362.248 87.1335 361.524 86.6595 361.024C86.1854 360.512 85.5391 360.256 84.7192 360.256C83.8994 360.256 83.2462 360.512 82.7598 361.024C82.2857 361.524 82.049 362.248 82.049 363.195V369.112H79.859V354.896H82.049V359.756C82.4202 359.308 82.8881 358.963 83.4513 358.719C84.0277 358.475 84.6554 358.354 85.334 358.354Z" fill="#937E00"/>
<path d="M39.5276 395.526V393.528H43.5233V407.532H41.3141V395.526H39.5276ZM46.5319 400.348C46.5319 398.132 46.9032 396.403 47.6461 395.161C48.4016 393.906 49.6951 393.278 51.5265 393.278C53.3579 393.278 54.645 393.906 55.3878 395.161C56.1434 396.403 56.5212 398.132 56.5212 400.348C56.5212 402.589 56.1434 404.343 55.3878 405.611C54.645 406.866 53.3579 407.494 51.5265 407.494C49.6951 407.494 48.4016 406.866 47.6461 405.611C46.9032 404.343 46.5319 402.589 46.5319 400.348ZM54.3696 400.348C54.3696 399.31 54.2992 398.433 54.1583 397.716C54.0302 396.999 53.7613 396.416 53.3515 395.968C52.9416 395.507 52.3334 395.276 51.5265 395.276C50.7197 395.276 50.1113 395.507 49.7015 395.968C49.2917 396.416 49.0164 396.999 48.8755 397.716C48.7474 398.433 48.6834 399.31 48.6834 400.348C48.6834 401.423 48.7474 402.326 48.8755 403.056C49.0035 403.786 49.2725 404.376 49.6823 404.824C50.105 405.272 50.7197 405.496 51.5265 405.496C52.3334 405.496 52.9416 405.272 53.3515 404.824C53.7741 404.376 54.0495 403.786 54.1775 403.056C54.3056 402.326 54.3696 401.423 54.3696 400.348ZM58.4927 396.909C58.4927 395.974 58.7616 395.244 59.2995 394.719C59.8501 394.181 60.5545 393.912 61.4126 393.912C62.2706 393.912 62.9686 394.181 63.5065 394.719C64.0572 395.244 64.3326 395.974 64.3326 396.909C64.3326 397.844 64.0572 398.58 63.5065 399.118C62.9686 399.656 62.2706 399.925 61.4126 399.925C60.5545 399.925 59.8501 399.656 59.2995 399.118C58.7616 398.58 58.4927 397.844 58.4927 396.909ZM70.2108 394.162L62.546 407.532H60.3945L68.0594 394.162H70.2108ZM61.4126 395.238C60.6058 395.238 60.2024 395.795 60.2024 396.909C60.2024 398.036 60.6058 398.6 61.4126 398.6C61.7968 398.6 62.0914 398.465 62.2963 398.196C62.514 397.914 62.6229 397.485 62.6229 396.909C62.6229 395.795 62.2194 395.238 61.4126 395.238ZM66.3112 404.766C66.3112 403.831 66.5802 403.101 67.1181 402.576C67.6688 402.038 68.3731 401.769 69.2311 401.769C70.0764 401.769 70.7679 402.038 71.3058 402.576C71.8568 403.101 72.1319 403.831 72.1319 404.766C72.1319 405.701 71.8568 406.437 71.3058 406.975C70.7679 407.513 70.0764 407.782 69.2311 407.782C68.3731 407.782 67.6688 407.513 67.1181 406.975C66.5802 406.437 66.3112 405.701 66.3112 404.766ZM69.2119 403.095C68.4051 403.095 68.0017 403.652 68.0017 404.766C68.0017 405.88 68.4051 406.437 69.2119 406.437C70.0187 406.437 70.4222 405.88 70.4222 404.766C70.4222 403.652 70.0187 403.095 69.2119 403.095Z" fill="#937E00"/>
<path d="M122.7 510.579C121.803 510.579 120.997 510.425 120.28 510.118C119.563 509.797 118.999 509.349 118.589 508.773C118.18 508.197 117.974 507.524 117.974 506.756H120.318C120.37 507.332 120.593 507.806 120.99 508.177C121.4 508.549 121.97 508.735 122.7 508.735C123.456 508.735 124.045 508.555 124.467 508.197C124.89 507.825 125.101 507.351 125.101 506.775C125.101 506.327 124.967 505.962 124.698 505.68C124.442 505.398 124.116 505.181 123.718 505.027C123.334 504.873 122.796 504.707 122.105 504.527C121.234 504.297 120.523 504.066 119.972 503.836C119.434 503.592 118.973 503.221 118.589 502.722C118.205 502.222 118.013 501.556 118.013 500.724C118.013 499.955 118.205 499.283 118.589 498.707C118.973 498.13 119.511 497.689 120.203 497.381C120.894 497.074 121.695 496.92 122.604 496.92C123.897 496.92 124.954 497.247 125.774 497.9C126.606 498.54 127.067 499.424 127.157 500.551H124.736C124.698 500.065 124.467 499.648 124.045 499.302C123.622 498.957 123.065 498.784 122.374 498.784C121.746 498.784 121.234 498.943 120.837 499.264C120.439 499.584 120.241 500.045 120.241 500.647C120.241 501.057 120.363 501.396 120.606 501.665C120.862 501.921 121.183 502.126 121.567 502.28C121.951 502.434 122.476 502.6 123.142 502.779C124.026 503.023 124.743 503.266 125.294 503.509C125.857 503.753 126.331 504.13 126.715 504.643C127.112 505.142 127.311 505.815 127.311 506.66C127.311 507.338 127.125 507.979 126.753 508.581C126.395 509.183 125.864 509.67 125.159 510.041C124.467 510.4 123.648 510.579 122.7 510.579ZM132.45 501.646V507.505C132.45 507.902 132.539 508.19 132.719 508.37C132.911 508.536 133.231 508.619 133.679 508.619H135.024V510.444H133.295C132.309 510.444 131.553 510.214 131.028 509.753C130.503 509.292 130.241 508.542 130.241 507.505V501.646H128.992V499.859H130.241V497.228H132.45V499.859H135.024V501.646H132.45ZM136.312 505.104C136.312 504.041 136.53 503.1 136.965 502.28C137.414 501.46 138.016 500.826 138.772 500.378C139.54 499.917 140.385 499.687 141.307 499.687C142.14 499.687 142.863 499.853 143.478 500.186C144.105 500.506 144.605 500.91 144.977 501.396V499.859H147.186V510.444H144.977V508.869C144.605 509.368 144.099 509.785 143.459 510.118C142.818 510.45 142.088 510.617 141.269 510.617C140.359 510.617 139.527 510.387 138.772 509.926C138.016 509.452 137.414 508.798 136.965 507.966C136.53 507.121 136.312 506.167 136.312 505.104ZM144.977 505.142C144.977 504.412 144.823 503.778 144.515 503.24C144.22 502.703 143.83 502.293 143.344 502.011C142.857 501.729 142.332 501.588 141.768 501.588C141.204 501.588 140.68 501.729 140.193 502.011C139.706 502.28 139.309 502.683 139.001 503.221C138.707 503.746 138.56 504.374 138.56 505.104C138.56 505.834 138.707 506.474 139.001 507.025C139.309 507.576 139.706 507.998 140.193 508.293C140.693 508.575 141.217 508.715 141.768 508.715C142.332 508.715 142.857 508.575 143.344 508.293C143.83 508.011 144.22 507.601 144.515 507.063C144.823 506.512 144.977 505.872 144.977 505.142ZM154.25 505.161L159.129 510.444H156.171L152.252 505.891V510.444H150.062V496.229H152.252V504.489L156.094 499.859H159.129L154.25 505.161ZM161.813 498.457C161.416 498.457 161.083 498.323 160.814 498.054C160.545 497.785 160.411 497.452 160.411 497.055C160.411 496.657 160.545 496.325 160.814 496.056C161.083 495.787 161.416 495.652 161.813 495.652C162.197 495.652 162.524 495.787 162.793 496.056C163.062 496.325 163.196 496.657 163.196 497.055C163.196 497.452 163.062 497.785 162.793 498.054C162.524 498.323 162.197 498.457 161.813 498.457ZM162.889 499.859V510.444H160.699V499.859H162.889ZM171.105 499.687C171.937 499.687 172.68 499.859 173.333 500.205C173.998 500.551 174.517 501.063 174.889 501.742C175.26 502.421 175.446 503.24 175.446 504.201V510.444H173.275V504.527C173.275 503.58 173.038 502.856 172.564 502.357C172.09 501.844 171.443 501.588 170.624 501.588C169.804 501.588 169.151 501.844 168.665 502.357C168.191 502.856 167.954 503.58 167.954 504.527V510.444H165.764V499.859H167.954V501.07C168.312 500.634 168.767 500.295 169.318 500.051C169.881 499.808 170.477 499.687 171.105 499.687ZM182.504 499.687C183.324 499.687 184.047 499.853 184.675 500.186C185.315 500.506 185.815 500.91 186.173 501.396V499.859H188.382V510.617C188.382 511.591 188.178 512.455 187.767 513.211C187.358 513.979 186.762 514.581 185.981 515.016C185.212 515.452 184.29 515.669 183.215 515.669C181.781 515.669 180.59 515.33 179.641 514.651C178.694 513.985 178.156 513.076 178.028 511.923H180.199C180.365 512.474 180.717 512.916 181.255 513.249C181.806 513.595 182.459 513.768 183.215 513.768C184.098 513.768 184.809 513.499 185.347 512.961C185.898 512.423 186.173 511.641 186.173 510.617V508.85C185.802 509.349 185.296 509.772 184.655 510.118C184.028 510.45 183.311 510.617 182.504 510.617C181.582 510.617 180.736 510.387 179.968 509.926C179.213 509.452 178.611 508.798 178.162 507.966C177.727 507.121 177.509 506.167 177.509 505.104C177.509 504.041 177.727 503.1 178.162 502.28C178.611 501.46 179.213 500.826 179.968 500.378C180.736 499.917 181.582 499.687 182.504 499.687ZM186.173 505.142C186.173 504.412 186.019 503.778 185.712 503.24C185.418 502.703 185.027 502.293 184.54 502.011C184.054 501.729 183.529 501.588 182.965 501.588C182.402 501.588 181.877 501.729 181.39 502.011C180.903 502.28 180.506 502.683 180.199 503.221C179.904 503.746 179.757 504.374 179.757 505.104C179.757 505.834 179.904 506.474 180.199 507.025C180.506 507.576 180.903 507.998 181.39 508.293C181.889 508.575 182.415 508.715 182.965 508.715C183.529 508.715 184.054 508.575 184.54 508.293C185.027 508.011 185.418 507.601 185.712 507.063C186.019 506.512 186.173 505.872 186.173 505.142ZM157.789 536.515L156.137 534.863C155.496 535.503 154.798 535.984 154.043 536.304C153.287 536.611 152.442 536.765 151.507 536.765C150.559 536.765 149.721 536.598 148.991 536.266C148.261 535.933 147.697 535.459 147.3 534.844C146.903 534.216 146.705 533.493 146.705 532.673C146.705 531.751 146.967 530.931 147.492 530.214C148.017 529.484 148.799 528.908 149.836 528.485C149.464 528.037 149.202 527.621 149.048 527.237C148.895 526.84 148.818 526.405 148.818 525.93C148.818 525.341 148.965 524.816 149.26 524.355C149.567 523.894 150.002 523.529 150.566 523.26C151.129 522.991 151.782 522.857 152.525 522.857C153.281 522.857 153.921 523.004 154.446 523.299C154.984 523.581 155.381 523.971 155.638 524.47C155.906 524.97 156.015 525.527 155.964 526.142H153.774C153.786 525.668 153.671 525.303 153.428 525.047C153.185 524.778 152.852 524.643 152.429 524.643C152.007 524.643 151.661 524.772 151.392 525.028C151.135 525.271 151.008 525.572 151.008 525.93C151.008 526.276 151.104 526.622 151.296 526.968C151.5 527.301 151.853 527.736 152.353 528.274L155.887 531.79L157.251 529.542H159.614L157.885 532.5L157.405 533.288L160.651 536.515H157.789ZM151.507 534.902C152.711 534.902 153.774 534.408 154.696 533.422L151.162 529.869C149.65 530.47 148.895 531.38 148.895 532.596C148.895 533.25 149.138 533.8 149.625 534.249C150.111 534.684 150.739 534.902 151.507 534.902ZM50.2319 555.882C50.2319 554.576 50.5329 553.404 51.1348 552.367C51.7495 551.329 52.5756 550.522 53.6129 549.946C54.6631 549.357 55.8093 549.062 57.0516 549.062C58.4731 549.062 59.7346 549.414 60.836 550.119C61.9502 550.811 62.757 551.796 63.2565 553.077H60.6247C60.2789 552.373 59.7986 551.848 59.1839 551.502C58.5692 551.156 57.8584 550.983 57.0516 550.983C56.1679 550.983 55.3803 551.182 54.6887 551.579C53.9971 551.976 53.4529 552.546 53.0558 553.289C52.6716 554.032 52.4795 554.896 52.4795 555.882C52.4795 556.868 52.6716 557.732 53.0558 558.475C53.4529 559.218 53.9971 559.795 54.6887 560.204C55.3803 560.602 56.1679 560.8 57.0516 560.8C57.8584 560.8 58.5692 560.627 59.1839 560.281C59.7986 559.935 60.2789 559.411 60.6247 558.706H63.2565C62.757 559.987 61.9502 560.973 60.836 561.664C59.7346 562.356 58.4731 562.702 57.0516 562.702C55.7965 562.702 54.6503 562.414 53.6129 561.837C52.5756 561.248 51.7495 560.435 51.1348 559.397C50.5329 558.36 50.2319 557.188 50.2319 555.882ZM70.4112 562.759C69.4122 562.759 68.5093 562.535 67.7024 562.087C66.8956 561.626 66.2617 560.986 65.8006 560.166C65.3396 559.334 65.1091 558.373 65.1091 557.284C65.1091 556.209 65.346 555.254 65.8198 554.422C66.2937 553.59 66.9405 552.949 67.7601 552.501C68.5797 552.053 69.4952 551.829 70.5072 551.829C71.5192 551.829 72.4344 552.053 73.2543 552.501C74.0741 552.949 74.7204 553.59 75.1945 554.422C75.6686 555.254 75.9053 556.209 75.9053 557.284C75.9053 558.36 75.6617 559.314 75.1753 560.147C74.6889 560.979 74.0227 561.626 73.1774 562.087C72.3452 562.535 71.4231 562.759 70.4112 562.759ZM70.4112 560.857C70.9744 560.857 71.5 560.723 71.9864 560.454C72.4859 560.185 72.8893 559.782 73.1966 559.244C73.504 558.706 73.6577 558.053 73.6577 557.284C73.6577 556.516 73.5102 555.869 73.2159 555.344C72.9215 554.806 72.5305 554.403 72.044 554.134C71.5576 553.865 71.0321 553.73 70.4688 553.73C69.9055 553.73 69.38 553.865 68.8935 554.134C68.4197 554.403 68.0418 554.806 67.7601 555.344C67.4784 555.869 67.3374 556.516 67.3374 557.284C67.3374 558.424 67.6256 559.308 68.2019 559.935C68.7913 560.55 69.5275 560.857 70.4112 560.857ZM90.8831 551.829C91.716 551.829 92.4584 552.002 93.1115 552.347C93.7777 552.693 94.2964 553.206 94.6675 553.884C95.0518 554.563 95.2439 555.383 95.2439 556.343V562.586H93.0731V556.67C93.0731 555.722 92.8364 554.998 92.3623 554.499C91.8889 553.986 91.2419 553.73 90.4221 553.73C89.6029 553.73 88.9497 553.986 88.4626 554.499C87.9892 554.998 87.7519 555.722 87.7519 556.67V562.586H85.5811V556.67C85.5811 555.722 85.3444 554.998 84.8703 554.499C84.3969 553.986 83.7499 553.73 82.9301 553.73C82.1109 553.73 81.4577 553.986 80.9706 554.499C80.4972 554.998 80.2598 555.722 80.2598 556.67V562.586H78.0699V552.002H80.2598V553.212C80.6187 552.776 81.0735 552.437 81.6238 552.194C82.1747 551.95 82.764 551.829 83.3911 551.829C84.2364 551.829 84.9924 552.008 85.6579 552.367C86.3241 552.725 86.8366 553.244 87.1948 553.923C87.5152 553.282 88.0146 552.776 88.6931 552.405C89.3724 552.021 90.1024 551.829 90.8831 551.829ZM110.844 551.829C111.677 551.829 112.419 552.002 113.072 552.347C113.739 552.693 114.257 553.206 114.628 553.884C115.013 554.563 115.205 555.383 115.205 556.343V562.586H113.034V556.67C113.034 555.722 112.797 554.998 112.323 554.499C111.85 553.986 111.203 553.73 110.383 553.73C109.564 553.73 108.911 553.986 108.423 554.499C107.95 554.998 107.713 555.722 107.713 556.67V562.586H105.542V556.67C105.542 555.722 105.305 554.998 104.831 554.499C104.357 553.986 103.711 553.73 102.891 553.73C102.071 553.73 101.418 553.986 100.931 554.499C100.457 554.998 100.221 555.722 100.221 556.67V562.586H98.0307V552.002H100.221V553.212C100.58 552.776 101.034 552.437 101.585 552.194C102.136 551.95 102.724 551.829 103.352 551.829C104.197 551.829 104.953 552.008 105.619 552.367C106.285 552.725 106.797 553.244 107.156 553.923C107.476 553.282 107.975 552.776 108.654 552.405C109.333 552.021 110.063 551.829 110.844 551.829ZM127.577 552.002V562.586H125.388V561.338C125.042 561.773 124.587 562.119 124.024 562.375C123.473 562.619 122.884 562.74 122.256 562.74C121.424 562.74 120.675 562.567 120.009 562.221C119.355 561.876 118.837 561.363 118.453 560.685C118.081 560.006 117.896 559.186 117.896 558.226V552.002H120.066V557.899C120.066 558.847 120.303 559.577 120.777 560.089C121.251 560.589 121.897 560.838 122.717 560.838C123.537 560.838 124.183 560.589 124.658 560.089C125.144 559.577 125.388 558.847 125.388 557.899V552.002H127.577ZM135.808 551.829C136.64 551.829 137.383 552.002 138.036 552.347C138.702 552.693 139.22 553.206 139.592 553.884C139.963 554.563 140.149 555.383 140.149 556.343V562.586H137.978V556.67C137.978 555.722 137.741 554.998 137.268 554.499C136.794 553.986 136.147 553.73 135.327 553.73C134.508 553.73 133.854 553.986 133.368 554.499C132.894 554.998 132.657 555.722 132.657 556.67V562.586H130.467V552.002H132.657V553.212C133.015 552.776 133.47 552.437 134.021 552.194C134.584 551.95 135.18 551.829 135.808 551.829ZM144.056 550.599C143.659 550.599 143.326 550.465 143.058 550.196C142.789 549.927 142.654 549.594 142.654 549.197C142.654 548.8 142.789 548.467 143.058 548.198C143.326 547.929 143.659 547.794 144.056 547.794C144.441 547.794 144.767 547.929 145.036 548.198C145.305 548.467 145.44 548.8 145.44 549.197C145.44 549.594 145.305 549.927 145.036 550.196C144.767 550.465 144.441 550.599 144.056 550.599ZM145.132 552.002V562.586H142.942V552.002H145.132ZM150.563 553.788V559.647C150.563 560.044 150.652 560.333 150.832 560.512C151.024 560.678 151.344 560.761 151.792 560.761H153.137V562.586H151.408C150.422 562.586 149.666 562.356 149.141 561.895C148.616 561.434 148.353 560.685 148.353 559.647V553.788H147.105V552.002H148.353V549.37H150.563V552.002H153.137V553.788H150.563ZM164.683 552.002L158.19 567.562H155.924L158.075 562.413L153.907 552.002H156.346L159.324 560.07L162.417 552.002H164.683ZM173.516 549.235V562.586H171.326V549.235H173.516ZM181.732 551.829C182.564 551.829 183.307 552.002 183.96 552.347C184.626 552.693 185.145 553.206 185.516 553.884C185.887 554.563 186.073 555.383 186.073 556.343V562.586H183.903V556.67C183.903 555.722 183.666 554.998 183.192 554.499C182.718 553.986 182.072 553.73 181.252 553.73C180.432 553.73 179.779 553.986 179.292 554.499C178.818 554.998 178.581 555.722 178.581 556.67V562.586H176.391V552.002H178.581V553.212C178.94 552.776 179.394 552.437 179.945 552.194C180.509 551.95 181.104 551.829 181.732 551.829ZM192.709 562.759C191.876 562.759 191.127 562.612 190.462 562.317C189.808 562.01 189.29 561.6 188.906 561.088C188.521 560.563 188.316 559.98 188.291 559.34H190.558C190.596 559.788 190.807 560.166 191.192 560.473C191.588 560.768 192.081 560.915 192.671 560.915C193.286 560.915 193.759 560.8 194.092 560.569C194.438 560.326 194.611 560.018 194.611 559.647C194.611 559.25 194.419 558.956 194.035 558.764C193.663 558.571 193.067 558.36 192.248 558.13C191.454 557.912 190.807 557.701 190.308 557.496C189.808 557.291 189.373 556.977 189.002 556.554C188.643 556.132 188.464 555.575 188.464 554.883C188.464 554.32 188.63 553.807 188.963 553.346C189.296 552.872 189.77 552.501 190.385 552.232C191.012 551.963 191.729 551.829 192.536 551.829C193.74 551.829 194.707 552.136 195.437 552.751C196.179 553.352 196.577 554.178 196.628 555.229H194.438C194.4 554.755 194.208 554.377 193.862 554.095C193.516 553.813 193.048 553.673 192.459 553.673C191.883 553.673 191.441 553.782 191.134 553.999C190.827 554.217 190.673 554.505 190.673 554.864C190.673 555.146 190.775 555.383 190.98 555.575C191.185 555.767 191.434 555.92 191.729 556.036C192.024 556.138 192.459 556.272 193.036 556.439C193.804 556.644 194.431 556.856 194.918 557.073C195.418 557.278 195.847 557.586 196.205 557.995C196.564 558.405 196.75 558.949 196.763 559.628C196.763 560.23 196.596 560.768 196.263 561.242C195.93 561.716 195.456 562.087 194.842 562.356C194.239 562.625 193.528 562.759 192.709 562.759ZM208.83 557.035C208.83 557.432 208.804 557.79 208.753 558.11H200.666C200.729 558.956 201.043 559.634 201.607 560.147C202.17 560.659 202.862 560.915 203.682 560.915C204.86 560.915 205.692 560.422 206.179 559.436H208.542C208.221 560.409 207.639 561.209 206.794 561.837C205.961 562.452 204.924 562.759 203.682 562.759C202.67 562.759 201.761 562.535 200.954 562.087C200.159 561.626 199.532 560.986 199.071 560.166C198.623 559.334 198.399 558.373 198.399 557.284C198.399 556.196 198.616 555.242 199.052 554.422C199.5 553.59 200.121 552.949 200.915 552.501C201.722 552.053 202.644 551.829 203.682 551.829C204.681 551.829 205.57 552.046 206.352 552.482C207.133 552.917 207.741 553.532 208.177 554.326C208.612 555.107 208.83 556.01 208.83 557.035ZM206.544 556.343C206.531 555.536 206.243 554.889 205.68 554.403C205.116 553.916 204.418 553.673 203.586 553.673C202.83 553.673 202.183 553.916 201.645 554.403C201.108 554.877 200.787 555.523 200.685 556.343H206.544ZM216.325 551.829C217.158 551.829 217.901 552.002 218.554 552.347C219.22 552.693 219.739 553.206 220.11 553.884C220.481 554.563 220.667 555.383 220.667 556.343V562.586H218.496V556.67C218.496 555.722 218.26 554.998 217.785 554.499C217.311 553.986 216.665 553.73 215.845 553.73C215.025 553.73 214.372 553.986 213.886 554.499C213.412 554.998 213.175 555.722 213.175 556.67V562.586H210.985V552.002H213.175V553.212C213.534 552.776 213.988 552.437 214.539 552.194C215.102 551.95 215.698 551.829 216.325 551.829ZM226.015 553.788V559.647C226.015 560.044 226.105 560.333 226.284 560.512C226.477 560.678 226.796 560.761 227.245 560.761H228.59V562.586H226.86C225.874 562.586 225.119 562.356 224.593 561.895C224.069 561.434 223.806 560.685 223.806 559.647V553.788H222.557V552.002H223.806V549.37H226.015V552.002H228.59V553.788H226.015ZM231.722 550.599C231.325 550.599 230.992 550.465 230.723 550.196C230.454 549.927 230.319 549.594 230.319 549.197C230.319 548.8 230.454 548.467 230.723 548.198C230.992 547.929 231.325 547.794 231.722 547.794C232.106 547.794 232.433 547.929 232.702 548.198C232.97 548.467 233.105 548.8 233.105 549.197C233.105 549.594 232.97 549.927 232.702 550.196C232.433 550.465 232.106 550.599 231.722 550.599ZM232.798 552.002V562.586H230.608V552.002H232.798ZM239.765 560.627L242.762 552.002H245.086L241.052 562.586H238.439L234.424 552.002H236.768L239.765 560.627ZM256.443 557.035C256.443 557.432 256.417 557.79 256.366 558.11H248.278C248.342 558.956 248.656 559.634 249.22 560.147C249.783 560.659 250.474 560.915 251.294 560.915C252.472 560.915 253.305 560.422 253.792 559.436H256.155C255.834 560.409 255.252 561.209 254.406 561.837C253.574 562.452 252.537 562.759 251.294 562.759C250.282 562.759 249.373 562.535 248.566 562.087C247.773 561.626 247.145 560.986 246.684 560.166C246.236 559.334 246.012 558.373 246.012 557.284C246.012 556.196 246.229 555.242 246.665 554.422C247.113 553.59 247.734 552.949 248.528 552.501C249.335 552.053 250.257 551.829 251.294 551.829C252.293 551.829 253.183 552.046 253.965 552.482C254.746 552.917 255.354 553.532 255.79 554.326C256.225 555.107 256.443 556.01 256.443 557.035ZM254.157 556.343C254.144 555.536 253.855 554.889 253.292 554.403C252.729 553.916 252.031 553.673 251.198 553.673C250.443 553.673 249.796 553.916 249.258 554.403C248.72 554.877 248.4 555.523 248.298 556.343H254.157Z" fill="#D76748"/>
<path d="M136.951 589V587.002H140.947V601.007H138.738V589H136.951ZM152.984 588.885H146.549V592.708C146.818 592.349 147.215 592.048 147.74 591.805C148.278 591.561 148.847 591.44 149.45 591.44C150.526 591.44 151.396 591.67 152.062 592.131C152.741 592.593 153.221 593.175 153.503 593.88C153.797 594.584 153.945 595.327 153.945 596.108C153.945 597.055 153.759 597.901 153.388 598.644C153.029 599.374 152.485 599.95 151.755 600.373C151.037 600.795 150.154 601.007 149.104 601.007C147.708 601.007 146.587 600.661 145.742 599.969C144.897 599.278 144.391 598.362 144.225 597.222H146.357C146.498 597.824 146.811 598.304 147.298 598.663C147.785 599.009 148.393 599.182 149.123 599.182C150.032 599.182 150.711 598.906 151.159 598.356C151.621 597.805 151.851 597.075 151.851 596.166C151.851 595.243 151.621 594.539 151.159 594.052C150.698 593.553 150.019 593.303 149.123 593.303C148.495 593.303 147.964 593.463 147.529 593.784C147.106 594.091 146.799 594.514 146.607 595.051H144.532V586.964H152.984V588.885ZM155.878 590.383C155.878 589.448 156.147 588.718 156.685 588.193C157.236 587.655 157.941 587.387 158.798 587.387C159.657 587.387 160.354 587.655 160.892 588.193C161.443 588.718 161.718 589.448 161.718 590.383C161.718 591.318 161.443 592.055 160.892 592.593C160.354 593.13 159.657 593.399 158.798 593.399C157.941 593.399 157.236 593.13 156.685 592.593C156.147 592.055 155.878 591.318 155.878 590.383ZM167.597 587.636L159.932 601.007H157.78L165.445 587.636H167.597ZM158.798 588.712C157.991 588.712 157.588 589.269 157.588 590.383C157.588 591.511 157.991 592.074 158.798 592.074C159.182 592.074 159.478 591.939 159.682 591.67C159.9 591.388 160.009 590.96 160.009 590.383C160.009 589.269 159.605 588.712 158.798 588.712ZM163.697 598.24C163.697 597.305 163.966 596.575 164.504 596.05C165.055 595.512 165.759 595.243 166.617 595.243C167.462 595.243 168.154 595.512 168.692 596.05C169.243 596.575 169.518 597.305 169.518 598.24C169.518 599.175 169.243 599.912 168.692 600.449C168.154 600.987 167.462 601.256 166.617 601.256C165.759 601.256 165.055 600.987 164.504 600.449C163.966 599.912 163.697 599.175 163.697 598.24ZM166.598 596.569C165.791 596.569 165.387 597.126 165.387 598.24C165.387 599.355 165.791 599.912 166.598 599.912C167.404 599.912 167.808 599.355 167.808 598.24C167.808 597.126 167.404 596.569 166.598 596.569Z" fill="#D76748"/>
<path d="M283.762 7.91733V21.2685H281.572V12.1244L277.499 21.2685H275.982L271.89 12.1244V21.2685H269.7V7.91733H272.063L276.75 18.3869L281.418 7.91733H283.762ZM285.91 15.928C285.91 14.8651 286.128 13.9238 286.563 13.1041C287.012 12.2844 287.613 11.6505 288.369 11.2023C289.137 10.7412 289.982 10.5107 290.905 10.5107C291.737 10.5107 292.461 10.6772 293.075 11.0102C293.703 11.3304 294.203 11.7338 294.574 12.2204V10.6836H296.783V21.2685H294.574V19.6932C294.203 20.1927 293.697 20.6089 293.056 20.9419C292.416 21.2748 291.686 21.4414 290.866 21.4414C289.957 21.4414 289.125 21.2108 288.369 20.7498C287.613 20.2759 287.012 19.6228 286.563 18.7903C286.128 17.9451 285.91 16.991 285.91 15.928ZM294.574 15.9664C294.574 15.2364 294.42 14.6025 294.113 14.0646C293.818 13.5267 293.428 13.1169 292.941 12.8352C292.454 12.5534 291.93 12.4125 291.366 12.4125C290.802 12.4125 290.277 12.5534 289.79 12.8352C289.304 13.1041 288.907 13.5075 288.599 14.0454C288.305 14.5705 288.157 15.198 288.157 15.928C288.157 16.658 288.305 17.2983 288.599 17.849C288.907 18.3998 289.304 18.8224 289.79 19.1169C290.29 19.3987 290.815 19.5395 291.366 19.5395C291.93 19.5395 292.454 19.3987 292.941 19.1169C293.428 18.8351 293.818 18.4253 294.113 17.8875C294.42 17.3367 294.574 16.6964 294.574 15.9664ZM301.85 12.2204C302.17 11.6825 302.593 11.2663 303.117 10.9718C303.655 10.6644 304.289 10.5107 305.019 10.5107V12.7775H304.462C303.604 12.7775 302.951 12.9952 302.503 13.4307C302.067 13.8661 301.85 14.6217 301.85 15.6975V21.2685H299.66V10.6836H301.85V12.2204ZM311.22 15.9856L316.099 21.2685H313.141L309.222 16.7156V21.2685H307.032V7.05287H309.222V15.3133L313.064 10.6836H316.099L311.22 15.9856ZM327.37 15.7167C327.37 16.1137 327.345 16.4723 327.294 16.7925H319.206C319.27 17.6377 319.584 18.3165 320.147 18.8288C320.711 19.3411 321.402 19.5972 322.222 19.5972C323.4 19.5972 324.233 19.1041 324.719 18.118H327.082C326.762 19.0913 326.179 19.8917 325.334 20.5193C324.502 21.134 323.465 21.4414 322.222 21.4414C321.21 21.4414 320.301 21.2172 319.494 20.769C318.7 20.308 318.073 19.6676 317.612 18.848C317.164 18.0156 316.939 17.055 316.939 15.9664C316.939 14.8778 317.157 13.9238 317.592 13.1041C318.04 12.2717 318.662 11.6313 319.456 11.1831C320.263 10.7349 321.185 10.5107 322.222 10.5107C323.221 10.5107 324.111 10.7284 324.892 11.1639C325.674 11.5993 326.282 12.2141 326.717 13.0081C327.153 13.7893 327.37 14.6922 327.37 15.7167ZM325.084 15.0251C325.071 14.2183 324.783 13.5715 324.22 13.0849C323.657 12.5983 322.958 12.3549 322.126 12.3549C321.371 12.3549 320.724 12.5983 320.186 13.0849C319.648 13.5588 319.327 14.2055 319.225 15.0251H325.084ZM332.08 12.4702V18.3293C332.08 18.7263 332.17 19.0145 332.349 19.1938C332.541 19.3603 332.862 19.4435 333.31 19.4435H334.655V21.2685H332.926C331.94 21.2685 331.184 21.0379 330.659 20.5769C330.134 20.1159 329.871 19.3667 329.871 18.3293V12.4702H328.623V10.6836H329.871V8.0518H332.08V10.6836H334.655V12.4702H332.08ZM337.787 9.28126C337.39 9.28126 337.057 9.14679 336.788 8.87785C336.519 8.6089 336.385 8.27595 336.385 7.87891C336.385 7.48188 336.519 7.14892 336.788 6.87998C337.057 6.61103 337.39 6.47656 337.787 6.47656C338.171 6.47656 338.498 6.61103 338.767 6.87998C339.036 7.14892 339.17 7.48188 339.17 7.87891C339.17 8.27595 339.036 8.6089 338.767 8.87785C338.498 9.14679 338.171 9.28126 337.787 9.28126ZM338.863 10.6836V21.2685H336.673V10.6836H338.863ZM347.079 10.5107C347.911 10.5107 348.654 10.6836 349.307 11.0294C349.973 11.3752 350.492 11.8875 350.863 12.5662C351.234 13.245 351.42 14.0646 351.42 15.0251V21.2685H349.25V15.3517C349.25 14.404 349.013 13.6804 348.539 13.1809C348.065 12.6686 347.418 12.4125 346.599 12.4125C345.779 12.4125 345.126 12.6686 344.639 13.1809C344.165 13.6804 343.928 14.404 343.928 15.3517V21.2685H341.738V10.6836H343.928V11.8939C344.287 11.4584 344.741 11.1191 345.292 10.8757C345.856 10.6324 346.451 10.5107 347.079 10.5107ZM358.479 10.5107C359.298 10.5107 360.022 10.6772 360.649 11.0102C361.29 11.3304 361.789 11.7338 362.148 12.2204V10.6836H364.357V21.4414C364.357 22.4147 364.152 23.2792 363.742 24.0347C363.332 24.8032 362.737 25.4051 361.956 25.8405C361.187 26.276 360.265 26.4937 359.19 26.4937C357.755 26.4937 356.564 26.1543 355.616 25.4755C354.668 24.8095 354.13 23.9003 354.003 22.7477H356.174C356.34 23.2984 356.692 23.7402 357.23 24.0732C357.78 24.419 358.433 24.5918 359.19 24.5918C360.073 24.5918 360.784 24.3229 361.322 23.785C361.872 23.2471 362.148 22.4659 362.148 21.4414V19.674C361.776 20.1735 361.27 20.5961 360.63 20.9419C360.002 21.2748 359.286 21.4414 358.479 21.4414C357.557 21.4414 356.711 21.2108 355.943 20.7498C355.187 20.2759 354.585 19.6228 354.137 18.7903C353.702 17.9451 353.484 16.991 353.484 15.928C353.484 14.8651 353.702 13.9238 354.137 13.1041C354.585 12.2844 355.187 11.6505 355.943 11.2023C356.711 10.7412 357.557 10.5107 358.479 10.5107ZM362.148 15.9664C362.148 15.2364 361.994 14.6025 361.687 14.0646C361.392 13.5267 361.001 13.1169 360.515 12.8352C360.028 12.5534 359.503 12.4125 358.94 12.4125C358.376 12.4125 357.851 12.5534 357.365 12.8352C356.877 13.1041 356.481 13.5075 356.174 14.0454C355.878 14.5705 355.732 15.198 355.732 15.928C355.732 16.658 355.878 17.2983 356.174 17.849C356.481 18.3998 356.877 18.8224 357.365 19.1169C357.864 19.3987 358.389 19.5395 358.94 19.5395C359.503 19.5395 360.028 19.3987 360.515 19.1169C361.001 18.8351 361.392 18.4253 361.687 17.8875C361.994 17.3367 362.148 16.6964 362.148 15.9664Z" fill="#E04B96"/>
<path d="M313.431 35.9044H306.995V39.7273C307.264 39.3687 307.661 39.0677 308.186 38.8244C308.724 38.581 309.294 38.4594 309.896 38.4594C310.972 38.4594 311.842 38.6899 312.508 39.151C313.187 39.612 313.667 40.1947 313.949 40.8991C314.244 41.6035 314.391 42.3462 314.391 43.1275C314.391 44.0752 314.205 44.9204 313.834 45.6632C313.475 46.3932 312.931 46.9695 312.201 47.3922C311.484 47.8148 310.6 48.0261 309.55 48.0261C308.154 48.0261 307.034 47.6803 306.188 46.9887C305.343 46.2972 304.837 45.3815 304.671 44.2417H306.803C306.944 44.8436 307.258 45.3238 307.744 45.6824C308.231 46.0282 308.839 46.2011 309.569 46.2011C310.478 46.2011 311.158 45.9258 311.606 45.3751C312.067 44.8244 312.297 44.0944 312.297 43.1851C312.297 42.263 312.067 41.5586 311.606 41.072C311.145 40.5725 310.466 40.3228 309.569 40.3228C308.941 40.3228 308.41 40.4828 307.975 40.803C307.552 41.1104 307.245 41.533 307.053 42.0709H304.978V33.9834H313.431V35.9044ZM316.325 37.4028C316.325 36.4679 316.594 35.7379 317.132 35.2129C317.682 34.675 318.387 34.406 319.245 34.406C320.103 34.406 320.801 34.675 321.339 35.2129C321.889 35.7379 322.165 36.4679 322.165 37.4028C322.165 38.3377 321.889 39.0741 321.339 39.612C320.801 40.1499 320.103 40.4188 319.245 40.4188C318.387 40.4188 317.682 40.1499 317.132 39.612C316.594 39.0741 316.325 38.3377 316.325 37.4028ZM328.043 34.6558L320.378 48.0261H318.227L325.892 34.6558H328.043ZM319.245 35.7315C318.438 35.7315 318.035 36.2886 318.035 37.4028C318.035 38.5298 318.438 39.0933 319.245 39.0933C319.629 39.0933 319.924 38.9589 320.129 38.6899C320.346 38.4081 320.455 37.9791 320.455 37.4028C320.455 36.2886 320.052 35.7315 319.245 35.7315ZM324.144 45.2598C324.144 44.3249 324.413 43.5949 324.951 43.0699C325.501 42.532 326.205 42.263 327.064 42.263C327.909 42.263 328.6 42.532 329.138 43.0699C329.689 43.5949 329.964 44.3249 329.964 45.2598C329.964 46.1947 329.689 46.9311 329.138 47.469C328.6 48.0069 327.909 48.2758 327.064 48.2758C326.205 48.2758 325.501 48.0069 324.951 47.469C324.413 46.9311 324.144 46.1947 324.144 45.2598ZM327.044 43.5885C326.238 43.5885 325.834 44.1456 325.834 45.2598C325.834 46.374 326.238 46.9311 327.044 46.9311C327.851 46.9311 328.255 46.374 328.255 45.2598C328.255 44.1456 327.851 43.5885 327.044 43.5885Z" fill="#E04B96"/>
<defs>
<linearGradient id="paint0_linear_1243_198" x1="367.054" y1="78.2135" x2="367.054" y2="524.166" gradientUnits="userSpaceOnUse">
<stop stop-color="#3250F9" stop-opacity="0.8"/>
<stop offset="1" stop-color="#9133EE" stop-opacity="0.88"/>
</linearGradient>
<linearGradient id="paint1_linear_1243_198" x1="220.576" y1="173.921" x2="185.243" y2="265.513" gradientUnits="userSpaceOnUse">
<stop stop-color="#006DF2"/>
<stop offset="1" stop-color="#4B6AC7"/>
</linearGradient>
<linearGradient id="paint2_linear_1243_198" x1="273.404" y1="101.54" x2="280.608" y2="200.679" gradientUnits="userSpaceOnUse">
<stop stop-color="#6FE7DB"/>
<stop offset="1" stop-color="#23CE6B"/>
</linearGradient>
<linearGradient id="paint3_linear_1243_198" x1="342.43" y1="90.8143" x2="267.572" y2="250.076" gradientUnits="userSpaceOnUse">
<stop stop-color="#EC4AA1"/>
<stop offset="1" stop-color="#974E52"/>
</linearGradient>
<linearGradient id="paint4_linear_1243_198" x1="207.54" y1="388.322" x2="317.656" y2="477.512" gradientUnits="userSpaceOnUse">
<stop stop-color="#FE6B43"/>
<stop offset="1" stop-color="#845F54"/>
</linearGradient>
<linearGradient id="paint5_linear_1243_198" x1="190.045" y1="278.548" x2="159.515" y2="418.509" gradientUnits="userSpaceOnUse">
<stop stop-color="#FDEE6D"/>
<stop offset="1" stop-color="#937E00"/>
</linearGradient>
</defs>
</svg>
