<svg width="35" height="36" viewBox="0 0 35 36" fill="none" xmlns="http://www.w3.org/2000/svg">
<path d="M34.9975 17.9186C34.9975 26.7572 28.4461 34.0642 19.9352 35.25C19.1394 35.3603 18.3252 35.418 17.4988 35.418C16.5448 35.418 15.608 35.3419 14.6957 35.1948C6.36386 33.8533 0 26.6284 0 17.9186C0 8.25352 7.83527 0.417969 17.5 0.417969C27.1647 0.417969 35 8.25352 35 17.9186H34.9975Z" fill="#1C1C1B"/>
<path d="M7.0974 8.13672L15.1681 18.9275L7.04712 27.7011H8.87535L15.986 20.02L21.7306 27.7011H27.951L19.4266 16.3033L26.986 8.13672H25.1578L18.61 15.2108L13.319 8.13672H7.09861H7.0974ZM9.78517 9.48311H12.6422L25.2608 26.3547H22.4038L9.78517 9.48311Z" fill="white"/>
</svg>
