<svg width="40" height="40" viewBox="0 0 40 40" fill="none" xmlns="http://www.w3.org/2000/svg">
<path d="M30 2.5C28.5166 2.5 27.0666 2.93987 25.8332 3.76398C24.5999 4.58809 23.6386 5.75943 23.0709 7.12987C22.5032 8.50032 22.3547 10.0083 22.6441 11.4632C22.9335 12.918 23.6478 14.2544 24.6967 15.3033C25.7456 16.3522 27.082 17.0665 28.5368 17.3559C29.9917 17.6453 31.4997 17.4968 32.8701 16.9291C34.2406 16.3614 35.4119 15.4001 36.236 14.1668C37.0601 12.9334 37.5 11.4834 37.5 10C37.4978 8.01155 36.7069 6.10518 35.3009 4.69914C33.8948 3.29309 31.9885 2.50221 30 2.5ZM33.3333 13.75C33.3333 13.971 33.2455 14.183 33.0893 14.3393C32.933 14.4955 32.721 14.5833 32.5 14.5833C32.279 14.5833 32.067 14.4955 31.9107 14.3393C31.7545 14.183 31.6667 13.971 31.6667 13.75C31.6667 13.308 31.4911 12.884 31.1785 12.5715C30.866 12.2589 30.442 12.0833 30 12.0833C29.558 12.0833 29.1341 12.2589 28.8215 12.5715C28.5089 12.884 28.3333 13.308 28.3333 13.75C28.3333 13.971 28.2455 14.183 28.0893 14.3393C27.933 14.4955 27.721 14.5833 27.5 14.5833C27.279 14.5833 27.067 14.4955 26.9107 14.3393C26.7545 14.183 26.6667 13.971 26.6667 13.75C26.6681 13.2751 26.7718 12.806 26.9705 12.3747C27.1692 11.9433 27.4583 11.5598 27.8183 11.25C27.3044 10.8051 26.9388 10.2138 26.7705 9.5553C26.6022 8.89679 26.6392 8.20255 26.8766 7.56566C27.1139 6.92877 27.5403 6.37966 28.0986 5.99195C28.6569 5.60424 29.3203 5.39646 30 5.39646C30.6797 5.39646 31.3431 5.60424 31.9014 5.99195C32.4597 6.37966 32.8861 6.92877 33.1234 7.56566C33.3608 8.20255 33.3978 8.89679 33.2295 9.5553C33.0612 10.2138 32.6956 10.8051 32.1817 11.25C32.5417 11.5598 32.8308 11.9433 33.0295 12.3747C33.2283 12.806 33.3319 13.2751 33.3333 13.75Z" fill="#8B97FF"/>
<path d="M29.9999 10.4163C30.9204 10.4163 31.6666 9.67015 31.6666 8.74967C31.6666 7.8292 30.9204 7.08301 29.9999 7.08301C29.0794 7.08301 28.3333 7.8292 28.3333 8.74967C28.3333 9.67015 29.0794 10.4163 29.9999 10.4163Z" fill="#8B97FF"/>
<path d="M10 20C8.51664 20 7.0666 20.4399 5.83323 21.264C4.59986 22.0881 3.63856 23.2594 3.07091 24.6299C2.50325 26.0003 2.35472 27.5083 2.64411 28.9632C2.9335 30.418 3.64781 31.7544 4.6967 32.8033C5.7456 33.8522 7.08197 34.5665 8.53683 34.8559C9.99168 35.1453 11.4997 34.9968 12.8701 34.4291C14.2406 33.8614 15.4119 32.9001 16.236 31.6668C17.0601 30.4334 17.5 28.9834 17.5 27.5C17.4978 25.5116 16.7069 23.6052 15.3009 22.1991C13.8948 20.7931 11.9885 20.0022 10 20ZM13.3333 31.25C13.3333 31.471 13.2455 31.683 13.0893 31.8393C12.933 31.9955 12.721 32.0833 12.5 32.0833C12.279 32.0833 12.067 31.9955 11.9107 31.8393C11.7545 31.683 11.6667 31.471 11.6667 31.25C11.6667 30.808 11.4911 30.384 11.1785 30.0715C10.866 29.7589 10.442 29.5833 10 29.5833C9.55798 29.5833 9.13405 29.7589 8.82149 30.0715C8.50893 30.384 8.33334 30.808 8.33334 31.25C8.33334 31.471 8.24554 31.683 8.08926 31.8393C7.93298 31.9955 7.72102 32.0833 7.5 32.0833C7.27899 32.0833 7.06703 31.9955 6.91075 31.8393C6.75447 31.683 6.66667 31.471 6.66667 31.25C6.66815 30.7751 6.77176 30.306 6.97047 29.8747C7.16917 29.4433 7.45834 29.0598 7.81834 28.75C7.30445 28.3051 6.93884 27.7138 6.77051 27.0553C6.60218 26.3968 6.63918 25.7025 6.87656 25.0657C7.11393 24.4288 7.54034 23.8797 8.0986 23.492C8.65687 23.1042 9.32031 22.8965 10 22.8965C10.6797 22.8965 11.3431 23.1042 11.9014 23.492C12.4597 23.8797 12.8861 24.4288 13.1234 25.0657C13.3608 25.7025 13.3978 26.3968 13.2295 27.0553C13.0612 27.7138 12.6956 28.3051 12.1817 28.75C12.5417 29.0598 12.8308 29.4433 13.0295 29.8747C13.2283 30.306 13.3319 30.7751 13.3333 31.25Z" fill="#8B97FF"/>
<path d="M9.99992 27.9163C10.9204 27.9163 11.6666 27.1701 11.6666 26.2497C11.6666 25.3292 10.9204 24.583 9.99992 24.583C9.07944 24.583 8.33325 25.3292 8.33325 26.2497C8.33325 27.1701 9.07944 27.9163 9.99992 27.9163Z" fill="#8B97FF"/>
<path d="M23.7083 3.33301H5C4.33757 3.33499 3.70283 3.59901 3.23442 4.06743C2.76601 4.53584 2.50198 5.17058 2.5 5.83301V12.4997C2.50198 13.1621 2.76601 13.7968 3.23442 14.2653C3.70283 14.7337 4.33757 14.9977 5 14.9997H6.66667C6.88768 14.9997 7.09964 15.0875 7.25592 15.2438C7.4122 15.4 7.5 15.612 7.5 15.833V17.5497C7.50501 17.8545 7.591 18.1525 7.74915 18.4132C7.9073 18.6739 8.13193 18.8878 8.4 19.033C8.63905 19.1495 8.90077 19.2121 9.16667 19.2163C9.51435 19.2162 9.85295 19.1053 10.1333 18.8997L10.8667 18.3747L15.3833 15.158C15.5223 15.0529 15.6924 14.9972 15.8667 14.9997H22.3167C21.1455 13.2 20.6432 11.0462 20.8976 8.91406C21.1519 6.78193 22.1467 4.80674 23.7083 3.33301ZM8.33333 10.4163C8.08611 10.4163 7.84443 10.343 7.63887 10.2057C7.43331 10.0683 7.27309 9.8731 7.17848 9.6447C7.08387 9.41629 7.05912 9.16496 7.10735 8.92248C7.15558 8.68 7.27463 8.45727 7.44945 8.28246C7.62427 8.10764 7.84699 7.98859 8.08947 7.94036C8.33195 7.89213 8.58328 7.91688 8.81169 8.01149C9.0401 8.1061 9.23532 8.26632 9.37267 8.47188C9.51002 8.67744 9.58333 8.91912 9.58333 9.16634C9.58333 9.49786 9.45164 9.81581 9.21722 10.0502C8.9828 10.2846 8.66485 10.4163 8.33333 10.4163ZM12.5 10.4163C12.2528 10.4163 12.0111 10.343 11.8055 10.2057C11.6 10.0683 11.4398 9.8731 11.3451 9.6447C11.2505 9.41629 11.2258 9.16496 11.274 8.92248C11.3222 8.68 11.4413 8.45727 11.6161 8.28246C11.7909 8.10764 12.0137 7.98859 12.2561 7.94036C12.4986 7.89213 12.7499 7.91688 12.9784 8.01149C13.2068 8.1061 13.402 8.26632 13.5393 8.47188C13.6767 8.67744 13.75 8.91912 13.75 9.16634C13.75 9.49786 13.6183 9.81581 13.3839 10.0502C13.1495 10.2846 12.8315 10.4163 12.5 10.4163ZM16.6667 10.4163C16.4194 10.4163 16.1778 10.343 15.9722 10.2057C15.7666 10.0683 15.6064 9.8731 15.5118 9.6447C15.4172 9.41629 15.3925 9.16496 15.4407 8.92248C15.4889 8.68 15.608 8.45727 15.7828 8.28246C15.9576 8.10764 16.1803 7.98859 16.4228 7.94036C16.6653 7.89213 16.9166 7.91688 17.145 8.01149C17.3734 8.1061 17.5687 8.26632 17.706 8.47188C17.8434 8.67744 17.9167 8.91912 17.9167 9.16634C17.9167 9.49786 17.785 9.81581 17.5505 10.0502C17.3161 10.2846 16.9982 10.4163 16.6667 10.4163ZM35 20.833H16.2917C17.9822 22.4293 19.0034 24.608 19.1488 26.9285C19.2943 29.249 18.553 31.5382 17.075 33.333H24.1333C24.3076 33.3305 24.4777 33.3862 24.6167 33.4913L29.8667 37.233C30.147 37.4386 30.4856 37.5495 30.8333 37.5497C31.0992 37.5454 31.361 37.4829 31.6 37.3663C31.8707 37.2243 32.0976 37.0112 32.2562 36.7498C32.4148 36.4884 32.4991 36.1887 32.5 35.883V34.1663C32.5 33.9453 32.5878 33.7334 32.7441 33.5771C32.9004 33.4208 33.1123 33.333 33.3333 33.333H35C35.6624 33.331 36.2972 33.067 36.7656 32.5986C37.234 32.1302 37.498 31.4954 37.5 30.833V23.333C37.498 22.6706 37.234 22.0358 36.7656 21.5674C36.2972 21.099 35.6624 20.835 35 20.833ZM32.5 29.9997H25C24.779 29.9997 24.567 29.9119 24.4107 29.7556C24.2545 29.5993 24.1667 29.3874 24.1667 29.1663C24.1667 28.9453 24.2545 28.7334 24.4107 28.5771C24.567 28.4208 24.779 28.333 25 28.333H32.5C32.721 28.333 32.933 28.4208 33.0893 28.5771C33.2455 28.7334 33.3333 28.9453 33.3333 29.1663C33.3333 29.3874 33.2455 29.5993 33.0893 29.7556C32.933 29.9119 32.721 29.9997 32.5 29.9997ZM32.5 26.2497H22.5C22.279 26.2497 22.067 26.1619 21.9107 26.0056C21.7545 25.8493 21.6667 25.6374 21.6667 25.4163C21.6667 25.1953 21.7545 24.9834 21.9107 24.8271C22.067 24.6708 22.279 24.583 22.5 24.583H32.5C32.721 24.583 32.933 24.6708 33.0893 24.8271C33.2455 24.9834 33.3333 25.1953 33.3333 25.4163C33.3333 25.6374 33.2455 25.8493 33.0893 26.0056C32.933 26.1619 32.721 26.2497 32.5 26.2497Z" fill="#3B4EF4"/>
</svg>
