<svg width="140" height="141" viewBox="0 0 140 141" fill="none" xmlns="http://www.w3.org/2000/svg">
<g clip-path="url(#clip0_874_624)">
<mask id="mask0_874_624" style="mask-type:luminance" maskUnits="userSpaceOnUse" x="0" y="0" width="140" height="141">
<path d="M140 0.104736H0V140.105H140V0.104736Z" fill="white"/>
</mask>
<g mask="url(#mask0_874_624)">
<path d="M77.9018 8.67944C73.8173 3.69079 66.1885 3.69081 62.1046 8.67944L56.3187 15.7462C55.9221 16.2306 55.2606 16.4079 54.675 16.1867L46.131 12.9595C40.0996 10.6814 33.4928 14.4957 32.45 20.8582L30.9728 29.8711C30.8716 30.4889 30.3873 30.9731 29.7695 31.0744L20.7567 32.5515C14.3943 33.5944 10.5798 40.2011 12.8579 46.2325L16.0851 54.7765C16.3063 55.3622 16.129 56.0237 15.6447 56.4202L8.57791 62.2058C3.58926 66.2903 3.58927 73.9192 8.57791 78.0037L15.6447 83.7892C16.129 84.1858 16.3063 84.8473 16.0851 85.433L12.8579 93.9771C10.5799 100.008 14.3942 106.615 20.7567 107.658L29.7695 109.135C30.3873 109.236 30.8716 109.721 30.9728 110.338L32.45 119.351C33.4928 125.713 40.0996 129.528 46.131 127.25L54.675 124.023C55.2606 123.802 55.9221 123.978 56.3187 124.463L62.1046 131.53C66.1885 136.518 73.8173 136.518 77.9018 131.53L83.6873 124.463C84.084 123.978 84.7455 123.802 85.3312 124.023L93.8752 127.25C99.9069 129.528 106.514 125.713 107.556 119.351L109.034 110.338C109.135 109.721 109.619 109.236 110.237 109.135L119.25 107.658C125.612 106.615 129.427 100.008 127.149 93.9771L123.921 85.433C123.7 84.8473 123.877 84.1858 124.361 83.7892L131.428 78.0037C136.417 73.9192 136.417 66.2903 131.428 62.2058L124.361 56.4202C123.877 56.0237 123.7 55.3622 123.921 54.7765L127.149 46.2325C129.427 40.2011 125.612 33.5944 119.25 32.5515L110.237 31.0744C109.619 30.9731 109.135 30.4889 109.034 29.8711L107.556 20.8582C106.514 14.4958 99.9069 10.6813 93.8752 12.9595L85.3312 16.1867C84.7455 16.4079 84.084 16.2306 83.6873 15.7462L77.9018 8.67944Z" fill="#5831C8"/>
<path fill-rule="evenodd" clip-rule="evenodd" d="M105.177 46.5945C106.885 48.303 106.885 51.0731 105.177 52.7817L64.3434 93.6148C63.5232 94.4356 62.4102 94.8964 61.2499 94.8964C60.0897 94.8964 58.9767 94.4356 58.1564 93.6148L34.823 70.2815C33.1145 68.5729 33.1145 65.8032 34.823 64.0946C36.5315 62.3861 39.3017 62.3861 41.0102 64.0946L61.2499 84.334L98.9899 46.5945C100.698 44.8859 103.468 44.8859 105.177 46.5945Z" fill="#ECEFF1"/>
</g>
</g>
<defs>
<clipPath id="clip0_874_624">
<rect width="140" height="140" fill="white" transform="translate(0 0.104736)"/>
</clipPath>
</defs>
</svg>
