<svg xmlns="http://www.w3.org/2000/svg" viewBox="0 0 96 96" id="verifythumbprint"><linearGradient id="a" x1="20.25" x2="75.75" y1="48" y2="48" gradientUnits="userSpaceOnUse"><stop offset="0" stop-color="#26d7fe" class="stopColor000092 svgShape"></stop><stop offset="1" stop-color="#d45985" class="stopColorff00f3 svgShape"></stop></linearGradient><path fill="url(#a)" d="M28.128 58.31a1 1 0 1 0-1.575-1.232 8.228 8.228 0 0 1-1.845 1.726c-.396.27-.794.571-1.254.949a1 1 0 0 0 1.271 1.544c.412-.34.764-.606 1.109-.842a10.191 10.191 0 0 0 2.294-2.145zm5.622-6.128a.5.5 0 0 0-1 0c0 4.124-2.059 7.989-5.508 10.34-.376.256-.762.557-1.18.921a.5.5 0 0 0 .329.877c.117 0 .234-.04.329-.123.387-.338.742-.615 1.085-.849 3.722-2.536 5.945-6.711 5.945-11.166zm11.531-17.425c-.91-.03-1.828.039-2.73.202-6.332 1.14-10.928 6.841-10.69 13.261a1 1 0 0 0 .999.963l.038-.001a1 1 0 0 0 .962-1.037c-.202-5.431 3.687-10.253 9.046-11.218a10.94 10.94 0 0 1 2.312-.171 1.006 1.006 0 0 0 1.031-.968 1 1 0 0 0-.968-1.031zm3.397 23.17a.499.499 0 0 0 .582-.4 29.5 29.5 0 0 0 .023-10.571c-.438-2.44-2.78-4.066-5.226-3.632-1.183.213-2.212.874-2.898 1.861s-.946 2.182-.733 3.365a20.592 20.592 0 0 1 .245 5.424.5.5 0 0 0 .455.542.507.507 0 0 0 .542-.454 21.528 21.528 0 0 0-.257-5.689 3.477 3.477 0 0 1 .57-2.617 3.472 3.472 0 0 1 2.254-1.447 3.505 3.505 0 0 1 4.064 2.825 28.482 28.482 0 0 1-.022 10.211.5.5 0 0 0 .401.582zm3.065-11.414a1 1 0 1 0 1.969-.355 8.94 8.94 0 0 0-3.724-5.796 8.938 8.938 0 0 0-6.729-1.467 9.094 9.094 0 0 0-1.944.58 1 1 0 1 0 .784 1.84 7.086 7.086 0 0 1 1.514-.452 6.943 6.943 0 0 1 5.233 1.141 6.951 6.951 0 0 1 2.897 4.509zm-28.517-9.051a1 1 0 0 0 1.356-.4c4.152-7.636 12.072-12.379 20.668-12.379.85 0 1.708.047 2.548.14a1 1 0 0 0 .219-1.989 25.264 25.264 0 0 0-2.767-.151c-9.33 0-17.922 5.144-22.425 13.424a.999.999 0 0 0 .401 1.355zm17.997-9.884a20.28 20.28 0 0 0-9.438 4.378.5.5 0 0 0 .639.77 19.295 19.295 0 0 1 8.977-4.163 19.57 19.57 0 0 1 15.153 3.589.499.499 0 1 0 .599-.8 20.565 20.565 0 0 0-15.93-3.774zM21.705 52.83a24.003 24.003 0 0 1-.455-4.647c0-2.771.479-5.495 1.422-8.093a.501.501 0 0 0-.941-.341 24.646 24.646 0 0 0-1.481 8.434c0 1.622.159 3.251.473 4.841a.5.5 0 0 0 .982-.194zm1.877 4.32c1.671-1.139 2.668-2.995 2.668-4.968 0-.357-.032-.715-.095-1.062a18.978 18.978 0 0 1 4.047-15.463 1 1 0 1 0-1.543-1.273 20.972 20.972 0 0 0-4.472 17.091c.042.23.063.468.063.706 0 1.311-.671 2.55-1.794 3.315a9.068 9.068 0 0 0-.491.366l-.233.181a1 1 0 1 0 1.198 1.601l.271-.209c.124-.096.248-.194.381-.285zm17.82 1.067a1 1 0 1 0-1.923-.55c-1.218 4.244-3.883 8.033-7.504 10.671a1 1 0 0 0 1.178 1.617c3.979-2.899 6.908-7.067 8.249-11.738zm12.288-8.03c-.017-.275-.253-.5-.528-.47a.5.5 0 0 0-.47.528c.038.646.058 1.292.058 1.937 0 7.284-2.5 14.447-7.04 20.168a.499.499 0 0 0 .392.81.498.498 0 0 0 .392-.189 33.577 33.577 0 0 0 7.257-20.789 34.099 34.099 0 0 0-.061-1.995zm4.06 1.995a37.6 37.6 0 0 0-.593-6.643 12.434 12.434 0 0 0-7.725-9.42.5.5 0 0 0-.367.931 11.438 11.438 0 0 1 7.107 8.667c.383 2.131.577 4.306.577 6.466a36.279 36.279 0 0 1-1.439 10.11.5.5 0 0 0 .96.28 37.249 37.249 0 0 0 1.48-10.391zm-2.821 12.896a.999.999 0 0 0-1.302.552 36.266 36.266 0 0 1-2.92 5.697 1 1 0 1 0 1.692 1.066 38.152 38.152 0 0 0 3.082-6.014 1 1 0 0 0-.552-1.301zm-15.41-23.37a1 1 0 0 0-1.411.089 8.952 8.952 0 0 0-2.11 7.551c.168.932.253 1.885.253 2.834 0 2.39-.553 4.792-1.599 6.947a1 1 0 0 0 1.799.874 18.006 18.006 0 0 0 1.8-7.82c0-1.067-.096-2.141-.285-3.188a6.97 6.97 0 0 1 1.642-5.875 1.001 1.001 0 0 0-.089-1.412zm31.2 7.501c.014-.342.031-.684.031-1.027 0-11.377-7.686-21.479-18.688-24.565a1 1 0 0 0-.541 1.926C61.665 28.388 68.75 37.698 68.75 48.182c0 .172-.007.345-.011.517a8.064 8.064 0 0 0-.989-.068 7.96 7.96 0 0 0-1.637.17 46.087 46.087 0 0 0-.591-4.768 20.947 20.947 0 0 0-5.071-10.346 1 1 0 1 0-1.484 1.341 18.949 18.949 0 0 1 4.587 9.36c.303 1.684.496 3.394.601 5.107a8.032 8.032 0 0 0-2.423 1.883 41.613 41.613 0 0 0-.638-6.548c-1.612-8.949-10.207-14.926-19.163-13.315-8.954 1.612-14.928 10.208-13.316 19.163a8.434 8.434 0 0 1-.072 3.355.5.5 0 1 0 .975.221 9.456 9.456 0 0 0 .081-3.753C28.085 42.09 33.696 34.015 42.107 32.5c8.412-1.513 16.488 4.101 18.001 12.509.425 2.359.641 4.773.641 7.175 0 .2-.005.398-.008.597a7.95 7.95 0 0 0-.992 3.852c0 .399.039.788.096 1.172-.039.272-.076.545-.12.815a40.007 40.007 0 0 1-3.211 10.401.999.999 0 1 0 1.812.844 41.925 41.925 0 0 0 2.908-8.606 7.99 7.99 0 0 0 6.515 3.374c4.411 0 8-3.589 8-8 .001-3.363-2.086-6.242-5.03-7.424zm1.488 5.629-5 5a.997.997 0 0 1-1.414 0l-2.5-2.5a.999.999 0 1 1 1.414-1.414l1.793 1.793 4.293-4.293a.999.999 0 1 1 1.414 1.414zm-38.434 8.421a.5.5 0 1 0-.773-.635 16.64 16.64 0 0 1-3.507 3.203 9.267 9.267 0 0 0-.615.466.5.5 0 0 0 .633.774 7.93 7.93 0 0 1 .544-.413 17.605 17.605 0 0 0 3.718-3.395zm12.066-15.683a1 1 0 0 0-1.969.355c.252 1.399.38 2.83.38 4.251 0 6.951-3.04 13.568-8.341 18.153a1 1 0 0 0 1.309 1.512c5.74-4.965 9.033-12.133 9.033-19.665a26.157 26.157 0 0 0-.412-4.606zm2.173 13.035a1.001 1.001 0 0 0-1.271.622c-1.314 3.83-3.527 7.423-6.4 10.39a1 1 0 0 0 .718 1.695.995.995 0 0 0 .718-.305c3.076-3.176 5.447-7.025 6.855-11.132a.999.999 0 0 0-.62-1.27z"></path></svg>