<svg width="100" height="100" viewBox="0 0 100 100" fill="none" xmlns="http://www.w3.org/2000/svg">
<path d="M5.2 20.6C6.4 20.6 7.2 19.8 7.2 18.6V7.8C7.2 6.8 7.8 6 8.8 6H19.6C20.8 6 21.6 5.2 21.6 4C21.6 2.8 20.8 2 19.6 2H8.8C5.6 2 3.2 4.6 3.2 7.8V18.8C3.2 19.8 4 20.6 5.2 20.6ZM19.6 80.4H8.8C7.8 80.4 7 79.6 7 78.6V67.8C7 66.6 6.2 65.8 5 65.8C3.8 65.8 3 66.6 3 67.8V78.6C3 81.8 5.6 84.4 8.8 84.4H19.6C20.8 84.4 21.6 83.6 21.6 82.4C21.6 81.2 20.8 80.4 19.6 80.4ZM94.8 65.8C93.6 65.8 92.8 66.6 92.8 67.8V78.6C92.8 79.6 92 80.4 91 80.4H80.2C79 80.4 78.2 81.2 78.2 82.4C78.2 83.6 79 84.4 80.2 84.4H91C94.2 84.4 96.8 81.8 96.8 78.6V67.8C96.8 66.6 96 65.8 94.8 65.8ZM91.2 2H80.4C79.2 2 78.4 2.8 78.4 4C78.4 5.2 79.2 6 80.4 6H91.2C92.2 6 93 6.8 93 7.8V18.8C93 20 93.8 20.8 95 20.8C96.2 20.8 97 20 97 18.8V7.8C96.8 4.6 94.4 2 91.2 2ZM35.2 78.4C39.8 82.4 45 84.4 50 84.4C55.2 84.4 60.2 82.4 64.8 78.4C74.2 70.4 80.4 55.8 80.4 41.8C80.4 34.2 78.6 28 74.8 23C74.8 36.6 63.6 47.8 50 47.8C36.4 47.8 25.2 36.6 25.2 23C21.6 28 19.6 34.4 19.6 41.8C19.6 55.6 25.8 70.2 35.2 78.4Z" fill="#5831C8"/>
<path d="M65.4 82.8C60.6 86.4 55.2 88.2 50 88.2C44.8 88.2 39.4 86.4 34.6 82.6C34.6 86.8 32.2 91 27.8 94.2C27.2 94.8 26.8 95.6 27 96.4C27.2 97.2 28 97.8 28.8 97.8H71C71.8 97.8 72.6 97.2 72.8 96.4C73 95.6 72.8 94.6 72 94.2C68 91.2 65.6 87 65.4 82.8ZM50 43.8C61.6 43.8 70.8 34.4 70.8 23C70.8 11.4 61.4 2 50 2C38.6 2 29.2 11.4 29.2 22.8C29.2 34.4 38.4 43.8 50 43.8ZM39.8 21.2C40.6 20.4 41.8 20.4 42.6 21.2L47.2 25.8L57.2 15.8C58 15 59.2 15 60 15.8C60.8 16.6 60.8 17.8 60 18.6L48.6 30C48.2 30.4 47.8 30.6 47.2 30.6C46.6 30.6 46.2 30.4 45.8 30L39.8 24C39 23.2 39 22 39.8 21.2Z" fill="#5831C8"/>
</svg>
