<svg width="34" height="34" viewBox="0 0 34 34" fill="none" xmlns="http://www.w3.org/2000/svg">
<g clip-path="url(#clip0_1186_959)">
<path d="M32.0087 13.9884C31.4593 13.51 32.943 14.802 32.0087 13.9884V13.9884Z" />
<path d="M32.0086 13.9884C31.4024 13.4604 30.6109 12.9092 30.6466 12.0232C30.685 11.078 31.0345 10.1664 31.1566 9.23109C31.2691 8.36885 31.2001 7.44371 30.5707 6.78309C30.0118 6.19591 29.1883 5.98443 28.4117 5.87393C27.5424 5.75017 26.5893 5.80559 25.7574 5.49823C24.9832 5.21161 24.6945 4.13653 24.4011 3.45109C24.0914 2.72757 23.7592 1.96903 23.19 1.40735C22.5376 0.76305 21.6515 0.58931 20.7794 0.84295C19.7842 1.13263 18.9495 1.78747 18.039 2.25735C17.7038 2.43075 17.3097 2.62829 16.9208 2.59599C16.4669 2.55825 16.0306 2.30257 15.643 2.08327C14.7652 1.58687 13.8978 0.94257 12.8839 0.76271C12.0064 0.60699 11.1941 0.93985 10.625 1.61067C10.1014 2.22777 9.79572 2.99821 9.48122 3.73431C9.15142 4.50747 8.86174 5.36461 7.96686 5.58153C6.44128 5.95179 4.30608 5.55093 3.248 7.00443C2.71012 7.74325 2.74888 8.69899 2.89678 9.55715C3.05046 10.4466 3.4384 11.3952 3.35068 12.3067C3.27418 13.1017 2.31164 13.7082 1.76526 14.189C1.1417 14.7374 0.486185 15.3392 0.172025 16.1276C-0.552516 17.946 1.1587 19.2556 2.34632 20.3175C2.65504 20.5939 2.98722 20.8846 3.20448 21.2419C3.41528 21.5891 3.37006 22.0182 3.31362 22.402C3.17592 23.3404 2.85802 24.2482 2.806 25.1999C2.75874 26.0638 2.99436 26.923 3.71176 27.4629C4.35844 27.9498 5.19994 28.0865 5.98466 28.1728C6.4236 28.2208 6.86458 28.2493 7.30284 28.3031C7.70846 28.3527 8.1967 28.4006 8.53806 28.6492C8.84712 28.8743 9.03106 29.2768 9.19086 29.6114C9.39316 30.035 9.56486 30.4719 9.75628 30.8996C10.0735 31.6095 10.4523 32.3531 11.0898 32.8288C11.8639 33.4064 12.8163 33.3507 13.6731 32.9947C14.6193 32.6017 15.4248 31.9329 16.3737 31.5483C17.2659 31.1876 18.0394 31.7183 18.7965 32.1678C19.6404 32.6693 20.5577 33.2762 21.5771 33.2762C22.4369 33.2762 23.1315 32.773 23.6058 32.0889C24.0869 31.395 24.3678 30.5896 24.7129 29.8259C24.8808 29.4539 25.0597 29.0456 25.349 28.7501C25.6316 28.4618 26.0848 28.3914 26.4659 28.335C27.9844 28.1079 30.1933 28.3003 30.9689 26.6296C31.349 25.8115 31.2008 24.8571 31.0226 24.0078C30.9267 23.5481 30.8101 23.0936 30.7268 22.6318C30.6568 22.2425 30.5619 21.7611 30.7248 21.382C31.0267 20.6799 31.8386 20.1669 32.3904 19.6728C32.9609 19.1622 33.542 18.5944 33.8303 17.8698C34.4821 16.2351 33.1282 14.9632 32.0086 13.9884ZM32.284 17.1385C32.1245 17.7865 31.3759 18.3071 30.8995 18.7201C31.061 18.5801 31.197 18.4611 30.8924 18.7263C30.2103 19.3206 29.4443 19.952 29.1179 20.8254C28.7545 21.7968 29.0282 22.8807 29.2481 23.8521C29.3736 24.4046 29.8438 25.7075 29.24 26.126C28.9404 26.3338 28.5331 26.3895 28.1812 26.4395C27.6957 26.5078 27.2058 26.5378 26.7182 26.5895C25.8386 26.6836 24.8982 26.8451 24.2277 27.4707C23.5606 28.0929 23.2182 28.9888 22.8684 29.8096C22.646 30.3301 22.2506 31.6412 21.5006 31.5721C21.0851 31.5337 20.6846 31.2957 20.3289 31.0955C19.8543 30.8279 19.396 30.5331 18.9149 30.2781C18.0193 29.8035 17.0853 29.5369 16.0884 29.847C15.0987 30.155 14.2681 30.8027 13.3542 31.2702C13.0618 31.4195 12.6157 31.6673 12.2736 31.5538C11.9319 31.4429 11.7184 31.0278 11.5634 30.7344C11.1275 29.9095 10.8592 29.0031 10.3659 28.2075C9.87596 27.4167 9.18338 26.9478 8.27966 26.7438C7.3671 26.5381 6.42292 26.5646 5.50662 26.3871C5.2132 26.33 4.81302 26.2525 4.62398 25.9927C4.4091 25.6973 4.49716 25.2118 4.54816 24.8809C4.70286 23.8735 5.06156 22.892 5.05986 21.8635C5.05816 20.8649 4.57502 20.0992 3.87972 19.4202C3.22046 18.7759 2.34054 18.2343 1.85264 17.4373C1.38378 16.6706 2.32456 15.9648 2.83898 15.5102C3.53258 14.8969 4.32308 14.2995 4.75862 13.461C5.23394 12.5451 5.05102 11.4826 4.8409 10.5197C4.7389 10.0536 4.62092 9.58945 4.5485 9.11719C4.4975 8.78569 4.4091 8.30051 4.62432 8.00505C4.81336 7.74529 5.21354 7.66777 5.5073 7.61065C5.98262 7.51851 6.46814 7.48621 6.94924 7.44133C7.83358 7.35939 8.79952 7.26249 9.54004 6.72393C10.2734 6.19013 10.6586 5.30715 11.0051 4.49897C11.1829 4.08383 11.3522 3.66325 11.5637 3.26375C11.7188 2.97033 11.9323 2.55485 12.274 2.44401C12.6191 2.33351 13.059 2.57695 13.3542 2.72791C13.8376 2.97543 14.2943 3.27157 14.7658 3.54017C15.6271 4.03079 16.5678 4.44763 17.578 4.23921C18.5868 4.03079 19.4476 3.39907 20.3289 2.90199C20.6846 2.70139 21.0854 2.46373 21.5009 2.42531C21.8746 2.39063 22.1119 2.70921 22.289 2.99481C23.2359 4.51767 23.4416 6.58657 25.4112 7.17205C26.0902 7.37367 26.8052 7.41719 27.5067 7.48247C28.049 7.53279 28.934 7.52565 29.3416 7.95711C29.7163 8.35355 29.4474 9.23143 29.3505 9.68533C29.1788 10.4922 28.9442 11.302 28.9459 12.1333C28.9486 13.764 30.2532 14.6762 31.3473 15.6724C31.707 15.9995 32.4237 16.5693 32.284 17.1385Z" />
<path d="M22.1707 12.5468L15.6376 19.6671C15.5574 19.7548 15.554 19.8133 15.4509 19.7521L14.5319 19.2104L11.9364 17.6808C11.6276 17.4989 11.3325 17.3068 10.9517 17.4265C10.2517 17.6458 10.1616 18.6086 10.7838 18.9752L12.751 20.1346L15.1157 21.5279C15.6182 21.824 16.0612 21.7196 16.4431 21.3038L19.9801 17.4479L22.8123 14.3607L23.4086 13.7109C24.158 12.8943 22.9204 11.7287 22.1707 12.5468Z" />
</g>
<defs>
<clipPath id="clip0_1186_959">
<rect width="34" height="34" fill="white"/>
</clipPath>
</defs>
</svg>
