<svg width="140" height="136" viewBox="0 0 140 136" fill="none" xmlns="http://www.w3.org/2000/svg">
<g clip-path="url(#clip0_787_14033)">
<path d="M130.325 41.6027C126.89 33.5402 122.032 26.3077 115.752 20.0238C109.473 13.7398 102.365 8.87858 94.3082 5.44018C85.8964 1.88322 77.0106 0.104736 67.8877 0.104736C58.6464 0.104736 49.7607 1.88322 41.4671 5.44018C33.4107 8.87858 26.1836 13.7398 19.9042 20.0238C13.6249 26.3077 8.76735 33.5402 5.3315 41.6027C1.77716 49.9023 0 58.7949 0 68.0429C0 77.1722 1.77716 86.0647 5.3315 94.483C8.76735 102.545 13.6249 109.778 19.9042 116.062C26.1836 122.346 33.4107 127.207 41.4671 130.527C49.879 134.084 58.7648 135.862 67.8877 135.862C77.0106 135.862 85.8964 134.084 94.3082 130.527C102.365 127.089 109.592 122.227 115.871 115.943C122.15 109.659 127.008 102.427 130.444 94.3642C133.998 85.9464 135.775 77.0538 135.775 67.9241C135.775 58.7949 133.88 49.9023 130.325 41.6027ZM45.377 61.6403C48.1019 50.7321 58.0542 42.7882 69.7832 42.7882H116.937C120.018 48.5982 121.913 55.0004 122.624 61.6403H45.377ZM122.624 74.4452C121.913 81.085 119.899 87.4877 116.937 93.2972H69.7832C58.0542 93.2972 48.2202 85.2349 45.377 74.4452H122.624ZM28.9085 29.0347C39.3346 18.601 53.1966 12.9098 67.8877 12.9098C82.5788 12.9098 96.4409 18.601 106.867 29.0347C107.222 29.3904 107.459 29.6276 107.814 29.9833H69.7832C59.5942 29.9833 50.1162 33.8959 42.8888 41.1284C37.2019 46.8198 33.5292 53.9335 32.3444 61.6403H13.151C14.5727 49.3096 20.0227 37.9271 28.9085 29.0347ZM67.8877 123.176C53.1966 123.176 39.3346 117.485 28.9085 107.051C20.0227 98.1586 14.5727 86.6574 13.151 74.4452H32.3444C33.6476 82.152 37.3204 89.2661 42.8888 94.9573C50.1162 102.19 59.5942 106.103 69.7832 106.103H107.814C107.459 106.458 107.222 106.695 106.867 107.051C96.4409 117.485 82.5788 123.176 67.8877 123.176Z" fill="#5831C8"/>
</g>
<defs>
<clipPath id="clip0_787_14033">
<rect width="140" height="135.758" fill="white" transform="translate(0 0.104736)"/>
</clipPath>
</defs>
</svg>
