<svg width="35" height="36" viewBox="0 0 35 36" fill="none" xmlns="http://www.w3.org/2000/svg">
<path d="M35 17.918C35 8.25299 27.165 0.417969 17.5 0.417969C7.83503 0.417969 0 8.25299 0 17.918C0 27.583 7.83503 35.418 17.5 35.418C27.165 35.418 35 27.583 35 17.918Z" fill="#FF0209"/>
<path d="M24.9288 25.6678C24.4074 25.7243 23.8737 25.7342 23.3622 25.7329C19.3718 25.7292 15.3813 25.7256 11.3922 25.7231C10.1366 25.7231 8.76919 25.6825 7.79895 24.8844C6.70574 23.9831 6.47825 22.4201 6.38971 21.0059C6.26674 19.0679 6.2569 17.1237 6.35774 15.1845C6.41307 14.1195 6.51022 13.0288 6.9689 12.0647C7.29846 11.3724 7.84814 10.7501 8.55153 10.423C9.36929 10.0431 10.2252 10.1107 11.1056 10.1095C13.2134 10.107 15.3211 10.1058 17.4288 10.1033C19.6202 10.1009 21.8127 10.0996 24.0041 10.0972C25.0395 10.0972 26.1512 10.1181 26.996 10.7169C28.0867 11.4892 28.3831 12.9587 28.5196 14.288C28.7717 16.7364 28.7754 19.2105 28.5294 21.6589C28.4273 22.6685 28.2576 23.7359 27.5924 24.502C26.9332 25.262 25.9556 25.5546 24.93 25.6665L24.9288 25.6678Z" fill="white"/>
<path d="M21.0684 17.9172L15.1216 14.4839V21.3506L21.0684 17.9172Z" fill="#FF0209"/>
</svg>
